  0
SECTION
  2
HEADER
  9
$ACADVER
  1
AC1032
  9
$ACADMAINTVER
 90
4
  9
$DWGCODEPAGE
  3
ANSI_1252
  9
$LASTSAVEDBY
  1
ezdxf
  9
$REQUIREDVERSIONS
160
0
  9
$INSBASE
 10
0.0
 20
0.0
 30
0.0
  9
$EXTMIN
 10
1e+20
 20
1e+20
 30
1e+20
  9
$EXTMAX
 10
-1e+20
 20
-1e+20
 30
-1e+20
  9
$LIMMIN
 10
0.0
 20
0.0
  9
$LIMMAX
 10
420.0
 20
297.0
  9
$ORTHOMODE
 70
0
  9
$REGENMODE
 70
1
  9
$FILLMODE
 70
1
  9
$QTEXTMODE
 70
0
  9
$MIRRTEXT
 70
1
  9
$LTSCALE
 40
1.0
  9
$ATTMODE
 70
1
  9
$TEXTSIZE
 40
2.5
  9
$TRACEWID
 40
1.0
  9
$TEXTSTYLE
  7
Standard
  9
$CLAYER
  8
0
  9
$CELTYPE
  6
ByLayer
  9
$CECOLOR
 62
256
  9
$CELTSCALE
 40
1.0
  9
$DISPSILH
 70
0
  9
$DIMSCALE
 40
1.0
  9
$DIMASZ
 40
2.5
  9
$DIMEXO
 40
0.625
  9
$DIMDLI
 40
3.75
  9
$DIMRND
 40
0.0
  9
$DIMDLE
 40
0.0
  9
$DIMEXE
 40
1.25
  9
$DIMTP
 40
0.0
  9
$DIMTM
 40
0.0
  9
$DIMTXT
 40
2.5
  9
$DIMCEN
 40
2.5
  9
$DIMTSZ
 40
0.0
  9
$DIMTOL
 70
0
  9
$DIMLIM
 70
0
  9
$DIMTIH
 70
0
  9
$DIMTOH
 70
0
  9
$DIMSE1
 70
0
  9
$DIMSE2
 70
0
  9
$DIMTAD
 70
1
  9
$DIMZIN
 70
8
  9
$DIMBLK
  1

  9
$DIMASO
 70
1
  9
$DIMSHO
 70
1
  9
$DIMPOST
  1

  9
$DIMAPOST
  1

  9
$DIMALT
 70
0
  9
$DIMALTD
 70
3
  9
$DIMALTF
 40
0.03937007874
  9
$DIMLFAC
 40
1.0
  9
$DIMTOFL
 70
1
  9
$DIMTVP
 40
0.0
  9
$DIMTIX
 70
0
  9
$DIMSOXD
 70
0
  9
$DIMSAH
 70
0
  9
$DIMBLK1
  1

  9
$DIMBLK2
  1

  9
$DIMSTYLE
  2
ISO-25
  9
$DIMCLRD
 70
0
  9
$DIMCLRE
 70
0
  9
$DIMCLRT
 70
0
  9
$DIMTFAC
 40
1.0
  9
$DIMGAP
 40
0.625
  9
$DIMJUST
 70
0
  9
$DIMSD1
 70
0
  9
$DIMSD2
 70
0
  9
$DIMTOLJ
 70
0
  9
$DIMTZIN
 70
8
  9
$DIMALTZ
 70
0
  9
$DIMALTTZ
 70
0
  9
$DIMUPT
 70
0
  9
$DIMDEC
 70
2
  9
$DIMTDEC
 70
2
  9
$DIMALTU
 70
2
  9
$DIMALTTD
 70
3
  9
$DIMTXSTY
  7
Standard
  9
$DIMAUNIT
 70
0
  9
$DIMADEC
 70
0
  9
$DIMALTRND
 40
0.0
  9
$DIMAZIN
 70
0
  9
$DIMDSEP
 70
44
  9
$DIMATFIT
 70
3
  9
$DIMFRAC
 70
0
  9
$DIMLDRBLK
  1

  9
$DIMLUNIT
 70
2
  9
$DIMLWD
 70
-2
  9
$DIMLWE
 70
-2
  9
$DIMTMOVE
 70
0
  9
$DIMFXL
 40
1.0
  9
$DIMFXLON
 70
0
  9
$DIMJOGANG
 40
0.785398163397
  9
$DIMTFILL
 70
0
  9
$DIMTFILLCLR
 70
0
  9
$DIMARCSYM
 70
0
  9
$DIMLTYPE
  6

  9
$DIMLTEX1
  6

  9
$DIMLTEX2
  6

  9
$DIMTXTDIRECTION
 70
0
  9
$LUNITS
 70
2
  9
$LUPREC
 70
4
  9
$SKETCHINC
 40
1.0
  9
$FILLETRAD
 40
10.0
  9
$AUNITS
 70
0
  9
$AUPREC
 70
2
  9
$MENU
  1
.
  9
$ELEVATION
 40
0.0
  9
$PELEVATION
 40
0.0
  9
$THICKNESS
 40
0.0
  9
$LIMCHECK
 70
0
  9
$CHAMFERA
 40
0.0
  9
$CHAMFERB
 40
0.0
  9
$CHAMFERC
 40
0.0
  9
$CHAMFERD
 40
0.0
  9
$SKPOLY
 70
0
  9
$TDCREATE
 40
2461311.6186458333
  9
$TDUCREATE
 40
2458532.153996898
  9
$TDUPDATE
 40
2461311.6186458333
  9
$TDUUPDATE
 40
2458532.1544311
  9
$TDINDWG
 40
0.0
  9
$TDUSRTIMER
 40
0.0
  9
$USRTIMER
 70
1
  9
$ANGBASE
 50
0.0
  9
$ANGDIR
 70
0
  9
$PDMODE
 70
0
  9
$PDSIZE
 40
0.0
  9
$PLINEWID
 40
0.0
  9
$SPLFRAME
 70
0
  9
$SPLINETYPE
 70
6
  9
$SPLINESEGS
 70
8
  9
$HANDSEED
  5
E9
  9
$SURFTAB1
 70
6
  9
$SURFTAB2
 70
6
  9
$SURFTYPE
 70
6
  9
$SURFU
 70
6
  9
$SURFV
 70
6
  9
$UCSBASE
  2

  9
$UCSNAME
  2

  9
$UCSORG
 10
0.0
 20
0.0
 30
0.0
  9
$UCSXDIR
 10
1.0
 20
0.0
 30
0.0
  9
$UCSYDIR
 10
0.0
 20
1.0
 30
0.0
  9
$UCSORTHOREF
  2

  9
$UCSORTHOVIEW
 70
0
  9
$UCSORGTOP
 10
0.0
 20
0.0
 30
0.0
  9
$UCSORGBOTTOM
 10
0.0
 20
0.0
 30
0.0
  9
$UCSORGLEFT
 10
0.0
 20
0.0
 30
0.0
  9
$UCSORGRIGHT
 10
0.0
 20
0.0
 30
0.0
  9
$UCSORGFRONT
 10
0.0
 20
0.0
 30
0.0
  9
$UCSORGBACK
 10
0.0
 20
0.0
 30
0.0
  9
$PUCSBASE
  2

  9
$PUCSNAME
  2

  9
$PUCSORG
 10
0.0
 20
0.0
 30
0.0
  9
$PUCSXDIR
 10
1.0
 20
0.0
 30
0.0
  9
$PUCSYDIR
 10
0.0
 20
1.0
 30
0.0
  9
$PUCSORTHOREF
  2

  9
$PUCSORTHOVIEW
 70
0
  9
$PUCSORGTOP
 10
0.0
 20
0.0
 30
0.0
  9
$PUCSORGBOTTOM
 10
0.0
 20
0.0
 30
0.0
  9
$PUCSORGLEFT
 10
0.0
 20
0.0
 30
0.0
  9
$PUCSORGRIGHT
 10
0.0
 20
0.0
 30
0.0
  9
$PUCSORGFRONT
 10
0.0
 20
0.0
 30
0.0
  9
$PUCSORGBACK
 10
0.0
 20
0.0
 30
0.0
  9
$USERI1
 70
0
  9
$USERI2
 70
0
  9
$USERI3
 70
0
  9
$USERI4
 70
0
  9
$USERI5
 70
0
  9
$USERR1
 40
0.0
  9
$USERR2
 40
0.0
  9
$USERR3
 40
0.0
  9
$USERR4
 40
0.0
  9
$USERR5
 40
0.0
  9
$WORLDVIEW
 70
1
  9
$SHADEDGE
 70
3
  9
$SHADEDIF
 70
70
  9
$TILEMODE
 70
1
  9
$MAXACTVP
 70
64
  9
$PINSBASE
 10
0.0
 20
0.0
 30
0.0
  9
$PLIMCHECK
 70
0
  9
$PEXTMIN
 10
1e+20
 20
1e+20
 30
1e+20
  9
$PEXTMAX
 10
-1e+20
 20
-1e+20
 30
-1e+20
  9
$PLIMMIN
 10
0.0
 20
0.0
  9
$PLIMMAX
 10
420.0
 20
297.0
  9
$UNITMODE
 70
0
  9
$VISRETAIN
 70
1
  9
$PLINEGEN
 70
0
  9
$PSLTSCALE
 70
1
  9
$TREEDEPTH
 70
3020
  9
$CMLSTYLE
  2
Standard
  9
$CMLJUST
 70
0
  9
$CMLSCALE
 40
20.0
  9
$PROXYGRAPHICS
 70
1
  9
$MEASUREMENT
 70
1
  9
$CELWEIGHT
370
-1
  9
$ENDCAPS
280
0
  9
$JOINSTYLE
280
0
  9
$LWDISPLAY
290
0
  9
$INSUNITS
 70
4
  9
$HYPERLINKBASE
  1

  9
$STYLESHEET
  1

  9
$XEDIT
290
1
  9
$CEPSNTYPE
380
0
  9
$PSTYLEMODE
290
1
  9
$FINGERPRINTGUID
  2
{4B2BEC0A-89E7-42DF-B0A6-9A2CDC02FB89}
  9
$VERSIONGUID
  2
{80745754-C000-47D4-BCA5-84440D844BDA}
  9
$EXTNAMES
290
1
  9
$PSVPSCALE
 40
0.0
  9
$OLESTARTUP
290
0
  9
$SORTENTS
280
127
  9
$INDEXCTL
280
0
  9
$HIDETEXT
280
1
  9
$XCLIPFRAME
280
1
  9
$HALOGAP
280
0
  9
$OBSCOLOR
 70
257
  9
$OBSLTYPE
280
0
  9
$INTERSECTIONDISPLAY
280
0
  9
$INTERSECTIONCOLOR
 70
257
  9
$DIMASSOC
280
2
  9
$PROJECTNAME
  1

  9
$CAMERADISPLAY
290
0
  9
$LENSLENGTH
 40
50.0
  9
$CAMERAHEIGHT
 40
0.0
  9
$STEPSPERSEC
 40
24.0
  9
$STEPSIZE
 40
100.0
  9
$3DDWFPREC
 40
2.0
  9
$PSOLWIDTH
 40
0.005
  9
$PSOLHEIGHT
 40
0.08
  9
$LOFTANG1
 40
1.570796326795
  9
$LOFTANG2
 40
1.570796326795
  9
$LOFTMAG1
 40
0.0
  9
$LOFTMAG2
 40
0.0
  9
$LOFTPARAM
 70
7
  9
$LOFTNORMALS
280
1
  9
$LATITUDE
 40
37.795
  9
$LONGITUDE
 40
-122.394
  9
$NORTHDIRECTION
 40
0.0
  9
$TIMEZONE
 70
-8000
  9
$LIGHTGLYPHDISPLAY
280
1
  9
$TILEMODELIGHTSYNCH
280
1
  9
$CMATERIAL
347
20
  9
$SOLIDHIST
280
0
  9
$SHOWHIST
280
1
  9
$DWFFRAME
280
2
  9
$DGNFRAME
280
2
  9
$REALWORLDSCALE
290
1
  9
$INTERFERECOLOR
 62
256
  9
$CSHADOW
280
0
  9
$SHADOWPLANELOCATION
 40
0.0
  0
ENDSEC
  0
SECTION
  2
CLASSES
  0
CLASS
  1
ACDBDICTIONARYWDFLT
  2
AcDbDictionaryWithDefault
  3
ObjectDBX Classes
 90
0
 91
0
280
0
281
0
  0
CLASS
  1
SUN
  2
AcDbSun
  3
SCENEOE
 90
1153
 91
0
280
0
281
0
  0
CLASS
  1
VISUALSTYLE
  2
AcDbVisualStyle
  3
ObjectDBX Classes
 90
4095
 91
0
280
0
281
0
  0
CLASS
  1
MATERIAL
  2
AcDbMaterial
  3
ObjectDBX Classes
 90
1153
 91
0
280
0
281
0
  0
CLASS
  1
SCALE
  2
AcDbScale
  3
ObjectDBX Classes
 90
1153
 91
0
280
0
281
0
  0
CLASS
  1
TABLESTYLE
  2
AcDbTableStyle
  3
ObjectDBX Classes
 90
4095
 91
0
280
0
281
0
  0
CLASS
  1
MLEADERSTYLE
  2
AcDbMLeaderStyle
  3
ACDB_MLEADERSTYLE_CLASS
 90
4095
 91
0
280
0
281
0
  0
CLASS
  1
DICTIONARYVAR
  2
AcDbDictionaryVar
  3
ObjectDBX Classes
 90
0
 91
0
280
0
281
0
  0
CLASS
  1
CELLSTYLEMAP
  2
AcDbCellStyleMap
  3
ObjectDBX Classes
 90
1152
 91
0
280
0
281
0
  0
CLASS
  1
MENTALRAYRENDERSETTINGS
  2
AcDbMentalRayRenderSettings
  3
SCENEOE
 90
1024
 91
0
280
0
281
0
  0
CLASS
  1
ACDBDETAILVIEWSTYLE
  2
AcDbDetailViewStyle
  3
ObjectDBX Classes
 90
1025
 91
0
280
0
281
0
  0
CLASS
  1
ACDBSECTIONVIEWSTYLE
  2
AcDbSectionViewStyle
  3
ObjectDBX Classes
 90
1025
 91
0
280
0
281
0
  0
CLASS
  1
RASTERVARIABLES
  2
AcDbRasterVariables
  3
ISM
 90
0
 91
0
280
0
281
0
  0
CLASS
  1
ACDBPLACEHOLDER
  2
AcDbPlaceHolder
  3
ObjectDBX Classes
 90
0
 91
0
280
0
281
0
  0
CLASS
  1
LAYOUT
  2
AcDbLayout
  3
ObjectDBX Classes
 90
0
 91
0
280
0
281
0
  0
ENDSEC
  0
SECTION
  2
TABLES
  0
TABLE
  2
VPORT
  5
8
330
0
100
AcDbSymbolTable
 70
1
  0
VPORT
  5
23
330
8
100
AcDbSymbolTableRecord
100
AcDbViewportTableRecord
  2
*Active
 70
0
 10
0.0
 20
0.0
 11
1.0
 21
1.0
 12
0.0
 22
0.0
 13
0.0
 23
0.0
 14
0.5
 24
0.5
 15
0.5
 25
0.5
 16
0.0
 26
0.0
 36
1.0
 17
0.0
 27
0.0
 37
0.0
 40
1000.0
 41
1.34
 42
50.0
 43
0.0
 44
0.0
 50
0.0
 51
0.0
 71
0
 72
1000
 73
1
 74
3
 75
0
 76
0
 77
0
 78
0
281
0
 65
0
146
0.0
  0
ENDTAB
  0
TABLE
  2
LTYPE
  5
2
330
0
100
AcDbSymbolTable
 70
3
  0
LTYPE
  5
24
330
2
100
AcDbSymbolTableRecord
100
AcDbLinetypeTableRecord
  2
ByBlock
 70
0
  3

 72
65
 73
0
 40
0.0
  0
LTYPE
  5
25
330
2
100
AcDbSymbolTableRecord
100
AcDbLinetypeTableRecord
  2
ByLayer
 70
0
  3

 72
65
 73
0
 40
0.0
  0
LTYPE
  5
26
330
2
100
AcDbSymbolTableRecord
100
AcDbLinetypeTableRecord
  2
Continuous
 70
0
  3

 72
65
 73
0
 40
0.0
  0
ENDTAB
  0
TABLE
  2
LAYER
  5
1
330
0
100
AcDbSymbolTable
 70
7
  0
LAYER
  5
27
330
1
100
AcDbSymbolTableRecord
100
AcDbLayerTableRecord
  2
0
 70
0
 62
7
  6
Continuous
370
-3
390
13
347
21
  0
LAYER
  5
28
330
1
100
AcDbSymbolTableRecord
100
AcDbLayerTableRecord
  2
Defpoints
 70
0
 62
7
  6
Continuous
290
0
370
-3
390
13
347
21
  0
LAYER
  5
2F
330
1
100
AcDbSymbolTableRecord
100
AcDbLayerTableRecord
  2
XY
 70
0
 62
7
  6
Continuous
370
-3
390
13
347
21
  0
LAYER
  5
30
330
1
100
AcDbSymbolTableRecord
100
AcDbLayerTableRecord
  2
XZ
 70
0
 62
7
  6
Continuous
370
-3
390
13
347
21
  0
LAYER
  5
31
330
1
100
AcDbSymbolTableRecord
100
AcDbLayerTableRecord
  2
YZ
 70
0
 62
7
  6
Continuous
370
-3
390
13
347
21
  0
LAYER
  5
32
330
1
100
AcDbSymbolTableRecord
100
AcDbLayerTableRecord
  2
DIMENSIONS
 70
0
 62
7
  6
Continuous
370
-3
390
13
347
21
  0
LAYER
  5
33
330
1
100
AcDbSymbolTableRecord
100
AcDbLayerTableRecord
  2
NOTES
 70
0
 62
7
  6
Continuous
370
-3
390
13
347
21
  0
ENDTAB
  0
TABLE
  2
STYLE
  5
5
330
0
100
AcDbSymbolTable
 70
1
  0
STYLE
  5
29
330
5
100
AcDbSymbolTableRecord
100
AcDbTextStyleTableRecord
  2
Standard
 70
0
 40
0.0
 41
1.0
 50
0.0
 71
0
 42
2.5
  3
txt
  4

  0
ENDTAB
  0
TABLE
  2
VIEW
  5
7
330
0
100
AcDbSymbolTable
 70
0
  0
ENDTAB
  0
TABLE
  2
UCS
  5
6
330
0
100
AcDbSymbolTable
 70
0
  0
ENDTAB
  0
TABLE
  2
APPID
  5
3
330
0
100
AcDbSymbolTable
 70
3
  0
APPID
  5
2A
330
3
100
AcDbSymbolTableRecord
100
AcDbRegAppTableRecord
  2
ACAD
 70
0
  0
APPID
  5
E6
330
3
100
AcDbSymbolTableRecord
100
AcDbRegAppTableRecord
  2
HATCHBACKGROUNDCOLOR
 70
0
  0
APPID
  5
E7
330
3
100
AcDbSymbolTableRecord
100
AcDbRegAppTableRecord
  2
EZDXF
 70
0
  0
ENDTAB
  0
TABLE
  2
DIMSTYLE
  5
4
330
0
100
AcDbSymbolTable
 70
1
100
AcDbDimStyleTable
  0
DIMSTYLE
105
2B
330
4
100
AcDbSymbolTableRecord
100
AcDbDimStyleTableRecord
  2
Standard
 70
0
 40
1.0
 41
2.5
 42
0.625
 43
3.75
 44
1.25
 45
0.0
 46
0.0
 47
0.0
 48
0.0
 49
2.5
140
2.5
141
2.5
142
0.0
143
0.03937007874
144
1.0
145
0.0
146
1.0
147
0.625
148
0.0
 69
0
 70
0
 71
0
 72
0
 73
0
 74
0
 75
0
 76
0
 77
1
 78
8
 79
3
170
0
171
3
172
1
173
0
174
0
175
0
176
0
177
0
178
0
179
2
271
2
272
2
273
2
274
3
275
0
276
0
277
2
278
44
279
0
280
0
281
0
282
0
283
0
284
8
285
0
286
0
288
0
289
3
290
0
371
-2
372
-2
  0
ENDTAB
  0
TABLE
  2
BLOCK_RECORD
  5
9
330
0
100
AcDbSymbolTable
 70
9
  0
BLOCK_RECORD
  5
17
330
9
100
AcDbSymbolTableRecord
100
AcDbBlockTableRecord
  2
*Model_Space
340
1A
 70
0
280
1
281
0
  0
BLOCK_RECORD
  5
1B
330
9
100
AcDbSymbolTableRecord
100
AcDbBlockTableRecord
  2
*Paper_Space
340
1E
 70
0
280
1
281
0
  0
BLOCK_RECORD
  5
4B
330
9
100
AcDbSymbolTableRecord
100
AcDbBlockTableRecord
  2
*D1
340
0
 70
0
280
1
281
0
  0
BLOCK_RECORD
  5
50
330
9
100
AcDbSymbolTableRecord
100
AcDbBlockTableRecord
  2
_CLOSEDFILLED
340
0
 70
0
280
1
281
0
  0
BLOCK_RECORD
  5
5F
330
9
100
AcDbSymbolTableRecord
100
AcDbBlockTableRecord
  2
*D2
340
0
 70
0
280
1
281
0
  0
BLOCK_RECORD
  5
8C
330
9
100
AcDbSymbolTableRecord
100
AcDbBlockTableRecord
  2
*D3
340
0
 70
0
280
1
281
0
  0
BLOCK_RECORD
  5
9C
330
9
100
AcDbSymbolTableRecord
100
AcDbBlockTableRecord
  2
*D4
340
0
 70
0
280
1
281
0
  0
BLOCK_RECORD
  5
C5
330
9
100
AcDbSymbolTableRecord
100
AcDbBlockTableRecord
  2
*D5
340
0
 70
0
280
1
281
0
  0
BLOCK_RECORD
  5
D5
330
9
100
AcDbSymbolTableRecord
100
AcDbBlockTableRecord
  2
*D6
340
0
 70
0
280
1
281
0
  0
ENDTAB
  0
ENDSEC
  0
SECTION
  2
BLOCKS
  0
BLOCK
  5
18
330
17
100
AcDbEntity
  8
0
100
AcDbBlockBegin
  2
*Model_Space
 70
0
 10
0.0
 20
0.0
 30
0.0
  3
*Model_Space
  1

  0
ENDBLK
  5
19
330
17
100
AcDbEntity
  8
0
100
AcDbBlockEnd
  0
BLOCK
  5
1C
330
1B
100
AcDbEntity
  8
0
100
AcDbBlockBegin
  2
*Paper_Space
 70
0
 10
0.0
 20
0.0
 30
0.0
  3
*Paper_Space
  1

  0
ENDBLK
  5
1D
330
1B
100
AcDbEntity
  8
0
100
AcDbBlockEnd
  0
BLOCK
  5
4C
330
4B
100
AcDbEntity
  8
0
100
AcDbBlockBegin
  2
*D1
 70
1
 10
0.0
 20
0.0
 30
0.0
  3
*D1
  1

  0
LINE
  5
4E
330
4B
100
AcDbEntity
  8
0
100
AcDbLine
 10
0.0
 20
0.0
 30
0.0
 11
0.0
 21
-24.0
 31
0.0
  0
LINE
  5
4F
330
4B
100
AcDbEntity
  8
0
100
AcDbLine
 10
140.0
 20
0.0
 30
0.0
 11
140.0
 21
-24.0
 31
0.0
  0
INSERT
  5
54
330
4B
100
AcDbEntity
  8
DIMENSIONS
100
AcDbBlockReference
  2
_CLOSEDFILLED
 10
0.0
 20
-24.0
 30
0.0
 41
3.0
 42
3.0
 50
180.0
  0
INSERT
  5
56
330
4B
100
AcDbEntity
  8
DIMENSIONS
100
AcDbBlockReference
  2
_CLOSEDFILLED
 10
140.0
 20
-24.0
 30
0.0
 41
3.0
 42
3.0
  0
LINE
  5
58
330
4B
100
AcDbEntity
  8
0
100
AcDbLine
 10
3.0
 20
-24.0
 30
0.0
 11
65.5
 21
-24.0
 31
0.0
  0
LINE
  5
59
330
4B
100
AcDbEntity
  8
0
100
AcDbLine
 10
74.5
 20
-24.0
 30
0.0
 11
137.0
 21
-24.0
 31
0.0
  0
MTEXT
  5
5A
330
4B
100
AcDbEntity
  8
DIMENSIONS
100
AcDbMText
 10
70.0
 20
-24.0
 30
0.0
 40
3.0
 71
5
  1
140
  0
POINT
  5
5B
330
4B
100
AcDbEntity
  8
Defpoints
100
AcDbPoint
 10
0.0
 20
-24.0
 30
0.0
  0
POINT
  5
5C
330
4B
100
AcDbEntity
  8
Defpoints
100
AcDbPoint
 10
0.0
 20
0.0
 30
0.0
  0
POINT
  5
5D
330
4B
100
AcDbEntity
  8
Defpoints
100
AcDbPoint
 10
140.0
 20
0.0
 30
0.0
  0
ENDBLK
  5
4D
330
4B
100
AcDbEntity
  8
0
100
AcDbBlockEnd
  0
BLOCK
  5
51
330
50
100
AcDbEntity
  8
0
100
AcDbBlockBegin
  2
_CLOSEDFILLED
 70
0
 10
0.0
 20
0.0
 30
0.0
  3
_CLOSEDFILLED
  1

  0
SOLID
  5
53
330
50
100
AcDbEntity
  8
0
  6
BYBLOCK
 62
0
100
AcDbTrace
 10
-1.0
 20
0.16439898372402537
 30
0.0
 11
0.0
 21
0.0
 31
0.0
 12
-1.0
 22
-0.16439898372402537
 32
0.0
 13
-1.0
 23
-0.16439898372402537
 33
0.0
  0
ENDBLK
  5
52
330
50
100
AcDbEntity
  8
0
100
AcDbBlockEnd
  0
BLOCK
  5
60
330
5F
100
AcDbEntity
  8
0
100
AcDbBlockBegin
  2
*D2
 70
1
 10
0.0
 20
0.0
 30
0.0
  3
*D2
  1

  0
LINE
  5
62
330
5F
100
AcDbEntity
  8
0
100
AcDbLine
 10
0.0
 20
0.0
 30
0.0
 11
-24.0
 21
0.0
 31
0.0
  0
LINE
  5
63
330
5F
100
AcDbEntity
  8
0
100
AcDbLine
 10
0.0
 20
140.0
 30
0.0
 11
-24.0
 21
140.0
 31
0.0
  0
INSERT
  5
64
330
5F
100
AcDbEntity
  8
DIMENSIONS
100
AcDbBlockReference
  2
_CLOSEDFILLED
 10
-24.0
 20
0.0
 30
0.0
 41
3.0
 42
3.0
 50
270.0
  0
INSERT
  5
66
330
5F
100
AcDbEntity
  8
DIMENSIONS
100
AcDbBlockReference
  2
_CLOSEDFILLED
 10
-24.0
 20
140.0
 30
0.0
 41
3.0
 42
3.0
 50
90.0
  0
LINE
  5
68
330
5F
100
AcDbEntity
  8
0
100
AcDbLine
 10
-24.0
 20
3.0
 30
0.0
 11
-24.0
 21
65.5
 31
0.0
  0
LINE
  5
69
330
5F
100
AcDbEntity
  8
0
100
AcDbLine
 10
-24.0
 20
74.5
 30
0.0
 11
-24.0
 21
137.0
 31
0.0
  0
MTEXT
  5
6A
330
5F
100
AcDbEntity
  8
DIMENSIONS
100
AcDbMText
 10
-24.0
 20
70.0
 30
0.0
 40
3.0
 71
5
  1
140
 50
90.0
  0
POINT
  5
6B
330
5F
100
AcDbEntity
  8
Defpoints
100
AcDbPoint
 10
-24.0
 20
0.0
 30
0.0
  0
POINT
  5
6C
330
5F
100
AcDbEntity
  8
Defpoints
100
AcDbPoint
 10
0.0
 20
0.0
 30
0.0
  0
POINT
  5
6D
330
5F
100
AcDbEntity
  8
Defpoints
100
AcDbPoint
 10
0.0
 20
140.0
 30
0.0
  0
ENDBLK
  5
61
330
5F
100
AcDbEntity
  8
0
100
AcDbBlockEnd
  0
BLOCK
  5
8D
330
8C
100
AcDbEntity
  8
0
100
AcDbBlockBegin
  2
*D3
 70
1
 10
0.0
 20
0.0
 30
0.0
  3
*D3
  1

  0
LINE
  5
8F
330
8C
100
AcDbEntity
  8
0
100
AcDbLine
 10
0.0
 20
-220.00000020000004
 30
0.0
 11
0.0
 21
-244.00000020000004
 31
0.0
  0
LINE
  5
90
330
8C
100
AcDbEntity
  8
0
100
AcDbLine
 10
140.0
 20
-220.00000020000004
 30
0.0
 11
140.0
 21
-244.00000020000004
 31
0.0
  0
INSERT
  5
91
330
8C
100
AcDbEntity
  8
DIMENSIONS
100
AcDbBlockReference
  2
_CLOSEDFILLED
 10
0.0
 20
-244.00000020000004
 30
0.0
 41
3.0
 42
3.0
 50
180.0
  0
INSERT
  5
93
330
8C
100
AcDbEntity
  8
DIMENSIONS
100
AcDbBlockReference
  2
_CLOSEDFILLED
 10
140.0
 20
-244.00000020000004
 30
0.0
 41
3.0
 42
3.0
  0
LINE
  5
95
330
8C
100
AcDbEntity
  8
0
100
AcDbLine
 10
3.0
 20
-244.00000020000004
 30
0.0
 11
65.5
 21
-244.00000020000004
 31
0.0
  0
LINE
  5
96
330
8C
100
AcDbEntity
  8
0
100
AcDbLine
 10
74.5
 20
-244.00000020000004
 30
0.0
 11
137.0
 21
-244.00000020000004
 31
0.0
  0
MTEXT
  5
97
330
8C
100
AcDbEntity
  8
DIMENSIONS
100
AcDbMText
 10
70.0
 20
-244.00000020000004
 30
0.0
 40
3.0
 71
5
  1
140
  0
POINT
  5
98
330
8C
100
AcDbEntity
  8
Defpoints
100
AcDbPoint
 10
0.0
 20
-244.00000020000004
 30
0.0
  0
POINT
  5
99
330
8C
100
AcDbEntity
  8
Defpoints
100
AcDbPoint
 10
0.0
 20
-220.00000020000004
 30
0.0
  0
POINT
  5
9A
330
8C
100
AcDbEntity
  8
Defpoints
100
AcDbPoint
 10
140.0
 20
-220.00000020000004
 30
0.0
  0
ENDBLK
  5
8E
330
8C
100
AcDbEntity
  8
0
100
AcDbBlockEnd
  0
BLOCK
  5
9D
330
9C
100
AcDbEntity
  8
0
100
AcDbBlockBegin
  2
*D4
 70
1
 10
0.0
 20
0.0
 30
0.0
  3
*D4
  1

  0
LINE
  5
9F
330
9C
100
AcDbEntity
  8
0
100
AcDbLine
 10
0.0
 20
-220.00000020000004
 30
0.0
 11
-24.0
 21
-220.00000020000004
 31
0.0
  0
LINE
  5
A0
330
9C
100
AcDbEntity
  8
0
100
AcDbLine
 10
0.0
 20
-100.0
 30
0.0
 11
-24.0
 21
-100.0
 31
0.0
  0
INSERT
  5
A1
330
9C
100
AcDbEntity
  8
DIMENSIONS
100
AcDbBlockReference
  2
_CLOSEDFILLED
 10
-24.0
 20
-220.00000020000004
 30
0.0
 41
3.0
 42
3.0
 50
270.0
  0
INSERT
  5
A3
330
9C
100
AcDbEntity
  8
DIMENSIONS
100
AcDbBlockReference
  2
_CLOSEDFILLED
 10
-24.0
 20
-100.0
 30
0.0
 41
3.0
 42
3.0
 50
90.0
  0
LINE
  5
A5
330
9C
100
AcDbEntity
  8
0
100
AcDbLine
 10
-24.0
 20
-217.00000020000004
 30
0.0
 11
-24.0
 21
-164.50000010000002
 31
0.0
  0
LINE
  5
A6
330
9C
100
AcDbEntity
  8
0
100
AcDbLine
 10
-24.0
 20
-155.50000010000002
 30
0.0
 11
-24.0
 21
-103.0
 31
0.0
  0
MTEXT
  5
A7
330
9C
100
AcDbEntity
  8
DIMENSIONS
100
AcDbMText
 10
-24.0
 20
-160.00000010000002
 30
0.0
 40
3.0
 71
5
  1
120
 50
90.0
  0
POINT
  5
A8
330
9C
100
AcDbEntity
  8
Defpoints
100
AcDbPoint
 10
-24.0
 20
-220.00000020000004
 30
0.0
  0
POINT
  5
A9
330
9C
100
AcDbEntity
  8
Defpoints
100
AcDbPoint
 10
0.0
 20
-220.00000020000004
 30
0.0
  0
POINT
  5
AA
330
9C
100
AcDbEntity
  8
Defpoints
100
AcDbPoint
 10
0.0
 20
-100.0
 30
0.0
  0
ENDBLK
  5
9E
330
9C
100
AcDbEntity
  8
0
100
AcDbBlockEnd
  0
BLOCK
  5
C6
330
C5
100
AcDbEntity
  8
0
100
AcDbBlockBegin
  2
*D5
 70
1
 10
0.0
 20
0.0
 30
0.0
  3
*D5
  1

  0
LINE
  5
C8
330
C5
100
AcDbEntity
  8
0
100
AcDbLine
 10
240.0
 20
0.0
 30
0.0
 11
240.0
 21
-24.0
 31
0.0
  0
LINE
  5
C9
330
C5
100
AcDbEntity
  8
0
100
AcDbLine
 10
380.0
 20
0.0
 30
0.0
 11
380.0
 21
-24.0
 31
0.0
  0
INSERT
  5
CA
330
C5
100
AcDbEntity
  8
DIMENSIONS
100
AcDbBlockReference
  2
_CLOSEDFILLED
 10
240.0
 20
-24.0
 30
0.0
 41
3.0
 42
3.0
 50
180.0
  0
INSERT
  5
CC
330
C5
100
AcDbEntity
  8
DIMENSIONS
100
AcDbBlockReference
  2
_CLOSEDFILLED
 10
380.0
 20
-24.0
 30
0.0
 41
3.0
 42
3.0
  0
LINE
  5
CE
330
C5
100
AcDbEntity
  8
0
100
AcDbLine
 10
243.0
 20
-24.0
 30
0.0
 11
305.5
 21
-24.0
 31
0.0
  0
LINE
  5
CF
330
C5
100
AcDbEntity
  8
0
100
AcDbLine
 10
314.5
 20
-24.0
 30
0.0
 11
377.0
 21
-24.0
 31
0.0
  0
MTEXT
  5
D0
330
C5
100
AcDbEntity
  8
DIMENSIONS
100
AcDbMText
 10
310.0
 20
-24.0
 30
0.0
 40
3.0
 71
5
  1
140
  0
POINT
  5
D1
330
C5
100
AcDbEntity
  8
Defpoints
100
AcDbPoint
 10
240.0
 20
-24.0
 30
0.0
  0
POINT
  5
D2
330
C5
100
AcDbEntity
  8
Defpoints
100
AcDbPoint
 10
240.0
 20
0.0
 30
0.0
  0
POINT
  5
D3
330
C5
100
AcDbEntity
  8
Defpoints
100
AcDbPoint
 10
380.0
 20
0.0
 30
0.0
  0
ENDBLK
  5
C7
330
C5
100
AcDbEntity
  8
0
100
AcDbBlockEnd
  0
BLOCK
  5
D6
330
D5
100
AcDbEntity
  8
0
100
AcDbBlockBegin
  2
*D6
 70
1
 10
0.0
 20
0.0
 30
0.0
  3
*D6
  1

  0
LINE
  5
D8
330
D5
100
AcDbEntity
  8
0
100
AcDbLine
 10
240.0
 20
0.0
 30
0.0
 11
216.0
 21
0.0
 31
0.0
  0
LINE
  5
D9
330
D5
100
AcDbEntity
  8
0
100
AcDbLine
 10
240.0
 20
120.00000020000004
 30
0.0
 11
216.0
 21
120.00000020000004
 31
0.0
  0
INSERT
  5
DA
330
D5
100
AcDbEntity
  8
DIMENSIONS
100
AcDbBlockReference
  2
_CLOSEDFILLED
 10
216.0
 20
0.0
 30
0.0
 41
3.0
 42
3.0
 50
270.0
  0
INSERT
  5
DC
330
D5
100
AcDbEntity
  8
DIMENSIONS
100
AcDbBlockReference
  2
_CLOSEDFILLED
 10
216.0
 20
120.00000020000004
 30
0.0
 41
3.0
 42
3.0
 50
90.0
  0
LINE
  5
DE
330
D5
100
AcDbEntity
  8
0
100
AcDbLine
 10
216.0
 20
3.0
 30
0.0
 11
216.0
 21
55.50000010000002
 31
0.0
  0
LINE
  5
DF
330
D5
100
AcDbEntity
  8
0
100
AcDbLine
 10
216.0
 20
64.50000010000002
 30
0.0
 11
216.0
 21
117.00000020000004
 31
0.0
  0
MTEXT
  5
E0
330
D5
100
AcDbEntity
  8
DIMENSIONS
100
AcDbMText
 10
216.0
 20
60.00000010000002
 30
0.0
 40
3.0
 71
5
  1
120
 50
90.0
  0
POINT
  5
E1
330
D5
100
AcDbEntity
  8
Defpoints
100
AcDbPoint
 10
216.0
 20
0.0
 30
0.0
  0
POINT
  5
E2
330
D5
100
AcDbEntity
  8
Defpoints
100
AcDbPoint
 10
240.0
 20
0.0
 30
0.0
  0
POINT
  5
E3
330
D5
100
AcDbEntity
  8
Defpoints
100
AcDbPoint
 10
240.0
 20
120.00000020000004
 30
0.0
  0
ENDBLK
  5
D7
330
D5
100
AcDbEntity
  8
0
100
AcDbBlockEnd
  0
ENDSEC
  0
SECTION
  2
ENTITIES
  0
LWPOLYLINE
  5
34
330
17
100
AcDbEntity
  8
XY
100
AcDbPolyline
 90
16
 70
0
 10
112.0
 20
70.0
 10
111.98440071574773
 20
68.85540543139571
 10
111.94030927088264
 20
67.7615947290262
 10
111.87534177505614
 20
66.76646471524504
 10
111.80066506199468
 20
65.91289829354524
 10
111.729109287357
 20
65.23749666587914
 10
111.67305089020414
 20
64.76962434686824
 10
111.64230070989245
 20
64.53019272992633
 10
111.64230071019355
 20
64.53019273146694
 10
111.67305089031625
 20
64.76962434742731
 10
111.72910928735718
 20
65.23749666588074
 10
111.80066506199489
 20
65.91289829354739
 10
111.8753417750529
 20
66.76646471532129
 10
111.94030927088319
 20
67.76159472903659
 10
111.98440071578503
 20
68.855405431436
 10
112.0
 20
70.0
  0
LWPOLYLINE
  5
35
330
17
100
AcDbEntity
  8
XY
100
AcDbPolyline
 90
16
 70
0
 10
112.0
 20
70.0
 10
111.98440071574808
 20
68.85540543140861
 10
111.94030927088392
 20
67.76159472905027
 10
111.8753417750586
 20
66.76646471527698
 10
111.80066506200049
 20
65.91289829363899
 10
111.72910928733009
 20
65.237496665536
 10
111.67305089020337
 20
64.76962434686212
 10
111.64230070989237
 20
64.53019272992564
 10
111.64230071019347
 20
64.53019273146626
 10
111.67305089031548
 20
64.7696243474212
 10
111.72910928733027
 20
65.2374966655376
 10
111.8006650620007
 20
65.91289829364112
 10
111.87534177505538
 20
66.76646471535324
 10
111.94030927088447
 20
67.76159472906066
 10
111.98440071578537
 20
68.8554054314489
 10
112.0
 20
70.0
  0
LWPOLYLINE
  5
36
330
17
100
AcDbEntity
  8
XY
100
AcDbPolyline
 90
67
 70
0
 10
112.0
 20
70.0
 10
111.80982074806955
 20
73.99235381877567
 10
111.24100528503368
 20
77.94855226313723
 10
110.29870489180888
 20
81.83276738734004
 10
108.99145318667505
 20
85.60982313773376
 10
107.33108884350679
 20
89.24551391255125
 10
105.33264837890961
 20
92.7069143331351
 10
103.01422997919707
 20
95.96267742126543
 10
100.39682960041296
 20
98.9833184822487
 10
97.50415082570197
 20
101.74148212287885
 10
94.36239020199032
 20
104.21218998611411
 10
91.0
 20
106.37306695894642
 10
87.44743054607923
 20
108.20454380488977
 10
83.73685445933171
 20
109.69003438601607
 10
79.90187529139595
 20
110.81608586958875
 10
75.97722320747799
 20
111.57250055899917
 10
71.99844046459717
 20
111.95242824568633
 10
68.00155953540282
 20
111.95242824568633
 10
64.02277679252202
 20
111.57250055899918
 10
60.09812470860406
 20
110.81608586958875
 10
56.26314554066828
 20
109.69003438601607
 10
52.55256945392077
 20
108.20454380488977
 10
49.00000000000001
 20
106.37306695894642
 10
45.63760979800966
 20
104.21218998611408
 10
42.49584917429803
 20
101.74148212287885
 10
39.60317039958705
 20
98.9833184822487
 10
36.985770020802924
 20
95.96267742126543
 10
34.66735162109038
 20
92.70691433313509
 10
32.668911156493216
 20
89.24551391255125
 10
31.008546813324955
 20
85.60982313773376
 10
29.70129510819112
 20
81.83276738734006
 10
28.75899471496632
 20
77.94855226313723
 10
28.190179251930445
 20
73.99235381877567
 10
28.0
 20
70.0
 10
28.190179251930445
 20
66.00764618122433
 10
28.758994714966313
 20
62.051447736862784
 10
29.701295108191104
 20
58.167232612659966
 10
31.00854681332494
 20
54.39017686226627
 10
32.668911156493216
 20
50.75448608744877
 10
34.6673516210904
 20
47.29308566686489
 10
36.98577002080294
 20
44.03732257873456
 10
39.60317039958706
 20
41.016681517751294
 10
42.49584917429803
 20
38.25851787712114
 10
45.63760979800968
 20
35.7878100138859
 10
48.999999999999986
 20
33.62693304105359
 10
52.55256945392077
 20
31.795456195110226
 10
56.26314554066832
 20
30.309965613983913
 10
60.09812470860407
 20
29.183914130411246
 10
64.02277679252202
 20
28.427499441000826
 10
68.0015595354028
 20
28.047571754313665
 10
71.99844046459718
 20
28.047571754313665
 10
75.977223207478
 20
28.427499441000826
 10
79.90187529139595
 20
29.183914130411253
 10
83.73685445933171
 20
30.30996561398392
 10
87.44743054607925
 20
31.795456195110233
 10
91.0
 20
33.626933041053576
 10
94.36239020199031
 20
35.787810013885895
 10
97.50415082570198
 20
38.25851787712116
 10
100.39682960041294
 20
41.016681517751294
 10
103.01422997919707
 20
44.03732257873456
 10
105.3326483789096
 20
47.293085666864876
 10
107.33108884350679
 20
50.754486087448754
 10
108.99145318667505
 20
54.39017686226626
 10
110.2987048918089
 20
58.16723261265999
 10
111.24100528503368
 20
62.05144773686279
 10
111.80982074806954
 20
66.0076461812243
 10
112.0
 20
69.99999999999999
  0
LWPOLYLINE
  5
37
330
17
100
AcDbEntity
  8
XY
100
AcDbPolyline
 90
16
 70
0
 10
112.0
 20
70.0
 10
111.98440071574747
 20
71.1445945686137
 10
111.9403092708817
 20
72.23840527099134
 10
111.8753417750504
 20
73.23353528471118
 10
111.80066506199162
 20
74.08710170648591
 10
111.7291092873538
 20
74.76250333414896
 10
111.67305089020158
 20
75.2303756531521
 10
111.64230070989143
 20
75.46980727008156
 10
111.64230071019473
 20
75.46980726852415
 10
111.67305089031993
 20
75.2303756525434
 10
111.72910928736312
 20
74.76250333406715
 10
111.80066506200231
 20
74.08710170637653
 10
111.8753417750606
 20
73.23353528457895
 10
111.94030927088968
 20
72.23840527084191
 10
111.98440071615714
 20
71.144594568325
 10
112.0
 20
70.0
  0
LWPOLYLINE
  5
38
330
17
100
AcDbEntity
  8
XY
100
AcDbPolyline
 90
16
 70
0
 10
112.0
 20
70.0
 10
111.98440071574763
 20
71.14459456860779
 10
111.9403092708823
 20
72.23840527098031
 10
111.87534177505546
 20
73.2335352847636
 10
111.80066506199373
 20
74.08710170646428
 10
111.72910928735598
 20
74.76250333412978
 10
111.67305089020331
 20
75.23037565313837
 10
111.64230070989211
 20
75.46980727007627
 10
111.64230071019395
 20
75.46980726853006
 10
111.67305089031748
 20
75.23037565256277
 10
111.72910928733418
 20
74.76250333442812
 10
111.80066506200629
 20
74.08710170630185
 10
111.87534177506174
 20
73.2335352845643
 10
111.94030927089028
 20
72.23840527083085
 10
111.9844007161573
 20
71.14459456831908
 10
112.0
 20
70.0
  0
LWPOLYLINE
  5
39
330
17
100
AcDbEntity
  8
XY
100
AcDbPolyline
 90
67
 70
0
 10
112.0
 20
70.0
 10
111.80982074806955
 20
73.99235381877567
 10
111.24100528503368
 20
77.94855226313723
 10
110.29870489180888
 20
81.83276738734004
 10
108.99145318667505
 20
85.60982313773376
 10
107.33108884350679
 20
89.24551391255125
 10
105.33264837890961
 20
92.7069143331351
 10
103.01422997919707
 20
95.96267742126543
 10
100.39682960041296
 20
98.9833184822487
 10
97.50415082570197
 20
101.74148212287885
 10
94.36239020199032
 20
104.21218998611411
 10
91.0
 20
106.37306695894642
 10
87.44743054607923
 20
108.20454380488977
 10
83.73685445933171
 20
109.69003438601607
 10
79.90187529139595
 20
110.81608586958875
 10
75.97722320747799
 20
111.57250055899917
 10
71.99844046459717
 20
111.95242824568633
 10
68.00155953540282
 20
111.95242824568633
 10
64.02277679252202
 20
111.57250055899918
 10
60.09812470860406
 20
110.81608586958875
 10
56.26314554066828
 20
109.69003438601607
 10
52.55256945392077
 20
108.20454380488977
 10
49.00000000000001
 20
106.37306695894642
 10
45.63760979800966
 20
104.21218998611408
 10
42.49584917429803
 20
101.74148212287885
 10
39.60317039958705
 20
98.9833184822487
 10
36.985770020802924
 20
95.96267742126543
 10
34.66735162109038
 20
92.70691433313509
 10
32.668911156493216
 20
89.24551391255125
 10
31.008546813324955
 20
85.60982313773376
 10
29.70129510819112
 20
81.83276738734006
 10
28.75899471496632
 20
77.94855226313723
 10
28.190179251930445
 20
73.99235381877567
 10
28.0
 20
70.0
 10
28.190179251930445
 20
66.00764618122433
 10
28.758994714966313
 20
62.051447736862784
 10
29.701295108191104
 20
58.167232612659966
 10
31.00854681332494
 20
54.39017686226627
 10
32.668911156493216
 20
50.75448608744877
 10
34.6673516210904
 20
47.29308566686489
 10
36.98577002080294
 20
44.03732257873456
 10
39.60317039958706
 20
41.016681517751294
 10
42.49584917429803
 20
38.25851787712114
 10
45.63760979800968
 20
35.7878100138859
 10
48.999999999999986
 20
33.62693304105359
 10
52.55256945392077
 20
31.795456195110226
 10
56.26314554066832
 20
30.309965613983913
 10
60.09812470860407
 20
29.183914130411246
 10
64.02277679252202
 20
28.427499441000826
 10
68.0015595354028
 20
28.047571754313665
 10
71.99844046459718
 20
28.047571754313665
 10
75.977223207478
 20
28.427499441000826
 10
79.90187529139595
 20
29.183914130411253
 10
83.73685445933171
 20
30.30996561398392
 10
87.44743054607925
 20
31.795456195110233
 10
91.0
 20
33.626933041053576
 10
94.36239020199031
 20
35.787810013885895
 10
97.50415082570198
 20
38.25851787712116
 10
100.39682960041294
 20
41.016681517751294
 10
103.01422997919707
 20
44.03732257873456
 10
105.3326483789096
 20
47.293085666864876
 10
107.33108884350679
 20
50.754486087448754
 10
108.99145318667505
 20
54.39017686226626
 10
110.2987048918089
 20
58.16723261265999
 10
111.24100528503368
 20
62.05144773686279
 10
111.80982074806954
 20
66.0076461812243
 10
112.0
 20
69.99999999999999
  0
LWPOLYLINE
  5
3A
330
17
100
AcDbEntity
  8
XY
100
AcDbPolyline
 90
16
 70
0
 10
28.0
 20
70.0
 10
28.05969072911676
 20
67.7615947290375
 10
28.19933493800425
 20
65.91289829355631
 10
28.326949109794732
 20
64.76962434687721
 10
28.357699289807
 20
64.53019273146262
 10
28.270890712645887
 20
65.23749666585394
 10
28.124658224947794
 20
66.76646471519429
 10
28.015599276753008
 20
68.85540543074994
 10
28.015599289178958
 20
71.14459457062189
 10
28.124658224951837
 20
73.23353528485809
 10
28.27089071268024
 20
74.76250333455454
 10
28.35769929011031
 20
75.4698072700948
 10
28.326949109676406
 20
75.23037565251411
 10
28.199334937993555
 20
74.08710170633432
 10
28.05969072910878
 20
72.23840527081305
 10
28.0
 20
70.0
  0
LWPOLYLINE
  5
3B
330
17
100
AcDbEntity
  8
XY
100
AcDbPolyline
 90
16
 70
0
 10
28.0
 20
70.0
 10
28.059690729116753
 20
67.76159472903764
 10
28.199334938004228
 20
65.9128982935565
 10
28.326949109794718
 20
64.76962434687735
 10
28.35769928980701
 20
64.53019273146256
 10
28.27089071267094
 20
65.23749666552689
 10
28.1246582249451
 20
66.7664647153471
 10
28.01559926772927
 20
68.8554054307048
 10
28.01559928425604
 20
71.1445945687423
 10
28.124658224955823
 20
73.23353528479174
 10
28.270890712650093
 20
74.76250333418292
 10
28.357699290109068
 20
75.46980727008537
 10
28.32694910967991
 20
75.23037565254204
 10
28.199334937990628
 20
74.08710170627016
 10
28.05969072910878
 20
72.23840527081293
 10
28.0
 20
70.0
  0
LWPOLYLINE
  5
3C
330
17
100
AcDbEntity
  8
XY
100
AcDbPolyline
 90
2
 70
0
 10
101.0
 20
70.0
 10
112.0
 20
70.0
  0
LWPOLYLINE
  5
3D
330
17
100
AcDbEntity
  8
XY
100
AcDbPolyline
 90
16
 70
0
 10
101.0
 20
70.0
 10
100.97882831718515
 20
71.14551134449661
 10
100.91899695606136
 20
72.23955960673919
 10
100.83083228190215
 20
73.23415835513698
 10
100.72941260213216
 20
74.08695497580209
 10
100.63206815327737
 20
74.76197444209919
 10
100.55563790655712
 20
75.23000880479503
 10
100.51363292516822
 20
75.46975371417736
 10
100.51363292572074
 20
75.46975371196675
 10
100.55563790673985
 20
75.23000880409644
 10
100.63206815328624
 20
74.76197444204216
 10
100.72941260214229
 20
74.0869549757259
 10
100.8308322819118
 20
73.23415835504485
 10
100.91899695606891
 20
72.23955960663501
 10
100.97882831751285
 20
71.14551134430492
 10
101.0
 20
70.0
  0
LWPOLYLINE
  5
3E
330
17
100
AcDbEntity
  8
XY
100
AcDbPolyline
 90
16
 70
0
 10
101.0
 20
70.0
 10
100.97882831718539
 20
68.85448865550968
 10
100.91899695606222
 20
67.76044039327255
 10
100.83083228190378
 20
66.76584164487862
 10
100.72941260213443
 20
65.91304502421511
 10
100.63206815327987
 20
65.2380255579169
 10
100.55563790655917
 20
64.7699911952169
 10
100.51363292516908
 20
64.53024628582736
 10
100.51363292571978
 20
64.53024628802784
 10
100.55563790673676
 20
64.76999119588561
 10
100.63206815328124
 20
65.23802555792565
 10
100.729412602136
 20
65.9130450242268
 10
100.83083228190839
 20
66.76584164484217
 10
100.91899695606283
 20
67.76044039328107
 10
100.97882831722183
 20
68.8544886555413
 10
101.0
 20
70.0
  0
LWPOLYLINE
  5
3F
330
17
100
AcDbEntity
  8
XY
100
AcDbPolyline
 90
2
 70
0
 10
101.0
 20
70.0
 10
112.0
 20
70.0
  0
LWPOLYLINE
  5
40
330
17
100
AcDbEntity
  8
XY
100
AcDbPolyline
 90
16
 70
0
 10
101.0
 20
70.0
 10
100.97882831718513
 20
71.14551134449715
 10
100.91899695606129
 20
72.2395596067402
 10
100.83083228190583
 20
73.23415835518227
 10
100.72941260213268
 20
74.08695497579808
 10
100.6320681532778
 20
74.76197444209646
 10
100.5556379065574
 20
75.23000880479353
 10
100.51363292516831
 20
75.4697537141769
 10
100.51363292572067
 20
75.46975371196714
 10
100.55563790673968
 20
75.23000880409744
 10
100.63206815328603
 20
74.76197444204352
 10
100.72941260214209
 20
74.08695497572735
 10
100.83083228191167
 20
73.23415835504618
 10
100.91899695606884
 20
72.239559606636
 10
100.97882831751284
 20
71.14551134430546
 10
101.0
 20
70.0
  0
LWPOLYLINE
  5
41
330
17
100
AcDbEntity
  8
XY
100
AcDbPolyline
 90
16
 70
0
 10
101.0
 20
70.0
 10
100.97882831718539
 20
68.85448865550968
 10
100.91899695606222
 20
67.76044039327256
 10
100.83083228190378
 20
66.76584164487862
 10
100.72941260213443
 20
65.9130450242151
 10
100.63206815327987
 20
65.2380255579169
 10
100.55563790655917
 20
64.76999119521693
 10
100.51363292516908
 20
64.53024628582737
 10
100.51363292571978
 20
64.53024628802784
 10
100.55563790673676
 20
64.76999119588561
 10
100.63206815328124
 20
65.23802555792565
 10
100.729412602136
 20
65.9130450242268
 10
100.83083228190839
 20
66.76584164484217
 10
100.91899695606283
 20
67.76044039328106
 10
100.97882831722183
 20
68.8544886555413
 10
101.0
 20
70.0
  0
LWPOLYLINE
  5
42
330
17
100
AcDbEntity
  8
XY
100
AcDbPolyline
 90
50
 70
0
 10
101.0
 20
70.0
 10
100.74549042852064
 20
73.96419201221968
 10
99.98614075420991
 20
77.86329210119473
 10
98.73441947772668
 20
81.6332771512606
 10
97.01087982782508
 20
85.21224411212208
 10
94.84382227790665
 20
88.5414264452277
 10
92.26882985302956
 20
91.56615906870807
 10
89.32818385762074
 20
94.23677595650892
 10
86.07016961762628
 20
96.50942565316572
 10
82.54828363679421
 20
98.34679131349019
 10
78.82035518556201
 20
99.71870344413648
 10
74.94759674603476
 20
100.60263528584795
 10
70.99359890472131
 20
100.98407270222133
 10
67.02328619686187
 20
100.85675250142515
 10
63.10185104735426
 20
100.22276527763654
 10
59.293683312939464
 20
99.09252108354258
 10
55.661313002534115
 20
97.484578497563
 10
52.26438353621275
 20
95.42533989250563
 10
49.158672401899175
 20
92.94861790933479
 10
46.395175290556836
 20
90.09508025454144
 10
44.01926874835294
 20
86.91158193752702
 10
42.06996509502501
 20
83.45039591264432
 10
40.57927184266927
 20
79.76835475873224
 10
39.57166613327698
 20
75.92591748974255
 10
39.063692824739576
 20
71.9861768194021
 10
39.063692824739576
 20
68.0138231805979
 10
39.57166613327697
 20
64.07408251025747
 10
40.579271842669264
 20
60.23164524126777
 10
42.069965095025
 20
56.54960408735572
 10
44.019268748352935
 20
53.088418062472996
 10
46.395175290556836
 20
49.90491974545856
 10
49.158672401899175
 20
47.05138209066523
 10
52.26438353621273
 20
44.574660107494374
 10
55.66131300253408
 20
42.51542150243701
 10
59.29368331293945
 20
40.907478916457436
 10
63.101851047354245
 20
39.77723472236347
 10
67.02328619686187
 20
39.14324749857485
 10
70.9935989047213
 20
39.015927297778674
 10
74.94759674603473
 20
39.39736471415204
 10
78.820355185562
 20
40.28129655586352
 10
82.54828363679421
 20
41.653208686509814
 10
86.07016961762628
 20
43.49057434683428
 10
89.32818385762072
 20
45.76322404349106
 10
92.26882985302953
 20
48.433840931291904
 10
94.84382227790665
 20
51.4585735547723
 10
97.01087982782505
 20
54.78775588787791
 10
98.73441947772668
 20
58.366722848739386
 10
99.9861407542099
 20
62.13670789880524
 10
100.74549042852063
 20
66.03580798778029
 10
101.0
 20
69.99999999999999
  0
LWPOLYLINE
  5
43
330
17
100
AcDbEntity
  8
XY
100
AcDbPolyline
 90
111
 70
0
 10
140.0
 20
70.0
 10
139.8858372748295
 20
73.99621676039376
 10
139.54372147439852
 20
77.97939869233784
 10
138.9747685093385
 20
81.93655348428366
 10
138.18083418596336
 20
85.8547737198035
 10
137.16450815301482
 20
89.72127897890007
 10
135.92910545476673
 20
93.5234575250801
 10
134.4786557180395
 20
97.2489074422174
 10
132.8178900083951
 20
100.88547708702549
 10
130.9522253983844
 20
104.42130472519226
 10
128.8877472981827
 20
107.84485722189183
 10
126.63118960624632
 20
111.14496766047313
 10
124.18991274473578
 20
114.31087176662092
 10
121.57187965134835
 20
117.33224301918136
 10
118.78562980587054
 20
120.19922633312743
 10
115.84025137616996
 20
122.90247020479808
 10
112.74535157448068
 20
125.43315721455926
 10
109.51102532067384
 20
127.78303278739418
 10
106.14782231472735
 20
129.94443211761123
 10
102.66671262579715
 20
131.910305169847
 10
99.07905091013205
 20
133.67423967481628
 10
95.39653937454486
 20
135.23048204480165
 10
91.63118960624632
 20
136.57395614066075
 10
87.7952833935441
 20
137.700279829137
 10
83.9013326652022
 20
138.60577927646753
 10
79.96203867912998
 20
139.2875009316653
 10
75.9902505935188
 20
139.74322116038837
 10
71.99892355555873
 20
139.97145349797324
 10
68.00107644444128
 20
139.97145349797324
 10
64.00974940648123
 20
139.7432211603884
 10
60.03796132087007
 20
139.2875009316653
 10
56.09866733479784
 20
138.60577927646756
 10
52.204716606455946
 20
137.700279829137
 10
48.368810393753705
 20
136.57395614066075
 10
44.60346062545513
 20
135.23048204480165
 10
40.92094908986796
 20
133.6742396748163
 10
37.33328737420287
 20
131.91030516984702
 10
33.85217768527267
 20
129.94443211761123
 10
30.48897467932614
 20
127.78303278739418
 10
27.254648425519328
 20
125.43315721455926
 10
24.15974862383004
 20
122.90247020479808
 10
21.214370194129465
 20
120.19922633312746
 10
18.428120348651646
 20
117.33224301918136
 10
15.810087255264229
 20
114.31087176662092
 10
13.368810393753684
 20
111.14496766047313
 10
11.112252701817333
 20
107.84485722189184
 10
9.047774601615608
 20
104.42130472519229
 10
7.182109991604925
 20
100.88547708702552
 10
5.521344281960509
 20
97.24890744221744
 10
4.070894545233273
 20
93.52345752508012
 10
2.8354918469851924
 20
89.7212789789001
 10
1.8191658140366513
 20
85.85477371980352
 10
1.025231490661497
 20
81.93655348428368
 10
0.4562785256014905
 20
77.97939869233784
 10
0.11416272517050174
 20
73.99621676039376
 10
0.0
 20
70.00000000000001
 10
0.11416272517050174
 20
66.00378323960629
 10
0.4562785256014905
 20
62.02060130766218
 10
1.0252314906614828
 20
58.063446515716365
 10
1.8191658140366513
 20
54.1452262801965
 10
2.835491846985164
 20
50.27872102109997
 10
4.0708945452332586
 20
46.476542474919924
 10
5.521344281960481
 20
42.75109255778263
 10
7.182109991604911
 20
39.11452291297452
 10
9.047774601615572
 20
35.578695274807785
 10
11.112252701817297
 20
32.15514277810819
 10
13.368810393753655
 20
28.855032339526915
 10
15.810087255264222
 20
25.689128233379087
 10
18.42812034865166
 20
22.667756980818638
 10
21.214370194129472
 20
19.800773666872537
 10
24.159748623830033
 20
17.09752979520193
 10
27.254648425519306
 20
14.566842785440755
 10
30.488974679326112
 20
12.216967212605859
 10
33.852177685272636
 20
10.055567882388793
 10
37.333287374202826
 20
8.089694830153007
 10
40.92094908986795
 20
6.325760325183708
 10
44.603460625455156
 20
4.769517955198324
 10
48.36881039375367
 20
3.4260438593392593
 10
52.204716606455925
 20
2.2997201708629973
 10
56.09866733479779
 20
1.3942207235324702
 10
60.03796132087003
 20
0.7124990683347079
 10
64.00974940648118
 20
0.25677883961161285
 10
68.00107644444124
 20
0.02854650202675657
 10
71.99892355555873
 20
0.02854650202675657
 10
75.99025059351881
 20
0.25677883961161285
 10
79.96203867912995
 20
0.7124990683347079
 10
83.90133266520219
 20
1.394220723532456
 10
87.79528339354405
 20
2.2997201708629973
 10
91.63118960624631
 20
3.426043859339245
 10
95.39653937454482
 20
4.76951795519831
 10
99.07905091013203
 20
6.325760325183701
 10
102.66671262579715
 20
8.089694830152993
 10
106.1478223147273
 20
10.055567882388743
 10
109.51102532067381
 20
12.216967212605809
 10
112.74535157448062
 20
14.566842785440706
 10
115.84025137616993
 20
17.097529795201893
 10
118.78562980587049
 20
19.800773666872495
 10
121.5718796513483
 20
22.667756980818595
 10
124.18991274473575
 20
25.689128233379044
 10
126.63118960624632
 20
28.855032339526865
 10
128.88774729818266
 20
32.15514277810812
 10
130.95222539838437
 20
35.57869527480771
 10
132.81789000839507
 20
39.1145229129745
 10
134.47865571803953
 20
42.751092557782606
 10
135.92910545476673
 20
46.47654247491987
 10
137.16450815301482
 20
50.27872102109991
 10
138.18083418596336
 20
54.14522628019651
 10
138.9747685093385
 20
58.06344651571638
 10
139.54372147439852
 20
62.020601307662155
 10
139.8858372748295
 20
66.00378323960626
 10
140.0
 20
69.99999999999999
  0
LWPOLYLINE
  5
44
330
17
100
AcDbEntity
  8
XY
100
AcDbPolyline
 90
16
 70
0
 10
39.0
 20
70.0
 10
39.08100304393693
 20
67.76044039328436
 10
39.27058739786327
 20
65.91304502423236
 10
39.444362093438784
 20
64.76999119522893
 10
39.4863670742812
 20
64.53024628802243
 10
39.36793184672378
 20
65.2380255578934
 10
39.169167718101306
 20
66.7658416448302
 10
39.021171644411496
 20
68.85448865492609
 10
39.02117168625409
 20
71.14551134555882
 10
39.16916771810314
 20
73.2341583551874
 10
39.36793184672547
 20
74.7619744421175
 10
39.486367074831975
 20
75.4697537141785
 10
39.44436209326095
 20
75.23000880410106
 10
39.270587397837595
 20
74.0869549754023
 10
39.081003043929385
 20
72.23955960661145
 10
39.0
 20
70.0
  0
LWPOLYLINE
  5
45
330
17
100
AcDbEntity
  8
XY
100
AcDbPolyline
 90
2
 70
0
 10
28.0
 20
70.0
 10
39.0
 20
70.0
  0
LWPOLYLINE
  5
46
330
17
100
AcDbEntity
  8
XY
100
AcDbPolyline
 90
16
 70
0
 10
39.0
 20
70.0
 10
39.08100304393638
 20
67.76044039329193
 10
39.270587397846256
 20
65.91304502453258
 10
39.44436209344235
 20
64.76999119520805
 10
39.48636707428008
 20
64.53024628802862
 10
39.367931846724744
 20
65.23802555791715
 10
39.169167718089184
 20
66.76584164494567
 10
39.02117164433018
 20
68.85448865489327
 10
39.021171686256295
 20
71.14551134561842
 10
39.16916771810737
 20
73.2341583552276
 10
39.36793184674143
 20
74.76197444219011
 10
39.48636707483449
 20
75.46975371419252
 10
39.4443620932543
 20
75.23000880406222
 10
39.27058739785094
 20
74.0869549756749
 10
39.08100304392883
 20
72.23955960660389
 10
39.0
 20
70.0
  0
LWPOLYLINE
  5
47
330
17
100
AcDbEntity
  8
XY
100
AcDbPolyline
 90
2
 70
0
 10
28.0
 20
70.0
 10
39.0
 20
70.0
  0
LWPOLYLINE
  5
48
330
17
100
AcDbEntity
  8
XY
100
AcDbPolyline
 90
50
 70
0
 10
101.0
 20
70.0
 10
100.74549042852064
 20
73.96419201221968
 10
99.98614075420991
 20
77.86329210119473
 10
98.73441947772668
 20
81.6332771512606
 10
97.01087982782508
 20
85.21224411212208
 10
94.84382227790665
 20
88.5414264452277
 10
92.26882985302956
 20
91.56615906870807
 10
89.32818385762074
 20
94.23677595650892
 10
86.07016961762628
 20
96.50942565316572
 10
82.54828363679421
 20
98.34679131349019
 10
78.82035518556201
 20
99.71870344413648
 10
74.94759674603476
 20
100.60263528584795
 10
70.99359890472131
 20
100.98407270222133
 10
67.02328619686187
 20
100.85675250142515
 10
63.10185104735426
 20
100.22276527763654
 10
59.293683312939464
 20
99.09252108354258
 10
55.661313002534115
 20
97.484578497563
 10
52.26438353621275
 20
95.42533989250563
 10
49.158672401899175
 20
92.94861790933479
 10
46.395175290556836
 20
90.09508025454144
 10
44.01926874835294
 20
86.91158193752702
 10
42.06996509502501
 20
83.45039591264432
 10
40.57927184266927
 20
79.76835475873224
 10
39.57166613327698
 20
75.92591748974255
 10
39.063692824739576
 20
71.9861768194021
 10
39.063692824739576
 20
68.0138231805979
 10
39.57166613327697
 20
64.07408251025747
 10
40.579271842669264
 20
60.23164524126777
 10
42.069965095025
 20
56.54960408735572
 10
44.019268748352935
 20
53.088418062472996
 10
46.395175290556836
 20
49.90491974545856
 10
49.158672401899175
 20
47.05138209066523
 10
52.26438353621273
 20
44.574660107494374
 10
55.66131300253408
 20
42.51542150243701
 10
59.29368331293945
 20
40.907478916457436
 10
63.101851047354245
 20
39.77723472236347
 10
67.02328619686187
 20
39.14324749857485
 10
70.9935989047213
 20
39.015927297778674
 10
74.94759674603473
 20
39.39736471415204
 10
78.820355185562
 20
40.28129655586352
 10
82.54828363679421
 20
41.653208686509814
 10
86.07016961762628
 20
43.49057434683428
 10
89.32818385762072
 20
45.76322404349106
 10
92.26882985302953
 20
48.433840931291904
 10
94.84382227790665
 20
51.4585735547723
 10
97.01087982782505
 20
54.78775588787791
 10
98.73441947772668
 20
58.366722848739386
 10
99.9861407542099
 20
62.13670789880524
 10
100.74549042852063
 20
66.03580798778029
 10
101.0
 20
69.99999999999999
  0
LWPOLYLINE
  5
49
330
17
100
AcDbEntity
  8
XY
100
AcDbPolyline
 90
111
 70
0
 10
140.0
 20
70.0
 10
139.8858372748295
 20
73.99621676039376
 10
139.54372147439852
 20
77.97939869233784
 10
138.9747685093385
 20
81.93655348428366
 10
138.18083418596336
 20
85.8547737198035
 10
137.16450815301482
 20
89.72127897890007
 10
135.92910545476673
 20
93.5234575250801
 10
134.4786557180395
 20
97.2489074422174
 10
132.8178900083951
 20
100.88547708702549
 10
130.9522253983844
 20
104.42130472519226
 10
128.8877472981827
 20
107.84485722189183
 10
126.63118960624632
 20
111.14496766047313
 10
124.18991274473578
 20
114.31087176662092
 10
121.57187965134835
 20
117.33224301918136
 10
118.78562980587054
 20
120.19922633312743
 10
115.84025137616996
 20
122.90247020479808
 10
112.74535157448068
 20
125.43315721455926
 10
109.51102532067384
 20
127.78303278739418
 10
106.14782231472735
 20
129.94443211761123
 10
102.66671262579715
 20
131.910305169847
 10
99.07905091013205
 20
133.67423967481628
 10
95.39653937454486
 20
135.23048204480165
 10
91.63118960624632
 20
136.57395614066075
 10
87.7952833935441
 20
137.700279829137
 10
83.9013326652022
 20
138.60577927646753
 10
79.96203867912998
 20
139.2875009316653
 10
75.9902505935188
 20
139.74322116038837
 10
71.99892355555873
 20
139.97145349797324
 10
68.00107644444128
 20
139.97145349797324
 10
64.00974940648123
 20
139.7432211603884
 10
60.03796132087007
 20
139.2875009316653
 10
56.09866733479784
 20
138.60577927646756
 10
52.204716606455946
 20
137.700279829137
 10
48.368810393753705
 20
136.57395614066075
 10
44.60346062545513
 20
135.23048204480165
 10
40.92094908986796
 20
133.6742396748163
 10
37.33328737420287
 20
131.91030516984702
 10
33.85217768527267
 20
129.94443211761123
 10
30.48897467932614
 20
127.78303278739418
 10
27.254648425519328
 20
125.43315721455926
 10
24.15974862383004
 20
122.90247020479808
 10
21.214370194129465
 20
120.19922633312746
 10
18.428120348651646
 20
117.33224301918136
 10
15.810087255264229
 20
114.31087176662092
 10
13.368810393753684
 20
111.14496766047313
 10
11.112252701817333
 20
107.84485722189184
 10
9.047774601615608
 20
104.42130472519229
 10
7.182109991604925
 20
100.88547708702552
 10
5.521344281960509
 20
97.24890744221744
 10
4.070894545233273
 20
93.52345752508012
 10
2.8354918469851924
 20
89.7212789789001
 10
1.8191658140366513
 20
85.85477371980352
 10
1.025231490661497
 20
81.93655348428368
 10
0.4562785256014905
 20
77.97939869233784
 10
0.11416272517050174
 20
73.99621676039376
 10
0.0
 20
70.00000000000001
 10
0.11416272517050174
 20
66.00378323960629
 10
0.4562785256014905
 20
62.02060130766218
 10
1.0252314906614828
 20
58.063446515716365
 10
1.8191658140366513
 20
54.1452262801965
 10
2.835491846985164
 20
50.27872102109997
 10
4.0708945452332586
 20
46.476542474919924
 10
5.521344281960481
 20
42.75109255778263
 10
7.182109991604911
 20
39.11452291297452
 10
9.047774601615572
 20
35.578695274807785
 10
11.112252701817297
 20
32.15514277810819
 10
13.368810393753655
 20
28.855032339526915
 10
15.810087255264222
 20
25.689128233379087
 10
18.42812034865166
 20
22.667756980818638
 10
21.214370194129472
 20
19.800773666872537
 10
24.159748623830033
 20
17.09752979520193
 10
27.254648425519306
 20
14.566842785440755
 10
30.488974679326112
 20
12.216967212605859
 10
33.852177685272636
 20
10.055567882388793
 10
37.333287374202826
 20
8.089694830153007
 10
40.92094908986795
 20
6.325760325183708
 10
44.603460625455156
 20
4.769517955198324
 10
48.36881039375367
 20
3.4260438593392593
 10
52.204716606455925
 20
2.2997201708629973
 10
56.09866733479779
 20
1.3942207235324702
 10
60.03796132087003
 20
0.7124990683347079
 10
64.00974940648118
 20
0.25677883961161285
 10
68.00107644444124
 20
0.02854650202675657
 10
71.99892355555873
 20
0.02854650202675657
 10
75.99025059351881
 20
0.25677883961161285
 10
79.96203867912995
 20
0.7124990683347079
 10
83.90133266520219
 20
1.394220723532456
 10
87.79528339354405
 20
2.2997201708629973
 10
91.63118960624631
 20
3.426043859339245
 10
95.39653937454482
 20
4.76951795519831
 10
99.07905091013203
 20
6.325760325183701
 10
102.66671262579715
 20
8.089694830152993
 10
106.1478223147273
 20
10.055567882388743
 10
109.51102532067381
 20
12.216967212605809
 10
112.74535157448062
 20
14.566842785440706
 10
115.84025137616993
 20
17.097529795201893
 10
118.78562980587049
 20
19.800773666872495
 10
121.5718796513483
 20
22.667756980818595
 10
124.18991274473575
 20
25.689128233379044
 10
126.63118960624632
 20
28.855032339526865
 10
128.88774729818266
 20
32.15514277810812
 10
130.95222539838437
 20
35.57869527480771
 10
132.81789000839507
 20
39.1145229129745
 10
134.47865571803953
 20
42.751092557782606
 10
135.92910545476673
 20
46.47654247491987
 10
137.16450815301482
 20
50.27872102109991
 10
138.18083418596336
 20
54.14522628019651
 10
138.9747685093385
 20
58.06344651571638
 10
139.54372147439852
 20
62.020601307662155
 10
139.8858372748295
 20
66.00378323960626
 10
140.0
 20
69.99999999999999
  0
DIMENSION
  5
4A
330
17
100
AcDbEntity
  8
DIMENSIONS
100
AcDbDimension
280
0
  2
*D1
  3
Standard
 10
0.0
 20
-24.0
 30
0.0
 11
70.0
 21
-24.0
 31
0.0
 70
32
 71
5
  1
<>
100
AcDbAlignedDimension
 13
0.0
 23
0.0
 33
0.0
 14
140.0
 24
0.0
 34
0.0
 50
0.0
100
AcDbRotatedDimension
1001
ACAD
1000
DSTYLE
1002
{
1070
140
1040
3.0
1070
41
1040
3.0
1070
271
1070
3
1002
}
  0
DIMENSION
  5
5E
330
17
100
AcDbEntity
  8
DIMENSIONS
100
AcDbDimension
280
0
  2
*D2
  3
Standard
 10
-24.0
 20
0.0
 30
0.0
 11
-24.0
 21
70.0
 31
0.0
 70
32
 71
5
  1
<>
100
AcDbAlignedDimension
 13
0.0
 23
0.0
 33
0.0
 14
0.0
 24
140.0
 34
0.0
 50
90.0
100
AcDbRotatedDimension
1001
ACAD
1000
DSTYLE
1002
{
1070
140
1040
3.0
1070
41
1040
3.0
1070
271
1070
3
1002
}
  0
LWPOLYLINE
  5
6E
330
17
100
AcDbEntity
  8
XZ
100
AcDbPolyline
 90
16
 70
0
 10
112.0
 20
-124.50000010000002
 10
111.98440071574773
 20
-124.62041803212719
 10
111.94030927088264
 20
-124.97610302193681
 10
111.87534177505614
 20
-125.5509272115051
 10
111.80066506199468
 20
-126.31956538976834
 10
111.729109287357
 20
-127.24889812393047
 10
111.67305089020414
 20
-128.29906782847263
 10
111.64230070989245
 20
-129.4244929749372
 10
111.64230071019355
 20
-130.57550722485405
 10
111.67305089031625
 20
-131.70093237131766
 10
111.72910928735718
 20
-132.75110207607236
 10
111.80066506199489
 20
-133.6804348102341
 10
111.8753417750529
 20
-134.4490729884023
 10
111.94030927088319
 20
-135.0238971780679
 10
111.98440071578503
 20
-135.37958216769908
 10
112.0
 20
-135.50000010000002
  0
LWPOLYLINE
  5
6F
330
17
100
AcDbEntity
  8
XZ
100
AcDbPolyline
 90
2
 70
0
 10
112.0
 20
-179.50000010000002
 10
112.0
 20
-135.50000010000002
  0
LWPOLYLINE
  5
70
330
17
100
AcDbEntity
  8
XZ
100
AcDbPolyline
 90
16
 70
0
 10
112.0
 20
-179.50000010000002
 10
111.98440071574808
 20
-179.62041803212446
 10
111.94030927088392
 20
-179.97610302192606
 10
111.8753417750586
 20
-180.5509272114819
 10
111.80066506200049
 20
-181.31956538978244
 10
111.72910928733009
 20
-182.2488981236785
 10
111.67305089020337
 20
-183.2990678284914
 10
111.64230070989237
 20
-184.42449297494375
 10
111.64230071019347
 20
-185.5755072248475
 10
111.67305089031548
 20
-186.7009323712989
 10
111.72910928733027
 20
-187.75110207632434
 10
111.8006650620007
 20
-188.68043481022
 10
111.87534177505538
 20
-189.44907298842548
 10
111.94030927088447
 20
-190.02389717807858
 10
111.98440071578537
 20
-190.37958216770187
 10
112.0
 20
-190.50000010000002
  0
LWPOLYLINE
  5
71
330
17
100
AcDbEntity
  8
XZ
100
AcDbPolyline
 90
2
 70
0
 10
112.0
 20
-220.00000010000002
 10
112.0
 20
-190.50000010000002
  0
LWPOLYLINE
  5
72
330
17
100
AcDbEntity
  8
XZ
100
AcDbPolyline
 90
67
 70
0
 10
112.0
 20
-220.00000010000002
 10
111.80982074806955
 20
-220.00000010000002
 10
111.24100528503368
 20
-220.00000010000002
 10
110.29870489180888
 20
-220.00000010000002
 10
108.99145318667505
 20
-220.00000010000002
 10
107.33108884350679
 20
-220.00000010000002
 10
105.33264837890961
 20
-220.00000010000002
 10
103.01422997919707
 20
-220.00000010000002
 10
100.39682960041296
 20
-220.00000010000002
 10
97.50415082570197
 20
-220.00000010000002
 10
94.36239020199032
 20
-220.00000010000002
 10
91.0
 20
-220.00000010000002
 10
87.44743054607923
 20
-220.00000010000002
 10
83.73685445933171
 20
-220.00000010000002
 10
79.90187529139595
 20
-220.00000010000002
 10
75.97722320747799
 20
-220.00000010000002
 10
71.99844046459717
 20
-220.00000010000002
 10
68.00155953540282
 20
-220.00000010000002
 10
64.02277679252202
 20
-220.00000010000002
 10
60.09812470860406
 20
-220.00000010000002
 10
56.26314554066828
 20
-220.00000010000002
 10
52.55256945392077
 20
-220.00000010000002
 10
49.00000000000001
 20
-220.00000010000002
 10
45.63760979800966
 20
-220.00000010000002
 10
42.49584917429803
 20
-220.00000010000002
 10
39.60317039958705
 20
-220.00000010000002
 10
36.985770020802924
 20
-220.00000010000002
 10
34.66735162109038
 20
-220.00000010000002
 10
32.668911156493216
 20
-220.00000010000002
 10
31.008546813324955
 20
-220.00000010000002
 10
29.70129510819112
 20
-220.00000010000002
 10
28.75899471496632
 20
-220.00000010000002
 10
28.190179251930445
 20
-220.00000010000002
 10
28.0
 20
-220.00000010000002
 10
28.190179251930445
 20
-220.00000010000002
 10
28.758994714966313
 20
-220.00000010000002
 10
29.701295108191104
 20
-220.00000010000002
 10
31.00854681332494
 20
-220.00000010000002
 10
32.668911156493216
 20
-220.00000010000002
 10
34.6673516210904
 20
-220.00000010000002
 10
36.98577002080294
 20
-220.00000010000002
 10
39.60317039958706
 20
-220.00000010000002
 10
42.49584917429803
 20
-220.00000010000002
 10
45.63760979800968
 20
-220.00000010000002
 10
48.999999999999986
 20
-220.00000010000002
 10
52.55256945392077
 20
-220.00000010000002
 10
56.26314554066832
 20
-220.00000010000002
 10
60.09812470860407
 20
-220.00000010000002
 10
64.02277679252202
 20
-220.00000010000002
 10
68.0015595354028
 20
-220.00000010000002
 10
71.99844046459718
 20
-220.00000010000002
 10
75.977223207478
 20
-220.00000010000002
 10
79.90187529139595
 20
-220.00000010000002
 10
83.73685445933171
 20
-220.00000010000002
 10
87.44743054607925
 20
-220.00000010000002
 10
91.0
 20
-220.00000010000002
 10
94.36239020199031
 20
-220.00000010000002
 10
97.50415082570198
 20
-220.00000010000002
 10
100.39682960041294
 20
-220.00000010000002
 10
103.01422997919707
 20
-220.00000010000002
 10
105.3326483789096
 20
-220.00000010000002
 10
107.33108884350679
 20
-220.00000010000002
 10
108.99145318667505
 20
-220.00000010000002
 10
110.2987048918089
 20
-220.00000010000002
 10
111.24100528503368
 20
-220.00000010000002
 10
111.80982074806954
 20
-220.00000010000002
 10
112.0
 20
-220.00000010000002
  0
LWPOLYLINE
  5
73
330
17
100
AcDbEntity
  8
XZ
100
AcDbPolyline
 90
16
 70
0
 10
112.0
 20
-190.50000010000002
 10
111.98440071574747
 20
-190.37958216787086
 10
111.9403092708817
 20
-190.0238971780554
 10
111.8753417750504
 20
-189.44907298837865
 10
111.80066506199162
 20
-188.68043481019714
 10
111.7291092873538
 20
-187.75110207602097
 10
111.67305089020158
 20
-186.70093237146483
 10
111.64230070989143
 20
-185.5755072249878
 10
111.64230071019473
 20
-184.42449297506136
 10
111.67305089031993
 20
-183.29906782859234
 10
111.72910928736312
 20
-182.24889812383748
 10
111.80066506200231
 20
-181.31956538968143
 10
111.8753417750606
 20
-180.55092721152528
 10
111.94030927088968
 20
-179.97610302187803
 10
111.98440071615714
 20
-179.62041803289026
 10
112.0
 20
-179.50000010000002
  0
LWPOLYLINE
  5
74
330
17
100
AcDbEntity
  8
XZ
100
AcDbPolyline
 90
16
 70
0
 10
112.0
 20
-135.50000010000002
 10
111.98440071574763
 20
-135.37958216787212
 10
111.9403092708823
 20
-135.02389717806034
 10
111.87534177505546
 20
-134.44907298848864
 10
111.80066506199373
 20
-133.68043481022113
 10
111.72910928735598
 20
-132.75110207605417
 10
111.67305089020331
 20
-131.70093237150706
 10
111.64230070989211
 20
-130.575507225038
 10
111.64230071019395
 20
-129.42449297511763
 10
111.67305089031748
 20
-128.29906782865186
 10
111.72910928733418
 20
-127.24889812361641
 10
111.80066506200629
 20
-126.31956538971679
 10
111.87534177506174
 20
-125.55092721151459
 10
111.94030927089028
 20
-124.97610302187314
 10
111.9844007161573
 20
-124.62041803288895
 10
112.0
 20
-124.50000010000002
  0
LWPOLYLINE
  5
75
330
17
100
AcDbEntity
  8
XZ
100
AcDbPolyline
 90
2
 70
0
 10
112.0
 20
-124.50000010000002
 10
112.0
 20
-106.00000010000002
  0
LWPOLYLINE
  5
76
330
17
100
AcDbEntity
  8
XZ
100
AcDbPolyline
 90
67
 70
0
 10
112.0
 20
-106.00000010000002
 10
111.80982074806955
 20
-106.00000010000002
 10
111.24100528503368
 20
-106.00000010000002
 10
110.29870489180888
 20
-106.00000010000002
 10
108.99145318667505
 20
-106.00000010000002
 10
107.33108884350679
 20
-106.00000010000002
 10
105.33264837890961
 20
-106.00000010000002
 10
103.01422997919707
 20
-106.00000010000002
 10
100.39682960041296
 20
-106.00000010000002
 10
97.50415082570197
 20
-106.00000010000002
 10
94.36239020199032
 20
-106.00000010000002
 10
91.0
 20
-106.00000010000002
 10
87.44743054607923
 20
-106.00000010000002
 10
83.73685445933171
 20
-106.00000010000002
 10
79.90187529139595
 20
-106.00000010000002
 10
75.97722320747799
 20
-106.00000010000002
 10
71.99844046459717
 20
-106.00000010000002
 10
68.00155953540282
 20
-106.00000010000002
 10
64.02277679252202
 20
-106.00000010000002
 10
60.09812470860406
 20
-106.00000010000002
 10
56.26314554066828
 20
-106.00000010000002
 10
52.55256945392077
 20
-106.00000010000002
 10
49.00000000000001
 20
-106.00000010000002
 10
45.63760979800966
 20
-106.00000010000002
 10
42.49584917429803
 20
-106.00000010000002
 10
39.60317039958705
 20
-106.00000010000002
 10
36.985770020802924
 20
-106.00000010000002
 10
34.66735162109038
 20
-106.00000010000002
 10
32.668911156493216
 20
-106.00000010000002
 10
31.008546813324955
 20
-106.00000010000002
 10
29.70129510819112
 20
-106.00000010000002
 10
28.75899471496632
 20
-106.00000010000002
 10
28.190179251930445
 20
-106.00000010000002
 10
28.0
 20
-106.00000010000002
 10
28.190179251930445
 20
-106.00000010000002
 10
28.758994714966313
 20
-106.00000010000002
 10
29.701295108191104
 20
-106.00000010000002
 10
31.00854681332494
 20
-106.00000010000002
 10
32.668911156493216
 20
-106.00000010000002
 10
34.6673516210904
 20
-106.00000010000002
 10
36.98577002080294
 20
-106.00000010000002
 10
39.60317039958706
 20
-106.00000010000002
 10
42.49584917429803
 20
-106.00000010000002
 10
45.63760979800968
 20
-106.00000010000002
 10
48.999999999999986
 20
-106.00000010000002
 10
52.55256945392077
 20
-106.00000010000002
 10
56.26314554066832
 20
-106.00000010000002
 10
60.09812470860407
 20
-106.00000010000002
 10
64.02277679252202
 20
-106.00000010000002
 10
68.0015595354028
 20
-106.00000010000002
 10
71.99844046459718
 20
-106.00000010000002
 10
75.977223207478
 20
-106.00000010000002
 10
79.90187529139595
 20
-106.00000010000002
 10
83.73685445933171
 20
-106.00000010000002
 10
87.44743054607925
 20
-106.00000010000002
 10
91.0
 20
-106.00000010000002
 10
94.36239020199031
 20
-106.00000010000002
 10
97.50415082570198
 20
-106.00000010000002
 10
100.39682960041294
 20
-106.00000010000002
 10
103.01422997919707
 20
-106.00000010000002
 10
105.3326483789096
 20
-106.00000010000002
 10
107.33108884350679
 20
-106.00000010000002
 10
108.99145318667505
 20
-106.00000010000002
 10
110.2987048918089
 20
-106.00000010000002
 10
111.24100528503368
 20
-106.00000010000002
 10
111.80982074806954
 20
-106.00000010000002
 10
112.0
 20
-106.00000010000002
  0
LWPOLYLINE
  5
77
330
17
100
AcDbEntity
  8
XZ
100
AcDbPolyline
 90
16
 70
0
 10
28.0
 20
-179.50000010000002
 10
28.05969072911676
 20
-179.97610302193175
 10
28.19933493800425
 20
-181.31956538975606
 10
28.326949109794732
 20
-183.29906782844512
 10
28.357699289807
 20
-185.57550722481295
 10
28.270890712645887
 20
-187.75110207602597
 10
28.124658224947794
 20
-189.44907298845806
 10
28.015599276753008
 20
-190.3795821708119
 10
28.015599289178958
 20
-190.37958217809586
 10
28.124658224951837
 20
-189.44907298841997
 10
28.27089071268024
 20
-187.75110207616484
 10
28.35769929011031
 20
-185.57550722486206
 10
28.326949109676406
 20
-183.29906782850225
 10
28.199334937993555
 20
-181.3195653896346
 10
28.05969072910878
 20
-179.97610302186524
 10
28.0
 20
-179.50000010000002
  0
LWPOLYLINE
  5
78
330
17
100
AcDbEntity
  8
XZ
100
AcDbPolyline
 90
16
 70
0
 10
28.0
 20
-124.50000010000002
 10
28.059690729116753
 20
-124.97610302193175
 10
28.199334938004228
 20
-126.31956538975584
 10
28.326949109794718
 20
-128.29906782844466
 10
28.35769928980701
 20
-130.57550722481238
 10
28.27089071267094
 20
-132.75110207630576
 10
28.1246582249451
 20
-134.44907298842105
 10
28.01559926772927
 20
-135.37958217029774
 10
28.01559928425604
 20
-135.37958216784352
 10
28.124658224955823
 20
-134.4490729883201
 10
28.270890712650093
 20
-132.75110207596214
 10
28.357699290109068
 20
-130.5755072249517
 10
28.32694910967991
 20
-128.29906782858808
 10
28.199334937990628
 20
-126.31956538968154
 10
28.05969072910878
 20
-124.97610302186513
 10
28.0
 20
-124.50000010000002
  0
LWPOLYLINE
  5
79
330
17
100
AcDbEntity
  8
XZ
100
AcDbPolyline
 90
2
 70
0
 10
101.0
 20
-124.50000010000002
 10
112.0
 20
-124.50000010000002
  0
LWPOLYLINE
  5
7A
330
17
100
AcDbEntity
  8
XZ
100
AcDbPolyline
 90
16
 70
0
 10
101.0
 20
-135.50000010000002
 10
100.97882831718515
 20
-135.37938702753797
 10
100.91899695606136
 20
-135.02338270206462
 10
100.83083228190215
 20
-134.44862008052746
 10
100.72941260213216
 20
-133.6805977536274
 10
100.63206815327737
 20
-132.75201745044848
 10
100.55563790655712
 20
-131.7020600173703
 10
100.51363292516822
 20
-130.57601601045343
 10
100.51363292572074
 20
-129.4239841897462
 10
100.55563790673985
 20
-128.29794018279307
 10
100.63206815328624
 20
-127.24798274945289
 10
100.72941260214229
 20
-126.31940244628805
 10
100.8308322819118
 20
-125.55138011940556
 10
100.91899695606891
 20
-124.97661749788898
 10
100.97882831751285
 20
-124.62061317298947
 10
101.0
 20
-124.50000010000002
  0
LWPOLYLINE
  5
7B
330
17
100
AcDbEntity
  8
XZ
100
AcDbPolyline
 90
16
 70
0
 10
101.0
 20
-124.50000010000002
 10
100.97882831718539
 20
-124.62061317246071
 10
100.91899695606222
 20
-124.97661749793014
 10
100.83083228190378
 20
-125.55138011946121
 10
100.72941260213443
 20
-126.31940244635354
 10
100.63206815327987
 20
-127.24798274952366
 10
100.55563790655917
 20
-128.29794018259298
 10
100.51363292516908
 20
-129.4239841895017
 10
100.51363292571978
 20
-130.57601601020247
 10
100.55563790673676
 20
-131.70206001715178
 10
100.63206815328124
 20
-132.7520174504915
 10
100.729412602136
 20
-133.68059775365947
 10
100.83083228190839
 20
-134.44862008061426
 10
100.91899695606283
 20
-135.02338270207366
 10
100.97882831722183
 20
-135.37938702739763
 10
101.0
 20
-135.50000010000002
  0
LWPOLYLINE
  5
7C
330
17
100
AcDbEntity
  8
XZ
100
AcDbPolyline
 90
2
 70
0
 10
101.0
 20
-179.50000010000002
 10
112.0
 20
-179.50000010000002
  0
LWPOLYLINE
  5
7D
330
17
100
AcDbEntity
  8
XZ
100
AcDbPolyline
 90
16
 70
0
 10
101.0
 20
-190.50000010000002
 10
100.97882831718513
 20
-190.37938702753786
 10
100.91899695606129
 20
-190.02338270206423
 10
100.83083228190583
 20
-189.44862008059653
 10
100.72941260213268
 20
-188.6805977536319
 10
100.6320681532778
 20
-187.75201745045325
 10
100.5556379065574
 20
-186.70206001737495
 10
100.51363292516831
 20
-185.57601601045775
 10
100.51363292572067
 20
-184.42398418975006
 10
100.55563790673968
 20
-183.2979401827962
 10
100.63206815328603
 20
-182.24798274945522
 10
100.72941260214209
 20
-181.31940244628964
 10
100.83083228191167
 20
-180.55138011940653
 10
100.91899695606884
 20
-179.97661749788938
 10
100.97882831751284
 20
-179.62061317298958
 10
101.0
 20
-179.50000010000002
  0
LWPOLYLINE
  5
7E
330
17
100
AcDbEntity
  8
XZ
100
AcDbPolyline
 90
16
 70
0
 10
101.0
 20
-179.50000010000002
 10
100.97882831718539
 20
-179.62061317246076
 10
100.91899695606222
 20
-179.9766174979302
 10
100.83083228190378
 20
-180.55138011946121
 10
100.72941260213443
 20
-181.31940244635354
 10
100.63206815327987
 20
-182.24798274952371
 10
100.55563790655917
 20
-183.29794018259304
 10
100.51363292516908
 20
-184.42398418950177
 10
100.51363292571978
 20
-185.57601601020252
 10
100.55563790673676
 20
-186.70206001715184
 10
100.63206815328124
 20
-187.7520174504915
 10
100.729412602136
 20
-188.68059775365953
 10
100.83083228190839
 20
-189.44862008061426
 10
100.91899695606283
 20
-190.02338270207366
 10
100.97882831722183
 20
-190.37938702739763
 10
101.0
 20
-190.50000010000002
  0
LWPOLYLINE
  5
7F
330
17
100
AcDbEntity
  8
XZ
100
AcDbPolyline
 90
50
 70
0
 10
101.0
 20
-220.00000010000002
 10
100.74549042852064
 20
-220.00000010000002
 10
99.98614075420991
 20
-220.00000010000002
 10
98.73441947772668
 20
-220.00000010000002
 10
97.01087982782508
 20
-220.00000010000002
 10
94.84382227790665
 20
-220.00000010000002
 10
92.26882985302956
 20
-220.00000010000002
 10
89.32818385762074
 20
-220.00000010000002
 10
86.07016961762628
 20
-220.00000010000002
 10
82.54828363679421
 20
-220.00000010000002
 10
78.82035518556201
 20
-220.00000010000002
 10
74.94759674603476
 20
-220.00000010000002
 10
70.99359890472131
 20
-220.00000010000002
 10
67.02328619686187
 20
-220.00000010000002
 10
63.10185104735426
 20
-220.00000010000002
 10
59.293683312939464
 20
-220.00000010000002
 10
55.661313002534115
 20
-220.00000010000002
 10
52.26438353621275
 20
-220.00000010000002
 10
49.158672401899175
 20
-220.00000010000002
 10
46.395175290556836
 20
-220.00000010000002
 10
44.01926874835294
 20
-220.00000010000002
 10
42.06996509502501
 20
-220.00000010000002
 10
40.57927184266927
 20
-220.00000010000002
 10
39.57166613327698
 20
-220.00000010000002
 10
39.063692824739576
 20
-220.00000010000002
 10
39.063692824739576
 20
-220.00000010000002
 10
39.57166613327697
 20
-220.00000010000002
 10
40.579271842669264
 20
-220.00000010000002
 10
42.069965095025
 20
-220.00000010000002
 10
44.019268748352935
 20
-220.00000010000002
 10
46.395175290556836
 20
-220.00000010000002
 10
49.158672401899175
 20
-220.00000010000002
 10
52.26438353621273
 20
-220.00000010000002
 10
55.66131300253408
 20
-220.00000010000002
 10
59.29368331293945
 20
-220.00000010000002
 10
63.101851047354245
 20
-220.00000010000002
 10
67.02328619686187
 20
-220.00000010000002
 10
70.9935989047213
 20
-220.00000010000002
 10
74.94759674603473
 20
-220.00000010000002
 10
78.820355185562
 20
-220.00000010000002
 10
82.54828363679421
 20
-220.00000010000002
 10
86.07016961762628
 20
-220.00000010000002
 10
89.32818385762072
 20
-220.00000010000002
 10
92.26882985302953
 20
-220.00000010000002
 10
94.84382227790665
 20
-220.00000010000002
 10
97.01087982782505
 20
-220.00000010000002
 10
98.73441947772668
 20
-220.00000010000002
 10
99.9861407542099
 20
-220.00000010000002
 10
100.74549042852063
 20
-220.00000010000002
 10
101.0
 20
-220.00000010000002
  0
LWPOLYLINE
  5
80
330
17
100
AcDbEntity
  8
XZ
100
AcDbPolyline
 90
111
 70
0
 10
140.0
 20
-106.00000010000002
 10
139.8858372748295
 20
-106.00000010000002
 10
139.54372147439852
 20
-106.00000010000002
 10
138.9747685093385
 20
-106.00000010000002
 10
138.18083418596336
 20
-106.00000010000002
 10
137.16450815301482
 20
-106.00000010000002
 10
135.92910545476673
 20
-106.00000010000002
 10
134.4786557180395
 20
-106.00000010000002
 10
132.8178900083951
 20
-106.00000010000002
 10
130.9522253983844
 20
-106.00000010000002
 10
128.8877472981827
 20
-106.00000010000002
 10
126.63118960624632
 20
-106.00000010000002
 10
124.18991274473578
 20
-106.00000010000002
 10
121.57187965134835
 20
-106.00000010000002
 10
118.78562980587054
 20
-106.00000010000002
 10
115.84025137616996
 20
-106.00000010000002
 10
112.74535157448068
 20
-106.00000010000002
 10
109.51102532067384
 20
-106.00000010000002
 10
106.14782231472735
 20
-106.00000010000002
 10
102.66671262579715
 20
-106.00000010000002
 10
99.07905091013205
 20
-106.00000010000002
 10
95.39653937454486
 20
-106.00000010000002
 10
91.63118960624632
 20
-106.00000010000002
 10
87.7952833935441
 20
-106.00000010000002
 10
83.9013326652022
 20
-106.00000010000002
 10
79.96203867912998
 20
-106.00000010000002
 10
75.9902505935188
 20
-106.00000010000002
 10
71.99892355555873
 20
-106.00000010000002
 10
68.00107644444128
 20
-106.00000010000002
 10
64.00974940648123
 20
-106.00000010000002
 10
60.03796132087007
 20
-106.00000010000002
 10
56.09866733479784
 20
-106.00000010000002
 10
52.204716606455946
 20
-106.00000010000002
 10
48.368810393753705
 20
-106.00000010000002
 10
44.60346062545513
 20
-106.00000010000002
 10
40.92094908986796
 20
-106.00000010000002
 10
37.33328737420287
 20
-106.00000010000002
 10
33.85217768527267
 20
-106.00000010000002
 10
30.48897467932614
 20
-106.00000010000002
 10
27.254648425519328
 20
-106.00000010000002
 10
24.15974862383004
 20
-106.00000010000002
 10
21.214370194129465
 20
-106.00000010000002
 10
18.428120348651646
 20
-106.00000010000002
 10
15.810087255264229
 20
-106.00000010000002
 10
13.368810393753684
 20
-106.00000010000002
 10
11.112252701817333
 20
-106.00000010000002
 10
9.047774601615608
 20
-106.00000010000002
 10
7.182109991604925
 20
-106.00000010000002
 10
5.521344281960509
 20
-106.00000010000002
 10
4.070894545233273
 20
-106.00000010000002
 10
2.8354918469851924
 20
-106.00000010000002
 10
1.8191658140366513
 20
-106.00000010000002
 10
1.025231490661497
 20
-106.00000010000002
 10
0.4562785256014905
 20
-106.00000010000002
 10
0.11416272517050174
 20
-106.00000010000002
 10
0.0
 20
-106.00000010000002
 10
0.11416272517050174
 20
-106.00000010000002
 10
0.4562785256014905
 20
-106.00000010000002
 10
1.0252314906614828
 20
-106.00000010000002
 10
1.8191658140366513
 20
-106.00000010000002
 10
2.835491846985164
 20
-106.00000010000002
 10
4.0708945452332586
 20
-106.00000010000002
 10
5.521344281960481
 20
-106.00000010000002
 10
7.182109991604911
 20
-106.00000010000002
 10
9.047774601615572
 20
-106.00000010000002
 10
11.112252701817297
 20
-106.00000010000002
 10
13.368810393753655
 20
-106.00000010000002
 10
15.810087255264222
 20
-106.00000010000002
 10
18.42812034865166
 20
-106.00000010000002
 10
21.214370194129472
 20
-106.00000010000002
 10
24.159748623830033
 20
-106.00000010000002
 10
27.254648425519306
 20
-106.00000010000002
 10
30.488974679326112
 20
-106.00000010000002
 10
33.852177685272636
 20
-106.00000010000002
 10
37.333287374202826
 20
-106.00000010000002
 10
40.92094908986795
 20
-106.00000010000002
 10
44.603460625455156
 20
-106.00000010000002
 10
48.36881039375367
 20
-106.00000010000002
 10
52.204716606455925
 20
-106.00000010000002
 10
56.09866733479779
 20
-106.00000010000002
 10
60.03796132087003
 20
-106.00000010000002
 10
64.00974940648118
 20
-106.00000010000002
 10
68.00107644444124
 20
-106.00000010000002
 10
71.99892355555873
 20
-106.00000010000002
 10
75.99025059351881
 20
-106.00000010000002
 10
79.96203867912995
 20
-106.00000010000002
 10
83.90133266520219
 20
-106.00000010000002
 10
87.79528339354405
 20
-106.00000010000002
 10
91.63118960624631
 20
-106.00000010000002
 10
95.39653937454482
 20
-106.00000010000002
 10
99.07905091013203
 20
-106.00000010000002
 10
102.66671262579715
 20
-106.00000010000002
 10
106.1478223147273
 20
-106.00000010000002
 10
109.51102532067381
 20
-106.00000010000002
 10
112.74535157448062
 20
-106.00000010000002
 10
115.84025137616993
 20
-106.00000010000002
 10
118.78562980587049
 20
-106.00000010000002
 10
121.5718796513483
 20
-106.00000010000002
 10
124.18991274473575
 20
-106.00000010000002
 10
126.63118960624632
 20
-106.00000010000002
 10
128.88774729818266
 20
-106.00000010000002
 10
130.95222539838437
 20
-106.00000010000002
 10
132.81789000839507
 20
-106.00000010000002
 10
134.47865571803953
 20
-106.00000010000002
 10
135.92910545476673
 20
-106.00000010000002
 10
137.16450815301482
 20
-106.00000010000002
 10
138.18083418596336
 20
-106.00000010000002
 10
138.9747685093385
 20
-106.00000010000002
 10
139.54372147439852
 20
-106.00000010000002
 10
139.8858372748295
 20
-106.00000010000002
 10
140.0
 20
-106.00000010000002
  0
LWPOLYLINE
  5
81
330
17
100
AcDbEntity
  8
XZ
100
AcDbPolyline
 90
16
 70
0
 10
39.0
 20
-179.50000010000002
 10
39.08100304393693
 20
-179.9766174979249
 10
39.27058739786327
 20
-181.31940244633438
 10
39.444362093438784
 20
-183.29794018255615
 10
39.4863670742812
 20
-185.57601601015102
 10
39.36793184672378
 20
-187.7520174504357
 10
39.169167718101306
 20
-189.44862008050364
 10
39.021171644411496
 20
-190.37938702445126
 10
39.02117168625409
 20
-190.37938703346947
 10
39.16916771810314
 20
-189.44862008049085
 10
39.36793184672547
 20
-187.75201745041682
 10
39.486367074831975
 20
-185.57601601044263
 10
39.44436209326095
 20
-183.29794018280728
 10
39.270587397837595
 20
-181.31940244650553
 10
39.081003043929385
 20
-179.97661749787846
 10
39.0
 20
-179.50000010000002
  0
LWPOLYLINE
  5
82
330
17
100
AcDbEntity
  8
XZ
100
AcDbPolyline
 90
2
 70
0
 10
28.0
 20
-179.50000010000002
 10
39.0
 20
-179.50000010000002
  0
LWPOLYLINE
  5
83
330
17
100
AcDbEntity
  8
XZ
100
AcDbPolyline
 90
16
 70
0
 10
39.0
 20
-124.50000010000002
 10
39.08100304393638
 20
-124.97661749792155
 10
39.270587397846256
 20
-126.31940244657784
 10
39.44436209344235
 20
-128.29794018262027
 10
39.48636707428008
 20
-130.57601601020997
 10
39.367931846724744
 20
-132.752017450577
 10
39.169167718089184
 20
-134.4486200805876
 10
39.02117164433018
 20
-135.37938702498434
 10
39.021171686256295
 20
-135.37938703345674
 10
39.16916771810737
 20
-134.44862008046164
 10
39.36793184674143
 20
-132.75201745039146
 10
39.48636707483449
 20
-130.57601601030944
 10
39.4443620932543
 20
-128.29794018268802
 10
39.27058739785094
 20
-126.31940244623138
 10
39.08100304392883
 20
-124.97661749787505
 10
39.0
 20
-124.50000010000002
  0
LWPOLYLINE
  5
84
330
17
100
AcDbEntity
  8
XZ
100
AcDbPolyline
 90
2
 70
0
 10
28.0
 20
-124.50000010000002
 10
39.0
 20
-124.50000010000002
  0
LWPOLYLINE
  5
85
330
17
100
AcDbEntity
  8
XZ
100
AcDbPolyline
 90
2
 70
0
 10
101.0
 20
-100.00000010000002
 10
101.0
 20
-124.50000010000002
  0
LWPOLYLINE
  5
86
330
17
100
AcDbEntity
  8
XZ
100
AcDbPolyline
 90
50
 70
0
 10
101.0
 20
-100.00000010000002
 10
100.74549042852064
 20
-100.00000010000002
 10
99.98614075420991
 20
-100.00000010000002
 10
98.73441947772668
 20
-100.00000010000002
 10
97.01087982782508
 20
-100.00000010000002
 10
94.84382227790665
 20
-100.00000010000002
 10
92.26882985302956
 20
-100.00000010000002
 10
89.32818385762074
 20
-100.00000010000002
 10
86.07016961762628
 20
-100.00000010000002
 10
82.54828363679421
 20
-100.00000010000002
 10
78.82035518556201
 20
-100.00000010000002
 10
74.94759674603476
 20
-100.00000010000002
 10
70.99359890472131
 20
-100.00000010000002
 10
67.02328619686187
 20
-100.00000010000002
 10
63.10185104735426
 20
-100.00000010000002
 10
59.293683312939464
 20
-100.00000010000002
 10
55.661313002534115
 20
-100.00000010000002
 10
52.26438353621275
 20
-100.00000010000002
 10
49.158672401899175
 20
-100.00000010000002
 10
46.395175290556836
 20
-100.00000010000002
 10
44.01926874835294
 20
-100.00000010000002
 10
42.06996509502501
 20
-100.00000010000002
 10
40.57927184266927
 20
-100.00000010000002
 10
39.57166613327698
 20
-100.00000010000002
 10
39.063692824739576
 20
-100.00000010000002
 10
39.063692824739576
 20
-100.00000010000002
 10
39.57166613327697
 20
-100.00000010000002
 10
40.579271842669264
 20
-100.00000010000002
 10
42.069965095025
 20
-100.00000010000002
 10
44.019268748352935
 20
-100.00000010000002
 10
46.395175290556836
 20
-100.00000010000002
 10
49.158672401899175
 20
-100.00000010000002
 10
52.26438353621273
 20
-100.00000010000002
 10
55.66131300253408
 20
-100.00000010000002
 10
59.29368331293945
 20
-100.00000010000002
 10
63.101851047354245
 20
-100.00000010000002
 10
67.02328619686187
 20
-100.00000010000002
 10
70.9935989047213
 20
-100.00000010000002
 10
74.94759674603473
 20
-100.00000010000002
 10
78.820355185562
 20
-100.00000010000002
 10
82.54828363679421
 20
-100.00000010000002
 10
86.07016961762628
 20
-100.00000010000002
 10
89.32818385762072
 20
-100.00000010000002
 10
92.26882985302953
 20
-100.00000010000002
 10
94.84382227790665
 20
-100.00000010000002
 10
97.01087982782505
 20
-100.00000010000002
 10
98.73441947772668
 20
-100.00000010000002
 10
99.9861407542099
 20
-100.00000010000002
 10
100.74549042852063
 20
-100.00000010000002
 10
101.0
 20
-100.00000010000002
  0
LWPOLYLINE
  5
87
330
17
100
AcDbEntity
  8
XZ
100
AcDbPolyline
 90
2
 70
0
 10
101.0
 20
-179.50000010000002
 10
101.0
 20
-135.50000010000002
  0
LWPOLYLINE
  5
88
330
17
100
AcDbEntity
  8
XZ
100
AcDbPolyline
 90
2
 70
0
 10
101.0
 20
-220.00000010000002
 10
101.0
 20
-190.50000010000002
  0
LWPOLYLINE
  5
89
330
17
100
AcDbEntity
  8
XZ
100
AcDbPolyline
 90
111
 70
0
 10
140.0
 20
-100.00000010000002
 10
139.8858372748295
 20
-100.00000010000002
 10
139.54372147439852
 20
-100.00000010000002
 10
138.9747685093385
 20
-100.00000010000002
 10
138.18083418596336
 20
-100.00000010000002
 10
137.16450815301482
 20
-100.00000010000002
 10
135.92910545476673
 20
-100.00000010000002
 10
134.4786557180395
 20
-100.00000010000002
 10
132.8178900083951
 20
-100.00000010000002
 10
130.9522253983844
 20
-100.00000010000002
 10
128.8877472981827
 20
-100.00000010000002
 10
126.63118960624632
 20
-100.00000010000002
 10
124.18991274473578
 20
-100.00000010000002
 10
121.57187965134835
 20
-100.00000010000002
 10
118.78562980587054
 20
-100.00000010000002
 10
115.84025137616996
 20
-100.00000010000002
 10
112.74535157448068
 20
-100.00000010000002
 10
109.51102532067384
 20
-100.00000010000002
 10
106.14782231472735
 20
-100.00000010000002
 10
102.66671262579715
 20
-100.00000010000002
 10
99.07905091013205
 20
-100.00000010000002
 10
95.39653937454486
 20
-100.00000010000002
 10
91.63118960624632
 20
-100.00000010000002
 10
87.7952833935441
 20
-100.00000010000002
 10
83.9013326652022
 20
-100.00000010000002
 10
79.96203867912998
 20
-100.00000010000002
 10
75.9902505935188
 20
-100.00000010000002
 10
71.99892355555873
 20
-100.00000010000002
 10
68.00107644444128
 20
-100.00000010000002
 10
64.00974940648123
 20
-100.00000010000002
 10
60.03796132087007
 20
-100.00000010000002
 10
56.09866733479784
 20
-100.00000010000002
 10
52.204716606455946
 20
-100.00000010000002
 10
48.368810393753705
 20
-100.00000010000002
 10
44.60346062545513
 20
-100.00000010000002
 10
40.92094908986796
 20
-100.00000010000002
 10
37.33328737420287
 20
-100.00000010000002
 10
33.85217768527267
 20
-100.00000010000002
 10
30.48897467932614
 20
-100.00000010000002
 10
27.254648425519328
 20
-100.00000010000002
 10
24.15974862383004
 20
-100.00000010000002
 10
21.214370194129465
 20
-100.00000010000002
 10
18.428120348651646
 20
-100.00000010000002
 10
15.810087255264229
 20
-100.00000010000002
 10
13.368810393753684
 20
-100.00000010000002
 10
11.112252701817333
 20
-100.00000010000002
 10
9.047774601615608
 20
-100.00000010000002
 10
7.182109991604925
 20
-100.00000010000002
 10
5.521344281960509
 20
-100.00000010000002
 10
4.070894545233273
 20
-100.00000010000002
 10
2.8354918469851924
 20
-100.00000010000002
 10
1.8191658140366513
 20
-100.00000010000002
 10
1.025231490661497
 20
-100.00000010000002
 10
0.4562785256014905
 20
-100.00000010000002
 10
0.11416272517050174
 20
-100.00000010000002
 10
0.0
 20
-100.00000010000002
 10
0.11416272517050174
 20
-100.00000010000002
 10
0.4562785256014905
 20
-100.00000010000002
 10
1.0252314906614828
 20
-100.00000010000002
 10
1.8191658140366513
 20
-100.00000010000002
 10
2.835491846985164
 20
-100.00000010000002
 10
4.0708945452332586
 20
-100.00000010000002
 10
5.521344281960481
 20
-100.00000010000002
 10
7.182109991604911
 20
-100.00000010000002
 10
9.047774601615572
 20
-100.00000010000002
 10
11.112252701817297
 20
-100.00000010000002
 10
13.368810393753655
 20
-100.00000010000002
 10
15.810087255264222
 20
-100.00000010000002
 10
18.42812034865166
 20
-100.00000010000002
 10
21.214370194129472
 20
-100.00000010000002
 10
24.159748623830033
 20
-100.00000010000002
 10
27.254648425519306
 20
-100.00000010000002
 10
30.488974679326112
 20
-100.00000010000002
 10
33.852177685272636
 20
-100.00000010000002
 10
37.333287374202826
 20
-100.00000010000002
 10
40.92094908986795
 20
-100.00000010000002
 10
44.603460625455156
 20
-100.00000010000002
 10
48.36881039375367
 20
-100.00000010000002
 10
52.204716606455925
 20
-100.00000010000002
 10
56.09866733479779
 20
-100.00000010000002
 10
60.03796132087003
 20
-100.00000010000002
 10
64.00974940648118
 20
-100.00000010000002
 10
68.00107644444124
 20
-100.00000010000002
 10
71.99892355555873
 20
-100.00000010000002
 10
75.99025059351881
 20
-100.00000010000002
 10
79.96203867912995
 20
-100.00000010000002
 10
83.90133266520219
 20
-100.00000010000002
 10
87.79528339354405
 20
-100.00000010000002
 10
91.63118960624631
 20
-100.00000010000002
 10
95.39653937454482
 20
-100.00000010000002
 10
99.07905091013203
 20
-100.00000010000002
 10
102.66671262579715
 20
-100.00000010000002
 10
106.1478223147273
 20
-100.00000010000002
 10
109.51102532067381
 20
-100.00000010000002
 10
112.74535157448062
 20
-100.00000010000002
 10
115.84025137616993
 20
-100.00000010000002
 10
118.78562980587049
 20
-100.00000010000002
 10
121.5718796513483
 20
-100.00000010000002
 10
124.18991274473575
 20
-100.00000010000002
 10
126.63118960624632
 20
-100.00000010000002
 10
128.88774729818266
 20
-100.00000010000002
 10
130.95222539838437
 20
-100.00000010000002
 10
132.81789000839507
 20
-100.00000010000002
 10
134.47865571803953
 20
-100.00000010000002
 10
135.92910545476673
 20
-100.00000010000002
 10
137.16450815301482
 20
-100.00000010000002
 10
138.18083418596336
 20
-100.00000010000002
 10
138.9747685093385
 20
-100.00000010000002
 10
139.54372147439852
 20
-100.00000010000002
 10
139.8858372748295
 20
-100.00000010000002
 10
140.0
 20
-100.00000010000002
  0
LWPOLYLINE
  5
8A
330
17
100
AcDbEntity
  8
XZ
100
AcDbPolyline
 90
2
 70
0
 10
140.0
 20
-106.00000010000002
 10
140.0
 20
-100.00000010000002
  0
DIMENSION
  5
8B
330
17
100
AcDbEntity
  8
DIMENSIONS
100
AcDbDimension
280
0
  2
*D3
  3
Standard
 10
0.0
 20
-244.00000020000004
 30
0.0
 11
70.0
 21
-244.00000020000004
 31
0.0
 70
32
 71
5
  1
<>
100
AcDbAlignedDimension
 13
0.0
 23
-220.00000020000004
 33
0.0
 14
140.0
 24
-220.00000020000004
 34
0.0
 50
0.0
100
AcDbRotatedDimension
1001
ACAD
1000
DSTYLE
1002
{
1070
140
1040
3.0
1070
41
1040
3.0
1070
271
1070
3
1002
}
  0
DIMENSION
  5
9B
330
17
100
AcDbEntity
  8
DIMENSIONS
100
AcDbDimension
280
0
  2
*D4
  3
Standard
 10
-24.0
 20
-220.00000020000004
 30
0.0
 11
-24.0
 21
-160.00000010000002
 31
0.0
 70
32
 71
5
  1
<>
100
AcDbAlignedDimension
 13
0.0
 23
-220.00000020000004
 33
0.0
 14
0.0
 24
-100.0
 34
0.0
 50
90.0
100
AcDbRotatedDimension
1001
ACAD
1000
DSTYLE
1002
{
1070
140
1040
3.0
1070
41
1040
3.0
1070
271
1070
3
1002
}
  0
LWPOLYLINE
  5
AB
330
17
100
AcDbEntity
  8
YZ
100
AcDbPolyline
 90
16
 70
0
 10
310.0
 20
95.50000010000002
 10
308.8554054313957
 20
95.37958216787285
 10
307.7615947290262
 20
95.02389717806324
 10
306.76646471524504
 20
94.44907298849495
 10
305.91289829354525
 20
93.6804348102317
 10
305.2374966658791
 20
92.75110207606957
 10
304.7696243468682
 20
91.70093237152741
 10
304.53019272992634
 20
90.57550722506284
 10
304.53019273146697
 20
89.424492975146
 10
304.76962434742734
 20
88.29906782868238
 10
305.2374966658807
 20
87.24889812392769
 10
305.9128982935474
 20
86.31956538976596
 10
306.76646471532126
 20
85.55092721159775
 10
307.7615947290366
 20
84.97610302193215
 10
308.855405431436
 20
84.62041803230096
 10
310.0
 20
84.50000010000002
  0
LWPOLYLINE
  5
AC
330
17
100
AcDbEntity
  8
YZ
100
AcDbPolyline
 90
2
 70
0
 10
310.0
 20
40.50000010000002
 10
310.0
 20
84.50000010000002
  0
LWPOLYLINE
  5
AD
330
17
100
AcDbEntity
  8
YZ
100
AcDbPolyline
 90
16
 70
0
 10
310.0
 20
40.50000010000002
 10
308.8554054314086
 20
40.37958216787558
 10
307.7615947290503
 20
40.02389717807398
 10
306.766464715277
 20
39.44907298851814
 10
305.912898293639
 20
38.680434810217605
 10
305.237496665536
 20
37.75110207632156
 10
304.7696243468621
 20
36.70093237150866
 10
304.53019272992566
 20
35.5755072250563
 10
304.5301927314663
 20
34.42449297515253
 10
304.7696243474212
 20
33.29906782870114
 10
305.2374966655376
 20
32.2488981236757
 10
305.9128982936411
 20
31.319565389780053
 10
306.7664647153532
 20
30.55092721157456
 10
307.7615947290607
 20
29.97610302192146
 10
308.8554054314489
 20
29.620418032298176
 10
310.0
 20
29.500000100000022
  0
LWPOLYLINE
  5
AE
330
17
100
AcDbEntity
  8
YZ
100
AcDbPolyline
 90
2
 70
0
 10
310.0
 20
1.0000002248489182e-07
 10
310.0
 20
29.500000100000022
  0
LWPOLYLINE
  5
AF
330
17
100
AcDbEntity
  8
YZ
100
AcDbPolyline
 90
67
 70
0
 10
310.0
 20
1.0000002248489182e-07
 10
313.99235381877565
 20
1.0000002248489182e-07
 10
317.94855226313723
 20
1.0000002248489182e-07
 10
321.83276738734
 20
1.0000002248489182e-07
 10
325.60982313773377
 20
1.0000002248489182e-07
 10
329.24551391255125
 20
1.0000002248489182e-07
 10
332.7069143331351
 20
1.0000002248489182e-07
 10
335.9626774212654
 20
1.0000002248489182e-07
 10
338.9833184822487
 20
1.0000002248489182e-07
 10
341.74148212287884
 20
1.0000002248489182e-07
 10
344.21218998611414
 20
1.0000002248489182e-07
 10
346.3730669589464
 20
1.0000002248489182e-07
 10
348.2045438048898
 20
1.0000002248489182e-07
 10
349.69003438601607
 20
1.0000002248489182e-07
 10
350.81608586958873
 20
1.0000002248489182e-07
 10
351.5725005589992
 20
1.0000002248489182e-07
 10
351.95242824568635
 20
1.0000002248489182e-07
 10
351.95242824568635
 20
1.0000002248489182e-07
 10
351.5725005589992
 20
1.0000002248489182e-07
 10
350.81608586958873
 20
1.0000002248489182e-07
 10
349.69003438601607
 20
1.0000002248489182e-07
 10
348.2045438048898
 20
1.0000002248489182e-07
 10
346.3730669589464
 20
1.0000002248489182e-07
 10
344.2121899861141
 20
1.0000002248489182e-07
 10
341.74148212287884
 20
1.0000002248489182e-07
 10
338.9833184822487
 20
1.0000002248489182e-07
 10
335.9626774212654
 20
1.0000002248489182e-07
 10
332.7069143331351
 20
1.0000002248489182e-07
 10
329.24551391255125
 20
1.0000002248489182e-07
 10
325.60982313773377
 20
1.0000002248489182e-07
 10
321.83276738734
 20
1.0000002248489182e-07
 10
317.94855226313723
 20
1.0000002248489182e-07
 10
313.99235381877565
 20
1.0000002248489182e-07
 10
310.0
 20
1.0000002248489182e-07
 10
306.00764618122435
 20
1.0000002248489182e-07
 10
302.05144773686277
 20
1.0000002248489182e-07
 10
298.16723261266
 20
1.0000002248489182e-07
 10
294.3901768622663
 20
1.0000002248489182e-07
 10
290.75448608744875
 20
1.0000002248489182e-07
 10
287.2930856668649
 20
1.0000002248489182e-07
 10
284.0373225787346
 20
1.0000002248489182e-07
 10
281.0166815177513
 20
1.0000002248489182e-07
 10
278.25851787712116
 20
1.0000002248489182e-07
 10
275.7878100138859
 20
1.0000002248489182e-07
 10
273.6269330410536
 20
1.0000002248489182e-07
 10
271.7954561951102
 20
1.0000002248489182e-07
 10
270.30996561398393
 20
1.0000002248489182e-07
 10
269.18391413041127
 20
1.0000002248489182e-07
 10
268.4274994410008
 20
1.0000002248489182e-07
 10
268.04757175431365
 20
1.0000002248489182e-07
 10
268.04757175431365
 20
1.0000002248489182e-07
 10
268.4274994410008
 20
1.0000002248489182e-07
 10
269.18391413041127
 20
1.0000002248489182e-07
 10
270.30996561398393
 20
1.0000002248489182e-07
 10
271.7954561951102
 20
1.0000002248489182e-07
 10
273.6269330410536
 20
1.0000002248489182e-07
 10
275.7878100138859
 20
1.0000002248489182e-07
 10
278.25851787712116
 20
1.0000002248489182e-07
 10
281.0166815177513
 20
1.0000002248489182e-07
 10
284.0373225787346
 20
1.0000002248489182e-07
 10
287.2930856668649
 20
1.0000002248489182e-07
 10
290.75448608744875
 20
1.0000002248489182e-07
 10
294.39017686226623
 20
1.0000002248489182e-07
 10
298.16723261266
 20
1.0000002248489182e-07
 10
302.05144773686277
 20
1.0000002248489182e-07
 10
306.0076461812243
 20
1.0000002248489182e-07
 10
310.0
 20
1.0000002248489182e-07
  0
LWPOLYLINE
  5
B0
330
17
100
AcDbEntity
  8
YZ
100
AcDbPolyline
 90
16
 70
0
 10
310.0
 20
29.500000100000022
 10
311.1445945686137
 20
29.62041803212918
 10
312.23840527099134
 20
29.976103021944652
 10
313.2335352847112
 20
30.5509272116214
 10
314.0871017064859
 20
31.319565389802904
 10
314.76250333414896
 20
32.248898123979075
 10
315.2303756531521
 20
33.299067828535215
 10
315.46980727008156
 20
34.42449297501224
 10
315.46980726852416
 20
35.57550722493869
 10
315.2303756525434
 20
36.7009323714077
 10
314.76250333406716
 20
37.75110207616257
 10
314.08710170637653
 20
38.680434810318616
 10
313.2335352845789
 20
39.44907298847477
 10
312.2384052708419
 20
40.02389717812201
 10
311.14459456832503
 20
40.37958216710979
 10
310.0
 20
40.50000010000002
  0
LWPOLYLINE
  5
B1
330
17
100
AcDbEntity
  8
YZ
100
AcDbPolyline
 90
16
 70
0
 10
310.0
 20
84.50000010000002
 10
311.1445945686078
 20
84.62041803212793
 10
312.2384052709803
 20
84.9761030219397
 10
313.2335352847636
 20
85.55092721151141
 10
314.0871017064643
 20
86.31956538977892
 10
314.76250333412975
 20
87.24889812394588
 10
315.23037565313837
 20
88.29906782849298
 10
315.4698072700763
 20
89.42449297496205
 10
315.4698072685301
 20
90.57550722488241
 10
315.23037565256277
 20
91.70093237134819
 10
314.7625033344281
 20
92.75110207638363
 10
314.08710170630184
 20
93.68043481028326
 10
313.2335352845643
 20
94.44907298848545
 10
312.23840527083087
 20
95.0238971781269
 10
311.14459456831906
 20
95.3795821671111
 10
310.0
 20
95.50000010000002
  0
LWPOLYLINE
  5
B2
330
17
100
AcDbEntity
  8
YZ
100
AcDbPolyline
 90
2
 70
0
 10
310.0
 20
95.50000010000002
 10
310.0
 20
114.00000010000002
  0
LWPOLYLINE
  5
B3
330
17
100
AcDbEntity
  8
YZ
100
AcDbPolyline
 90
67
 70
0
 10
310.0
 20
114.00000010000002
 10
313.99235381877565
 20
114.00000010000002
 10
317.94855226313723
 20
114.00000010000002
 10
321.83276738734
 20
114.00000010000002
 10
325.60982313773377
 20
114.00000010000002
 10
329.24551391255125
 20
114.00000010000002
 10
332.7069143331351
 20
114.00000010000002
 10
335.9626774212654
 20
114.00000010000002
 10
338.9833184822487
 20
114.00000010000002
 10
341.74148212287884
 20
114.00000010000002
 10
344.21218998611414
 20
114.00000010000002
 10
346.3730669589464
 20
114.00000010000002
 10
348.2045438048898
 20
114.00000010000002
 10
349.69003438601607
 20
114.00000010000002
 10
350.81608586958873
 20
114.00000010000002
 10
351.5725005589992
 20
114.00000010000002
 10
351.95242824568635
 20
114.00000010000002
 10
351.95242824568635
 20
114.00000010000002
 10
351.5725005589992
 20
114.00000010000002
 10
350.81608586958873
 20
114.00000010000002
 10
349.69003438601607
 20
114.00000010000002
 10
348.2045438048898
 20
114.00000010000002
 10
346.3730669589464
 20
114.00000010000002
 10
344.2121899861141
 20
114.00000010000002
 10
341.74148212287884
 20
114.00000010000002
 10
338.9833184822487
 20
114.00000010000002
 10
335.9626774212654
 20
114.00000010000002
 10
332.7069143331351
 20
114.00000010000002
 10
329.24551391255125
 20
114.00000010000002
 10
325.60982313773377
 20
114.00000010000002
 10
321.83276738734
 20
114.00000010000002
 10
317.94855226313723
 20
114.00000010000002
 10
313.99235381877565
 20
114.00000010000002
 10
310.0
 20
114.00000010000002
 10
306.00764618122435
 20
114.00000010000002
 10
302.05144773686277
 20
114.00000010000002
 10
298.16723261266
 20
114.00000010000002
 10
294.3901768622663
 20
114.00000010000002
 10
290.75448608744875
 20
114.00000010000002
 10
287.2930856668649
 20
114.00000010000002
 10
284.0373225787346
 20
114.00000010000002
 10
281.0166815177513
 20
114.00000010000002
 10
278.25851787712116
 20
114.00000010000002
 10
275.7878100138859
 20
114.00000010000002
 10
273.6269330410536
 20
114.00000010000002
 10
271.7954561951102
 20
114.00000010000002
 10
270.30996561398393
 20
114.00000010000002
 10
269.18391413041127
 20
114.00000010000002
 10
268.4274994410008
 20
114.00000010000002
 10
268.04757175431365
 20
114.00000010000002
 10
268.04757175431365
 20
114.00000010000002
 10
268.4274994410008
 20
114.00000010000002
 10
269.18391413041127
 20
114.00000010000002
 10
270.30996561398393
 20
114.00000010000002
 10
271.7954561951102
 20
114.00000010000002
 10
273.6269330410536
 20
114.00000010000002
 10
275.7878100138859
 20
114.00000010000002
 10
278.25851787712116
 20
114.00000010000002
 10
281.0166815177513
 20
114.00000010000002
 10
284.0373225787346
 20
114.00000010000002
 10
287.2930856668649
 20
114.00000010000002
 10
290.75448608744875
 20
114.00000010000002
 10
294.39017686226623
 20
114.00000010000002
 10
298.16723261266
 20
114.00000010000002
 10
302.05144773686277
 20
114.00000010000002
 10
306.0076461812243
 20
114.00000010000002
 10
310.0
 20
114.00000010000002
  0
LWPOLYLINE
  5
B4
330
17
100
AcDbEntity
  8
YZ
100
AcDbPolyline
 90
16
 70
0
 10
310.0
 20
40.50000010000002
 10
307.7615947290375
 20
40.023897178068296
 10
305.9128982935563
 20
38.68043481024398
 10
304.7696243468772
 20
36.70093237155493
 10
304.53019273146265
 20
34.42449297518709
 10
305.23749666585394
 20
32.24889812397407
 10
306.7664647151943
 20
30.55092721154199
 10
308.85540543074995
 20
29.62041802918816
 10
311.1445945706219
 20
29.620418021904186
 10
313.2335352848581
 20
30.550927211580074
 10
314.76250333455454
 20
32.248898123835204
 10
315.4698072700948
 20
34.42449297513798
 10
315.2303756525141
 20
36.7009323714978
 10
314.08710170633435
 20
38.680434810365455
 10
312.238405270813
 20
40.0238971781348
 10
310.0
 20
40.50000010000002
  0
LWPOLYLINE
  5
B5
330
17
100
AcDbEntity
  8
YZ
100
AcDbPolyline
 90
16
 70
0
 10
310.0
 20
95.50000010000002
 10
307.76159472903765
 20
95.0238971780683
 10
305.9128982935565
 20
93.68043481024421
 10
304.7696243468773
 20
91.70093237155538
 10
304.53019273146253
 20
89.42449297518766
 10
305.2374966655269
 20
87.24889812369429
 10
306.76646471534707
 20
85.550927211579
 10
308.8554054307048
 20
84.62041802970231
 10
311.1445945687423
 20
84.62041803215652
 10
313.23353528479174
 20
85.55092721167995
 10
314.76250333418295
 20
87.24889812403791
 10
315.46980727008537
 20
89.42449297504834
 10
315.230375652542
 20
91.70093237141197
 10
314.0871017062702
 20
93.6804348103185
 10
312.2384052708129
 20
95.02389717813492
 10
310.0
 20
95.50000010000002
  0
LWPOLYLINE
  5
B6
330
17
100
AcDbEntity
  8
YZ
100
AcDbPolyline
 90
16
 70
0
 10
310.0
 20
84.50000010000002
 10
311.14551134449664
 20
84.62061317246207
 10
312.2395596067392
 20
84.97661749793542
 10
313.23415835513697
 20
85.55138011947258
 10
314.0869549758021
 20
86.31940244637264
 10
314.7619744420992
 20
87.24798274955157
 10
315.23000880479503
 20
88.29794018262976
 10
315.4697537141774
 20
89.42398418954662
 10
315.46975371196675
 20
90.57601601025385
 10
315.2300088040964
 20
91.70206001720697
 10
314.7619744420422
 20
92.75201745054716
 10
314.0869549757259
 20
93.680597753712
 10
313.2341583550449
 20
94.44862008059448
 10
312.239559606635
 20
95.02338270211106
 10
311.1455113443049
 20
95.37938702701058
 10
310.0
 20
95.50000010000002
  0
LWPOLYLINE
  5
B7
330
17
100
AcDbEntity
  8
YZ
100
AcDbPolyline
 90
16
 70
0
 10
310.0
 20
95.50000010000002
 10
308.85448865550967
 20
95.37938702753934
 10
307.7604403932726
 20
95.02338270206991
 10
306.7658416448786
 20
94.44862008053883
 10
305.9130450242151
 20
93.68059775364651
 10
305.2380255579169
 20
92.75201745047639
 10
304.7699911952169
 20
91.70206001740706
 10
304.5302462858274
 20
90.57601601049834
 10
304.53024628802785
 20
89.42398418979758
 10
304.7699911958856
 20
88.29794018284827
 10
305.23802555792565
 20
87.24798274950854
 10
305.9130450242268
 20
86.31940244634058
 10
306.76584164484217
 20
85.55138011938578
 10
307.7604403932811
 20
84.97661749792638
 10
308.85448865554133
 20
84.62061317260242
 10
310.0
 20
84.50000010000002
  0
LWPOLYLINE
  5
B8
330
17
100
AcDbEntity
  8
YZ
100
AcDbPolyline
 90
16
 70
0
 10
310.0
 20
29.500000100000022
 10
311.14551134449715
 20
29.620613172462186
 10
312.2395596067402
 20
29.97661749793582
 10
313.2341583551823
 20
30.551380119403518
 10
314.0869549757981
 20
31.319402446368144
 10
314.76197444209646
 20
32.24798274954679
 10
315.23000880479356
 20
33.2979401826251
 10
315.46975371417693
 20
34.423984189542296
 10
315.46975371196714
 20
35.57601601024999
 10
315.23000880409745
 20
36.70206001720385
 10
314.76197444204354
 20
37.75201745054483
 10
314.08695497572734
 20
38.6805977537104
 10
313.2341583550462
 20
39.448620080593514
 10
312.239559606636
 20
40.023382702110666
 10
311.1455113443055
 20
40.379387027010466
 10
310.0
 20
40.50000010000002
  0
LWPOLYLINE
  5
B9
330
17
100
AcDbEntity
  8
YZ
100
AcDbPolyline
 90
16
 70
0
 10
310.0
 20
40.50000010000002
 10
308.85448865550967
 20
40.37938702753928
 10
307.7604403932726
 20
40.02338270206985
 10
306.7658416448786
 20
39.44862008053883
 10
305.9130450242151
 20
38.68059775364651
 10
305.2380255579169
 20
37.75201745047633
 10
304.7699911952169
 20
36.70206001740701
 10
304.5302462858274
 20
35.57601601049828
 10
304.53024628802785
 20
34.42398418979752
 10
304.7699911958856
 20
33.29794018284821
 10
305.23802555792565
 20
32.24798274950854
 10
305.9130450242268
 20
31.31940244634052
 10
306.76584164484217
 20
30.551380119385783
 10
307.76044039328104
 20
29.976617497926384
 10
308.85448865554133
 20
29.620613172602418
 10
310.0
 20
29.500000100000022
  0
LWPOLYLINE
  5
BA
330
17
100
AcDbEntity
  8
YZ
100
AcDbPolyline
 90
50
 70
0
 10
310.0
 20
1.0000002248489182e-07
 10
313.96419201221966
 20
1.0000002248489182e-07
 10
317.8632921011947
 20
1.0000002248489182e-07
 10
321.6332771512606
 20
1.0000002248489182e-07
 10
325.2122441121221
 20
1.0000002248489182e-07
 10
328.54142644522767
 20
1.0000002248489182e-07
 10
331.5661590687081
 20
1.0000002248489182e-07
 10
334.23677595650895
 20
1.0000002248489182e-07
 10
336.50942565316575
 20
1.0000002248489182e-07
 10
338.3467913134902
 20
1.0000002248489182e-07
 10
339.7187034441365
 20
1.0000002248489182e-07
 10
340.60263528584795
 20
1.0000002248489182e-07
 10
340.98407270222134
 20
1.0000002248489182e-07
 10
340.85675250142515
 20
1.0000002248489182e-07
 10
340.22276527763654
 20
1.0000002248489182e-07
 10
339.0925210835426
 20
1.0000002248489182e-07
 10
337.484578497563
 20
1.0000002248489182e-07
 10
335.42533989250563
 20
1.0000002248489182e-07
 10
332.94861790933476
 20
1.0000002248489182e-07
 10
330.0950802545415
 20
1.0000002248489182e-07
 10
326.911581937527
 20
1.0000002248489182e-07
 10
323.45039591264435
 20
1.0000002248489182e-07
 10
319.76835475873224
 20
1.0000002248489182e-07
 10
315.9259174897426
 20
1.0000002248489182e-07
 10
311.9861768194021
 20
1.0000002248489182e-07
 10
308.0138231805979
 20
1.0000002248489182e-07
 10
304.0740825102575
 20
1.0000002248489182e-07
 10
300.23164524126776
 20
1.0000002248489182e-07
 10
296.5496040873557
 20
1.0000002248489182e-07
 10
293.088418062473
 20
1.0000002248489182e-07
 10
289.9049197454585
 20
1.0000002248489182e-07
 10
287.05138209066524
 20
1.0000002248489182e-07
 10
284.57466010749437
 20
1.0000002248489182e-07
 10
282.515421502437
 20
1.0000002248489182e-07
 10
280.9074789164574
 20
1.0000002248489182e-07
 10
279.77723472236346
 20
1.0000002248489182e-07
 10
279.14324749857485
 20
1.0000002248489182e-07
 10
279.01592729777866
 20
1.0000002248489182e-07
 10
279.39736471415205
 20
1.0000002248489182e-07
 10
280.2812965558635
 20
1.0000002248489182e-07
 10
281.6532086865098
 20
1.0000002248489182e-07
 10
283.49057434683425
 20
1.0000002248489182e-07
 10
285.76322404349105
 20
1.0000002248489182e-07
 10
288.4338409312919
 20
1.0000002248489182e-07
 10
291.45857355477233
 20
1.0000002248489182e-07
 10
294.7877558878779
 20
1.0000002248489182e-07
 10
298.3667228487394
 20
1.0000002248489182e-07
 10
302.13670789880524
 20
1.0000002248489182e-07
 10
306.0358079877803
 20
1.0000002248489182e-07
 10
310.0
 20
1.0000002248489182e-07
  0
LWPOLYLINE
  5
BB
330
17
100
AcDbEntity
  8
YZ
100
AcDbPolyline
 90
111
 70
0
 10
310.0
 20
114.00000010000002
 10
313.99621676039374
 20
114.00000010000002
 10
317.97939869233784
 20
114.00000010000002
 10
321.93655348428365
 20
114.00000010000002
 10
325.8547737198035
 20
114.00000010000002
 10
329.72127897890005
 20
114.00000010000002
 10
333.5234575250801
 20
114.00000010000002
 10
337.2489074422174
 20
114.00000010000002
 10
340.8854770870255
 20
114.00000010000002
 10
344.4213047251923
 20
114.00000010000002
 10
347.84485722189186
 20
114.00000010000002
 10
351.1449676604731
 20
114.00000010000002
 10
354.31087176662095
 20
114.00000010000002
 10
357.33224301918136
 20
114.00000010000002
 10
360.1992263331274
 20
114.00000010000002
 10
362.9024702047981
 20
114.00000010000002
 10
365.4331572145593
 20
114.00000010000002
 10
367.7830327873942
 20
114.00000010000002
 10
369.9444321176112
 20
114.00000010000002
 10
371.910305169847
 20
114.00000010000002
 10
373.67423967481625
 20
114.00000010000002
 10
375.23048204480165
 20
114.00000010000002
 10
376.57395614066075
 20
114.00000010000002
 10
377.700279829137
 20
114.00000010000002
 10
378.6057792764675
 20
114.00000010000002
 10
379.2875009316653
 20
114.00000010000002
 10
379.7432211603884
 20
114.00000010000002
 10
379.97145349797324
 20
114.00000010000002
 10
379.97145349797324
 20
114.00000010000002
 10
379.74322116038843
 20
114.00000010000002
 10
379.2875009316653
 20
114.00000010000002
 10
378.60577927646756
 20
114.00000010000002
 10
377.700279829137
 20
114.00000010000002
 10
376.57395614066075
 20
114.00000010000002
 10
375.23048204480165
 20
114.00000010000002
 10
373.6742396748163
 20
114.00000010000002
 10
371.910305169847
 20
114.00000010000002
 10
369.9444321176112
 20
114.00000010000002
 10
367.7830327873942
 20
114.00000010000002
 10
365.4331572145593
 20
114.00000010000002
 10
362.9024702047981
 20
114.00000010000002
 10
360.19922633312746
 20
114.00000010000002
 10
357.33224301918136
 20
114.00000010000002
 10
354.31087176662095
 20
114.00000010000002
 10
351.1449676604731
 20
114.00000010000002
 10
347.84485722189186
 20
114.00000010000002
 10
344.4213047251923
 20
114.00000010000002
 10
340.8854770870255
 20
114.00000010000002
 10
337.24890744221744
 20
114.00000010000002
 10
333.5234575250801
 20
114.00000010000002
 10
329.7212789789001
 20
114.00000010000002
 10
325.8547737198035
 20
114.00000010000002
 10
321.93655348428365
 20
114.00000010000002
 10
317.97939869233784
 20
114.00000010000002
 10
313.99621676039374
 20
114.00000010000002
 10
310.0
 20
114.00000010000002
 10
306.00378323960626
 20
114.00000010000002
 10
302.02060130766216
 20
114.00000010000002
 10
298.06344651571635
 20
114.00000010000002
 10
294.1452262801965
 20
114.00000010000002
 10
290.27872102109995
 20
114.00000010000002
 10
286.47654247491994
 20
114.00000010000002
 10
282.7510925577826
 20
114.00000010000002
 10
279.1145229129745
 20
114.00000010000002
 10
275.5786952748078
 20
114.00000010000002
 10
272.1551427781082
 20
114.00000010000002
 10
268.85503233952693
 20
114.00000010000002
 10
265.6891282333791
 20
114.00000010000002
 10
262.66775698081864
 20
114.00000010000002
 10
259.80077366687254
 20
114.00000010000002
 10
257.0975297952019
 20
114.00000010000002
 10
254.56684278544077
 20
114.00000010000002
 10
252.21696721260585
 20
114.00000010000002
 10
250.0555678823888
 20
114.00000010000002
 10
248.089694830153
 20
114.00000010000002
 10
246.3257603251837
 20
114.00000010000002
 10
244.76951795519832
 20
114.00000010000002
 10
243.42604385933925
 20
114.00000010000002
 10
242.299720170863
 20
114.00000010000002
 10
241.39422072353247
 20
114.00000010000002
 10
240.7124990683347
 20
114.00000010000002
 10
240.25677883961163
 20
114.00000010000002
 10
240.02854650202676
 20
114.00000010000002
 10
240.02854650202676
 20
114.00000010000002
 10
240.25677883961163
 20
114.00000010000002
 10
240.7124990683347
 20
114.00000010000002
 10
241.39422072353244
 20
114.00000010000002
 10
242.299720170863
 20
114.00000010000002
 10
243.42604385933925
 20
114.00000010000002
 10
244.7695179551983
 20
114.00000010000002
 10
246.3257603251837
 20
114.00000010000002
 10
248.089694830153
 20
114.00000010000002
 10
250.05556788238874
 20
114.00000010000002
 10
252.21696721260582
 20
114.00000010000002
 10
254.5668427854407
 20
114.00000010000002
 10
257.0975297952019
 20
114.00000010000002
 10
259.8007736668725
 20
114.00000010000002
 10
262.6677569808186
 20
114.00000010000002
 10
265.68912823337905
 20
114.00000010000002
 10
268.8550323395269
 20
114.00000010000002
 10
272.15514277810814
 20
114.00000010000002
 10
275.5786952748077
 20
114.00000010000002
 10
279.1145229129745
 20
114.00000010000002
 10
282.7510925577826
 20
114.00000010000002
 10
286.4765424749199
 20
114.00000010000002
 10
290.2787210210999
 20
114.00000010000002
 10
294.14522628019654
 20
114.00000010000002
 10
298.06344651571635
 20
114.00000010000002
 10
302.02060130766216
 20
114.00000010000002
 10
306.00378323960626
 20
114.00000010000002
 10
310.0
 20
114.00000010000002
  0
LWPOLYLINE
  5
BC
330
17
100
AcDbEntity
  8
YZ
100
AcDbPolyline
 90
16
 70
0
 10
310.0
 20
40.50000010000002
 10
307.76044039328434
 20
40.02338270207514
 10
305.91304502423236
 20
38.680597753665666
 10
304.76999119522895
 20
36.7020600174439
 10
304.53024628802245
 20
34.42398418984902
 10
305.23802555789337
 20
32.24798274956436
 10
306.7658416448302
 20
30.5513801194964
 10
308.85448865492606
 20
29.620613175548783
 10
311.1455113455588
 20
29.620613166530575
 10
313.2341583551874
 20
30.55138011950919
 10
314.7619744421175
 20
32.24798274958323
 10
315.4697537141785
 20
34.423984189557416
 10
315.2300088041011
 20
36.702060017192764
 10
314.0869549754023
 20
38.68059775349451
 10
312.23955960661146
 20
40.02338270212158
 10
310.0
 20
40.50000010000002
  0
LWPOLYLINE
  5
BD
330
17
100
AcDbEntity
  8
YZ
100
AcDbPolyline
 90
16
 70
0
 10
310.0
 20
95.50000010000002
 10
307.7604403932919
 20
95.0233827020785
 10
305.9130450245326
 20
93.6805977534222
 10
304.76999119520804
 20
91.70206001737978
 10
304.5302462880286
 20
89.42398418979008
 10
305.2380255579171
 20
87.24798274942304
 10
306.7658416449457
 20
85.55138011941244
 10
308.85448865489326
 20
84.6206131750157
 10
311.1455113456184
 20
84.62061316654331
 10
313.2341583552276
 20
85.55138011953841
 10
314.7619744421901
 20
87.24798274960858
 10
315.4697537141925
 20
89.4239841896906
 10
315.2300088040622
 20
91.70206001731202
 10
314.08695497567487
 20
93.68059775376867
 10
312.2395596066039
 20
95.02338270212499
 10
310.0
 20
95.50000010000002
  0
LWPOLYLINE
  5
BE
330
17
100
AcDbEntity
  8
YZ
100
AcDbPolyline
 90
2
 70
0
 10
310.0
 20
120.00000010000002
 10
310.0
 20
95.50000010000002
  0
LWPOLYLINE
  5
BF
330
17
100
AcDbEntity
  8
YZ
100
AcDbPolyline
 90
50
 70
0
 10
310.0
 20
120.00000010000002
 10
313.96419201221966
 20
120.00000010000002
 10
317.8632921011947
 20
120.00000010000002
 10
321.6332771512606
 20
120.00000010000002
 10
325.2122441121221
 20
120.00000010000002
 10
328.54142644522767
 20
120.00000010000002
 10
331.5661590687081
 20
120.00000010000002
 10
334.23677595650895
 20
120.00000010000002
 10
336.50942565316575
 20
120.00000010000002
 10
338.3467913134902
 20
120.00000010000002
 10
339.7187034441365
 20
120.00000010000002
 10
340.60263528584795
 20
120.00000010000002
 10
340.98407270222134
 20
120.00000010000002
 10
340.85675250142515
 20
120.00000010000002
 10
340.22276527763654
 20
120.00000010000002
 10
339.0925210835426
 20
120.00000010000002
 10
337.484578497563
 20
120.00000010000002
 10
335.42533989250563
 20
120.00000010000002
 10
332.94861790933476
 20
120.00000010000002
 10
330.0950802545415
 20
120.00000010000002
 10
326.911581937527
 20
120.00000010000002
 10
323.45039591264435
 20
120.00000010000002
 10
319.76835475873224
 20
120.00000010000002
 10
315.9259174897426
 20
120.00000010000002
 10
311.9861768194021
 20
120.00000010000002
 10
308.0138231805979
 20
120.00000010000002
 10
304.0740825102575
 20
120.00000010000002
 10
300.23164524126776
 20
120.00000010000002
 10
296.5496040873557
 20
120.00000010000002
 10
293.088418062473
 20
120.00000010000002
 10
289.9049197454585
 20
120.00000010000002
 10
287.05138209066524
 20
120.00000010000002
 10
284.57466010749437
 20
120.00000010000002
 10
282.515421502437
 20
120.00000010000002
 10
280.9074789164574
 20
120.00000010000002
 10
279.77723472236346
 20
120.00000010000002
 10
279.14324749857485
 20
120.00000010000002
 10
279.01592729777866
 20
120.00000010000002
 10
279.39736471415205
 20
120.00000010000002
 10
280.2812965558635
 20
120.00000010000002
 10
281.6532086865098
 20
120.00000010000002
 10
283.49057434683425
 20
120.00000010000002
 10
285.76322404349105
 20
120.00000010000002
 10
288.4338409312919
 20
120.00000010000002
 10
291.45857355477233
 20
120.00000010000002
 10
294.7877558878779
 20
120.00000010000002
 10
298.3667228487394
 20
120.00000010000002
 10
302.13670789880524
 20
120.00000010000002
 10
306.0358079877803
 20
120.00000010000002
 10
310.0
 20
120.00000010000002
  0
LWPOLYLINE
  5
C0
330
17
100
AcDbEntity
  8
YZ
100
AcDbPolyline
 90
2
 70
0
 10
310.0
 20
40.50000010000002
 10
310.0
 20
84.50000010000002
  0
LWPOLYLINE
  5
C1
330
17
100
AcDbEntity
  8
YZ
100
AcDbPolyline
 90
2
 70
0
 10
310.0
 20
1.0000002248489182e-07
 10
310.0
 20
29.500000100000022
  0
LWPOLYLINE
  5
C2
330
17
100
AcDbEntity
  8
YZ
100
AcDbPolyline
 90
111
 70
0
 10
310.0
 20
120.00000010000002
 10
313.99621676039374
 20
120.00000010000002
 10
317.97939869233784
 20
120.00000010000002
 10
321.93655348428365
 20
120.00000010000002
 10
325.8547737198035
 20
120.00000010000002
 10
329.72127897890005
 20
120.00000010000002
 10
333.5234575250801
 20
120.00000010000002
 10
337.2489074422174
 20
120.00000010000002
 10
340.8854770870255
 20
120.00000010000002
 10
344.4213047251923
 20
120.00000010000002
 10
347.84485722189186
 20
120.00000010000002
 10
351.1449676604731
 20
120.00000010000002
 10
354.31087176662095
 20
120.00000010000002
 10
357.33224301918136
 20
120.00000010000002
 10
360.1992263331274
 20
120.00000010000002
 10
362.9024702047981
 20
120.00000010000002
 10
365.4331572145593
 20
120.00000010000002
 10
367.7830327873942
 20
120.00000010000002
 10
369.9444321176112
 20
120.00000010000002
 10
371.910305169847
 20
120.00000010000002
 10
373.67423967481625
 20
120.00000010000002
 10
375.23048204480165
 20
120.00000010000002
 10
376.57395614066075
 20
120.00000010000002
 10
377.700279829137
 20
120.00000010000002
 10
378.6057792764675
 20
120.00000010000002
 10
379.2875009316653
 20
120.00000010000002
 10
379.7432211603884
 20
120.00000010000002
 10
379.97145349797324
 20
120.00000010000002
 10
379.97145349797324
 20
120.00000010000002
 10
379.74322116038843
 20
120.00000010000002
 10
379.2875009316653
 20
120.00000010000002
 10
378.60577927646756
 20
120.00000010000002
 10
377.700279829137
 20
120.00000010000002
 10
376.57395614066075
 20
120.00000010000002
 10
375.23048204480165
 20
120.00000010000002
 10
373.6742396748163
 20
120.00000010000002
 10
371.910305169847
 20
120.00000010000002
 10
369.9444321176112
 20
120.00000010000002
 10
367.7830327873942
 20
120.00000010000002
 10
365.4331572145593
 20
120.00000010000002
 10
362.9024702047981
 20
120.00000010000002
 10
360.19922633312746
 20
120.00000010000002
 10
357.33224301918136
 20
120.00000010000002
 10
354.31087176662095
 20
120.00000010000002
 10
351.1449676604731
 20
120.00000010000002
 10
347.84485722189186
 20
120.00000010000002
 10
344.4213047251923
 20
120.00000010000002
 10
340.8854770870255
 20
120.00000010000002
 10
337.24890744221744
 20
120.00000010000002
 10
333.5234575250801
 20
120.00000010000002
 10
329.7212789789001
 20
120.00000010000002
 10
325.8547737198035
 20
120.00000010000002
 10
321.93655348428365
 20
120.00000010000002
 10
317.97939869233784
 20
120.00000010000002
 10
313.99621676039374
 20
120.00000010000002
 10
310.0
 20
120.00000010000002
 10
306.00378323960626
 20
120.00000010000002
 10
302.02060130766216
 20
120.00000010000002
 10
298.06344651571635
 20
120.00000010000002
 10
294.1452262801965
 20
120.00000010000002
 10
290.27872102109995
 20
120.00000010000002
 10
286.47654247491994
 20
120.00000010000002
 10
282.7510925577826
 20
120.00000010000002
 10
279.1145229129745
 20
120.00000010000002
 10
275.5786952748078
 20
120.00000010000002
 10
272.1551427781082
 20
120.00000010000002
 10
268.85503233952693
 20
120.00000010000002
 10
265.6891282333791
 20
120.00000010000002
 10
262.66775698081864
 20
120.00000010000002
 10
259.80077366687254
 20
120.00000010000002
 10
257.0975297952019
 20
120.00000010000002
 10
254.56684278544077
 20
120.00000010000002
 10
252.21696721260585
 20
120.00000010000002
 10
250.0555678823888
 20
120.00000010000002
 10
248.089694830153
 20
120.00000010000002
 10
246.3257603251837
 20
120.00000010000002
 10
244.76951795519832
 20
120.00000010000002
 10
243.42604385933925
 20
120.00000010000002
 10
242.299720170863
 20
120.00000010000002
 10
241.39422072353247
 20
120.00000010000002
 10
240.7124990683347
 20
120.00000010000002
 10
240.25677883961163
 20
120.00000010000002
 10
240.02854650202676
 20
120.00000010000002
 10
240.02854650202676
 20
120.00000010000002
 10
240.25677883961163
 20
120.00000010000002
 10
240.7124990683347
 20
120.00000010000002
 10
241.39422072353244
 20
120.00000010000002
 10
242.299720170863
 20
120.00000010000002
 10
243.42604385933925
 20
120.00000010000002
 10
244.7695179551983
 20
120.00000010000002
 10
246.3257603251837
 20
120.00000010000002
 10
248.089694830153
 20
120.00000010000002
 10
250.05556788238874
 20
120.00000010000002
 10
252.21696721260582
 20
120.00000010000002
 10
254.5668427854407
 20
120.00000010000002
 10
257.0975297952019
 20
120.00000010000002
 10
259.8007736668725
 20
120.00000010000002
 10
262.6677569808186
 20
120.00000010000002
 10
265.68912823337905
 20
120.00000010000002
 10
268.8550323395269
 20
120.00000010000002
 10
272.15514277810814
 20
120.00000010000002
 10
275.5786952748077
 20
120.00000010000002
 10
279.1145229129745
 20
120.00000010000002
 10
282.7510925577826
 20
120.00000010000002
 10
286.4765424749199
 20
120.00000010000002
 10
290.2787210210999
 20
120.00000010000002
 10
294.14522628019654
 20
120.00000010000002
 10
298.06344651571635
 20
120.00000010000002
 10
302.02060130766216
 20
120.00000010000002
 10
306.00378323960626
 20
120.00000010000002
 10
310.0
 20
120.00000010000002
  0
LWPOLYLINE
  5
C3
330
17
100
AcDbEntity
  8
YZ
100
AcDbPolyline
 90
2
 70
0
 10
310.0
 20
114.00000010000002
 10
310.0
 20
120.00000010000002
  0
DIMENSION
  5
C4
330
17
100
AcDbEntity
  8
DIMENSIONS
100
AcDbDimension
280
0
  2
*D5
  3
Standard
 10
240.0
 20
-24.0
 30
0.0
 11
310.0
 21
-24.0
 31
0.0
 70
32
 71
5
  1
<>
100
AcDbAlignedDimension
 13
240.0
 23
0.0
 33
0.0
 14
380.0
 24
0.0
 34
0.0
 50
0.0
100
AcDbRotatedDimension
1001
ACAD
1000
DSTYLE
1002
{
1070
140
1040
3.0
1070
41
1040
3.0
1070
271
1070
3
1002
}
  0
DIMENSION
  5
D4
330
17
100
AcDbEntity
  8
DIMENSIONS
100
AcDbDimension
280
0
  2
*D6
  3
Standard
 10
216.0
 20
0.0
 30
0.0
 11
216.0
 21
60.00000010000002
 31
0.0
 70
32
 71
5
  1
<>
100
AcDbAlignedDimension
 13
240.0
 23
0.0
 33
0.0
 14
240.0
 24
120.00000020000004
 34
0.0
 50
90.0
100
AcDbRotatedDimension
1001
ACAD
1000
DSTYLE
1002
{
1070
140
1040
3.0
1070
41
1040
3.0
1070
271
1070
3
1002
}
  0
TEXT
  5
E4
330
17
100
AcDbEntity
  8
NOTES
100
AcDbText
 10
0.0
 20
0.0
 30
0.0
 40
3.0
  1
SURFACE-V3 / mm / NON-ADOPTED DIGITAL CANDIDATE / NOT FOR FABRICATION
100
AcDbText
  0
TEXT
  5
E5
330
17
100
AcDbEntity
  8
NOTES
100
AcDbText
 10
0.0
 20
-6.0
 30
0.0
 40
3.0
  1
Orthographic wireframe; curves sampled. Source STEP owns geometry. Allocations are not hardware.
100
AcDbText
  0
ENDSEC
  0
SECTION
  2
OBJECTS
  0
DICTIONARY
  5
A
330
0
100
AcDbDictionary
281
1
  3
ACAD_COLOR
350
B
  3
ACAD_GROUP
350
C
  3
ACAD_LAYOUT
350
D
  3
ACAD_MATERIAL
350
E
  3
ACAD_MLEADERSTYLE
350
F
  3
ACAD_MLINESTYLE
350
10
  3
ACAD_PLOTSETTINGS
350
11
  3
ACAD_PLOTSTYLENAME
350
12
  3
ACAD_SCALELIST
350
14
  3
ACAD_TABLESTYLE
350
15
  3
ACAD_VISUALSTYLE
350
16
  3
EZDXF_META
350
2D
  0
DICTIONARY
  5
B
330
A
100
AcDbDictionary
281
1
  0
DICTIONARY
  5
C
330
A
100
AcDbDictionary
281
1
  0
DICTIONARY
  5
D
330
A
100
AcDbDictionary
281
1
  3
Model
350
1A
  3
Layout1
350
1E
  0
DICTIONARY
  5
E
330
A
100
AcDbDictionary
281
1
  3
ByBlock
350
1F
  3
ByLayer
350
20
  3
Global
350
21
  0
DICTIONARY
  5
F
330
A
100
AcDbDictionary
281
1
  3
Standard
350
2C
  0
DICTIONARY
  5
10
330
A
100
AcDbDictionary
281
1
  3
Standard
350
22
  0
DICTIONARY
  5
11
330
A
100
AcDbDictionary
281
1
  0
ACDBDICTIONARYWDFLT
  5
12
330
A
100
AcDbDictionary
281
1
  3
Normal
350
13
100
AcDbDictionaryWithDefault
340
13
  0
ACDBPLACEHOLDER
  5
13
330
12
  0
DICTIONARY
  5
14
330
A
100
AcDbDictionary
281
1
  0
DICTIONARY
  5
15
330
A
100
AcDbDictionary
281
1
  0
DICTIONARY
  5
16
330
A
100
AcDbDictionary
281
1
  0
LAYOUT
  5
1A
330
D
100
AcDbPlotSettings
  1

  4
A3
  6

 40
7.5
 41
20.0
 42
7.5
 43
20.0
 44
420.0
 45
297.0
 46
0.0
 47
0.0
 48
0.0
 49
0.0
140
0.0
141
0.0
142
1.0
143
1.0
 70
1024
 72
1
 73
0
 74
5
  7

 75
16
 76
0
 77
2
 78
300
147
1.0
148
0.0
149
0.0
100
AcDbLayout
  1
Model
 70
1
 71
0
 10
0.0
 20
0.0
 11
420.0
 21
297.0
 12
0.0
 22
0.0
 32
0.0
 14
1e+20
 24
1e+20
 34
1e+20
 15
-1e+20
 25
-1e+20
 35
-1e+20
146
0.0
 13
0.0
 23
0.0
 33
0.0
 16
1.0
 26
0.0
 36
0.0
 17
0.0
 27
1.0
 37
0.0
 76
1
330
17
  0
LAYOUT
  5
1E
330
D
100
AcDbPlotSettings
  1

  4
A3
  6

 40
7.5
 41
20.0
 42
7.5
 43
20.0
 44
420.0
 45
297.0
 46
0.0
 47
0.0
 48
0.0
 49
0.0
140
0.0
141
0.0
142
1.0
143
1.0
 70
0
 72
1
 73
0
 74
5
  7

 75
16
 76
0
 77
2
 78
300
147
1.0
148
0.0
149
0.0
100
AcDbLayout
  1
Layout1
 70
1
 71
1
 10
0.0
 20
0.0
 11
420.0
 21
297.0
 12
0.0
 22
0.0
 32
0.0
 14
1e+20
 24
1e+20
 34
1e+20
 15
-1e+20
 25
-1e+20
 35
-1e+20
146
0.0
 13
0.0
 23
0.0
 33
0.0
 16
1.0
 26
0.0
 36
0.0
 17
0.0
 27
1.0
 37
0.0
 76
1
330
1B
  0
MATERIAL
  5
1F
102
{ACAD_REACTORS
330
E
102
}
330
E
100
AcDbMaterial
  1
ByBlock
  2

 70
0
 40
1.0
 71
1
 41
1.0
 91
-1023410177
 42
1.0
 72
1
  3

 73
1
 74
1
 75
1
 44
0.5
 73
0
 45
1.0
 46
1.0
 77
1
  4

 78
1
 79
1
170
1
 48
1.0
171
1
  6

172
1
173
1
174
1
140
1.0
141
1.0
175
1
  7

176
1
177
1
178
1
143
1.0
179
1
  8

270
1
271
1
272
1
145
1.0
146
1.0
273
1
  9

274
1
275
1
276
1
 42
1.0
 72
1
  3

 73
1
 74
1
 75
1
 94
63
  0
MATERIAL
  5
20
102
{ACAD_REACTORS
330
E
102
}
330
E
100
AcDbMaterial
  1
ByLayer
  2

 70
0
 40
1.0
 71
1
 41
1.0
 91
-1023410177
 42
1.0
 72
1
  3

 73
1
 74
1
 75
1
 44
0.5
 73
0
 45
1.0
 46
1.0
 77
1
  4

 78
1
 79
1
170
1
 48
1.0
171
1
  6

172
1
173
1
174
1
140
1.0
141
1.0
175
1
  7

176
1
177
1
178
1
143
1.0
179
1
  8

270
1
271
1
272
1
145
1.0
146
1.0
273
1
  9

274
1
275
1
276
1
 42
1.0
 72
1
  3

 73
1
 74
1
 75
1
 94
63
  0
MATERIAL
  5
21
102
{ACAD_REACTORS
330
E
102
}
330
E
100
AcDbMaterial
  1
Global
  2

 70
0
 40
1.0
 71
1
 41
1.0
 91
-1023410177
 42
1.0
 72
1
  3

 73
1
 74
1
 75
1
 44
0.5
 73
0
 45
1.0
 46
1.0
 77
1
  4

 78
1
 79
1
170
1
 48
1.0
171
1
  6

172
1
173
1
174
1
140
1.0
141
1.0
175
1
  7

176
1
177
1
178
1
143
1.0
179
1
  8

270
1
271
1
272
1
145
1.0
146
1.0
273
1
  9

274
1
275
1
276
1
 42
1.0
 72
1
  3

 73
1
 74
1
 75
1
 94
63
  0
MLINESTYLE
  5
22
102
{ACAD_REACTORS
330
10
102
}
330
10
100
AcDbMlineStyle
  2
Standard
 70
0
  3

 62
256
 51
90.0
 52
90.0
 71
2
 49
0.5
 62
256
  6
BYLAYER
 49
-0.5
 62
256
  6
BYLAYER
  0
MLEADERSTYLE
  5
2C
102
{ACAD_REACTORS
330
F
102
}
330
F
100
AcDbMLeaderStyle
179
2
170
2
171
1
172
0
 90
2
 40
0.0
 41
0.0
173
1
 91
-1056964608
 92
-2
290
1
 42
2.0
291
1
 43
8.0
  3
Standard
 44
4.0
300

342
29
174
1
175
1
176
0
178
1
 93
-1056964608
 45
4.0
292
0
297
0
 46
4.0
 94
-1056964608
 47
1.0
 49
1.0
140
1.0
294
1
141
0.0
177
0
142
1.0
295
0
296
0
143
3.75
271
0
272
9
273
9
  0
DICTIONARY
  5
2D
330
A
100
AcDbDictionary
280
1
281
1
  3
CREATED_BY_EZDXF
350
2E
  3
WRITTEN_BY_EZDXF
350
E8
  0
DICTIONARYVAR
  5
2E
330
2D
100
DictionaryVariables
280
0
  1
1.4.3 @ 2026-09-27T12:50:51.007919+00:00
  0
DICTIONARYVAR
  5
E8
330
2D
100
DictionaryVariables
280
0
  1
1.4.3 @ 2026-09-27T12:50:51.039853+00:00
  0
ENDSEC
  0
EOF
