  0
SECTION
  2
HEADER
  9
$ACADVER
  1
AC1032
  9
$ACADMAINTVER
 90
4
  9
$DWGCODEPAGE
  3
ANSI_1252
  9
$LASTSAVEDBY
  1
ezdxf
  9
$REQUIREDVERSIONS
160
0
  9
$INSBASE
 10
0.0
 20
0.0
 30
0.0
  9
$EXTMIN
 10
1e+20
 20
1e+20
 30
1e+20
  9
$EXTMAX
 10
-1e+20
 20
-1e+20
 30
-1e+20
  9
$LIMMIN
 10
0.0
 20
0.0
  9
$LIMMAX
 10
420.0
 20
297.0
  9
$ORTHOMODE
 70
0
  9
$REGENMODE
 70
1
  9
$FILLMODE
 70
1
  9
$QTEXTMODE
 70
0
  9
$MIRRTEXT
 70
1
  9
$LTSCALE
 40
1.0
  9
$ATTMODE
 70
1
  9
$TEXTSIZE
 40
2.5
  9
$TRACEWID
 40
1.0
  9
$TEXTSTYLE
  7
Standard
  9
$CLAYER
  8
0
  9
$CELTYPE
  6
ByLayer
  9
$CECOLOR
 62
256
  9
$CELTSCALE
 40
1.0
  9
$DISPSILH
 70
0
  9
$DIMSCALE
 40
1.0
  9
$DIMASZ
 40
2.5
  9
$DIMEXO
 40
0.625
  9
$DIMDLI
 40
3.75
  9
$DIMRND
 40
0.0
  9
$DIMDLE
 40
0.0
  9
$DIMEXE
 40
1.25
  9
$DIMTP
 40
0.0
  9
$DIMTM
 40
0.0
  9
$DIMTXT
 40
2.5
  9
$DIMCEN
 40
2.5
  9
$DIMTSZ
 40
0.0
  9
$DIMTOL
 70
0
  9
$DIMLIM
 70
0
  9
$DIMTIH
 70
0
  9
$DIMTOH
 70
0
  9
$DIMSE1
 70
0
  9
$DIMSE2
 70
0
  9
$DIMTAD
 70
1
  9
$DIMZIN
 70
8
  9
$DIMBLK
  1

  9
$DIMASO
 70
1
  9
$DIMSHO
 70
1
  9
$DIMPOST
  1

  9
$DIMAPOST
  1

  9
$DIMALT
 70
0
  9
$DIMALTD
 70
3
  9
$DIMALTF
 40
0.03937007874
  9
$DIMLFAC
 40
1.0
  9
$DIMTOFL
 70
1
  9
$DIMTVP
 40
0.0
  9
$DIMTIX
 70
0
  9
$DIMSOXD
 70
0
  9
$DIMSAH
 70
0
  9
$DIMBLK1
  1

  9
$DIMBLK2
  1

  9
$DIMSTYLE
  2
ISO-25
  9
$DIMCLRD
 70
0
  9
$DIMCLRE
 70
0
  9
$DIMCLRT
 70
0
  9
$DIMTFAC
 40
1.0
  9
$DIMGAP
 40
0.625
  9
$DIMJUST
 70
0
  9
$DIMSD1
 70
0
  9
$DIMSD2
 70
0
  9
$DIMTOLJ
 70
0
  9
$DIMTZIN
 70
8
  9
$DIMALTZ
 70
0
  9
$DIMALTTZ
 70
0
  9
$DIMUPT
 70
0
  9
$DIMDEC
 70
2
  9
$DIMTDEC
 70
2
  9
$DIMALTU
 70
2
  9
$DIMALTTD
 70
3
  9
$DIMTXSTY
  7
Standard
  9
$DIMAUNIT
 70
0
  9
$DIMADEC
 70
0
  9
$DIMALTRND
 40
0.0
  9
$DIMAZIN
 70
0
  9
$DIMDSEP
 70
44
  9
$DIMATFIT
 70
3
  9
$DIMFRAC
 70
0
  9
$DIMLDRBLK
  1

  9
$DIMLUNIT
 70
2
  9
$DIMLWD
 70
-2
  9
$DIMLWE
 70
-2
  9
$DIMTMOVE
 70
0
  9
$DIMFXL
 40
1.0
  9
$DIMFXLON
 70
0
  9
$DIMJOGANG
 40
0.785398163397
  9
$DIMTFILL
 70
0
  9
$DIMTFILLCLR
 70
0
  9
$DIMARCSYM
 70
0
  9
$DIMLTYPE
  6

  9
$DIMLTEX1
  6

  9
$DIMLTEX2
  6

  9
$DIMTXTDIRECTION
 70
0
  9
$LUNITS
 70
2
  9
$LUPREC
 70
4
  9
$SKETCHINC
 40
1.0
  9
$FILLETRAD
 40
10.0
  9
$AUNITS
 70
0
  9
$AUPREC
 70
2
  9
$MENU
  1
.
  9
$ELEVATION
 40
0.0
  9
$PELEVATION
 40
0.0
  9
$THICKNESS
 40
0.0
  9
$LIMCHECK
 70
0
  9
$CHAMFERA
 40
0.0
  9
$CHAMFERB
 40
0.0
  9
$CHAMFERC
 40
0.0
  9
$CHAMFERD
 40
0.0
  9
$SKPOLY
 70
0
  9
$TDCREATE
 40
2461311.6186342593
  9
$TDUCREATE
 40
2458532.153996898
  9
$TDUPDATE
 40
2461311.6186342593
  9
$TDUUPDATE
 40
2458532.1544311
  9
$TDINDWG
 40
0.0
  9
$TDUSRTIMER
 40
0.0
  9
$USRTIMER
 70
1
  9
$ANGBASE
 50
0.0
  9
$ANGDIR
 70
0
  9
$PDMODE
 70
0
  9
$PDSIZE
 40
0.0
  9
$PLINEWID
 40
0.0
  9
$SPLFRAME
 70
0
  9
$SPLINETYPE
 70
6
  9
$SPLINESEGS
 70
8
  9
$HANDSEED
  5
CF
  9
$SURFTAB1
 70
6
  9
$SURFTAB2
 70
6
  9
$SURFTYPE
 70
6
  9
$SURFU
 70
6
  9
$SURFV
 70
6
  9
$UCSBASE
  2

  9
$UCSNAME
  2

  9
$UCSORG
 10
0.0
 20
0.0
 30
0.0
  9
$UCSXDIR
 10
1.0
 20
0.0
 30
0.0
  9
$UCSYDIR
 10
0.0
 20
1.0
 30
0.0
  9
$UCSORTHOREF
  2

  9
$UCSORTHOVIEW
 70
0
  9
$UCSORGTOP
 10
0.0
 20
0.0
 30
0.0
  9
$UCSORGBOTTOM
 10
0.0
 20
0.0
 30
0.0
  9
$UCSORGLEFT
 10
0.0
 20
0.0
 30
0.0
  9
$UCSORGRIGHT
 10
0.0
 20
0.0
 30
0.0
  9
$UCSORGFRONT
 10
0.0
 20
0.0
 30
0.0
  9
$UCSORGBACK
 10
0.0
 20
0.0
 30
0.0
  9
$PUCSBASE
  2

  9
$PUCSNAME
  2

  9
$PUCSORG
 10
0.0
 20
0.0
 30
0.0
  9
$PUCSXDIR
 10
1.0
 20
0.0
 30
0.0
  9
$PUCSYDIR
 10
0.0
 20
1.0
 30
0.0
  9
$PUCSORTHOREF
  2

  9
$PUCSORTHOVIEW
 70
0
  9
$PUCSORGTOP
 10
0.0
 20
0.0
 30
0.0
  9
$PUCSORGBOTTOM
 10
0.0
 20
0.0
 30
0.0
  9
$PUCSORGLEFT
 10
0.0
 20
0.0
 30
0.0
  9
$PUCSORGRIGHT
 10
0.0
 20
0.0
 30
0.0
  9
$PUCSORGFRONT
 10
0.0
 20
0.0
 30
0.0
  9
$PUCSORGBACK
 10
0.0
 20
0.0
 30
0.0
  9
$USERI1
 70
0
  9
$USERI2
 70
0
  9
$USERI3
 70
0
  9
$USERI4
 70
0
  9
$USERI5
 70
0
  9
$USERR1
 40
0.0
  9
$USERR2
 40
0.0
  9
$USERR3
 40
0.0
  9
$USERR4
 40
0.0
  9
$USERR5
 40
0.0
  9
$WORLDVIEW
 70
1
  9
$SHADEDGE
 70
3
  9
$SHADEDIF
 70
70
  9
$TILEMODE
 70
1
  9
$MAXACTVP
 70
64
  9
$PINSBASE
 10
0.0
 20
0.0
 30
0.0
  9
$PLIMCHECK
 70
0
  9
$PEXTMIN
 10
1e+20
 20
1e+20
 30
1e+20
  9
$PEXTMAX
 10
-1e+20
 20
-1e+20
 30
-1e+20
  9
$PLIMMIN
 10
0.0
 20
0.0
  9
$PLIMMAX
 10
420.0
 20
297.0
  9
$UNITMODE
 70
0
  9
$VISRETAIN
 70
1
  9
$PLINEGEN
 70
0
  9
$PSLTSCALE
 70
1
  9
$TREEDEPTH
 70
3020
  9
$CMLSTYLE
  2
Standard
  9
$CMLJUST
 70
0
  9
$CMLSCALE
 40
20.0
  9
$PROXYGRAPHICS
 70
1
  9
$MEASUREMENT
 70
1
  9
$CELWEIGHT
370
-1
  9
$ENDCAPS
280
0
  9
$JOINSTYLE
280
0
  9
$LWDISPLAY
290
0
  9
$INSUNITS
 70
4
  9
$HYPERLINKBASE
  1

  9
$STYLESHEET
  1

  9
$XEDIT
290
1
  9
$CEPSNTYPE
380
0
  9
$PSTYLEMODE
290
1
  9
$FINGERPRINTGUID
  2
{6209651C-62F4-41B0-B181-F52C3EB672A9}
  9
$VERSIONGUID
  2
{2A8B361D-A078-4AC8-9413-0FD86EA4C6B9}
  9
$EXTNAMES
290
1
  9
$PSVPSCALE
 40
0.0
  9
$OLESTARTUP
290
0
  9
$SORTENTS
280
127
  9
$INDEXCTL
280
0
  9
$HIDETEXT
280
1
  9
$XCLIPFRAME
280
1
  9
$HALOGAP
280
0
  9
$OBSCOLOR
 70
257
  9
$OBSLTYPE
280
0
  9
$INTERSECTIONDISPLAY
280
0
  9
$INTERSECTIONCOLOR
 70
257
  9
$DIMASSOC
280
2
  9
$PROJECTNAME
  1

  9
$CAMERADISPLAY
290
0
  9
$LENSLENGTH
 40
50.0
  9
$CAMERAHEIGHT
 40
0.0
  9
$STEPSPERSEC
 40
24.0
  9
$STEPSIZE
 40
100.0
  9
$3DDWFPREC
 40
2.0
  9
$PSOLWIDTH
 40
0.005
  9
$PSOLHEIGHT
 40
0.08
  9
$LOFTANG1
 40
1.570796326795
  9
$LOFTANG2
 40
1.570796326795
  9
$LOFTMAG1
 40
0.0
  9
$LOFTMAG2
 40
0.0
  9
$LOFTPARAM
 70
7
  9
$LOFTNORMALS
280
1
  9
$LATITUDE
 40
37.795
  9
$LONGITUDE
 40
-122.394
  9
$NORTHDIRECTION
 40
0.0
  9
$TIMEZONE
 70
-8000
  9
$LIGHTGLYPHDISPLAY
280
1
  9
$TILEMODELIGHTSYNCH
280
1
  9
$CMATERIAL
347
20
  9
$SOLIDHIST
280
0
  9
$SHOWHIST
280
1
  9
$DWFFRAME
280
2
  9
$DGNFRAME
280
2
  9
$REALWORLDSCALE
290
1
  9
$INTERFERECOLOR
 62
256
  9
$CSHADOW
280
0
  9
$SHADOWPLANELOCATION
 40
0.0
  0
ENDSEC
  0
SECTION
  2
CLASSES
  0
CLASS
  1
ACDBDICTIONARYWDFLT
  2
AcDbDictionaryWithDefault
  3
ObjectDBX Classes
 90
0
 91
0
280
0
281
0
  0
CLASS
  1
SUN
  2
AcDbSun
  3
SCENEOE
 90
1153
 91
0
280
0
281
0
  0
CLASS
  1
VISUALSTYLE
  2
AcDbVisualStyle
  3
ObjectDBX Classes
 90
4095
 91
0
280
0
281
0
  0
CLASS
  1
MATERIAL
  2
AcDbMaterial
  3
ObjectDBX Classes
 90
1153
 91
0
280
0
281
0
  0
CLASS
  1
SCALE
  2
AcDbScale
  3
ObjectDBX Classes
 90
1153
 91
0
280
0
281
0
  0
CLASS
  1
TABLESTYLE
  2
AcDbTableStyle
  3
ObjectDBX Classes
 90
4095
 91
0
280
0
281
0
  0
CLASS
  1
MLEADERSTYLE
  2
AcDbMLeaderStyle
  3
ACDB_MLEADERSTYLE_CLASS
 90
4095
 91
0
280
0
281
0
  0
CLASS
  1
DICTIONARYVAR
  2
AcDbDictionaryVar
  3
ObjectDBX Classes
 90
0
 91
0
280
0
281
0
  0
CLASS
  1
CELLSTYLEMAP
  2
AcDbCellStyleMap
  3
ObjectDBX Classes
 90
1152
 91
0
280
0
281
0
  0
CLASS
  1
MENTALRAYRENDERSETTINGS
  2
AcDbMentalRayRenderSettings
  3
SCENEOE
 90
1024
 91
0
280
0
281
0
  0
CLASS
  1
ACDBDETAILVIEWSTYLE
  2
AcDbDetailViewStyle
  3
ObjectDBX Classes
 90
1025
 91
0
280
0
281
0
  0
CLASS
  1
ACDBSECTIONVIEWSTYLE
  2
AcDbSectionViewStyle
  3
ObjectDBX Classes
 90
1025
 91
0
280
0
281
0
  0
CLASS
  1
RASTERVARIABLES
  2
AcDbRasterVariables
  3
ISM
 90
0
 91
0
280
0
281
0
  0
CLASS
  1
ACDBPLACEHOLDER
  2
AcDbPlaceHolder
  3
ObjectDBX Classes
 90
0
 91
0
280
0
281
0
  0
CLASS
  1
LAYOUT
  2
AcDbLayout
  3
ObjectDBX Classes
 90
0
 91
0
280
0
281
0
  0
ENDSEC
  0
SECTION
  2
TABLES
  0
TABLE
  2
VPORT
  5
8
330
0
100
AcDbSymbolTable
 70
1
  0
VPORT
  5
23
330
8
100
AcDbSymbolTableRecord
100
AcDbViewportTableRecord
  2
*Active
 70
0
 10
0.0
 20
0.0
 11
1.0
 21
1.0
 12
0.0
 22
0.0
 13
0.0
 23
0.0
 14
0.5
 24
0.5
 15
0.5
 25
0.5
 16
0.0
 26
0.0
 36
1.0
 17
0.0
 27
0.0
 37
0.0
 40
1000.0
 41
1.34
 42
50.0
 43
0.0
 44
0.0
 50
0.0
 51
0.0
 71
0
 72
1000
 73
1
 74
3
 75
0
 76
0
 77
0
 78
0
281
0
 65
0
146
0.0
  0
ENDTAB
  0
TABLE
  2
LTYPE
  5
2
330
0
100
AcDbSymbolTable
 70
3
  0
LTYPE
  5
24
330
2
100
AcDbSymbolTableRecord
100
AcDbLinetypeTableRecord
  2
ByBlock
 70
0
  3

 72
65
 73
0
 40
0.0
  0
LTYPE
  5
25
330
2
100
AcDbSymbolTableRecord
100
AcDbLinetypeTableRecord
  2
ByLayer
 70
0
  3

 72
65
 73
0
 40
0.0
  0
LTYPE
  5
26
330
2
100
AcDbSymbolTableRecord
100
AcDbLinetypeTableRecord
  2
Continuous
 70
0
  3

 72
65
 73
0
 40
0.0
  0
ENDTAB
  0
TABLE
  2
LAYER
  5
1
330
0
100
AcDbSymbolTable
 70
7
  0
LAYER
  5
27
330
1
100
AcDbSymbolTableRecord
100
AcDbLayerTableRecord
  2
0
 70
0
 62
7
  6
Continuous
370
-3
390
13
347
21
  0
LAYER
  5
28
330
1
100
AcDbSymbolTableRecord
100
AcDbLayerTableRecord
  2
Defpoints
 70
0
 62
7
  6
Continuous
290
0
370
-3
390
13
347
21
  0
LAYER
  5
2F
330
1
100
AcDbSymbolTableRecord
100
AcDbLayerTableRecord
  2
XY
 70
0
 62
7
  6
Continuous
370
-3
390
13
347
21
  0
LAYER
  5
30
330
1
100
AcDbSymbolTableRecord
100
AcDbLayerTableRecord
  2
XZ
 70
0
 62
7
  6
Continuous
370
-3
390
13
347
21
  0
LAYER
  5
31
330
1
100
AcDbSymbolTableRecord
100
AcDbLayerTableRecord
  2
YZ
 70
0
 62
7
  6
Continuous
370
-3
390
13
347
21
  0
LAYER
  5
32
330
1
100
AcDbSymbolTableRecord
100
AcDbLayerTableRecord
  2
DIMENSIONS
 70
0
 62
7
  6
Continuous
370
-3
390
13
347
21
  0
LAYER
  5
33
330
1
100
AcDbSymbolTableRecord
100
AcDbLayerTableRecord
  2
NOTES
 70
0
 62
7
  6
Continuous
370
-3
390
13
347
21
  0
ENDTAB
  0
TABLE
  2
STYLE
  5
5
330
0
100
AcDbSymbolTable
 70
1
  0
STYLE
  5
29
330
5
100
AcDbSymbolTableRecord
100
AcDbTextStyleTableRecord
  2
Standard
 70
0
 40
0.0
 41
1.0
 50
0.0
 71
0
 42
2.5
  3
txt
  4

  0
ENDTAB
  0
TABLE
  2
VIEW
  5
7
330
0
100
AcDbSymbolTable
 70
0
  0
ENDTAB
  0
TABLE
  2
UCS
  5
6
330
0
100
AcDbSymbolTable
 70
0
  0
ENDTAB
  0
TABLE
  2
APPID
  5
3
330
0
100
AcDbSymbolTable
 70
3
  0
APPID
  5
2A
330
3
100
AcDbSymbolTableRecord
100
AcDbRegAppTableRecord
  2
ACAD
 70
0
  0
APPID
  5
CC
330
3
100
AcDbSymbolTableRecord
100
AcDbRegAppTableRecord
  2
HATCHBACKGROUNDCOLOR
 70
0
  0
APPID
  5
CD
330
3
100
AcDbSymbolTableRecord
100
AcDbRegAppTableRecord
  2
EZDXF
 70
0
  0
ENDTAB
  0
TABLE
  2
DIMSTYLE
  5
4
330
0
100
AcDbSymbolTable
 70
1
100
AcDbDimStyleTable
  0
DIMSTYLE
105
2B
330
4
100
AcDbSymbolTableRecord
100
AcDbDimStyleTableRecord
  2
Standard
 70
0
 40
1.0
 41
2.5
 42
0.625
 43
3.75
 44
1.25
 45
0.0
 46
0.0
 47
0.0
 48
0.0
 49
2.5
140
2.5
141
2.5
142
0.0
143
0.03937007874
144
1.0
145
0.0
146
1.0
147
0.625
148
0.0
 69
0
 70
0
 71
0
 72
0
 73
0
 74
0
 75
0
 76
0
 77
1
 78
8
 79
3
170
0
171
3
172
1
173
0
174
0
175
0
176
0
177
0
178
0
179
2
271
2
272
2
273
2
274
3
275
0
276
0
277
2
278
44
279
0
280
0
281
0
282
0
283
0
284
8
285
0
286
0
288
0
289
3
290
0
371
-2
372
-2
  0
ENDTAB
  0
TABLE
  2
BLOCK_RECORD
  5
9
330
0
100
AcDbSymbolTable
 70
9
  0
BLOCK_RECORD
  5
17
330
9
100
AcDbSymbolTableRecord
100
AcDbBlockTableRecord
  2
*Model_Space
340
1A
 70
0
280
1
281
0
  0
BLOCK_RECORD
  5
1B
330
9
100
AcDbSymbolTableRecord
100
AcDbBlockTableRecord
  2
*Paper_Space
340
1E
 70
0
280
1
281
0
  0
BLOCK_RECORD
  5
43
330
9
100
AcDbSymbolTableRecord
100
AcDbBlockTableRecord
  2
*D1
340
0
 70
0
280
1
281
0
  0
BLOCK_RECORD
  5
48
330
9
100
AcDbSymbolTableRecord
100
AcDbBlockTableRecord
  2
_CLOSEDFILLED
340
0
 70
0
280
1
281
0
  0
BLOCK_RECORD
  5
57
330
9
100
AcDbSymbolTableRecord
100
AcDbBlockTableRecord
  2
*D2
340
0
 70
0
280
1
281
0
  0
BLOCK_RECORD
  5
78
330
9
100
AcDbSymbolTableRecord
100
AcDbBlockTableRecord
  2
*D3
340
0
 70
0
280
1
281
0
  0
BLOCK_RECORD
  5
88
330
9
100
AcDbSymbolTableRecord
100
AcDbBlockTableRecord
  2
*D4
340
0
 70
0
280
1
281
0
  0
BLOCK_RECORD
  5
AA
330
9
100
AcDbSymbolTableRecord
100
AcDbBlockTableRecord
  2
*D5
340
0
 70
0
280
1
281
0
  0
BLOCK_RECORD
  5
BA
330
9
100
AcDbSymbolTableRecord
100
AcDbBlockTableRecord
  2
*D6
340
0
 70
0
280
1
281
0
  0
ENDTAB
  0
ENDSEC
  0
SECTION
  2
BLOCKS
  0
BLOCK
  5
18
330
17
100
AcDbEntity
  8
0
100
AcDbBlockBegin
  2
*Model_Space
 70
0
 10
0.0
 20
0.0
 30
0.0
  3
*Model_Space
  1

  0
ENDBLK
  5
19
330
17
100
AcDbEntity
  8
0
100
AcDbBlockEnd
  0
BLOCK
  5
1C
330
1B
100
AcDbEntity
  8
0
100
AcDbBlockBegin
  2
*Paper_Space
 70
0
 10
0.0
 20
0.0
 30
0.0
  3
*Paper_Space
  1

  0
ENDBLK
  5
1D
330
1B
100
AcDbEntity
  8
0
100
AcDbBlockEnd
  0
BLOCK
  5
44
330
43
100
AcDbEntity
  8
0
100
AcDbBlockBegin
  2
*D1
 70
1
 10
0.0
 20
0.0
 30
0.0
  3
*D1
  1

  0
LINE
  5
46
330
43
100
AcDbEntity
  8
0
100
AcDbLine
 10
0.0
 20
0.0
 30
0.0
 11
0.0
 21
-24.0
 31
0.0
  0
LINE
  5
47
330
43
100
AcDbEntity
  8
0
100
AcDbLine
 10
720.0
 20
0.0
 30
0.0
 11
720.0
 21
-24.0
 31
0.0
  0
INSERT
  5
4C
330
43
100
AcDbEntity
  8
DIMENSIONS
100
AcDbBlockReference
  2
_CLOSEDFILLED
 10
0.0
 20
-24.0
 30
0.0
 41
3.0
 42
3.0
 50
180.0
  0
INSERT
  5
4E
330
43
100
AcDbEntity
  8
DIMENSIONS
100
AcDbBlockReference
  2
_CLOSEDFILLED
 10
720.0
 20
-24.0
 30
0.0
 41
3.0
 42
3.0
  0
LINE
  5
50
330
43
100
AcDbEntity
  8
0
100
AcDbLine
 10
3.0
 20
-24.0
 30
0.0
 11
355.5
 21
-24.0
 31
0.0
  0
LINE
  5
51
330
43
100
AcDbEntity
  8
0
100
AcDbLine
 10
364.5
 20
-24.0
 30
0.0
 11
717.0
 21
-24.0
 31
0.0
  0
MTEXT
  5
52
330
43
100
AcDbEntity
  8
DIMENSIONS
100
AcDbMText
 10
360.0
 20
-24.0
 30
0.0
 40
3.0
 71
5
  1
720
  0
POINT
  5
53
330
43
100
AcDbEntity
  8
Defpoints
100
AcDbPoint
 10
0.0
 20
-24.0
 30
0.0
  0
POINT
  5
54
330
43
100
AcDbEntity
  8
Defpoints
100
AcDbPoint
 10
0.0
 20
0.0
 30
0.0
  0
POINT
  5
55
330
43
100
AcDbEntity
  8
Defpoints
100
AcDbPoint
 10
720.0
 20
0.0
 30
0.0
  0
ENDBLK
  5
45
330
43
100
AcDbEntity
  8
0
100
AcDbBlockEnd
  0
BLOCK
  5
49
330
48
100
AcDbEntity
  8
0
100
AcDbBlockBegin
  2
_CLOSEDFILLED
 70
0
 10
0.0
 20
0.0
 30
0.0
  3
_CLOSEDFILLED
  1

  0
SOLID
  5
4B
330
48
100
AcDbEntity
  8
0
  6
BYBLOCK
 62
0
100
AcDbTrace
 10
-1.0
 20
0.16439898372402537
 30
0.0
 11
0.0
 21
0.0
 31
0.0
 12
-1.0
 22
-0.16439898372402537
 32
0.0
 13
-1.0
 23
-0.16439898372402537
 33
0.0
  0
ENDBLK
  5
4A
330
48
100
AcDbEntity
  8
0
100
AcDbBlockEnd
  0
BLOCK
  5
58
330
57
100
AcDbEntity
  8
0
100
AcDbBlockBegin
  2
*D2
 70
1
 10
0.0
 20
0.0
 30
0.0
  3
*D2
  1

  0
LINE
  5
5A
330
57
100
AcDbEntity
  8
0
100
AcDbLine
 10
0.0
 20
0.0
 30
0.0
 11
-24.0
 21
0.0
 31
0.0
  0
LINE
  5
5B
330
57
100
AcDbEntity
  8
0
100
AcDbLine
 10
0.0
 20
940.0
 30
0.0
 11
-24.0
 21
940.0
 31
0.0
  0
INSERT
  5
5C
330
57
100
AcDbEntity
  8
DIMENSIONS
100
AcDbBlockReference
  2
_CLOSEDFILLED
 10
-24.0
 20
0.0
 30
0.0
 41
3.0
 42
3.0
 50
270.0
  0
INSERT
  5
5E
330
57
100
AcDbEntity
  8
DIMENSIONS
100
AcDbBlockReference
  2
_CLOSEDFILLED
 10
-24.0
 20
940.0
 30
0.0
 41
3.0
 42
3.0
 50
90.0
  0
LINE
  5
60
330
57
100
AcDbEntity
  8
0
100
AcDbLine
 10
-24.0
 20
3.0
 30
0.0
 11
-24.0
 21
465.5
 31
0.0
  0
LINE
  5
61
330
57
100
AcDbEntity
  8
0
100
AcDbLine
 10
-24.0
 20
474.50000000000006
 30
0.0
 11
-24.0
 21
937.0
 31
0.0
  0
MTEXT
  5
62
330
57
100
AcDbEntity
  8
DIMENSIONS
100
AcDbMText
 10
-24.0
 20
470.0
 30
0.0
 40
3.0
 71
5
  1
940
 50
90.0
  0
POINT
  5
63
330
57
100
AcDbEntity
  8
Defpoints
100
AcDbPoint
 10
-24.0
 20
0.0
 30
0.0
  0
POINT
  5
64
330
57
100
AcDbEntity
  8
Defpoints
100
AcDbPoint
 10
0.0
 20
0.0
 30
0.0
  0
POINT
  5
65
330
57
100
AcDbEntity
  8
Defpoints
100
AcDbPoint
 10
0.0
 20
940.0
 30
0.0
  0
ENDBLK
  5
59
330
57
100
AcDbEntity
  8
0
100
AcDbBlockEnd
  0
BLOCK
  5
79
330
78
100
AcDbEntity
  8
0
100
AcDbBlockBegin
  2
*D3
 70
1
 10
0.0
 20
0.0
 30
0.0
  3
*D3
  1

  0
LINE
  5
7B
330
78
100
AcDbEntity
  8
0
100
AcDbLine
 10
0.0
 20
-104.0
 30
0.0
 11
0.0
 21
-128.0
 31
0.0
  0
LINE
  5
7C
330
78
100
AcDbEntity
  8
0
100
AcDbLine
 10
720.0
 20
-104.0
 30
0.0
 11
720.0
 21
-128.0
 31
0.0
  0
INSERT
  5
7D
330
78
100
AcDbEntity
  8
DIMENSIONS
100
AcDbBlockReference
  2
_CLOSEDFILLED
 10
0.0
 20
-128.0
 30
0.0
 41
3.0
 42
3.0
 50
180.0
  0
INSERT
  5
7F
330
78
100
AcDbEntity
  8
DIMENSIONS
100
AcDbBlockReference
  2
_CLOSEDFILLED
 10
720.0
 20
-128.0
 30
0.0
 41
3.0
 42
3.0
  0
LINE
  5
81
330
78
100
AcDbEntity
  8
0
100
AcDbLine
 10
3.0
 20
-128.0
 30
0.0
 11
355.5
 21
-128.0
 31
0.0
  0
LINE
  5
82
330
78
100
AcDbEntity
  8
0
100
AcDbLine
 10
364.5
 20
-128.0
 30
0.0
 11
717.0
 21
-128.0
 31
0.0
  0
MTEXT
  5
83
330
78
100
AcDbEntity
  8
DIMENSIONS
100
AcDbMText
 10
360.0
 20
-128.0
 30
0.0
 40
3.0
 71
5
  1
720
  0
POINT
  5
84
330
78
100
AcDbEntity
  8
Defpoints
100
AcDbPoint
 10
0.0
 20
-128.0
 30
0.0
  0
POINT
  5
85
330
78
100
AcDbEntity
  8
Defpoints
100
AcDbPoint
 10
0.0
 20
-104.0
 30
0.0
  0
POINT
  5
86
330
78
100
AcDbEntity
  8
Defpoints
100
AcDbPoint
 10
720.0
 20
-104.0
 30
0.0
  0
ENDBLK
  5
7A
330
78
100
AcDbEntity
  8
0
100
AcDbBlockEnd
  0
BLOCK
  5
89
330
88
100
AcDbEntity
  8
0
100
AcDbBlockBegin
  2
*D4
 70
1
 10
0.0
 20
0.0
 30
0.0
  3
*D4
  1

  0
LINE
  5
8B
330
88
100
AcDbEntity
  8
0
100
AcDbLine
 10
0.0
 20
-104.0
 30
0.0
 11
-24.0
 21
-104.0
 31
0.0
  0
LINE
  5
8C
330
88
100
AcDbEntity
  8
0
100
AcDbLine
 10
0.0
 20
-100.0
 30
0.0
 11
-24.0
 21
-100.0
 31
0.0
  0
INSERT
  5
8D
330
88
100
AcDbEntity
  8
DIMENSIONS
100
AcDbBlockReference
  2
_CLOSEDFILLED
 10
-24.0
 20
-104.0
 30
0.0
 41
3.0
 42
3.0
 50
90.0
  0
INSERT
  5
8F
330
88
100
AcDbEntity
  8
DIMENSIONS
100
AcDbBlockReference
  2
_CLOSEDFILLED
 10
-24.0
 20
-100.0
 30
0.0
 41
3.0
 42
3.0
 50
270.0
  0
LINE
  5
91
330
88
100
AcDbEntity
  8
0
100
AcDbLine
 10
-24.0
 20
-107.0
 30
0.0
 11
-24.0
 21
-110.0
 31
0.0
  0
LINE
  5
92
330
88
100
AcDbEntity
  8
0
100
AcDbLine
 10
-24.0
 20
-97.0
 30
0.0
 11
-24.0
 21
-94.0
 31
0.0
  0
LINE
  5
93
330
88
100
AcDbEntity
  8
0
100
AcDbLine
 10
-24.0
 20
-104.0
 30
0.0
 11
-24.0
 21
-100.0
 31
0.0
  0
MTEXT
  5
94
330
88
100
AcDbEntity
  8
DIMENSIONS
100
AcDbMText
 10
-26.125
 20
-102.0
 30
0.0
 40
3.0
 71
5
  1
4
 50
90.0
  0
POINT
  5
95
330
88
100
AcDbEntity
  8
Defpoints
100
AcDbPoint
 10
-24.0
 20
-104.0
 30
0.0
  0
POINT
  5
96
330
88
100
AcDbEntity
  8
Defpoints
100
AcDbPoint
 10
0.0
 20
-104.0
 30
0.0
  0
POINT
  5
97
330
88
100
AcDbEntity
  8
Defpoints
100
AcDbPoint
 10
0.0
 20
-100.0
 30
0.0
  0
ENDBLK
  5
8A
330
88
100
AcDbEntity
  8
0
100
AcDbBlockEnd
  0
BLOCK
  5
AB
330
AA
100
AcDbEntity
  8
0
100
AcDbBlockBegin
  2
*D5
 70
1
 10
0.0
 20
0.0
 30
0.0
  3
*D5
  1

  0
LINE
  5
AD
330
AA
100
AcDbEntity
  8
0
100
AcDbLine
 10
820.0
 20
0.0
 30
0.0
 11
820.0
 21
-24.0
 31
0.0
  0
LINE
  5
AE
330
AA
100
AcDbEntity
  8
0
100
AcDbLine
 10
1760.0
 20
0.0
 30
0.0
 11
1760.0
 21
-24.0
 31
0.0
  0
INSERT
  5
AF
330
AA
100
AcDbEntity
  8
DIMENSIONS
100
AcDbBlockReference
  2
_CLOSEDFILLED
 10
820.0
 20
-24.0
 30
0.0
 41
3.0
 42
3.0
 50
180.0
  0
INSERT
  5
B1
330
AA
100
AcDbEntity
  8
DIMENSIONS
100
AcDbBlockReference
  2
_CLOSEDFILLED
 10
1760.0
 20
-24.0
 30
0.0
 41
3.0
 42
3.0
  0
LINE
  5
B3
330
AA
100
AcDbEntity
  8
0
100
AcDbLine
 10
823.0
 20
-24.0
 30
0.0
 11
1285.5
 21
-24.0
 31
0.0
  0
LINE
  5
B4
330
AA
100
AcDbEntity
  8
0
100
AcDbLine
 10
1294.5
 20
-24.0
 30
0.0
 11
1757.0
 21
-24.0
 31
0.0
  0
MTEXT
  5
B5
330
AA
100
AcDbEntity
  8
DIMENSIONS
100
AcDbMText
 10
1290.0
 20
-24.0
 30
0.0
 40
3.0
 71
5
  1
940
  0
POINT
  5
B6
330
AA
100
AcDbEntity
  8
Defpoints
100
AcDbPoint
 10
820.0
 20
-24.0
 30
0.0
  0
POINT
  5
B7
330
AA
100
AcDbEntity
  8
Defpoints
100
AcDbPoint
 10
820.0
 20
0.0
 30
0.0
  0
POINT
  5
B8
330
AA
100
AcDbEntity
  8
Defpoints
100
AcDbPoint
 10
1760.0
 20
0.0
 30
0.0
  0
ENDBLK
  5
AC
330
AA
100
AcDbEntity
  8
0
100
AcDbBlockEnd
  0
BLOCK
  5
BB
330
BA
100
AcDbEntity
  8
0
100
AcDbBlockBegin
  2
*D6
 70
1
 10
0.0
 20
0.0
 30
0.0
  3
*D6
  1

  0
LINE
  5
BD
330
BA
100
AcDbEntity
  8
0
100
AcDbLine
 10
820.0
 20
0.0
 30
0.0
 11
796.0
 21
0.0
 31
0.0
  0
LINE
  5
BE
330
BA
100
AcDbEntity
  8
0
100
AcDbLine
 10
820.0
 20
4.0
 30
0.0
 11
796.0
 21
4.0
 31
0.0
  0
INSERT
  5
BF
330
BA
100
AcDbEntity
  8
DIMENSIONS
100
AcDbBlockReference
  2
_CLOSEDFILLED
 10
796.0
 20
0.0
 30
0.0
 41
3.0
 42
3.0
 50
90.0
  0
INSERT
  5
C1
330
BA
100
AcDbEntity
  8
DIMENSIONS
100
AcDbBlockReference
  2
_CLOSEDFILLED
 10
796.0
 20
4.0
 30
0.0
 41
3.0
 42
3.0
 50
270.0
  0
LINE
  5
C3
330
BA
100
AcDbEntity
  8
0
100
AcDbLine
 10
796.0
 20
-3.0
 30
0.0
 11
796.0
 21
-6.0
 31
0.0
  0
LINE
  5
C4
330
BA
100
AcDbEntity
  8
0
100
AcDbLine
 10
796.0
 20
7.0
 30
0.0
 11
796.0
 21
10.0
 31
0.0
  0
LINE
  5
C5
330
BA
100
AcDbEntity
  8
0
100
AcDbLine
 10
796.0
 20
0.0
 30
0.0
 11
796.0
 21
4.0
 31
0.0
  0
MTEXT
  5
C6
330
BA
100
AcDbEntity
  8
DIMENSIONS
100
AcDbMText
 10
793.875
 20
2.0
 30
0.0
 40
3.0
 71
5
  1
4
 50
90.0
  0
POINT
  5
C7
330
BA
100
AcDbEntity
  8
Defpoints
100
AcDbPoint
 10
796.0
 20
0.0
 30
0.0
  0
POINT
  5
C8
330
BA
100
AcDbEntity
  8
Defpoints
100
AcDbPoint
 10
820.0
 20
0.0
 30
0.0
  0
POINT
  5
C9
330
BA
100
AcDbEntity
  8
Defpoints
100
AcDbPoint
 10
820.0
 20
4.0
 30
0.0
  0
ENDBLK
  5
BC
330
BA
100
AcDbEntity
  8
0
100
AcDbBlockEnd
  0
ENDSEC
  0
SECTION
  2
ENTITIES
  0
LWPOLYLINE
  5
34
330
17
100
AcDbEntity
  8
XY
100
AcDbPolyline
 90
2
 70
0
 10
0.0
 20
0.0
 10
0.0
 20
940.0
  0
LWPOLYLINE
  5
35
330
17
100
AcDbEntity
  8
XY
100
AcDbPolyline
 90
2
 70
0
 10
0.0
 20
0.0
 10
0.0
 20
940.0
  0
LWPOLYLINE
  5
36
330
17
100
AcDbEntity
  8
XY
100
AcDbPolyline
 90
2
 70
0
 10
0.0
 20
0.0
 10
720.0
 20
0.0
  0
LWPOLYLINE
  5
37
330
17
100
AcDbEntity
  8
XY
100
AcDbPolyline
 90
2
 70
0
 10
0.0
 20
0.0
 10
720.0
 20
0.0
  0
LWPOLYLINE
  5
38
330
17
100
AcDbEntity
  8
XY
100
AcDbPolyline
 90
2
 70
0
 10
0.0
 20
940.0
 10
720.0
 20
940.0
  0
LWPOLYLINE
  5
39
330
17
100
AcDbEntity
  8
XY
100
AcDbPolyline
 90
2
 70
0
 10
720.0
 20
0.0
 10
720.0
 20
940.0
  0
LWPOLYLINE
  5
3A
330
17
100
AcDbEntity
  8
XY
100
AcDbPolyline
 90
16
 70
0
 10
595.0
 20
232.5
 10
594.5677272882131
 20
234.533683215379
 10
593.3456530317943
 20
236.21572412738698
 10
591.5450849718748
 20
237.25528258147577
 10
589.4773576836617
 20
237.47260947684137
 10
587.5
 20
236.83012701892218
 10
585.9549150281252
 20
235.43892626146237
 10
585.109261996331
 20
233.5395584540888
 10
585.109261996331
 20
231.4604415459112
 10
585.9549150281252
 20
229.56107373853763
 10
587.5
 20
228.16987298107782
 10
589.4773576836617
 20
227.52739052315863
 10
591.5450849718748
 20
227.74471741852423
 10
593.3456530317943
 20
228.78427587261302
 10
594.5677272882131
 20
230.466316784621
 10
595.0
 20
232.5
  0
LWPOLYLINE
  5
3B
330
17
100
AcDbEntity
  8
XY
100
AcDbPolyline
 90
50
 70
0
 10
391.0
 20
470.0
 10
390.7454904285206
 20
473.9641920122197
 10
389.98614075420994
 20
477.8632921011947
 10
388.73441947772665
 20
481.6332771512606
 10
387.0108798278251
 20
485.21224411212205
 10
384.84382227790667
 20
488.54142644522767
 10
382.26882985302956
 20
491.5661590687081
 10
379.32818385762073
 20
494.23677595650895
 10
376.0701696176263
 20
496.50942565316575
 10
372.5482836367942
 20
498.3467913134902
 10
368.820355185562
 20
499.71870344413645
 10
364.9475967460348
 20
500.60263528584795
 10
360.9935989047213
 20
500.98407270222134
 10
357.0232861968619
 20
500.85675250142515
 10
353.1018510473543
 20
500.22276527763654
 10
349.29368331293944
 20
499.0925210835426
 10
345.6613130025341
 20
497.484578497563
 10
342.26438353621273
 20
495.42533989250563
 10
339.1586724018992
 20
492.94861790933476
 10
336.39517529055684
 20
490.0950802545415
 10
334.01926874835294
 20
486.911581937527
 10
332.069965095025
 20
483.4503959126443
 10
330.5792718426693
 20
479.76835475873224
 10
329.57166613327695
 20
475.9259174897426
 10
329.0636928247396
 20
471.9861768194021
 10
329.0636928247396
 20
468.0138231805979
 10
329.57166613327695
 20
464.0740825102575
 10
330.57927184266924
 20
460.23164524126776
 10
332.069965095025
 20
456.5496040873557
 10
334.01926874835294
 20
453.088418062473
 10
336.39517529055684
 20
449.9049197454585
 10
339.1586724018992
 20
447.05138209066524
 10
342.26438353621273
 20
444.57466010749437
 10
345.6613130025341
 20
442.515421502437
 10
349.29368331293944
 20
440.9074789164574
 10
353.1018510473543
 20
439.77723472236346
 10
357.0232861968619
 20
439.14324749857485
 10
360.9935989047213
 20
439.01592729777866
 10
364.9475967460347
 20
439.39736471415205
 10
368.820355185562
 20
440.2812965558635
 10
372.5482836367942
 20
441.6532086865098
 10
376.0701696176263
 20
443.49057434683425
 10
379.32818385762073
 20
445.76322404349105
 10
382.26882985302956
 20
448.4338409312919
 10
384.84382227790667
 20
451.4585735547723
 10
387.0108798278251
 20
454.7877558878779
 10
388.73441947772665
 20
458.3667228487394
 10
389.9861407542099
 20
462.13670789880524
 10
390.7454904285206
 20
466.0358079877803
 10
391.0
 20
470.0
  0
LWPOLYLINE
  5
3C
330
17
100
AcDbEntity
  8
XY
100
AcDbPolyline
 90
16
 70
0
 10
595.0
 20
707.5
 10
594.5677272882131
 20
709.533683215379
 10
593.3456530317943
 20
711.2157241273869
 10
591.5450849718748
 20
712.2552825814757
 10
589.4773576836617
 20
712.4726094768414
 10
587.5
 20
711.8301270189222
 10
585.9549150281252
 20
710.4389262614624
 10
585.109261996331
 20
708.5395584540888
 10
585.109261996331
 20
706.4604415459112
 10
585.9549150281252
 20
704.5610737385376
 10
587.5
 20
703.1698729810778
 10
589.4773576836617
 20
702.5273905231586
 10
591.5450849718748
 20
702.7447174185243
 10
593.3456530317943
 20
703.7842758726131
 10
594.5677272882131
 20
705.466316784621
 10
595.0
 20
707.5
  0
LWPOLYLINE
  5
3D
330
17
100
AcDbEntity
  8
XY
100
AcDbPolyline
 90
2
 70
0
 10
0.0
 20
940.0
 10
720.0
 20
940.0
  0
LWPOLYLINE
  5
3E
330
17
100
AcDbEntity
  8
XY
100
AcDbPolyline
 90
2
 70
0
 10
720.0
 20
0.0
 10
720.0
 20
940.0
  0
LWPOLYLINE
  5
3F
330
17
100
AcDbEntity
  8
XY
100
AcDbPolyline
 90
16
 70
0
 10
595.0
 20
232.5
 10
594.5677272882131
 20
234.533683215379
 10
593.3456530317943
 20
236.21572412738698
 10
591.5450849718748
 20
237.25528258147577
 10
589.4773576836617
 20
237.47260947684137
 10
587.5
 20
236.83012701892218
 10
585.9549150281252
 20
235.43892626146237
 10
585.109261996331
 20
233.5395584540888
 10
585.109261996331
 20
231.4604415459112
 10
585.9549150281252
 20
229.56107373853763
 10
587.5
 20
228.16987298107782
 10
589.4773576836617
 20
227.52739052315863
 10
591.5450849718748
 20
227.74471741852423
 10
593.3456530317943
 20
228.78427587261302
 10
594.5677272882131
 20
230.466316784621
 10
595.0
 20
232.5
  0
LWPOLYLINE
  5
40
330
17
100
AcDbEntity
  8
XY
100
AcDbPolyline
 90
50
 70
0
 10
391.0
 20
470.0
 10
390.7454904285206
 20
473.9641920122197
 10
389.98614075420994
 20
477.8632921011947
 10
388.73441947772665
 20
481.6332771512606
 10
387.0108798278251
 20
485.21224411212205
 10
384.84382227790667
 20
488.54142644522767
 10
382.26882985302956
 20
491.5661590687081
 10
379.32818385762073
 20
494.23677595650895
 10
376.0701696176263
 20
496.50942565316575
 10
372.5482836367942
 20
498.3467913134902
 10
368.820355185562
 20
499.71870344413645
 10
364.9475967460348
 20
500.60263528584795
 10
360.9935989047213
 20
500.98407270222134
 10
357.0232861968619
 20
500.85675250142515
 10
353.1018510473543
 20
500.22276527763654
 10
349.29368331293944
 20
499.0925210835426
 10
345.6613130025341
 20
497.484578497563
 10
342.26438353621273
 20
495.42533989250563
 10
339.1586724018992
 20
492.94861790933476
 10
336.39517529055684
 20
490.0950802545415
 10
334.01926874835294
 20
486.911581937527
 10
332.069965095025
 20
483.4503959126443
 10
330.5792718426693
 20
479.76835475873224
 10
329.57166613327695
 20
475.9259174897426
 10
329.0636928247396
 20
471.9861768194021
 10
329.0636928247396
 20
468.0138231805979
 10
329.57166613327695
 20
464.0740825102575
 10
330.57927184266924
 20
460.23164524126776
 10
332.069965095025
 20
456.5496040873557
 10
334.01926874835294
 20
453.088418062473
 10
336.39517529055684
 20
449.9049197454585
 10
339.1586724018992
 20
447.05138209066524
 10
342.26438353621273
 20
444.57466010749437
 10
345.6613130025341
 20
442.515421502437
 10
349.29368331293944
 20
440.9074789164574
 10
353.1018510473543
 20
439.77723472236346
 10
357.0232861968619
 20
439.14324749857485
 10
360.9935989047213
 20
439.01592729777866
 10
364.9475967460347
 20
439.39736471415205
 10
368.820355185562
 20
440.2812965558635
 10
372.5482836367942
 20
441.6532086865098
 10
376.0701696176263
 20
443.49057434683425
 10
379.32818385762073
 20
445.76322404349105
 10
382.26882985302956
 20
448.4338409312919
 10
384.84382227790667
 20
451.4585735547723
 10
387.0108798278251
 20
454.7877558878779
 10
388.73441947772665
 20
458.3667228487394
 10
389.9861407542099
 20
462.13670789880524
 10
390.7454904285206
 20
466.0358079877803
 10
391.0
 20
470.0
  0
LWPOLYLINE
  5
41
330
17
100
AcDbEntity
  8
XY
100
AcDbPolyline
 90
16
 70
0
 10
595.0
 20
707.5
 10
594.5677272882131
 20
709.533683215379
 10
593.3456530317943
 20
711.2157241273869
 10
591.5450849718748
 20
712.2552825814757
 10
589.4773576836617
 20
712.4726094768414
 10
587.5
 20
711.8301270189222
 10
585.9549150281252
 20
710.4389262614624
 10
585.109261996331
 20
708.5395584540888
 10
585.109261996331
 20
706.4604415459112
 10
585.9549150281252
 20
704.5610737385376
 10
587.5
 20
703.1698729810778
 10
589.4773576836617
 20
702.5273905231586
 10
591.5450849718748
 20
702.7447174185243
 10
593.3456530317943
 20
703.7842758726131
 10
594.5677272882131
 20
705.466316784621
 10
595.0
 20
707.5
  0
DIMENSION
  5
42
330
17
100
AcDbEntity
  8
DIMENSIONS
100
AcDbDimension
280
0
  2
*D1
  3
Standard
 10
0.0
 20
-24.0
 30
0.0
 11
360.0
 21
-24.0
 31
0.0
 70
32
 71
5
  1
<>
100
AcDbAlignedDimension
 13
0.0
 23
0.0
 33
0.0
 14
720.0
 24
0.0
 34
0.0
 50
0.0
100
AcDbRotatedDimension
1001
ACAD
1000
DSTYLE
1002
{
1070
140
1040
3.0
1070
41
1040
3.0
1070
271
1070
3
1002
}
  0
DIMENSION
  5
56
330
17
100
AcDbEntity
  8
DIMENSIONS
100
AcDbDimension
280
0
  2
*D2
  3
Standard
 10
-24.0
 20
0.0
 30
0.0
 11
-24.0
 21
470.0
 31
0.0
 70
32
 71
5
  1
<>
100
AcDbAlignedDimension
 13
0.0
 23
0.0
 33
0.0
 14
0.0
 24
940.0
 34
0.0
 50
90.0
100
AcDbRotatedDimension
1001
ACAD
1000
DSTYLE
1002
{
1070
140
1040
3.0
1070
41
1040
3.0
1070
271
1070
3
1002
}
  0
LWPOLYLINE
  5
66
330
17
100
AcDbEntity
  8
XZ
100
AcDbPolyline
 90
2
 70
0
 10
0.0
 20
-104.0
 10
0.0
 20
-100.0
  0
LWPOLYLINE
  5
67
330
17
100
AcDbEntity
  8
XZ
100
AcDbPolyline
 90
2
 70
0
 10
0.0
 20
-104.0
 10
0.0
 20
-100.0
  0
LWPOLYLINE
  5
68
330
17
100
AcDbEntity
  8
XZ
100
AcDbPolyline
 90
2
 70
0
 10
0.0
 20
-104.0
 10
720.0
 20
-104.0
  0
LWPOLYLINE
  5
69
330
17
100
AcDbEntity
  8
XZ
100
AcDbPolyline
 90
2
 70
0
 10
720.0
 20
-104.0
 10
720.0
 20
-100.0
  0
LWPOLYLINE
  5
6A
330
17
100
AcDbEntity
  8
XZ
100
AcDbPolyline
 90
2
 70
0
 10
0.0
 20
-100.0
 10
720.0
 20
-100.0
  0
LWPOLYLINE
  5
6B
330
17
100
AcDbEntity
  8
XZ
100
AcDbPolyline
 90
2
 70
0
 10
0.0
 20
-100.0
 10
720.0
 20
-100.0
  0
LWPOLYLINE
  5
6C
330
17
100
AcDbEntity
  8
XZ
100
AcDbPolyline
 90
16
 70
0
 10
595.0
 20
-100.0
 10
594.5677272882131
 20
-100.0
 10
593.3456530317943
 20
-100.0
 10
591.5450849718748
 20
-100.0
 10
589.4773576836617
 20
-100.0
 10
587.5
 20
-100.0
 10
585.9549150281252
 20
-100.0
 10
585.109261996331
 20
-100.0
 10
585.109261996331
 20
-100.0
 10
585.9549150281252
 20
-100.0
 10
587.5
 20
-100.0
 10
589.4773576836617
 20
-100.0
 10
591.5450849718748
 20
-100.0
 10
593.3456530317943
 20
-100.0
 10
594.5677272882131
 20
-100.0
 10
595.0
 20
-100.0
  0
LWPOLYLINE
  5
6D
330
17
100
AcDbEntity
  8
XZ
100
AcDbPolyline
 90
50
 70
0
 10
391.0
 20
-100.0
 10
390.7454904285206
 20
-100.0
 10
389.98614075420994
 20
-100.0
 10
388.73441947772665
 20
-100.0
 10
387.0108798278251
 20
-100.0
 10
384.84382227790667
 20
-100.0
 10
382.26882985302956
 20
-100.0
 10
379.32818385762073
 20
-100.0
 10
376.0701696176263
 20
-100.0
 10
372.5482836367942
 20
-100.0
 10
368.820355185562
 20
-100.0
 10
364.9475967460348
 20
-100.0
 10
360.9935989047213
 20
-100.0
 10
357.0232861968619
 20
-100.0
 10
353.1018510473543
 20
-100.0
 10
349.29368331293944
 20
-100.0
 10
345.6613130025341
 20
-100.0
 10
342.26438353621273
 20
-100.0
 10
339.1586724018992
 20
-100.0
 10
336.39517529055684
 20
-100.0
 10
334.01926874835294
 20
-100.0
 10
332.069965095025
 20
-100.0
 10
330.5792718426693
 20
-100.0
 10
329.57166613327695
 20
-100.0
 10
329.0636928247396
 20
-100.0
 10
329.0636928247396
 20
-100.0
 10
329.57166613327695
 20
-100.0
 10
330.57927184266924
 20
-100.0
 10
332.069965095025
 20
-100.0
 10
334.01926874835294
 20
-100.0
 10
336.39517529055684
 20
-100.0
 10
339.1586724018992
 20
-100.0
 10
342.26438353621273
 20
-100.0
 10
345.6613130025341
 20
-100.0
 10
349.29368331293944
 20
-100.0
 10
353.1018510473543
 20
-100.0
 10
357.0232861968619
 20
-100.0
 10
360.9935989047213
 20
-100.0
 10
364.9475967460347
 20
-100.0
 10
368.820355185562
 20
-100.0
 10
372.5482836367942
 20
-100.0
 10
376.0701696176263
 20
-100.0
 10
379.32818385762073
 20
-100.0
 10
382.26882985302956
 20
-100.0
 10
384.84382227790667
 20
-100.0
 10
387.0108798278251
 20
-100.0
 10
388.73441947772665
 20
-100.0
 10
389.9861407542099
 20
-100.0
 10
390.7454904285206
 20
-100.0
 10
391.0
 20
-100.0
  0
LWPOLYLINE
  5
6E
330
17
100
AcDbEntity
  8
XZ
100
AcDbPolyline
 90
16
 70
0
 10
595.0
 20
-100.0
 10
594.5677272882131
 20
-100.0
 10
593.3456530317943
 20
-100.0
 10
591.5450849718748
 20
-100.0
 10
589.4773576836617
 20
-100.0
 10
587.5
 20
-100.0
 10
585.9549150281252
 20
-100.0
 10
585.109261996331
 20
-100.0
 10
585.109261996331
 20
-100.0
 10
585.9549150281252
 20
-100.0
 10
587.5
 20
-100.0
 10
589.4773576836617
 20
-100.0
 10
591.5450849718748
 20
-100.0
 10
593.3456530317943
 20
-100.0
 10
594.5677272882131
 20
-100.0
 10
595.0
 20
-100.0
  0
LWPOLYLINE
  5
6F
330
17
100
AcDbEntity
  8
XZ
100
AcDbPolyline
 90
2
 70
0
 10
0.0
 20
-104.0
 10
720.0
 20
-104.0
  0
LWPOLYLINE
  5
70
330
17
100
AcDbEntity
  8
XZ
100
AcDbPolyline
 90
2
 70
0
 10
720.0
 20
-104.0
 10
720.0
 20
-100.0
  0
LWPOLYLINE
  5
71
330
17
100
AcDbEntity
  8
XZ
100
AcDbPolyline
 90
16
 70
0
 10
595.0
 20
-104.0
 10
594.5677272882131
 20
-104.0
 10
593.3456530317943
 20
-104.0
 10
591.5450849718748
 20
-104.0
 10
589.4773576836617
 20
-104.0
 10
587.5
 20
-104.0
 10
585.9549150281252
 20
-104.0
 10
585.109261996331
 20
-104.0
 10
585.109261996331
 20
-104.0
 10
585.9549150281252
 20
-104.0
 10
587.5
 20
-104.0
 10
589.4773576836617
 20
-104.0
 10
591.5450849718748
 20
-104.0
 10
593.3456530317943
 20
-104.0
 10
594.5677272882131
 20
-104.0
 10
595.0
 20
-104.0
  0
LWPOLYLINE
  5
72
330
17
100
AcDbEntity
  8
XZ
100
AcDbPolyline
 90
50
 70
0
 10
391.0
 20
-104.0
 10
390.7454904285206
 20
-104.0
 10
389.98614075420994
 20
-104.0
 10
388.73441947772665
 20
-104.0
 10
387.0108798278251
 20
-104.0
 10
384.84382227790667
 20
-104.0
 10
382.26882985302956
 20
-104.0
 10
379.32818385762073
 20
-104.0
 10
376.0701696176263
 20
-104.0
 10
372.5482836367942
 20
-104.0
 10
368.820355185562
 20
-104.0
 10
364.9475967460348
 20
-104.0
 10
360.9935989047213
 20
-104.0
 10
357.0232861968619
 20
-104.0
 10
353.1018510473543
 20
-104.0
 10
349.29368331293944
 20
-104.0
 10
345.6613130025341
 20
-104.0
 10
342.26438353621273
 20
-104.0
 10
339.1586724018992
 20
-104.0
 10
336.39517529055684
 20
-104.0
 10
334.01926874835294
 20
-104.0
 10
332.069965095025
 20
-104.0
 10
330.5792718426693
 20
-104.0
 10
329.57166613327695
 20
-104.0
 10
329.0636928247396
 20
-104.0
 10
329.0636928247396
 20
-104.0
 10
329.57166613327695
 20
-104.0
 10
330.57927184266924
 20
-104.0
 10
332.069965095025
 20
-104.0
 10
334.01926874835294
 20
-104.0
 10
336.39517529055684
 20
-104.0
 10
339.1586724018992
 20
-104.0
 10
342.26438353621273
 20
-104.0
 10
345.6613130025341
 20
-104.0
 10
349.29368331293944
 20
-104.0
 10
353.1018510473543
 20
-104.0
 10
357.0232861968619
 20
-104.0
 10
360.9935989047213
 20
-104.0
 10
364.9475967460347
 20
-104.0
 10
368.820355185562
 20
-104.0
 10
372.5482836367942
 20
-104.0
 10
376.0701696176263
 20
-104.0
 10
379.32818385762073
 20
-104.0
 10
382.26882985302956
 20
-104.0
 10
384.84382227790667
 20
-104.0
 10
387.0108798278251
 20
-104.0
 10
388.73441947772665
 20
-104.0
 10
389.9861407542099
 20
-104.0
 10
390.7454904285206
 20
-104.0
 10
391.0
 20
-104.0
  0
LWPOLYLINE
  5
73
330
17
100
AcDbEntity
  8
XZ
100
AcDbPolyline
 90
16
 70
0
 10
595.0
 20
-104.0
 10
594.5677272882131
 20
-104.0
 10
593.3456530317943
 20
-104.0
 10
591.5450849718748
 20
-104.0
 10
589.4773576836617
 20
-104.0
 10
587.5
 20
-104.0
 10
585.9549150281252
 20
-104.0
 10
585.109261996331
 20
-104.0
 10
585.109261996331
 20
-104.0
 10
585.9549150281252
 20
-104.0
 10
587.5
 20
-104.0
 10
589.4773576836617
 20
-104.0
 10
591.5450849718748
 20
-104.0
 10
593.3456530317943
 20
-104.0
 10
594.5677272882131
 20
-104.0
 10
595.0
 20
-104.0
  0
LWPOLYLINE
  5
74
330
17
100
AcDbEntity
  8
XZ
100
AcDbPolyline
 90
2
 70
0
 10
595.0
 20
-104.0
 10
595.0
 20
-100.0
  0
LWPOLYLINE
  5
75
330
17
100
AcDbEntity
  8
XZ
100
AcDbPolyline
 90
2
 70
0
 10
391.0
 20
-104.0
 10
391.0
 20
-100.0
  0
LWPOLYLINE
  5
76
330
17
100
AcDbEntity
  8
XZ
100
AcDbPolyline
 90
2
 70
0
 10
595.0
 20
-104.0
 10
595.0
 20
-100.0
  0
DIMENSION
  5
77
330
17
100
AcDbEntity
  8
DIMENSIONS
100
AcDbDimension
280
0
  2
*D3
  3
Standard
 10
0.0
 20
-128.0
 30
0.0
 11
360.0
 21
-128.0
 31
0.0
 70
32
 71
5
  1
<>
100
AcDbAlignedDimension
 13
0.0
 23
-104.0
 33
0.0
 14
720.0
 24
-104.0
 34
0.0
 50
0.0
100
AcDbRotatedDimension
1001
ACAD
1000
DSTYLE
1002
{
1070
140
1040
3.0
1070
41
1040
3.0
1070
271
1070
3
1002
}
  0
DIMENSION
  5
87
330
17
100
AcDbEntity
  8
DIMENSIONS
100
AcDbDimension
280
0
  2
*D4
  3
Standard
 10
-24.0
 20
-104.0
 30
0.0
 11
-26.125
 21
-102.0
 31
0.0
 70
32
 71
5
  1
<>
100
AcDbAlignedDimension
 13
0.0
 23
-104.0
 33
0.0
 14
0.0
 24
-100.0
 34
0.0
 50
90.0
100
AcDbRotatedDimension
1001
ACAD
1000
DSTYLE
1002
{
1070
140
1040
3.0
1070
41
1040
3.0
1070
271
1070
3
1002
}
  0
LWPOLYLINE
  5
98
330
17
100
AcDbEntity
  8
YZ
100
AcDbPolyline
 90
2
 70
0
 10
820.0
 20
0.0
 10
820.0
 20
4.0
  0
LWPOLYLINE
  5
99
330
17
100
AcDbEntity
  8
YZ
100
AcDbPolyline
 90
2
 70
0
 10
820.0
 20
4.0
 10
1760.0
 20
4.0
  0
LWPOLYLINE
  5
9A
330
17
100
AcDbEntity
  8
YZ
100
AcDbPolyline
 90
2
 70
0
 10
1760.0
 20
0.0
 10
1760.0
 20
4.0
  0
LWPOLYLINE
  5
9B
330
17
100
AcDbEntity
  8
YZ
100
AcDbPolyline
 90
2
 70
0
 10
820.0
 20
0.0
 10
1760.0
 20
0.0
  0
LWPOLYLINE
  5
9C
330
17
100
AcDbEntity
  8
YZ
100
AcDbPolyline
 90
2
 70
0
 10
820.0
 20
0.0
 10
820.0
 20
4.0
  0
LWPOLYLINE
  5
9D
330
17
100
AcDbEntity
  8
YZ
100
AcDbPolyline
 90
2
 70
0
 10
820.0
 20
4.0
 10
1760.0
 20
4.0
  0
LWPOLYLINE
  5
9E
330
17
100
AcDbEntity
  8
YZ
100
AcDbPolyline
 90
16
 70
0
 10
1052.5
 20
4.0
 10
1054.533683215379
 20
4.0
 10
1056.215724127387
 20
4.0
 10
1057.2552825814757
 20
4.0
 10
1057.4726094768414
 20
4.0
 10
1056.8301270189222
 20
4.0
 10
1055.4389262614623
 20
4.0
 10
1053.5395584540888
 20
4.0
 10
1051.4604415459112
 20
4.0
 10
1049.5610737385377
 20
4.0
 10
1048.1698729810778
 20
4.0
 10
1047.5273905231586
 20
4.0
 10
1047.7447174185243
 20
4.0
 10
1048.784275872613
 20
4.0
 10
1050.466316784621
 20
4.0
 10
1052.5
 20
4.0
  0
LWPOLYLINE
  5
9F
330
17
100
AcDbEntity
  8
YZ
100
AcDbPolyline
 90
50
 70
0
 10
1290.0
 20
4.0
 10
1293.9641920122197
 20
4.0
 10
1297.8632921011947
 20
4.0
 10
1301.6332771512607
 20
4.0
 10
1305.212244112122
 20
4.0
 10
1308.5414264452277
 20
4.0
 10
1311.5661590687082
 20
4.0
 10
1314.236775956509
 20
4.0
 10
1316.5094256531656
 20
4.0
 10
1318.3467913134903
 20
4.0
 10
1319.7187034441365
 20
4.0
 10
1320.602635285848
 20
4.0
 10
1320.9840727022213
 20
4.0
 10
1320.856752501425
 20
4.0
 10
1320.2227652776364
 20
4.0
 10
1319.0925210835426
 20
4.0
 10
1317.484578497563
 20
4.0
 10
1315.4253398925057
 20
4.0
 10
1312.9486179093346
 20
4.0
 10
1310.0950802545415
 20
4.0
 10
1306.911581937527
 20
4.0
 10
1303.4503959126444
 20
4.0
 10
1299.7683547587321
 20
4.0
 10
1295.9259174897425
 20
4.0
 10
1291.986176819402
 20
4.0
 10
1288.013823180598
 20
4.0
 10
1284.0740825102575
 20
4.0
 10
1280.2316452412679
 20
4.0
 10
1276.5496040873556
 20
4.0
 10
1273.088418062473
 20
4.0
 10
1269.9049197454585
 20
4.0
 10
1267.0513820906654
 20
4.0
 10
1264.5746601074943
 20
4.0
 10
1262.515421502437
 20
4.0
 10
1260.9074789164574
 20
4.0
 10
1259.7772347223636
 20
4.0
 10
1259.143247498575
 20
4.0
 10
1259.0159272977787
 20
4.0
 10
1259.397364714152
 20
4.0
 10
1260.2812965558635
 20
4.0
 10
1261.6532086865097
 20
4.0
 10
1263.4905743468344
 20
4.0
 10
1265.763224043491
 20
4.0
 10
1268.4338409312918
 20
4.0
 10
1271.4585735547723
 20
4.0
 10
1274.787755887878
 20
4.0
 10
1278.3667228487393
 20
4.0
 10
1282.1367078988053
 20
4.0
 10
1286.0358079877803
 20
4.0
 10
1290.0
 20
4.0
  0
LWPOLYLINE
  5
A0
330
17
100
AcDbEntity
  8
YZ
100
AcDbPolyline
 90
16
 70
0
 10
1527.5
 20
4.0
 10
1529.533683215379
 20
4.0
 10
1531.215724127387
 20
4.0
 10
1532.2552825814757
 20
4.0
 10
1532.4726094768414
 20
4.0
 10
1531.8301270189222
 20
4.0
 10
1530.4389262614623
 20
4.0
 10
1528.5395584540888
 20
4.0
 10
1526.4604415459112
 20
4.0
 10
1524.5610737385377
 20
4.0
 10
1523.1698729810778
 20
4.0
 10
1522.5273905231586
 20
4.0
 10
1522.7447174185243
 20
4.0
 10
1523.784275872613
 20
4.0
 10
1525.466316784621
 20
4.0
 10
1527.5
 20
4.0
  0
LWPOLYLINE
  5
A1
330
17
100
AcDbEntity
  8
YZ
100
AcDbPolyline
 90
2
 70
0
 10
1760.0
 20
0.0
 10
1760.0
 20
4.0
  0
LWPOLYLINE
  5
A2
330
17
100
AcDbEntity
  8
YZ
100
AcDbPolyline
 90
2
 70
0
 10
820.0
 20
0.0
 10
1760.0
 20
0.0
  0
LWPOLYLINE
  5
A3
330
17
100
AcDbEntity
  8
YZ
100
AcDbPolyline
 90
16
 70
0
 10
1052.5
 20
0.0
 10
1054.533683215379
 20
0.0
 10
1056.215724127387
 20
0.0
 10
1057.2552825814757
 20
0.0
 10
1057.4726094768414
 20
0.0
 10
1056.8301270189222
 20
0.0
 10
1055.4389262614623
 20
0.0
 10
1053.5395584540888
 20
0.0
 10
1051.4604415459112
 20
0.0
 10
1049.5610737385377
 20
0.0
 10
1048.1698729810778
 20
0.0
 10
1047.5273905231586
 20
0.0
 10
1047.7447174185243
 20
0.0
 10
1048.784275872613
 20
0.0
 10
1050.466316784621
 20
0.0
 10
1052.5
 20
0.0
  0
LWPOLYLINE
  5
A4
330
17
100
AcDbEntity
  8
YZ
100
AcDbPolyline
 90
50
 70
0
 10
1290.0
 20
0.0
 10
1293.9641920122197
 20
0.0
 10
1297.8632921011947
 20
0.0
 10
1301.6332771512607
 20
0.0
 10
1305.212244112122
 20
0.0
 10
1308.5414264452277
 20
0.0
 10
1311.5661590687082
 20
0.0
 10
1314.236775956509
 20
0.0
 10
1316.5094256531656
 20
0.0
 10
1318.3467913134903
 20
0.0
 10
1319.7187034441365
 20
0.0
 10
1320.602635285848
 20
0.0
 10
1320.9840727022213
 20
0.0
 10
1320.856752501425
 20
0.0
 10
1320.2227652776364
 20
0.0
 10
1319.0925210835426
 20
0.0
 10
1317.484578497563
 20
0.0
 10
1315.4253398925057
 20
0.0
 10
1312.9486179093346
 20
0.0
 10
1310.0950802545415
 20
0.0
 10
1306.911581937527
 20
0.0
 10
1303.4503959126444
 20
0.0
 10
1299.7683547587321
 20
0.0
 10
1295.9259174897425
 20
0.0
 10
1291.986176819402
 20
0.0
 10
1288.013823180598
 20
0.0
 10
1284.0740825102575
 20
0.0
 10
1280.2316452412679
 20
0.0
 10
1276.5496040873556
 20
0.0
 10
1273.088418062473
 20
0.0
 10
1269.9049197454585
 20
0.0
 10
1267.0513820906654
 20
0.0
 10
1264.5746601074943
 20
0.0
 10
1262.515421502437
 20
0.0
 10
1260.9074789164574
 20
0.0
 10
1259.7772347223636
 20
0.0
 10
1259.143247498575
 20
0.0
 10
1259.0159272977787
 20
0.0
 10
1259.397364714152
 20
0.0
 10
1260.2812965558635
 20
0.0
 10
1261.6532086865097
 20
0.0
 10
1263.4905743468344
 20
0.0
 10
1265.763224043491
 20
0.0
 10
1268.4338409312918
 20
0.0
 10
1271.4585735547723
 20
0.0
 10
1274.787755887878
 20
0.0
 10
1278.3667228487393
 20
0.0
 10
1282.1367078988053
 20
0.0
 10
1286.0358079877803
 20
0.0
 10
1290.0
 20
0.0
  0
LWPOLYLINE
  5
A5
330
17
100
AcDbEntity
  8
YZ
100
AcDbPolyline
 90
16
 70
0
 10
1527.5
 20
0.0
 10
1529.533683215379
 20
0.0
 10
1531.215724127387
 20
0.0
 10
1532.2552825814757
 20
0.0
 10
1532.4726094768414
 20
0.0
 10
1531.8301270189222
 20
0.0
 10
1530.4389262614623
 20
0.0
 10
1528.5395584540888
 20
0.0
 10
1526.4604415459112
 20
0.0
 10
1524.5610737385377
 20
0.0
 10
1523.1698729810778
 20
0.0
 10
1522.5273905231586
 20
0.0
 10
1522.7447174185243
 20
0.0
 10
1523.784275872613
 20
0.0
 10
1525.466316784621
 20
0.0
 10
1527.5
 20
0.0
  0
LWPOLYLINE
  5
A6
330
17
100
AcDbEntity
  8
YZ
100
AcDbPolyline
 90
2
 70
0
 10
1052.5
 20
0.0
 10
1052.5
 20
4.0
  0
LWPOLYLINE
  5
A7
330
17
100
AcDbEntity
  8
YZ
100
AcDbPolyline
 90
2
 70
0
 10
1290.0
 20
0.0
 10
1290.0
 20
4.0
  0
LWPOLYLINE
  5
A8
330
17
100
AcDbEntity
  8
YZ
100
AcDbPolyline
 90
2
 70
0
 10
1527.5
 20
0.0
 10
1527.5
 20
4.0
  0
DIMENSION
  5
A9
330
17
100
AcDbEntity
  8
DIMENSIONS
100
AcDbDimension
280
0
  2
*D5
  3
Standard
 10
820.0
 20
-24.0
 30
0.0
 11
1290.0
 21
-24.0
 31
0.0
 70
32
 71
5
  1
<>
100
AcDbAlignedDimension
 13
820.0
 23
0.0
 33
0.0
 14
1760.0
 24
0.0
 34
0.0
 50
0.0
100
AcDbRotatedDimension
1001
ACAD
1000
DSTYLE
1002
{
1070
140
1040
3.0
1070
41
1040
3.0
1070
271
1070
3
1002
}
  0
DIMENSION
  5
B9
330
17
100
AcDbEntity
  8
DIMENSIONS
100
AcDbDimension
280
0
  2
*D6
  3
Standard
 10
796.0
 20
0.0
 30
0.0
 11
793.875
 21
2.0
 31
0.0
 70
32
 71
5
  1
<>
100
AcDbAlignedDimension
 13
820.0
 23
0.0
 33
0.0
 14
820.0
 24
4.0
 34
0.0
 50
90.0
100
AcDbRotatedDimension
1001
ACAD
1000
DSTYLE
1002
{
1070
140
1040
3.0
1070
41
1040
3.0
1070
271
1070
3
1002
}
  0
TEXT
  5
CA
330
17
100
AcDbEntity
  8
NOTES
100
AcDbText
 10
0.0
 20
0.0
 30
0.0
 40
3.0
  1
SURFACE-V3 / mm / NON-ADOPTED DIGITAL CANDIDATE / NOT FOR FABRICATION
100
AcDbText
  0
TEXT
  5
CB
330
17
100
AcDbEntity
  8
NOTES
100
AcDbText
 10
0.0
 20
-6.0
 30
0.0
 40
3.0
  1
Orthographic wireframe; curves sampled. Source STEP owns geometry. Allocations are not hardware.
100
AcDbText
  0
ENDSEC
  0
SECTION
  2
OBJECTS
  0
DICTIONARY
  5
A
330
0
100
AcDbDictionary
281
1
  3
ACAD_COLOR
350
B
  3
ACAD_GROUP
350
C
  3
ACAD_LAYOUT
350
D
  3
ACAD_MATERIAL
350
E
  3
ACAD_MLEADERSTYLE
350
F
  3
ACAD_MLINESTYLE
350
10
  3
ACAD_PLOTSETTINGS
350
11
  3
ACAD_PLOTSTYLENAME
350
12
  3
ACAD_SCALELIST
350
14
  3
ACAD_TABLESTYLE
350
15
  3
ACAD_VISUALSTYLE
350
16
  3
EZDXF_META
350
2D
  0
DICTIONARY
  5
B
330
A
100
AcDbDictionary
281
1
  0
DICTIONARY
  5
C
330
A
100
AcDbDictionary
281
1
  0
DICTIONARY
  5
D
330
A
100
AcDbDictionary
281
1
  3
Model
350
1A
  3
Layout1
350
1E
  0
DICTIONARY
  5
E
330
A
100
AcDbDictionary
281
1
  3
ByBlock
350
1F
  3
ByLayer
350
20
  3
Global
350
21
  0
DICTIONARY
  5
F
330
A
100
AcDbDictionary
281
1
  3
Standard
350
2C
  0
DICTIONARY
  5
10
330
A
100
AcDbDictionary
281
1
  3
Standard
350
22
  0
DICTIONARY
  5
11
330
A
100
AcDbDictionary
281
1
  0
ACDBDICTIONARYWDFLT
  5
12
330
A
100
AcDbDictionary
281
1
  3
Normal
350
13
100
AcDbDictionaryWithDefault
340
13
  0
ACDBPLACEHOLDER
  5
13
330
12
  0
DICTIONARY
  5
14
330
A
100
AcDbDictionary
281
1
  0
DICTIONARY
  5
15
330
A
100
AcDbDictionary
281
1
  0
DICTIONARY
  5
16
330
A
100
AcDbDictionary
281
1
  0
LAYOUT
  5
1A
330
D
100
AcDbPlotSettings
  1

  4
A3
  6

 40
7.5
 41
20.0
 42
7.5
 43
20.0
 44
420.0
 45
297.0
 46
0.0
 47
0.0
 48
0.0
 49
0.0
140
0.0
141
0.0
142
1.0
143
1.0
 70
1024
 72
1
 73
0
 74
5
  7

 75
16
 76
0
 77
2
 78
300
147
1.0
148
0.0
149
0.0
100
AcDbLayout
  1
Model
 70
1
 71
0
 10
0.0
 20
0.0
 11
420.0
 21
297.0
 12
0.0
 22
0.0
 32
0.0
 14
1e+20
 24
1e+20
 34
1e+20
 15
-1e+20
 25
-1e+20
 35
-1e+20
146
0.0
 13
0.0
 23
0.0
 33
0.0
 16
1.0
 26
0.0
 36
0.0
 17
0.0
 27
1.0
 37
0.0
 76
1
330
17
  0
LAYOUT
  5
1E
330
D
100
AcDbPlotSettings
  1

  4
A3
  6

 40
7.5
 41
20.0
 42
7.5
 43
20.0
 44
420.0
 45
297.0
 46
0.0
 47
0.0
 48
0.0
 49
0.0
140
0.0
141
0.0
142
1.0
143
1.0
 70
0
 72
1
 73
0
 74
5
  7

 75
16
 76
0
 77
2
 78
300
147
1.0
148
0.0
149
0.0
100
AcDbLayout
  1
Layout1
 70
1
 71
1
 10
0.0
 20
0.0
 11
420.0
 21
297.0
 12
0.0
 22
0.0
 32
0.0
 14
1e+20
 24
1e+20
 34
1e+20
 15
-1e+20
 25
-1e+20
 35
-1e+20
146
0.0
 13
0.0
 23
0.0
 33
0.0
 16
1.0
 26
0.0
 36
0.0
 17
0.0
 27
1.0
 37
0.0
 76
1
330
1B
  0
MATERIAL
  5
1F
102
{ACAD_REACTORS
330
E
102
}
330
E
100
AcDbMaterial
  1
ByBlock
  2

 70
0
 40
1.0
 71
1
 41
1.0
 91
-1023410177
 42
1.0
 72
1
  3

 73
1
 74
1
 75
1
 44
0.5
 73
0
 45
1.0
 46
1.0
 77
1
  4

 78
1
 79
1
170
1
 48
1.0
171
1
  6

172
1
173
1
174
1
140
1.0
141
1.0
175
1
  7

176
1
177
1
178
1
143
1.0
179
1
  8

270
1
271
1
272
1
145
1.0
146
1.0
273
1
  9

274
1
275
1
276
1
 42
1.0
 72
1
  3

 73
1
 74
1
 75
1
 94
63
  0
MATERIAL
  5
20
102
{ACAD_REACTORS
330
E
102
}
330
E
100
AcDbMaterial
  1
ByLayer
  2

 70
0
 40
1.0
 71
1
 41
1.0
 91
-1023410177
 42
1.0
 72
1
  3

 73
1
 74
1
 75
1
 44
0.5
 73
0
 45
1.0
 46
1.0
 77
1
  4

 78
1
 79
1
170
1
 48
1.0
171
1
  6

172
1
173
1
174
1
140
1.0
141
1.0
175
1
  7

176
1
177
1
178
1
143
1.0
179
1
  8

270
1
271
1
272
1
145
1.0
146
1.0
273
1
  9

274
1
275
1
276
1
 42
1.0
 72
1
  3

 73
1
 74
1
 75
1
 94
63
  0
MATERIAL
  5
21
102
{ACAD_REACTORS
330
E
102
}
330
E
100
AcDbMaterial
  1
Global
  2

 70
0
 40
1.0
 71
1
 41
1.0
 91
-1023410177
 42
1.0
 72
1
  3

 73
1
 74
1
 75
1
 44
0.5
 73
0
 45
1.0
 46
1.0
 77
1
  4

 78
1
 79
1
170
1
 48
1.0
171
1
  6

172
1
173
1
174
1
140
1.0
141
1.0
175
1
  7

176
1
177
1
178
1
143
1.0
179
1
  8

270
1
271
1
272
1
145
1.0
146
1.0
273
1
  9

274
1
275
1
276
1
 42
1.0
 72
1
  3

 73
1
 74
1
 75
1
 94
63
  0
MLINESTYLE
  5
22
102
{ACAD_REACTORS
330
10
102
}
330
10
100
AcDbMlineStyle
  2
Standard
 70
0
  3

 62
256
 51
90.0
 52
90.0
 71
2
 49
0.5
 62
256
  6
BYLAYER
 49
-0.5
 62
256
  6
BYLAYER
  0
MLEADERSTYLE
  5
2C
102
{ACAD_REACTORS
330
F
102
}
330
F
100
AcDbMLeaderStyle
179
2
170
2
171
1
172
0
 90
2
 40
0.0
 41
0.0
173
1
 91
-1056964608
 92
-2
290
1
 42
2.0
291
1
 43
8.0
  3
Standard
 44
4.0
300

342
29
174
1
175
1
176
0
178
1
 93
-1056964608
 45
4.0
292
0
297
0
 46
4.0
 94
-1056964608
 47
1.0
 49
1.0
140
1.0
294
1
141
0.0
177
0
142
1.0
295
0
296
0
143
3.75
271
0
272
9
273
9
  0
DICTIONARY
  5
2D
330
A
100
AcDbDictionary
280
1
281
1
  3
CREATED_BY_EZDXF
350
2E
  3
WRITTEN_BY_EZDXF
350
CE
  0
DICTIONARYVAR
  5
2E
330
2D
100
DictionaryVariables
280
0
  1
1.4.3 @ 2026-09-27T12:50:50.425894+00:00
  0
DICTIONARYVAR
  5
CE
330
2D
100
DictionaryVariables
280
0
  1
1.4.3 @ 2026-09-27T12:50:50.438030+00:00
  0
ENDSEC
  0
EOF
