  0
SECTION
  2
HEADER
  9
$ACADVER
  1
AC1032
  9
$ACADMAINTVER
 90
4
  9
$DWGCODEPAGE
  3
ANSI_1252
  9
$LASTSAVEDBY
  1
ezdxf
  9
$REQUIREDVERSIONS
160
0
  9
$INSBASE
 10
0.0
 20
0.0
 30
0.0
  9
$EXTMIN
 10
1e+20
 20
1e+20
 30
1e+20
  9
$EXTMAX
 10
-1e+20
 20
-1e+20
 30
-1e+20
  9
$LIMMIN
 10
0.0
 20
0.0
  9
$LIMMAX
 10
420.0
 20
297.0
  9
$ORTHOMODE
 70
0
  9
$REGENMODE
 70
1
  9
$FILLMODE
 70
1
  9
$QTEXTMODE
 70
0
  9
$MIRRTEXT
 70
1
  9
$LTSCALE
 40
1.0
  9
$ATTMODE
 70
1
  9
$TEXTSIZE
 40
2.5
  9
$TRACEWID
 40
1.0
  9
$TEXTSTYLE
  7
Standard
  9
$CLAYER
  8
0
  9
$CELTYPE
  6
ByLayer
  9
$CECOLOR
 62
256
  9
$CELTSCALE
 40
1.0
  9
$DISPSILH
 70
0
  9
$DIMSCALE
 40
1.0
  9
$DIMASZ
 40
2.5
  9
$DIMEXO
 40
0.625
  9
$DIMDLI
 40
3.75
  9
$DIMRND
 40
0.0
  9
$DIMDLE
 40
0.0
  9
$DIMEXE
 40
1.25
  9
$DIMTP
 40
0.0
  9
$DIMTM
 40
0.0
  9
$DIMTXT
 40
2.5
  9
$DIMCEN
 40
2.5
  9
$DIMTSZ
 40
0.0
  9
$DIMTOL
 70
0
  9
$DIMLIM
 70
0
  9
$DIMTIH
 70
0
  9
$DIMTOH
 70
0
  9
$DIMSE1
 70
0
  9
$DIMSE2
 70
0
  9
$DIMTAD
 70
1
  9
$DIMZIN
 70
8
  9
$DIMBLK
  1

  9
$DIMASO
 70
1
  9
$DIMSHO
 70
1
  9
$DIMPOST
  1

  9
$DIMAPOST
  1

  9
$DIMALT
 70
0
  9
$DIMALTD
 70
3
  9
$DIMALTF
 40
0.03937007874
  9
$DIMLFAC
 40
1.0
  9
$DIMTOFL
 70
1
  9
$DIMTVP
 40
0.0
  9
$DIMTIX
 70
0
  9
$DIMSOXD
 70
0
  9
$DIMSAH
 70
0
  9
$DIMBLK1
  1

  9
$DIMBLK2
  1

  9
$DIMSTYLE
  2
ISO-25
  9
$DIMCLRD
 70
0
  9
$DIMCLRE
 70
0
  9
$DIMCLRT
 70
0
  9
$DIMTFAC
 40
1.0
  9
$DIMGAP
 40
0.625
  9
$DIMJUST
 70
0
  9
$DIMSD1
 70
0
  9
$DIMSD2
 70
0
  9
$DIMTOLJ
 70
0
  9
$DIMTZIN
 70
8
  9
$DIMALTZ
 70
0
  9
$DIMALTTZ
 70
0
  9
$DIMUPT
 70
0
  9
$DIMDEC
 70
2
  9
$DIMTDEC
 70
2
  9
$DIMALTU
 70
2
  9
$DIMALTTD
 70
3
  9
$DIMTXSTY
  7
Standard
  9
$DIMAUNIT
 70
0
  9
$DIMADEC
 70
0
  9
$DIMALTRND
 40
0.0
  9
$DIMAZIN
 70
0
  9
$DIMDSEP
 70
44
  9
$DIMATFIT
 70
3
  9
$DIMFRAC
 70
0
  9
$DIMLDRBLK
  1

  9
$DIMLUNIT
 70
2
  9
$DIMLWD
 70
-2
  9
$DIMLWE
 70
-2
  9
$DIMTMOVE
 70
0
  9
$DIMFXL
 40
1.0
  9
$DIMFXLON
 70
0
  9
$DIMJOGANG
 40
0.785398163397
  9
$DIMTFILL
 70
0
  9
$DIMTFILLCLR
 70
0
  9
$DIMARCSYM
 70
0
  9
$DIMLTYPE
  6

  9
$DIMLTEX1
  6

  9
$DIMLTEX2
  6

  9
$DIMTXTDIRECTION
 70
0
  9
$LUNITS
 70
2
  9
$LUPREC
 70
4
  9
$SKETCHINC
 40
1.0
  9
$FILLETRAD
 40
10.0
  9
$AUNITS
 70
0
  9
$AUPREC
 70
2
  9
$MENU
  1
.
  9
$ELEVATION
 40
0.0
  9
$PELEVATION
 40
0.0
  9
$THICKNESS
 40
0.0
  9
$LIMCHECK
 70
0
  9
$CHAMFERA
 40
0.0
  9
$CHAMFERB
 40
0.0
  9
$CHAMFERC
 40
0.0
  9
$CHAMFERD
 40
0.0
  9
$SKPOLY
 70
0
  9
$TDCREATE
 40
2461311.6186458333
  9
$TDUCREATE
 40
2458532.153996898
  9
$TDUPDATE
 40
2461311.6186458333
  9
$TDUUPDATE
 40
2458532.1544311
  9
$TDINDWG
 40
0.0
  9
$TDUSRTIMER
 40
0.0
  9
$USRTIMER
 70
1
  9
$ANGBASE
 50
0.0
  9
$ANGDIR
 70
0
  9
$PDMODE
 70
0
  9
$PDSIZE
 40
0.0
  9
$PLINEWID
 40
0.0
  9
$SPLFRAME
 70
0
  9
$SPLINETYPE
 70
6
  9
$SPLINESEGS
 70
8
  9
$HANDSEED
  5
E1
  9
$SURFTAB1
 70
6
  9
$SURFTAB2
 70
6
  9
$SURFTYPE
 70
6
  9
$SURFU
 70
6
  9
$SURFV
 70
6
  9
$UCSBASE
  2

  9
$UCSNAME
  2

  9
$UCSORG
 10
0.0
 20
0.0
 30
0.0
  9
$UCSXDIR
 10
1.0
 20
0.0
 30
0.0
  9
$UCSYDIR
 10
0.0
 20
1.0
 30
0.0
  9
$UCSORTHOREF
  2

  9
$UCSORTHOVIEW
 70
0
  9
$UCSORGTOP
 10
0.0
 20
0.0
 30
0.0
  9
$UCSORGBOTTOM
 10
0.0
 20
0.0
 30
0.0
  9
$UCSORGLEFT
 10
0.0
 20
0.0
 30
0.0
  9
$UCSORGRIGHT
 10
0.0
 20
0.0
 30
0.0
  9
$UCSORGFRONT
 10
0.0
 20
0.0
 30
0.0
  9
$UCSORGBACK
 10
0.0
 20
0.0
 30
0.0
  9
$PUCSBASE
  2

  9
$PUCSNAME
  2

  9
$PUCSORG
 10
0.0
 20
0.0
 30
0.0
  9
$PUCSXDIR
 10
1.0
 20
0.0
 30
0.0
  9
$PUCSYDIR
 10
0.0
 20
1.0
 30
0.0
  9
$PUCSORTHOREF
  2

  9
$PUCSORTHOVIEW
 70
0
  9
$PUCSORGTOP
 10
0.0
 20
0.0
 30
0.0
  9
$PUCSORGBOTTOM
 10
0.0
 20
0.0
 30
0.0
  9
$PUCSORGLEFT
 10
0.0
 20
0.0
 30
0.0
  9
$PUCSORGRIGHT
 10
0.0
 20
0.0
 30
0.0
  9
$PUCSORGFRONT
 10
0.0
 20
0.0
 30
0.0
  9
$PUCSORGBACK
 10
0.0
 20
0.0
 30
0.0
  9
$USERI1
 70
0
  9
$USERI2
 70
0
  9
$USERI3
 70
0
  9
$USERI4
 70
0
  9
$USERI5
 70
0
  9
$USERR1
 40
0.0
  9
$USERR2
 40
0.0
  9
$USERR3
 40
0.0
  9
$USERR4
 40
0.0
  9
$USERR5
 40
0.0
  9
$WORLDVIEW
 70
1
  9
$SHADEDGE
 70
3
  9
$SHADEDIF
 70
70
  9
$TILEMODE
 70
1
  9
$MAXACTVP
 70
64
  9
$PINSBASE
 10
0.0
 20
0.0
 30
0.0
  9
$PLIMCHECK
 70
0
  9
$PEXTMIN
 10
1e+20
 20
1e+20
 30
1e+20
  9
$PEXTMAX
 10
-1e+20
 20
-1e+20
 30
-1e+20
  9
$PLIMMIN
 10
0.0
 20
0.0
  9
$PLIMMAX
 10
420.0
 20
297.0
  9
$UNITMODE
 70
0
  9
$VISRETAIN
 70
1
  9
$PLINEGEN
 70
0
  9
$PSLTSCALE
 70
1
  9
$TREEDEPTH
 70
3020
  9
$CMLSTYLE
  2
Standard
  9
$CMLJUST
 70
0
  9
$CMLSCALE
 40
20.0
  9
$PROXYGRAPHICS
 70
1
  9
$MEASUREMENT
 70
1
  9
$CELWEIGHT
370
-1
  9
$ENDCAPS
280
0
  9
$JOINSTYLE
280
0
  9
$LWDISPLAY
290
0
  9
$INSUNITS
 70
4
  9
$HYPERLINKBASE
  1

  9
$STYLESHEET
  1

  9
$XEDIT
290
1
  9
$CEPSNTYPE
380
0
  9
$PSTYLEMODE
290
1
  9
$FINGERPRINTGUID
  2
{C712B07B-ACF5-47AC-AE33-4AAACC62C739}
  9
$VERSIONGUID
  2
{B02512C3-D4FF-4BD9-A449-E7D19C4BB10B}
  9
$EXTNAMES
290
1
  9
$PSVPSCALE
 40
0.0
  9
$OLESTARTUP
290
0
  9
$SORTENTS
280
127
  9
$INDEXCTL
280
0
  9
$HIDETEXT
280
1
  9
$XCLIPFRAME
280
1
  9
$HALOGAP
280
0
  9
$OBSCOLOR
 70
257
  9
$OBSLTYPE
280
0
  9
$INTERSECTIONDISPLAY
280
0
  9
$INTERSECTIONCOLOR
 70
257
  9
$DIMASSOC
280
2
  9
$PROJECTNAME
  1

  9
$CAMERADISPLAY
290
0
  9
$LENSLENGTH
 40
50.0
  9
$CAMERAHEIGHT
 40
0.0
  9
$STEPSPERSEC
 40
24.0
  9
$STEPSIZE
 40
100.0
  9
$3DDWFPREC
 40
2.0
  9
$PSOLWIDTH
 40
0.005
  9
$PSOLHEIGHT
 40
0.08
  9
$LOFTANG1
 40
1.570796326795
  9
$LOFTANG2
 40
1.570796326795
  9
$LOFTMAG1
 40
0.0
  9
$LOFTMAG2
 40
0.0
  9
$LOFTPARAM
 70
7
  9
$LOFTNORMALS
280
1
  9
$LATITUDE
 40
37.795
  9
$LONGITUDE
 40
-122.394
  9
$NORTHDIRECTION
 40
0.0
  9
$TIMEZONE
 70
-8000
  9
$LIGHTGLYPHDISPLAY
280
1
  9
$TILEMODELIGHTSYNCH
280
1
  9
$CMATERIAL
347
20
  9
$SOLIDHIST
280
0
  9
$SHOWHIST
280
1
  9
$DWFFRAME
280
2
  9
$DGNFRAME
280
2
  9
$REALWORLDSCALE
290
1
  9
$INTERFERECOLOR
 62
256
  9
$CSHADOW
280
0
  9
$SHADOWPLANELOCATION
 40
0.0
  0
ENDSEC
  0
SECTION
  2
CLASSES
  0
CLASS
  1
ACDBDICTIONARYWDFLT
  2
AcDbDictionaryWithDefault
  3
ObjectDBX Classes
 90
0
 91
0
280
0
281
0
  0
CLASS
  1
SUN
  2
AcDbSun
  3
SCENEOE
 90
1153
 91
0
280
0
281
0
  0
CLASS
  1
VISUALSTYLE
  2
AcDbVisualStyle
  3
ObjectDBX Classes
 90
4095
 91
0
280
0
281
0
  0
CLASS
  1
MATERIAL
  2
AcDbMaterial
  3
ObjectDBX Classes
 90
1153
 91
0
280
0
281
0
  0
CLASS
  1
SCALE
  2
AcDbScale
  3
ObjectDBX Classes
 90
1153
 91
0
280
0
281
0
  0
CLASS
  1
TABLESTYLE
  2
AcDbTableStyle
  3
ObjectDBX Classes
 90
4095
 91
0
280
0
281
0
  0
CLASS
  1
MLEADERSTYLE
  2
AcDbMLeaderStyle
  3
ACDB_MLEADERSTYLE_CLASS
 90
4095
 91
0
280
0
281
0
  0
CLASS
  1
DICTIONARYVAR
  2
AcDbDictionaryVar
  3
ObjectDBX Classes
 90
0
 91
0
280
0
281
0
  0
CLASS
  1
CELLSTYLEMAP
  2
AcDbCellStyleMap
  3
ObjectDBX Classes
 90
1152
 91
0
280
0
281
0
  0
CLASS
  1
MENTALRAYRENDERSETTINGS
  2
AcDbMentalRayRenderSettings
  3
SCENEOE
 90
1024
 91
0
280
0
281
0
  0
CLASS
  1
ACDBDETAILVIEWSTYLE
  2
AcDbDetailViewStyle
  3
ObjectDBX Classes
 90
1025
 91
0
280
0
281
0
  0
CLASS
  1
ACDBSECTIONVIEWSTYLE
  2
AcDbSectionViewStyle
  3
ObjectDBX Classes
 90
1025
 91
0
280
0
281
0
  0
CLASS
  1
RASTERVARIABLES
  2
AcDbRasterVariables
  3
ISM
 90
0
 91
0
280
0
281
0
  0
CLASS
  1
ACDBPLACEHOLDER
  2
AcDbPlaceHolder
  3
ObjectDBX Classes
 90
0
 91
0
280
0
281
0
  0
CLASS
  1
LAYOUT
  2
AcDbLayout
  3
ObjectDBX Classes
 90
0
 91
0
280
0
281
0
  0
ENDSEC
  0
SECTION
  2
TABLES
  0
TABLE
  2
VPORT
  5
8
330
0
100
AcDbSymbolTable
 70
1
  0
VPORT
  5
23
330
8
100
AcDbSymbolTableRecord
100
AcDbViewportTableRecord
  2
*Active
 70
0
 10
0.0
 20
0.0
 11
1.0
 21
1.0
 12
0.0
 22
0.0
 13
0.0
 23
0.0
 14
0.5
 24
0.5
 15
0.5
 25
0.5
 16
0.0
 26
0.0
 36
1.0
 17
0.0
 27
0.0
 37
0.0
 40
1000.0
 41
1.34
 42
50.0
 43
0.0
 44
0.0
 50
0.0
 51
0.0
 71
0
 72
1000
 73
1
 74
3
 75
0
 76
0
 77
0
 78
0
281
0
 65
0
146
0.0
  0
ENDTAB
  0
TABLE
  2
LTYPE
  5
2
330
0
100
AcDbSymbolTable
 70
3
  0
LTYPE
  5
24
330
2
100
AcDbSymbolTableRecord
100
AcDbLinetypeTableRecord
  2
ByBlock
 70
0
  3

 72
65
 73
0
 40
0.0
  0
LTYPE
  5
25
330
2
100
AcDbSymbolTableRecord
100
AcDbLinetypeTableRecord
  2
ByLayer
 70
0
  3

 72
65
 73
0
 40
0.0
  0
LTYPE
  5
26
330
2
100
AcDbSymbolTableRecord
100
AcDbLinetypeTableRecord
  2
Continuous
 70
0
  3

 72
65
 73
0
 40
0.0
  0
ENDTAB
  0
TABLE
  2
LAYER
  5
1
330
0
100
AcDbSymbolTable
 70
7
  0
LAYER
  5
27
330
1
100
AcDbSymbolTableRecord
100
AcDbLayerTableRecord
  2
0
 70
0
 62
7
  6
Continuous
370
-3
390
13
347
21
  0
LAYER
  5
28
330
1
100
AcDbSymbolTableRecord
100
AcDbLayerTableRecord
  2
Defpoints
 70
0
 62
7
  6
Continuous
290
0
370
-3
390
13
347
21
  0
LAYER
  5
2F
330
1
100
AcDbSymbolTableRecord
100
AcDbLayerTableRecord
  2
XY
 70
0
 62
7
  6
Continuous
370
-3
390
13
347
21
  0
LAYER
  5
30
330
1
100
AcDbSymbolTableRecord
100
AcDbLayerTableRecord
  2
XZ
 70
0
 62
7
  6
Continuous
370
-3
390
13
347
21
  0
LAYER
  5
31
330
1
100
AcDbSymbolTableRecord
100
AcDbLayerTableRecord
  2
YZ
 70
0
 62
7
  6
Continuous
370
-3
390
13
347
21
  0
LAYER
  5
32
330
1
100
AcDbSymbolTableRecord
100
AcDbLayerTableRecord
  2
DIMENSIONS
 70
0
 62
7
  6
Continuous
370
-3
390
13
347
21
  0
LAYER
  5
33
330
1
100
AcDbSymbolTableRecord
100
AcDbLayerTableRecord
  2
NOTES
 70
0
 62
7
  6
Continuous
370
-3
390
13
347
21
  0
ENDTAB
  0
TABLE
  2
STYLE
  5
5
330
0
100
AcDbSymbolTable
 70
1
  0
STYLE
  5
29
330
5
100
AcDbSymbolTableRecord
100
AcDbTextStyleTableRecord
  2
Standard
 70
0
 40
0.0
 41
1.0
 50
0.0
 71
0
 42
2.5
  3
txt
  4

  0
ENDTAB
  0
TABLE
  2
VIEW
  5
7
330
0
100
AcDbSymbolTable
 70
0
  0
ENDTAB
  0
TABLE
  2
UCS
  5
6
330
0
100
AcDbSymbolTable
 70
0
  0
ENDTAB
  0
TABLE
  2
APPID
  5
3
330
0
100
AcDbSymbolTable
 70
3
  0
APPID
  5
2A
330
3
100
AcDbSymbolTableRecord
100
AcDbRegAppTableRecord
  2
ACAD
 70
0
  0
APPID
  5
DE
330
3
100
AcDbSymbolTableRecord
100
AcDbRegAppTableRecord
  2
HATCHBACKGROUNDCOLOR
 70
0
  0
APPID
  5
DF
330
3
100
AcDbSymbolTableRecord
100
AcDbRegAppTableRecord
  2
EZDXF
 70
0
  0
ENDTAB
  0
TABLE
  2
DIMSTYLE
  5
4
330
0
100
AcDbSymbolTable
 70
1
100
AcDbDimStyleTable
  0
DIMSTYLE
105
2B
330
4
100
AcDbSymbolTableRecord
100
AcDbDimStyleTableRecord
  2
Standard
 70
0
 40
1.0
 41
2.5
 42
0.625
 43
3.75
 44
1.25
 45
0.0
 46
0.0
 47
0.0
 48
0.0
 49
2.5
140
2.5
141
2.5
142
0.0
143
0.03937007874
144
1.0
145
0.0
146
1.0
147
0.625
148
0.0
 69
0
 70
0
 71
0
 72
0
 73
0
 74
0
 75
0
 76
0
 77
1
 78
8
 79
3
170
0
171
3
172
1
173
0
174
0
175
0
176
0
177
0
178
0
179
2
271
2
272
2
273
2
274
3
275
0
276
0
277
2
278
44
279
0
280
0
281
0
282
0
283
0
284
8
285
0
286
0
288
0
289
3
290
0
371
-2
372
-2
  0
ENDTAB
  0
TABLE
  2
BLOCK_RECORD
  5
9
330
0
100
AcDbSymbolTable
 70
9
  0
BLOCK_RECORD
  5
17
330
9
100
AcDbSymbolTableRecord
100
AcDbBlockTableRecord
  2
*Model_Space
340
1A
 70
0
280
1
281
0
  0
BLOCK_RECORD
  5
1B
330
9
100
AcDbSymbolTableRecord
100
AcDbBlockTableRecord
  2
*Paper_Space
340
1E
 70
0
280
1
281
0
  0
BLOCK_RECORD
  5
49
330
9
100
AcDbSymbolTableRecord
100
AcDbBlockTableRecord
  2
*D1
340
0
 70
0
280
1
281
0
  0
BLOCK_RECORD
  5
4E
330
9
100
AcDbSymbolTableRecord
100
AcDbBlockTableRecord
  2
_CLOSEDFILLED
340
0
 70
0
280
1
281
0
  0
BLOCK_RECORD
  5
5D
330
9
100
AcDbSymbolTableRecord
100
AcDbBlockTableRecord
  2
*D2
340
0
 70
0
280
1
281
0
  0
BLOCK_RECORD
  5
87
330
9
100
AcDbSymbolTableRecord
100
AcDbBlockTableRecord
  2
*D3
340
0
 70
0
280
1
281
0
  0
BLOCK_RECORD
  5
97
330
9
100
AcDbSymbolTableRecord
100
AcDbBlockTableRecord
  2
*D4
340
0
 70
0
280
1
281
0
  0
BLOCK_RECORD
  5
BD
330
9
100
AcDbSymbolTableRecord
100
AcDbBlockTableRecord
  2
*D5
340
0
 70
0
280
1
281
0
  0
BLOCK_RECORD
  5
CD
330
9
100
AcDbSymbolTableRecord
100
AcDbBlockTableRecord
  2
*D6
340
0
 70
0
280
1
281
0
  0
ENDTAB
  0
ENDSEC
  0
SECTION
  2
BLOCKS
  0
BLOCK
  5
18
330
17
100
AcDbEntity
  8
0
100
AcDbBlockBegin
  2
*Model_Space
 70
0
 10
0.0
 20
0.0
 30
0.0
  3
*Model_Space
  1

  0
ENDBLK
  5
19
330
17
100
AcDbEntity
  8
0
100
AcDbBlockEnd
  0
BLOCK
  5
1C
330
1B
100
AcDbEntity
  8
0
100
AcDbBlockBegin
  2
*Paper_Space
 70
0
 10
0.0
 20
0.0
 30
0.0
  3
*Paper_Space
  1

  0
ENDBLK
  5
1D
330
1B
100
AcDbEntity
  8
0
100
AcDbBlockEnd
  0
BLOCK
  5
4A
330
49
100
AcDbEntity
  8
0
100
AcDbBlockBegin
  2
*D1
 70
1
 10
0.0
 20
0.0
 30
0.0
  3
*D1
  1

  0
LINE
  5
4C
330
49
100
AcDbEntity
  8
0
100
AcDbLine
 10
0.0
 20
0.0
 30
0.0
 11
0.0
 21
-24.0
 31
0.0
  0
LINE
  5
4D
330
49
100
AcDbEntity
  8
0
100
AcDbLine
 10
60.0000002
 20
0.0
 30
0.0
 11
60.0000002
 21
-24.0
 31
0.0
  0
INSERT
  5
52
330
49
100
AcDbEntity
  8
DIMENSIONS
100
AcDbBlockReference
  2
_CLOSEDFILLED
 10
0.0
 20
-24.0
 30
0.0
 41
3.0
 42
3.0
 50
180.0
  0
INSERT
  5
54
330
49
100
AcDbEntity
  8
DIMENSIONS
100
AcDbBlockReference
  2
_CLOSEDFILLED
 10
60.0000002
 20
-24.0
 30
0.0
 41
3.0
 42
3.0
  0
LINE
  5
56
330
49
100
AcDbEntity
  8
0
100
AcDbLine
 10
3.0
 20
-24.0
 30
0.0
 11
27.0000001
 21
-24.0
 31
0.0
  0
LINE
  5
57
330
49
100
AcDbEntity
  8
0
100
AcDbLine
 10
33.0000001
 20
-24.0
 30
0.0
 11
57.0000002
 21
-24.0
 31
0.0
  0
MTEXT
  5
58
330
49
100
AcDbEntity
  8
DIMENSIONS
100
AcDbMText
 10
30.0000001
 20
-24.0
 30
0.0
 40
3.0
 71
5
  1
60
  0
POINT
  5
59
330
49
100
AcDbEntity
  8
Defpoints
100
AcDbPoint
 10
0.0
 20
-24.0
 30
0.0
  0
POINT
  5
5A
330
49
100
AcDbEntity
  8
Defpoints
100
AcDbPoint
 10
0.0
 20
0.0
 30
0.0
  0
POINT
  5
5B
330
49
100
AcDbEntity
  8
Defpoints
100
AcDbPoint
 10
60.0000002
 20
0.0
 30
0.0
  0
ENDBLK
  5
4B
330
49
100
AcDbEntity
  8
0
100
AcDbBlockEnd
  0
BLOCK
  5
4F
330
4E
100
AcDbEntity
  8
0
100
AcDbBlockBegin
  2
_CLOSEDFILLED
 70
0
 10
0.0
 20
0.0
 30
0.0
  3
_CLOSEDFILLED
  1

  0
SOLID
  5
51
330
4E
100
AcDbEntity
  8
0
  6
BYBLOCK
 62
0
100
AcDbTrace
 10
-1.0
 20
0.16439898372402537
 30
0.0
 11
0.0
 21
0.0
 31
0.0
 12
-1.0
 22
-0.16439898372402537
 32
0.0
 13
-1.0
 23
-0.16439898372402537
 33
0.0
  0
ENDBLK
  5
50
330
4E
100
AcDbEntity
  8
0
100
AcDbBlockEnd
  0
BLOCK
  5
5E
330
5D
100
AcDbEntity
  8
0
100
AcDbBlockBegin
  2
*D2
 70
1
 10
0.0
 20
0.0
 30
0.0
  3
*D2
  1

  0
LINE
  5
60
330
5D
100
AcDbEntity
  8
0
100
AcDbLine
 10
0.0
 20
0.0
 30
0.0
 11
-24.0
 21
0.0
 31
0.0
  0
LINE
  5
61
330
5D
100
AcDbEntity
  8
0
100
AcDbLine
 10
0.0
 20
60.0000002
 30
0.0
 11
-24.0
 21
60.0000002
 31
0.0
  0
INSERT
  5
62
330
5D
100
AcDbEntity
  8
DIMENSIONS
100
AcDbBlockReference
  2
_CLOSEDFILLED
 10
-24.0
 20
0.0
 30
0.0
 41
3.0
 42
3.0
 50
270.0
  0
INSERT
  5
64
330
5D
100
AcDbEntity
  8
DIMENSIONS
100
AcDbBlockReference
  2
_CLOSEDFILLED
 10
-24.0
 20
60.0000002
 30
0.0
 41
3.0
 42
3.0
 50
90.0
  0
LINE
  5
66
330
5D
100
AcDbEntity
  8
0
100
AcDbLine
 10
-24.0
 20
3.0
 30
0.0
 11
-24.0
 21
27.0000001
 31
0.0
  0
LINE
  5
67
330
5D
100
AcDbEntity
  8
0
100
AcDbLine
 10
-24.0
 20
33.0000001
 30
0.0
 11
-24.0
 21
57.0000002
 31
0.0
  0
MTEXT
  5
68
330
5D
100
AcDbEntity
  8
DIMENSIONS
100
AcDbMText
 10
-24.0
 20
30.0000001
 30
0.0
 40
3.0
 71
5
  1
60
 50
90.0
  0
POINT
  5
69
330
5D
100
AcDbEntity
  8
Defpoints
100
AcDbPoint
 10
-24.0
 20
0.0
 30
0.0
  0
POINT
  5
6A
330
5D
100
AcDbEntity
  8
Defpoints
100
AcDbPoint
 10
0.0
 20
0.0
 30
0.0
  0
POINT
  5
6B
330
5D
100
AcDbEntity
  8
Defpoints
100
AcDbPoint
 10
0.0
 20
60.0000002
 30
0.0
  0
ENDBLK
  5
5F
330
5D
100
AcDbEntity
  8
0
100
AcDbBlockEnd
  0
BLOCK
  5
88
330
87
100
AcDbEntity
  8
0
100
AcDbBlockBegin
  2
*D3
 70
1
 10
0.0
 20
0.0
 30
0.0
  3
*D3
  1

  0
LINE
  5
8A
330
87
100
AcDbEntity
  8
0
100
AcDbLine
 10
0.0
 20
-7000.0000002
 30
0.0
 11
0.0
 21
-7024.0000002
 31
0.0
  0
LINE
  5
8B
330
87
100
AcDbEntity
  8
0
100
AcDbLine
 10
60.0000002
 20
-7000.0000002
 30
0.0
 11
60.0000002
 21
-7024.0000002
 31
0.0
  0
INSERT
  5
8C
330
87
100
AcDbEntity
  8
DIMENSIONS
100
AcDbBlockReference
  2
_CLOSEDFILLED
 10
0.0
 20
-7024.0000002
 30
0.0
 41
3.0
 42
3.0
 50
180.0
  0
INSERT
  5
8E
330
87
100
AcDbEntity
  8
DIMENSIONS
100
AcDbBlockReference
  2
_CLOSEDFILLED
 10
60.0000002
 20
-7024.0000002
 30
0.0
 41
3.0
 42
3.0
  0
LINE
  5
90
330
87
100
AcDbEntity
  8
0
100
AcDbLine
 10
3.0
 20
-7024.0000002
 30
0.0
 11
27.0000001
 21
-7024.0000002
 31
0.0
  0
LINE
  5
91
330
87
100
AcDbEntity
  8
0
100
AcDbLine
 10
33.0000001
 20
-7024.0000002
 30
0.0
 11
57.0000002
 21
-7024.0000002
 31
0.0
  0
MTEXT
  5
92
330
87
100
AcDbEntity
  8
DIMENSIONS
100
AcDbMText
 10
30.0000001
 20
-7024.0000002
 30
0.0
 40
3.0
 71
5
  1
60
  0
POINT
  5
93
330
87
100
AcDbEntity
  8
Defpoints
100
AcDbPoint
 10
0.0
 20
-7024.0000002
 30
0.0
  0
POINT
  5
94
330
87
100
AcDbEntity
  8
Defpoints
100
AcDbPoint
 10
0.0
 20
-7000.0000002
 30
0.0
  0
POINT
  5
95
330
87
100
AcDbEntity
  8
Defpoints
100
AcDbPoint
 10
60.0000002
 20
-7000.0000002
 30
0.0
  0
ENDBLK
  5
89
330
87
100
AcDbEntity
  8
0
100
AcDbBlockEnd
  0
BLOCK
  5
98
330
97
100
AcDbEntity
  8
0
100
AcDbBlockBegin
  2
*D4
 70
1
 10
0.0
 20
0.0
 30
0.0
  3
*D4
  1

  0
LINE
  5
9A
330
97
100
AcDbEntity
  8
0
100
AcDbLine
 10
0.0
 20
-7000.0000002
 30
0.0
 11
-24.0
 21
-7000.0000002
 31
0.0
  0
LINE
  5
9B
330
97
100
AcDbEntity
  8
0
100
AcDbLine
 10
0.0
 20
-100.0
 30
0.0
 11
-24.0
 21
-100.0
 31
0.0
  0
INSERT
  5
9C
330
97
100
AcDbEntity
  8
DIMENSIONS
100
AcDbBlockReference
  2
_CLOSEDFILLED
 10
-24.0
 20
-7000.0000002
 30
0.0
 41
3.0
 42
3.0
 50
270.0
  0
INSERT
  5
9E
330
97
100
AcDbEntity
  8
DIMENSIONS
100
AcDbBlockReference
  2
_CLOSEDFILLED
 10
-24.0
 20
-100.0
 30
0.0
 41
3.0
 42
3.0
 50
90.0
  0
LINE
  5
A0
330
97
100
AcDbEntity
  8
0
100
AcDbLine
 10
-24.0
 20
-6997.0000002
 30
0.0
 11
-24.0
 21
-3556.0000001
 31
0.0
  0
LINE
  5
A1
330
97
100
AcDbEntity
  8
0
100
AcDbLine
 10
-24.0
 20
-3544.0000001
 30
0.0
 11
-24.0
 21
-103.0
 31
0.0
  0
MTEXT
  5
A2
330
97
100
AcDbEntity
  8
DIMENSIONS
100
AcDbMText
 10
-24.0
 20
-3550.0000001
 30
0.0
 40
3.0
 71
5
  1
6900
 50
90.0
  0
POINT
  5
A3
330
97
100
AcDbEntity
  8
Defpoints
100
AcDbPoint
 10
-24.0
 20
-7000.0000002
 30
0.0
  0
POINT
  5
A4
330
97
100
AcDbEntity
  8
Defpoints
100
AcDbPoint
 10
0.0
 20
-7000.0000002
 30
0.0
  0
POINT
  5
A5
330
97
100
AcDbEntity
  8
Defpoints
100
AcDbPoint
 10
0.0
 20
-100.0
 30
0.0
  0
ENDBLK
  5
99
330
97
100
AcDbEntity
  8
0
100
AcDbBlockEnd
  0
BLOCK
  5
BE
330
BD
100
AcDbEntity
  8
0
100
AcDbBlockBegin
  2
*D5
 70
1
 10
0.0
 20
0.0
 30
0.0
  3
*D5
  1

  0
LINE
  5
C0
330
BD
100
AcDbEntity
  8
0
100
AcDbLine
 10
160.0000002
 20
0.0
 30
0.0
 11
160.0000002
 21
-24.0
 31
0.0
  0
LINE
  5
C1
330
BD
100
AcDbEntity
  8
0
100
AcDbLine
 10
220.00000039999998
 20
0.0
 30
0.0
 11
220.00000039999998
 21
-24.0
 31
0.0
  0
INSERT
  5
C2
330
BD
100
AcDbEntity
  8
DIMENSIONS
100
AcDbBlockReference
  2
_CLOSEDFILLED
 10
160.0000002
 20
-24.0
 30
0.0
 41
3.0
 42
3.0
 50
180.0
  0
INSERT
  5
C4
330
BD
100
AcDbEntity
  8
DIMENSIONS
100
AcDbBlockReference
  2
_CLOSEDFILLED
 10
220.00000039999998
 20
-24.0
 30
0.0
 41
3.0
 42
3.0
  0
LINE
  5
C6
330
BD
100
AcDbEntity
  8
0
100
AcDbLine
 10
163.0000002
 20
-24.0
 30
0.0
 11
187.00000029999998
 21
-24.0
 31
0.0
  0
LINE
  5
C7
330
BD
100
AcDbEntity
  8
0
100
AcDbLine
 10
193.00000029999998
 20
-24.0
 30
0.0
 11
217.00000039999998
 21
-24.0
 31
0.0
  0
MTEXT
  5
C8
330
BD
100
AcDbEntity
  8
DIMENSIONS
100
AcDbMText
 10
190.00000029999998
 20
-24.0
 30
0.0
 40
3.0
 71
5
  1
60
  0
POINT
  5
C9
330
BD
100
AcDbEntity
  8
Defpoints
100
AcDbPoint
 10
160.0000002
 20
-24.0
 30
0.0
  0
POINT
  5
CA
330
BD
100
AcDbEntity
  8
Defpoints
100
AcDbPoint
 10
160.0000002
 20
0.0
 30
0.0
  0
POINT
  5
CB
330
BD
100
AcDbEntity
  8
Defpoints
100
AcDbPoint
 10
220.00000039999998
 20
0.0
 30
0.0
  0
ENDBLK
  5
BF
330
BD
100
AcDbEntity
  8
0
100
AcDbBlockEnd
  0
BLOCK
  5
CE
330
CD
100
AcDbEntity
  8
0
100
AcDbBlockBegin
  2
*D6
 70
1
 10
0.0
 20
0.0
 30
0.0
  3
*D6
  1

  0
LINE
  5
D0
330
CD
100
AcDbEntity
  8
0
100
AcDbLine
 10
160.0000002
 20
0.0
 30
0.0
 11
136.0000002
 21
0.0
 31
0.0
  0
LINE
  5
D1
330
CD
100
AcDbEntity
  8
0
100
AcDbLine
 10
160.0000002
 20
6900.0000002
 30
0.0
 11
136.0000002
 21
6900.0000002
 31
0.0
  0
INSERT
  5
D2
330
CD
100
AcDbEntity
  8
DIMENSIONS
100
AcDbBlockReference
  2
_CLOSEDFILLED
 10
136.0000002
 20
0.0
 30
0.0
 41
3.0
 42
3.0
 50
270.0
  0
INSERT
  5
D4
330
CD
100
AcDbEntity
  8
DIMENSIONS
100
AcDbBlockReference
  2
_CLOSEDFILLED
 10
136.0000002
 20
6900.0000002
 30
0.0
 41
3.0
 42
3.0
 50
90.0
  0
LINE
  5
D6
330
CD
100
AcDbEntity
  8
0
100
AcDbLine
 10
136.0000002
 20
3.0
 30
0.0
 11
136.0000002
 21
3444.0000001
 31
0.0
  0
LINE
  5
D7
330
CD
100
AcDbEntity
  8
0
100
AcDbLine
 10
136.0000002
 20
3456.0000001
 30
0.0
 11
136.0000002
 21
6897.0000002
 31
0.0
  0
MTEXT
  5
D8
330
CD
100
AcDbEntity
  8
DIMENSIONS
100
AcDbMText
 10
136.0000002
 20
3450.0000001
 30
0.0
 40
3.0
 71
5
  1
6900
 50
90.0
  0
POINT
  5
D9
330
CD
100
AcDbEntity
  8
Defpoints
100
AcDbPoint
 10
136.0000002
 20
0.0
 30
0.0
  0
POINT
  5
DA
330
CD
100
AcDbEntity
  8
Defpoints
100
AcDbPoint
 10
160.0000002
 20
0.0
 30
0.0
  0
POINT
  5
DB
330
CD
100
AcDbEntity
  8
Defpoints
100
AcDbPoint
 10
160.0000002
 20
6900.0000002
 30
0.0
  0
ENDBLK
  5
CF
330
CD
100
AcDbEntity
  8
0
100
AcDbBlockEnd
  0
ENDSEC
  0
SECTION
  2
ENTITIES
  0
LWPOLYLINE
  5
34
330
17
100
AcDbEntity
  8
XY
100
AcDbPolyline
 90
16
 70
0
 10
60.0000001
 20
30.000000099999998
 10
59.97811692859649
 20
28.854351133323053
 10
59.916276516951015
 20
27.760266779749607
 10
59.82515066996547
 20
26.765747026598635
 10
59.72031246236529
 20
25.91306568294856
 10
59.61966159419756
 20
25.23810416413457
 10
59.54060912941992
 20
24.77004616649796
 10
59.49715050820622
 20
24.530254422031057
 10
59.497150508772854
 20
24.530254424244177
 10
59.54060912960253
 20
24.770046167170726
 10
59.61966159419896
 20
25.23810416414329
 10
59.720312462366905
 20
25.913065682960227
 10
59.82515066997026
 20
26.765747026561915
 10
59.916276516951655
 20
27.760266779758073
 10
59.978116928633675
 20
28.85435113335458
 10
60.0000001
 20
30.000000099999998
  0
LWPOLYLINE
  5
35
330
17
100
AcDbEntity
  8
XY
100
AcDbPolyline
 90
16
 70
0
 10
60.0000001
 20
30.000000099999998
 10
59.978116928595966
 20
28.85435113330937
 10
59.91627651694911
 20
27.760266779724088
 10
59.82515066996578
 20
26.76574702652058
 10
59.72031246234562
 20
25.913065682632666
 10
59.61966159420584
 20
25.238104164156248
 10
59.5406091294213
 20
24.77004616650573
 10
59.49715050820644
 20
24.530254422032222
 10
59.49715050877291
 20
24.530254424244475
 10
59.54060912960345
 20
24.77004616717594
 10
59.619661594206576
 20
25.23810416416088
 10
59.72031246234647
 20
25.91306568263885
 10
59.82515066996659
 20
26.765747026528057
 10
59.91627651694975
 20
27.76026677973256
 10
59.978116928633156
 20
28.8543511333409
 10
60.0000001
 20
30.000000099999998
  0
LWPOLYLINE
  5
36
330
17
100
AcDbEntity
  8
XY
100
AcDbPolyline
 90
49
 70
0
 10
60.0000001
 20
30.0000001
 10
59.743345941214315
 20
33.915785866601546
 10
58.97777488867205
 20
37.764571453075625
 10
57.716386075338605
 20
41.48050307095269
 10
55.98076221353316
 20
45.0000001
 10
53.80060030873706
 20
48.262842970261616
 10
51.213203535596435
 20
51.21320353559642
 10
48.262842970261616
 20
53.80060030873706
 10
45.00000010000001
 20
55.980762213533154
 10
41.4805030709527
 20
57.716386075338605
 10
37.764571453075625
 20
58.97777488867205
 10
33.91578586660155
 20
59.743345941214315
 10
30.00000010000001
 20
60.0000001
 10
26.084214333398467
 20
59.743345941214315
 10
22.235428746924384
 20
58.97777488867205
 10
18.51949712904731
 20
57.716386075338605
 10
15.000000100000006
 20
55.98076221353316
 10
11.737157229738383
 20
53.80060030873706
 10
8.786796664403589
 20
51.213203535596435
 10
6.19939989126296
 20
48.26284297026164
 10
4.019237986466841
 20
45.0000001
 10
2.283614124661405
 20
41.48050307095271
 10
1.0222253113279542
 20
37.76457145307563
 10
0.2566542587856908
 20
33.91578586660156
 10
1.0000000116860974e-07
 20
30.00000010000002
 10
0.25665425878568726
 20
26.08421433339846
 10
1.0222253113279436
 20
22.235428746924406
 10
2.283614124661394
 20
18.51949712904731
 10
4.0192379864668375
 20
15.000000100000008
 10
6.199399891262928
 20
11.7371572297384
 10
8.786796664403571
 20
8.786796664403578
 10
11.737157229738376
 20
6.199399891262953
 10
15.000000099999987
 20
4.019237986466848
 10
18.51949712904729
 20
2.283614124661405
 10
22.235428746924384
 20
1.0222253113279507
 10
26.084214333398428
 20
0.25665425878569437
 10
30.00000009999997
 20
1.0000000116860974e-07
 10
33.91578586660154
 20
0.25665425878568726
 10
37.76457145307558
 20
1.0222253113279436
 10
41.48050307095268
 20
2.2836141246613906
 10
45.00000010000001
 20
4.019237986466845
 10
48.262842970261616
 20
6.199399891262946
 10
51.213203535596406
 20
8.78679666440355
 10
53.800600308737046
 20
11.737157229738376
 10
55.980762213533154
 20
15.000000099999987
 10
57.7163860753386
 20
18.519497129047288
 10
58.977774888672045
 20
22.235428746924356
 10
59.74334594121431
 20
26.084214333398425
 10
60.0000001
 20
30.000000099999966
  0
LWPOLYLINE
  5
37
330
17
100
AcDbEntity
  8
XY
100
AcDbPolyline
 90
16
 70
0
 10
60.0000001
 20
30.0000001
 10
59.978116928596236
 20
31.145649066683763
 10
59.91627651695008
 20
32.23973342026311
 10
59.825150669963634
 20
33.23425317341821
 10
59.72031246236274
 20
34.08693451707001
 10
59.61966159419475
 20
34.76189603588286
 10
59.54060912941764
 20
35.22995403351497
 10
59.49715050820528
 20
35.46974577797405
 10
59.49715050877394
 20
35.469745775749985
 10
59.54060912960596
 20
35.22995403280988
 10
59.619661594204544
 20
34.76189603582191
 10
59.720312462373926
 20
34.08693451698867
 10
59.82515066997757
 20
33.2342531733707
 10
59.916276516957836
 20
32.23973342015935
 10
59.97811692893005
 20
31.145649066492613
 10
60.0000001
 20
30.0000001
  0
LWPOLYLINE
  5
38
330
17
100
AcDbEntity
  8
XY
100
AcDbPolyline
 90
16
 70
0
 10
60.0000001
 20
30.0000001
 10
59.97811692859575
 20
31.14564906669637
 10
59.916276516948315
 20
32.23973342028661
 10
59.82515066996026
 20
33.23425317344939
 10
59.72031246234271
 20
34.08693451738849
 10
59.619661594202825
 20
34.761896035862534
 10
59.540609129418925
 20
35.2299540335077
 10
59.49715050820548
 20
35.46974577797294
 10
59.497150508773984
 20
35.469745775749736
 10
59.54060912960679
 20
35.229954032805175
 10
59.61966159421195
 20
34.761896035805734
 10
59.720312462353135
 20
34.08693451731265
 10
59.8251506699702
 20
33.234253173357665
 10
59.91627651695608
 20
32.23973342018285
 10
59.978116928929566
 20
31.14564906650523
 10
60.0000001
 20
30.0000001
  0
LWPOLYLINE
  5
39
330
17
100
AcDbEntity
  8
XY
100
AcDbPolyline
 90
49
 70
0
 10
60.0000001
 20
30.0000001
 10
59.743345941214315
 20
33.915785866601546
 10
58.97777488867205
 20
37.764571453075625
 10
57.716386075338605
 20
41.48050307095269
 10
55.98076221353316
 20
45.0000001
 10
53.80060030873706
 20
48.262842970261616
 10
51.213203535596435
 20
51.21320353559642
 10
48.262842970261616
 20
53.80060030873706
 10
45.00000010000001
 20
55.980762213533154
 10
41.4805030709527
 20
57.716386075338605
 10
37.764571453075625
 20
58.97777488867205
 10
33.91578586660155
 20
59.743345941214315
 10
30.00000010000001
 20
60.0000001
 10
26.084214333398467
 20
59.743345941214315
 10
22.235428746924384
 20
58.97777488867205
 10
18.51949712904731
 20
57.716386075338605
 10
15.000000100000006
 20
55.98076221353316
 10
11.737157229738383
 20
53.80060030873706
 10
8.786796664403589
 20
51.213203535596435
 10
6.19939989126296
 20
48.26284297026164
 10
4.019237986466841
 20
45.0000001
 10
2.283614124661405
 20
41.48050307095271
 10
1.0222253113279542
 20
37.76457145307563
 10
0.2566542587856908
 20
33.91578586660156
 10
1.0000000116860974e-07
 20
30.00000010000002
 10
0.25665425878568726
 20
26.08421433339846
 10
1.0222253113279436
 20
22.235428746924406
 10
2.283614124661394
 20
18.51949712904731
 10
4.0192379864668375
 20
15.000000100000008
 10
6.199399891262928
 20
11.7371572297384
 10
8.786796664403571
 20
8.786796664403578
 10
11.737157229738376
 20
6.199399891262953
 10
15.000000099999987
 20
4.019237986466848
 10
18.51949712904729
 20
2.283614124661405
 10
22.235428746924384
 20
1.0222253113279507
 10
26.084214333398428
 20
0.25665425878569437
 10
30.00000009999997
 20
1.0000000116860974e-07
 10
33.91578586660154
 20
0.25665425878568726
 10
37.76457145307558
 20
1.0222253113279436
 10
41.48050307095268
 20
2.2836141246613906
 10
45.00000010000001
 20
4.019237986466845
 10
48.262842970261616
 20
6.199399891262946
 10
51.213203535596406
 20
8.78679666440355
 10
53.800600308737046
 20
11.737157229738376
 10
55.980762213533154
 20
15.000000099999987
 10
57.7163860753386
 20
18.519497129047288
 10
58.977774888672045
 20
22.235428746924356
 10
59.74334594121431
 20
26.084214333398425
 10
60.0000001
 20
30.000000099999966
  0
LWPOLYLINE
  5
3A
330
17
100
AcDbEntity
  8
XY
100
AcDbPolyline
 90
16
 70
0
 10
1.0000000116860974e-07
 20
30.000000100000005
 10
0.08372368305025901
 20
27.76026677973243
 10
0.2796877376527114
 20
25.913065682644866
 10
0.4593910705771975
 20
24.770046166514227
 10
0.5028496912278015
 20
24.530254424240646
 10
0.380338605797089
 20
25.238104164138043
 10
0.1748495300414703
 20
26.76574702653467
 10
0.021883274910994288
 20
28.85435113227744
 10
0.0218832315600892
 20
31.145649067468476
 10
0.17484953004188597
 20
33.23425317346918
 10
0.3803386057974727
 20
34.76189603586433
 10
0.5028496917941894
 20
35.46974577797114
 10
0.45939107039530214
 20
35.229954032816984
 10
0.27968773762773225
 20
34.08693451700068
 10
0.08372368304249278
 20
32.239733420163795
 10
1.0000000116860974e-07
 20
30.000000100000005
  0
LWPOLYLINE
  5
3B
330
17
100
AcDbEntity
  8
XY
100
AcDbPolyline
 90
16
 70
0
 10
1.0000000116860974e-07
 20
30.000000100000005
 10
0.0837236830498469
 20
27.760266779738053
 10
0.2796877376515745
 20
25.91306568265312
 10
0.45939107057618145
 20
24.770046166519954
 10
0.5028496912282812
 20
24.53025442423806
 10
0.38033860579956524
 20
25.238104164122646
 10
0.17484953004470682
 20
26.76574702650482
 10
0.02188327491260722
 20
28.8543511322352
 10
0.021883231558245342
 20
31.1456490674202
 10
0.1748495300370294
 20
33.234253173424406
 10
0.38033860580575407
 20
34.76189603588602
 10
0.5028496917948253
 20
35.46974577797458
 10
0.4593910703938384
 20
35.2299540328087
 10
0.2796877376258422
 20
34.086934516986965
 10
0.08372368304207711
 20
32.23973342015818
 10
1.0000000116860974e-07
 20
30.000000100000005
  0
LWPOLYLINE
  5
3C
330
17
100
AcDbEntity
  8
XY
100
AcDbPolyline
 90
2
 70
0
 10
57.0000001
 20
30.0000001
 10
60.0000001
 20
30.0000001
  0
LWPOLYLINE
  5
3D
330
17
100
AcDbEntity
  8
XY
100
AcDbPolyline
 90
16
 70
0
 10
57.0000001
 20
30.000000100000005
 10
56.97566167050448
 20
31.14616019764834
 10
56.906889540915564
 20
32.240379584087115
 10
56.80554642143877
 20
33.23460766904081
 10
56.688903475522075
 20
34.08686150961373
 10
56.57681526549798
 20
34.76160649303909
 10
56.488671427658936
 20
35.229750694120106
 10
56.44016289511147
 20
35.46971593854381
 10
56.44016289594107
 20
35.469715935569354
 10
56.488671427868894
 20
35.229750693416214
 10
56.57681526553293
 20
34.76160649265312
 10
56.68890347556926
 20
34.08686150896283
 10
56.80554642598166
 20
33.23460765062475
 10
56.90688955065818
 20
32.240379568176415
 10
56.97566166844648
 20
31.1461601980249
 10
57.0000001
 20
30.0000001
  0
LWPOLYLINE
  5
3E
330
17
100
AcDbEntity
  8
XY
100
AcDbPolyline
 90
16
 70
0
 10
57.0000001
 20
30.000000099999998
 10
56.97566167050419
 20
28.85384000234486
 10
56.906889540914506
 20
27.759620615900197
 10
56.80554642143674
 20
26.765392530942364
 10
56.688903475519226
 20
25.913138690367692
 10
56.57681526549487
 20
25.238393706943526
 10
56.48867142765638
 20
24.770249505866946
 10
56.44016289511042
 20
24.53028426145108
 10
56.44016289594228
 20
24.530284264436474
 10
56.48867142787272
 20
24.770249506603182
 10
56.57681526553914
 20
25.23839370738157
 10
56.68890347557707
 20
25.913138691088193
 10
56.80554642598979
 20
26.765392549442538
 10
56.90688955059427
 20
27.75962063189134
 10
56.975661668638615
 20
28.853840002187358
 10
57.0000001
 20
30.0000001
  0
LWPOLYLINE
  5
3F
330
17
100
AcDbEntity
  8
XY
100
AcDbPolyline
 90
2
 70
0
 10
57.0000001
 20
30.0000001
 10
60.0000001
 20
30.0000001
  0
LWPOLYLINE
  5
40
330
17
100
AcDbEntity
  8
XY
100
AcDbPolyline
 90
16
 70
0
 10
57.0000001
 20
30.000000100000005
 10
56.975661670504195
 20
31.14616019765499
 10
56.906889540914534
 20
32.240379584099514
 10
56.80554642143679
 20
33.23460766905724
 10
56.688903475519304
 20
34.08686150963186
 10
56.576815265494936
 20
34.761606493056085
 10
56.48867142765644
 20
35.22975069413274
 10
56.44016289511045
 20
35.4697159385488
 10
56.44016289594225
 20
35.46971593556365
 10
56.48867142787263
 20
35.22975069339728
 10
56.5768152655091
 20
34.761606492977066
 10
56.688903475535454
 20
34.08686150952633
 10
56.80554642597968
 20
33.23460765064121
 10
56.90688955065714
 20
32.24037956818883
 10
56.97566166844619
 20
31.146160198031556
 10
57.0000001
 20
30.0000001
  0
LWPOLYLINE
  5
41
330
17
100
AcDbEntity
  8
XY
100
AcDbPolyline
 90
16
 70
0
 10
57.0000001
 20
30.000000099999998
 10
56.97566167050417
 20
28.85384000234433
 10
56.90688954091442
 20
27.759620615899212
 10
56.80554642143659
 20
26.76539253094106
 10
56.68890347551901
 20
25.913138690366264
 10
56.57681526549463
 20
25.238393706942208
 10
56.48867142765618
 20
24.770249505865944
 10
56.44016289511033
 20
24.530284261450685
 10
56.44016289594237
 20
24.53028426443693
 10
56.488671427873015
 20
24.77024950660468
 10
56.576815265539615
 20
25.23839370738427
 10
56.68890347557768
 20
25.913138691092175
 10
56.805546425990855
 20
26.765392549432903
 10
56.906889550594194
 20
27.759620631890364
 10
56.975661668638594
 20
28.853840002186836
 10
57.0000001
 20
30.0000001
  0
LWPOLYLINE
  5
42
330
17
100
AcDbEntity
  8
XY
100
AcDbPolyline
 90
44
 70
0
 10
57.0000001
 20
30.0000001
 10
56.71227103802798
 20
33.93123162884513
 10
55.855216297526965
 20
37.77867578286141
 10
54.447102512314956
 20
41.460330969647
 10
52.51794118302671
 20
44.89772910080204
 10
50.10884903408211
 20
48.01760800300047
 10
47.27117168209007
 20
50.75347287402037
 10
44.06538929317412
 20
53.047013504008355
 10
40.559827553234214
 20
54.84934705636731
 10
36.82920142457539
 20
56.122059920550484
 10
32.953022726202605
 20
56.83802643147854
 10
29.013905477443217
 20
56.981987005996466
 10
25.09580512355522
 20
56.55087337439559
 10
21.28222917117096
 20
55.553873975255456
 10
17.654457370774765
 20
54.01223811982801
 10
14.28980937993528
 20
51.95882309986027
 10
11.259996829042883
 20
49.43739389146589
 10
8.629594912410141
 20
46.50169038064193
 10
6.454666080117203
 20
43.214281990899316
 10
4.78156516422121
 20
39.6452341246306
 10
3.645951405989969
 20
35.87061484070203
 10
3.0720284410841074
 20
31.970873595844505
 10
3.0720284410841074
 20
28.029126604155504
 10
3.6459514059899654
 20
24.129385359297974
 10
4.781565164221206
 20
20.35476607536942
 10
6.454666080117189
 20
16.7857182091007
 10
8.62959491241013
 20
13.498309819358084
 10
11.25999682904288
 20
10.562606308534118
 10
14.289809379935273
 20
8.041177100139738
 10
17.654457370774757
 20
5.9877620801719935
 10
21.28222917117094
 20
4.446126224744553
 10
25.095805123555202
 20
3.44912682560442
 10
29.013905477443217
 20
3.0180131940035366
 10
32.953022726202605
 20
3.161973768521463
 10
36.82920142457537
 20
3.8779402794495184
 10
40.5598275532342
 20
5.150653143632692
 10
44.06538929317411
 20
6.952986695991637
 10
47.27117168209005
 20
9.24652732597962
 10
50.1088490340821
 20
11.982392196999516
 10
52.517941183026686
 20
15.102271099197932
 10
54.44710251231496
 20
18.539669230353002
 10
55.855216297526965
 20
22.22132441713859
 10
56.71227103802798
 20
26.06876857115487
 10
57.0000001
 20
30.000000099999994
  0
LWPOLYLINE
  5
43
330
17
100
AcDbEntity
  8
XY
100
AcDbPolyline
 90
44
 70
0
 10
57.0000001
 20
30.0000001
 10
56.71227103802798
 20
33.93123162884513
 10
55.855216297526965
 20
37.77867578286141
 10
54.447102512314956
 20
41.460330969647
 10
52.51794118302671
 20
44.89772910080204
 10
50.10884903408211
 20
48.01760800300047
 10
47.27117168209007
 20
50.75347287402037
 10
44.06538929317412
 20
53.047013504008355
 10
40.559827553234214
 20
54.84934705636731
 10
36.82920142457539
 20
56.122059920550484
 10
32.953022726202605
 20
56.83802643147854
 10
29.013905477443217
 20
56.981987005996466
 10
25.09580512355522
 20
56.55087337439559
 10
21.28222917117096
 20
55.553873975255456
 10
17.654457370774765
 20
54.01223811982801
 10
14.28980937993528
 20
51.95882309986027
 10
11.259996829042883
 20
49.43739389146589
 10
8.629594912410141
 20
46.50169038064193
 10
6.454666080117203
 20
43.214281990899316
 10
4.78156516422121
 20
39.6452341246306
 10
3.645951405989969
 20
35.87061484070203
 10
3.0720284410841074
 20
31.970873595844505
 10
3.0720284410841074
 20
28.029126604155504
 10
3.6459514059899654
 20
24.129385359297974
 10
4.781565164221206
 20
20.35476607536942
 10
6.454666080117189
 20
16.7857182091007
 10
8.62959491241013
 20
13.498309819358084
 10
11.25999682904288
 20
10.562606308534118
 10
14.289809379935273
 20
8.041177100139738
 10
17.654457370774757
 20
5.9877620801719935
 10
21.28222917117094
 20
4.446126224744553
 10
25.095805123555202
 20
3.44912682560442
 10
29.013905477443217
 20
3.0180131940035366
 10
32.953022726202605
 20
3.161973768521463
 10
36.82920142457537
 20
3.8779402794495184
 10
40.5598275532342
 20
5.150653143632692
 10
44.06538929317411
 20
6.952986695991637
 10
47.27117168209005
 20
9.24652732597962
 10
50.1088490340821
 20
11.982392196999516
 10
52.517941183026686
 20
15.102271099197932
 10
54.44710251231496
 20
18.539669230353002
 10
55.855216297526965
 20
22.22132441713859
 10
56.71227103802798
 20
26.06876857115487
 10
57.0000001
 20
30.000000099999994
  0
LWPOLYLINE
  5
44
330
17
100
AcDbEntity
  8
XY
100
AcDbPolyline
 90
16
 70
0
 10
3.000000100000001
 20
30.000000100000005
 10
3.093110659081038
 20
27.759620615953732
 10
3.311096724437757
 20
25.91313869099132
 10
3.5113287723390947
 20
24.770249505889886
 10
3.5598373040606006
 20
24.530284264422555
 10
3.423184934507887
 20
25.23839370692818
 10
3.1944537740444616
 20
26.76539254915875
 10
3.024338482685028
 20
28.853840001605164
 10
3.024338533161764
 20
31.1461601987357
 10
3.194453774060648
 20
33.234607650975406
 10
3.4231849345227694
 20
34.76160649315488
 10
3.559837304892593
 20
35.46971593856344
 10
3.5113287721224147
 20
35.229750693372154
 10
3.311096724420768
 20
34.086861508897705
 10
3.0931106493384206
 20
32.240379568135594
 10
3.000000100000001
 20
30.000000100000005
  0
LWPOLYLINE
  5
45
330
17
100
AcDbEntity
  8
XY
100
AcDbPolyline
 90
2
 70
0
 10
1.0000000116860974e-07
 20
30.0000001
 10
3.000000100000001
 20
30.0000001
  0
LWPOLYLINE
  5
46
330
17
100
AcDbEntity
  8
XY
100
AcDbPolyline
 90
16
 70
0
 10
3.000000100000001
 20
30.000000100000005
 10
3.0931106590809954
 20
27.759620615954177
 10
3.311096724437654
 20
25.913138690991996
 10
3.511328772339006
 20
24.770249505890327
 10
3.5598373040606504
 20
24.53028426442235
 10
3.4231849345081145
 20
25.238393706926903
 10
3.1944537740447636
 20
26.765392549156257
 10
3.0243384826844206
 20
28.853840001600318
 10
3.024338533161565
 20
31.146160198731216
 10
3.194453774060154
 20
33.2346076509713
 10
3.4231849345222685
 20
34.761606493152094
 10
3.5598373048924614
 20
35.46971593856281
 10
3.5113287721228197
 20
35.22975069337419
 10
3.3110967244214926
 20
34.08686150890246
 10
3.0931106493383815
 20
32.24037956813514
 10
3.000000100000001
 20
30.000000100000005
  0
LWPOLYLINE
  5
47
330
17
100
AcDbEntity
  8
XY
100
AcDbPolyline
 90
2
 70
0
 10
1.0000000116860974e-07
 20
30.0000001
 10
3.000000100000001
 20
30.0000001
  0
DIMENSION
  5
48
330
17
100
AcDbEntity
  8
DIMENSIONS
100
AcDbDimension
280
0
  2
*D1
  3
Standard
 10
0.0
 20
-24.0
 30
0.0
 11
30.0000001
 21
-24.0
 31
0.0
 70
32
 71
5
  1
<>
100
AcDbAlignedDimension
 13
0.0
 23
0.0
 33
0.0
 14
60.0000002
 24
0.0
 34
0.0
 50
0.0
100
AcDbRotatedDimension
1001
ACAD
1000
DSTYLE
1002
{
1070
140
1040
3.0
1070
41
1040
3.0
1070
271
1070
3
1002
}
  0
DIMENSION
  5
5C
330
17
100
AcDbEntity
  8
DIMENSIONS
100
AcDbDimension
280
0
  2
*D2
  3
Standard
 10
-24.0
 20
0.0
 30
0.0
 11
-24.0
 21
30.0000001
 31
0.0
 70
32
 71
5
  1
<>
100
AcDbAlignedDimension
 13
0.0
 23
0.0
 33
0.0
 14
0.0
 24
60.0000002
 34
0.0
 50
90.0
100
AcDbRotatedDimension
1001
ACAD
1000
DSTYLE
1002
{
1070
140
1040
3.0
1070
41
1040
3.0
1070
271
1070
3
1002
}
  0
LWPOLYLINE
  5
6C
330
17
100
AcDbEntity
  8
XZ
100
AcDbPolyline
 90
16
 70
0
 10
60.0000001
 20
-124.50000009999985
 10
59.97811692859649
 20
-124.62064248020761
 10
59.916276516951015
 20
-124.97669494771617
 10
59.82515066996547
 20
-125.55144898142862
 10
59.72031246236529
 20
-126.3193796185451
 10
59.61966159419756
 20
-127.24784691003515
 10
59.54060912941992
 20
-128.29777158583693
 10
59.49715050820622
 20
-129.42390788395005
 10
59.497150508772854
 20
-130.57609231575134
 10
59.54060912960253
 20
-131.7022286139054
 10
59.61966159419896
 20
-132.75215328998001
 10
59.720312462366905
 20
-133.68062058146825
 10
59.82515066997026
 20
-134.44855121864657
 10
59.916276516951655
 20
-135.02330525228717
 10
59.978116928633675
 20
-135.37935771965022
 10
60.0000001
 20
-135.50000009999985
  0
LWPOLYLINE
  5
6D
330
17
100
AcDbEntity
  8
XZ
100
AcDbPolyline
 90
2
 70
0
 10
60.0000001
 20
-179.50000009999985
 10
60.0000001
 20
-135.50000009999985
  0
LWPOLYLINE
  5
6E
330
17
100
AcDbEntity
  8
XZ
100
AcDbPolyline
 90
16
 70
0
 10
60.0000001
 20
-179.50000009999985
 10
59.978116928595966
 20
-179.62064248021034
 10
59.91627651694911
 20
-179.97669494772708
 10
59.82515066996578
 20
-180.55144898138315
 10
59.72031246234562
 20
-181.31937961831773
 10
59.61966159420584
 20
-182.24784691009972
 10
59.5406091294213
 20
-183.29777158581328
 10
59.49715050820644
 20
-184.42390788393914
 10
59.49715050877291
 20
-185.57609231575407
 10
59.54060912960345
 20
-186.70222861392085
 10
59.619661594206576
 20
-187.75215328990816
 10
59.72031246234647
 20
-188.68062058168834
 10
59.82515066996659
 20
-189.44855121862201
 10
59.91627651694975
 20
-190.02330525227626
 10
59.978116928633156
 20
-190.3793577196475
 10
60.0000001
 20
-190.50000009999985
  0
LWPOLYLINE
  5
6F
330
17
100
AcDbEntity
  8
XZ
100
AcDbPolyline
 90
2
 70
0
 10
60.0000001
 20
-7000.0000001
 10
60.0000001
 20
-190.50000009999985
  0
LWPOLYLINE
  5
70
330
17
100
AcDbEntity
  8
XZ
100
AcDbPolyline
 90
49
 70
0
 10
60.0000001
 20
-7000.0000001
 10
59.743345941214315
 20
-7000.0000001
 10
58.97777488867205
 20
-7000.0000001
 10
57.716386075338605
 20
-7000.0000001
 10
55.98076221353316
 20
-7000.0000001
 10
53.80060030873706
 20
-7000.0000001
 10
51.213203535596435
 20
-7000.0000001
 10
48.262842970261616
 20
-7000.0000001
 10
45.00000010000001
 20
-7000.0000001
 10
41.4805030709527
 20
-7000.0000001
 10
37.764571453075625
 20
-7000.0000001
 10
33.91578586660155
 20
-7000.0000001
 10
30.00000010000001
 20
-7000.0000001
 10
26.084214333398467
 20
-7000.0000001
 10
22.235428746924384
 20
-7000.0000001
 10
18.51949712904731
 20
-7000.0000001
 10
15.000000100000006
 20
-7000.0000001
 10
11.737157229738383
 20
-7000.0000001
 10
8.786796664403589
 20
-7000.0000001
 10
6.19939989126296
 20
-7000.0000001
 10
4.019237986466841
 20
-7000.0000001
 10
2.283614124661405
 20
-7000.0000001
 10
1.0222253113279542
 20
-7000.0000001
 10
0.2566542587856908
 20
-7000.0000001
 10
1.0000000116860974e-07
 20
-7000.0000001
 10
0.25665425878568726
 20
-7000.0000001
 10
1.0222253113279436
 20
-7000.0000001
 10
2.283614124661394
 20
-7000.0000001
 10
4.0192379864668375
 20
-7000.0000001
 10
6.199399891262928
 20
-7000.0000001
 10
8.786796664403571
 20
-7000.0000001
 10
11.737157229738376
 20
-7000.0000001
 10
15.000000099999987
 20
-7000.0000001
 10
18.51949712904729
 20
-7000.0000001
 10
22.235428746924384
 20
-7000.0000001
 10
26.084214333398428
 20
-7000.0000001
 10
30.00000009999997
 20
-7000.0000001
 10
33.91578586660154
 20
-7000.0000001
 10
37.76457145307558
 20
-7000.0000001
 10
41.48050307095268
 20
-7000.0000001
 10
45.00000010000001
 20
-7000.0000001
 10
48.262842970261616
 20
-7000.0000001
 10
51.213203535596406
 20
-7000.0000001
 10
53.800600308737046
 20
-7000.0000001
 10
55.980762213533154
 20
-7000.0000001
 10
57.7163860753386
 20
-7000.0000001
 10
58.977774888672045
 20
-7000.0000001
 10
59.74334594121431
 20
-7000.0000001
 10
60.0000001
 20
-7000.0000001
  0
LWPOLYLINE
  5
71
330
17
100
AcDbEntity
  8
XZ
100
AcDbPolyline
 90
16
 70
0
 10
60.0000001
 20
-190.50000009999985
 10
59.978116928596236
 20
-190.37935771979028
 10
59.91627651695008
 20
-190.02330525227808
 10
59.825150669963634
 20
-189.44855121855835
 10
59.72031246236274
 20
-188.6806205814337
 10
59.61966159419475
 20
-187.75215328993454
 10
59.54060912941764
 20
-186.70222861412276
 10
59.49715050820528
 20
-185.57609231600145
 10
59.49715050877394
 20
-184.4239078841929
 10
59.54060912960596
 20
-183.2977715860352
 10
59.619661594204544
 20
-182.24784690995966
 10
59.720312462373926
 20
-181.31937961847507
 10
59.82515066997757
 20
-180.55144898130402
 10
59.916276516957836
 20
-179.97669494767524
 10
59.97811692893005
 20
-179.62064248073875
 10
60.0000001
 20
-179.50000009999985
  0
LWPOLYLINE
  5
72
330
17
100
AcDbEntity
  8
XZ
100
AcDbPolyline
 90
16
 70
0
 10
60.0000001
 20
-135.50000009999985
 10
59.97811692859575
 20
-135.37935771978846
 10
59.916276516948315
 20
-135.02330525226716
 10
59.82515066996026
 20
-134.44855121853652
 10
59.72031246234271
 20
-133.68062058165833
 10
59.619661594202825
 20
-132.75215328986815
 10
59.540609129418925
 20
-131.7022286141455
 10
59.49715050820548
 20
-130.57609231601145
 10
59.497150508773984
 20
-129.42390788419107
 10
59.54060912960679
 20
-128.29777158602064
 10
59.61966159421195
 20
-127.24784691003333
 10
59.720312462353135
 20
-126.31937961825679
 10
59.8251506699702
 20
-125.55144898139679
 10
59.91627651695608
 20
-124.97669494768616
 10
59.978116928929566
 20
-124.62064248074148
 10
60.0000001
 20
-124.50000009999985
  0
LWPOLYLINE
  5
73
330
17
100
AcDbEntity
  8
XZ
100
AcDbPolyline
 90
2
 70
0
 10
60.0000001
 20
-124.50000009999985
 10
60.0000001
 20
-100.00000009999985
  0
LWPOLYLINE
  5
74
330
17
100
AcDbEntity
  8
XZ
100
AcDbPolyline
 90
49
 70
0
 10
60.0000001
 20
-100.00000009999985
 10
59.743345941214315
 20
-100.00000009999985
 10
58.97777488867205
 20
-100.00000009999985
 10
57.716386075338605
 20
-100.00000009999985
 10
55.98076221353316
 20
-100.00000009999985
 10
53.80060030873706
 20
-100.00000009999985
 10
51.213203535596435
 20
-100.00000009999985
 10
48.262842970261616
 20
-100.00000009999985
 10
45.00000010000001
 20
-100.00000009999985
 10
41.4805030709527
 20
-100.00000009999985
 10
37.764571453075625
 20
-100.00000009999985
 10
33.91578586660155
 20
-100.00000009999985
 10
30.00000010000001
 20
-100.00000009999985
 10
26.084214333398467
 20
-100.00000009999985
 10
22.235428746924384
 20
-100.00000009999985
 10
18.51949712904731
 20
-100.00000009999985
 10
15.000000100000006
 20
-100.00000009999985
 10
11.737157229738383
 20
-100.00000009999985
 10
8.786796664403589
 20
-100.00000009999985
 10
6.19939989126296
 20
-100.00000009999985
 10
4.019237986466841
 20
-100.00000009999985
 10
2.283614124661405
 20
-100.00000009999985
 10
1.0222253113279542
 20
-100.00000009999985
 10
0.2566542587856908
 20
-100.00000009999985
 10
1.0000000116860974e-07
 20
-100.00000009999985
 10
0.25665425878568726
 20
-100.00000009999985
 10
1.0222253113279436
 20
-100.00000009999985
 10
2.283614124661394
 20
-100.00000009999985
 10
4.0192379864668375
 20
-100.00000009999985
 10
6.199399891262928
 20
-100.00000009999985
 10
8.786796664403571
 20
-100.00000009999985
 10
11.737157229738376
 20
-100.00000009999985
 10
15.000000099999987
 20
-100.00000009999985
 10
18.51949712904729
 20
-100.00000009999985
 10
22.235428746924384
 20
-100.00000009999985
 10
26.084214333398428
 20
-100.00000009999985
 10
30.00000009999997
 20
-100.00000009999985
 10
33.91578586660154
 20
-100.00000009999985
 10
37.76457145307558
 20
-100.00000009999985
 10
41.48050307095268
 20
-100.00000009999985
 10
45.00000010000001
 20
-100.00000009999985
 10
48.262842970261616
 20
-100.00000009999985
 10
51.213203535596406
 20
-100.00000009999985
 10
53.800600308737046
 20
-100.00000009999985
 10
55.980762213533154
 20
-100.00000009999985
 10
57.7163860753386
 20
-100.00000009999985
 10
58.977774888672045
 20
-100.00000009999985
 10
59.74334594121431
 20
-100.00000009999985
 10
60.0000001
 20
-100.00000009999985
  0
LWPOLYLINE
  5
75
330
17
100
AcDbEntity
  8
XZ
100
AcDbPolyline
 90
16
 70
0
 10
1.0000000116860974e-07
 20
-179.50000009999985
 10
0.08372368305025901
 20
-179.97669494772344
 10
0.2796877376527114
 20
-181.31937961830408
 10
0.4593910705771975
 20
-183.2977715857869
 10
0.5028496912278015
 20
-185.5760923157177
 10
0.380338605797089
 20
-187.75215328986906
 10
0.1748495300414703
 20
-189.4485512185247
 10
0.021883274910994288
 20
-190.37935772578476
 10
0.0218832315600892
 20
-190.37935771705088
 10
0.17484953004188597
 20
-189.44855121852197
 10
0.3803386057974727
 20
-187.7521532898645
 10
0.5028496917941894
 20
-185.57609231602873
 10
0.45939107039530214
 20
-183.29777158605702
 10
0.27968773762773225
 20
-181.3193796184887
 10
0.08372368304249278
 20
-179.97669494767797
 10
1.0000000116860974e-07
 20
-179.50000009999985
  0
LWPOLYLINE
  5
76
330
17
100
AcDbEntity
  8
XZ
100
AcDbPolyline
 90
16
 70
0
 10
1.0000000116860974e-07
 20
-124.50000009999985
 10
0.0837236830498469
 20
-124.97669494772163
 10
0.2796877376515745
 20
-126.31937961829499
 10
0.45939107057618145
 20
-128.29777158576962
 10
0.5028496912282812
 20
-130.57609231569313
 10
0.38033860579956524
 20
-132.75215328984177
 10
0.17484953004470682
 20
-134.44855121850287
 10
0.02188327491260722
 20
-135.37935772577566
 10
0.021883231558245342
 20
-135.37935771706088
 10
0.1748495300370294
 20
-134.4485512185547
 10
0.38033860580575407
 20
-132.75215328992908
 10
0.5028496917948253
 20
-130.576092315996
 10
0.4593910703938384
 20
-128.29777158603156
 10
0.2796877376258422
 20
-126.31937961847325
 10
0.08372368304207711
 20
-124.97669494767524
 10
1.0000000116860974e-07
 20
-124.50000009999985
  0
LWPOLYLINE
  5
77
330
17
100
AcDbEntity
  8
XZ
100
AcDbPolyline
 90
2
 70
0
 10
57.0000001
 20
-124.50000009999985
 10
60.0000001
 20
-124.50000009999985
  0
LWPOLYLINE
  5
78
330
17
100
AcDbEntity
  8
XZ
100
AcDbPolyline
 90
16
 70
0
 10
57.0000001
 20
-135.50000009999985
 10
56.97566167050448
 20
-135.37924883813412
 10
56.906889540915564
 20
-135.02301714376063
 10
56.80554642143877
 20
-134.44829350751752
 10
56.688903475522075
 20
-133.68070165170502
 10
56.57681526549798
 20
-132.7526542020496
 10
56.488671427658936
 20
-131.70285322325708
 10
56.44016289511147
 20
-130.57637555412566
 10
56.44016289594107
 20
-129.4236246462533
 10
56.488671427868894
 20
-128.29714697699637
 10
56.57681526553293
 20
-127.2473459980165
 10
56.68890347556926
 20
-126.3192985486894
 10
56.80554642598166
 20
-125.55170672099302
 10
56.90688955065818
 20
-124.97698309902262
 10
56.97566166844648
 20
-124.62075135956911
 10
57.0000001
 20
-124.50000009999985
  0
LWPOLYLINE
  5
79
330
17
100
AcDbEntity
  8
XZ
100
AcDbPolyline
 90
16
 70
0
 10
57.0000001
 20
-124.50000009999985
 10
56.97566167050419
 20
-124.6207513618665
 10
56.906889540914506
 20
-124.97698305624544
 10
56.80554642143674
 20
-125.55170669249492
 10
56.688903475519226
 20
-126.3192985483156
 10
56.57681526549487
 20
-127.24734599798103
 10
56.48867142765638
 20
-128.29714697678173
 10
56.44016289511042
 20
-129.42362464592225
 10
56.44016289594228
 20
-130.57637555380188
 10
56.48867142787272
 20
-131.70285322306245
 10
56.57681526553914
 20
-132.75265420204323
 10
56.68890347557707
 20
-133.6807016513676
 10
56.80554642598979
 20
-134.44829347905488
 10
56.90688955059427
 20
-135.02301710115808
 10
56.975661668638615
 20
-135.37924884008316
 10
57.0000001
 20
-135.50000009999985
  0
LWPOLYLINE
  5
7A
330
17
100
AcDbEntity
  8
XZ
100
AcDbPolyline
 90
2
 70
0
 10
57.0000001
 20
-179.50000009999985
 10
60.0000001
 20
-179.50000009999985
  0
LWPOLYLINE
  5
7B
330
17
100
AcDbEntity
  8
XZ
100
AcDbPolyline
 90
16
 70
0
 10
57.0000001
 20
-190.50000009999985
 10
56.975661670504195
 20
-190.3792488381332
 10
56.906889540914534
 20
-190.02301714375426
 10
56.80554642143679
 20
-189.4482935075048
 10
56.688903475519304
 20
-188.680701651685
 10
56.576815265494936
 20
-187.75265420201958
 10
56.48867142765644
 20
-186.70285322321888
 10
56.44016289511045
 20
-185.57637555407837
 10
56.44016289594225
 20
-184.42362464619873
 10
56.48867142787263
 20
-183.29714697693817
 10
56.5768152655091
 20
-182.24734599784279
 10
56.688903475535454
 20
-181.31929854819828
 10
56.80554642597968
 20
-180.55170672100485
 10
56.90688955065714
 20
-179.97698309902808
 10
56.97566166844619
 20
-179.62075135957093
 10
57.0000001
 20
-179.50000009999985
  0
LWPOLYLINE
  5
7C
330
17
100
AcDbEntity
  8
XZ
100
AcDbPolyline
 90
16
 70
0
 10
57.0000001
 20
-179.50000009999985
 10
56.97566167050417
 20
-179.6207513618665
 10
56.90688954091442
 20
-179.97698305624544
 10
56.80554642143659
 20
-180.55170669249583
 10
56.68890347551901
 20
-181.31929854831742
 10
56.57681526549463
 20
-182.24734599798285
 10
56.48867142765618
 20
-183.29714697678537
 10
56.44016289511033
 20
-184.42362464592588
 10
56.44016289594237
 20
-185.57637555380643
 10
56.488671427873015
 20
-186.702853223067
 10
56.576815265539615
 20
-187.75265420204778
 10
56.68890347557768
 20
-188.68070165137215
 10
56.805546425990855
 20
-189.4482934790767
 10
56.906889550594194
 20
-190.02301710115808
 10
56.975661668638594
 20
-190.37924884008316
 10
57.0000001
 20
-190.50000009999985
  0
LWPOLYLINE
  5
7D
330
17
100
AcDbEntity
  8
XZ
100
AcDbPolyline
 90
44
 70
0
 10
57.0000001
 20
-7000.0000001
 10
56.71227103802798
 20
-7000.0000001
 10
55.855216297526965
 20
-7000.0000001
 10
54.447102512314956
 20
-7000.0000001
 10
52.51794118302671
 20
-7000.0000001
 10
50.10884903408211
 20
-7000.0000001
 10
47.27117168209007
 20
-7000.0000001
 10
44.06538929317412
 20
-7000.0000001
 10
40.559827553234214
 20
-7000.0000001
 10
36.82920142457539
 20
-7000.0000001
 10
32.953022726202605
 20
-7000.0000001
 10
29.013905477443217
 20
-7000.0000001
 10
25.09580512355522
 20
-7000.0000001
 10
21.28222917117096
 20
-7000.0000001
 10
17.654457370774765
 20
-7000.0000001
 10
14.28980937993528
 20
-7000.0000001
 10
11.259996829042883
 20
-7000.0000001
 10
8.629594912410141
 20
-7000.0000001
 10
6.454666080117203
 20
-7000.0000001
 10
4.78156516422121
 20
-7000.0000001
 10
3.645951405989969
 20
-7000.0000001
 10
3.0720284410841074
 20
-7000.0000001
 10
3.0720284410841074
 20
-7000.0000001
 10
3.6459514059899654
 20
-7000.0000001
 10
4.781565164221206
 20
-7000.0000001
 10
6.454666080117189
 20
-7000.0000001
 10
8.62959491241013
 20
-7000.0000001
 10
11.25999682904288
 20
-7000.0000001
 10
14.289809379935273
 20
-7000.0000001
 10
17.654457370774757
 20
-7000.0000001
 10
21.28222917117094
 20
-7000.0000001
 10
25.095805123555202
 20
-7000.0000001
 10
29.013905477443217
 20
-7000.0000001
 10
32.953022726202605
 20
-7000.0000001
 10
36.82920142457537
 20
-7000.0000001
 10
40.5598275532342
 20
-7000.0000001
 10
44.06538929317411
 20
-7000.0000001
 10
47.27117168209005
 20
-7000.0000001
 10
50.1088490340821
 20
-7000.0000001
 10
52.517941183026686
 20
-7000.0000001
 10
54.44710251231496
 20
-7000.0000001
 10
55.855216297526965
 20
-7000.0000001
 10
56.71227103802798
 20
-7000.0000001
 10
57.0000001
 20
-7000.0000001
  0
LWPOLYLINE
  5
7E
330
17
100
AcDbEntity
  8
XZ
100
AcDbPolyline
 90
44
 70
0
 10
57.0000001
 20
-100.00000009999985
 10
56.71227103802798
 20
-100.00000009999985
 10
55.855216297526965
 20
-100.00000009999985
 10
54.447102512314956
 20
-100.00000009999985
 10
52.51794118302671
 20
-100.00000009999985
 10
50.10884903408211
 20
-100.00000009999985
 10
47.27117168209007
 20
-100.00000009999985
 10
44.06538929317412
 20
-100.00000009999985
 10
40.559827553234214
 20
-100.00000009999985
 10
36.82920142457539
 20
-100.00000009999985
 10
32.953022726202605
 20
-100.00000009999985
 10
29.013905477443217
 20
-100.00000009999985
 10
25.09580512355522
 20
-100.00000009999985
 10
21.28222917117096
 20
-100.00000009999985
 10
17.654457370774765
 20
-100.00000009999985
 10
14.28980937993528
 20
-100.00000009999985
 10
11.259996829042883
 20
-100.00000009999985
 10
8.629594912410141
 20
-100.00000009999985
 10
6.454666080117203
 20
-100.00000009999985
 10
4.78156516422121
 20
-100.00000009999985
 10
3.645951405989969
 20
-100.00000009999985
 10
3.0720284410841074
 20
-100.00000009999985
 10
3.0720284410841074
 20
-100.00000009999985
 10
3.6459514059899654
 20
-100.00000009999985
 10
4.781565164221206
 20
-100.00000009999985
 10
6.454666080117189
 20
-100.00000009999985
 10
8.62959491241013
 20
-100.00000009999985
 10
11.25999682904288
 20
-100.00000009999985
 10
14.289809379935273
 20
-100.00000009999985
 10
17.654457370774757
 20
-100.00000009999985
 10
21.28222917117094
 20
-100.00000009999985
 10
25.095805123555202
 20
-100.00000009999985
 10
29.013905477443217
 20
-100.00000009999985
 10
32.953022726202605
 20
-100.00000009999985
 10
36.82920142457537
 20
-100.00000009999985
 10
40.5598275532342
 20
-100.00000009999985
 10
44.06538929317411
 20
-100.00000009999985
 10
47.27117168209005
 20
-100.00000009999985
 10
50.1088490340821
 20
-100.00000009999985
 10
52.517941183026686
 20
-100.00000009999985
 10
54.44710251231496
 20
-100.00000009999985
 10
55.855216297526965
 20
-100.00000009999985
 10
56.71227103802798
 20
-100.00000009999985
 10
57.0000001
 20
-100.00000009999985
  0
LWPOLYLINE
  5
7F
330
17
100
AcDbEntity
  8
XZ
100
AcDbPolyline
 90
16
 70
0
 10
3.000000100000001
 20
-179.50000009999985
 10
3.093110659081038
 20
-179.9769830562218
 10
3.311096724437757
 20
-181.31929854873943
 10
3.5113287723390947
 20
-183.2971469767117
 10
3.5598373040606006
 20
-185.57637555367
 10
3.423184934507887
 20
-187.7526542019923
 10
3.1944537740444616
 20
-189.44829347884843
 10
3.024338482685028
 20
-190.37924883356027
 10
3.024338533161764
 20
-190.3792488441377
 10
3.194453774060648
 20
-189.4482934787511
 10
3.4231849345227694
 20
-187.7526542018486
 10
3.559837304892593
 20
-185.57637555393922
 10
3.5113287721224147
 20
-183.29714697686086
 10
3.311096724420768
 20
-181.31929854861664
 10
3.0931106493384206
 20
-179.97698309900443
 10
3.000000100000001
 20
-179.50000009999985
  0
LWPOLYLINE
  5
80
330
17
100
AcDbEntity
  8
XZ
100
AcDbPolyline
 90
2
 70
0
 10
1.0000000116860974e-07
 20
-179.50000009999985
 10
3.000000100000001
 20
-179.50000009999985
  0
LWPOLYLINE
  5
81
330
17
100
AcDbEntity
  8
XZ
100
AcDbPolyline
 90
16
 70
0
 10
3.000000100000001
 20
-124.50000009999985
 10
3.0931106590809954
 20
-124.97698305622089
 10
3.311096724437654
 20
-126.31929854873943
 10
3.511328772339006
 20
-128.2971469767108
 10
3.5598373040606504
 20
-130.57637555366819
 10
3.4231849345081145
 20
-132.75265420199048
 10
3.1944537740447636
 20
-134.44829347884752
 10
3.0243384826844206
 20
-135.379248833563
 10
3.024338533161565
 20
-135.3792488441386
 10
3.194453774060154
 20
-134.44829347875475
 10
3.4231849345222685
 20
-132.75265420185406
 10
3.5598373048924614
 20
-130.57637555394558
 10
3.5113287721228197
 20
-128.29714697686723
 10
3.3110967244214926
 20
-126.3192985486221
 10
3.0931106493383815
 20
-124.97698309900443
 10
3.000000100000001
 20
-124.50000009999985
  0
LWPOLYLINE
  5
82
330
17
100
AcDbEntity
  8
XZ
100
AcDbPolyline
 90
2
 70
0
 10
1.0000000116860974e-07
 20
-124.50000009999985
 10
3.000000100000001
 20
-124.50000009999985
  0
LWPOLYLINE
  5
83
330
17
100
AcDbEntity
  8
XZ
100
AcDbPolyline
 90
2
 70
0
 10
57.0000001
 20
-179.50000009999985
 10
57.0000001
 20
-135.50000009999985
  0
LWPOLYLINE
  5
84
330
17
100
AcDbEntity
  8
XZ
100
AcDbPolyline
 90
2
 70
0
 10
57.0000001
 20
-7000.0000001
 10
57.0000001
 20
-190.50000009999985
  0
LWPOLYLINE
  5
85
330
17
100
AcDbEntity
  8
XZ
100
AcDbPolyline
 90
2
 70
0
 10
57.0000001
 20
-124.50000009999985
 10
57.0000001
 20
-100.00000009999985
  0
DIMENSION
  5
86
330
17
100
AcDbEntity
  8
DIMENSIONS
100
AcDbDimension
280
0
  2
*D3
  3
Standard
 10
0.0
 20
-7024.0000002
 30
0.0
 11
30.0000001
 21
-7024.0000002
 31
0.0
 70
32
 71
5
  1
<>
100
AcDbAlignedDimension
 13
0.0
 23
-7000.0000002
 33
0.0
 14
60.0000002
 24
-7000.0000002
 34
0.0
 50
0.0
100
AcDbRotatedDimension
1001
ACAD
1000
DSTYLE
1002
{
1070
140
1040
3.0
1070
41
1040
3.0
1070
271
1070
3
1002
}
  0
DIMENSION
  5
96
330
17
100
AcDbEntity
  8
DIMENSIONS
100
AcDbDimension
280
0
  2
*D4
  3
Standard
 10
-24.0
 20
-7000.0000002
 30
0.0
 11
-24.0
 21
-3550.0000001
 31
0.0
 70
32
 71
5
  1
<>
100
AcDbAlignedDimension
 13
0.0
 23
-7000.0000002
 33
0.0
 14
0.0
 24
-100.0
 34
0.0
 50
90.0
100
AcDbRotatedDimension
1001
ACAD
1000
DSTYLE
1002
{
1070
140
1040
3.0
1070
41
1040
3.0
1070
271
1070
3
1002
}
  0
LWPOLYLINE
  5
A6
330
17
100
AcDbEntity
  8
YZ
100
AcDbPolyline
 90
16
 70
0
 10
190.00000029999998
 20
6875.5000001
 10
188.85435133332305
 20
6875.379357719792
 10
187.7602669797496
 20
6875.0233052522835
 10
186.76574722659862
 20
6874.448551218571
 10
185.91306588294856
 20
6873.680620581455
 10
185.23810436413456
 20
6872.752153289965
 10
184.77004636649795
 20
6871.702228614163
 10
184.53025462203104
 20
6870.57609231605
 10
184.53025462424415
 20
6869.423907884248
 10
184.77004636717072
 20
6868.297771586094
 10
185.23810436414328
 20
6867.24784691002
 10
185.9130658829602
 20
6866.3193796185315
 10
186.7657472265619
 20
6865.551448981353
 10
187.76026697975806
 20
6864.9766949477125
 10
188.85435133335457
 20
6864.6206424803495
 10
190.00000029999998
 20
6864.5000001
  0
LWPOLYLINE
  5
A7
330
17
100
AcDbEntity
  8
YZ
100
AcDbPolyline
 90
2
 70
0
 10
190.00000029999998
 20
6820.5000001
 10
190.00000029999998
 20
6864.5000001
  0
LWPOLYLINE
  5
A8
330
17
100
AcDbEntity
  8
YZ
100
AcDbPolyline
 90
16
 70
0
 10
190.00000029999998
 20
6820.5000001
 10
188.85435133330935
 20
6820.379357719789
 10
187.76026697972407
 20
6820.023305252273
 10
186.76574722652057
 20
6819.448551218617
 10
185.91306588263265
 20
6818.680620581682
 10
185.23810436415624
 20
6817.7521532899
 10
184.7700463665057
 20
6816.702228614186
 10
184.5302546220322
 20
6815.576092316061
 10
184.53025462424446
 20
6814.423907884246
 10
184.77004636717592
 20
6813.297771586079
 10
185.23810436416088
 20
6812.2478469100915
 10
185.91306588263885
 20
6811.319379618311
 10
186.76574722652805
 20
6810.551448981378
 10
187.76026697973253
 20
6809.976694947723
 10
188.8543513333409
 20
6809.620642480352
 10
190.00000029999998
 20
6809.5000001
  0
LWPOLYLINE
  5
A9
330
17
100
AcDbEntity
  8
YZ
100
AcDbPolyline
 90
2
 70
0
 10
190.00000029999998
 20
9.999985195463523e-08
 10
190.00000029999998
 20
6809.5000001
  0
LWPOLYLINE
  5
AA
330
17
100
AcDbEntity
  8
YZ
100
AcDbPolyline
 90
49
 70
0
 10
190.00000029999998
 20
9.999985195463523e-08
 10
193.91578606660153
 20
9.999985195463523e-08
 10
197.76457165307562
 20
9.999985195463523e-08
 10
201.48050327095268
 20
9.999985195463523e-08
 10
205.00000029999998
 20
9.999985195463523e-08
 10
208.2628431702616
 20
9.999985195463523e-08
 10
211.2132037355964
 20
9.999985195463523e-08
 10
213.80060050873703
 20
9.999985195463523e-08
 10
215.98076241353314
 20
9.999985195463523e-08
 10
217.7163862753386
 20
9.999985195463523e-08
 10
218.97777508867205
 20
9.999985195463523e-08
 10
219.74334614121432
 20
9.999985195463523e-08
 10
220.00000029999998
 20
9.999985195463523e-08
 10
219.74334614121432
 20
9.999985195463523e-08
 10
218.97777508867205
 20
9.999985195463523e-08
 10
217.7163862753386
 20
9.999985195463523e-08
 10
215.98076241353314
 20
9.999985195463523e-08
 10
213.80060050873703
 20
9.999985195463523e-08
 10
211.21320373559644
 20
9.999985195463523e-08
 10
208.26284317026162
 20
9.999985195463523e-08
 10
205.00000029999998
 20
9.999985195463523e-08
 10
201.48050327095268
 20
9.999985195463523e-08
 10
197.76457165307562
 20
9.999985195463523e-08
 10
193.91578606660156
 20
9.999985195463523e-08
 10
190.0000003
 20
9.999985195463523e-08
 10
186.08421453339844
 20
9.999985195463523e-08
 10
182.2354289469244
 20
9.999985195463523e-08
 10
178.51949732904728
 20
9.999985195463523e-08
 10
175.0000003
 20
9.999985195463523e-08
 10
171.73715742973837
 20
9.999985195463523e-08
 10
168.78679686440356
 20
9.999985195463523e-08
 10
166.19940009126293
 20
9.999985195463523e-08
 10
164.01923818646685
 20
9.999985195463523e-08
 10
162.2836143246614
 20
9.999985195463523e-08
 10
161.02222551132795
 20
9.999985195463523e-08
 10
160.25665445878568
 20
9.999985195463523e-08
 10
160.00000029999998
 20
9.999985195463523e-08
 10
160.25665445878568
 20
9.999985195463523e-08
 10
161.02222551132792
 20
9.999985195463523e-08
 10
162.2836143246614
 20
9.999985195463523e-08
 10
164.01923818646682
 20
9.999985195463523e-08
 10
166.19940009126293
 20
9.999985195463523e-08
 10
168.78679686440353
 20
9.999985195463523e-08
 10
171.73715742973837
 20
9.999985195463523e-08
 10
175.00000029999998
 20
9.999985195463523e-08
 10
178.51949732904728
 20
9.999985195463523e-08
 10
182.23542894692434
 20
9.999985195463523e-08
 10
186.0842145333984
 20
9.999985195463523e-08
 10
190.00000029999995
 20
9.999985195463523e-08
  0
LWPOLYLINE
  5
AB
330
17
100
AcDbEntity
  8
YZ
100
AcDbPolyline
 90
16
 70
0
 10
190.00000029999998
 20
6809.5000001
 10
191.14564926668376
 20
6809.620642480209
 10
192.2397336202631
 20
6809.976694947722
 10
193.2342533734182
 20
6810.551448981441
 10
194.08693471707
 20
6811.319379618566
 10
194.76189623588286
 20
6812.247846910065
 10
195.22995423351495
 20
6813.297771585877
 10
195.46974597797404
 20
6814.423907883998
 10
195.46974597574996
 20
6815.576092315807
 10
195.22995423280986
 20
6816.7022286139645
 10
194.7618962358219
 20
6817.75215329004
 10
194.08693471698865
 20
6818.680620581525
 10
193.23425337337068
 20
6819.448551218696
 10
192.23973362015934
 20
6820.0233052523245
 10
191.1456492664926
 20
6820.379357719261
 10
190.00000029999998
 20
6820.5000001
  0
LWPOLYLINE
  5
AC
330
17
100
AcDbEntity
  8
YZ
100
AcDbPolyline
 90
16
 70
0
 10
190.00000029999998
 20
6864.5000001
 10
191.14564926669635
 20
6864.620642480211
 10
192.2397336202866
 20
6864.9766949477325
 10
193.23425337344938
 20
6865.551448981463
 10
194.0869347173885
 20
6866.319379618341
 10
194.76189623586254
 20
6867.247846910132
 10
195.2299542335077
 20
6868.297771585854
 10
195.46974597797293
 20
6869.423907883988
 10
195.46974597574973
 20
6870.576092315809
 10
195.22995423280517
 20
6871.702228613979
 10
194.76189623580572
 20
6872.752153289966
 10
194.08693471731263
 20
6873.680620581743
 10
193.23425337335766
 20
6874.448551218603
 10
192.23973362018285
 20
6875.023305252314
 10
191.14564926650522
 20
6875.379357719258
 10
190.00000029999998
 20
6875.5000001
  0
LWPOLYLINE
  5
AD
330
17
100
AcDbEntity
  8
YZ
100
AcDbPolyline
 90
2
 70
0
 10
190.00000029999998
 20
6875.5000001
 10
190.00000029999998
 20
6900.0000001
  0
LWPOLYLINE
  5
AE
330
17
100
AcDbEntity
  8
YZ
100
AcDbPolyline
 90
49
 70
0
 10
190.00000029999998
 20
6900.0000001
 10
193.91578606660153
 20
6900.0000001
 10
197.76457165307562
 20
6900.0000001
 10
201.48050327095268
 20
6900.0000001
 10
205.00000029999998
 20
6900.0000001
 10
208.2628431702616
 20
6900.0000001
 10
211.2132037355964
 20
6900.0000001
 10
213.80060050873703
 20
6900.0000001
 10
215.98076241353314
 20
6900.0000001
 10
217.7163862753386
 20
6900.0000001
 10
218.97777508867205
 20
6900.0000001
 10
219.74334614121432
 20
6900.0000001
 10
220.00000029999998
 20
6900.0000001
 10
219.74334614121432
 20
6900.0000001
 10
218.97777508867205
 20
6900.0000001
 10
217.7163862753386
 20
6900.0000001
 10
215.98076241353314
 20
6900.0000001
 10
213.80060050873703
 20
6900.0000001
 10
211.21320373559644
 20
6900.0000001
 10
208.26284317026162
 20
6900.0000001
 10
205.00000029999998
 20
6900.0000001
 10
201.48050327095268
 20
6900.0000001
 10
197.76457165307562
 20
6900.0000001
 10
193.91578606660156
 20
6900.0000001
 10
190.0000003
 20
6900.0000001
 10
186.08421453339844
 20
6900.0000001
 10
182.2354289469244
 20
6900.0000001
 10
178.51949732904728
 20
6900.0000001
 10
175.0000003
 20
6900.0000001
 10
171.73715742973837
 20
6900.0000001
 10
168.78679686440356
 20
6900.0000001
 10
166.19940009126293
 20
6900.0000001
 10
164.01923818646685
 20
6900.0000001
 10
162.2836143246614
 20
6900.0000001
 10
161.02222551132795
 20
6900.0000001
 10
160.25665445878568
 20
6900.0000001
 10
160.00000029999998
 20
6900.0000001
 10
160.25665445878568
 20
6900.0000001
 10
161.02222551132792
 20
6900.0000001
 10
162.2836143246614
 20
6900.0000001
 10
164.01923818646682
 20
6900.0000001
 10
166.19940009126293
 20
6900.0000001
 10
168.78679686440353
 20
6900.0000001
 10
171.73715742973837
 20
6900.0000001
 10
175.00000029999998
 20
6900.0000001
 10
178.51949732904728
 20
6900.0000001
 10
182.23542894692434
 20
6900.0000001
 10
186.0842145333984
 20
6900.0000001
 10
190.00000029999995
 20
6900.0000001
  0
LWPOLYLINE
  5
AF
330
17
100
AcDbEntity
  8
YZ
100
AcDbPolyline
 90
16
 70
0
 10
190.00000029999998
 20
6820.5000001
 10
187.76026697973242
 20
6820.023305252276
 10
185.91306588264484
 20
6818.680620581696
 10
184.7700463665142
 20
6816.702228614213
 10
184.53025462424063
 20
6814.423907884282
 10
185.23810436413802
 20
6812.247846910131
 10
186.76574722653464
 20
6810.551448981475
 10
188.85435133227742
 20
6809.620642474215
 10
191.14564926746846
 20
6809.620642482949
 10
193.23425337346916
 20
6810.551448981478
 10
194.76189623586433
 20
6812.247846910135
 10
195.46974597797112
 20
6814.423907883971
 10
195.22995423281697
 20
6816.702228613943
 10
194.08693471700067
 20
6818.680620581511
 10
192.23973362016378
 20
6820.023305252322
 10
190.00000029999998
 20
6820.5000001
  0
LWPOLYLINE
  5
B0
330
17
100
AcDbEntity
  8
YZ
100
AcDbPolyline
 90
16
 70
0
 10
190.00000029999998
 20
6875.5000001
 10
187.76026697973805
 20
6875.023305252278
 10
185.91306588265311
 20
6873.680620581705
 10
184.77004636651995
 20
6871.70222861423
 10
184.53025462423804
 20
6869.423907884307
 10
185.23810436412265
 20
6867.247846910158
 10
186.7657472265048
 20
6865.551448981497
 10
188.85435133223518
 20
6864.620642474224
 10
191.1456492674202
 20
6864.620642482939
 10
193.2342533734244
 20
6865.551448981445
 10
194.761896235886
 20
6867.247846910071
 10
195.46974597797458
 20
6869.423907884004
 10
195.2299542328087
 20
6871.702228613968
 10
194.08693471698695
 20
6873.6806205815265
 10
192.23973362015818
 20
6875.0233052523245
 10
190.00000029999998
 20
6875.5000001
  0
LWPOLYLINE
  5
B1
330
17
100
AcDbEntity
  8
YZ
100
AcDbPolyline
 90
16
 70
0
 10
190.00000029999998
 20
6864.5000001
 10
191.14616039764832
 20
6864.620751361866
 10
192.2403797840871
 20
6864.976983056239
 10
193.23460786904081
 20
6865.551706692482
 10
194.08686170961371
 20
6866.319298548295
 10
194.76160669303908
 20
6867.24734599795
 10
195.2297508941201
 20
6868.297146976743
 10
195.4697161385438
 20
6869.423624645874
 10
195.46971613556934
 20
6870.576375553746
 10
195.2297508934162
 20
6871.702853223003
 10
194.76160669265312
 20
6872.752654201983
 10
194.08686170896283
 20
6873.68070165131
 10
193.23460785062474
 20
6874.448293479007
 10
192.2403797681764
 20
6875.023017100977
 10
191.1461603980249
 20
6875.379248840431
 10
190.00000029999998
 20
6875.5000001
  0
LWPOLYLINE
  5
B2
330
17
100
AcDbEntity
  8
YZ
100
AcDbPolyline
 90
16
 70
0
 10
190.00000029999998
 20
6875.5000001
 10
188.85384020234486
 20
6875.379248838133
 10
187.75962081590018
 20
6875.023017143754
 10
186.76539273094235
 20
6874.448293507505
 10
185.9131388903677
 20
6873.680701651684
 10
185.23839390694351
 20
6872.752654202019
 10
184.77024970586695
 20
6871.702853223218
 10
184.53028446145106
 20
6870.5763755540775
 10
184.53028446443648
 20
6869.423624646198
 10
184.77024970660318
 20
6868.297146976937
 10
185.23839390738155
 20
6867.2473459979565
 10
185.91313889108818
 20
6866.319298548632
 10
186.76539274944253
 20
6865.551706720945
 10
187.75962083189134
 20
6864.976983098842
 10
188.85384020218734
 20
6864.6207513599165
 10
190.00000029999998
 20
6864.5000001
  0
LWPOLYLINE
  5
B3
330
17
100
AcDbEntity
  8
YZ
100
AcDbPolyline
 90
16
 70
0
 10
190.00000029999998
 20
6809.5000001
 10
191.14616039765497
 20
6809.6207513618665
 10
192.2403797840995
 20
6809.976983056245
 10
193.23460786905724
 20
6810.551706692495
 10
194.08686170963185
 20
6811.319298548315
 10
194.76160669305608
 20
6812.24734599798
 10
195.22975089413274
 20
6813.297146976781
 10
195.4697161385488
 20
6814.423624645921
 10
195.46971613556363
 20
6815.576375553801
 10
195.22975089339727
 20
6816.7028532230615
 10
194.76160669297707
 20
6817.752654202157
 10
194.08686170952632
 20
6818.680701651801
 10
193.2346078506412
 20
6819.448293478995
 10
192.2403797681888
 20
6820.023017100972
 10
191.14616039803155
 20
6820.379248840429
 10
190.00000029999998
 20
6820.5000001
  0
LWPOLYLINE
  5
B4
330
17
100
AcDbEntity
  8
YZ
100
AcDbPolyline
 90
16
 70
0
 10
190.00000029999998
 20
6820.5000001
 10
188.85384020234432
 20
6820.379248838133
 10
187.7596208158992
 20
6820.023017143754
 10
186.76539273094104
 20
6819.448293507504
 10
185.91313889036624
 20
6818.680701651682
 10
185.2383939069422
 20
6817.752654202017
 10
184.77024970586592
 20
6816.702853223214
 10
184.53028446145066
 20
6815.576375554074
 10
184.53028446443693
 20
6814.423624646193
 10
184.77024970660466
 20
6813.297146976933
 10
185.23839390738425
 20
6812.247345997952
 10
185.91313889109216
 20
6811.319298548628
 10
186.7653927494329
 20
6810.551706720923
 10
187.75962083189035
 20
6809.976983098842
 10
188.85384020218683
 20
6809.6207513599165
 10
190.00000029999998
 20
6809.5000001
  0
LWPOLYLINE
  5
B5
330
17
100
AcDbEntity
  8
YZ
100
AcDbPolyline
 90
44
 70
0
 10
190.00000029999998
 20
9.999985195463523e-08
 10
193.9312318288451
 20
9.999985195463523e-08
 10
197.7786759828614
 20
9.999985195463523e-08
 10
201.460331169647
 20
9.999985195463523e-08
 10
204.89772930080204
 20
9.999985195463523e-08
 10
208.01760820300046
 20
9.999985195463523e-08
 10
210.75347307402035
 20
9.999985195463523e-08
 10
213.04701370400835
 20
9.999985195463523e-08
 10
214.8493472563673
 20
9.999985195463523e-08
 10
216.1220601205505
 20
9.999985195463523e-08
 10
216.83802663147853
 20
9.999985195463523e-08
 10
216.98198720599646
 20
9.999985195463523e-08
 10
216.55087357439558
 20
9.999985195463523e-08
 10
215.55387417525543
 20
9.999985195463523e-08
 10
214.012238319828
 20
9.999985195463523e-08
 10
211.95882329986026
 20
9.999985195463523e-08
 10
209.43739409146588
 20
9.999985195463523e-08
 10
206.50169058064193
 20
9.999985195463523e-08
 10
203.2142821908993
 20
9.999985195463523e-08
 10
199.6452343246306
 20
9.999985195463523e-08
 10
195.87061504070203
 20
9.999985195463523e-08
 10
191.97087379584448
 20
9.999985195463523e-08
 10
188.02912680415548
 20
9.999985195463523e-08
 10
184.12938555929796
 20
9.999985195463523e-08
 10
180.3547662753694
 20
9.999985195463523e-08
 10
176.7857184091007
 20
9.999985195463523e-08
 10
173.4983100193581
 20
9.999985195463523e-08
 10
170.56260650853412
 20
9.999985195463523e-08
 10
168.04117730013974
 20
9.999985195463523e-08
 10
165.98776228017198
 20
9.999985195463523e-08
 10
164.44612642474453
 20
9.999985195463523e-08
 10
163.4491270256044
 20
9.999985195463523e-08
 10
163.01801339400353
 20
9.999985195463523e-08
 10
163.16197396852147
 20
9.999985195463523e-08
 10
163.8779404794495
 20
9.999985195463523e-08
 10
165.15065334363268
 20
9.999985195463523e-08
 10
166.95298689599161
 20
9.999985195463523e-08
 10
169.24652752597962
 20
9.999985195463523e-08
 10
171.9823923969995
 20
9.999985195463523e-08
 10
175.10227129919792
 20
9.999985195463523e-08
 10
178.539669430353
 20
9.999985195463523e-08
 10
182.22132461713858
 20
9.999985195463523e-08
 10
186.06876877115485
 20
9.999985195463523e-08
 10
190.00000029999998
 20
9.999985195463523e-08
  0
LWPOLYLINE
  5
B6
330
17
100
AcDbEntity
  8
YZ
100
AcDbPolyline
 90
44
 70
0
 10
190.00000029999998
 20
6900.0000001
 10
193.9312318288451
 20
6900.0000001
 10
197.7786759828614
 20
6900.0000001
 10
201.460331169647
 20
6900.0000001
 10
204.89772930080204
 20
6900.0000001
 10
208.01760820300046
 20
6900.0000001
 10
210.75347307402035
 20
6900.0000001
 10
213.04701370400835
 20
6900.0000001
 10
214.8493472563673
 20
6900.0000001
 10
216.1220601205505
 20
6900.0000001
 10
216.83802663147853
 20
6900.0000001
 10
216.98198720599646
 20
6900.0000001
 10
216.55087357439558
 20
6900.0000001
 10
215.55387417525543
 20
6900.0000001
 10
214.012238319828
 20
6900.0000001
 10
211.95882329986026
 20
6900.0000001
 10
209.43739409146588
 20
6900.0000001
 10
206.50169058064193
 20
6900.0000001
 10
203.2142821908993
 20
6900.0000001
 10
199.6452343246306
 20
6900.0000001
 10
195.87061504070203
 20
6900.0000001
 10
191.97087379584448
 20
6900.0000001
 10
188.02912680415548
 20
6900.0000001
 10
184.12938555929796
 20
6900.0000001
 10
180.3547662753694
 20
6900.0000001
 10
176.7857184091007
 20
6900.0000001
 10
173.4983100193581
 20
6900.0000001
 10
170.56260650853412
 20
6900.0000001
 10
168.04117730013974
 20
6900.0000001
 10
165.98776228017198
 20
6900.0000001
 10
164.44612642474453
 20
6900.0000001
 10
163.4491270256044
 20
6900.0000001
 10
163.01801339400353
 20
6900.0000001
 10
163.16197396852147
 20
6900.0000001
 10
163.8779404794495
 20
6900.0000001
 10
165.15065334363268
 20
6900.0000001
 10
166.95298689599161
 20
6900.0000001
 10
169.24652752597962
 20
6900.0000001
 10
171.9823923969995
 20
6900.0000001
 10
175.10227129919792
 20
6900.0000001
 10
178.539669430353
 20
6900.0000001
 10
182.22132461713858
 20
6900.0000001
 10
186.06876877115485
 20
6900.0000001
 10
190.00000029999998
 20
6900.0000001
  0
LWPOLYLINE
  5
B7
330
17
100
AcDbEntity
  8
YZ
100
AcDbPolyline
 90
16
 70
0
 10
190.00000029999998
 20
6820.5000001
 10
187.75962081595372
 20
6820.023017143778
 10
185.91313889099132
 20
6818.68070165126
 10
184.77024970588988
 20
6816.702853223288
 10
184.53028446442255
 20
6814.42362464633
 10
185.23839390692817
 20
6812.247345998007
 10
186.76539274915874
 20
6810.551706721151
 10
188.85384020160515
 20
6809.620751366439
 10
191.14616039873567
 20
6809.620751355862
 10
193.2346078509754
 20
6810.551706721249
 10
194.76160669315487
 20
6812.247345998151
 10
195.46971613856343
 20
6814.4236246460605
 10
195.22975089337214
 20
6816.702853223139
 10
194.0868617088977
 20
6818.680701651383
 10
192.2403797681356
 20
6820.023017100995
 10
190.00000029999998
 20
6820.5000001
  0
LWPOLYLINE
  5
B8
330
17
100
AcDbEntity
  8
YZ
100
AcDbPolyline
 90
16
 70
0
 10
190.00000029999998
 20
6875.5000001
 10
187.75962081595418
 20
6875.023017143779
 10
185.91313889099197
 20
6873.68070165126
 10
184.7702497058903
 20
6871.702853223289
 10
184.53028446442232
 20
6869.4236246463315
 10
185.2383939069269
 20
6867.247345998009
 10
186.76539274915623
 20
6865.551706721152
 10
188.8538402016003
 20
6864.620751366437
 10
191.1461603987312
 20
6864.620751355861
 10
193.2346078509713
 20
6865.551706721245
 10
194.7616066931521
 20
6867.247345998146
 10
195.4697161385628
 20
6869.423624646054
 10
195.2297508933742
 20
6871.7028532231325
 10
194.08686170890246
 20
6873.680701651378
 10
192.24037976813514
 20
6875.023017100995
 10
190.00000029999998
 20
6875.5000001
  0
LWPOLYLINE
  5
B9
330
17
100
AcDbEntity
  8
YZ
100
AcDbPolyline
 90
2
 70
0
 10
190.00000029999998
 20
6820.5000001
 10
190.00000029999998
 20
6864.5000001
  0
LWPOLYLINE
  5
BA
330
17
100
AcDbEntity
  8
YZ
100
AcDbPolyline
 90
2
 70
0
 10
190.00000029999998
 20
9.999985195463523e-08
 10
190.00000029999998
 20
6809.5000001
  0
LWPOLYLINE
  5
BB
330
17
100
AcDbEntity
  8
YZ
100
AcDbPolyline
 90
2
 70
0
 10
190.00000029999998
 20
6875.5000001
 10
190.00000029999998
 20
6900.0000001
  0
DIMENSION
  5
BC
330
17
100
AcDbEntity
  8
DIMENSIONS
100
AcDbDimension
280
0
  2
*D5
  3
Standard
 10
160.0000002
 20
-24.0
 30
0.0
 11
190.00000029999998
 21
-24.0
 31
0.0
 70
32
 71
5
  1
<>
100
AcDbAlignedDimension
 13
160.0000002
 23
0.0
 33
0.0
 14
220.00000039999998
 24
0.0
 34
0.0
 50
0.0
100
AcDbRotatedDimension
1001
ACAD
1000
DSTYLE
1002
{
1070
140
1040
3.0
1070
41
1040
3.0
1070
271
1070
3
1002
}
  0
DIMENSION
  5
CC
330
17
100
AcDbEntity
  8
DIMENSIONS
100
AcDbDimension
280
0
  2
*D6
  3
Standard
 10
136.0000002
 20
0.0
 30
0.0
 11
136.0000002
 21
3450.0000001
 31
0.0
 70
32
 71
5
  1
<>
100
AcDbAlignedDimension
 13
160.0000002
 23
0.0
 33
0.0
 14
160.0000002
 24
6900.0000002
 34
0.0
 50
90.0
100
AcDbRotatedDimension
1001
ACAD
1000
DSTYLE
1002
{
1070
140
1040
3.0
1070
41
1040
3.0
1070
271
1070
3
1002
}
  0
TEXT
  5
DC
330
17
100
AcDbEntity
  8
NOTES
100
AcDbText
 10
0.0
 20
0.0
 30
0.0
 40
3.0
  1
SURFACE-V3 / mm / NON-ADOPTED DIGITAL CANDIDATE / NOT FOR FABRICATION
100
AcDbText
  0
TEXT
  5
DD
330
17
100
AcDbEntity
  8
NOTES
100
AcDbText
 10
0.0
 20
-6.0
 30
0.0
 40
3.0
  1
Orthographic wireframe; curves sampled. Source STEP owns geometry. Allocations are not hardware.
100
AcDbText
  0
ENDSEC
  0
SECTION
  2
OBJECTS
  0
DICTIONARY
  5
A
330
0
100
AcDbDictionary
281
1
  3
ACAD_COLOR
350
B
  3
ACAD_GROUP
350
C
  3
ACAD_LAYOUT
350
D
  3
ACAD_MATERIAL
350
E
  3
ACAD_MLEADERSTYLE
350
F
  3
ACAD_MLINESTYLE
350
10
  3
ACAD_PLOTSETTINGS
350
11
  3
ACAD_PLOTSTYLENAME
350
12
  3
ACAD_SCALELIST
350
14
  3
ACAD_TABLESTYLE
350
15
  3
ACAD_VISUALSTYLE
350
16
  3
EZDXF_META
350
2D
  0
DICTIONARY
  5
B
330
A
100
AcDbDictionary
281
1
  0
DICTIONARY
  5
C
330
A
100
AcDbDictionary
281
1
  0
DICTIONARY
  5
D
330
A
100
AcDbDictionary
281
1
  3
Model
350
1A
  3
Layout1
350
1E
  0
DICTIONARY
  5
E
330
A
100
AcDbDictionary
281
1
  3
ByBlock
350
1F
  3
ByLayer
350
20
  3
Global
350
21
  0
DICTIONARY
  5
F
330
A
100
AcDbDictionary
281
1
  3
Standard
350
2C
  0
DICTIONARY
  5
10
330
A
100
AcDbDictionary
281
1
  3
Standard
350
22
  0
DICTIONARY
  5
11
330
A
100
AcDbDictionary
281
1
  0
ACDBDICTIONARYWDFLT
  5
12
330
A
100
AcDbDictionary
281
1
  3
Normal
350
13
100
AcDbDictionaryWithDefault
340
13
  0
ACDBPLACEHOLDER
  5
13
330
12
  0
DICTIONARY
  5
14
330
A
100
AcDbDictionary
281
1
  0
DICTIONARY
  5
15
330
A
100
AcDbDictionary
281
1
  0
DICTIONARY
  5
16
330
A
100
AcDbDictionary
281
1
  0
LAYOUT
  5
1A
330
D
100
AcDbPlotSettings
  1

  4
A3
  6

 40
7.5
 41
20.0
 42
7.5
 43
20.0
 44
420.0
 45
297.0
 46
0.0
 47
0.0
 48
0.0
 49
0.0
140
0.0
141
0.0
142
1.0
143
1.0
 70
1024
 72
1
 73
0
 74
5
  7

 75
16
 76
0
 77
2
 78
300
147
1.0
148
0.0
149
0.0
100
AcDbLayout
  1
Model
 70
1
 71
0
 10
0.0
 20
0.0
 11
420.0
 21
297.0
 12
0.0
 22
0.0
 32
0.0
 14
1e+20
 24
1e+20
 34
1e+20
 15
-1e+20
 25
-1e+20
 35
-1e+20
146
0.0
 13
0.0
 23
0.0
 33
0.0
 16
1.0
 26
0.0
 36
0.0
 17
0.0
 27
1.0
 37
0.0
 76
1
330
17
  0
LAYOUT
  5
1E
330
D
100
AcDbPlotSettings
  1

  4
A3
  6

 40
7.5
 41
20.0
 42
7.5
 43
20.0
 44
420.0
 45
297.0
 46
0.0
 47
0.0
 48
0.0
 49
0.0
140
0.0
141
0.0
142
1.0
143
1.0
 70
0
 72
1
 73
0
 74
5
  7

 75
16
 76
0
 77
2
 78
300
147
1.0
148
0.0
149
0.0
100
AcDbLayout
  1
Layout1
 70
1
 71
1
 10
0.0
 20
0.0
 11
420.0
 21
297.0
 12
0.0
 22
0.0
 32
0.0
 14
1e+20
 24
1e+20
 34
1e+20
 15
-1e+20
 25
-1e+20
 35
-1e+20
146
0.0
 13
0.0
 23
0.0
 33
0.0
 16
1.0
 26
0.0
 36
0.0
 17
0.0
 27
1.0
 37
0.0
 76
1
330
1B
  0
MATERIAL
  5
1F
102
{ACAD_REACTORS
330
E
102
}
330
E
100
AcDbMaterial
  1
ByBlock
  2

 70
0
 40
1.0
 71
1
 41
1.0
 91
-1023410177
 42
1.0
 72
1
  3

 73
1
 74
1
 75
1
 44
0.5
 73
0
 45
1.0
 46
1.0
 77
1
  4

 78
1
 79
1
170
1
 48
1.0
171
1
  6

172
1
173
1
174
1
140
1.0
141
1.0
175
1
  7

176
1
177
1
178
1
143
1.0
179
1
  8

270
1
271
1
272
1
145
1.0
146
1.0
273
1
  9

274
1
275
1
276
1
 42
1.0
 72
1
  3

 73
1
 74
1
 75
1
 94
63
  0
MATERIAL
  5
20
102
{ACAD_REACTORS
330
E
102
}
330
E
100
AcDbMaterial
  1
ByLayer
  2

 70
0
 40
1.0
 71
1
 41
1.0
 91
-1023410177
 42
1.0
 72
1
  3

 73
1
 74
1
 75
1
 44
0.5
 73
0
 45
1.0
 46
1.0
 77
1
  4

 78
1
 79
1
170
1
 48
1.0
171
1
  6

172
1
173
1
174
1
140
1.0
141
1.0
175
1
  7

176
1
177
1
178
1
143
1.0
179
1
  8

270
1
271
1
272
1
145
1.0
146
1.0
273
1
  9

274
1
275
1
276
1
 42
1.0
 72
1
  3

 73
1
 74
1
 75
1
 94
63
  0
MATERIAL
  5
21
102
{ACAD_REACTORS
330
E
102
}
330
E
100
AcDbMaterial
  1
Global
  2

 70
0
 40
1.0
 71
1
 41
1.0
 91
-1023410177
 42
1.0
 72
1
  3

 73
1
 74
1
 75
1
 44
0.5
 73
0
 45
1.0
 46
1.0
 77
1
  4

 78
1
 79
1
170
1
 48
1.0
171
1
  6

172
1
173
1
174
1
140
1.0
141
1.0
175
1
  7

176
1
177
1
178
1
143
1.0
179
1
  8

270
1
271
1
272
1
145
1.0
146
1.0
273
1
  9

274
1
275
1
276
1
 42
1.0
 72
1
  3

 73
1
 74
1
 75
1
 94
63
  0
MLINESTYLE
  5
22
102
{ACAD_REACTORS
330
10
102
}
330
10
100
AcDbMlineStyle
  2
Standard
 70
0
  3

 62
256
 51
90.0
 52
90.0
 71
2
 49
0.5
 62
256
  6
BYLAYER
 49
-0.5
 62
256
  6
BYLAYER
  0
MLEADERSTYLE
  5
2C
102
{ACAD_REACTORS
330
F
102
}
330
F
100
AcDbMLeaderStyle
179
2
170
2
171
1
172
0
 90
2
 40
0.0
 41
0.0
173
1
 91
-1056964608
 92
-2
290
1
 42
2.0
291
1
 43
8.0
  3
Standard
 44
4.0
300

342
29
174
1
175
1
176
0
178
1
 93
-1056964608
 45
4.0
292
0
297
0
 46
4.0
 94
-1056964608
 47
1.0
 49
1.0
140
1.0
294
1
141
0.0
177
0
142
1.0
295
0
296
0
143
3.75
271
0
272
9
273
9
  0
DICTIONARY
  5
2D
330
A
100
AcDbDictionary
280
1
281
1
  3
CREATED_BY_EZDXF
350
2E
  3
WRITTEN_BY_EZDXF
350
E0
  0
DICTIONARYVAR
  5
2E
330
2D
100
DictionaryVariables
280
0
  1
1.4.3 @ 2026-09-27T12:50:51.112015+00:00
  0
DICTIONARYVAR
  5
E0
330
2D
100
DictionaryVariables
280
0
  1
1.4.3 @ 2026-09-27T12:50:51.139891+00:00
  0
ENDSEC
  0
EOF
