  0
SECTION
  2
HEADER
  9
$ACADVER
  1
AC1032
  9
$ACADMAINTVER
 90
4
  9
$DWGCODEPAGE
  3
ANSI_1252
  9
$LASTSAVEDBY
  1
ezdxf
  9
$REQUIREDVERSIONS
160
0
  9
$INSBASE
 10
0.0
 20
0.0
 30
0.0
  9
$EXTMIN
 10
1e+20
 20
1e+20
 30
1e+20
  9
$EXTMAX
 10
-1e+20
 20
-1e+20
 30
-1e+20
  9
$LIMMIN
 10
0.0
 20
0.0
  9
$LIMMAX
 10
420.0
 20
297.0
  9
$ORTHOMODE
 70
0
  9
$REGENMODE
 70
1
  9
$FILLMODE
 70
1
  9
$QTEXTMODE
 70
0
  9
$MIRRTEXT
 70
1
  9
$LTSCALE
 40
1.0
  9
$ATTMODE
 70
1
  9
$TEXTSIZE
 40
2.5
  9
$TRACEWID
 40
1.0
  9
$TEXTSTYLE
  7
Standard
  9
$CLAYER
  8
0
  9
$CELTYPE
  6
ByLayer
  9
$CECOLOR
 62
256
  9
$CELTSCALE
 40
1.0
  9
$DISPSILH
 70
0
  9
$DIMSCALE
 40
1.0
  9
$DIMASZ
 40
2.5
  9
$DIMEXO
 40
0.625
  9
$DIMDLI
 40
3.75
  9
$DIMRND
 40
0.0
  9
$DIMDLE
 40
0.0
  9
$DIMEXE
 40
1.25
  9
$DIMTP
 40
0.0
  9
$DIMTM
 40
0.0
  9
$DIMTXT
 40
2.5
  9
$DIMCEN
 40
2.5
  9
$DIMTSZ
 40
0.0
  9
$DIMTOL
 70
0
  9
$DIMLIM
 70
0
  9
$DIMTIH
 70
0
  9
$DIMTOH
 70
0
  9
$DIMSE1
 70
0
  9
$DIMSE2
 70
0
  9
$DIMTAD
 70
1
  9
$DIMZIN
 70
8
  9
$DIMBLK
  1

  9
$DIMASO
 70
1
  9
$DIMSHO
 70
1
  9
$DIMPOST
  1

  9
$DIMAPOST
  1

  9
$DIMALT
 70
0
  9
$DIMALTD
 70
3
  9
$DIMALTF
 40
0.03937007874
  9
$DIMLFAC
 40
1.0
  9
$DIMTOFL
 70
1
  9
$DIMTVP
 40
0.0
  9
$DIMTIX
 70
0
  9
$DIMSOXD
 70
0
  9
$DIMSAH
 70
0
  9
$DIMBLK1
  1

  9
$DIMBLK2
  1

  9
$DIMSTYLE
  2
ISO-25
  9
$DIMCLRD
 70
0
  9
$DIMCLRE
 70
0
  9
$DIMCLRT
 70
0
  9
$DIMTFAC
 40
1.0
  9
$DIMGAP
 40
0.625
  9
$DIMJUST
 70
0
  9
$DIMSD1
 70
0
  9
$DIMSD2
 70
0
  9
$DIMTOLJ
 70
0
  9
$DIMTZIN
 70
8
  9
$DIMALTZ
 70
0
  9
$DIMALTTZ
 70
0
  9
$DIMUPT
 70
0
  9
$DIMDEC
 70
2
  9
$DIMTDEC
 70
2
  9
$DIMALTU
 70
2
  9
$DIMALTTD
 70
3
  9
$DIMTXSTY
  7
Standard
  9
$DIMAUNIT
 70
0
  9
$DIMADEC
 70
0
  9
$DIMALTRND
 40
0.0
  9
$DIMAZIN
 70
0
  9
$DIMDSEP
 70
44
  9
$DIMATFIT
 70
3
  9
$DIMFRAC
 70
0
  9
$DIMLDRBLK
  1

  9
$DIMLUNIT
 70
2
  9
$DIMLWD
 70
-2
  9
$DIMLWE
 70
-2
  9
$DIMTMOVE
 70
0
  9
$DIMFXL
 40
1.0
  9
$DIMFXLON
 70
0
  9
$DIMJOGANG
 40
0.785398163397
  9
$DIMTFILL
 70
0
  9
$DIMTFILLCLR
 70
0
  9
$DIMARCSYM
 70
0
  9
$DIMLTYPE
  6

  9
$DIMLTEX1
  6

  9
$DIMLTEX2
  6

  9
$DIMTXTDIRECTION
 70
0
  9
$LUNITS
 70
2
  9
$LUPREC
 70
4
  9
$SKETCHINC
 40
1.0
  9
$FILLETRAD
 40
10.0
  9
$AUNITS
 70
0
  9
$AUPREC
 70
2
  9
$MENU
  1
.
  9
$ELEVATION
 40
0.0
  9
$PELEVATION
 40
0.0
  9
$THICKNESS
 40
0.0
  9
$LIMCHECK
 70
0
  9
$CHAMFERA
 40
0.0
  9
$CHAMFERB
 40
0.0
  9
$CHAMFERC
 40
0.0
  9
$CHAMFERD
 40
0.0
  9
$SKPOLY
 70
0
  9
$TDCREATE
 40
2461311.5922916667
  9
$TDUCREATE
 40
2458532.153996898
  9
$TDUPDATE
 40
2461311.5922916667
  9
$TDUUPDATE
 40
2458532.1544311
  9
$TDINDWG
 40
0.0
  9
$TDUSRTIMER
 40
0.0
  9
$USRTIMER
 70
1
  9
$ANGBASE
 50
0.0
  9
$ANGDIR
 70
0
  9
$PDMODE
 70
0
  9
$PDSIZE
 40
0.0
  9
$PLINEWID
 40
0.0
  9
$SPLFRAME
 70
0
  9
$SPLINETYPE
 70
6
  9
$SPLINESEGS
 70
8
  9
$HANDSEED
  5
2BA
  9
$SURFTAB1
 70
6
  9
$SURFTAB2
 70
6
  9
$SURFTYPE
 70
6
  9
$SURFU
 70
6
  9
$SURFV
 70
6
  9
$UCSBASE
  2

  9
$UCSNAME
  2

  9
$UCSORG
 10
0.0
 20
0.0
 30
0.0
  9
$UCSXDIR
 10
1.0
 20
0.0
 30
0.0
  9
$UCSYDIR
 10
0.0
 20
1.0
 30
0.0
  9
$UCSORTHOREF
  2

  9
$UCSORTHOVIEW
 70
0
  9
$UCSORGTOP
 10
0.0
 20
0.0
 30
0.0
  9
$UCSORGBOTTOM
 10
0.0
 20
0.0
 30
0.0
  9
$UCSORGLEFT
 10
0.0
 20
0.0
 30
0.0
  9
$UCSORGRIGHT
 10
0.0
 20
0.0
 30
0.0
  9
$UCSORGFRONT
 10
0.0
 20
0.0
 30
0.0
  9
$UCSORGBACK
 10
0.0
 20
0.0
 30
0.0
  9
$PUCSBASE
  2

  9
$PUCSNAME
  2

  9
$PUCSORG
 10
0.0
 20
0.0
 30
0.0
  9
$PUCSXDIR
 10
1.0
 20
0.0
 30
0.0
  9
$PUCSYDIR
 10
0.0
 20
1.0
 30
0.0
  9
$PUCSORTHOREF
  2

  9
$PUCSORTHOVIEW
 70
0
  9
$PUCSORGTOP
 10
0.0
 20
0.0
 30
0.0
  9
$PUCSORGBOTTOM
 10
0.0
 20
0.0
 30
0.0
  9
$PUCSORGLEFT
 10
0.0
 20
0.0
 30
0.0
  9
$PUCSORGRIGHT
 10
0.0
 20
0.0
 30
0.0
  9
$PUCSORGFRONT
 10
0.0
 20
0.0
 30
0.0
  9
$PUCSORGBACK
 10
0.0
 20
0.0
 30
0.0
  9
$USERI1
 70
0
  9
$USERI2
 70
0
  9
$USERI3
 70
0
  9
$USERI4
 70
0
  9
$USERI5
 70
0
  9
$USERR1
 40
0.0
  9
$USERR2
 40
0.0
  9
$USERR3
 40
0.0
  9
$USERR4
 40
0.0
  9
$USERR5
 40
0.0
  9
$WORLDVIEW
 70
1
  9
$SHADEDGE
 70
3
  9
$SHADEDIF
 70
70
  9
$TILEMODE
 70
1
  9
$MAXACTVP
 70
64
  9
$PINSBASE
 10
0.0
 20
0.0
 30
0.0
  9
$PLIMCHECK
 70
0
  9
$PEXTMIN
 10
1e+20
 20
1e+20
 30
1e+20
  9
$PEXTMAX
 10
-1e+20
 20
-1e+20
 30
-1e+20
  9
$PLIMMIN
 10
0.0
 20
0.0
  9
$PLIMMAX
 10
420.0
 20
297.0
  9
$UNITMODE
 70
0
  9
$VISRETAIN
 70
1
  9
$PLINEGEN
 70
0
  9
$PSLTSCALE
 70
1
  9
$TREEDEPTH
 70
3020
  9
$CMLSTYLE
  2
Standard
  9
$CMLJUST
 70
0
  9
$CMLSCALE
 40
20.0
  9
$PROXYGRAPHICS
 70
1
  9
$MEASUREMENT
 70
1
  9
$CELWEIGHT
370
-1
  9
$ENDCAPS
280
0
  9
$JOINSTYLE
280
0
  9
$LWDISPLAY
290
0
  9
$INSUNITS
 70
4
  9
$HYPERLINKBASE
  1

  9
$STYLESHEET
  1

  9
$XEDIT
290
1
  9
$CEPSNTYPE
380
0
  9
$PSTYLEMODE
290
1
  9
$FINGERPRINTGUID
  2
{E999C8EA-A447-46A1-BA72-C1B329B5968B}
  9
$VERSIONGUID
  2
{8908CE0F-9A45-47FA-9041-A0AEB788142C}
  9
$EXTNAMES
290
1
  9
$PSVPSCALE
 40
0.0
  9
$OLESTARTUP
290
0
  9
$SORTENTS
280
127
  9
$INDEXCTL
280
0
  9
$HIDETEXT
280
1
  9
$XCLIPFRAME
280
1
  9
$HALOGAP
280
0
  9
$OBSCOLOR
 70
257
  9
$OBSLTYPE
280
0
  9
$INTERSECTIONDISPLAY
280
0
  9
$INTERSECTIONCOLOR
 70
257
  9
$DIMASSOC
280
2
  9
$PROJECTNAME
  1

  9
$CAMERADISPLAY
290
0
  9
$LENSLENGTH
 40
50.0
  9
$CAMERAHEIGHT
 40
0.0
  9
$STEPSPERSEC
 40
24.0
  9
$STEPSIZE
 40
100.0
  9
$3DDWFPREC
 40
2.0
  9
$PSOLWIDTH
 40
0.005
  9
$PSOLHEIGHT
 40
0.08
  9
$LOFTANG1
 40
1.570796326795
  9
$LOFTANG2
 40
1.570796326795
  9
$LOFTMAG1
 40
0.0
  9
$LOFTMAG2
 40
0.0
  9
$LOFTPARAM
 70
7
  9
$LOFTNORMALS
280
1
  9
$LATITUDE
 40
37.795
  9
$LONGITUDE
 40
-122.394
  9
$NORTHDIRECTION
 40
0.0
  9
$TIMEZONE
 70
-8000
  9
$LIGHTGLYPHDISPLAY
280
1
  9
$TILEMODELIGHTSYNCH
280
1
  9
$CMATERIAL
347
20
  9
$SOLIDHIST
280
0
  9
$SHOWHIST
280
1
  9
$DWFFRAME
280
2
  9
$DGNFRAME
280
2
  9
$REALWORLDSCALE
290
1
  9
$INTERFERECOLOR
 62
256
  9
$CSHADOW
280
0
  9
$SHADOWPLANELOCATION
 40
0.0
  0
ENDSEC
  0
SECTION
  2
CLASSES
  0
CLASS
  1
ACDBDICTIONARYWDFLT
  2
AcDbDictionaryWithDefault
  3
ObjectDBX Classes
 90
0
 91
0
280
0
281
0
  0
CLASS
  1
SUN
  2
AcDbSun
  3
SCENEOE
 90
1153
 91
0
280
0
281
0
  0
CLASS
  1
VISUALSTYLE
  2
AcDbVisualStyle
  3
ObjectDBX Classes
 90
4095
 91
0
280
0
281
0
  0
CLASS
  1
MATERIAL
  2
AcDbMaterial
  3
ObjectDBX Classes
 90
1153
 91
0
280
0
281
0
  0
CLASS
  1
SCALE
  2
AcDbScale
  3
ObjectDBX Classes
 90
1153
 91
0
280
0
281
0
  0
CLASS
  1
TABLESTYLE
  2
AcDbTableStyle
  3
ObjectDBX Classes
 90
4095
 91
0
280
0
281
0
  0
CLASS
  1
MLEADERSTYLE
  2
AcDbMLeaderStyle
  3
ACDB_MLEADERSTYLE_CLASS
 90
4095
 91
0
280
0
281
0
  0
CLASS
  1
DICTIONARYVAR
  2
AcDbDictionaryVar
  3
ObjectDBX Classes
 90
0
 91
0
280
0
281
0
  0
CLASS
  1
CELLSTYLEMAP
  2
AcDbCellStyleMap
  3
ObjectDBX Classes
 90
1152
 91
0
280
0
281
0
  0
CLASS
  1
MENTALRAYRENDERSETTINGS
  2
AcDbMentalRayRenderSettings
  3
SCENEOE
 90
1024
 91
0
280
0
281
0
  0
CLASS
  1
ACDBDETAILVIEWSTYLE
  2
AcDbDetailViewStyle
  3
ObjectDBX Classes
 90
1025
 91
0
280
0
281
0
  0
CLASS
  1
ACDBSECTIONVIEWSTYLE
  2
AcDbSectionViewStyle
  3
ObjectDBX Classes
 90
1025
 91
0
280
0
281
0
  0
CLASS
  1
RASTERVARIABLES
  2
AcDbRasterVariables
  3
ISM
 90
0
 91
0
280
0
281
0
  0
CLASS
  1
ACDBPLACEHOLDER
  2
AcDbPlaceHolder
  3
ObjectDBX Classes
 90
0
 91
0
280
0
281
0
  0
CLASS
  1
LAYOUT
  2
AcDbLayout
  3
ObjectDBX Classes
 90
0
 91
0
280
0
281
0
  0
ENDSEC
  0
SECTION
  2
TABLES
  0
TABLE
  2
VPORT
  5
8
330
0
100
AcDbSymbolTable
 70
1
  0
VPORT
  5
23
330
8
100
AcDbSymbolTableRecord
100
AcDbViewportTableRecord
  2
*Active
 70
0
 10
0.0
 20
0.0
 11
1.0
 21
1.0
 12
0.0
 22
0.0
 13
0.0
 23
0.0
 14
0.5
 24
0.5
 15
0.5
 25
0.5
 16
0.0
 26
0.0
 36
1.0
 17
0.0
 27
0.0
 37
0.0
 40
1000.0
 41
1.34
 42
50.0
 43
0.0
 44
0.0
 50
0.0
 51
0.0
 71
0
 72
1000
 73
1
 74
3
 75
0
 76
0
 77
0
 78
0
281
0
 65
0
146
0.0
  0
ENDTAB
  0
TABLE
  2
LTYPE
  5
2
330
0
100
AcDbSymbolTable
 70
3
  0
LTYPE
  5
24
330
2
100
AcDbSymbolTableRecord
100
AcDbLinetypeTableRecord
  2
ByBlock
 70
0
  3

 72
65
 73
0
 40
0.0
  0
LTYPE
  5
25
330
2
100
AcDbSymbolTableRecord
100
AcDbLinetypeTableRecord
  2
ByLayer
 70
0
  3

 72
65
 73
0
 40
0.0
  0
LTYPE
  5
26
330
2
100
AcDbSymbolTableRecord
100
AcDbLinetypeTableRecord
  2
Continuous
 70
0
  3

 72
65
 73
0
 40
0.0
  0
ENDTAB
  0
TABLE
  2
LAYER
  5
1
330
0
100
AcDbSymbolTable
 70
7
  0
LAYER
  5
27
330
1
100
AcDbSymbolTableRecord
100
AcDbLayerTableRecord
  2
0
 70
0
 62
7
  6
Continuous
370
-3
390
13
347
21
  0
LAYER
  5
28
330
1
100
AcDbSymbolTableRecord
100
AcDbLayerTableRecord
  2
Defpoints
 70
0
 62
7
  6
Continuous
290
0
370
-3
390
13
347
21
  0
LAYER
  5
2F
330
1
100
AcDbSymbolTableRecord
100
AcDbLayerTableRecord
  2
TOP
 70
0
 62
7
  6
Continuous
370
-3
390
13
347
21
  0
LAYER
  5
30
330
1
100
AcDbSymbolTableRecord
100
AcDbLayerTableRecord
  2
FRONT
 70
0
 62
7
  6
Continuous
370
-3
390
13
347
21
  0
LAYER
  5
31
330
1
100
AcDbSymbolTableRecord
100
AcDbLayerTableRecord
  2
RIGHT
 70
0
 62
7
  6
Continuous
370
-3
390
13
347
21
  0
LAYER
  5
32
330
1
100
AcDbSymbolTableRecord
100
AcDbLayerTableRecord
  2
NOTES
 70
0
 62
7
  6
Continuous
370
-3
390
13
347
21
  0
LAYER
  5
33
330
1
100
AcDbSymbolTableRecord
100
AcDbLayerTableRecord
  2
DIMENSIONS
 70
0
 62
7
  6
Continuous
370
-3
390
13
347
21
  0
ENDTAB
  0
TABLE
  2
STYLE
  5
5
330
0
100
AcDbSymbolTable
 70
1
  0
STYLE
  5
29
330
5
100
AcDbSymbolTableRecord
100
AcDbTextStyleTableRecord
  2
Standard
 70
0
 40
0.0
 41
1.0
 50
0.0
 71
0
 42
2.5
  3
txt
  4

  0
ENDTAB
  0
TABLE
  2
VIEW
  5
7
330
0
100
AcDbSymbolTable
 70
0
  0
ENDTAB
  0
TABLE
  2
UCS
  5
6
330
0
100
AcDbSymbolTable
 70
0
  0
ENDTAB
  0
TABLE
  2
APPID
  5
3
330
0
100
AcDbSymbolTable
 70
3
  0
APPID
  5
2A
330
3
100
AcDbSymbolTableRecord
100
AcDbRegAppTableRecord
  2
ACAD
 70
0
  0
APPID
  5
2B7
330
3
100
AcDbSymbolTableRecord
100
AcDbRegAppTableRecord
  2
HATCHBACKGROUNDCOLOR
 70
0
  0
APPID
  5
2B8
330
3
100
AcDbSymbolTableRecord
100
AcDbRegAppTableRecord
  2
EZDXF
 70
0
  0
ENDTAB
  0
TABLE
  2
DIMSTYLE
  5
4
330
0
100
AcDbSymbolTable
 70
1
100
AcDbDimStyleTable
  0
DIMSTYLE
105
2B
330
4
100
AcDbSymbolTableRecord
100
AcDbDimStyleTableRecord
  2
Standard
 70
0
 40
1.0
 41
2.5
 42
0.625
 43
3.75
 44
1.25
 45
0.0
 46
0.0
 47
0.0
 48
0.0
 49
2.5
140
2.5
141
2.5
142
0.0
143
0.03937007874
144
1.0
145
0.0
146
1.0
147
0.625
148
0.0
 69
0
 70
0
 71
0
 72
0
 73
0
 74
0
 75
0
 76
0
 77
1
 78
8
 79
3
170
0
171
3
172
1
173
0
174
0
175
0
176
0
177
0
178
0
179
2
271
2
272
2
273
2
274
3
275
0
276
0
277
2
278
44
279
0
280
0
281
0
282
0
283
0
284
8
285
0
286
0
288
0
289
3
290
0
371
-2
372
-2
  0
ENDTAB
  0
TABLE
  2
BLOCK_RECORD
  5
9
330
0
100
AcDbSymbolTable
 70
9
  0
BLOCK_RECORD
  5
17
330
9
100
AcDbSymbolTableRecord
100
AcDbBlockTableRecord
  2
*Model_Space
340
1A
 70
0
280
1
281
0
  0
BLOCK_RECORD
  5
1B
330
9
100
AcDbSymbolTableRecord
100
AcDbBlockTableRecord
  2
*Paper_Space
340
1E
 70
0
280
1
281
0
  0
BLOCK_RECORD
  5
ED
330
9
100
AcDbSymbolTableRecord
100
AcDbBlockTableRecord
  2
*D1
340
0
 70
0
280
1
281
0
  0
BLOCK_RECORD
  5
F2
330
9
100
AcDbSymbolTableRecord
100
AcDbBlockTableRecord
  2
_CLOSEDFILLED
340
0
 70
0
280
1
281
0
  0
BLOCK_RECORD
  5
101
330
9
100
AcDbSymbolTableRecord
100
AcDbBlockTableRecord
  2
*D2
340
0
 70
0
280
1
281
0
  0
BLOCK_RECORD
  5
1B9
330
9
100
AcDbSymbolTableRecord
100
AcDbBlockTableRecord
  2
*D3
340
0
 70
0
280
1
281
0
  0
BLOCK_RECORD
  5
1C9
330
9
100
AcDbSymbolTableRecord
100
AcDbBlockTableRecord
  2
*D4
340
0
 70
0
280
1
281
0
  0
BLOCK_RECORD
  5
291
330
9
100
AcDbSymbolTableRecord
100
AcDbBlockTableRecord
  2
*D5
340
0
 70
0
280
1
281
0
  0
BLOCK_RECORD
  5
2A1
330
9
100
AcDbSymbolTableRecord
100
AcDbBlockTableRecord
  2
*D6
340
0
 70
0
280
1
281
0
  0
ENDTAB
  0
ENDSEC
  0
SECTION
  2
BLOCKS
  0
BLOCK
  5
18
330
17
100
AcDbEntity
  8
0
100
AcDbBlockBegin
  2
*Model_Space
 70
0
 10
0.0
 20
0.0
 30
0.0
  3
*Model_Space
  1

  0
ENDBLK
  5
19
330
17
100
AcDbEntity
  8
0
100
AcDbBlockEnd
  0
BLOCK
  5
1C
330
1B
100
AcDbEntity
  8
0
100
AcDbBlockBegin
  2
*Paper_Space
 70
0
 10
0.0
 20
0.0
 30
0.0
  3
*Paper_Space
  1

  0
ENDBLK
  5
1D
330
1B
100
AcDbEntity
  8
0
100
AcDbBlockEnd
  0
BLOCK
  5
EE
330
ED
100
AcDbEntity
  8
0
100
AcDbBlockBegin
  2
*D1
 70
1
 10
0.0
 20
0.0
 30
0.0
  3
*D1
  1

  0
LINE
  5
F0
330
ED
100
AcDbEntity
  8
0
100
AcDbLine
 10
0.0
 20
0.0
 30
0.0
 11
0.0
 21
-35.0
 31
0.0
  0
LINE
  5
F1
330
ED
100
AcDbEntity
  8
0
100
AcDbLine
 10
375.0
 20
0.0
 30
0.0
 11
375.0
 21
-35.0
 31
0.0
  0
INSERT
  5
F6
330
ED
100
AcDbEntity
  8
DIMENSIONS
100
AcDbBlockReference
  2
_CLOSEDFILLED
 10
0.0
 20
-35.0
 30
0.0
 41
2.5
 42
2.5
 50
180.0
  0
INSERT
  5
F8
330
ED
100
AcDbEntity
  8
DIMENSIONS
100
AcDbBlockReference
  2
_CLOSEDFILLED
 10
375.0
 20
-35.0
 30
0.0
 41
2.5
 42
2.5
  0
LINE
  5
FA
330
ED
100
AcDbEntity
  8
0
100
AcDbLine
 10
2.5
 20
-35.0
 30
0.0
 11
183.75
 21
-35.0
 31
0.0
  0
LINE
  5
FB
330
ED
100
AcDbEntity
  8
0
100
AcDbLine
 10
191.24999999999997
 20
-35.0
 30
0.0
 11
372.5
 21
-35.0
 31
0.0
  0
MTEXT
  5
FC
330
ED
100
AcDbEntity
  8
DIMENSIONS
100
AcDbMText
 10
187.5
 20
-35.0
 30
0.0
 40
2.5
 71
5
  1
375
  0
POINT
  5
FD
330
ED
100
AcDbEntity
  8
Defpoints
100
AcDbPoint
 10
0.0
 20
-35.0
 30
0.0
  0
POINT
  5
FE
330
ED
100
AcDbEntity
  8
Defpoints
100
AcDbPoint
 10
0.0
 20
0.0
 30
0.0
  0
POINT
  5
FF
330
ED
100
AcDbEntity
  8
Defpoints
100
AcDbPoint
 10
375.0
 20
0.0
 30
0.0
  0
ENDBLK
  5
EF
330
ED
100
AcDbEntity
  8
0
100
AcDbBlockEnd
  0
BLOCK
  5
F3
330
F2
100
AcDbEntity
  8
0
100
AcDbBlockBegin
  2
_CLOSEDFILLED
 70
0
 10
0.0
 20
0.0
 30
0.0
  3
_CLOSEDFILLED
  1

  0
SOLID
  5
F5
330
F2
100
AcDbEntity
  8
0
  6
BYBLOCK
 62
0
100
AcDbTrace
 10
-1.0
 20
0.16439898372402537
 30
0.0
 11
0.0
 21
0.0
 31
0.0
 12
-1.0
 22
-0.16439898372402537
 32
0.0
 13
-1.0
 23
-0.16439898372402537
 33
0.0
  0
ENDBLK
  5
F4
330
F2
100
AcDbEntity
  8
0
100
AcDbBlockEnd
  0
BLOCK
  5
102
330
101
100
AcDbEntity
  8
0
100
AcDbBlockBegin
  2
*D2
 70
1
 10
0.0
 20
0.0
 30
0.0
  3
*D2
  1

  0
LINE
  5
104
330
101
100
AcDbEntity
  8
0
100
AcDbLine
 10
0.0
 20
0.0
 30
0.0
 11
-35.0
 21
0.0
 31
0.0
  0
LINE
  5
105
330
101
100
AcDbEntity
  8
0
100
AcDbLine
 10
0.0
 20
275.0
 30
0.0
 11
-35.0
 21
275.0
 31
0.0
  0
INSERT
  5
106
330
101
100
AcDbEntity
  8
DIMENSIONS
100
AcDbBlockReference
  2
_CLOSEDFILLED
 10
-35.0
 20
0.0
 30
0.0
 41
2.5
 42
2.5
 50
270.0
  0
INSERT
  5
108
330
101
100
AcDbEntity
  8
DIMENSIONS
100
AcDbBlockReference
  2
_CLOSEDFILLED
 10
-35.0
 20
275.0
 30
0.0
 41
2.5
 42
2.5
 50
90.0
  0
LINE
  5
10A
330
101
100
AcDbEntity
  8
0
100
AcDbLine
 10
-35.0
 20
2.5
 30
0.0
 11
-35.0
 21
133.75
 31
0.0
  0
LINE
  5
10B
330
101
100
AcDbEntity
  8
0
100
AcDbLine
 10
-35.0
 20
141.25
 30
0.0
 11
-35.0
 21
272.5
 31
0.0
  0
MTEXT
  5
10C
330
101
100
AcDbEntity
  8
DIMENSIONS
100
AcDbMText
 10
-35.0
 20
137.5
 30
0.0
 40
2.5
 71
5
  1
275
 50
90.0
  0
POINT
  5
10D
330
101
100
AcDbEntity
  8
Defpoints
100
AcDbPoint
 10
-35.0
 20
0.0
 30
0.0
  0
POINT
  5
10E
330
101
100
AcDbEntity
  8
Defpoints
100
AcDbPoint
 10
0.0
 20
0.0
 30
0.0
  0
POINT
  5
10F
330
101
100
AcDbEntity
  8
Defpoints
100
AcDbPoint
 10
0.0
 20
275.0
 30
0.0
  0
ENDBLK
  5
103
330
101
100
AcDbEntity
  8
0
100
AcDbBlockEnd
  0
BLOCK
  5
1BA
330
1B9
100
AcDbEntity
  8
0
100
AcDbBlockBegin
  2
*D3
 70
1
 10
0.0
 20
0.0
 30
0.0
  3
*D3
  1

  0
LINE
  5
1BC
330
1B9
100
AcDbEntity
  8
0
100
AcDbLine
 10
0.0
 20
-427.5
 30
0.0
 11
0.0
 21
-462.5
 31
0.0
  0
LINE
  5
1BD
330
1B9
100
AcDbEntity
  8
0
100
AcDbLine
 10
375.0
 20
-427.5
 30
0.0
 11
375.0
 21
-462.5
 31
0.0
  0
INSERT
  5
1BE
330
1B9
100
AcDbEntity
  8
DIMENSIONS
100
AcDbBlockReference
  2
_CLOSEDFILLED
 10
0.0
 20
-462.5
 30
0.0
 41
2.5
 42
2.5
 50
180.0
  0
INSERT
  5
1C0
330
1B9
100
AcDbEntity
  8
DIMENSIONS
100
AcDbBlockReference
  2
_CLOSEDFILLED
 10
375.0
 20
-462.5
 30
0.0
 41
2.5
 42
2.5
  0
LINE
  5
1C2
330
1B9
100
AcDbEntity
  8
0
100
AcDbLine
 10
2.5
 20
-462.5
 30
0.0
 11
183.75
 21
-462.5
 31
0.0
  0
LINE
  5
1C3
330
1B9
100
AcDbEntity
  8
0
100
AcDbLine
 10
191.24999999999997
 20
-462.5
 30
0.0
 11
372.5
 21
-462.5
 31
0.0
  0
MTEXT
  5
1C4
330
1B9
100
AcDbEntity
  8
DIMENSIONS
100
AcDbMText
 10
187.5
 20
-462.5
 30
0.0
 40
2.5
 71
5
  1
375
  0
POINT
  5
1C5
330
1B9
100
AcDbEntity
  8
Defpoints
100
AcDbPoint
 10
0.0
 20
-462.5
 30
0.0
  0
POINT
  5
1C6
330
1B9
100
AcDbEntity
  8
Defpoints
100
AcDbPoint
 10
0.0
 20
-427.5
 30
0.0
  0
POINT
  5
1C7
330
1B9
100
AcDbEntity
  8
Defpoints
100
AcDbPoint
 10
375.0
 20
-427.5
 30
0.0
  0
ENDBLK
  5
1BB
330
1B9
100
AcDbEntity
  8
0
100
AcDbBlockEnd
  0
BLOCK
  5
1CA
330
1C9
100
AcDbEntity
  8
0
100
AcDbBlockBegin
  2
*D4
 70
1
 10
0.0
 20
0.0
 30
0.0
  3
*D4
  1

  0
LINE
  5
1CC
330
1C9
100
AcDbEntity
  8
0
100
AcDbLine
 10
0.0
 20
-427.5
 30
0.0
 11
-35.0
 21
-427.5
 31
0.0
  0
LINE
  5
1CD
330
1C9
100
AcDbEntity
  8
0
100
AcDbLine
 10
0.0
 20
-150.0
 30
0.0
 11
-35.0
 21
-150.0
 31
0.0
  0
INSERT
  5
1CE
330
1C9
100
AcDbEntity
  8
DIMENSIONS
100
AcDbBlockReference
  2
_CLOSEDFILLED
 10
-35.0
 20
-427.5
 30
0.0
 41
2.5
 42
2.5
 50
270.0
  0
INSERT
  5
1D0
330
1C9
100
AcDbEntity
  8
DIMENSIONS
100
AcDbBlockReference
  2
_CLOSEDFILLED
 10
-35.0
 20
-150.0
 30
0.0
 41
2.5
 42
2.5
 50
90.0
  0
LINE
  5
1D2
330
1C9
100
AcDbEntity
  8
0
100
AcDbLine
 10
-35.0
 20
-425.0
 30
0.0
 11
-35.0
 21
-295.0
 31
0.0
  0
LINE
  5
1D3
330
1C9
100
AcDbEntity
  8
0
100
AcDbLine
 10
-35.0
 20
-282.5
 30
0.0
 11
-35.0
 21
-152.5
 31
0.0
  0
MTEXT
  5
1D4
330
1C9
100
AcDbEntity
  8
DIMENSIONS
100
AcDbMText
 10
-35.0
 20
-288.75
 30
0.0
 40
2.5
 71
5
  1
277,5
 50
90.0
  0
POINT
  5
1D5
330
1C9
100
AcDbEntity
  8
Defpoints
100
AcDbPoint
 10
-35.0
 20
-427.5
 30
0.0
  0
POINT
  5
1D6
330
1C9
100
AcDbEntity
  8
Defpoints
100
AcDbPoint
 10
0.0
 20
-427.5
 30
0.0
  0
POINT
  5
1D7
330
1C9
100
AcDbEntity
  8
Defpoints
100
AcDbPoint
 10
0.0
 20
-150.0
 30
0.0
  0
ENDBLK
  5
1CB
330
1C9
100
AcDbEntity
  8
0
100
AcDbBlockEnd
  0
BLOCK
  5
292
330
291
100
AcDbEntity
  8
0
100
AcDbBlockBegin
  2
*D5
 70
1
 10
0.0
 20
0.0
 30
0.0
  3
*D5
  1

  0
LINE
  5
294
330
291
100
AcDbEntity
  8
0
100
AcDbLine
 10
525.0
 20
0.0
 30
0.0
 11
525.0
 21
-35.0
 31
0.0
  0
LINE
  5
295
330
291
100
AcDbEntity
  8
0
100
AcDbLine
 10
800.0
 20
0.0
 30
0.0
 11
800.0
 21
-35.0
 31
0.0
  0
INSERT
  5
296
330
291
100
AcDbEntity
  8
DIMENSIONS
100
AcDbBlockReference
  2
_CLOSEDFILLED
 10
525.0
 20
-35.0
 30
0.0
 41
2.5
 42
2.5
 50
180.0
  0
INSERT
  5
298
330
291
100
AcDbEntity
  8
DIMENSIONS
100
AcDbBlockReference
  2
_CLOSEDFILLED
 10
800.0
 20
-35.0
 30
0.0
 41
2.5
 42
2.5
  0
LINE
  5
29A
330
291
100
AcDbEntity
  8
0
100
AcDbLine
 10
527.5
 20
-35.0
 30
0.0
 11
658.75
 21
-35.0
 31
0.0
  0
LINE
  5
29B
330
291
100
AcDbEntity
  8
0
100
AcDbLine
 10
666.25
 20
-35.0
 30
0.0
 11
797.5
 21
-35.0
 31
0.0
  0
MTEXT
  5
29C
330
291
100
AcDbEntity
  8
DIMENSIONS
100
AcDbMText
 10
662.5
 20
-35.0
 30
0.0
 40
2.5
 71
5
  1
275
  0
POINT
  5
29D
330
291
100
AcDbEntity
  8
Defpoints
100
AcDbPoint
 10
525.0
 20
-35.0
 30
0.0
  0
POINT
  5
29E
330
291
100
AcDbEntity
  8
Defpoints
100
AcDbPoint
 10
525.0
 20
0.0
 30
0.0
  0
POINT
  5
29F
330
291
100
AcDbEntity
  8
Defpoints
100
AcDbPoint
 10
800.0
 20
0.0
 30
0.0
  0
ENDBLK
  5
293
330
291
100
AcDbEntity
  8
0
100
AcDbBlockEnd
  0
BLOCK
  5
2A2
330
2A1
100
AcDbEntity
  8
0
100
AcDbBlockBegin
  2
*D6
 70
1
 10
0.0
 20
0.0
 30
0.0
  3
*D6
  1

  0
LINE
  5
2A4
330
2A1
100
AcDbEntity
  8
0
100
AcDbLine
 10
525.0
 20
0.0
 30
0.0
 11
490.0
 21
0.0
 31
0.0
  0
LINE
  5
2A5
330
2A1
100
AcDbEntity
  8
0
100
AcDbLine
 10
525.0
 20
277.5
 30
0.0
 11
490.0
 21
277.5
 31
0.0
  0
INSERT
  5
2A6
330
2A1
100
AcDbEntity
  8
DIMENSIONS
100
AcDbBlockReference
  2
_CLOSEDFILLED
 10
490.0
 20
0.0
 30
0.0
 41
2.5
 42
2.5
 50
270.0
  0
INSERT
  5
2A8
330
2A1
100
AcDbEntity
  8
DIMENSIONS
100
AcDbBlockReference
  2
_CLOSEDFILLED
 10
490.0
 20
277.5
 30
0.0
 41
2.5
 42
2.5
 50
90.0
  0
LINE
  5
2AA
330
2A1
100
AcDbEntity
  8
0
100
AcDbLine
 10
490.0
 20
2.5
 30
0.0
 11
490.0
 21
132.5
 31
0.0
  0
LINE
  5
2AB
330
2A1
100
AcDbEntity
  8
0
100
AcDbLine
 10
490.0
 20
145.0
 30
0.0
 11
490.0
 21
275.0
 31
0.0
  0
MTEXT
  5
2AC
330
2A1
100
AcDbEntity
  8
DIMENSIONS
100
AcDbMText
 10
490.0
 20
138.75
 30
0.0
 40
2.5
 71
5
  1
277,5
 50
90.0
  0
POINT
  5
2AD
330
2A1
100
AcDbEntity
  8
Defpoints
100
AcDbPoint
 10
490.0
 20
0.0
 30
0.0
  0
POINT
  5
2AE
330
2A1
100
AcDbEntity
  8
Defpoints
100
AcDbPoint
 10
525.0
 20
0.0
 30
0.0
  0
POINT
  5
2AF
330
2A1
100
AcDbEntity
  8
Defpoints
100
AcDbPoint
 10
525.0
 20
277.5
 30
0.0
  0
ENDBLK
  5
2A3
330
2A1
100
AcDbEntity
  8
0
100
AcDbBlockEnd
  0
ENDSEC
  0
SECTION
  2
ENTITIES
  0
LWPOLYLINE
  5
34
330
17
100
AcDbEntity
  8
TOP
100
AcDbPolyline
 90
2
 70
0
 10
50.0
 20
152.14249999999998
 10
50.0
 20
217.24249999999998
  0
LWPOLYLINE
  5
35
330
17
100
AcDbEntity
  8
TOP
100
AcDbPolyline
 90
2
 70
0
 10
50.0
 20
152.14249999999998
 10
50.0
 20
217.24249999999998
  0
LWPOLYLINE
  5
36
330
17
100
AcDbEntity
  8
TOP
100
AcDbPolyline
 90
2
 70
0
 10
50.0
 20
152.14249999999998
 10
325.0
 20
152.14249999999998
  0
LWPOLYLINE
  5
37
330
17
100
AcDbEntity
  8
TOP
100
AcDbPolyline
 90
2
 70
0
 10
50.0
 20
152.14249999999998
 10
325.0
 20
152.14249999999998
  0
LWPOLYLINE
  5
38
330
17
100
AcDbEntity
  8
TOP
100
AcDbPolyline
 90
2
 70
0
 10
50.0
 20
217.24249999999998
 10
325.0
 20
217.24249999999998
  0
LWPOLYLINE
  5
39
330
17
100
AcDbEntity
  8
TOP
100
AcDbPolyline
 90
2
 70
0
 10
325.0
 20
152.14249999999998
 10
325.0
 20
217.24249999999998
  0
LWPOLYLINE
  5
3A
330
17
100
AcDbEntity
  8
TOP
100
AcDbPolyline
 90
2
 70
0
 10
50.0
 20
217.24249999999998
 10
325.0
 20
217.24249999999998
  0
LWPOLYLINE
  5
3B
330
17
100
AcDbEntity
  8
TOP
100
AcDbPolyline
 90
2
 70
0
 10
54.04499999999999
 20
217.24249999999998
 10
320.955
 20
217.24249999999998
  0
LWPOLYLINE
  5
3C
330
17
100
AcDbEntity
  8
TOP
100
AcDbPolyline
 90
2
 70
0
 10
54.04499999999999
 20
217.24249999999998
 10
320.955
 20
217.24249999999998
  0
LWPOLYLINE
  5
3D
330
17
100
AcDbEntity
  8
TOP
100
AcDbPolyline
 90
2
 70
0
 10
325.0
 20
152.14249999999998
 10
325.0
 20
217.24249999999998
  0
LWPOLYLINE
  5
3E
330
17
100
AcDbEntity
  8
TOP
100
AcDbPolyline
 90
2
 70
0
 10
54.04499999999999
 20
154.64249999999998
 10
54.04499999999999
 20
217.24249999999998
  0
LWPOLYLINE
  5
3F
330
17
100
AcDbEntity
  8
TOP
100
AcDbPolyline
 90
2
 70
0
 10
320.95500000000004
 20
154.64249999999998
 10
320.95500000000004
 20
217.24249999999998
  0
LWPOLYLINE
  5
40
330
17
100
AcDbEntity
  8
TOP
100
AcDbPolyline
 90
2
 70
0
 10
54.04499999999999
 20
154.64249999999998
 10
320.95500000000004
 20
154.64249999999998
  0
LWPOLYLINE
  5
41
330
17
100
AcDbEntity
  8
TOP
100
AcDbPolyline
 90
2
 70
0
 10
320.95500000000004
 20
154.64249999999998
 10
320.95500000000004
 20
217.24249999999998
  0
LWPOLYLINE
  5
42
330
17
100
AcDbEntity
  8
TOP
100
AcDbPolyline
 90
2
 70
0
 10
54.04499999999999
 20
154.64249999999998
 10
54.04499999999999
 20
217.24249999999998
  0
LWPOLYLINE
  5
43
330
17
100
AcDbEntity
  8
TOP
100
AcDbPolyline
 90
2
 70
0
 10
54.04499999999999
 20
154.64249999999998
 10
320.95500000000004
 20
154.64249999999998
  0
LWPOLYLINE
  5
44
330
17
100
AcDbEntity
  8
TOP
100
AcDbPolyline
 90
2
 70
0
 10
50.0
 20
217.24249999999998
 10
50.0
 20
218.74249999999998
  0
LWPOLYLINE
  5
45
330
17
100
AcDbEntity
  8
TOP
100
AcDbPolyline
 90
2
 70
0
 10
50.0
 20
217.24249999999998
 10
50.0
 20
218.74249999999998
  0
LWPOLYLINE
  5
46
330
17
100
AcDbEntity
  8
TOP
100
AcDbPolyline
 90
2
 70
0
 10
325.0
 20
217.24249999999998
 10
325.0
 20
218.74249999999998
  0
LWPOLYLINE
  5
47
330
17
100
AcDbEntity
  8
TOP
100
AcDbPolyline
 90
2
 70
0
 10
325.0
 20
217.24249999999998
 10
325.0
 20
218.74249999999998
  0
LWPOLYLINE
  5
48
330
17
100
AcDbEntity
  8
TOP
100
AcDbPolyline
 90
2
 70
0
 10
50.0
 20
217.24249999999998
 10
325.0
 20
217.24249999999998
  0
LWPOLYLINE
  5
49
330
17
100
AcDbEntity
  8
TOP
100
AcDbPolyline
 90
2
 70
0
 10
50.0
 20
217.24249999999998
 10
325.0
 20
217.24249999999998
  0
LWPOLYLINE
  5
4A
330
17
100
AcDbEntity
  8
TOP
100
AcDbPolyline
 90
2
 70
0
 10
50.0
 20
218.74249999999998
 10
325.0
 20
218.74249999999998
  0
LWPOLYLINE
  5
4B
330
17
100
AcDbEntity
  8
TOP
100
AcDbPolyline
 90
2
 70
0
 10
50.0
 20
218.74249999999998
 10
325.0
 20
218.74249999999998
  0
LWPOLYLINE
  5
4C
330
17
100
AcDbEntity
  8
TOP
100
AcDbPolyline
 90
2
 70
0
 10
87.5
 20
154.64249999999998
 10
87.5
 20
154.7695
  0
LWPOLYLINE
  5
4D
330
17
100
AcDbEntity
  8
TOP
100
AcDbPolyline
 90
2
 70
0
 10
87.5
 20
154.64249999999998
 10
87.5
 20
154.7695
  0
LWPOLYLINE
  5
4E
330
17
100
AcDbEntity
  8
TOP
100
AcDbPolyline
 90
2
 70
0
 10
287.5
 20
154.64249999999998
 10
287.5
 20
154.7695
  0
LWPOLYLINE
  5
4F
330
17
100
AcDbEntity
  8
TOP
100
AcDbPolyline
 90
2
 70
0
 10
287.5
 20
154.64249999999998
 10
287.5
 20
154.7695
  0
LWPOLYLINE
  5
50
330
17
100
AcDbEntity
  8
TOP
100
AcDbPolyline
 90
2
 70
0
 10
87.5
 20
154.64249999999998
 10
287.5
 20
154.64249999999998
  0
LWPOLYLINE
  5
51
330
17
100
AcDbEntity
  8
TOP
100
AcDbPolyline
 90
2
 70
0
 10
87.5
 20
154.64249999999998
 10
287.5
 20
154.64249999999998
  0
LWPOLYLINE
  5
52
330
17
100
AcDbEntity
  8
TOP
100
AcDbPolyline
 90
2
 70
0
 10
87.5
 20
154.7695
 10
287.5
 20
154.7695
  0
LWPOLYLINE
  5
53
330
17
100
AcDbEntity
  8
TOP
100
AcDbPolyline
 90
2
 70
0
 10
87.5
 20
154.7695
 10
287.5
 20
154.7695
  0
LWPOLYLINE
  5
54
330
17
100
AcDbEntity
  8
TOP
100
AcDbPolyline
 90
2
 70
0
 10
87.5
 20
152.01549999999997
 10
87.5
 20
152.14249999999998
  0
LWPOLYLINE
  5
55
330
17
100
AcDbEntity
  8
TOP
100
AcDbPolyline
 90
2
 70
0
 10
87.5
 20
152.01549999999997
 10
87.5
 20
152.14249999999998
  0
LWPOLYLINE
  5
56
330
17
100
AcDbEntity
  8
TOP
100
AcDbPolyline
 90
2
 70
0
 10
287.5
 20
152.01549999999997
 10
287.5
 20
152.14249999999998
  0
LWPOLYLINE
  5
57
330
17
100
AcDbEntity
  8
TOP
100
AcDbPolyline
 90
2
 70
0
 10
287.5
 20
152.01549999999997
 10
287.5
 20
152.14249999999998
  0
LWPOLYLINE
  5
58
330
17
100
AcDbEntity
  8
TOP
100
AcDbPolyline
 90
2
 70
0
 10
87.5
 20
152.01549999999997
 10
287.5
 20
152.01549999999997
  0
LWPOLYLINE
  5
59
330
17
100
AcDbEntity
  8
TOP
100
AcDbPolyline
 90
2
 70
0
 10
87.5
 20
152.01549999999997
 10
287.5
 20
152.01549999999997
  0
LWPOLYLINE
  5
5A
330
17
100
AcDbEntity
  8
TOP
100
AcDbPolyline
 90
2
 70
0
 10
87.5
 20
152.14249999999998
 10
287.5
 20
152.14249999999998
  0
LWPOLYLINE
  5
5B
330
17
100
AcDbEntity
  8
TOP
100
AcDbPolyline
 90
2
 70
0
 10
87.5
 20
152.14249999999998
 10
287.5
 20
152.14249999999998
  0
LWPOLYLINE
  5
5C
330
17
100
AcDbEntity
  8
TOP
100
AcDbPolyline
 90
2
 70
0
 10
87.5
 20
154.7695
 10
87.5
 20
160.7695
  0
LWPOLYLINE
  5
5D
330
17
100
AcDbEntity
  8
TOP
100
AcDbPolyline
 90
2
 70
0
 10
87.5
 20
154.7695
 10
87.5
 20
160.7695
  0
LWPOLYLINE
  5
5E
330
17
100
AcDbEntity
  8
TOP
100
AcDbPolyline
 90
2
 70
0
 10
287.5
 20
154.7695
 10
287.5
 20
160.7695
  0
LWPOLYLINE
  5
5F
330
17
100
AcDbEntity
  8
TOP
100
AcDbPolyline
 90
2
 70
0
 10
287.5
 20
154.7695
 10
287.5
 20
160.7695
  0
LWPOLYLINE
  5
60
330
17
100
AcDbEntity
  8
TOP
100
AcDbPolyline
 90
2
 70
0
 10
87.5
 20
154.7695
 10
287.5
 20
154.7695
  0
LWPOLYLINE
  5
61
330
17
100
AcDbEntity
  8
TOP
100
AcDbPolyline
 90
2
 70
0
 10
87.5
 20
154.7695
 10
287.5
 20
154.7695
  0
LWPOLYLINE
  5
62
330
17
100
AcDbEntity
  8
TOP
100
AcDbPolyline
 90
2
 70
0
 10
87.5
 20
160.7695
 10
287.5
 20
160.7695
  0
LWPOLYLINE
  5
63
330
17
100
AcDbEntity
  8
TOP
100
AcDbPolyline
 90
2
 70
0
 10
87.5
 20
160.7695
 10
287.5
 20
160.7695
  0
LWPOLYLINE
  5
64
330
17
100
AcDbEntity
  8
TOP
100
AcDbPolyline
 90
2
 70
0
 10
50.593999999999994
 20
136.26749999999998
 10
50.593999999999994
 20
152.01549999999997
  0
LWPOLYLINE
  5
65
330
17
100
AcDbEntity
  8
TOP
100
AcDbPolyline
 90
2
 70
0
 10
50.593999999999994
 20
136.26749999999998
 10
50.593999999999994
 20
152.01549999999997
  0
LWPOLYLINE
  5
66
330
17
100
AcDbEntity
  8
TOP
100
AcDbPolyline
 90
2
 70
0
 10
324.406
 20
136.26749999999998
 10
324.406
 20
152.01549999999997
  0
LWPOLYLINE
  5
67
330
17
100
AcDbEntity
  8
TOP
100
AcDbPolyline
 90
2
 70
0
 10
324.406
 20
136.26749999999998
 10
324.406
 20
152.01549999999997
  0
LWPOLYLINE
  5
68
330
17
100
AcDbEntity
  8
TOP
100
AcDbPolyline
 90
2
 70
0
 10
50.593999999999994
 20
136.26749999999998
 10
324.406
 20
136.26749999999998
  0
LWPOLYLINE
  5
69
330
17
100
AcDbEntity
  8
TOP
100
AcDbPolyline
 90
2
 70
0
 10
50.593999999999994
 20
136.26749999999998
 10
324.406
 20
136.26749999999998
  0
LWPOLYLINE
  5
6A
330
17
100
AcDbEntity
  8
TOP
100
AcDbPolyline
 90
2
 70
0
 10
50.593999999999994
 20
152.01549999999997
 10
324.406
 20
152.01549999999997
  0
LWPOLYLINE
  5
6B
330
17
100
AcDbEntity
  8
TOP
100
AcDbPolyline
 90
2
 70
0
 10
50.593999999999994
 20
152.01549999999997
 10
324.406
 20
152.01549999999997
  0
LWPOLYLINE
  5
6C
330
17
100
AcDbEntity
  8
TOP
100
AcDbPolyline
 90
2
 70
0
 10
50.593999999999994
 20
56.25749999999999
 10
50.593999999999994
 20
136.26749999999998
  0
LWPOLYLINE
  5
6D
330
17
100
AcDbEntity
  8
TOP
100
AcDbPolyline
 90
2
 70
0
 10
50.593999999999994
 20
56.25749999999999
 10
50.593999999999994
 20
136.26749999999998
  0
LWPOLYLINE
  5
6E
330
17
100
AcDbEntity
  8
TOP
100
AcDbPolyline
 90
2
 70
0
 10
324.406
 20
56.25749999999999
 10
324.406
 20
136.26749999999998
  0
LWPOLYLINE
  5
6F
330
17
100
AcDbEntity
  8
TOP
100
AcDbPolyline
 90
2
 70
0
 10
324.406
 20
56.25749999999999
 10
324.406
 20
136.26749999999998
  0
LWPOLYLINE
  5
70
330
17
100
AcDbEntity
  8
TOP
100
AcDbPolyline
 90
2
 70
0
 10
50.593999999999994
 20
56.25749999999999
 10
324.406
 20
56.25749999999999
  0
LWPOLYLINE
  5
71
330
17
100
AcDbEntity
  8
TOP
100
AcDbPolyline
 90
2
 70
0
 10
50.593999999999994
 20
56.25749999999999
 10
324.406
 20
56.25749999999999
  0
LWPOLYLINE
  5
72
330
17
100
AcDbEntity
  8
TOP
100
AcDbPolyline
 90
2
 70
0
 10
50.593999999999994
 20
136.26749999999998
 10
324.406
 20
136.26749999999998
  0
LWPOLYLINE
  5
73
330
17
100
AcDbEntity
  8
TOP
100
AcDbPolyline
 90
2
 70
0
 10
50.593999999999994
 20
136.26749999999998
 10
324.406
 20
136.26749999999998
  0
LWPOLYLINE
  5
74
330
17
100
AcDbEntity
  8
TOP
100
AcDbPolyline
 90
16
 70
0
 10
98.5
 20
170.7695
 10
99.7202099292274
 20
170.7695
 10
100.72943447643219
 20
170.7695
 10
101.35316954888546
 20
170.7695
 10
101.48356568610482
 20
170.7695
 10
101.09807621135332
 20
170.7695
 10
100.26335575687742
 20
170.7695
 10
99.12373507245327
 20
170.7695
 10
97.87626492754673
 20
170.7695
 10
96.73664424312258
 20
170.7695
 10
95.90192378864668
 20
170.7695
 10
95.51643431389518
 20
170.7695
 10
95.64683045111454
 20
170.7695
 10
96.27056552356781
 20
170.7695
 10
97.2797900707726
 20
170.7695
 10
98.5
 20
170.7695
  0
LWPOLYLINE
  5
75
330
17
100
AcDbEntity
  8
TOP
100
AcDbPolyline
 90
2
 70
0
 10
98.5
 20
160.7695
 10
98.5
 20
170.7695
  0
LWPOLYLINE
  5
76
330
17
100
AcDbEntity
  8
TOP
100
AcDbPolyline
 90
16
 70
0
 10
98.5
 20
160.7695
 10
99.7202099292274
 20
160.7695
 10
100.72943447643219
 20
160.7695
 10
101.35316954888546
 20
160.7695
 10
101.48356568610482
 20
160.7695
 10
101.09807621135332
 20
160.7695
 10
100.26335575687742
 20
160.7695
 10
99.12373507245327
 20
160.7695
 10
97.87626492754673
 20
160.7695
 10
96.73664424312258
 20
160.7695
 10
95.90192378864668
 20
160.7695
 10
95.51643431389518
 20
160.7695
 10
95.64683045111454
 20
160.7695
 10
96.27056552356781
 20
160.7695
 10
97.2797900707726
 20
160.7695
 10
98.5
 20
160.7695
  0
LWPOLYLINE
  5
77
330
17
100
AcDbEntity
  8
TOP
100
AcDbPolyline
 90
16
 70
0
 10
98.5
 20
170.7695
 10
99.04909446815233
 20
170.7695
 10
99.50324551439448
 20
170.7695
 10
99.78392629699846
 20
170.7695
 10
99.84260455874717
 20
170.7695
 10
99.66913429510899
 20
170.7695
 10
99.29351009059484
 20
170.7695
 10
98.78068078260398
 20
170.7695
 10
98.21931921739602
 20
170.7695
 10
97.70648990940516
 20
170.7695
 10
97.33086570489101
 20
170.7695
 10
97.15739544125283
 20
170.7695
 10
97.21607370300154
 20
170.7695
 10
97.49675448560552
 20
170.7695
 10
97.95090553184767
 20
170.7695
 10
98.5
 20
170.7695
  0
LWPOLYLINE
  5
78
330
17
100
AcDbEntity
  8
TOP
100
AcDbPolyline
 90
16
 70
0
 10
98.5
 20
160.7695
 10
99.04909446815233
 20
160.7695
 10
99.50324551439448
 20
160.7695
 10
99.78392629699846
 20
160.7695
 10
99.84260455874717
 20
160.7695
 10
99.66913429510899
 20
160.7695
 10
99.29351009059484
 20
160.7695
 10
98.78068078260398
 20
160.7695
 10
98.21931921739602
 20
160.7695
 10
97.70648990940516
 20
160.7695
 10
97.33086570489101
 20
160.7695
 10
97.15739544125283
 20
160.7695
 10
97.21607370300154
 20
160.7695
 10
97.49675448560552
 20
160.7695
 10
97.95090553184767
 20
160.7695
 10
98.5
 20
160.7695
  0
LWPOLYLINE
  5
79
330
17
100
AcDbEntity
  8
TOP
100
AcDbPolyline
 90
2
 70
0
 10
98.5
 20
160.7695
 10
98.5
 20
170.7695
  0
LWPOLYLINE
  5
7A
330
17
100
AcDbEntity
  8
TOP
100
AcDbPolyline
 90
16
 70
0
 10
156.5
 20
170.7695
 10
157.7202099292274
 20
170.7695
 10
158.72943447643217
 20
170.7695
 10
159.35316954888546
 20
170.7695
 10
159.4835656861048
 20
170.7695
 10
159.09807621135332
 20
170.7695
 10
158.26335575687742
 20
170.7695
 10
157.1237350724533
 20
170.7695
 10
155.8762649275467
 20
170.7695
 10
154.73664424312258
 20
170.7695
 10
153.90192378864668
 20
170.7695
 10
153.5164343138952
 20
170.7695
 10
153.64683045111454
 20
170.7695
 10
154.27056552356783
 20
170.7695
 10
155.2797900707726
 20
170.7695
 10
156.5
 20
170.7695
  0
LWPOLYLINE
  5
7B
330
17
100
AcDbEntity
  8
TOP
100
AcDbPolyline
 90
2
 70
0
 10
156.5
 20
160.7695
 10
156.5
 20
170.7695
  0
LWPOLYLINE
  5
7C
330
17
100
AcDbEntity
  8
TOP
100
AcDbPolyline
 90
16
 70
0
 10
156.5
 20
160.7695
 10
157.7202099292274
 20
160.7695
 10
158.72943447643217
 20
160.7695
 10
159.35316954888546
 20
160.7695
 10
159.4835656861048
 20
160.7695
 10
159.09807621135332
 20
160.7695
 10
158.26335575687742
 20
160.7695
 10
157.1237350724533
 20
160.7695
 10
155.8762649275467
 20
160.7695
 10
154.73664424312258
 20
160.7695
 10
153.90192378864668
 20
160.7695
 10
153.5164343138952
 20
160.7695
 10
153.64683045111454
 20
160.7695
 10
154.27056552356783
 20
160.7695
 10
155.2797900707726
 20
160.7695
 10
156.5
 20
160.7695
  0
LWPOLYLINE
  5
7D
330
17
100
AcDbEntity
  8
TOP
100
AcDbPolyline
 90
16
 70
0
 10
156.5
 20
170.7695
 10
157.04909446815233
 20
170.7695
 10
157.50324551439448
 20
170.7695
 10
157.78392629699846
 20
170.7695
 10
157.84260455874715
 20
170.7695
 10
157.669134295109
 20
170.7695
 10
157.29351009059485
 20
170.7695
 10
156.78068078260398
 20
170.7695
 10
156.21931921739602
 20
170.7695
 10
155.70648990940515
 20
170.7695
 10
155.330865704891
 20
170.7695
 10
155.15739544125285
 20
170.7695
 10
155.21607370300154
 20
170.7695
 10
155.49675448560552
 20
170.7695
 10
155.95090553184767
 20
170.7695
 10
156.5
 20
170.7695
  0
LWPOLYLINE
  5
7E
330
17
100
AcDbEntity
  8
TOP
100
AcDbPolyline
 90
16
 70
0
 10
156.5
 20
160.7695
 10
157.04909446815233
 20
160.7695
 10
157.50324551439448
 20
160.7695
 10
157.78392629699846
 20
160.7695
 10
157.84260455874715
 20
160.7695
 10
157.669134295109
 20
160.7695
 10
157.29351009059485
 20
160.7695
 10
156.78068078260398
 20
160.7695
 10
156.21931921739602
 20
160.7695
 10
155.70648990940515
 20
160.7695
 10
155.330865704891
 20
160.7695
 10
155.15739544125285
 20
160.7695
 10
155.21607370300154
 20
160.7695
 10
155.49675448560552
 20
160.7695
 10
155.95090553184767
 20
160.7695
 10
156.5
 20
160.7695
  0
LWPOLYLINE
  5
7F
330
17
100
AcDbEntity
  8
TOP
100
AcDbPolyline
 90
2
 70
0
 10
156.5
 20
160.7695
 10
156.5
 20
170.7695
  0
LWPOLYLINE
  5
80
330
17
100
AcDbEntity
  8
TOP
100
AcDbPolyline
 90
16
 70
0
 10
98.5
 20
170.7695
 10
99.7202099292274
 20
170.7695
 10
100.72943447643219
 20
170.7695
 10
101.35316954888546
 20
170.7695
 10
101.48356568610482
 20
170.7695
 10
101.09807621135332
 20
170.7695
 10
100.26335575687742
 20
170.7695
 10
99.12373507245327
 20
170.7695
 10
97.87626492754673
 20
170.7695
 10
96.73664424312258
 20
170.7695
 10
95.90192378864668
 20
170.7695
 10
95.51643431389518
 20
170.7695
 10
95.64683045111454
 20
170.7695
 10
96.27056552356781
 20
170.7695
 10
97.2797900707726
 20
170.7695
 10
98.5
 20
170.7695
  0
LWPOLYLINE
  5
81
330
17
100
AcDbEntity
  8
TOP
100
AcDbPolyline
 90
2
 70
0
 10
98.5
 20
160.7695
 10
98.5
 20
170.7695
  0
LWPOLYLINE
  5
82
330
17
100
AcDbEntity
  8
TOP
100
AcDbPolyline
 90
16
 70
0
 10
98.5
 20
160.7695
 10
99.7202099292274
 20
160.7695
 10
100.72943447643219
 20
160.7695
 10
101.35316954888546
 20
160.7695
 10
101.48356568610482
 20
160.7695
 10
101.09807621135332
 20
160.7695
 10
100.26335575687742
 20
160.7695
 10
99.12373507245327
 20
160.7695
 10
97.87626492754673
 20
160.7695
 10
96.73664424312258
 20
160.7695
 10
95.90192378864668
 20
160.7695
 10
95.51643431389518
 20
160.7695
 10
95.64683045111454
 20
160.7695
 10
96.27056552356781
 20
160.7695
 10
97.2797900707726
 20
160.7695
 10
98.5
 20
160.7695
  0
LWPOLYLINE
  5
83
330
17
100
AcDbEntity
  8
TOP
100
AcDbPolyline
 90
16
 70
0
 10
98.5
 20
170.7695
 10
99.04909446815233
 20
170.7695
 10
99.50324551439448
 20
170.7695
 10
99.78392629699846
 20
170.7695
 10
99.84260455874717
 20
170.7695
 10
99.66913429510899
 20
170.7695
 10
99.29351009059484
 20
170.7695
 10
98.78068078260398
 20
170.7695
 10
98.21931921739602
 20
170.7695
 10
97.70648990940516
 20
170.7695
 10
97.33086570489101
 20
170.7695
 10
97.15739544125283
 20
170.7695
 10
97.21607370300154
 20
170.7695
 10
97.49675448560552
 20
170.7695
 10
97.95090553184767
 20
170.7695
 10
98.5
 20
170.7695
  0
LWPOLYLINE
  5
84
330
17
100
AcDbEntity
  8
TOP
100
AcDbPolyline
 90
16
 70
0
 10
98.5
 20
160.7695
 10
99.04909446815233
 20
160.7695
 10
99.50324551439448
 20
160.7695
 10
99.78392629699846
 20
160.7695
 10
99.84260455874717
 20
160.7695
 10
99.66913429510899
 20
160.7695
 10
99.29351009059484
 20
160.7695
 10
98.78068078260398
 20
160.7695
 10
98.21931921739602
 20
160.7695
 10
97.70648990940516
 20
160.7695
 10
97.33086570489101
 20
160.7695
 10
97.15739544125283
 20
160.7695
 10
97.21607370300154
 20
160.7695
 10
97.49675448560552
 20
160.7695
 10
97.95090553184767
 20
160.7695
 10
98.5
 20
160.7695
  0
LWPOLYLINE
  5
85
330
17
100
AcDbEntity
  8
TOP
100
AcDbPolyline
 90
2
 70
0
 10
98.5
 20
160.7695
 10
98.5
 20
170.7695
  0
LWPOLYLINE
  5
86
330
17
100
AcDbEntity
  8
TOP
100
AcDbPolyline
 90
16
 70
0
 10
156.5
 20
170.7695
 10
157.7202099292274
 20
170.7695
 10
158.72943447643217
 20
170.7695
 10
159.35316954888546
 20
170.7695
 10
159.4835656861048
 20
170.7695
 10
159.09807621135332
 20
170.7695
 10
158.26335575687742
 20
170.7695
 10
157.1237350724533
 20
170.7695
 10
155.8762649275467
 20
170.7695
 10
154.73664424312258
 20
170.7695
 10
153.90192378864668
 20
170.7695
 10
153.5164343138952
 20
170.7695
 10
153.64683045111454
 20
170.7695
 10
154.27056552356783
 20
170.7695
 10
155.2797900707726
 20
170.7695
 10
156.5
 20
170.7695
  0
LWPOLYLINE
  5
87
330
17
100
AcDbEntity
  8
TOP
100
AcDbPolyline
 90
2
 70
0
 10
156.5
 20
160.7695
 10
156.5
 20
170.7695
  0
LWPOLYLINE
  5
88
330
17
100
AcDbEntity
  8
TOP
100
AcDbPolyline
 90
16
 70
0
 10
156.5
 20
160.7695
 10
157.7202099292274
 20
160.7695
 10
158.72943447643217
 20
160.7695
 10
159.35316954888546
 20
160.7695
 10
159.4835656861048
 20
160.7695
 10
159.09807621135332
 20
160.7695
 10
158.26335575687742
 20
160.7695
 10
157.1237350724533
 20
160.7695
 10
155.8762649275467
 20
160.7695
 10
154.73664424312258
 20
160.7695
 10
153.90192378864668
 20
160.7695
 10
153.5164343138952
 20
160.7695
 10
153.64683045111454
 20
160.7695
 10
154.27056552356783
 20
160.7695
 10
155.2797900707726
 20
160.7695
 10
156.5
 20
160.7695
  0
LWPOLYLINE
  5
89
330
17
100
AcDbEntity
  8
TOP
100
AcDbPolyline
 90
16
 70
0
 10
156.5
 20
170.7695
 10
157.04909446815233
 20
170.7695
 10
157.50324551439448
 20
170.7695
 10
157.78392629699846
 20
170.7695
 10
157.84260455874715
 20
170.7695
 10
157.669134295109
 20
170.7695
 10
157.29351009059485
 20
170.7695
 10
156.78068078260398
 20
170.7695
 10
156.21931921739602
 20
170.7695
 10
155.70648990940515
 20
170.7695
 10
155.330865704891
 20
170.7695
 10
155.15739544125285
 20
170.7695
 10
155.21607370300154
 20
170.7695
 10
155.49675448560552
 20
170.7695
 10
155.95090553184767
 20
170.7695
 10
156.5
 20
170.7695
  0
LWPOLYLINE
  5
8A
330
17
100
AcDbEntity
  8
TOP
100
AcDbPolyline
 90
16
 70
0
 10
156.5
 20
160.7695
 10
157.04909446815233
 20
160.7695
 10
157.50324551439448
 20
160.7695
 10
157.78392629699846
 20
160.7695
 10
157.84260455874715
 20
160.7695
 10
157.669134295109
 20
160.7695
 10
157.29351009059485
 20
160.7695
 10
156.78068078260398
 20
160.7695
 10
156.21931921739602
 20
160.7695
 10
155.70648990940515
 20
160.7695
 10
155.330865704891
 20
160.7695
 10
155.15739544125285
 20
160.7695
 10
155.21607370300154
 20
160.7695
 10
155.49675448560552
 20
160.7695
 10
155.95090553184767
 20
160.7695
 10
156.5
 20
160.7695
  0
LWPOLYLINE
  5
8B
330
17
100
AcDbEntity
  8
TOP
100
AcDbPolyline
 90
2
 70
0
 10
156.5
 20
160.7695
 10
156.5
 20
170.7695
  0
LWPOLYLINE
  5
8C
330
17
100
AcDbEntity
  8
TOP
100
AcDbPolyline
 90
2
 70
0
 10
95.0
 20
170.7695
 10
95.0
 20
172.3695
  0
LWPOLYLINE
  5
8D
330
17
100
AcDbEntity
  8
TOP
100
AcDbPolyline
 90
2
 70
0
 10
95.0
 20
170.7695
 10
95.0
 20
172.3695
  0
LWPOLYLINE
  5
8E
330
17
100
AcDbEntity
  8
TOP
100
AcDbPolyline
 90
2
 70
0
 10
98.0
 20
170.7695
 10
177.0
 20
170.7695
  0
LWPOLYLINE
  5
8F
330
17
100
AcDbEntity
  8
TOP
100
AcDbPolyline
 90
16
 70
0
 10
95.0
 20
170.7695
 10
95.01643431389518
 20
170.7695
 10
95.06555719779858
 20
170.7695
 10
95.14683045111454
 20
170.7695
 10
95.25936362707219
 20
170.7695
 10
95.40192378864668
 20
170.7695
 10
95.57294901687516
 20
170.7695
 10
95.77056552356781
 20
170.7695
 10
95.99260818092343
 20
170.7695
 10
96.23664424312258
 20
170.7695
 10
96.5
 20
170.7695
 10
96.7797900707726
 20
170.7695
 10
97.07294901687516
 20
170.7695
 10
97.37626492754671
 20
170.7695
 10
97.68641461019703
 20
170.7695
 10
98.0
 20
170.7695
  0
LWPOLYLINE
  5
90
330
17
100
AcDbEntity
  8
TOP
100
AcDbPolyline
 90
16
 70
0
 10
180.0
 20
170.7695
 10
179.9835656861048
 20
170.7695
 10
179.93444280220143
 20
170.7695
 10
179.85316954888546
 20
170.7695
 10
179.7406363729278
 20
170.7695
 10
179.59807621135332
 20
170.7695
 10
179.42705098312484
 20
170.7695
 10
179.22943447643217
 20
170.7695
 10
179.0073918190766
 20
170.7695
 10
178.76335575687742
 20
170.7695
 10
178.5
 20
170.7695
 10
178.2202099292274
 20
170.7695
 10
177.92705098312484
 20
170.7695
 10
177.6237350724533
 20
170.7695
 10
177.31358538980297
 20
170.7695
 10
177.0
 20
170.7695
  0
LWPOLYLINE
  5
91
330
17
100
AcDbEntity
  8
TOP
100
AcDbPolyline
 90
16
 70
0
 10
95.0
 20
170.7695
 10
95.01643431389518
 20
170.7695
 10
95.06555719779858
 20
170.7695
 10
95.14683045111454
 20
170.7695
 10
95.25936362707219
 20
170.7695
 10
95.40192378864668
 20
170.7695
 10
95.57294901687516
 20
170.7695
 10
95.77056552356781
 20
170.7695
 10
95.99260818092343
 20
170.7695
 10
96.23664424312258
 20
170.7695
 10
96.5
 20
170.7695
 10
96.77979007077259
 20
170.7695
 10
97.07294901687516
 20
170.7695
 10
97.37626492754671
 20
170.7695
 10
97.68641461019703
 20
170.7695
 10
98.0
 20
170.7695
  0
LWPOLYLINE
  5
92
330
17
100
AcDbEntity
  8
TOP
100
AcDbPolyline
 90
16
 70
0
 10
180.0
 20
170.7695
 10
179.9835656861048
 20
170.7695
 10
179.93444280220143
 20
170.7695
 10
179.85316954888546
 20
170.7695
 10
179.7406363729278
 20
170.7695
 10
179.59807621135332
 20
170.7695
 10
179.42705098312484
 20
170.7695
 10
179.22943447643217
 20
170.7695
 10
179.0073918190766
 20
170.7695
 10
178.76335575687742
 20
170.7695
 10
178.5
 20
170.7695
 10
178.2202099292274
 20
170.7695
 10
177.92705098312484
 20
170.7695
 10
177.6237350724533
 20
170.7695
 10
177.31358538980297
 20
170.7695
 10
177.0
 20
170.7695
  0
LWPOLYLINE
  5
93
330
17
100
AcDbEntity
  8
TOP
100
AcDbPolyline
 90
2
 70
0
 10
98.0
 20
170.7695
 10
177.0
 20
170.7695
  0
LWPOLYLINE
  5
94
330
17
100
AcDbEntity
  8
TOP
100
AcDbPolyline
 90
16
 70
0
 10
98.5
 20
170.7695
 10
99.04909446815233
 20
170.7695
 10
99.50324551439448
 20
170.7695
 10
99.78392629699846
 20
170.7695
 10
99.84260455874717
 20
170.7695
 10
99.66913429510899
 20
170.7695
 10
99.29351009059484
 20
170.7695
 10
98.78068078260398
 20
170.7695
 10
98.21931921739602
 20
170.7695
 10
97.70648990940516
 20
170.7695
 10
97.33086570489101
 20
170.7695
 10
97.15739544125283
 20
170.7695
 10
97.21607370300154
 20
170.7695
 10
97.49675448560552
 20
170.7695
 10
97.95090553184767
 20
170.7695
 10
98.5
 20
170.7695
  0
LWPOLYLINE
  5
95
330
17
100
AcDbEntity
  8
TOP
100
AcDbPolyline
 90
16
 70
0
 10
98.5
 20
170.7695
 10
99.04909446815233
 20
170.7695
 10
99.50324551439448
 20
170.7695
 10
99.78392629699846
 20
170.7695
 10
99.84260455874717
 20
170.7695
 10
99.66913429510899
 20
170.7695
 10
99.29351009059484
 20
170.7695
 10
98.78068078260398
 20
170.7695
 10
98.21931921739602
 20
170.7695
 10
97.70648990940516
 20
170.7695
 10
97.33086570489101
 20
170.7695
 10
97.15739544125283
 20
170.7695
 10
97.21607370300154
 20
170.7695
 10
97.49675448560552
 20
170.7695
 10
97.95090553184767
 20
170.7695
 10
98.5
 20
170.7695
  0
LWPOLYLINE
  5
96
330
17
100
AcDbEntity
  8
TOP
100
AcDbPolyline
 90
16
 70
0
 10
156.5
 20
170.7695
 10
157.04909446815233
 20
170.7695
 10
157.50324551439448
 20
170.7695
 10
157.78392629699846
 20
170.7695
 10
157.84260455874715
 20
170.7695
 10
157.669134295109
 20
170.7695
 10
157.29351009059485
 20
170.7695
 10
156.78068078260398
 20
170.7695
 10
156.21931921739602
 20
170.7695
 10
155.70648990940515
 20
170.7695
 10
155.330865704891
 20
170.7695
 10
155.15739544125285
 20
170.7695
 10
155.21607370300154
 20
170.7695
 10
155.49675448560552
 20
170.7695
 10
155.95090553184767
 20
170.7695
 10
156.5
 20
170.7695
  0
LWPOLYLINE
  5
97
330
17
100
AcDbEntity
  8
TOP
100
AcDbPolyline
 90
16
 70
0
 10
156.5
 20
170.7695
 10
157.04909446815233
 20
170.7695
 10
157.50324551439448
 20
170.7695
 10
157.78392629699846
 20
170.7695
 10
157.84260455874715
 20
170.7695
 10
157.669134295109
 20
170.7695
 10
157.29351009059485
 20
170.7695
 10
156.78068078260398
 20
170.7695
 10
156.21931921739602
 20
170.7695
 10
155.70648990940515
 20
170.7695
 10
155.330865704891
 20
170.7695
 10
155.15739544125285
 20
170.7695
 10
155.21607370300154
 20
170.7695
 10
155.49675448560552
 20
170.7695
 10
155.95090553184767
 20
170.7695
 10
156.5
 20
170.7695
  0
LWPOLYLINE
  5
98
330
17
100
AcDbEntity
  8
TOP
100
AcDbPolyline
 90
2
 70
0
 10
98.0
 20
170.7695
 10
98.0
 20
172.3695
  0
LWPOLYLINE
  5
99
330
17
100
AcDbEntity
  8
TOP
100
AcDbPolyline
 90
16
 70
0
 10
95.0
 20
172.3695
 10
95.01643431389518
 20
172.3695
 10
95.06555719779858
 20
172.3695
 10
95.14683045111454
 20
172.3695
 10
95.25936362707219
 20
172.3695
 10
95.40192378864668
 20
172.3695
 10
95.57294901687516
 20
172.3695
 10
95.77056552356781
 20
172.3695
 10
95.99260818092343
 20
172.3695
 10
96.23664424312258
 20
172.3695
 10
96.5
 20
172.3695
 10
96.7797900707726
 20
172.3695
 10
97.07294901687516
 20
172.3695
 10
97.37626492754671
 20
172.3695
 10
97.68641461019703
 20
172.3695
 10
98.0
 20
172.3695
  0
LWPOLYLINE
  5
9A
330
17
100
AcDbEntity
  8
TOP
100
AcDbPolyline
 90
2
 70
0
 10
98.0
 20
170.7695
 10
98.0
 20
172.3695
  0
LWPOLYLINE
  5
9B
330
17
100
AcDbEntity
  8
TOP
100
AcDbPolyline
 90
16
 70
0
 10
95.0
 20
172.3695
 10
95.01643431389518
 20
172.3695
 10
95.06555719779858
 20
172.3695
 10
95.14683045111454
 20
172.3695
 10
95.25936362707219
 20
172.3695
 10
95.40192378864668
 20
172.3695
 10
95.57294901687516
 20
172.3695
 10
95.77056552356781
 20
172.3695
 10
95.99260818092343
 20
172.3695
 10
96.23664424312258
 20
172.3695
 10
96.5
 20
172.3695
 10
96.77979007077259
 20
172.3695
 10
97.07294901687516
 20
172.3695
 10
97.37626492754671
 20
172.3695
 10
97.68641461019703
 20
172.3695
 10
98.0
 20
172.3695
  0
LWPOLYLINE
  5
9C
330
17
100
AcDbEntity
  8
TOP
100
AcDbPolyline
 90
2
 70
0
 10
98.0
 20
172.3695
 10
177.0
 20
172.3695
  0
LWPOLYLINE
  5
9D
330
17
100
AcDbEntity
  8
TOP
100
AcDbPolyline
 90
16
 70
0
 10
180.0
 20
172.3695
 10
179.9835656861048
 20
172.3695
 10
179.93444280220143
 20
172.3695
 10
179.85316954888546
 20
172.3695
 10
179.7406363729278
 20
172.3695
 10
179.59807621135332
 20
172.3695
 10
179.42705098312484
 20
172.3695
 10
179.22943447643217
 20
172.3695
 10
179.0073918190766
 20
172.3695
 10
178.76335575687742
 20
172.3695
 10
178.5
 20
172.3695
 10
178.2202099292274
 20
172.3695
 10
177.92705098312484
 20
172.3695
 10
177.6237350724533
 20
172.3695
 10
177.31358538980297
 20
172.3695
 10
177.0
 20
172.3695
  0
LWPOLYLINE
  5
9E
330
17
100
AcDbEntity
  8
TOP
100
AcDbPolyline
 90
16
 70
0
 10
180.0
 20
172.3695
 10
179.9835656861048
 20
172.3695
 10
179.93444280220143
 20
172.3695
 10
179.85316954888546
 20
172.3695
 10
179.7406363729278
 20
172.3695
 10
179.59807621135332
 20
172.3695
 10
179.42705098312484
 20
172.3695
 10
179.22943447643217
 20
172.3695
 10
179.0073918190766
 20
172.3695
 10
178.76335575687742
 20
172.3695
 10
178.5
 20
172.3695
 10
178.2202099292274
 20
172.3695
 10
177.92705098312484
 20
172.3695
 10
177.6237350724533
 20
172.3695
 10
177.31358538980297
 20
172.3695
 10
177.0
 20
172.3695
  0
LWPOLYLINE
  5
9F
330
17
100
AcDbEntity
  8
TOP
100
AcDbPolyline
 90
2
 70
0
 10
98.0
 20
172.3695
 10
177.0
 20
172.3695
  0
LWPOLYLINE
  5
A0
330
17
100
AcDbEntity
  8
TOP
100
AcDbPolyline
 90
16
 70
0
 10
98.5
 20
172.3695
 10
99.04909446815233
 20
172.3695
 10
99.50324551439448
 20
172.3695
 10
99.78392629699846
 20
172.3695
 10
99.84260455874717
 20
172.3695
 10
99.66913429510899
 20
172.3695
 10
99.29351009059484
 20
172.3695
 10
98.78068078260398
 20
172.3695
 10
98.21931921739602
 20
172.3695
 10
97.70648990940516
 20
172.3695
 10
97.33086570489101
 20
172.3695
 10
97.15739544125283
 20
172.3695
 10
97.21607370300154
 20
172.3695
 10
97.49675448560552
 20
172.3695
 10
97.95090553184767
 20
172.3695
 10
98.5
 20
172.3695
  0
LWPOLYLINE
  5
A1
330
17
100
AcDbEntity
  8
TOP
100
AcDbPolyline
 90
16
 70
0
 10
98.5
 20
172.3695
 10
99.04909446815233
 20
172.3695
 10
99.50324551439448
 20
172.3695
 10
99.78392629699846
 20
172.3695
 10
99.84260455874717
 20
172.3695
 10
99.66913429510899
 20
172.3695
 10
99.29351009059484
 20
172.3695
 10
98.78068078260398
 20
172.3695
 10
98.21931921739602
 20
172.3695
 10
97.70648990940516
 20
172.3695
 10
97.33086570489101
 20
172.3695
 10
97.15739544125283
 20
172.3695
 10
97.21607370300154
 20
172.3695
 10
97.49675448560552
 20
172.3695
 10
97.95090553184767
 20
172.3695
 10
98.5
 20
172.3695
  0
LWPOLYLINE
  5
A2
330
17
100
AcDbEntity
  8
TOP
100
AcDbPolyline
 90
16
 70
0
 10
156.5
 20
172.3695
 10
157.04909446815233
 20
172.3695
 10
157.50324551439448
 20
172.3695
 10
157.78392629699846
 20
172.3695
 10
157.84260455874715
 20
172.3695
 10
157.669134295109
 20
172.3695
 10
157.29351009059485
 20
172.3695
 10
156.78068078260398
 20
172.3695
 10
156.21931921739602
 20
172.3695
 10
155.70648990940515
 20
172.3695
 10
155.330865704891
 20
172.3695
 10
155.15739544125285
 20
172.3695
 10
155.21607370300154
 20
172.3695
 10
155.49675448560552
 20
172.3695
 10
155.95090553184767
 20
172.3695
 10
156.5
 20
172.3695
  0
LWPOLYLINE
  5
A3
330
17
100
AcDbEntity
  8
TOP
100
AcDbPolyline
 90
16
 70
0
 10
156.5
 20
172.3695
 10
157.04909446815233
 20
172.3695
 10
157.50324551439448
 20
172.3695
 10
157.78392629699846
 20
172.3695
 10
157.84260455874715
 20
172.3695
 10
157.669134295109
 20
172.3695
 10
157.29351009059485
 20
172.3695
 10
156.78068078260398
 20
172.3695
 10
156.21931921739602
 20
172.3695
 10
155.70648990940515
 20
172.3695
 10
155.330865704891
 20
172.3695
 10
155.15739544125285
 20
172.3695
 10
155.21607370300154
 20
172.3695
 10
155.49675448560552
 20
172.3695
 10
155.95090553184767
 20
172.3695
 10
156.5
 20
172.3695
  0
LWPOLYLINE
  5
A4
330
17
100
AcDbEntity
  8
TOP
100
AcDbPolyline
 90
2
 70
0
 10
177.0
 20
170.7695
 10
177.0
 20
172.3695
  0
LWPOLYLINE
  5
A5
330
17
100
AcDbEntity
  8
TOP
100
AcDbPolyline
 90
2
 70
0
 10
180.0
 20
170.7695
 10
180.0
 20
172.3695
  0
LWPOLYLINE
  5
A6
330
17
100
AcDbEntity
  8
TOP
100
AcDbPolyline
 90
2
 70
0
 10
180.0
 20
170.7695
 10
180.0
 20
172.3695
  0
LWPOLYLINE
  5
A7
330
17
100
AcDbEntity
  8
TOP
100
AcDbPolyline
 90
2
 70
0
 10
177.0
 20
170.7695
 10
177.0
 20
172.3695
  0
LWPOLYLINE
  5
A8
330
17
100
AcDbEntity
  8
TOP
100
AcDbPolyline
 90
2
 70
0
 10
98.5
 20
170.7695
 10
98.5
 20
172.3695
  0
LWPOLYLINE
  5
A9
330
17
100
AcDbEntity
  8
TOP
100
AcDbPolyline
 90
2
 70
0
 10
98.5
 20
170.7695
 10
98.5
 20
172.3695
  0
LWPOLYLINE
  5
AA
330
17
100
AcDbEntity
  8
TOP
100
AcDbPolyline
 90
2
 70
0
 10
156.5
 20
170.7695
 10
156.5
 20
172.3695
  0
LWPOLYLINE
  5
AB
330
17
100
AcDbEntity
  8
TOP
100
AcDbPolyline
 90
2
 70
0
 10
156.5
 20
170.7695
 10
156.5
 20
172.3695
  0
LWPOLYLINE
  5
AC
330
17
100
AcDbEntity
  8
TOP
100
AcDbPolyline
 90
2
 70
0
 10
95.0
 20
173.3695
 10
95.0
 20
193.3695
  0
LWPOLYLINE
  5
AD
330
17
100
AcDbEntity
  8
TOP
100
AcDbPolyline
 90
2
 70
0
 10
95.0
 20
173.3695
 10
95.0
 20
193.3695
  0
LWPOLYLINE
  5
AE
330
17
100
AcDbEntity
  8
TOP
100
AcDbPolyline
 90
2
 70
0
 10
180.0
 20
173.3695
 10
180.0
 20
193.3695
  0
LWPOLYLINE
  5
AF
330
17
100
AcDbEntity
  8
TOP
100
AcDbPolyline
 90
2
 70
0
 10
180.0
 20
173.3695
 10
180.0
 20
193.3695
  0
LWPOLYLINE
  5
B0
330
17
100
AcDbEntity
  8
TOP
100
AcDbPolyline
 90
2
 70
0
 10
95.0
 20
173.3695
 10
180.0
 20
173.3695
  0
LWPOLYLINE
  5
B1
330
17
100
AcDbEntity
  8
TOP
100
AcDbPolyline
 90
2
 70
0
 10
95.0
 20
173.3695
 10
180.0
 20
173.3695
  0
LWPOLYLINE
  5
B2
330
17
100
AcDbEntity
  8
TOP
100
AcDbPolyline
 90
2
 70
0
 10
95.0
 20
193.3695
 10
180.0
 20
193.3695
  0
LWPOLYLINE
  5
B3
330
17
100
AcDbEntity
  8
TOP
100
AcDbPolyline
 90
2
 70
0
 10
95.0
 20
193.3695
 10
180.0
 20
193.3695
  0
LWPOLYLINE
  5
B4
330
17
100
AcDbEntity
  8
TOP
100
AcDbPolyline
 90
2
 70
0
 10
207.5
 20
172.14249999999998
 10
207.5
 20
202.14249999999998
  0
LWPOLYLINE
  5
B5
330
17
100
AcDbEntity
  8
TOP
100
AcDbPolyline
 90
2
 70
0
 10
207.5
 20
172.14249999999998
 10
207.5
 20
202.14249999999998
  0
LWPOLYLINE
  5
B6
330
17
100
AcDbEntity
  8
TOP
100
AcDbPolyline
 90
2
 70
0
 10
302.5
 20
172.14249999999998
 10
302.5
 20
202.14249999999998
  0
LWPOLYLINE
  5
B7
330
17
100
AcDbEntity
  8
TOP
100
AcDbPolyline
 90
2
 70
0
 10
302.5
 20
172.14249999999998
 10
302.5
 20
202.14249999999998
  0
LWPOLYLINE
  5
B8
330
17
100
AcDbEntity
  8
TOP
100
AcDbPolyline
 90
2
 70
0
 10
207.5
 20
172.14249999999998
 10
302.5
 20
172.14249999999998
  0
LWPOLYLINE
  5
B9
330
17
100
AcDbEntity
  8
TOP
100
AcDbPolyline
 90
2
 70
0
 10
207.5
 20
172.14249999999998
 10
302.5
 20
172.14249999999998
  0
LWPOLYLINE
  5
BA
330
17
100
AcDbEntity
  8
TOP
100
AcDbPolyline
 90
2
 70
0
 10
207.5
 20
202.14249999999998
 10
302.5
 20
202.14249999999998
  0
LWPOLYLINE
  5
BB
330
17
100
AcDbEntity
  8
TOP
100
AcDbPolyline
 90
2
 70
0
 10
207.5
 20
202.14249999999998
 10
302.5
 20
202.14249999999998
  0
LWPOLYLINE
  5
BC
330
17
100
AcDbEntity
  8
TOP
100
AcDbPolyline
 90
2
 70
0
 10
0.0
 20
0.0
 10
0.0
 20
275.0
  0
LWPOLYLINE
  5
BD
330
17
100
AcDbEntity
  8
TOP
100
AcDbPolyline
 90
2
 70
0
 10
0.0
 20
0.0
 10
0.0
 20
275.0
  0
LWPOLYLINE
  5
BE
330
17
100
AcDbEntity
  8
TOP
100
AcDbPolyline
 90
2
 70
0
 10
375.0
 20
0.0
 10
375.0
 20
275.0
  0
LWPOLYLINE
  5
BF
330
17
100
AcDbEntity
  8
TOP
100
AcDbPolyline
 90
2
 70
0
 10
375.0
 20
0.0
 10
375.0
 20
275.0
  0
LWPOLYLINE
  5
C0
330
17
100
AcDbEntity
  8
TOP
100
AcDbPolyline
 90
2
 70
0
 10
0.0
 20
0.0
 10
375.0
 20
0.0
  0
LWPOLYLINE
  5
C1
330
17
100
AcDbEntity
  8
TOP
100
AcDbPolyline
 90
2
 70
0
 10
0.0
 20
0.0
 10
375.0
 20
0.0
  0
LWPOLYLINE
  5
C2
330
17
100
AcDbEntity
  8
TOP
100
AcDbPolyline
 90
2
 70
0
 10
0.0
 20
275.0
 10
375.0
 20
275.0
  0
LWPOLYLINE
  5
C3
330
17
100
AcDbEntity
  8
TOP
100
AcDbPolyline
 90
2
 70
0
 10
0.0
 20
275.0
 10
375.0
 20
275.0
  0
LWPOLYLINE
  5
C4
330
17
100
AcDbEntity
  8
TOP
100
AcDbPolyline
 90
2
 70
0
 10
6.5
 20
126.14249999999998
 10
6.5
 20
138.14249999999998
  0
LWPOLYLINE
  5
C5
330
17
100
AcDbEntity
  8
TOP
100
AcDbPolyline
 90
2
 70
0
 10
6.5
 20
126.14249999999998
 10
6.5
 20
138.14249999999998
  0
LWPOLYLINE
  5
C6
330
17
100
AcDbEntity
  8
TOP
100
AcDbPolyline
 90
2
 70
0
 10
18.5
 20
126.14249999999998
 10
18.5
 20
138.14249999999998
  0
LWPOLYLINE
  5
C7
330
17
100
AcDbEntity
  8
TOP
100
AcDbPolyline
 90
2
 70
0
 10
18.5
 20
126.14249999999998
 10
18.5
 20
138.14249999999998
  0
LWPOLYLINE
  5
C8
330
17
100
AcDbEntity
  8
TOP
100
AcDbPolyline
 90
2
 70
0
 10
6.5
 20
126.14249999999998
 10
18.5
 20
126.14249999999998
  0
LWPOLYLINE
  5
C9
330
17
100
AcDbEntity
  8
TOP
100
AcDbPolyline
 90
2
 70
0
 10
6.5
 20
126.14249999999998
 10
18.5
 20
126.14249999999998
  0
LWPOLYLINE
  5
CA
330
17
100
AcDbEntity
  8
TOP
100
AcDbPolyline
 90
2
 70
0
 10
6.5
 20
138.14249999999998
 10
18.5
 20
138.14249999999998
  0
LWPOLYLINE
  5
CB
330
17
100
AcDbEntity
  8
TOP
100
AcDbPolyline
 90
2
 70
0
 10
6.5
 20
138.14249999999998
 10
18.5
 20
138.14249999999998
  0
LWPOLYLINE
  5
CC
330
17
100
AcDbEntity
  8
TOP
100
AcDbPolyline
 90
2
 70
0
 10
356.5
 20
126.14249999999998
 10
356.5
 20
138.14249999999998
  0
LWPOLYLINE
  5
CD
330
17
100
AcDbEntity
  8
TOP
100
AcDbPolyline
 90
2
 70
0
 10
356.5
 20
126.14249999999998
 10
356.5
 20
138.14249999999998
  0
LWPOLYLINE
  5
CE
330
17
100
AcDbEntity
  8
TOP
100
AcDbPolyline
 90
2
 70
0
 10
368.5
 20
126.14249999999998
 10
368.5
 20
138.14249999999998
  0
LWPOLYLINE
  5
CF
330
17
100
AcDbEntity
  8
TOP
100
AcDbPolyline
 90
2
 70
0
 10
368.5
 20
126.14249999999998
 10
368.5
 20
138.14249999999998
  0
LWPOLYLINE
  5
D0
330
17
100
AcDbEntity
  8
TOP
100
AcDbPolyline
 90
2
 70
0
 10
356.5
 20
126.14249999999998
 10
368.5
 20
126.14249999999998
  0
LWPOLYLINE
  5
D1
330
17
100
AcDbEntity
  8
TOP
100
AcDbPolyline
 90
2
 70
0
 10
356.5
 20
126.14249999999998
 10
368.5
 20
126.14249999999998
  0
LWPOLYLINE
  5
D2
330
17
100
AcDbEntity
  8
TOP
100
AcDbPolyline
 90
2
 70
0
 10
356.5
 20
138.14249999999998
 10
368.5
 20
138.14249999999998
  0
LWPOLYLINE
  5
D3
330
17
100
AcDbEntity
  8
TOP
100
AcDbPolyline
 90
2
 70
0
 10
356.5
 20
138.14249999999998
 10
368.5
 20
138.14249999999998
  0
LWPOLYLINE
  5
D4
330
17
100
AcDbEntity
  8
TOP
100
AcDbPolyline
 90
2
 70
0
 10
2.5
 20
122.14249999999998
 10
2.5
 20
142.14249999999998
  0
LWPOLYLINE
  5
D5
330
17
100
AcDbEntity
  8
TOP
100
AcDbPolyline
 90
2
 70
0
 10
2.5
 20
122.14249999999998
 10
2.5
 20
142.14249999999998
  0
LWPOLYLINE
  5
D6
330
17
100
AcDbEntity
  8
TOP
100
AcDbPolyline
 90
2
 70
0
 10
372.5
 20
122.14249999999998
 10
372.5
 20
142.14249999999998
  0
LWPOLYLINE
  5
D7
330
17
100
AcDbEntity
  8
TOP
100
AcDbPolyline
 90
2
 70
0
 10
372.5
 20
122.14249999999998
 10
372.5
 20
142.14249999999998
  0
LWPOLYLINE
  5
D8
330
17
100
AcDbEntity
  8
TOP
100
AcDbPolyline
 90
2
 70
0
 10
2.5
 20
122.14249999999998
 10
372.5
 20
122.14249999999998
  0
LWPOLYLINE
  5
D9
330
17
100
AcDbEntity
  8
TOP
100
AcDbPolyline
 90
2
 70
0
 10
2.5
 20
122.14249999999998
 10
372.5
 20
122.14249999999998
  0
LWPOLYLINE
  5
DA
330
17
100
AcDbEntity
  8
TOP
100
AcDbPolyline
 90
2
 70
0
 10
2.5
 20
142.14249999999998
 10
372.5
 20
142.14249999999998
  0
LWPOLYLINE
  5
DB
330
17
100
AcDbEntity
  8
TOP
100
AcDbPolyline
 90
2
 70
0
 10
2.5
 20
142.14249999999998
 10
372.5
 20
142.14249999999998
  0
LWPOLYLINE
  5
DC
330
17
100
AcDbEntity
  8
TOP
100
AcDbPolyline
 90
2
 70
0
 10
55.0
 20
122.14249999999998
 10
55.0
 20
192.14249999999998
  0
LWPOLYLINE
  5
DD
330
17
100
AcDbEntity
  8
TOP
100
AcDbPolyline
 90
2
 70
0
 10
55.0
 20
122.14249999999998
 10
55.0
 20
192.14249999999998
  0
LWPOLYLINE
  5
DE
330
17
100
AcDbEntity
  8
TOP
100
AcDbPolyline
 90
2
 70
0
 10
80.0
 20
122.14249999999998
 10
80.0
 20
192.14249999999998
  0
LWPOLYLINE
  5
DF
330
17
100
AcDbEntity
  8
TOP
100
AcDbPolyline
 90
2
 70
0
 10
80.0
 20
122.14249999999998
 10
80.0
 20
192.14249999999998
  0
LWPOLYLINE
  5
E0
330
17
100
AcDbEntity
  8
TOP
100
AcDbPolyline
 90
2
 70
0
 10
55.0
 20
122.14249999999998
 10
80.0
 20
122.14249999999998
  0
LWPOLYLINE
  5
E1
330
17
100
AcDbEntity
  8
TOP
100
AcDbPolyline
 90
2
 70
0
 10
55.0
 20
122.14249999999998
 10
80.0
 20
122.14249999999998
  0
LWPOLYLINE
  5
E2
330
17
100
AcDbEntity
  8
TOP
100
AcDbPolyline
 90
2
 70
0
 10
55.0
 20
192.14249999999998
 10
80.0
 20
192.14249999999998
  0
LWPOLYLINE
  5
E3
330
17
100
AcDbEntity
  8
TOP
100
AcDbPolyline
 90
2
 70
0
 10
55.0
 20
192.14249999999998
 10
80.0
 20
192.14249999999998
  0
LWPOLYLINE
  5
E4
330
17
100
AcDbEntity
  8
TOP
100
AcDbPolyline
 90
2
 70
0
 10
295.0
 20
122.14249999999998
 10
295.0
 20
192.14249999999998
  0
LWPOLYLINE
  5
E5
330
17
100
AcDbEntity
  8
TOP
100
AcDbPolyline
 90
2
 70
0
 10
295.0
 20
122.14249999999998
 10
295.0
 20
192.14249999999998
  0
LWPOLYLINE
  5
E6
330
17
100
AcDbEntity
  8
TOP
100
AcDbPolyline
 90
2
 70
0
 10
320.0
 20
122.14249999999998
 10
320.0
 20
192.14249999999998
  0
LWPOLYLINE
  5
E7
330
17
100
AcDbEntity
  8
TOP
100
AcDbPolyline
 90
2
 70
0
 10
320.0
 20
122.14249999999998
 10
320.0
 20
192.14249999999998
  0
LWPOLYLINE
  5
E8
330
17
100
AcDbEntity
  8
TOP
100
AcDbPolyline
 90
2
 70
0
 10
295.0
 20
122.14249999999998
 10
320.0
 20
122.14249999999998
  0
LWPOLYLINE
  5
E9
330
17
100
AcDbEntity
  8
TOP
100
AcDbPolyline
 90
2
 70
0
 10
295.0
 20
122.14249999999998
 10
320.0
 20
122.14249999999998
  0
LWPOLYLINE
  5
EA
330
17
100
AcDbEntity
  8
TOP
100
AcDbPolyline
 90
2
 70
0
 10
295.0
 20
192.14249999999998
 10
320.0
 20
192.14249999999998
  0
LWPOLYLINE
  5
EB
330
17
100
AcDbEntity
  8
TOP
100
AcDbPolyline
 90
2
 70
0
 10
295.0
 20
192.14249999999998
 10
320.0
 20
192.14249999999998
  0
DIMENSION
  5
EC
330
17
100
AcDbEntity
  8
DIMENSIONS
100
AcDbDimension
280
0
  2
*D1
  3
Standard
 10
0.0
 20
-35.0
 30
0.0
 11
187.5
 21
-35.0
 31
0.0
 70
32
 71
5
  1
<>
100
AcDbAlignedDimension
 13
0.0
 23
0.0
 33
0.0
 14
375.0
 24
0.0
 34
0.0
 50
0.0
100
AcDbRotatedDimension
1001
ACAD
1000
DSTYLE
1002
{
1070
140
1040
2.5
1070
41
1040
2.5
1070
271
1070
2
1002
}
  0
DIMENSION
  5
100
330
17
100
AcDbEntity
  8
DIMENSIONS
100
AcDbDimension
280
0
  2
*D2
  3
Standard
 10
-35.0
 20
0.0
 30
0.0
 11
-35.0
 21
137.5
 31
0.0
 70
32
 71
5
  1
<>
100
AcDbAlignedDimension
 13
0.0
 23
0.0
 33
0.0
 14
0.0
 24
275.0
 34
0.0
 50
90.0
100
AcDbRotatedDimension
1001
ACAD
1000
DSTYLE
1002
{
1070
140
1040
2.5
1070
41
1040
2.5
1070
271
1070
2
1002
}
  0
LWPOLYLINE
  5
110
330
17
100
AcDbEntity
  8
FRONT
100
AcDbPolyline
 90
2
 70
0
 10
50.0
 20
-401.5
 10
50.0
 20
-226.5
  0
LWPOLYLINE
  5
111
330
17
100
AcDbEntity
  8
FRONT
100
AcDbPolyline
 90
2
 70
0
 10
50.0
 20
-401.5
 10
50.0
 20
-226.5
  0
LWPOLYLINE
  5
112
330
17
100
AcDbEntity
  8
FRONT
100
AcDbPolyline
 90
2
 70
0
 10
50.0
 20
-401.5
 10
325.0
 20
-401.5
  0
LWPOLYLINE
  5
113
330
17
100
AcDbEntity
  8
FRONT
100
AcDbPolyline
 90
2
 70
0
 10
325.0
 20
-401.5
 10
325.0
 20
-226.5
  0
LWPOLYLINE
  5
114
330
17
100
AcDbEntity
  8
FRONT
100
AcDbPolyline
 90
2
 70
0
 10
50.0
 20
-226.5
 10
325.0
 20
-226.5
  0
LWPOLYLINE
  5
115
330
17
100
AcDbEntity
  8
FRONT
100
AcDbPolyline
 90
2
 70
0
 10
50.0
 20
-226.5
 10
325.0
 20
-226.5
  0
LWPOLYLINE
  5
116
330
17
100
AcDbEntity
  8
FRONT
100
AcDbPolyline
 90
2
 70
0
 10
50.0
 20
-401.5
 10
325.0
 20
-401.5
  0
LWPOLYLINE
  5
117
330
17
100
AcDbEntity
  8
FRONT
100
AcDbPolyline
 90
2
 70
0
 10
325.0
 20
-401.5
 10
325.0
 20
-226.5
  0
LWPOLYLINE
  5
118
330
17
100
AcDbEntity
  8
FRONT
100
AcDbPolyline
 90
2
 70
0
 10
54.04499999999999
 20
-230.54500000000002
 10
320.955
 20
-230.54500000000002
  0
LWPOLYLINE
  5
119
330
17
100
AcDbEntity
  8
FRONT
100
AcDbPolyline
 90
2
 70
0
 10
320.95500000000004
 20
-230.545
 10
320.95500000000004
 20
-397.455
  0
LWPOLYLINE
  5
11A
330
17
100
AcDbEntity
  8
FRONT
100
AcDbPolyline
 90
2
 70
0
 10
54.04499999999999
 20
-397.455
 10
320.955
 20
-397.455
  0
LWPOLYLINE
  5
11B
330
17
100
AcDbEntity
  8
FRONT
100
AcDbPolyline
 90
2
 70
0
 10
54.04499999999999
 20
-230.545
 10
54.04499999999999
 20
-397.455
  0
LWPOLYLINE
  5
11C
330
17
100
AcDbEntity
  8
FRONT
100
AcDbPolyline
 90
2
 70
0
 10
54.04499999999999
 20
-230.54500000000002
 10
320.95500000000004
 20
-230.54500000000002
  0
LWPOLYLINE
  5
11D
330
17
100
AcDbEntity
  8
FRONT
100
AcDbPolyline
 90
2
 70
0
 10
320.95500000000004
 20
-397.455
 10
320.95500000000004
 20
-230.54500000000002
  0
LWPOLYLINE
  5
11E
330
17
100
AcDbEntity
  8
FRONT
100
AcDbPolyline
 90
2
 70
0
 10
54.04499999999999
 20
-397.455
 10
320.95500000000004
 20
-397.455
  0
LWPOLYLINE
  5
11F
330
17
100
AcDbEntity
  8
FRONT
100
AcDbPolyline
 90
2
 70
0
 10
54.04499999999999
 20
-397.455
 10
54.04499999999999
 20
-230.54500000000002
  0
LWPOLYLINE
  5
120
330
17
100
AcDbEntity
  8
FRONT
100
AcDbPolyline
 90
2
 70
0
 10
50.0
 20
-401.5
 10
50.0
 20
-226.5
  0
LWPOLYLINE
  5
121
330
17
100
AcDbEntity
  8
FRONT
100
AcDbPolyline
 90
2
 70
0
 10
50.0
 20
-401.5
 10
50.0
 20
-226.5
  0
LWPOLYLINE
  5
122
330
17
100
AcDbEntity
  8
FRONT
100
AcDbPolyline
 90
2
 70
0
 10
325.0
 20
-401.5
 10
325.0
 20
-226.5
  0
LWPOLYLINE
  5
123
330
17
100
AcDbEntity
  8
FRONT
100
AcDbPolyline
 90
2
 70
0
 10
325.0
 20
-401.5
 10
325.0
 20
-226.5
  0
LWPOLYLINE
  5
124
330
17
100
AcDbEntity
  8
FRONT
100
AcDbPolyline
 90
2
 70
0
 10
50.0
 20
-401.5
 10
325.0
 20
-401.5
  0
LWPOLYLINE
  5
125
330
17
100
AcDbEntity
  8
FRONT
100
AcDbPolyline
 90
2
 70
0
 10
50.0
 20
-226.5
 10
325.0
 20
-226.5
  0
LWPOLYLINE
  5
126
330
17
100
AcDbEntity
  8
FRONT
100
AcDbPolyline
 90
2
 70
0
 10
50.0
 20
-401.5
 10
325.0
 20
-401.5
  0
LWPOLYLINE
  5
127
330
17
100
AcDbEntity
  8
FRONT
100
AcDbPolyline
 90
2
 70
0
 10
50.0
 20
-226.5
 10
325.0
 20
-226.5
  0
LWPOLYLINE
  5
128
330
17
100
AcDbEntity
  8
FRONT
100
AcDbPolyline
 90
2
 70
0
 10
87.5
 20
-349.0
 10
87.5
 20
-279.0
  0
LWPOLYLINE
  5
129
330
17
100
AcDbEntity
  8
FRONT
100
AcDbPolyline
 90
2
 70
0
 10
87.5
 20
-349.0
 10
87.5
 20
-279.0
  0
LWPOLYLINE
  5
12A
330
17
100
AcDbEntity
  8
FRONT
100
AcDbPolyline
 90
2
 70
0
 10
287.5
 20
-349.0
 10
287.5
 20
-279.0
  0
LWPOLYLINE
  5
12B
330
17
100
AcDbEntity
  8
FRONT
100
AcDbPolyline
 90
2
 70
0
 10
287.5
 20
-349.0
 10
287.5
 20
-279.0
  0
LWPOLYLINE
  5
12C
330
17
100
AcDbEntity
  8
FRONT
100
AcDbPolyline
 90
2
 70
0
 10
87.5
 20
-349.0
 10
287.5
 20
-349.0
  0
LWPOLYLINE
  5
12D
330
17
100
AcDbEntity
  8
FRONT
100
AcDbPolyline
 90
2
 70
0
 10
87.5
 20
-279.0
 10
287.5
 20
-279.0
  0
LWPOLYLINE
  5
12E
330
17
100
AcDbEntity
  8
FRONT
100
AcDbPolyline
 90
2
 70
0
 10
87.5
 20
-349.0
 10
287.5
 20
-349.0
  0
LWPOLYLINE
  5
12F
330
17
100
AcDbEntity
  8
FRONT
100
AcDbPolyline
 90
2
 70
0
 10
87.5
 20
-279.0
 10
287.5
 20
-279.0
  0
LWPOLYLINE
  5
130
330
17
100
AcDbEntity
  8
FRONT
100
AcDbPolyline
 90
2
 70
0
 10
87.5
 20
-349.0
 10
87.5
 20
-279.0
  0
LWPOLYLINE
  5
131
330
17
100
AcDbEntity
  8
FRONT
100
AcDbPolyline
 90
2
 70
0
 10
87.5
 20
-349.0
 10
87.5
 20
-279.0
  0
LWPOLYLINE
  5
132
330
17
100
AcDbEntity
  8
FRONT
100
AcDbPolyline
 90
2
 70
0
 10
287.5
 20
-349.0
 10
287.5
 20
-279.0
  0
LWPOLYLINE
  5
133
330
17
100
AcDbEntity
  8
FRONT
100
AcDbPolyline
 90
2
 70
0
 10
287.5
 20
-349.0
 10
287.5
 20
-279.0
  0
LWPOLYLINE
  5
134
330
17
100
AcDbEntity
  8
FRONT
100
AcDbPolyline
 90
2
 70
0
 10
87.5
 20
-349.0
 10
287.5
 20
-349.0
  0
LWPOLYLINE
  5
135
330
17
100
AcDbEntity
  8
FRONT
100
AcDbPolyline
 90
2
 70
0
 10
87.5
 20
-279.0
 10
287.5
 20
-279.0
  0
LWPOLYLINE
  5
136
330
17
100
AcDbEntity
  8
FRONT
100
AcDbPolyline
 90
2
 70
0
 10
87.5
 20
-349.0
 10
287.5
 20
-349.0
  0
LWPOLYLINE
  5
137
330
17
100
AcDbEntity
  8
FRONT
100
AcDbPolyline
 90
2
 70
0
 10
87.5
 20
-279.0
 10
287.5
 20
-279.0
  0
LWPOLYLINE
  5
138
330
17
100
AcDbEntity
  8
FRONT
100
AcDbPolyline
 90
2
 70
0
 10
87.5
 20
-374.0
 10
87.5
 20
-254.0
  0
LWPOLYLINE
  5
139
330
17
100
AcDbEntity
  8
FRONT
100
AcDbPolyline
 90
2
 70
0
 10
87.5
 20
-374.0
 10
87.5
 20
-254.0
  0
LWPOLYLINE
  5
13A
330
17
100
AcDbEntity
  8
FRONT
100
AcDbPolyline
 90
2
 70
0
 10
287.5
 20
-374.0
 10
287.5
 20
-254.0
  0
LWPOLYLINE
  5
13B
330
17
100
AcDbEntity
  8
FRONT
100
AcDbPolyline
 90
2
 70
0
 10
287.5
 20
-374.0
 10
287.5
 20
-254.0
  0
LWPOLYLINE
  5
13C
330
17
100
AcDbEntity
  8
FRONT
100
AcDbPolyline
 90
2
 70
0
 10
87.5
 20
-374.0
 10
287.5
 20
-374.0
  0
LWPOLYLINE
  5
13D
330
17
100
AcDbEntity
  8
FRONT
100
AcDbPolyline
 90
2
 70
0
 10
87.5
 20
-254.0
 10
287.5
 20
-254.0
  0
LWPOLYLINE
  5
13E
330
17
100
AcDbEntity
  8
FRONT
100
AcDbPolyline
 90
2
 70
0
 10
87.5
 20
-374.0
 10
287.5
 20
-374.0
  0
LWPOLYLINE
  5
13F
330
17
100
AcDbEntity
  8
FRONT
100
AcDbPolyline
 90
2
 70
0
 10
87.5
 20
-254.0
 10
287.5
 20
-254.0
  0
LWPOLYLINE
  5
140
330
17
100
AcDbEntity
  8
FRONT
100
AcDbPolyline
 90
2
 70
0
 10
50.593999999999994
 20
-352.1
 10
50.593999999999994
 20
-275.9
  0
LWPOLYLINE
  5
141
330
17
100
AcDbEntity
  8
FRONT
100
AcDbPolyline
 90
2
 70
0
 10
50.593999999999994
 20
-352.1
 10
50.593999999999994
 20
-275.9
  0
LWPOLYLINE
  5
142
330
17
100
AcDbEntity
  8
FRONT
100
AcDbPolyline
 90
2
 70
0
 10
324.406
 20
-352.1
 10
324.406
 20
-275.9
  0
LWPOLYLINE
  5
143
330
17
100
AcDbEntity
  8
FRONT
100
AcDbPolyline
 90
2
 70
0
 10
324.406
 20
-352.1
 10
324.406
 20
-275.9
  0
LWPOLYLINE
  5
144
330
17
100
AcDbEntity
  8
FRONT
100
AcDbPolyline
 90
2
 70
0
 10
50.593999999999994
 20
-352.1
 10
324.406
 20
-352.1
  0
LWPOLYLINE
  5
145
330
17
100
AcDbEntity
  8
FRONT
100
AcDbPolyline
 90
2
 70
0
 10
50.593999999999994
 20
-275.9
 10
324.406
 20
-275.9
  0
LWPOLYLINE
  5
146
330
17
100
AcDbEntity
  8
FRONT
100
AcDbPolyline
 90
2
 70
0
 10
50.593999999999994
 20
-352.1
 10
324.406
 20
-352.1
  0
LWPOLYLINE
  5
147
330
17
100
AcDbEntity
  8
FRONT
100
AcDbPolyline
 90
2
 70
0
 10
50.593999999999994
 20
-275.9
 10
324.406
 20
-275.9
  0
LWPOLYLINE
  5
148
330
17
100
AcDbEntity
  8
FRONT
100
AcDbPolyline
 90
2
 70
0
 10
50.593999999999994
 20
-352.1
 10
50.593999999999994
 20
-275.9
  0
LWPOLYLINE
  5
149
330
17
100
AcDbEntity
  8
FRONT
100
AcDbPolyline
 90
2
 70
0
 10
50.593999999999994
 20
-352.1
 10
50.593999999999994
 20
-275.9
  0
LWPOLYLINE
  5
14A
330
17
100
AcDbEntity
  8
FRONT
100
AcDbPolyline
 90
2
 70
0
 10
324.406
 20
-352.1
 10
324.406
 20
-275.9
  0
LWPOLYLINE
  5
14B
330
17
100
AcDbEntity
  8
FRONT
100
AcDbPolyline
 90
2
 70
0
 10
324.406
 20
-352.1
 10
324.406
 20
-275.9
  0
LWPOLYLINE
  5
14C
330
17
100
AcDbEntity
  8
FRONT
100
AcDbPolyline
 90
2
 70
0
 10
50.593999999999994
 20
-352.1
 10
324.406
 20
-352.1
  0
LWPOLYLINE
  5
14D
330
17
100
AcDbEntity
  8
FRONT
100
AcDbPolyline
 90
2
 70
0
 10
50.593999999999994
 20
-275.9
 10
324.406
 20
-275.9
  0
LWPOLYLINE
  5
14E
330
17
100
AcDbEntity
  8
FRONT
100
AcDbPolyline
 90
2
 70
0
 10
50.593999999999994
 20
-352.1
 10
324.406
 20
-352.1
  0
LWPOLYLINE
  5
14F
330
17
100
AcDbEntity
  8
FRONT
100
AcDbPolyline
 90
2
 70
0
 10
50.593999999999994
 20
-275.9
 10
324.406
 20
-275.9
  0
LWPOLYLINE
  5
150
330
17
100
AcDbEntity
  8
FRONT
100
AcDbPolyline
 90
16
 70
0
 10
98.5
 20
-337.5
 10
99.7202099292274
 20
-337.75936362707216
 10
100.72943447643219
 20
-338.4926081809234
 10
101.35316954888546
 20
-339.57294901687516
 10
101.48356568610482
 20
-340.81358538980294
 10
101.09807621135332
 20
-342.0
 10
100.26335575687742
 20
-342.92705098312484
 10
99.12373507245327
 20
-343.43444280220143
 10
97.87626492754673
 20
-343.43444280220143
 10
96.73664424312258
 20
-342.92705098312484
 10
95.90192378864668
 20
-342.0
 10
95.51643431389518
 20
-340.81358538980294
 10
95.64683045111454
 20
-339.57294901687516
 10
96.27056552356781
 20
-338.4926081809234
 10
97.2797900707726
 20
-337.75936362707216
 10
98.5
 20
-337.5
  0
LWPOLYLINE
  5
151
330
17
100
AcDbEntity
  8
FRONT
100
AcDbPolyline
 90
16
 70
0
 10
98.5
 20
-337.5
 10
99.7202099292274
 20
-337.75936362707216
 10
100.72943447643219
 20
-338.4926081809234
 10
101.35316954888546
 20
-339.57294901687516
 10
101.48356568610482
 20
-340.81358538980294
 10
101.09807621135332
 20
-342.0
 10
100.26335575687742
 20
-342.92705098312484
 10
99.12373507245327
 20
-343.43444280220143
 10
97.87626492754673
 20
-343.43444280220143
 10
96.73664424312258
 20
-342.92705098312484
 10
95.90192378864668
 20
-342.0
 10
95.51643431389518
 20
-340.81358538980294
 10
95.64683045111454
 20
-339.57294901687516
 10
96.27056552356781
 20
-338.4926081809234
 10
97.2797900707726
 20
-337.75936362707216
 10
98.5
 20
-337.5
  0
LWPOLYLINE
  5
152
330
17
100
AcDbEntity
  8
FRONT
100
AcDbPolyline
 90
16
 70
0
 10
98.5
 20
-339.15
 10
99.04909446815233
 20
-339.2667136321825
 10
99.50324551439448
 20
-339.59667368141555
 10
99.78392629699846
 20
-340.0828270575938
 10
99.84260455874717
 20
-340.64111342541133
 10
99.66913429510899
 20
-341.175
 10
99.29351009059484
 20
-341.5921729424062
 10
98.78068078260398
 20
-341.82049926099063
 10
98.21931921739602
 20
-341.82049926099063
 10
97.70648990940516
 20
-341.5921729424062
 10
97.33086570489101
 20
-341.175
 10
97.15739544125283
 20
-340.64111342541133
 10
97.21607370300154
 20
-340.0828270575938
 10
97.49675448560552
 20
-339.59667368141555
 10
97.95090553184767
 20
-339.2667136321825
 10
98.5
 20
-339.15
  0
LWPOLYLINE
  5
153
330
17
100
AcDbEntity
  8
FRONT
100
AcDbPolyline
 90
16
 70
0
 10
98.5
 20
-339.15
 10
99.04909446815233
 20
-339.2667136321825
 10
99.50324551439448
 20
-339.59667368141555
 10
99.78392629699846
 20
-340.0828270575938
 10
99.84260455874717
 20
-340.64111342541133
 10
99.66913429510899
 20
-341.175
 10
99.29351009059484
 20
-341.5921729424062
 10
98.78068078260398
 20
-341.82049926099063
 10
98.21931921739602
 20
-341.82049926099063
 10
97.70648990940516
 20
-341.5921729424062
 10
97.33086570489101
 20
-341.175
 10
97.15739544125283
 20
-340.64111342541133
 10
97.21607370300154
 20
-340.0828270575938
 10
97.49675448560552
 20
-339.59667368141555
 10
97.95090553184767
 20
-339.2667136321825
 10
98.5
 20
-339.15
  0
LWPOLYLINE
  5
154
330
17
100
AcDbEntity
  8
FRONT
100
AcDbPolyline
 90
16
 70
0
 10
156.5
 20
-337.5
 10
157.7202099292274
 20
-337.75936362707216
 10
158.72943447643217
 20
-338.4926081809234
 10
159.35316954888546
 20
-339.57294901687516
 10
159.4835656861048
 20
-340.81358538980294
 10
159.09807621135332
 20
-342.0
 10
158.26335575687742
 20
-342.92705098312484
 10
157.1237350724533
 20
-343.43444280220143
 10
155.8762649275467
 20
-343.43444280220143
 10
154.73664424312258
 20
-342.92705098312484
 10
153.90192378864668
 20
-342.0
 10
153.5164343138952
 20
-340.81358538980294
 10
153.64683045111454
 20
-339.57294901687516
 10
154.27056552356783
 20
-338.4926081809234
 10
155.2797900707726
 20
-337.75936362707216
 10
156.5
 20
-337.5
  0
LWPOLYLINE
  5
155
330
17
100
AcDbEntity
  8
FRONT
100
AcDbPolyline
 90
16
 70
0
 10
156.5
 20
-337.5
 10
157.7202099292274
 20
-337.75936362707216
 10
158.72943447643217
 20
-338.4926081809234
 10
159.35316954888546
 20
-339.57294901687516
 10
159.4835656861048
 20
-340.81358538980294
 10
159.09807621135332
 20
-342.0
 10
158.26335575687742
 20
-342.92705098312484
 10
157.1237350724533
 20
-343.43444280220143
 10
155.8762649275467
 20
-343.43444280220143
 10
154.73664424312258
 20
-342.92705098312484
 10
153.90192378864668
 20
-342.0
 10
153.5164343138952
 20
-340.81358538980294
 10
153.64683045111454
 20
-339.57294901687516
 10
154.27056552356783
 20
-338.4926081809234
 10
155.2797900707726
 20
-337.75936362707216
 10
156.5
 20
-337.5
  0
LWPOLYLINE
  5
156
330
17
100
AcDbEntity
  8
FRONT
100
AcDbPolyline
 90
16
 70
0
 10
156.5
 20
-339.15
 10
157.04909446815233
 20
-339.2667136321825
 10
157.50324551439448
 20
-339.59667368141555
 10
157.78392629699846
 20
-340.0828270575938
 10
157.84260455874715
 20
-340.64111342541133
 10
157.669134295109
 20
-341.175
 10
157.29351009059485
 20
-341.5921729424062
 10
156.78068078260398
 20
-341.82049926099063
 10
156.21931921739602
 20
-341.82049926099063
 10
155.70648990940515
 20
-341.5921729424062
 10
155.330865704891
 20
-341.175
 10
155.15739544125285
 20
-340.64111342541133
 10
155.21607370300154
 20
-340.0828270575938
 10
155.49675448560552
 20
-339.59667368141555
 10
155.95090553184767
 20
-339.2667136321825
 10
156.5
 20
-339.15
  0
LWPOLYLINE
  5
157
330
17
100
AcDbEntity
  8
FRONT
100
AcDbPolyline
 90
16
 70
0
 10
156.5
 20
-339.15
 10
157.04909446815233
 20
-339.2667136321825
 10
157.50324551439448
 20
-339.59667368141555
 10
157.78392629699846
 20
-340.0828270575938
 10
157.84260455874715
 20
-340.64111342541133
 10
157.669134295109
 20
-341.175
 10
157.29351009059485
 20
-341.5921729424062
 10
156.78068078260398
 20
-341.82049926099063
 10
156.21931921739602
 20
-341.82049926099063
 10
155.70648990940515
 20
-341.5921729424062
 10
155.330865704891
 20
-341.175
 10
155.15739544125285
 20
-340.64111342541133
 10
155.21607370300154
 20
-340.0828270575938
 10
155.49675448560552
 20
-339.59667368141555
 10
155.95090553184767
 20
-339.2667136321825
 10
156.5
 20
-339.15
  0
LWPOLYLINE
  5
158
330
17
100
AcDbEntity
  8
FRONT
100
AcDbPolyline
 90
16
 70
0
 10
98.5
 20
-288.5
 10
99.7202099292274
 20
-288.75936362707216
 10
100.72943447643219
 20
-289.4926081809234
 10
101.35316954888546
 20
-290.57294901687516
 10
101.48356568610482
 20
-291.81358538980294
 10
101.09807621135332
 20
-293.0
 10
100.26335575687742
 20
-293.92705098312484
 10
99.12373507245327
 20
-294.43444280220143
 10
97.87626492754673
 20
-294.43444280220143
 10
96.73664424312258
 20
-293.92705098312484
 10
95.90192378864668
 20
-293.0
 10
95.51643431389518
 20
-291.81358538980294
 10
95.64683045111454
 20
-290.57294901687516
 10
96.27056552356781
 20
-289.4926081809234
 10
97.2797900707726
 20
-288.75936362707216
 10
98.5
 20
-288.5
  0
LWPOLYLINE
  5
159
330
17
100
AcDbEntity
  8
FRONT
100
AcDbPolyline
 90
16
 70
0
 10
98.5
 20
-288.5
 10
99.7202099292274
 20
-288.75936362707216
 10
100.72943447643219
 20
-289.4926081809234
 10
101.35316954888546
 20
-290.57294901687516
 10
101.48356568610482
 20
-291.81358538980294
 10
101.09807621135332
 20
-293.0
 10
100.26335575687742
 20
-293.92705098312484
 10
99.12373507245327
 20
-294.43444280220143
 10
97.87626492754673
 20
-294.43444280220143
 10
96.73664424312258
 20
-293.92705098312484
 10
95.90192378864668
 20
-293.0
 10
95.51643431389518
 20
-291.81358538980294
 10
95.64683045111454
 20
-290.57294901687516
 10
96.27056552356781
 20
-289.4926081809234
 10
97.2797900707726
 20
-288.75936362707216
 10
98.5
 20
-288.5
  0
LWPOLYLINE
  5
15A
330
17
100
AcDbEntity
  8
FRONT
100
AcDbPolyline
 90
16
 70
0
 10
98.5
 20
-290.15
 10
99.04909446815233
 20
-290.2667136321825
 10
99.50324551439448
 20
-290.59667368141555
 10
99.78392629699846
 20
-291.0828270575938
 10
99.84260455874717
 20
-291.64111342541133
 10
99.66913429510899
 20
-292.175
 10
99.29351009059484
 20
-292.5921729424062
 10
98.78068078260398
 20
-292.82049926099063
 10
98.21931921739602
 20
-292.82049926099063
 10
97.70648990940516
 20
-292.5921729424062
 10
97.33086570489101
 20
-292.175
 10
97.15739544125283
 20
-291.64111342541133
 10
97.21607370300154
 20
-291.0828270575938
 10
97.49675448560552
 20
-290.59667368141555
 10
97.95090553184767
 20
-290.2667136321825
 10
98.5
 20
-290.15
  0
LWPOLYLINE
  5
15B
330
17
100
AcDbEntity
  8
FRONT
100
AcDbPolyline
 90
16
 70
0
 10
98.5
 20
-290.15
 10
99.04909446815233
 20
-290.2667136321825
 10
99.50324551439448
 20
-290.59667368141555
 10
99.78392629699846
 20
-291.0828270575938
 10
99.84260455874717
 20
-291.64111342541133
 10
99.66913429510899
 20
-292.175
 10
99.29351009059484
 20
-292.5921729424062
 10
98.78068078260398
 20
-292.82049926099063
 10
98.21931921739602
 20
-292.82049926099063
 10
97.70648990940516
 20
-292.5921729424062
 10
97.33086570489101
 20
-292.175
 10
97.15739544125283
 20
-291.64111342541133
 10
97.21607370300154
 20
-291.0828270575938
 10
97.49675448560552
 20
-290.59667368141555
 10
97.95090553184767
 20
-290.2667136321825
 10
98.5
 20
-290.15
  0
LWPOLYLINE
  5
15C
330
17
100
AcDbEntity
  8
FRONT
100
AcDbPolyline
 90
16
 70
0
 10
156.5
 20
-288.5
 10
157.7202099292274
 20
-288.75936362707216
 10
158.72943447643217
 20
-289.4926081809234
 10
159.35316954888546
 20
-290.57294901687516
 10
159.4835656861048
 20
-291.81358538980294
 10
159.09807621135332
 20
-293.0
 10
158.26335575687742
 20
-293.92705098312484
 10
157.1237350724533
 20
-294.43444280220143
 10
155.8762649275467
 20
-294.43444280220143
 10
154.73664424312258
 20
-293.92705098312484
 10
153.90192378864668
 20
-293.0
 10
153.5164343138952
 20
-291.81358538980294
 10
153.64683045111454
 20
-290.57294901687516
 10
154.27056552356783
 20
-289.4926081809234
 10
155.2797900707726
 20
-288.75936362707216
 10
156.5
 20
-288.5
  0
LWPOLYLINE
  5
15D
330
17
100
AcDbEntity
  8
FRONT
100
AcDbPolyline
 90
16
 70
0
 10
156.5
 20
-288.5
 10
157.7202099292274
 20
-288.75936362707216
 10
158.72943447643217
 20
-289.4926081809234
 10
159.35316954888546
 20
-290.57294901687516
 10
159.4835656861048
 20
-291.81358538980294
 10
159.09807621135332
 20
-293.0
 10
158.26335575687742
 20
-293.92705098312484
 10
157.1237350724533
 20
-294.43444280220143
 10
155.8762649275467
 20
-294.43444280220143
 10
154.73664424312258
 20
-293.92705098312484
 10
153.90192378864668
 20
-293.0
 10
153.5164343138952
 20
-291.81358538980294
 10
153.64683045111454
 20
-290.57294901687516
 10
154.27056552356783
 20
-289.4926081809234
 10
155.2797900707726
 20
-288.75936362707216
 10
156.5
 20
-288.5
  0
LWPOLYLINE
  5
15E
330
17
100
AcDbEntity
  8
FRONT
100
AcDbPolyline
 90
16
 70
0
 10
156.5
 20
-290.15
 10
157.04909446815233
 20
-290.2667136321825
 10
157.50324551439448
 20
-290.59667368141555
 10
157.78392629699846
 20
-291.0828270575938
 10
157.84260455874715
 20
-291.64111342541133
 10
157.669134295109
 20
-292.175
 10
157.29351009059485
 20
-292.5921729424062
 10
156.78068078260398
 20
-292.82049926099063
 10
156.21931921739602
 20
-292.82049926099063
 10
155.70648990940515
 20
-292.5921729424062
 10
155.330865704891
 20
-292.175
 10
155.15739544125285
 20
-291.64111342541133
 10
155.21607370300154
 20
-291.0828270575938
 10
155.49675448560552
 20
-290.59667368141555
 10
155.95090553184767
 20
-290.2667136321825
 10
156.5
 20
-290.15
  0
LWPOLYLINE
  5
15F
330
17
100
AcDbEntity
  8
FRONT
100
AcDbPolyline
 90
16
 70
0
 10
156.5
 20
-290.15
 10
157.04909446815233
 20
-290.2667136321825
 10
157.50324551439448
 20
-290.59667368141555
 10
157.78392629699846
 20
-291.0828270575938
 10
157.84260455874715
 20
-291.64111342541133
 10
157.669134295109
 20
-292.175
 10
157.29351009059485
 20
-292.5921729424062
 10
156.78068078260398
 20
-292.82049926099063
 10
156.21931921739602
 20
-292.82049926099063
 10
155.70648990940515
 20
-292.5921729424062
 10
155.330865704891
 20
-292.175
 10
155.15739544125285
 20
-291.64111342541133
 10
155.21607370300154
 20
-291.0828270575938
 10
155.49675448560552
 20
-290.59667368141555
 10
155.95090553184767
 20
-290.2667136321825
 10
156.5
 20
-290.15
  0
LWPOLYLINE
  5
160
330
17
100
AcDbEntity
  8
FRONT
100
AcDbPolyline
 90
2
 70
0
 10
95.0
 20
-341.0
 10
95.0
 20
-291.0
  0
LWPOLYLINE
  5
161
330
17
100
AcDbEntity
  8
FRONT
100
AcDbPolyline
 90
2
 70
0
 10
95.0
 20
-341.0
 10
95.0
 20
-291.0
  0
LWPOLYLINE
  5
162
330
17
100
AcDbEntity
  8
FRONT
100
AcDbPolyline
 90
2
 70
0
 10
98.0
 20
-344.0
 10
177.0
 20
-344.0
  0
LWPOLYLINE
  5
163
330
17
100
AcDbEntity
  8
FRONT
100
AcDbPolyline
 90
16
 70
0
 10
95.0
 20
-341.0
 10
95.01643431389518
 20
-341.31358538980294
 10
95.06555719779858
 20
-341.6237350724533
 10
95.14683045111454
 20
-341.92705098312484
 10
95.25936362707219
 20
-342.2202099292274
 10
95.40192378864668
 20
-342.5
 10
95.57294901687516
 20
-342.76335575687744
 10
95.77056552356781
 20
-343.0073918190766
 10
95.99260818092343
 20
-343.2294344764322
 10
96.23664424312258
 20
-343.42705098312484
 10
96.5
 20
-343.5980762113533
 10
96.7797900707726
 20
-343.74063637292784
 10
97.07294901687516
 20
-343.8531695488855
 10
97.37626492754671
 20
-343.93444280220143
 10
97.68641461019703
 20
-343.98356568610484
 10
98.0
 20
-344.0
  0
LWPOLYLINE
  5
164
330
17
100
AcDbEntity
  8
FRONT
100
AcDbPolyline
 90
16
 70
0
 10
180.0
 20
-341.0
 10
179.9835656861048
 20
-341.31358538980294
 10
179.93444280220143
 20
-341.6237350724533
 10
179.85316954888546
 20
-341.92705098312484
 10
179.7406363729278
 20
-342.2202099292274
 10
179.59807621135332
 20
-342.5
 10
179.42705098312484
 20
-342.76335575687744
 10
179.22943447643217
 20
-343.0073918190766
 10
179.0073918190766
 20
-343.2294344764322
 10
178.76335575687742
 20
-343.42705098312484
 10
178.5
 20
-343.5980762113533
 10
178.2202099292274
 20
-343.74063637292784
 10
177.92705098312484
 20
-343.8531695488855
 10
177.6237350724533
 20
-343.93444280220143
 10
177.31358538980297
 20
-343.98356568610484
 10
177.0
 20
-344.0
  0
LWPOLYLINE
  5
165
330
17
100
AcDbEntity
  8
FRONT
100
AcDbPolyline
 90
2
 70
0
 10
180.0
 20
-341.0
 10
180.0
 20
-291.0
  0
LWPOLYLINE
  5
166
330
17
100
AcDbEntity
  8
FRONT
100
AcDbPolyline
 90
16
 70
0
 10
95.0
 20
-291.0
 10
95.01643431389518
 20
-290.68641461019706
 10
95.06555719779858
 20
-290.37626492754674
 10
95.14683045111454
 20
-290.07294901687516
 10
95.25936362707219
 20
-289.7797900707726
 10
95.40192378864668
 20
-289.5
 10
95.57294901687516
 20
-289.23664424312256
 10
95.77056552356781
 20
-288.9926081809234
 10
95.99260818092343
 20
-288.7705655235678
 10
96.23664424312258
 20
-288.57294901687516
 10
96.5
 20
-288.4019237886467
 10
96.77979007077259
 20
-288.2593636270722
 10
97.07294901687516
 20
-288.1468304511145
 10
97.37626492754671
 20
-288.06555719779857
 10
97.68641461019703
 20
-288.01643431389516
 10
98.0
 20
-288.0
  0
LWPOLYLINE
  5
167
330
17
100
AcDbEntity
  8
FRONT
100
AcDbPolyline
 90
16
 70
0
 10
180.0
 20
-291.0
 10
179.9835656861048
 20
-290.68641461019706
 10
179.93444280220143
 20
-290.37626492754674
 10
179.85316954888546
 20
-290.07294901687516
 10
179.7406363729278
 20
-289.7797900707726
 10
179.59807621135332
 20
-289.5
 10
179.42705098312484
 20
-289.23664424312256
 10
179.22943447643217
 20
-288.9926081809234
 10
179.0073918190766
 20
-288.7705655235678
 10
178.76335575687742
 20
-288.57294901687516
 10
178.5
 20
-288.4019237886467
 10
178.2202099292274
 20
-288.2593636270722
 10
177.92705098312484
 20
-288.1468304511145
 10
177.6237350724533
 20
-288.06555719779857
 10
177.31358538980297
 20
-288.01643431389516
 10
177.0
 20
-288.0
  0
LWPOLYLINE
  5
168
330
17
100
AcDbEntity
  8
FRONT
100
AcDbPolyline
 90
2
 70
0
 10
98.0
 20
-288.0
 10
177.0
 20
-288.0
  0
LWPOLYLINE
  5
169
330
17
100
AcDbEntity
  8
FRONT
100
AcDbPolyline
 90
16
 70
0
 10
98.5
 20
-339.15
 10
99.04909446815233
 20
-339.2667136321825
 10
99.50324551439448
 20
-339.59667368141555
 10
99.78392629699846
 20
-340.0828270575938
 10
99.84260455874717
 20
-340.64111342541133
 10
99.66913429510899
 20
-341.175
 10
99.29351009059484
 20
-341.5921729424062
 10
98.78068078260398
 20
-341.82049926099063
 10
98.21931921739602
 20
-341.82049926099063
 10
97.70648990940516
 20
-341.5921729424062
 10
97.33086570489101
 20
-341.175
 10
97.15739544125283
 20
-340.64111342541133
 10
97.21607370300154
 20
-340.0828270575938
 10
97.49675448560552
 20
-339.59667368141555
 10
97.95090553184767
 20
-339.2667136321825
 10
98.5
 20
-339.15
  0
LWPOLYLINE
  5
16A
330
17
100
AcDbEntity
  8
FRONT
100
AcDbPolyline
 90
16
 70
0
 10
98.5
 20
-290.15
 10
99.04909446815233
 20
-290.2667136321825
 10
99.50324551439448
 20
-290.59667368141555
 10
99.78392629699846
 20
-291.0828270575938
 10
99.84260455874717
 20
-291.64111342541133
 10
99.66913429510899
 20
-292.175
 10
99.29351009059484
 20
-292.5921729424062
 10
98.78068078260398
 20
-292.82049926099063
 10
98.21931921739602
 20
-292.82049926099063
 10
97.70648990940516
 20
-292.5921729424062
 10
97.33086570489101
 20
-292.175
 10
97.15739544125283
 20
-291.64111342541133
 10
97.21607370300154
 20
-291.0828270575938
 10
97.49675448560552
 20
-290.59667368141555
 10
97.95090553184767
 20
-290.2667136321825
 10
98.5
 20
-290.15
  0
LWPOLYLINE
  5
16B
330
17
100
AcDbEntity
  8
FRONT
100
AcDbPolyline
 90
16
 70
0
 10
156.5
 20
-339.15
 10
157.04909446815233
 20
-339.2667136321825
 10
157.50324551439448
 20
-339.59667368141555
 10
157.78392629699846
 20
-340.0828270575938
 10
157.84260455874715
 20
-340.64111342541133
 10
157.669134295109
 20
-341.175
 10
157.29351009059485
 20
-341.5921729424062
 10
156.78068078260398
 20
-341.82049926099063
 10
156.21931921739602
 20
-341.82049926099063
 10
155.70648990940515
 20
-341.5921729424062
 10
155.330865704891
 20
-341.175
 10
155.15739544125285
 20
-340.64111342541133
 10
155.21607370300154
 20
-340.0828270575938
 10
155.49675448560552
 20
-339.59667368141555
 10
155.95090553184767
 20
-339.2667136321825
 10
156.5
 20
-339.15
  0
LWPOLYLINE
  5
16C
330
17
100
AcDbEntity
  8
FRONT
100
AcDbPolyline
 90
16
 70
0
 10
156.5
 20
-290.15
 10
157.04909446815233
 20
-290.2667136321825
 10
157.50324551439448
 20
-290.59667368141555
 10
157.78392629699846
 20
-291.0828270575938
 10
157.84260455874715
 20
-291.64111342541133
 10
157.669134295109
 20
-292.175
 10
157.29351009059485
 20
-292.5921729424062
 10
156.78068078260398
 20
-292.82049926099063
 10
156.21931921739602
 20
-292.82049926099063
 10
155.70648990940515
 20
-292.5921729424062
 10
155.330865704891
 20
-292.175
 10
155.15739544125285
 20
-291.64111342541133
 10
155.21607370300154
 20
-291.0828270575938
 10
155.49675448560552
 20
-290.59667368141555
 10
155.95090553184767
 20
-290.2667136321825
 10
156.5
 20
-290.15
  0
LWPOLYLINE
  5
16D
330
17
100
AcDbEntity
  8
FRONT
100
AcDbPolyline
 90
16
 70
0
 10
95.0
 20
-341.0
 10
95.01643431389518
 20
-341.31358538980294
 10
95.06555719779858
 20
-341.6237350724533
 10
95.14683045111454
 20
-341.92705098312484
 10
95.25936362707219
 20
-342.2202099292274
 10
95.40192378864668
 20
-342.5
 10
95.57294901687516
 20
-342.76335575687744
 10
95.77056552356781
 20
-343.0073918190766
 10
95.99260818092343
 20
-343.2294344764322
 10
96.23664424312258
 20
-343.42705098312484
 10
96.5
 20
-343.5980762113533
 10
96.7797900707726
 20
-343.74063637292784
 10
97.07294901687516
 20
-343.8531695488855
 10
97.37626492754671
 20
-343.93444280220143
 10
97.68641461019703
 20
-343.98356568610484
 10
98.0
 20
-344.0
  0
LWPOLYLINE
  5
16E
330
17
100
AcDbEntity
  8
FRONT
100
AcDbPolyline
 90
16
 70
0
 10
95.0
 20
-291.0
 10
95.01643431389518
 20
-290.68641461019706
 10
95.06555719779858
 20
-290.37626492754674
 10
95.14683045111454
 20
-290.07294901687516
 10
95.25936362707219
 20
-289.7797900707726
 10
95.40192378864668
 20
-289.5
 10
95.57294901687516
 20
-289.23664424312256
 10
95.77056552356781
 20
-288.9926081809234
 10
95.99260818092343
 20
-288.7705655235678
 10
96.23664424312258
 20
-288.57294901687516
 10
96.5
 20
-288.4019237886467
 10
96.77979007077259
 20
-288.2593636270722
 10
97.07294901687516
 20
-288.1468304511145
 10
97.37626492754671
 20
-288.06555719779857
 10
97.68641461019703
 20
-288.01643431389516
 10
98.0
 20
-288.0
  0
LWPOLYLINE
  5
16F
330
17
100
AcDbEntity
  8
FRONT
100
AcDbPolyline
 90
2
 70
0
 10
98.0
 20
-344.0
 10
177.0
 20
-344.0
  0
LWPOLYLINE
  5
170
330
17
100
AcDbEntity
  8
FRONT
100
AcDbPolyline
 90
16
 70
0
 10
180.0
 20
-341.0
 10
179.9835656861048
 20
-341.31358538980294
 10
179.93444280220143
 20
-341.6237350724533
 10
179.85316954888546
 20
-341.92705098312484
 10
179.7406363729278
 20
-342.2202099292274
 10
179.59807621135332
 20
-342.5
 10
179.42705098312484
 20
-342.76335575687744
 10
179.22943447643217
 20
-343.0073918190766
 10
179.0073918190766
 20
-343.2294344764322
 10
178.76335575687742
 20
-343.42705098312484
 10
178.5
 20
-343.5980762113533
 10
178.2202099292274
 20
-343.74063637292784
 10
177.92705098312484
 20
-343.8531695488855
 10
177.6237350724533
 20
-343.93444280220143
 10
177.31358538980297
 20
-343.98356568610484
 10
177.0
 20
-344.0
  0
LWPOLYLINE
  5
171
330
17
100
AcDbEntity
  8
FRONT
100
AcDbPolyline
 90
2
 70
0
 10
180.0
 20
-341.0
 10
180.0
 20
-291.0
  0
LWPOLYLINE
  5
172
330
17
100
AcDbEntity
  8
FRONT
100
AcDbPolyline
 90
16
 70
0
 10
180.0
 20
-291.0
 10
179.9835656861048
 20
-290.68641461019706
 10
179.93444280220143
 20
-290.37626492754674
 10
179.85316954888546
 20
-290.07294901687516
 10
179.7406363729278
 20
-289.7797900707726
 10
179.59807621135332
 20
-289.5
 10
179.42705098312484
 20
-289.23664424312256
 10
179.22943447643217
 20
-288.9926081809234
 10
179.0073918190766
 20
-288.7705655235678
 10
178.76335575687742
 20
-288.57294901687516
 10
178.5
 20
-288.4019237886467
 10
178.2202099292274
 20
-288.2593636270722
 10
177.92705098312484
 20
-288.1468304511145
 10
177.6237350724533
 20
-288.06555719779857
 10
177.31358538980297
 20
-288.01643431389516
 10
177.0
 20
-288.0
  0
LWPOLYLINE
  5
173
330
17
100
AcDbEntity
  8
FRONT
100
AcDbPolyline
 90
2
 70
0
 10
98.0
 20
-288.0
 10
177.0
 20
-288.0
  0
LWPOLYLINE
  5
174
330
17
100
AcDbEntity
  8
FRONT
100
AcDbPolyline
 90
16
 70
0
 10
98.5
 20
-339.15
 10
99.04909446815233
 20
-339.2667136321825
 10
99.50324551439448
 20
-339.59667368141555
 10
99.78392629699846
 20
-340.0828270575938
 10
99.84260455874717
 20
-340.64111342541133
 10
99.66913429510899
 20
-341.175
 10
99.29351009059484
 20
-341.5921729424062
 10
98.78068078260398
 20
-341.82049926099063
 10
98.21931921739602
 20
-341.82049926099063
 10
97.70648990940516
 20
-341.5921729424062
 10
97.33086570489101
 20
-341.175
 10
97.15739544125283
 20
-340.64111342541133
 10
97.21607370300154
 20
-340.0828270575938
 10
97.49675448560552
 20
-339.59667368141555
 10
97.95090553184767
 20
-339.2667136321825
 10
98.5
 20
-339.15
  0
LWPOLYLINE
  5
175
330
17
100
AcDbEntity
  8
FRONT
100
AcDbPolyline
 90
16
 70
0
 10
98.5
 20
-290.15
 10
99.04909446815233
 20
-290.2667136321825
 10
99.50324551439448
 20
-290.59667368141555
 10
99.78392629699846
 20
-291.0828270575938
 10
99.84260455874717
 20
-291.64111342541133
 10
99.66913429510899
 20
-292.175
 10
99.29351009059484
 20
-292.5921729424062
 10
98.78068078260398
 20
-292.82049926099063
 10
98.21931921739602
 20
-292.82049926099063
 10
97.70648990940516
 20
-292.5921729424062
 10
97.33086570489101
 20
-292.175
 10
97.15739544125283
 20
-291.64111342541133
 10
97.21607370300154
 20
-291.0828270575938
 10
97.49675448560552
 20
-290.59667368141555
 10
97.95090553184767
 20
-290.2667136321825
 10
98.5
 20
-290.15
  0
LWPOLYLINE
  5
176
330
17
100
AcDbEntity
  8
FRONT
100
AcDbPolyline
 90
16
 70
0
 10
156.5
 20
-339.15
 10
157.04909446815233
 20
-339.2667136321825
 10
157.50324551439448
 20
-339.59667368141555
 10
157.78392629699846
 20
-340.0828270575938
 10
157.84260455874715
 20
-340.64111342541133
 10
157.669134295109
 20
-341.175
 10
157.29351009059485
 20
-341.5921729424062
 10
156.78068078260398
 20
-341.82049926099063
 10
156.21931921739602
 20
-341.82049926099063
 10
155.70648990940515
 20
-341.5921729424062
 10
155.330865704891
 20
-341.175
 10
155.15739544125285
 20
-340.64111342541133
 10
155.21607370300154
 20
-340.0828270575938
 10
155.49675448560552
 20
-339.59667368141555
 10
155.95090553184767
 20
-339.2667136321825
 10
156.5
 20
-339.15
  0
LWPOLYLINE
  5
177
330
17
100
AcDbEntity
  8
FRONT
100
AcDbPolyline
 90
16
 70
0
 10
156.5
 20
-290.15
 10
157.04909446815233
 20
-290.2667136321825
 10
157.50324551439448
 20
-290.59667368141555
 10
157.78392629699846
 20
-291.0828270575938
 10
157.84260455874715
 20
-291.64111342541133
 10
157.669134295109
 20
-292.175
 10
157.29351009059485
 20
-292.5921729424062
 10
156.78068078260398
 20
-292.82049926099063
 10
156.21931921739602
 20
-292.82049926099063
 10
155.70648990940515
 20
-292.5921729424062
 10
155.330865704891
 20
-292.175
 10
155.15739544125285
 20
-291.64111342541133
 10
155.21607370300154
 20
-291.0828270575938
 10
155.49675448560552
 20
-290.59667368141555
 10
155.95090553184767
 20
-290.2667136321825
 10
156.5
 20
-290.15
  0
LWPOLYLINE
  5
178
330
17
100
AcDbEntity
  8
FRONT
100
AcDbPolyline
 90
2
 70
0
 10
95.0
 20
-344.0
 10
95.0
 20
-288.0
  0
LWPOLYLINE
  5
179
330
17
100
AcDbEntity
  8
FRONT
100
AcDbPolyline
 90
2
 70
0
 10
95.0
 20
-344.0
 10
95.0
 20
-288.0
  0
LWPOLYLINE
  5
17A
330
17
100
AcDbEntity
  8
FRONT
100
AcDbPolyline
 90
2
 70
0
 10
180.0
 20
-344.0
 10
180.0
 20
-288.0
  0
LWPOLYLINE
  5
17B
330
17
100
AcDbEntity
  8
FRONT
100
AcDbPolyline
 90
2
 70
0
 10
180.0
 20
-344.0
 10
180.0
 20
-288.0
  0
LWPOLYLINE
  5
17C
330
17
100
AcDbEntity
  8
FRONT
100
AcDbPolyline
 90
2
 70
0
 10
95.0
 20
-344.0
 10
180.0
 20
-344.0
  0
LWPOLYLINE
  5
17D
330
17
100
AcDbEntity
  8
FRONT
100
AcDbPolyline
 90
2
 70
0
 10
95.0
 20
-288.0
 10
180.0
 20
-288.0
  0
LWPOLYLINE
  5
17E
330
17
100
AcDbEntity
  8
FRONT
100
AcDbPolyline
 90
2
 70
0
 10
95.0
 20
-344.0
 10
180.0
 20
-344.0
  0
LWPOLYLINE
  5
17F
330
17
100
AcDbEntity
  8
FRONT
100
AcDbPolyline
 90
2
 70
0
 10
95.0
 20
-288.0
 10
180.0
 20
-288.0
  0
LWPOLYLINE
  5
180
330
17
100
AcDbEntity
  8
FRONT
100
AcDbPolyline
 90
2
 70
0
 10
207.5
 20
-346.5
 10
207.5
 20
-286.5
  0
LWPOLYLINE
  5
181
330
17
100
AcDbEntity
  8
FRONT
100
AcDbPolyline
 90
2
 70
0
 10
207.5
 20
-346.5
 10
207.5
 20
-286.5
  0
LWPOLYLINE
  5
182
330
17
100
AcDbEntity
  8
FRONT
100
AcDbPolyline
 90
2
 70
0
 10
302.5
 20
-346.5
 10
302.5
 20
-286.5
  0
LWPOLYLINE
  5
183
330
17
100
AcDbEntity
  8
FRONT
100
AcDbPolyline
 90
2
 70
0
 10
302.5
 20
-346.5
 10
302.5
 20
-286.5
  0
LWPOLYLINE
  5
184
330
17
100
AcDbEntity
  8
FRONT
100
AcDbPolyline
 90
2
 70
0
 10
207.5
 20
-346.5
 10
302.5
 20
-346.5
  0
LWPOLYLINE
  5
185
330
17
100
AcDbEntity
  8
FRONT
100
AcDbPolyline
 90
2
 70
0
 10
207.5
 20
-286.5
 10
302.5
 20
-286.5
  0
LWPOLYLINE
  5
186
330
17
100
AcDbEntity
  8
FRONT
100
AcDbPolyline
 90
2
 70
0
 10
207.5
 20
-346.5
 10
302.5
 20
-346.5
  0
LWPOLYLINE
  5
187
330
17
100
AcDbEntity
  8
FRONT
100
AcDbPolyline
 90
2
 70
0
 10
207.5
 20
-286.5
 10
302.5
 20
-286.5
  0
LWPOLYLINE
  5
188
330
17
100
AcDbEntity
  8
FRONT
100
AcDbPolyline
 90
2
 70
0
 10
0.0
 20
-151.5
 10
0.0
 20
-150.0
  0
LWPOLYLINE
  5
189
330
17
100
AcDbEntity
  8
FRONT
100
AcDbPolyline
 90
2
 70
0
 10
0.0
 20
-151.5
 10
0.0
 20
-150.0
  0
LWPOLYLINE
  5
18A
330
17
100
AcDbEntity
  8
FRONT
100
AcDbPolyline
 90
2
 70
0
 10
375.0
 20
-151.5
 10
375.0
 20
-150.0
  0
LWPOLYLINE
  5
18B
330
17
100
AcDbEntity
  8
FRONT
100
AcDbPolyline
 90
2
 70
0
 10
375.0
 20
-151.5
 10
375.0
 20
-150.0
  0
LWPOLYLINE
  5
18C
330
17
100
AcDbEntity
  8
FRONT
100
AcDbPolyline
 90
2
 70
0
 10
0.0
 20
-151.5
 10
375.0
 20
-151.5
  0
LWPOLYLINE
  5
18D
330
17
100
AcDbEntity
  8
FRONT
100
AcDbPolyline
 90
2
 70
0
 10
0.0
 20
-150.0
 10
375.0
 20
-150.0
  0
LWPOLYLINE
  5
18E
330
17
100
AcDbEntity
  8
FRONT
100
AcDbPolyline
 90
2
 70
0
 10
0.0
 20
-151.5
 10
375.0
 20
-151.5
  0
LWPOLYLINE
  5
18F
330
17
100
AcDbEntity
  8
FRONT
100
AcDbPolyline
 90
2
 70
0
 10
0.0
 20
-150.0
 10
375.0
 20
-150.0
  0
LWPOLYLINE
  5
190
330
17
100
AcDbEntity
  8
FRONT
100
AcDbPolyline
 90
2
 70
0
 10
6.5
 20
-419.5
 10
6.5
 20
-151.5
  0
LWPOLYLINE
  5
191
330
17
100
AcDbEntity
  8
FRONT
100
AcDbPolyline
 90
2
 70
0
 10
6.5
 20
-419.5
 10
6.5
 20
-151.5
  0
LWPOLYLINE
  5
192
330
17
100
AcDbEntity
  8
FRONT
100
AcDbPolyline
 90
2
 70
0
 10
18.5
 20
-419.5
 10
18.5
 20
-151.5
  0
LWPOLYLINE
  5
193
330
17
100
AcDbEntity
  8
FRONT
100
AcDbPolyline
 90
2
 70
0
 10
18.5
 20
-419.5
 10
18.5
 20
-151.5
  0
LWPOLYLINE
  5
194
330
17
100
AcDbEntity
  8
FRONT
100
AcDbPolyline
 90
2
 70
0
 10
6.5
 20
-419.5
 10
18.5
 20
-419.5
  0
LWPOLYLINE
  5
195
330
17
100
AcDbEntity
  8
FRONT
100
AcDbPolyline
 90
2
 70
0
 10
6.5
 20
-151.5
 10
18.5
 20
-151.5
  0
LWPOLYLINE
  5
196
330
17
100
AcDbEntity
  8
FRONT
100
AcDbPolyline
 90
2
 70
0
 10
6.5
 20
-419.5
 10
18.5
 20
-419.5
  0
LWPOLYLINE
  5
197
330
17
100
AcDbEntity
  8
FRONT
100
AcDbPolyline
 90
2
 70
0
 10
6.5
 20
-151.5
 10
18.5
 20
-151.5
  0
LWPOLYLINE
  5
198
330
17
100
AcDbEntity
  8
FRONT
100
AcDbPolyline
 90
2
 70
0
 10
356.5
 20
-419.5
 10
356.5
 20
-151.5
  0
LWPOLYLINE
  5
199
330
17
100
AcDbEntity
  8
FRONT
100
AcDbPolyline
 90
2
 70
0
 10
356.5
 20
-419.5
 10
356.5
 20
-151.5
  0
LWPOLYLINE
  5
19A
330
17
100
AcDbEntity
  8
FRONT
100
AcDbPolyline
 90
2
 70
0
 10
368.5
 20
-419.5
 10
368.5
 20
-151.5
  0
LWPOLYLINE
  5
19B
330
17
100
AcDbEntity
  8
FRONT
100
AcDbPolyline
 90
2
 70
0
 10
368.5
 20
-419.5
 10
368.5
 20
-151.5
  0
LWPOLYLINE
  5
19C
330
17
100
AcDbEntity
  8
FRONT
100
AcDbPolyline
 90
2
 70
0
 10
356.5
 20
-419.5
 10
368.5
 20
-419.5
  0
LWPOLYLINE
  5
19D
330
17
100
AcDbEntity
  8
FRONT
100
AcDbPolyline
 90
2
 70
0
 10
356.5
 20
-151.5
 10
368.5
 20
-151.5
  0
LWPOLYLINE
  5
19E
330
17
100
AcDbEntity
  8
FRONT
100
AcDbPolyline
 90
2
 70
0
 10
356.5
 20
-419.5
 10
368.5
 20
-419.5
  0
LWPOLYLINE
  5
19F
330
17
100
AcDbEntity
  8
FRONT
100
AcDbPolyline
 90
2
 70
0
 10
356.5
 20
-151.5
 10
368.5
 20
-151.5
  0
LWPOLYLINE
  5
1A0
330
17
100
AcDbEntity
  8
FRONT
100
AcDbPolyline
 90
2
 70
0
 10
2.5
 20
-427.5
 10
2.5
 20
-419.5
  0
LWPOLYLINE
  5
1A1
330
17
100
AcDbEntity
  8
FRONT
100
AcDbPolyline
 90
2
 70
0
 10
2.5
 20
-427.5
 10
2.5
 20
-419.5
  0
LWPOLYLINE
  5
1A2
330
17
100
AcDbEntity
  8
FRONT
100
AcDbPolyline
 90
2
 70
0
 10
372.5
 20
-427.5
 10
372.5
 20
-419.5
  0
LWPOLYLINE
  5
1A3
330
17
100
AcDbEntity
  8
FRONT
100
AcDbPolyline
 90
2
 70
0
 10
372.5
 20
-427.5
 10
372.5
 20
-419.5
  0
LWPOLYLINE
  5
1A4
330
17
100
AcDbEntity
  8
FRONT
100
AcDbPolyline
 90
2
 70
0
 10
2.5
 20
-427.5
 10
372.5
 20
-427.5
  0
LWPOLYLINE
  5
1A5
330
17
100
AcDbEntity
  8
FRONT
100
AcDbPolyline
 90
2
 70
0
 10
2.5
 20
-419.5
 10
372.5
 20
-419.5
  0
LWPOLYLINE
  5
1A6
330
17
100
AcDbEntity
  8
FRONT
100
AcDbPolyline
 90
2
 70
0
 10
2.5
 20
-427.5
 10
372.5
 20
-427.5
  0
LWPOLYLINE
  5
1A7
330
17
100
AcDbEntity
  8
FRONT
100
AcDbPolyline
 90
2
 70
0
 10
2.5
 20
-419.5
 10
372.5
 20
-419.5
  0
LWPOLYLINE
  5
1A8
330
17
100
AcDbEntity
  8
FRONT
100
AcDbPolyline
 90
2
 70
0
 10
55.0
 20
-419.5
 10
55.0
 20
-401.5
  0
LWPOLYLINE
  5
1A9
330
17
100
AcDbEntity
  8
FRONT
100
AcDbPolyline
 90
2
 70
0
 10
55.0
 20
-419.5
 10
55.0
 20
-401.5
  0
LWPOLYLINE
  5
1AA
330
17
100
AcDbEntity
  8
FRONT
100
AcDbPolyline
 90
2
 70
0
 10
80.0
 20
-419.5
 10
80.0
 20
-401.5
  0
LWPOLYLINE
  5
1AB
330
17
100
AcDbEntity
  8
FRONT
100
AcDbPolyline
 90
2
 70
0
 10
80.0
 20
-419.5
 10
80.0
 20
-401.5
  0
LWPOLYLINE
  5
1AC
330
17
100
AcDbEntity
  8
FRONT
100
AcDbPolyline
 90
2
 70
0
 10
55.0
 20
-419.5
 10
80.0
 20
-419.5
  0
LWPOLYLINE
  5
1AD
330
17
100
AcDbEntity
  8
FRONT
100
AcDbPolyline
 90
2
 70
0
 10
55.0
 20
-401.5
 10
80.0
 20
-401.5
  0
LWPOLYLINE
  5
1AE
330
17
100
AcDbEntity
  8
FRONT
100
AcDbPolyline
 90
2
 70
0
 10
55.0
 20
-419.5
 10
80.0
 20
-419.5
  0
LWPOLYLINE
  5
1AF
330
17
100
AcDbEntity
  8
FRONT
100
AcDbPolyline
 90
2
 70
0
 10
55.0
 20
-401.5
 10
80.0
 20
-401.5
  0
LWPOLYLINE
  5
1B0
330
17
100
AcDbEntity
  8
FRONT
100
AcDbPolyline
 90
2
 70
0
 10
295.0
 20
-419.5
 10
295.0
 20
-401.5
  0
LWPOLYLINE
  5
1B1
330
17
100
AcDbEntity
  8
FRONT
100
AcDbPolyline
 90
2
 70
0
 10
295.0
 20
-419.5
 10
295.0
 20
-401.5
  0
LWPOLYLINE
  5
1B2
330
17
100
AcDbEntity
  8
FRONT
100
AcDbPolyline
 90
2
 70
0
 10
320.0
 20
-419.5
 10
320.0
 20
-401.5
  0
LWPOLYLINE
  5
1B3
330
17
100
AcDbEntity
  8
FRONT
100
AcDbPolyline
 90
2
 70
0
 10
320.0
 20
-419.5
 10
320.0
 20
-401.5
  0
LWPOLYLINE
  5
1B4
330
17
100
AcDbEntity
  8
FRONT
100
AcDbPolyline
 90
2
 70
0
 10
295.0
 20
-419.5
 10
320.0
 20
-419.5
  0
LWPOLYLINE
  5
1B5
330
17
100
AcDbEntity
  8
FRONT
100
AcDbPolyline
 90
2
 70
0
 10
295.0
 20
-401.5
 10
320.0
 20
-401.5
  0
LWPOLYLINE
  5
1B6
330
17
100
AcDbEntity
  8
FRONT
100
AcDbPolyline
 90
2
 70
0
 10
295.0
 20
-419.5
 10
320.0
 20
-419.5
  0
LWPOLYLINE
  5
1B7
330
17
100
AcDbEntity
  8
FRONT
100
AcDbPolyline
 90
2
 70
0
 10
295.0
 20
-401.5
 10
320.0
 20
-401.5
  0
DIMENSION
  5
1B8
330
17
100
AcDbEntity
  8
DIMENSIONS
100
AcDbDimension
280
0
  2
*D3
  3
Standard
 10
0.0
 20
-462.5
 30
0.0
 11
187.5
 21
-462.5
 31
0.0
 70
32
 71
5
  1
<>
100
AcDbAlignedDimension
 13
0.0
 23
-427.5
 33
0.0
 14
375.0
 24
-427.5
 34
0.0
 50
0.0
100
AcDbRotatedDimension
1001
ACAD
1000
DSTYLE
1002
{
1070
140
1040
2.5
1070
41
1040
2.5
1070
271
1070
2
1002
}
  0
DIMENSION
  5
1C8
330
17
100
AcDbEntity
  8
DIMENSIONS
100
AcDbDimension
280
0
  2
*D4
  3
Standard
 10
-35.0
 20
-427.5
 30
0.0
 11
-35.0
 21
-288.75
 31
0.0
 70
32
 71
5
  1
<>
100
AcDbAlignedDimension
 13
0.0
 23
-427.5
 33
0.0
 14
0.0
 24
-150.0
 34
0.0
 50
90.0
100
AcDbRotatedDimension
1001
ACAD
1000
DSTYLE
1002
{
1070
140
1040
2.5
1070
41
1040
2.5
1070
271
1070
2
1002
}
  0
LWPOLYLINE
  5
1D8
330
17
100
AcDbEntity
  8
RIGHT
100
AcDbPolyline
 90
2
 70
0
 10
677.1424999999999
 20
26.0
 10
677.1424999999999
 20
201.0
  0
LWPOLYLINE
  5
1D9
330
17
100
AcDbEntity
  8
RIGHT
100
AcDbPolyline
 90
2
 70
0
 10
677.1424999999999
 20
201.0
 10
742.2425
 20
201.0
  0
LWPOLYLINE
  5
1DA
330
17
100
AcDbEntity
  8
RIGHT
100
AcDbPolyline
 90
2
 70
0
 10
742.2425
 20
26.0
 10
742.2425
 20
201.0
  0
LWPOLYLINE
  5
1DB
330
17
100
AcDbEntity
  8
RIGHT
100
AcDbPolyline
 90
2
 70
0
 10
677.1424999999999
 20
26.0
 10
742.2425
 20
26.0
  0
LWPOLYLINE
  5
1DC
330
17
100
AcDbEntity
  8
RIGHT
100
AcDbPolyline
 90
2
 70
0
 10
677.1424999999999
 20
26.0
 10
677.1424999999999
 20
201.0
  0
LWPOLYLINE
  5
1DD
330
17
100
AcDbEntity
  8
RIGHT
100
AcDbPolyline
 90
2
 70
0
 10
677.1424999999999
 20
201.0
 10
742.2425
 20
201.0
  0
LWPOLYLINE
  5
1DE
330
17
100
AcDbEntity
  8
RIGHT
100
AcDbPolyline
 90
2
 70
0
 10
742.2425
 20
26.0
 10
742.2425
 20
201.0
  0
LWPOLYLINE
  5
1DF
330
17
100
AcDbEntity
  8
RIGHT
100
AcDbPolyline
 90
2
 70
0
 10
742.2425
 20
196.955
 10
742.2425
 20
30.04500000000001
  0
LWPOLYLINE
  5
1E0
330
17
100
AcDbEntity
  8
RIGHT
100
AcDbPolyline
 90
2
 70
0
 10
742.2425
 20
196.955
 10
742.2425
 20
30.04500000000001
  0
LWPOLYLINE
  5
1E1
330
17
100
AcDbEntity
  8
RIGHT
100
AcDbPolyline
 90
2
 70
0
 10
677.1424999999999
 20
26.0
 10
742.2425
 20
26.0
  0
LWPOLYLINE
  5
1E2
330
17
100
AcDbEntity
  8
RIGHT
100
AcDbPolyline
 90
2
 70
0
 10
679.6424999999999
 20
196.95499999999998
 10
742.2425
 20
196.95499999999998
  0
LWPOLYLINE
  5
1E3
330
17
100
AcDbEntity
  8
RIGHT
100
AcDbPolyline
 90
2
 70
0
 10
679.6424999999999
 20
196.95499999999998
 10
742.2425
 20
196.95499999999998
  0
LWPOLYLINE
  5
1E4
330
17
100
AcDbEntity
  8
RIGHT
100
AcDbPolyline
 90
2
 70
0
 10
679.6424999999999
 20
30.045
 10
742.2425
 20
30.045
  0
LWPOLYLINE
  5
1E5
330
17
100
AcDbEntity
  8
RIGHT
100
AcDbPolyline
 90
2
 70
0
 10
679.6424999999999
 20
30.045
 10
679.6424999999999
 20
196.95499999999998
  0
LWPOLYLINE
  5
1E6
330
17
100
AcDbEntity
  8
RIGHT
100
AcDbPolyline
 90
2
 70
0
 10
679.6424999999999
 20
30.045
 10
742.2425
 20
30.045
  0
LWPOLYLINE
  5
1E7
330
17
100
AcDbEntity
  8
RIGHT
100
AcDbPolyline
 90
2
 70
0
 10
679.6424999999999
 20
30.045
 10
679.6424999999999
 20
196.95499999999998
  0
LWPOLYLINE
  5
1E8
330
17
100
AcDbEntity
  8
RIGHT
100
AcDbPolyline
 90
2
 70
0
 10
742.2425
 20
26.0
 10
742.2425
 20
201.0
  0
LWPOLYLINE
  5
1E9
330
17
100
AcDbEntity
  8
RIGHT
100
AcDbPolyline
 90
2
 70
0
 10
742.2425
 20
201.0
 10
743.7425
 20
201.0
  0
LWPOLYLINE
  5
1EA
330
17
100
AcDbEntity
  8
RIGHT
100
AcDbPolyline
 90
2
 70
0
 10
743.7425
 20
26.0
 10
743.7425
 20
201.0
  0
LWPOLYLINE
  5
1EB
330
17
100
AcDbEntity
  8
RIGHT
100
AcDbPolyline
 90
2
 70
0
 10
742.2425
 20
26.0
 10
743.7425
 20
26.0
  0
LWPOLYLINE
  5
1EC
330
17
100
AcDbEntity
  8
RIGHT
100
AcDbPolyline
 90
2
 70
0
 10
742.2425
 20
26.0
 10
742.2425
 20
201.0
  0
LWPOLYLINE
  5
1ED
330
17
100
AcDbEntity
  8
RIGHT
100
AcDbPolyline
 90
2
 70
0
 10
742.2425
 20
201.0
 10
743.7425
 20
201.0
  0
LWPOLYLINE
  5
1EE
330
17
100
AcDbEntity
  8
RIGHT
100
AcDbPolyline
 90
2
 70
0
 10
743.7425
 20
26.0
 10
743.7425
 20
201.0
  0
LWPOLYLINE
  5
1EF
330
17
100
AcDbEntity
  8
RIGHT
100
AcDbPolyline
 90
2
 70
0
 10
742.2425
 20
26.0
 10
743.7425
 20
26.0
  0
LWPOLYLINE
  5
1F0
330
17
100
AcDbEntity
  8
RIGHT
100
AcDbPolyline
 90
2
 70
0
 10
679.6424999999999
 20
78.5
 10
679.6424999999999
 20
148.5
  0
LWPOLYLINE
  5
1F1
330
17
100
AcDbEntity
  8
RIGHT
100
AcDbPolyline
 90
2
 70
0
 10
679.6424999999999
 20
148.5
 10
679.7695
 20
148.5
  0
LWPOLYLINE
  5
1F2
330
17
100
AcDbEntity
  8
RIGHT
100
AcDbPolyline
 90
2
 70
0
 10
679.7695
 20
78.5
 10
679.7695
 20
148.5
  0
LWPOLYLINE
  5
1F3
330
17
100
AcDbEntity
  8
RIGHT
100
AcDbPolyline
 90
2
 70
0
 10
679.6424999999999
 20
78.5
 10
679.7695
 20
78.5
  0
LWPOLYLINE
  5
1F4
330
17
100
AcDbEntity
  8
RIGHT
100
AcDbPolyline
 90
2
 70
0
 10
679.6424999999999
 20
78.5
 10
679.6424999999999
 20
148.5
  0
LWPOLYLINE
  5
1F5
330
17
100
AcDbEntity
  8
RIGHT
100
AcDbPolyline
 90
2
 70
0
 10
679.6424999999999
 20
148.5
 10
679.7695
 20
148.5
  0
LWPOLYLINE
  5
1F6
330
17
100
AcDbEntity
  8
RIGHT
100
AcDbPolyline
 90
2
 70
0
 10
679.7695
 20
78.5
 10
679.7695
 20
148.5
  0
LWPOLYLINE
  5
1F7
330
17
100
AcDbEntity
  8
RIGHT
100
AcDbPolyline
 90
2
 70
0
 10
679.6424999999999
 20
78.5
 10
679.7695
 20
78.5
  0
LWPOLYLINE
  5
1F8
330
17
100
AcDbEntity
  8
RIGHT
100
AcDbPolyline
 90
2
 70
0
 10
677.0155
 20
78.5
 10
677.0155
 20
148.5
  0
LWPOLYLINE
  5
1F9
330
17
100
AcDbEntity
  8
RIGHT
100
AcDbPolyline
 90
2
 70
0
 10
677.0155
 20
148.5
 10
677.1424999999999
 20
148.5
  0
LWPOLYLINE
  5
1FA
330
17
100
AcDbEntity
  8
RIGHT
100
AcDbPolyline
 90
2
 70
0
 10
677.1424999999999
 20
78.5
 10
677.1424999999999
 20
148.5
  0
LWPOLYLINE
  5
1FB
330
17
100
AcDbEntity
  8
RIGHT
100
AcDbPolyline
 90
2
 70
0
 10
677.0155
 20
78.5
 10
677.1424999999999
 20
78.5
  0
LWPOLYLINE
  5
1FC
330
17
100
AcDbEntity
  8
RIGHT
100
AcDbPolyline
 90
2
 70
0
 10
677.0155
 20
78.5
 10
677.0155
 20
148.5
  0
LWPOLYLINE
  5
1FD
330
17
100
AcDbEntity
  8
RIGHT
100
AcDbPolyline
 90
2
 70
0
 10
677.0155
 20
148.5
 10
677.1424999999999
 20
148.5
  0
LWPOLYLINE
  5
1FE
330
17
100
AcDbEntity
  8
RIGHT
100
AcDbPolyline
 90
2
 70
0
 10
677.1424999999999
 20
78.5
 10
677.1424999999999
 20
148.5
  0
LWPOLYLINE
  5
1FF
330
17
100
AcDbEntity
  8
RIGHT
100
AcDbPolyline
 90
2
 70
0
 10
677.0155
 20
78.5
 10
677.1424999999999
 20
78.5
  0
LWPOLYLINE
  5
200
330
17
100
AcDbEntity
  8
RIGHT
100
AcDbPolyline
 90
2
 70
0
 10
679.7695
 20
53.5
 10
679.7695
 20
173.5
  0
LWPOLYLINE
  5
201
330
17
100
AcDbEntity
  8
RIGHT
100
AcDbPolyline
 90
2
 70
0
 10
679.7695
 20
173.5
 10
685.7695
 20
173.5
  0
LWPOLYLINE
  5
202
330
17
100
AcDbEntity
  8
RIGHT
100
AcDbPolyline
 90
2
 70
0
 10
685.7695
 20
53.5
 10
685.7695
 20
173.5
  0
LWPOLYLINE
  5
203
330
17
100
AcDbEntity
  8
RIGHT
100
AcDbPolyline
 90
2
 70
0
 10
679.7695
 20
53.5
 10
685.7695
 20
53.5
  0
LWPOLYLINE
  5
204
330
17
100
AcDbEntity
  8
RIGHT
100
AcDbPolyline
 90
2
 70
0
 10
679.7695
 20
53.5
 10
679.7695
 20
173.5
  0
LWPOLYLINE
  5
205
330
17
100
AcDbEntity
  8
RIGHT
100
AcDbPolyline
 90
2
 70
0
 10
679.7695
 20
173.5
 10
685.7695
 20
173.5
  0
LWPOLYLINE
  5
206
330
17
100
AcDbEntity
  8
RIGHT
100
AcDbPolyline
 90
2
 70
0
 10
685.7695
 20
53.5
 10
685.7695
 20
173.5
  0
LWPOLYLINE
  5
207
330
17
100
AcDbEntity
  8
RIGHT
100
AcDbPolyline
 90
2
 70
0
 10
679.7695
 20
53.5
 10
685.7695
 20
53.5
  0
LWPOLYLINE
  5
208
330
17
100
AcDbEntity
  8
RIGHT
100
AcDbPolyline
 90
2
 70
0
 10
661.2674999999999
 20
75.4
 10
661.2674999999999
 20
151.6
  0
LWPOLYLINE
  5
209
330
17
100
AcDbEntity
  8
RIGHT
100
AcDbPolyline
 90
2
 70
0
 10
661.2674999999999
 20
151.6
 10
677.0155
 20
151.6
  0
LWPOLYLINE
  5
20A
330
17
100
AcDbEntity
  8
RIGHT
100
AcDbPolyline
 90
2
 70
0
 10
677.0155
 20
75.4
 10
677.0155
 20
151.6
  0
LWPOLYLINE
  5
20B
330
17
100
AcDbEntity
  8
RIGHT
100
AcDbPolyline
 90
2
 70
0
 10
661.2674999999999
 20
75.4
 10
677.0155
 20
75.4
  0
LWPOLYLINE
  5
20C
330
17
100
AcDbEntity
  8
RIGHT
100
AcDbPolyline
 90
2
 70
0
 10
661.2674999999999
 20
75.4
 10
661.2674999999999
 20
151.6
  0
LWPOLYLINE
  5
20D
330
17
100
AcDbEntity
  8
RIGHT
100
AcDbPolyline
 90
2
 70
0
 10
661.2674999999999
 20
151.6
 10
677.0155
 20
151.6
  0
LWPOLYLINE
  5
20E
330
17
100
AcDbEntity
  8
RIGHT
100
AcDbPolyline
 90
2
 70
0
 10
677.0155
 20
75.4
 10
677.0155
 20
151.6
  0
LWPOLYLINE
  5
20F
330
17
100
AcDbEntity
  8
RIGHT
100
AcDbPolyline
 90
2
 70
0
 10
661.2674999999999
 20
75.4
 10
677.0155
 20
75.4
  0
LWPOLYLINE
  5
210
330
17
100
AcDbEntity
  8
RIGHT
100
AcDbPolyline
 90
2
 70
0
 10
581.2574999999999
 20
75.4
 10
581.2574999999999
 20
151.6
  0
LWPOLYLINE
  5
211
330
17
100
AcDbEntity
  8
RIGHT
100
AcDbPolyline
 90
2
 70
0
 10
581.2574999999999
 20
151.6
 10
661.2674999999999
 20
151.6
  0
LWPOLYLINE
  5
212
330
17
100
AcDbEntity
  8
RIGHT
100
AcDbPolyline
 90
2
 70
0
 10
661.2674999999999
 20
75.4
 10
661.2674999999999
 20
151.6
  0
LWPOLYLINE
  5
213
330
17
100
AcDbEntity
  8
RIGHT
100
AcDbPolyline
 90
2
 70
0
 10
581.2574999999999
 20
75.4
 10
661.2674999999999
 20
75.4
  0
LWPOLYLINE
  5
214
330
17
100
AcDbEntity
  8
RIGHT
100
AcDbPolyline
 90
2
 70
0
 10
581.2574999999999
 20
75.4
 10
581.2574999999999
 20
151.6
  0
LWPOLYLINE
  5
215
330
17
100
AcDbEntity
  8
RIGHT
100
AcDbPolyline
 90
2
 70
0
 10
581.2574999999999
 20
151.6
 10
661.2674999999999
 20
151.6
  0
LWPOLYLINE
  5
216
330
17
100
AcDbEntity
  8
RIGHT
100
AcDbPolyline
 90
2
 70
0
 10
661.2674999999999
 20
75.4
 10
661.2674999999999
 20
151.6
  0
LWPOLYLINE
  5
217
330
17
100
AcDbEntity
  8
RIGHT
100
AcDbPolyline
 90
2
 70
0
 10
581.2574999999999
 20
75.4
 10
661.2674999999999
 20
75.4
  0
LWPOLYLINE
  5
218
330
17
100
AcDbEntity
  8
RIGHT
100
AcDbPolyline
 90
16
 70
0
 10
695.7695
 20
90.0
 10
695.7695
 20
89.74063637292781
 10
695.7695
 20
89.00739181907657
 10
695.7695
 20
87.92705098312484
 10
695.7695
 20
86.68641461019703
 10
695.7695
 20
85.5
 10
695.7695
 20
84.57294901687516
 10
695.7695
 20
84.06555719779858
 10
695.7695
 20
84.06555719779858
 10
695.7695
 20
84.57294901687516
 10
695.7695
 20
85.5
 10
695.7695
 20
86.68641461019703
 10
695.7695
 20
87.92705098312484
 10
695.7695
 20
89.00739181907657
 10
695.7695
 20
89.74063637292781
 10
695.7695
 20
90.0
  0
LWPOLYLINE
  5
219
330
17
100
AcDbEntity
  8
RIGHT
100
AcDbPolyline
 90
2
 70
0
 10
685.7695
 20
90.0
 10
695.7695
 20
90.0
  0
LWPOLYLINE
  5
21A
330
17
100
AcDbEntity
  8
RIGHT
100
AcDbPolyline
 90
16
 70
0
 10
685.7695
 20
90.0
 10
685.7695
 20
89.74063637292781
 10
685.7695
 20
89.00739181907657
 10
685.7695
 20
87.92705098312484
 10
685.7695
 20
86.68641461019703
 10
685.7695
 20
85.5
 10
685.7695
 20
84.57294901687516
 10
685.7695
 20
84.06555719779858
 10
685.7695
 20
84.06555719779858
 10
685.7695
 20
84.57294901687516
 10
685.7695
 20
85.5
 10
685.7695
 20
86.68641461019703
 10
685.7695
 20
87.92705098312484
 10
685.7695
 20
89.00739181907657
 10
685.7695
 20
89.74063637292781
 10
685.7695
 20
90.0
  0
LWPOLYLINE
  5
21B
330
17
100
AcDbEntity
  8
RIGHT
100
AcDbPolyline
 90
16
 70
0
 10
695.7695
 20
88.35
 10
695.7695
 20
88.23328636781751
 10
695.7695
 20
87.90332631858446
 10
695.7695
 20
87.41717294240618
 10
695.7695
 20
86.85888657458867
 10
695.7695
 20
86.325
 10
695.7695
 20
85.90782705759382
 10
695.7695
 20
85.67950073900937
 10
695.7695
 20
85.67950073900937
 10
695.7695
 20
85.90782705759382
 10
695.7695
 20
86.325
 10
695.7695
 20
86.85888657458867
 10
695.7695
 20
87.41717294240618
 10
695.7695
 20
87.90332631858445
 10
695.7695
 20
88.23328636781751
 10
695.7695
 20
88.35
  0
LWPOLYLINE
  5
21C
330
17
100
AcDbEntity
  8
RIGHT
100
AcDbPolyline
 90
16
 70
0
 10
685.7695
 20
88.35
 10
685.7695
 20
88.23328636781751
 10
685.7695
 20
87.90332631858446
 10
685.7695
 20
87.41717294240618
 10
685.7695
 20
86.85888657458867
 10
685.7695
 20
86.325
 10
685.7695
 20
85.90782705759382
 10
685.7695
 20
85.67950073900937
 10
685.7695
 20
85.67950073900937
 10
685.7695
 20
85.90782705759382
 10
685.7695
 20
86.325
 10
685.7695
 20
86.85888657458867
 10
685.7695
 20
87.41717294240618
 10
685.7695
 20
87.90332631858445
 10
685.7695
 20
88.23328636781751
 10
685.7695
 20
88.35
  0
LWPOLYLINE
  5
21D
330
17
100
AcDbEntity
  8
RIGHT
100
AcDbPolyline
 90
2
 70
0
 10
685.7695
 20
88.35
 10
695.7695
 20
88.35
  0
LWPOLYLINE
  5
21E
330
17
100
AcDbEntity
  8
RIGHT
100
AcDbPolyline
 90
16
 70
0
 10
695.7695
 20
90.0
 10
695.7695
 20
89.74063637292781
 10
695.7695
 20
89.00739181907657
 10
695.7695
 20
87.92705098312484
 10
695.7695
 20
86.68641461019703
 10
695.7695
 20
85.5
 10
695.7695
 20
84.57294901687516
 10
695.7695
 20
84.06555719779858
 10
695.7695
 20
84.06555719779858
 10
695.7695
 20
84.57294901687516
 10
695.7695
 20
85.5
 10
695.7695
 20
86.68641461019703
 10
695.7695
 20
87.92705098312484
 10
695.7695
 20
89.00739181907657
 10
695.7695
 20
89.74063637292781
 10
695.7695
 20
90.0
  0
LWPOLYLINE
  5
21F
330
17
100
AcDbEntity
  8
RIGHT
100
AcDbPolyline
 90
2
 70
0
 10
685.7695
 20
90.0
 10
695.7695
 20
90.0
  0
LWPOLYLINE
  5
220
330
17
100
AcDbEntity
  8
RIGHT
100
AcDbPolyline
 90
16
 70
0
 10
685.7695
 20
90.0
 10
685.7695
 20
89.74063637292781
 10
685.7695
 20
89.00739181907657
 10
685.7695
 20
87.92705098312484
 10
685.7695
 20
86.68641461019703
 10
685.7695
 20
85.5
 10
685.7695
 20
84.57294901687516
 10
685.7695
 20
84.06555719779858
 10
685.7695
 20
84.06555719779858
 10
685.7695
 20
84.57294901687516
 10
685.7695
 20
85.5
 10
685.7695
 20
86.68641461019703
 10
685.7695
 20
87.92705098312484
 10
685.7695
 20
89.00739181907657
 10
685.7695
 20
89.74063637292781
 10
685.7695
 20
90.0
  0
LWPOLYLINE
  5
221
330
17
100
AcDbEntity
  8
RIGHT
100
AcDbPolyline
 90
16
 70
0
 10
695.7695
 20
88.35
 10
695.7695
 20
88.23328636781751
 10
695.7695
 20
87.90332631858446
 10
695.7695
 20
87.41717294240618
 10
695.7695
 20
86.85888657458867
 10
695.7695
 20
86.325
 10
695.7695
 20
85.90782705759382
 10
695.7695
 20
85.67950073900937
 10
695.7695
 20
85.67950073900937
 10
695.7695
 20
85.90782705759382
 10
695.7695
 20
86.325
 10
695.7695
 20
86.85888657458867
 10
695.7695
 20
87.41717294240618
 10
695.7695
 20
87.90332631858445
 10
695.7695
 20
88.23328636781751
 10
695.7695
 20
88.35
  0
LWPOLYLINE
  5
222
330
17
100
AcDbEntity
  8
RIGHT
100
AcDbPolyline
 90
16
 70
0
 10
685.7695
 20
88.35
 10
685.7695
 20
88.23328636781751
 10
685.7695
 20
87.90332631858446
 10
685.7695
 20
87.41717294240618
 10
685.7695
 20
86.85888657458867
 10
685.7695
 20
86.325
 10
685.7695
 20
85.90782705759382
 10
685.7695
 20
85.67950073900937
 10
685.7695
 20
85.67950073900937
 10
685.7695
 20
85.90782705759382
 10
685.7695
 20
86.325
 10
685.7695
 20
86.85888657458867
 10
685.7695
 20
87.41717294240618
 10
685.7695
 20
87.90332631858445
 10
685.7695
 20
88.23328636781751
 10
685.7695
 20
88.35
  0
LWPOLYLINE
  5
223
330
17
100
AcDbEntity
  8
RIGHT
100
AcDbPolyline
 90
2
 70
0
 10
685.7695
 20
88.35
 10
695.7695
 20
88.35
  0
LWPOLYLINE
  5
224
330
17
100
AcDbEntity
  8
RIGHT
100
AcDbPolyline
 90
16
 70
0
 10
695.7695
 20
139.0
 10
695.7695
 20
138.7406363729278
 10
695.7695
 20
138.0073918190766
 10
695.7695
 20
136.92705098312484
 10
695.7695
 20
135.68641461019703
 10
695.7695
 20
134.5
 10
695.7695
 20
133.57294901687516
 10
695.7695
 20
133.06555719779857
 10
695.7695
 20
133.06555719779857
 10
695.7695
 20
133.57294901687516
 10
695.7695
 20
134.5
 10
695.7695
 20
135.68641461019703
 10
695.7695
 20
136.92705098312484
 10
695.7695
 20
138.0073918190766
 10
695.7695
 20
138.7406363729278
 10
695.7695
 20
139.0
  0
LWPOLYLINE
  5
225
330
17
100
AcDbEntity
  8
RIGHT
100
AcDbPolyline
 90
2
 70
0
 10
685.7695
 20
139.0
 10
695.7695
 20
139.0
  0
LWPOLYLINE
  5
226
330
17
100
AcDbEntity
  8
RIGHT
100
AcDbPolyline
 90
16
 70
0
 10
685.7695
 20
139.0
 10
685.7695
 20
138.7406363729278
 10
685.7695
 20
138.0073918190766
 10
685.7695
 20
136.92705098312484
 10
685.7695
 20
135.68641461019703
 10
685.7695
 20
134.5
 10
685.7695
 20
133.57294901687516
 10
685.7695
 20
133.06555719779857
 10
685.7695
 20
133.06555719779857
 10
685.7695
 20
133.57294901687516
 10
685.7695
 20
134.5
 10
685.7695
 20
135.68641461019703
 10
685.7695
 20
136.92705098312484
 10
685.7695
 20
138.0073918190766
 10
685.7695
 20
138.7406363729278
 10
685.7695
 20
139.0
  0
LWPOLYLINE
  5
227
330
17
100
AcDbEntity
  8
RIGHT
100
AcDbPolyline
 90
16
 70
0
 10
695.7695
 20
137.35
 10
695.7695
 20
137.23328636781753
 10
695.7695
 20
136.90332631858445
 10
695.7695
 20
136.41717294240618
 10
695.7695
 20
135.85888657458867
 10
695.7695
 20
135.325
 10
695.7695
 20
134.9078270575938
 10
695.7695
 20
134.67950073900937
 10
695.7695
 20
134.67950073900937
 10
695.7695
 20
134.9078270575938
 10
695.7695
 20
135.325
 10
695.7695
 20
135.85888657458867
 10
695.7695
 20
136.41717294240618
 10
695.7695
 20
136.90332631858445
 10
695.7695
 20
137.23328636781753
 10
695.7695
 20
137.35
  0
LWPOLYLINE
  5
228
330
17
100
AcDbEntity
  8
RIGHT
100
AcDbPolyline
 90
16
 70
0
 10
685.7695
 20
137.35
 10
685.7695
 20
137.23328636781753
 10
685.7695
 20
136.90332631858445
 10
685.7695
 20
136.41717294240618
 10
685.7695
 20
135.85888657458867
 10
685.7695
 20
135.325
 10
685.7695
 20
134.9078270575938
 10
685.7695
 20
134.67950073900937
 10
685.7695
 20
134.67950073900937
 10
685.7695
 20
134.9078270575938
 10
685.7695
 20
135.325
 10
685.7695
 20
135.85888657458867
 10
685.7695
 20
136.41717294240618
 10
685.7695
 20
136.90332631858445
 10
685.7695
 20
137.23328636781753
 10
685.7695
 20
137.35
  0
LWPOLYLINE
  5
229
330
17
100
AcDbEntity
  8
RIGHT
100
AcDbPolyline
 90
2
 70
0
 10
685.7695
 20
137.35
 10
695.7695
 20
137.35
  0
LWPOLYLINE
  5
22A
330
17
100
AcDbEntity
  8
RIGHT
100
AcDbPolyline
 90
16
 70
0
 10
695.7695
 20
139.0
 10
695.7695
 20
138.7406363729278
 10
695.7695
 20
138.0073918190766
 10
695.7695
 20
136.92705098312484
 10
695.7695
 20
135.68641461019703
 10
695.7695
 20
134.5
 10
695.7695
 20
133.57294901687516
 10
695.7695
 20
133.06555719779857
 10
695.7695
 20
133.06555719779857
 10
695.7695
 20
133.57294901687516
 10
695.7695
 20
134.5
 10
695.7695
 20
135.68641461019703
 10
695.7695
 20
136.92705098312484
 10
695.7695
 20
138.0073918190766
 10
695.7695
 20
138.7406363729278
 10
695.7695
 20
139.0
  0
LWPOLYLINE
  5
22B
330
17
100
AcDbEntity
  8
RIGHT
100
AcDbPolyline
 90
2
 70
0
 10
685.7695
 20
139.0
 10
695.7695
 20
139.0
  0
LWPOLYLINE
  5
22C
330
17
100
AcDbEntity
  8
RIGHT
100
AcDbPolyline
 90
16
 70
0
 10
685.7695
 20
139.0
 10
685.7695
 20
138.7406363729278
 10
685.7695
 20
138.0073918190766
 10
685.7695
 20
136.92705098312484
 10
685.7695
 20
135.68641461019703
 10
685.7695
 20
134.5
 10
685.7695
 20
133.57294901687516
 10
685.7695
 20
133.06555719779857
 10
685.7695
 20
133.06555719779857
 10
685.7695
 20
133.57294901687516
 10
685.7695
 20
134.5
 10
685.7695
 20
135.68641461019703
 10
685.7695
 20
136.92705098312484
 10
685.7695
 20
138.0073918190766
 10
685.7695
 20
138.7406363729278
 10
685.7695
 20
139.0
  0
LWPOLYLINE
  5
22D
330
17
100
AcDbEntity
  8
RIGHT
100
AcDbPolyline
 90
16
 70
0
 10
695.7695
 20
137.35
 10
695.7695
 20
137.23328636781753
 10
695.7695
 20
136.90332631858445
 10
695.7695
 20
136.41717294240618
 10
695.7695
 20
135.85888657458867
 10
695.7695
 20
135.325
 10
695.7695
 20
134.9078270575938
 10
695.7695
 20
134.67950073900937
 10
695.7695
 20
134.67950073900937
 10
695.7695
 20
134.9078270575938
 10
695.7695
 20
135.325
 10
695.7695
 20
135.85888657458867
 10
695.7695
 20
136.41717294240618
 10
695.7695
 20
136.90332631858445
 10
695.7695
 20
137.23328636781753
 10
695.7695
 20
137.35
  0
LWPOLYLINE
  5
22E
330
17
100
AcDbEntity
  8
RIGHT
100
AcDbPolyline
 90
16
 70
0
 10
685.7695
 20
137.35
 10
685.7695
 20
137.23328636781753
 10
685.7695
 20
136.90332631858445
 10
685.7695
 20
136.41717294240618
 10
685.7695
 20
135.85888657458867
 10
685.7695
 20
135.325
 10
685.7695
 20
134.9078270575938
 10
685.7695
 20
134.67950073900937
 10
685.7695
 20
134.67950073900937
 10
685.7695
 20
134.9078270575938
 10
685.7695
 20
135.325
 10
685.7695
 20
135.85888657458867
 10
685.7695
 20
136.41717294240618
 10
685.7695
 20
136.90332631858445
 10
685.7695
 20
137.23328636781753
 10
685.7695
 20
137.35
  0
LWPOLYLINE
  5
22F
330
17
100
AcDbEntity
  8
RIGHT
100
AcDbPolyline
 90
2
 70
0
 10
685.7695
 20
137.35
 10
695.7695
 20
137.35
  0
LWPOLYLINE
  5
230
330
17
100
AcDbEntity
  8
RIGHT
100
AcDbPolyline
 90
2
 70
0
 10
695.7695
 20
86.5
 10
695.7695
 20
136.5
  0
LWPOLYLINE
  5
231
330
17
100
AcDbEntity
  8
RIGHT
100
AcDbPolyline
 90
2
 70
0
 10
695.7695
 20
86.5
 10
697.3695
 20
86.5
  0
LWPOLYLINE
  5
232
330
17
100
AcDbEntity
  8
RIGHT
100
AcDbPolyline
 90
2
 70
0
 10
695.7695
 20
136.5
 10
697.3695
 20
136.5
  0
LWPOLYLINE
  5
233
330
17
100
AcDbEntity
  8
RIGHT
100
AcDbPolyline
 90
2
 70
0
 10
697.3695
 20
86.5
 10
697.3695
 20
136.5
  0
LWPOLYLINE
  5
234
330
17
100
AcDbEntity
  8
RIGHT
100
AcDbPolyline
 90
16
 70
0
 10
695.7695
 20
86.5
 10
695.7695
 20
86.18641461019703
 10
695.7695
 20
85.87626492754671
 10
695.7695
 20
85.57294901687516
 10
695.7695
 20
85.2797900707726
 10
695.7695
 20
85.0
 10
695.7695
 20
84.73664424312258
 10
695.7695
 20
84.49260818092343
 10
695.7695
 20
84.27056552356783
 10
695.7695
 20
84.07294901687516
 10
695.7695
 20
83.90192378864668
 10
695.7695
 20
83.75936362707219
 10
695.7695
 20
83.64683045111454
 10
695.7695
 20
83.56555719779858
 10
695.7695
 20
83.51643431389519
 10
695.7695
 20
83.5
  0
LWPOLYLINE
  5
235
330
17
100
AcDbEntity
  8
RIGHT
100
AcDbPolyline
 90
16
 70
0
 10
695.7695
 20
86.5
 10
695.7695
 20
86.18641461019703
 10
695.7695
 20
85.87626492754671
 10
695.7695
 20
85.57294901687516
 10
695.7695
 20
85.2797900707726
 10
695.7695
 20
85.0
 10
695.7695
 20
84.73664424312258
 10
695.7695
 20
84.49260818092343
 10
695.7695
 20
84.27056552356783
 10
695.7695
 20
84.07294901687516
 10
695.7695
 20
83.90192378864668
 10
695.7695
 20
83.75936362707219
 10
695.7695
 20
83.64683045111454
 10
695.7695
 20
83.56555719779858
 10
695.7695
 20
83.51643431389519
 10
695.7695
 20
83.5
  0
LWPOLYLINE
  5
236
330
17
100
AcDbEntity
  8
RIGHT
100
AcDbPolyline
 90
2
 70
0
 10
695.7695
 20
86.5
 10
695.7695
 20
136.5
  0
LWPOLYLINE
  5
237
330
17
100
AcDbEntity
  8
RIGHT
100
AcDbPolyline
 90
16
 70
0
 10
695.7695
 20
136.5
 10
695.7695
 20
136.81358538980294
 10
695.7695
 20
137.12373507245326
 10
695.7695
 20
137.42705098312484
 10
695.7695
 20
137.7202099292274
 10
695.7695
 20
138.0
 10
695.7695
 20
138.26335575687742
 10
695.7695
 20
138.5073918190766
 10
695.7695
 20
138.72943447643217
 10
695.7695
 20
138.92705098312484
 10
695.7695
 20
139.09807621135332
 10
695.7695
 20
139.24063637292778
 10
695.7695
 20
139.35316954888546
 10
695.7695
 20
139.43444280220143
 10
695.7695
 20
139.48356568610484
 10
695.7695
 20
139.5
  0
LWPOLYLINE
  5
238
330
17
100
AcDbEntity
  8
RIGHT
100
AcDbPolyline
 90
16
 70
0
 10
695.7695
 20
136.5
 10
695.7695
 20
136.81358538980294
 10
695.7695
 20
137.12373507245326
 10
695.7695
 20
137.42705098312484
 10
695.7695
 20
137.7202099292274
 10
695.7695
 20
138.0
 10
695.7695
 20
138.26335575687742
 10
695.7695
 20
138.5073918190766
 10
695.7695
 20
138.72943447643217
 10
695.7695
 20
138.92705098312484
 10
695.7695
 20
139.09807621135332
 10
695.7695
 20
139.24063637292778
 10
695.7695
 20
139.35316954888546
 10
695.7695
 20
139.43444280220143
 10
695.7695
 20
139.48356568610484
 10
695.7695
 20
139.5
  0
LWPOLYLINE
  5
239
330
17
100
AcDbEntity
  8
RIGHT
100
AcDbPolyline
 90
16
 70
0
 10
695.7695
 20
88.35
 10
695.7695
 20
88.23328636781751
 10
695.7695
 20
87.90332631858446
 10
695.7695
 20
87.41717294240618
 10
695.7695
 20
86.85888657458867
 10
695.7695
 20
86.325
 10
695.7695
 20
85.90782705759382
 10
695.7695
 20
85.67950073900937
 10
695.7695
 20
85.67950073900937
 10
695.7695
 20
85.90782705759382
 10
695.7695
 20
86.325
 10
695.7695
 20
86.85888657458867
 10
695.7695
 20
87.41717294240618
 10
695.7695
 20
87.90332631858445
 10
695.7695
 20
88.23328636781751
 10
695.7695
 20
88.35
  0
LWPOLYLINE
  5
23A
330
17
100
AcDbEntity
  8
RIGHT
100
AcDbPolyline
 90
16
 70
0
 10
695.7695
 20
137.35
 10
695.7695
 20
137.23328636781753
 10
695.7695
 20
136.90332631858445
 10
695.7695
 20
136.41717294240618
 10
695.7695
 20
135.85888657458867
 10
695.7695
 20
135.325
 10
695.7695
 20
134.9078270575938
 10
695.7695
 20
134.67950073900937
 10
695.7695
 20
134.67950073900937
 10
695.7695
 20
134.9078270575938
 10
695.7695
 20
135.325
 10
695.7695
 20
135.85888657458867
 10
695.7695
 20
136.41717294240618
 10
695.7695
 20
136.90332631858445
 10
695.7695
 20
137.23328636781753
 10
695.7695
 20
137.35
  0
LWPOLYLINE
  5
23B
330
17
100
AcDbEntity
  8
RIGHT
100
AcDbPolyline
 90
16
 70
0
 10
695.7695
 20
88.35
 10
695.7695
 20
88.23328636781751
 10
695.7695
 20
87.90332631858446
 10
695.7695
 20
87.41717294240618
 10
695.7695
 20
86.85888657458867
 10
695.7695
 20
86.325
 10
695.7695
 20
85.90782705759382
 10
695.7695
 20
85.67950073900937
 10
695.7695
 20
85.67950073900937
 10
695.7695
 20
85.90782705759382
 10
695.7695
 20
86.325
 10
695.7695
 20
86.85888657458867
 10
695.7695
 20
87.41717294240618
 10
695.7695
 20
87.90332631858445
 10
695.7695
 20
88.23328636781751
 10
695.7695
 20
88.35
  0
LWPOLYLINE
  5
23C
330
17
100
AcDbEntity
  8
RIGHT
100
AcDbPolyline
 90
16
 70
0
 10
695.7695
 20
137.35
 10
695.7695
 20
137.23328636781753
 10
695.7695
 20
136.90332631858445
 10
695.7695
 20
136.41717294240618
 10
695.7695
 20
135.85888657458867
 10
695.7695
 20
135.325
 10
695.7695
 20
134.9078270575938
 10
695.7695
 20
134.67950073900937
 10
695.7695
 20
134.67950073900937
 10
695.7695
 20
134.9078270575938
 10
695.7695
 20
135.325
 10
695.7695
 20
135.85888657458867
 10
695.7695
 20
136.41717294240618
 10
695.7695
 20
136.90332631858445
 10
695.7695
 20
137.23328636781753
 10
695.7695
 20
137.35
  0
LWPOLYLINE
  5
23D
330
17
100
AcDbEntity
  8
RIGHT
100
AcDbPolyline
 90
2
 70
0
 10
695.7695
 20
83.5
 10
697.3695
 20
83.5
  0
LWPOLYLINE
  5
23E
330
17
100
AcDbEntity
  8
RIGHT
100
AcDbPolyline
 90
16
 70
0
 10
697.3695
 20
86.5
 10
697.3695
 20
86.18641461019703
 10
697.3695
 20
85.87626492754671
 10
697.3695
 20
85.57294901687516
 10
697.3695
 20
85.2797900707726
 10
697.3695
 20
85.0
 10
697.3695
 20
84.73664424312258
 10
697.3695
 20
84.49260818092343
 10
697.3695
 20
84.27056552356783
 10
697.3695
 20
84.07294901687516
 10
697.3695
 20
83.90192378864668
 10
697.3695
 20
83.75936362707219
 10
697.3695
 20
83.64683045111454
 10
697.3695
 20
83.56555719779858
 10
697.3695
 20
83.51643431389519
 10
697.3695
 20
83.5
  0
LWPOLYLINE
  5
23F
330
17
100
AcDbEntity
  8
RIGHT
100
AcDbPolyline
 90
2
 70
0
 10
695.7695
 20
139.5
 10
697.3695
 20
139.5
  0
LWPOLYLINE
  5
240
330
17
100
AcDbEntity
  8
RIGHT
100
AcDbPolyline
 90
16
 70
0
 10
697.3695
 20
136.5
 10
697.3695
 20
136.81358538980294
 10
697.3695
 20
137.12373507245326
 10
697.3695
 20
137.42705098312484
 10
697.3695
 20
137.7202099292274
 10
697.3695
 20
138.0
 10
697.3695
 20
138.26335575687742
 10
697.3695
 20
138.5073918190766
 10
697.3695
 20
138.72943447643217
 10
697.3695
 20
138.92705098312484
 10
697.3695
 20
139.09807621135332
 10
697.3695
 20
139.24063637292778
 10
697.3695
 20
139.35316954888546
 10
697.3695
 20
139.43444280220143
 10
697.3695
 20
139.48356568610484
 10
697.3695
 20
139.5
  0
LWPOLYLINE
  5
241
330
17
100
AcDbEntity
  8
RIGHT
100
AcDbPolyline
 90
16
 70
0
 10
697.3695
 20
86.5
 10
697.3695
 20
86.18641461019703
 10
697.3695
 20
85.87626492754671
 10
697.3695
 20
85.57294901687516
 10
697.3695
 20
85.2797900707726
 10
697.3695
 20
85.0
 10
697.3695
 20
84.73664424312258
 10
697.3695
 20
84.49260818092343
 10
697.3695
 20
84.27056552356783
 10
697.3695
 20
84.07294901687516
 10
697.3695
 20
83.90192378864668
 10
697.3695
 20
83.75936362707219
 10
697.3695
 20
83.64683045111454
 10
697.3695
 20
83.56555719779858
 10
697.3695
 20
83.51643431389519
 10
697.3695
 20
83.5
  0
LWPOLYLINE
  5
242
330
17
100
AcDbEntity
  8
RIGHT
100
AcDbPolyline
 90
2
 70
0
 10
697.3695
 20
86.5
 10
697.3695
 20
136.5
  0
LWPOLYLINE
  5
243
330
17
100
AcDbEntity
  8
RIGHT
100
AcDbPolyline
 90
16
 70
0
 10
697.3695
 20
136.5
 10
697.3695
 20
136.81358538980294
 10
697.3695
 20
137.12373507245326
 10
697.3695
 20
137.42705098312484
 10
697.3695
 20
137.7202099292274
 10
697.3695
 20
138.0
 10
697.3695
 20
138.26335575687742
 10
697.3695
 20
138.5073918190766
 10
697.3695
 20
138.72943447643217
 10
697.3695
 20
138.92705098312484
 10
697.3695
 20
139.09807621135332
 10
697.3695
 20
139.24063637292778
 10
697.3695
 20
139.35316954888546
 10
697.3695
 20
139.43444280220143
 10
697.3695
 20
139.48356568610484
 10
697.3695
 20
139.5
  0
LWPOLYLINE
  5
244
330
17
100
AcDbEntity
  8
RIGHT
100
AcDbPolyline
 90
16
 70
0
 10
697.3695
 20
88.35
 10
697.3695
 20
88.23328636781751
 10
697.3695
 20
87.90332631858446
 10
697.3695
 20
87.41717294240618
 10
697.3695
 20
86.85888657458867
 10
697.3695
 20
86.325
 10
697.3695
 20
85.90782705759382
 10
697.3695
 20
85.67950073900937
 10
697.3695
 20
85.67950073900937
 10
697.3695
 20
85.90782705759382
 10
697.3695
 20
86.325
 10
697.3695
 20
86.85888657458867
 10
697.3695
 20
87.41717294240618
 10
697.3695
 20
87.90332631858445
 10
697.3695
 20
88.23328636781751
 10
697.3695
 20
88.35
  0
LWPOLYLINE
  5
245
330
17
100
AcDbEntity
  8
RIGHT
100
AcDbPolyline
 90
16
 70
0
 10
697.3695
 20
137.35
 10
697.3695
 20
137.23328636781753
 10
697.3695
 20
136.90332631858445
 10
697.3695
 20
136.41717294240618
 10
697.3695
 20
135.85888657458867
 10
697.3695
 20
135.325
 10
697.3695
 20
134.9078270575938
 10
697.3695
 20
134.67950073900937
 10
697.3695
 20
134.67950073900937
 10
697.3695
 20
134.9078270575938
 10
697.3695
 20
135.325
 10
697.3695
 20
135.85888657458867
 10
697.3695
 20
136.41717294240618
 10
697.3695
 20
136.90332631858445
 10
697.3695
 20
137.23328636781753
 10
697.3695
 20
137.35
  0
LWPOLYLINE
  5
246
330
17
100
AcDbEntity
  8
RIGHT
100
AcDbPolyline
 90
16
 70
0
 10
697.3695
 20
88.35
 10
697.3695
 20
88.23328636781751
 10
697.3695
 20
87.90332631858446
 10
697.3695
 20
87.41717294240618
 10
697.3695
 20
86.85888657458867
 10
697.3695
 20
86.325
 10
697.3695
 20
85.90782705759382
 10
697.3695
 20
85.67950073900937
 10
697.3695
 20
85.67950073900937
 10
697.3695
 20
85.90782705759382
 10
697.3695
 20
86.325
 10
697.3695
 20
86.85888657458867
 10
697.3695
 20
87.41717294240618
 10
697.3695
 20
87.90332631858445
 10
697.3695
 20
88.23328636781751
 10
697.3695
 20
88.35
  0
LWPOLYLINE
  5
247
330
17
100
AcDbEntity
  8
RIGHT
100
AcDbPolyline
 90
16
 70
0
 10
697.3695
 20
137.35
 10
697.3695
 20
137.23328636781753
 10
697.3695
 20
136.90332631858445
 10
697.3695
 20
136.41717294240618
 10
697.3695
 20
135.85888657458867
 10
697.3695
 20
135.325
 10
697.3695
 20
134.9078270575938
 10
697.3695
 20
134.67950073900937
 10
697.3695
 20
134.67950073900937
 10
697.3695
 20
134.9078270575938
 10
697.3695
 20
135.325
 10
697.3695
 20
135.85888657458867
 10
697.3695
 20
136.41717294240618
 10
697.3695
 20
136.90332631858445
 10
697.3695
 20
137.23328636781753
 10
697.3695
 20
137.35
  0
LWPOLYLINE
  5
248
330
17
100
AcDbEntity
  8
RIGHT
100
AcDbPolyline
 90
2
 70
0
 10
695.7695
 20
83.5
 10
697.3695
 20
83.5
  0
LWPOLYLINE
  5
249
330
17
100
AcDbEntity
  8
RIGHT
100
AcDbPolyline
 90
2
 70
0
 10
695.7695
 20
86.5
 10
697.3695
 20
86.5
  0
LWPOLYLINE
  5
24A
330
17
100
AcDbEntity
  8
RIGHT
100
AcDbPolyline
 90
2
 70
0
 10
695.7695
 20
136.5
 10
697.3695
 20
136.5
  0
LWPOLYLINE
  5
24B
330
17
100
AcDbEntity
  8
RIGHT
100
AcDbPolyline
 90
2
 70
0
 10
695.7695
 20
139.5
 10
697.3695
 20
139.5
  0
LWPOLYLINE
  5
24C
330
17
100
AcDbEntity
  8
RIGHT
100
AcDbPolyline
 90
2
 70
0
 10
695.7695
 20
88.35
 10
697.3695
 20
88.35
  0
LWPOLYLINE
  5
24D
330
17
100
AcDbEntity
  8
RIGHT
100
AcDbPolyline
 90
2
 70
0
 10
695.7695
 20
137.35
 10
697.3695
 20
137.35
  0
LWPOLYLINE
  5
24E
330
17
100
AcDbEntity
  8
RIGHT
100
AcDbPolyline
 90
2
 70
0
 10
695.7695
 20
88.35
 10
697.3695
 20
88.35
  0
LWPOLYLINE
  5
24F
330
17
100
AcDbEntity
  8
RIGHT
100
AcDbPolyline
 90
2
 70
0
 10
695.7695
 20
137.35
 10
697.3695
 20
137.35
  0
LWPOLYLINE
  5
250
330
17
100
AcDbEntity
  8
RIGHT
100
AcDbPolyline
 90
2
 70
0
 10
698.3695
 20
83.5
 10
698.3695
 20
139.5
  0
LWPOLYLINE
  5
251
330
17
100
AcDbEntity
  8
RIGHT
100
AcDbPolyline
 90
2
 70
0
 10
698.3695
 20
139.5
 10
718.3695
 20
139.5
  0
LWPOLYLINE
  5
252
330
17
100
AcDbEntity
  8
RIGHT
100
AcDbPolyline
 90
2
 70
0
 10
718.3695
 20
83.5
 10
718.3695
 20
139.5
  0
LWPOLYLINE
  5
253
330
17
100
AcDbEntity
  8
RIGHT
100
AcDbPolyline
 90
2
 70
0
 10
698.3695
 20
83.5
 10
718.3695
 20
83.5
  0
LWPOLYLINE
  5
254
330
17
100
AcDbEntity
  8
RIGHT
100
AcDbPolyline
 90
2
 70
0
 10
698.3695
 20
83.5
 10
698.3695
 20
139.5
  0
LWPOLYLINE
  5
255
330
17
100
AcDbEntity
  8
RIGHT
100
AcDbPolyline
 90
2
 70
0
 10
698.3695
 20
139.5
 10
718.3695
 20
139.5
  0
LWPOLYLINE
  5
256
330
17
100
AcDbEntity
  8
RIGHT
100
AcDbPolyline
 90
2
 70
0
 10
718.3695
 20
83.5
 10
718.3695
 20
139.5
  0
LWPOLYLINE
  5
257
330
17
100
AcDbEntity
  8
RIGHT
100
AcDbPolyline
 90
2
 70
0
 10
698.3695
 20
83.5
 10
718.3695
 20
83.5
  0
LWPOLYLINE
  5
258
330
17
100
AcDbEntity
  8
RIGHT
100
AcDbPolyline
 90
2
 70
0
 10
697.1424999999999
 20
81.0
 10
697.1424999999999
 20
141.0
  0
LWPOLYLINE
  5
259
330
17
100
AcDbEntity
  8
RIGHT
100
AcDbPolyline
 90
2
 70
0
 10
697.1424999999999
 20
141.0
 10
727.1424999999999
 20
141.0
  0
LWPOLYLINE
  5
25A
330
17
100
AcDbEntity
  8
RIGHT
100
AcDbPolyline
 90
2
 70
0
 10
727.1424999999999
 20
81.0
 10
727.1424999999999
 20
141.0
  0
LWPOLYLINE
  5
25B
330
17
100
AcDbEntity
  8
RIGHT
100
AcDbPolyline
 90
2
 70
0
 10
697.1424999999999
 20
81.0
 10
727.1424999999999
 20
81.0
  0
LWPOLYLINE
  5
25C
330
17
100
AcDbEntity
  8
RIGHT
100
AcDbPolyline
 90
2
 70
0
 10
697.1424999999999
 20
81.0
 10
697.1424999999999
 20
141.0
  0
LWPOLYLINE
  5
25D
330
17
100
AcDbEntity
  8
RIGHT
100
AcDbPolyline
 90
2
 70
0
 10
697.1424999999999
 20
141.0
 10
727.1424999999999
 20
141.0
  0
LWPOLYLINE
  5
25E
330
17
100
AcDbEntity
  8
RIGHT
100
AcDbPolyline
 90
2
 70
0
 10
727.1424999999999
 20
81.0
 10
727.1424999999999
 20
141.0
  0
LWPOLYLINE
  5
25F
330
17
100
AcDbEntity
  8
RIGHT
100
AcDbPolyline
 90
2
 70
0
 10
697.1424999999999
 20
81.0
 10
727.1424999999999
 20
81.0
  0
LWPOLYLINE
  5
260
330
17
100
AcDbEntity
  8
RIGHT
100
AcDbPolyline
 90
2
 70
0
 10
525.0
 20
276.0
 10
525.0
 20
277.5
  0
LWPOLYLINE
  5
261
330
17
100
AcDbEntity
  8
RIGHT
100
AcDbPolyline
 90
2
 70
0
 10
525.0
 20
277.5
 10
800.0
 20
277.5
  0
LWPOLYLINE
  5
262
330
17
100
AcDbEntity
  8
RIGHT
100
AcDbPolyline
 90
2
 70
0
 10
800.0
 20
276.0
 10
800.0
 20
277.5
  0
LWPOLYLINE
  5
263
330
17
100
AcDbEntity
  8
RIGHT
100
AcDbPolyline
 90
2
 70
0
 10
525.0
 20
276.0
 10
800.0
 20
276.0
  0
LWPOLYLINE
  5
264
330
17
100
AcDbEntity
  8
RIGHT
100
AcDbPolyline
 90
2
 70
0
 10
525.0
 20
276.0
 10
525.0
 20
277.5
  0
LWPOLYLINE
  5
265
330
17
100
AcDbEntity
  8
RIGHT
100
AcDbPolyline
 90
2
 70
0
 10
525.0
 20
277.5
 10
800.0
 20
277.5
  0
LWPOLYLINE
  5
266
330
17
100
AcDbEntity
  8
RIGHT
100
AcDbPolyline
 90
2
 70
0
 10
800.0
 20
276.0
 10
800.0
 20
277.5
  0
LWPOLYLINE
  5
267
330
17
100
AcDbEntity
  8
RIGHT
100
AcDbPolyline
 90
2
 70
0
 10
525.0
 20
276.0
 10
800.0
 20
276.0
  0
LWPOLYLINE
  5
268
330
17
100
AcDbEntity
  8
RIGHT
100
AcDbPolyline
 90
2
 70
0
 10
651.1424999999999
 20
8.0
 10
651.1424999999999
 20
276.0
  0
LWPOLYLINE
  5
269
330
17
100
AcDbEntity
  8
RIGHT
100
AcDbPolyline
 90
2
 70
0
 10
651.1424999999999
 20
276.0
 10
663.1424999999999
 20
276.0
  0
LWPOLYLINE
  5
26A
330
17
100
AcDbEntity
  8
RIGHT
100
AcDbPolyline
 90
2
 70
0
 10
663.1424999999999
 20
8.0
 10
663.1424999999999
 20
276.0
  0
LWPOLYLINE
  5
26B
330
17
100
AcDbEntity
  8
RIGHT
100
AcDbPolyline
 90
2
 70
0
 10
651.1424999999999
 20
8.0
 10
663.1424999999999
 20
8.0
  0
LWPOLYLINE
  5
26C
330
17
100
AcDbEntity
  8
RIGHT
100
AcDbPolyline
 90
2
 70
0
 10
651.1424999999999
 20
8.0
 10
651.1424999999999
 20
276.0
  0
LWPOLYLINE
  5
26D
330
17
100
AcDbEntity
  8
RIGHT
100
AcDbPolyline
 90
2
 70
0
 10
651.1424999999999
 20
276.0
 10
663.1424999999999
 20
276.0
  0
LWPOLYLINE
  5
26E
330
17
100
AcDbEntity
  8
RIGHT
100
AcDbPolyline
 90
2
 70
0
 10
663.1424999999999
 20
8.0
 10
663.1424999999999
 20
276.0
  0
LWPOLYLINE
  5
26F
330
17
100
AcDbEntity
  8
RIGHT
100
AcDbPolyline
 90
2
 70
0
 10
651.1424999999999
 20
8.0
 10
663.1424999999999
 20
8.0
  0
LWPOLYLINE
  5
270
330
17
100
AcDbEntity
  8
RIGHT
100
AcDbPolyline
 90
2
 70
0
 10
651.1424999999999
 20
8.0
 10
651.1424999999999
 20
276.0
  0
LWPOLYLINE
  5
271
330
17
100
AcDbEntity
  8
RIGHT
100
AcDbPolyline
 90
2
 70
0
 10
651.1424999999999
 20
276.0
 10
663.1424999999999
 20
276.0
  0
LWPOLYLINE
  5
272
330
17
100
AcDbEntity
  8
RIGHT
100
AcDbPolyline
 90
2
 70
0
 10
663.1424999999999
 20
8.0
 10
663.1424999999999
 20
276.0
  0
LWPOLYLINE
  5
273
330
17
100
AcDbEntity
  8
RIGHT
100
AcDbPolyline
 90
2
 70
0
 10
651.1424999999999
 20
8.0
 10
663.1424999999999
 20
8.0
  0
LWPOLYLINE
  5
274
330
17
100
AcDbEntity
  8
RIGHT
100
AcDbPolyline
 90
2
 70
0
 10
651.1424999999999
 20
8.0
 10
651.1424999999999
 20
276.0
  0
LWPOLYLINE
  5
275
330
17
100
AcDbEntity
  8
RIGHT
100
AcDbPolyline
 90
2
 70
0
 10
651.1424999999999
 20
276.0
 10
663.1424999999999
 20
276.0
  0
LWPOLYLINE
  5
276
330
17
100
AcDbEntity
  8
RIGHT
100
AcDbPolyline
 90
2
 70
0
 10
663.1424999999999
 20
8.0
 10
663.1424999999999
 20
276.0
  0
LWPOLYLINE
  5
277
330
17
100
AcDbEntity
  8
RIGHT
100
AcDbPolyline
 90
2
 70
0
 10
651.1424999999999
 20
8.0
 10
663.1424999999999
 20
8.0
  0
LWPOLYLINE
  5
278
330
17
100
AcDbEntity
  8
RIGHT
100
AcDbPolyline
 90
2
 70
0
 10
647.1424999999999
 20
0.0
 10
647.1424999999999
 20
8.0
  0
LWPOLYLINE
  5
279
330
17
100
AcDbEntity
  8
RIGHT
100
AcDbPolyline
 90
2
 70
0
 10
647.1424999999999
 20
8.0
 10
667.1424999999999
 20
8.0
  0
LWPOLYLINE
  5
27A
330
17
100
AcDbEntity
  8
RIGHT
100
AcDbPolyline
 90
2
 70
0
 10
667.1424999999999
 20
0.0
 10
667.1424999999999
 20
8.0
  0
LWPOLYLINE
  5
27B
330
17
100
AcDbEntity
  8
RIGHT
100
AcDbPolyline
 90
2
 70
0
 10
647.1424999999999
 20
0.0
 10
667.1424999999999
 20
0.0
  0
LWPOLYLINE
  5
27C
330
17
100
AcDbEntity
  8
RIGHT
100
AcDbPolyline
 90
2
 70
0
 10
647.1424999999999
 20
0.0
 10
647.1424999999999
 20
8.0
  0
LWPOLYLINE
  5
27D
330
17
100
AcDbEntity
  8
RIGHT
100
AcDbPolyline
 90
2
 70
0
 10
647.1424999999999
 20
8.0
 10
667.1424999999999
 20
8.0
  0
LWPOLYLINE
  5
27E
330
17
100
AcDbEntity
  8
RIGHT
100
AcDbPolyline
 90
2
 70
0
 10
667.1424999999999
 20
0.0
 10
667.1424999999999
 20
8.0
  0
LWPOLYLINE
  5
27F
330
17
100
AcDbEntity
  8
RIGHT
100
AcDbPolyline
 90
2
 70
0
 10
647.1424999999999
 20
0.0
 10
667.1424999999999
 20
0.0
  0
LWPOLYLINE
  5
280
330
17
100
AcDbEntity
  8
RIGHT
100
AcDbPolyline
 90
2
 70
0
 10
647.1424999999999
 20
8.0
 10
647.1424999999999
 20
26.0
  0
LWPOLYLINE
  5
281
330
17
100
AcDbEntity
  8
RIGHT
100
AcDbPolyline
 90
2
 70
0
 10
647.1424999999999
 20
26.0
 10
717.1424999999999
 20
26.0
  0
LWPOLYLINE
  5
282
330
17
100
AcDbEntity
  8
RIGHT
100
AcDbPolyline
 90
2
 70
0
 10
717.1424999999999
 20
8.0
 10
717.1424999999999
 20
26.0
  0
LWPOLYLINE
  5
283
330
17
100
AcDbEntity
  8
RIGHT
100
AcDbPolyline
 90
2
 70
0
 10
647.1424999999999
 20
8.0
 10
717.1424999999999
 20
8.0
  0
LWPOLYLINE
  5
284
330
17
100
AcDbEntity
  8
RIGHT
100
AcDbPolyline
 90
2
 70
0
 10
647.1424999999999
 20
8.0
 10
647.1424999999999
 20
26.0
  0
LWPOLYLINE
  5
285
330
17
100
AcDbEntity
  8
RIGHT
100
AcDbPolyline
 90
2
 70
0
 10
647.1424999999999
 20
26.0
 10
717.1424999999999
 20
26.0
  0
LWPOLYLINE
  5
286
330
17
100
AcDbEntity
  8
RIGHT
100
AcDbPolyline
 90
2
 70
0
 10
717.1424999999999
 20
8.0
 10
717.1424999999999
 20
26.0
  0
LWPOLYLINE
  5
287
330
17
100
AcDbEntity
  8
RIGHT
100
AcDbPolyline
 90
2
 70
0
 10
647.1424999999999
 20
8.0
 10
717.1424999999999
 20
8.0
  0
LWPOLYLINE
  5
288
330
17
100
AcDbEntity
  8
RIGHT
100
AcDbPolyline
 90
2
 70
0
 10
647.1424999999999
 20
8.0
 10
647.1424999999999
 20
26.0
  0
LWPOLYLINE
  5
289
330
17
100
AcDbEntity
  8
RIGHT
100
AcDbPolyline
 90
2
 70
0
 10
647.1424999999999
 20
26.0
 10
717.1424999999999
 20
26.0
  0
LWPOLYLINE
  5
28A
330
17
100
AcDbEntity
  8
RIGHT
100
AcDbPolyline
 90
2
 70
0
 10
717.1424999999999
 20
8.0
 10
717.1424999999999
 20
26.0
  0
LWPOLYLINE
  5
28B
330
17
100
AcDbEntity
  8
RIGHT
100
AcDbPolyline
 90
2
 70
0
 10
647.1424999999999
 20
8.0
 10
717.1424999999999
 20
8.0
  0
LWPOLYLINE
  5
28C
330
17
100
AcDbEntity
  8
RIGHT
100
AcDbPolyline
 90
2
 70
0
 10
647.1424999999999
 20
8.0
 10
647.1424999999999
 20
26.0
  0
LWPOLYLINE
  5
28D
330
17
100
AcDbEntity
  8
RIGHT
100
AcDbPolyline
 90
2
 70
0
 10
647.1424999999999
 20
26.0
 10
717.1424999999999
 20
26.0
  0
LWPOLYLINE
  5
28E
330
17
100
AcDbEntity
  8
RIGHT
100
AcDbPolyline
 90
2
 70
0
 10
717.1424999999999
 20
8.0
 10
717.1424999999999
 20
26.0
  0
LWPOLYLINE
  5
28F
330
17
100
AcDbEntity
  8
RIGHT
100
AcDbPolyline
 90
2
 70
0
 10
647.1424999999999
 20
8.0
 10
717.1424999999999
 20
8.0
  0
DIMENSION
  5
290
330
17
100
AcDbEntity
  8
DIMENSIONS
100
AcDbDimension
280
0
  2
*D5
  3
Standard
 10
525.0
 20
-35.0
 30
0.0
 11
662.5
 21
-35.0
 31
0.0
 70
32
 71
5
  1
<>
100
AcDbAlignedDimension
 13
525.0
 23
0.0
 33
0.0
 14
800.0
 24
0.0
 34
0.0
 50
0.0
100
AcDbRotatedDimension
1001
ACAD
1000
DSTYLE
1002
{
1070
140
1040
2.5
1070
41
1040
2.5
1070
271
1070
2
1002
}
  0
DIMENSION
  5
2A0
330
17
100
AcDbEntity
  8
DIMENSIONS
100
AcDbDimension
280
0
  2
*D6
  3
Standard
 10
490.0
 20
0.0
 30
0.0
 11
490.0
 21
138.75
 31
0.0
 70
32
 71
5
  1
<>
100
AcDbAlignedDimension
 13
525.0
 23
0.0
 33
0.0
 14
525.0
 24
277.5
 34
0.0
 50
90.0
100
AcDbRotatedDimension
1001
ACAD
1000
DSTYLE
1002
{
1070
140
1040
2.5
1070
41
1040
2.5
1070
271
1070
2
1002
}
  0
TEXT
  5
2B0
330
17
100
AcDbEntity
  8
NOTES
100
AcDbText
 10
0.0
 20
-527.5
 30
0.0
 40
4.0
  1
Orthographic wireframe, XY/XZ/YZ; curved edges sampled. STEP holds exact solids; all dimension entities use mm.
100
AcDbText
  0
TEXT
  5
2B1
330
17
100
AcDbEntity
  8
NOTES
100
AcDbText
 10
0.0
 20
-536.5
 30
0.0
 40
4.0
  1
Part/source/feature schedule distinguishes verified overall envelopes from custom assumed details. No pressure parts or STL exports.
100
AcDbText
  0
TEXT
  5
2B2
330
17
100
AcDbEntity
  8
NOTES
100
AcDbText
 10
0.0
 20
-545.5
 30
0.0
 40
4.0
  1
Two physical40W panels,2S1P,668x425x25mm each,50mm edge gap. Face area0.5678m2; no wind-load or energy-yield acceptance.
100
AcDbText
  0
TEXT
  5
2B3
330
17
100
AcDbEntity
  8
NOTES
100
AcDbText
 10
0.0
 20
-554.5
 30
0.0
 40
4.0
  1
Cable R56mm at8mm diameter is a provisional6D allowance; terminal positions and cable/connector specifications remain open.
100
AcDbText
  0
TEXT
  5
2B4
330
17
100
AcDbEntity
  8
NOTES
100
AcDbText
 10
0.0
 20
-563.5
 30
0.0
 40
4.0
  1
Metal finish, galvanic isolation, mounting zones, torque, preload, thermal contact/air capture and shade heat require independent review.
100
AcDbText
  0
TEXT
  5
2B5
330
17
100
AcDbEntity
  8
NOTES
100
AcDbText
 10
0.0
 20
-572.5
 30
0.0
 40
4.0
  1
Tolerances assumed: linear +/-0.3mm, cable diameter +/-0.3mm, bend radius +/-0.5mm. Not fabrication specifications.
100
AcDbText
  0
TEXT
  5
2B6
330
17
100
AcDbEntity
  8
NOTES
100
AcDbText
 10
0.0
 20
-581.5
 30
0.0
 40
4.0
  1
Existing HW-REF-1.1 is frozen. This is NON-ADOPTED HW-CAND-2.0, not a replacement field configuration.
100
AcDbText
  0
ENDSEC
  0
SECTION
  2
OBJECTS
  0
DICTIONARY
  5
A
330
0
100
AcDbDictionary
281
1
  3
ACAD_COLOR
350
B
  3
ACAD_GROUP
350
C
  3
ACAD_LAYOUT
350
D
  3
ACAD_MATERIAL
350
E
  3
ACAD_MLEADERSTYLE
350
F
  3
ACAD_MLINESTYLE
350
10
  3
ACAD_PLOTSETTINGS
350
11
  3
ACAD_PLOTSTYLENAME
350
12
  3
ACAD_SCALELIST
350
14
  3
ACAD_TABLESTYLE
350
15
  3
ACAD_VISUALSTYLE
350
16
  3
EZDXF_META
350
2D
  0
DICTIONARY
  5
B
330
A
100
AcDbDictionary
281
1
  0
DICTIONARY
  5
C
330
A
100
AcDbDictionary
281
1
  0
DICTIONARY
  5
D
330
A
100
AcDbDictionary
281
1
  3
Model
350
1A
  3
Layout1
350
1E
  0
DICTIONARY
  5
E
330
A
100
AcDbDictionary
281
1
  3
ByBlock
350
1F
  3
ByLayer
350
20
  3
Global
350
21
  0
DICTIONARY
  5
F
330
A
100
AcDbDictionary
281
1
  3
Standard
350
2C
  0
DICTIONARY
  5
10
330
A
100
AcDbDictionary
281
1
  3
Standard
350
22
  0
DICTIONARY
  5
11
330
A
100
AcDbDictionary
281
1
  0
ACDBDICTIONARYWDFLT
  5
12
330
A
100
AcDbDictionary
281
1
  3
Normal
350
13
100
AcDbDictionaryWithDefault
340
13
  0
ACDBPLACEHOLDER
  5
13
330
12
  0
DICTIONARY
  5
14
330
A
100
AcDbDictionary
281
1
  0
DICTIONARY
  5
15
330
A
100
AcDbDictionary
281
1
  0
DICTIONARY
  5
16
330
A
100
AcDbDictionary
281
1
  0
LAYOUT
  5
1A
330
D
100
AcDbPlotSettings
  1

  4
A3
  6

 40
7.5
 41
20.0
 42
7.5
 43
20.0
 44
420.0
 45
297.0
 46
0.0
 47
0.0
 48
0.0
 49
0.0
140
0.0
141
0.0
142
1.0
143
1.0
 70
1024
 72
1
 73
0
 74
5
  7

 75
16
 76
0
 77
2
 78
300
147
1.0
148
0.0
149
0.0
100
AcDbLayout
  1
Model
 70
1
 71
0
 10
0.0
 20
0.0
 11
420.0
 21
297.0
 12
0.0
 22
0.0
 32
0.0
 14
1e+20
 24
1e+20
 34
1e+20
 15
-1e+20
 25
-1e+20
 35
-1e+20
146
0.0
 13
0.0
 23
0.0
 33
0.0
 16
1.0
 26
0.0
 36
0.0
 17
0.0
 27
1.0
 37
0.0
 76
1
330
17
  0
LAYOUT
  5
1E
330
D
100
AcDbPlotSettings
  1

  4
A3
  6

 40
7.5
 41
20.0
 42
7.5
 43
20.0
 44
420.0
 45
297.0
 46
0.0
 47
0.0
 48
0.0
 49
0.0
140
0.0
141
0.0
142
1.0
143
1.0
 70
0
 72
1
 73
0
 74
5
  7

 75
16
 76
0
 77
2
 78
300
147
1.0
148
0.0
149
0.0
100
AcDbLayout
  1
Layout1
 70
1
 71
1
 10
0.0
 20
0.0
 11
420.0
 21
297.0
 12
0.0
 22
0.0
 32
0.0
 14
1e+20
 24
1e+20
 34
1e+20
 15
-1e+20
 25
-1e+20
 35
-1e+20
146
0.0
 13
0.0
 23
0.0
 33
0.0
 16
1.0
 26
0.0
 36
0.0
 17
0.0
 27
1.0
 37
0.0
 76
1
330
1B
  0
MATERIAL
  5
1F
102
{ACAD_REACTORS
330
E
102
}
330
E
100
AcDbMaterial
  1
ByBlock
  2

 70
0
 40
1.0
 71
1
 41
1.0
 91
-1023410177
 42
1.0
 72
1
  3

 73
1
 74
1
 75
1
 44
0.5
 73
0
 45
1.0
 46
1.0
 77
1
  4

 78
1
 79
1
170
1
 48
1.0
171
1
  6

172
1
173
1
174
1
140
1.0
141
1.0
175
1
  7

176
1
177
1
178
1
143
1.0
179
1
  8

270
1
271
1
272
1
145
1.0
146
1.0
273
1
  9

274
1
275
1
276
1
 42
1.0
 72
1
  3

 73
1
 74
1
 75
1
 94
63
  0
MATERIAL
  5
20
102
{ACAD_REACTORS
330
E
102
}
330
E
100
AcDbMaterial
  1
ByLayer
  2

 70
0
 40
1.0
 71
1
 41
1.0
 91
-1023410177
 42
1.0
 72
1
  3

 73
1
 74
1
 75
1
 44
0.5
 73
0
 45
1.0
 46
1.0
 77
1
  4

 78
1
 79
1
170
1
 48
1.0
171
1
  6

172
1
173
1
174
1
140
1.0
141
1.0
175
1
  7

176
1
177
1
178
1
143
1.0
179
1
  8

270
1
271
1
272
1
145
1.0
146
1.0
273
1
  9

274
1
275
1
276
1
 42
1.0
 72
1
  3

 73
1
 74
1
 75
1
 94
63
  0
MATERIAL
  5
21
102
{ACAD_REACTORS
330
E
102
}
330
E
100
AcDbMaterial
  1
Global
  2

 70
0
 40
1.0
 71
1
 41
1.0
 91
-1023410177
 42
1.0
 72
1
  3

 73
1
 74
1
 75
1
 44
0.5
 73
0
 45
1.0
 46
1.0
 77
1
  4

 78
1
 79
1
170
1
 48
1.0
171
1
  6

172
1
173
1
174
1
140
1.0
141
1.0
175
1
  7

176
1
177
1
178
1
143
1.0
179
1
  8

270
1
271
1
272
1
145
1.0
146
1.0
273
1
  9

274
1
275
1
276
1
 42
1.0
 72
1
  3

 73
1
 74
1
 75
1
 94
63
  0
MLINESTYLE
  5
22
102
{ACAD_REACTORS
330
10
102
}
330
10
100
AcDbMlineStyle
  2
Standard
 70
0
  3

 62
256
 51
90.0
 52
90.0
 71
2
 49
0.5
 62
256
  6
BYLAYER
 49
-0.5
 62
256
  6
BYLAYER
  0
MLEADERSTYLE
  5
2C
102
{ACAD_REACTORS
330
F
102
}
330
F
100
AcDbMLeaderStyle
179
2
170
2
171
1
172
0
 90
2
 40
0.0
 41
0.0
173
1
 91
-1056964608
 92
-2
290
1
 42
2.0
291
1
 43
8.0
  3
Standard
 44
4.0
300

342
29
174
1
175
1
176
0
178
1
 93
-1056964608
 45
4.0
292
0
297
0
 46
4.0
 94
-1056964608
 47
1.0
 49
1.0
140
1.0
294
1
141
0.0
177
0
142
1.0
295
0
296
0
143
3.75
271
0
272
9
273
9
  0
DICTIONARY
  5
2D
330
A
100
AcDbDictionary
280
1
281
1
  3
CREATED_BY_EZDXF
350
2E
  3
WRITTEN_BY_EZDXF
350
2B9
  0
DICTIONARYVAR
  5
2E
330
2D
100
DictionaryVariables
280
0
  1
1.4.3 @ 2026-09-27T12:12:54.416954+00:00
  0
DICTIONARYVAR
  5
2B9
330
2D
100
DictionaryVariables
280
0
  1
1.4.3 @ 2026-09-27T12:12:54.446023+00:00
  0
ENDSEC
  0
EOF
