  0
SECTION
  2
HEADER
  9
$ACADVER
  1
AC1032
  9
$ACADMAINTVER
 90
4
  9
$DWGCODEPAGE
  3
ANSI_1252
  9
$LASTSAVEDBY
  1
ezdxf
  9
$REQUIREDVERSIONS
160
0
  9
$INSBASE
 10
0.0
 20
0.0
 30
0.0
  9
$EXTMIN
 10
1e+20
 20
1e+20
 30
1e+20
  9
$EXTMAX
 10
-1e+20
 20
-1e+20
 30
-1e+20
  9
$LIMMIN
 10
0.0
 20
0.0
  9
$LIMMAX
 10
420.0
 20
297.0
  9
$ORTHOMODE
 70
0
  9
$REGENMODE
 70
1
  9
$FILLMODE
 70
1
  9
$QTEXTMODE
 70
0
  9
$MIRRTEXT
 70
1
  9
$LTSCALE
 40
1.0
  9
$ATTMODE
 70
1
  9
$TEXTSIZE
 40
2.5
  9
$TRACEWID
 40
1.0
  9
$TEXTSTYLE
  7
Standard
  9
$CLAYER
  8
0
  9
$CELTYPE
  6
ByLayer
  9
$CECOLOR
 62
256
  9
$CELTSCALE
 40
1.0
  9
$DISPSILH
 70
0
  9
$DIMSCALE
 40
1.0
  9
$DIMASZ
 40
2.5
  9
$DIMEXO
 40
0.625
  9
$DIMDLI
 40
3.75
  9
$DIMRND
 40
0.0
  9
$DIMDLE
 40
0.0
  9
$DIMEXE
 40
1.25
  9
$DIMTP
 40
0.0
  9
$DIMTM
 40
0.0
  9
$DIMTXT
 40
2.5
  9
$DIMCEN
 40
2.5
  9
$DIMTSZ
 40
0.0
  9
$DIMTOL
 70
0
  9
$DIMLIM
 70
0
  9
$DIMTIH
 70
0
  9
$DIMTOH
 70
0
  9
$DIMSE1
 70
0
  9
$DIMSE2
 70
0
  9
$DIMTAD
 70
1
  9
$DIMZIN
 70
8
  9
$DIMBLK
  1

  9
$DIMASO
 70
1
  9
$DIMSHO
 70
1
  9
$DIMPOST
  1

  9
$DIMAPOST
  1

  9
$DIMALT
 70
0
  9
$DIMALTD
 70
3
  9
$DIMALTF
 40
0.03937007874
  9
$DIMLFAC
 40
1.0
  9
$DIMTOFL
 70
1
  9
$DIMTVP
 40
0.0
  9
$DIMTIX
 70
0
  9
$DIMSOXD
 70
0
  9
$DIMSAH
 70
0
  9
$DIMBLK1
  1

  9
$DIMBLK2
  1

  9
$DIMSTYLE
  2
ISO-25
  9
$DIMCLRD
 70
0
  9
$DIMCLRE
 70
0
  9
$DIMCLRT
 70
0
  9
$DIMTFAC
 40
1.0
  9
$DIMGAP
 40
0.625
  9
$DIMJUST
 70
0
  9
$DIMSD1
 70
0
  9
$DIMSD2
 70
0
  9
$DIMTOLJ
 70
0
  9
$DIMTZIN
 70
8
  9
$DIMALTZ
 70
0
  9
$DIMALTTZ
 70
0
  9
$DIMUPT
 70
0
  9
$DIMDEC
 70
2
  9
$DIMTDEC
 70
2
  9
$DIMALTU
 70
2
  9
$DIMALTTD
 70
3
  9
$DIMTXSTY
  7
Standard
  9
$DIMAUNIT
 70
0
  9
$DIMADEC
 70
0
  9
$DIMALTRND
 40
0.0
  9
$DIMAZIN
 70
0
  9
$DIMDSEP
 70
44
  9
$DIMATFIT
 70
3
  9
$DIMFRAC
 70
0
  9
$DIMLDRBLK
  1

  9
$DIMLUNIT
 70
2
  9
$DIMLWD
 70
-2
  9
$DIMLWE
 70
-2
  9
$DIMTMOVE
 70
0
  9
$DIMFXL
 40
1.0
  9
$DIMFXLON
 70
0
  9
$DIMJOGANG
 40
0.785398163397
  9
$DIMTFILL
 70
0
  9
$DIMTFILLCLR
 70
0
  9
$DIMARCSYM
 70
0
  9
$DIMLTYPE
  6

  9
$DIMLTEX1
  6

  9
$DIMLTEX2
  6

  9
$DIMTXTDIRECTION
 70
0
  9
$LUNITS
 70
2
  9
$LUPREC
 70
4
  9
$SKETCHINC
 40
1.0
  9
$FILLETRAD
 40
10.0
  9
$AUNITS
 70
0
  9
$AUPREC
 70
2
  9
$MENU
  1
.
  9
$ELEVATION
 40
0.0
  9
$PELEVATION
 40
0.0
  9
$THICKNESS
 40
0.0
  9
$LIMCHECK
 70
0
  9
$CHAMFERA
 40
0.0
  9
$CHAMFERB
 40
0.0
  9
$CHAMFERC
 40
0.0
  9
$CHAMFERD
 40
0.0
  9
$SKPOLY
 70
0
  9
$TDCREATE
 40
2461311.585752315
  9
$TDUCREATE
 40
2458532.153996898
  9
$TDUPDATE
 40
2461311.585752315
  9
$TDUUPDATE
 40
2458532.1544311
  9
$TDINDWG
 40
0.0
  9
$TDUSRTIMER
 40
0.0
  9
$USRTIMER
 70
1
  9
$ANGBASE
 50
0.0
  9
$ANGDIR
 70
0
  9
$PDMODE
 70
0
  9
$PDSIZE
 40
0.0
  9
$PLINEWID
 40
0.0
  9
$SPLFRAME
 70
0
  9
$SPLINETYPE
 70
6
  9
$SPLINESEGS
 70
8
  9
$HANDSEED
  5
164
  9
$SURFTAB1
 70
6
  9
$SURFTAB2
 70
6
  9
$SURFTYPE
 70
6
  9
$SURFU
 70
6
  9
$SURFV
 70
6
  9
$UCSBASE
  2

  9
$UCSNAME
  2

  9
$UCSORG
 10
0.0
 20
0.0
 30
0.0
  9
$UCSXDIR
 10
1.0
 20
0.0
 30
0.0
  9
$UCSYDIR
 10
0.0
 20
1.0
 30
0.0
  9
$UCSORTHOREF
  2

  9
$UCSORTHOVIEW
 70
0
  9
$UCSORGTOP
 10
0.0
 20
0.0
 30
0.0
  9
$UCSORGBOTTOM
 10
0.0
 20
0.0
 30
0.0
  9
$UCSORGLEFT
 10
0.0
 20
0.0
 30
0.0
  9
$UCSORGRIGHT
 10
0.0
 20
0.0
 30
0.0
  9
$UCSORGFRONT
 10
0.0
 20
0.0
 30
0.0
  9
$UCSORGBACK
 10
0.0
 20
0.0
 30
0.0
  9
$PUCSBASE
  2

  9
$PUCSNAME
  2

  9
$PUCSORG
 10
0.0
 20
0.0
 30
0.0
  9
$PUCSXDIR
 10
1.0
 20
0.0
 30
0.0
  9
$PUCSYDIR
 10
0.0
 20
1.0
 30
0.0
  9
$PUCSORTHOREF
  2

  9
$PUCSORTHOVIEW
 70
0
  9
$PUCSORGTOP
 10
0.0
 20
0.0
 30
0.0
  9
$PUCSORGBOTTOM
 10
0.0
 20
0.0
 30
0.0
  9
$PUCSORGLEFT
 10
0.0
 20
0.0
 30
0.0
  9
$PUCSORGRIGHT
 10
0.0
 20
0.0
 30
0.0
  9
$PUCSORGFRONT
 10
0.0
 20
0.0
 30
0.0
  9
$PUCSORGBACK
 10
0.0
 20
0.0
 30
0.0
  9
$USERI1
 70
0
  9
$USERI2
 70
0
  9
$USERI3
 70
0
  9
$USERI4
 70
0
  9
$USERI5
 70
0
  9
$USERR1
 40
0.0
  9
$USERR2
 40
0.0
  9
$USERR3
 40
0.0
  9
$USERR4
 40
0.0
  9
$USERR5
 40
0.0
  9
$WORLDVIEW
 70
1
  9
$SHADEDGE
 70
3
  9
$SHADEDIF
 70
70
  9
$TILEMODE
 70
1
  9
$MAXACTVP
 70
64
  9
$PINSBASE
 10
0.0
 20
0.0
 30
0.0
  9
$PLIMCHECK
 70
0
  9
$PEXTMIN
 10
1e+20
 20
1e+20
 30
1e+20
  9
$PEXTMAX
 10
-1e+20
 20
-1e+20
 30
-1e+20
  9
$PLIMMIN
 10
0.0
 20
0.0
  9
$PLIMMAX
 10
420.0
 20
297.0
  9
$UNITMODE
 70
0
  9
$VISRETAIN
 70
1
  9
$PLINEGEN
 70
0
  9
$PSLTSCALE
 70
1
  9
$TREEDEPTH
 70
3020
  9
$CMLSTYLE
  2
Standard
  9
$CMLJUST
 70
0
  9
$CMLSCALE
 40
20.0
  9
$PROXYGRAPHICS
 70
1
  9
$MEASUREMENT
 70
1
  9
$CELWEIGHT
370
-1
  9
$ENDCAPS
280
0
  9
$JOINSTYLE
280
0
  9
$LWDISPLAY
290
0
  9
$INSUNITS
 70
4
  9
$HYPERLINKBASE
  1

  9
$STYLESHEET
  1

  9
$XEDIT
290
1
  9
$CEPSNTYPE
380
0
  9
$PSTYLEMODE
290
1
  9
$FINGERPRINTGUID
  2
{53D98DFE-ED5D-4D5D-A22F-C63B36385209}
  9
$VERSIONGUID
  2
{D481C42A-C3C5-4457-843A-481071B3EE91}
  9
$EXTNAMES
290
1
  9
$PSVPSCALE
 40
0.0
  9
$OLESTARTUP
290
0
  9
$SORTENTS
280
127
  9
$INDEXCTL
280
0
  9
$HIDETEXT
280
1
  9
$XCLIPFRAME
280
1
  9
$HALOGAP
280
0
  9
$OBSCOLOR
 70
257
  9
$OBSLTYPE
280
0
  9
$INTERSECTIONDISPLAY
280
0
  9
$INTERSECTIONCOLOR
 70
257
  9
$DIMASSOC
280
2
  9
$PROJECTNAME
  1

  9
$CAMERADISPLAY
290
0
  9
$LENSLENGTH
 40
50.0
  9
$CAMERAHEIGHT
 40
0.0
  9
$STEPSPERSEC
 40
24.0
  9
$STEPSIZE
 40
100.0
  9
$3DDWFPREC
 40
2.0
  9
$PSOLWIDTH
 40
0.005
  9
$PSOLHEIGHT
 40
0.08
  9
$LOFTANG1
 40
1.570796326795
  9
$LOFTANG2
 40
1.570796326795
  9
$LOFTMAG1
 40
0.0
  9
$LOFTMAG2
 40
0.0
  9
$LOFTPARAM
 70
7
  9
$LOFTNORMALS
280
1
  9
$LATITUDE
 40
37.795
  9
$LONGITUDE
 40
-122.394
  9
$NORTHDIRECTION
 40
0.0
  9
$TIMEZONE
 70
-8000
  9
$LIGHTGLYPHDISPLAY
280
1
  9
$TILEMODELIGHTSYNCH
280
1
  9
$CMATERIAL
347
20
  9
$SOLIDHIST
280
0
  9
$SHOWHIST
280
1
  9
$DWFFRAME
280
2
  9
$DGNFRAME
280
2
  9
$REALWORLDSCALE
290
1
  9
$INTERFERECOLOR
 62
256
  9
$CSHADOW
280
0
  9
$SHADOWPLANELOCATION
 40
0.0
  0
ENDSEC
  0
SECTION
  2
CLASSES
  0
CLASS
  1
ACDBDICTIONARYWDFLT
  2
AcDbDictionaryWithDefault
  3
ObjectDBX Classes
 90
0
 91
0
280
0
281
0
  0
CLASS
  1
SUN
  2
AcDbSun
  3
SCENEOE
 90
1153
 91
0
280
0
281
0
  0
CLASS
  1
VISUALSTYLE
  2
AcDbVisualStyle
  3
ObjectDBX Classes
 90
4095
 91
0
280
0
281
0
  0
CLASS
  1
MATERIAL
  2
AcDbMaterial
  3
ObjectDBX Classes
 90
1153
 91
0
280
0
281
0
  0
CLASS
  1
SCALE
  2
AcDbScale
  3
ObjectDBX Classes
 90
1153
 91
0
280
0
281
0
  0
CLASS
  1
TABLESTYLE
  2
AcDbTableStyle
  3
ObjectDBX Classes
 90
4095
 91
0
280
0
281
0
  0
CLASS
  1
MLEADERSTYLE
  2
AcDbMLeaderStyle
  3
ACDB_MLEADERSTYLE_CLASS
 90
4095
 91
0
280
0
281
0
  0
CLASS
  1
DICTIONARYVAR
  2
AcDbDictionaryVar
  3
ObjectDBX Classes
 90
0
 91
0
280
0
281
0
  0
CLASS
  1
CELLSTYLEMAP
  2
AcDbCellStyleMap
  3
ObjectDBX Classes
 90
1152
 91
0
280
0
281
0
  0
CLASS
  1
MENTALRAYRENDERSETTINGS
  2
AcDbMentalRayRenderSettings
  3
SCENEOE
 90
1024
 91
0
280
0
281
0
  0
CLASS
  1
ACDBDETAILVIEWSTYLE
  2
AcDbDetailViewStyle
  3
ObjectDBX Classes
 90
1025
 91
0
280
0
281
0
  0
CLASS
  1
ACDBSECTIONVIEWSTYLE
  2
AcDbSectionViewStyle
  3
ObjectDBX Classes
 90
1025
 91
0
280
0
281
0
  0
CLASS
  1
RASTERVARIABLES
  2
AcDbRasterVariables
  3
ISM
 90
0
 91
0
280
0
281
0
  0
CLASS
  1
LAYOUT
  2
AcDbLayout
  3
ObjectDBX Classes
 90
0
 91
0
280
0
281
0
  0
CLASS
  1
ACDBPLACEHOLDER
  2
AcDbPlaceHolder
  3
ObjectDBX Classes
 90
0
 91
0
280
0
281
0
  0
ENDSEC
  0
SECTION
  2
TABLES
  0
TABLE
  2
VPORT
  5
8
330
0
100
AcDbSymbolTable
 70
1
  0
VPORT
  5
23
330
8
100
AcDbSymbolTableRecord
100
AcDbViewportTableRecord
  2
*Active
 70
0
 10
0.0
 20
0.0
 11
1.0
 21
1.0
 12
0.0
 22
0.0
 13
0.0
 23
0.0
 14
0.5
 24
0.5
 15
0.5
 25
0.5
 16
0.0
 26
0.0
 36
1.0
 17
0.0
 27
0.0
 37
0.0
 40
1000.0
 41
1.34
 42
50.0
 43
0.0
 44
0.0
 50
0.0
 51
0.0
 71
0
 72
1000
 73
1
 74
3
 75
0
 76
0
 77
0
 78
0
281
0
 65
0
146
0.0
  0
ENDTAB
  0
TABLE
  2
LTYPE
  5
2
330
0
100
AcDbSymbolTable
 70
3
  0
LTYPE
  5
24
330
2
100
AcDbSymbolTableRecord
100
AcDbLinetypeTableRecord
  2
ByBlock
 70
0
  3

 72
65
 73
0
 40
0.0
  0
LTYPE
  5
25
330
2
100
AcDbSymbolTableRecord
100
AcDbLinetypeTableRecord
  2
ByLayer
 70
0
  3

 72
65
 73
0
 40
0.0
  0
LTYPE
  5
26
330
2
100
AcDbSymbolTableRecord
100
AcDbLinetypeTableRecord
  2
Continuous
 70
0
  3

 72
65
 73
0
 40
0.0
  0
ENDTAB
  0
TABLE
  2
LAYER
  5
1
330
0
100
AcDbSymbolTable
 70
7
  0
LAYER
  5
27
330
1
100
AcDbSymbolTableRecord
100
AcDbLayerTableRecord
  2
0
 70
0
 62
7
  6
Continuous
370
-3
390
13
347
21
  0
LAYER
  5
28
330
1
100
AcDbSymbolTableRecord
100
AcDbLayerTableRecord
  2
Defpoints
 70
0
 62
7
  6
Continuous
290
0
370
-3
390
13
347
21
  0
LAYER
  5
2F
330
1
100
AcDbSymbolTableRecord
100
AcDbLayerTableRecord
  2
TOP
 70
0
 62
7
  6
Continuous
370
-3
390
13
347
21
  0
LAYER
  5
30
330
1
100
AcDbSymbolTableRecord
100
AcDbLayerTableRecord
  2
FRONT
 70
0
 62
7
  6
Continuous
370
-3
390
13
347
21
  0
LAYER
  5
31
330
1
100
AcDbSymbolTableRecord
100
AcDbLayerTableRecord
  2
RIGHT
 70
0
 62
7
  6
Continuous
370
-3
390
13
347
21
  0
LAYER
  5
32
330
1
100
AcDbSymbolTableRecord
100
AcDbLayerTableRecord
  2
DIMENSIONS
 70
0
 62
7
  6
Continuous
370
-3
390
13
347
21
  0
LAYER
  5
33
330
1
100
AcDbSymbolTableRecord
100
AcDbLayerTableRecord
  2
NOTES
 70
0
 62
7
  6
Continuous
370
-3
390
13
347
21
  0
ENDTAB
  0
TABLE
  2
STYLE
  5
5
330
0
100
AcDbSymbolTable
 70
1
  0
STYLE
  5
29
330
5
100
AcDbSymbolTableRecord
100
AcDbTextStyleTableRecord
  2
Standard
 70
0
 40
0.0
 41
1.0
 50
0.0
 71
0
 42
2.5
  3
txt
  4

  0
ENDTAB
  0
TABLE
  2
VIEW
  5
7
330
0
100
AcDbSymbolTable
 70
0
  0
ENDTAB
  0
TABLE
  2
UCS
  5
6
330
0
100
AcDbSymbolTable
 70
0
  0
ENDTAB
  0
TABLE
  2
APPID
  5
3
330
0
100
AcDbSymbolTable
 70
3
  0
APPID
  5
2A
330
3
100
AcDbSymbolTableRecord
100
AcDbRegAppTableRecord
  2
ACAD
 70
0
  0
APPID
  5
161
330
3
100
AcDbSymbolTableRecord
100
AcDbRegAppTableRecord
  2
HATCHBACKGROUNDCOLOR
 70
0
  0
APPID
  5
162
330
3
100
AcDbSymbolTableRecord
100
AcDbRegAppTableRecord
  2
EZDXF
 70
0
  0
ENDTAB
  0
TABLE
  2
DIMSTYLE
  5
4
330
0
100
AcDbSymbolTable
 70
1
100
AcDbDimStyleTable
  0
DIMSTYLE
105
2B
330
4
100
AcDbSymbolTableRecord
100
AcDbDimStyleTableRecord
  2
Standard
 70
0
 40
1.0
 41
2.5
 42
0.625
 43
3.75
 44
1.25
 45
0.0
 46
0.0
 47
0.0
 48
0.0
 49
2.5
140
2.5
141
2.5
142
0.0
143
0.03937007874
144
1.0
145
0.0
146
1.0
147
0.625
148
0.0
 69
0
 70
0
 71
0
 72
0
 73
0
 74
0
 75
0
 76
0
 77
1
 78
8
 79
3
170
0
171
3
172
1
173
0
174
0
175
0
176
0
177
0
178
0
179
2
271
2
272
2
273
2
274
3
275
0
276
0
277
2
278
44
279
0
280
0
281
0
282
0
283
0
284
8
285
0
286
0
288
0
289
3
290
0
371
-2
372
-2
  0
ENDTAB
  0
TABLE
  2
BLOCK_RECORD
  5
9
330
0
100
AcDbSymbolTable
 70
9
  0
BLOCK_RECORD
  5
17
330
9
100
AcDbSymbolTableRecord
100
AcDbBlockTableRecord
  2
*Model_Space
340
1A
 70
0
280
1
281
0
  0
BLOCK_RECORD
  5
1B
330
9
100
AcDbSymbolTableRecord
100
AcDbBlockTableRecord
  2
*Paper_Space
340
1E
 70
0
280
1
281
0
  0
BLOCK_RECORD
  5
6D
330
9
100
AcDbSymbolTableRecord
100
AcDbBlockTableRecord
  2
*D1
340
0
 70
0
280
1
281
0
  0
BLOCK_RECORD
  5
72
330
9
100
AcDbSymbolTableRecord
100
AcDbBlockTableRecord
  2
_CLOSEDFILLED
340
0
 70
0
280
1
281
0
  0
BLOCK_RECORD
  5
81
330
9
100
AcDbSymbolTableRecord
100
AcDbBlockTableRecord
  2
*D2
340
0
 70
0
280
1
281
0
  0
BLOCK_RECORD
  5
D6
330
9
100
AcDbSymbolTableRecord
100
AcDbBlockTableRecord
  2
*D3
340
0
 70
0
280
1
281
0
  0
BLOCK_RECORD
  5
E6
330
9
100
AcDbSymbolTableRecord
100
AcDbBlockTableRecord
  2
*D4
340
0
 70
0
280
1
281
0
  0
BLOCK_RECORD
  5
13B
330
9
100
AcDbSymbolTableRecord
100
AcDbBlockTableRecord
  2
*D5
340
0
 70
0
280
1
281
0
  0
BLOCK_RECORD
  5
14B
330
9
100
AcDbSymbolTableRecord
100
AcDbBlockTableRecord
  2
*D6
340
0
 70
0
280
1
281
0
  0
ENDTAB
  0
ENDSEC
  0
SECTION
  2
BLOCKS
  0
BLOCK
  5
18
330
17
100
AcDbEntity
  8
0
100
AcDbBlockBegin
  2
*Model_Space
 70
0
 10
0.0
 20
0.0
 30
0.0
  3
*Model_Space
  1

  0
ENDBLK
  5
19
330
17
100
AcDbEntity
  8
0
100
AcDbBlockEnd
  0
BLOCK
  5
1C
330
1B
100
AcDbEntity
  8
0
100
AcDbBlockBegin
  2
*Paper_Space
 70
0
 10
0.0
 20
0.0
 30
0.0
  3
*Paper_Space
  1

  0
ENDBLK
  5
1D
330
1B
100
AcDbEntity
  8
0
100
AcDbBlockEnd
  0
BLOCK
  5
6E
330
6D
100
AcDbEntity
  8
0
100
AcDbBlockBegin
  2
*D1
 70
1
 10
0.0
 20
0.0
 30
0.0
  3
*D1
  1

  0
LINE
  5
70
330
6D
100
AcDbEntity
  8
0
 62
7
100
AcDbLine
 10
0.0
 20
0.0
 30
0.0
 11
0.0
 21
-35.0
 31
0.0
  0
LINE
  5
71
330
6D
100
AcDbEntity
  8
0
 62
7
100
AcDbLine
 10
348.0
 20
0.0
 30
0.0
 11
348.0
 21
-35.0
 31
0.0
  0
INSERT
  5
76
330
6D
100
AcDbEntity
  8
DIMENSIONS
 62
7
100
AcDbBlockReference
  2
_CLOSEDFILLED
 10
0.0
 20
-35.0
 30
0.0
 41
2.5
 42
2.5
 50
180.0
  0
INSERT
  5
78
330
6D
100
AcDbEntity
  8
DIMENSIONS
 62
7
100
AcDbBlockReference
  2
_CLOSEDFILLED
 10
348.0
 20
-35.0
 30
0.0
 41
2.5
 42
2.5
  0
LINE
  5
7A
330
6D
100
AcDbEntity
  8
0
 62
7
100
AcDbLine
 10
2.5
 20
-35.0
 30
0.0
 11
169.98461538461538
 21
-35.0
 31
0.0
  0
LINE
  5
7B
330
6D
100
AcDbEntity
  8
0
 62
7
100
AcDbLine
 10
178.01538461538465
 20
-35.0
 30
0.0
 11
345.5
 21
-35.0
 31
0.0
  0
MTEXT
  5
7C
330
6D
100
AcDbEntity
  8
DIMENSIONS
 62
7
100
AcDbMText
 10
174.0
 20
-35.0
 30
0.0
 40
2.6769230769230767
 71
5
  1
348
  0
POINT
  5
7D
330
6D
100
AcDbEntity
  8
Defpoints
100
AcDbPoint
 10
0.0
 20
-35.0
 30
0.0
  0
POINT
  5
7E
330
6D
100
AcDbEntity
  8
Defpoints
100
AcDbPoint
 10
0.0
 20
0.0
 30
0.0
  0
POINT
  5
7F
330
6D
100
AcDbEntity
  8
Defpoints
100
AcDbPoint
 10
348.0
 20
0.0
 30
0.0
  0
ENDBLK
  5
6F
330
6D
100
AcDbEntity
  8
0
100
AcDbBlockEnd
  0
BLOCK
  5
73
330
72
100
AcDbEntity
  8
0
100
AcDbBlockBegin
  2
_CLOSEDFILLED
 70
0
 10
0.0
 20
0.0
 30
0.0
  3
_CLOSEDFILLED
  1

  0
SOLID
  5
75
330
72
100
AcDbEntity
  8
0
  6
BYBLOCK
 62
0
100
AcDbTrace
 10
-1.0
 20
0.16439898372402537
 30
0.0
 11
0.0
 21
0.0
 31
0.0
 12
-1.0
 22
-0.16439898372402537
 32
0.0
 13
-1.0
 23
-0.16439898372402537
 33
0.0
  0
ENDBLK
  5
74
330
72
100
AcDbEntity
  8
0
100
AcDbBlockEnd
  0
BLOCK
  5
82
330
81
100
AcDbEntity
  8
0
100
AcDbBlockBegin
  2
*D2
 70
1
 10
0.0
 20
0.0
 30
0.0
  3
*D2
  1

  0
LINE
  5
84
330
81
100
AcDbEntity
  8
0
 62
7
100
AcDbLine
 10
0.0
 20
0.0
 30
0.0
 11
-35.0
 21
0.0
 31
0.0
  0
LINE
  5
85
330
81
100
AcDbEntity
  8
0
 62
7
100
AcDbLine
 10
0.0
 20
348.0
 30
0.0
 11
-35.0
 21
348.0
 31
0.0
  0
INSERT
  5
86
330
81
100
AcDbEntity
  8
DIMENSIONS
 62
7
100
AcDbBlockReference
  2
_CLOSEDFILLED
 10
-35.0
 20
0.0
 30
0.0
 41
2.5
 42
2.5
 50
270.0
  0
INSERT
  5
88
330
81
100
AcDbEntity
  8
DIMENSIONS
 62
7
100
AcDbBlockReference
  2
_CLOSEDFILLED
 10
-35.0
 20
348.0
 30
0.0
 41
2.5
 42
2.5
 50
90.0
  0
LINE
  5
8A
330
81
100
AcDbEntity
  8
0
 62
7
100
AcDbLine
 10
-35.0
 20
2.5
 30
0.0
 11
-35.0
 21
169.98461538461538
 31
0.0
  0
LINE
  5
8B
330
81
100
AcDbEntity
  8
0
 62
7
100
AcDbLine
 10
-35.0
 20
178.01538461538465
 30
0.0
 11
-35.0
 21
345.5
 31
0.0
  0
MTEXT
  5
8C
330
81
100
AcDbEntity
  8
DIMENSIONS
 62
7
100
AcDbMText
 10
-35.0
 20
174.0
 30
0.0
 40
2.6769230769230767
 71
5
  1
348
 50
90.0
  0
POINT
  5
8D
330
81
100
AcDbEntity
  8
Defpoints
100
AcDbPoint
 10
-35.0
 20
0.0
 30
0.0
  0
POINT
  5
8E
330
81
100
AcDbEntity
  8
Defpoints
100
AcDbPoint
 10
0.0
 20
0.0
 30
0.0
  0
POINT
  5
8F
330
81
100
AcDbEntity
  8
Defpoints
100
AcDbPoint
 10
0.0
 20
348.0
 30
0.0
  0
ENDBLK
  5
83
330
81
100
AcDbEntity
  8
0
100
AcDbBlockEnd
  0
BLOCK
  5
D7
330
D6
100
AcDbEntity
  8
0
100
AcDbBlockBegin
  2
*D3
 70
1
 10
0.0
 20
0.0
 30
0.0
  3
*D3
  1

  0
LINE
  5
D9
330
D6
100
AcDbEntity
  8
0
 62
7
100
AcDbLine
 10
0.0
 20
-274.0
 30
0.0
 11
0.0
 21
-309.0
 31
0.0
  0
LINE
  5
DA
330
D6
100
AcDbEntity
  8
0
 62
7
100
AcDbLine
 10
348.0
 20
-274.0
 30
0.0
 11
348.0
 21
-309.0
 31
0.0
  0
INSERT
  5
DB
330
D6
100
AcDbEntity
  8
DIMENSIONS
 62
7
100
AcDbBlockReference
  2
_CLOSEDFILLED
 10
0.0
 20
-309.0
 30
0.0
 41
2.5
 42
2.5
 50
180.0
  0
INSERT
  5
DD
330
D6
100
AcDbEntity
  8
DIMENSIONS
 62
7
100
AcDbBlockReference
  2
_CLOSEDFILLED
 10
348.0
 20
-309.0
 30
0.0
 41
2.5
 42
2.5
  0
LINE
  5
DF
330
D6
100
AcDbEntity
  8
0
 62
7
100
AcDbLine
 10
2.5
 20
-309.0
 30
0.0
 11
169.9846153846154
 21
-309.0
 31
0.0
  0
LINE
  5
E0
330
D6
100
AcDbEntity
  8
0
 62
7
100
AcDbLine
 10
178.01538461538465
 20
-309.0
 30
0.0
 11
345.5
 21
-309.0
 31
0.0
  0
MTEXT
  5
E1
330
D6
100
AcDbEntity
  8
DIMENSIONS
 62
7
100
AcDbMText
 10
174.0
 20
-309.0
 30
0.0
 40
2.6769230769230767
 71
5
  1
348
  0
POINT
  5
E2
330
D6
100
AcDbEntity
  8
Defpoints
100
AcDbPoint
 10
0.0
 20
-309.0
 30
0.0
  0
POINT
  5
E3
330
D6
100
AcDbEntity
  8
Defpoints
100
AcDbPoint
 10
0.0
 20
-274.0
 30
0.0
  0
POINT
  5
E4
330
D6
100
AcDbEntity
  8
Defpoints
100
AcDbPoint
 10
348.0
 20
-274.0
 30
0.0
  0
ENDBLK
  5
D8
330
D6
100
AcDbEntity
  8
0
100
AcDbBlockEnd
  0
BLOCK
  5
E7
330
E6
100
AcDbEntity
  8
0
100
AcDbBlockBegin
  2
*D4
 70
1
 10
0.0
 20
0.0
 30
0.0
  3
*D4
  1

  0
LINE
  5
E9
330
E6
100
AcDbEntity
  8
0
 62
7
100
AcDbLine
 10
0.0
 20
-274.0
 30
0.0
 11
-35.0
 21
-274.0
 31
0.0
  0
LINE
  5
EA
330
E6
100
AcDbEntity
  8
0
 62
7
100
AcDbLine
 10
0.0
 20
-150.0
 30
0.0
 11
-35.0
 21
-150.0
 31
0.0
  0
INSERT
  5
EB
330
E6
100
AcDbEntity
  8
DIMENSIONS
 62
7
100
AcDbBlockReference
  2
_CLOSEDFILLED
 10
-35.0
 20
-274.0
 30
0.0
 41
2.5
 42
2.5
 50
270.0
  0
INSERT
  5
ED
330
E6
100
AcDbEntity
  8
DIMENSIONS
 62
7
100
AcDbBlockReference
  2
_CLOSEDFILLED
 10
-35.0
 20
-150.0
 30
0.0
 41
2.5
 42
2.5
 50
90.0
  0
LINE
  5
EF
330
E6
100
AcDbEntity
  8
0
 62
7
100
AcDbLine
 10
-35.0
 20
-271.5
 30
0.0
 11
-35.0
 21
-216.01538461538462
 31
0.0
  0
LINE
  5
F0
330
E6
100
AcDbEntity
  8
0
 62
7
100
AcDbLine
 10
-35.0
 20
-207.98461538461538
 30
0.0
 11
-35.0
 21
-152.5
 31
0.0
  0
MTEXT
  5
F1
330
E6
100
AcDbEntity
  8
DIMENSIONS
 62
7
100
AcDbMText
 10
-35.0
 20
-212.0
 30
0.0
 40
2.6769230769230767
 71
5
  1
124
 50
90.0
  0
POINT
  5
F2
330
E6
100
AcDbEntity
  8
Defpoints
100
AcDbPoint
 10
-35.0
 20
-274.0
 30
0.0
  0
POINT
  5
F3
330
E6
100
AcDbEntity
  8
Defpoints
100
AcDbPoint
 10
0.0
 20
-274.0
 30
0.0
  0
POINT
  5
F4
330
E6
100
AcDbEntity
  8
Defpoints
100
AcDbPoint
 10
0.0
 20
-150.0
 30
0.0
  0
ENDBLK
  5
E8
330
E6
100
AcDbEntity
  8
0
100
AcDbBlockEnd
  0
BLOCK
  5
13C
330
13B
100
AcDbEntity
  8
0
100
AcDbBlockBegin
  2
*D5
 70
1
 10
0.0
 20
0.0
 30
0.0
  3
*D5
  1

  0
LINE
  5
13E
330
13B
100
AcDbEntity
  8
0
 62
7
100
AcDbLine
 10
498.0
 20
0.0
 30
0.0
 11
498.0
 21
-35.0
 31
0.0
  0
LINE
  5
13F
330
13B
100
AcDbEntity
  8
0
 62
7
100
AcDbLine
 10
846.0
 20
0.0
 30
0.0
 11
846.0
 21
-35.0
 31
0.0
  0
INSERT
  5
140
330
13B
100
AcDbEntity
  8
DIMENSIONS
 62
7
100
AcDbBlockReference
  2
_CLOSEDFILLED
 10
498.0
 20
-35.0
 30
0.0
 41
2.5
 42
2.5
 50
180.0
  0
INSERT
  5
142
330
13B
100
AcDbEntity
  8
DIMENSIONS
 62
7
100
AcDbBlockReference
  2
_CLOSEDFILLED
 10
846.0
 20
-35.0
 30
0.0
 41
2.5
 42
2.5
  0
LINE
  5
144
330
13B
100
AcDbEntity
  8
0
 62
7
100
AcDbLine
 10
500.5
 20
-35.0
 30
0.0
 11
667.9846153846154
 21
-35.0
 31
0.0
  0
LINE
  5
145
330
13B
100
AcDbEntity
  8
0
 62
7
100
AcDbLine
 10
676.0153846153846
 20
-35.0
 30
0.0
 11
843.5
 21
-35.0
 31
0.0
  0
MTEXT
  5
146
330
13B
100
AcDbEntity
  8
DIMENSIONS
 62
7
100
AcDbMText
 10
672.0
 20
-35.0
 30
0.0
 40
2.6769230769230767
 71
5
  1
348
  0
POINT
  5
147
330
13B
100
AcDbEntity
  8
Defpoints
100
AcDbPoint
 10
498.0
 20
-35.0
 30
0.0
  0
POINT
  5
148
330
13B
100
AcDbEntity
  8
Defpoints
100
AcDbPoint
 10
498.0
 20
0.0
 30
0.0
  0
POINT
  5
149
330
13B
100
AcDbEntity
  8
Defpoints
100
AcDbPoint
 10
846.0
 20
0.0
 30
0.0
  0
ENDBLK
  5
13D
330
13B
100
AcDbEntity
  8
0
100
AcDbBlockEnd
  0
BLOCK
  5
14C
330
14B
100
AcDbEntity
  8
0
100
AcDbBlockBegin
  2
*D6
 70
1
 10
0.0
 20
0.0
 30
0.0
  3
*D6
  1

  0
LINE
  5
14E
330
14B
100
AcDbEntity
  8
0
 62
7
100
AcDbLine
 10
498.0
 20
0.0
 30
0.0
 11
463.0
 21
0.0
 31
0.0
  0
LINE
  5
14F
330
14B
100
AcDbEntity
  8
0
 62
7
100
AcDbLine
 10
498.0
 20
124.0
 30
0.0
 11
463.0
 21
124.0
 31
0.0
  0
INSERT
  5
150
330
14B
100
AcDbEntity
  8
DIMENSIONS
 62
7
100
AcDbBlockReference
  2
_CLOSEDFILLED
 10
463.0
 20
0.0
 30
0.0
 41
2.5
 42
2.5
 50
270.0
  0
INSERT
  5
152
330
14B
100
AcDbEntity
  8
DIMENSIONS
 62
7
100
AcDbBlockReference
  2
_CLOSEDFILLED
 10
463.0
 20
124.0
 30
0.0
 41
2.5
 42
2.5
 50
90.0
  0
LINE
  5
154
330
14B
100
AcDbEntity
  8
0
 62
7
100
AcDbLine
 10
463.0
 20
2.5
 30
0.0
 11
463.0
 21
57.98461538461539
 31
0.0
  0
LINE
  5
155
330
14B
100
AcDbEntity
  8
0
 62
7
100
AcDbLine
 10
463.0
 20
66.01538461538462
 30
0.0
 11
463.0
 21
121.5
 31
0.0
  0
MTEXT
  5
156
330
14B
100
AcDbEntity
  8
DIMENSIONS
 62
7
100
AcDbMText
 10
463.0
 20
62.0
 30
0.0
 40
2.6769230769230767
 71
5
  1
124
 50
90.0
  0
POINT
  5
157
330
14B
100
AcDbEntity
  8
Defpoints
100
AcDbPoint
 10
463.0
 20
0.0
 30
0.0
  0
POINT
  5
158
330
14B
100
AcDbEntity
  8
Defpoints
100
AcDbPoint
 10
498.0
 20
0.0
 30
0.0
  0
POINT
  5
159
330
14B
100
AcDbEntity
  8
Defpoints
100
AcDbPoint
 10
498.0
 20
124.0
 30
0.0
  0
ENDBLK
  5
14D
330
14B
100
AcDbEntity
  8
0
100
AcDbBlockEnd
  0
ENDSEC
  0
SECTION
  2
ENTITIES
  0
LWPOLYLINE
  5
34
330
17
100
AcDbEntity
  8
TOP
100
AcDbPolyline
 90
2
 70
0
 10
4.0
 20
14.0
 10
4.0
 20
34.0
  0
LWPOLYLINE
  5
35
330
17
100
AcDbEntity
  8
TOP
100
AcDbPolyline
 90
2
 70
0
 10
4.0
 20
14.0
 10
4.0
 20
34.0
  0
LWPOLYLINE
  5
36
330
17
100
AcDbEntity
  8
TOP
100
AcDbPolyline
 90
2
 70
0
 10
344.0
 20
14.0
 10
344.0
 20
34.0
  0
LWPOLYLINE
  5
37
330
17
100
AcDbEntity
  8
TOP
100
AcDbPolyline
 90
2
 70
0
 10
344.0
 20
14.0
 10
344.0
 20
34.0
  0
LWPOLYLINE
  5
38
330
17
100
AcDbEntity
  8
TOP
100
AcDbPolyline
 90
2
 70
0
 10
4.0
 20
14.0
 10
344.0
 20
14.0
  0
LWPOLYLINE
  5
39
330
17
100
AcDbEntity
  8
TOP
100
AcDbPolyline
 90
2
 70
0
 10
4.0
 20
14.0
 10
344.0
 20
14.0
  0
LWPOLYLINE
  5
3A
330
17
100
AcDbEntity
  8
TOP
100
AcDbPolyline
 90
2
 70
0
 10
4.0
 20
34.0
 10
344.0
 20
34.0
  0
LWPOLYLINE
  5
3B
330
17
100
AcDbEntity
  8
TOP
100
AcDbPolyline
 90
2
 70
0
 10
4.0
 20
34.0
 10
344.0
 20
34.0
  0
LWPOLYLINE
  5
3C
330
17
100
AcDbEntity
  8
TOP
100
AcDbPolyline
 90
2
 70
0
 10
14.0
 20
34.0
 10
14.0
 20
314.0
  0
LWPOLYLINE
  5
3D
330
17
100
AcDbEntity
  8
TOP
100
AcDbPolyline
 90
2
 70
0
 10
14.0
 20
34.0
 10
14.0
 20
314.0
  0
LWPOLYLINE
  5
3E
330
17
100
AcDbEntity
  8
TOP
100
AcDbPolyline
 90
2
 70
0
 10
34.0
 20
34.0
 10
34.0
 20
314.0
  0
LWPOLYLINE
  5
3F
330
17
100
AcDbEntity
  8
TOP
100
AcDbPolyline
 90
2
 70
0
 10
34.0
 20
34.0
 10
34.0
 20
314.0
  0
LWPOLYLINE
  5
40
330
17
100
AcDbEntity
  8
TOP
100
AcDbPolyline
 90
2
 70
0
 10
14.0
 20
34.0
 10
34.0
 20
34.0
  0
LWPOLYLINE
  5
41
330
17
100
AcDbEntity
  8
TOP
100
AcDbPolyline
 90
2
 70
0
 10
14.0
 20
34.0
 10
34.0
 20
34.0
  0
LWPOLYLINE
  5
42
330
17
100
AcDbEntity
  8
TOP
100
AcDbPolyline
 90
2
 70
0
 10
14.0
 20
314.0
 10
34.0
 20
314.0
  0
LWPOLYLINE
  5
43
330
17
100
AcDbEntity
  8
TOP
100
AcDbPolyline
 90
2
 70
0
 10
14.0
 20
314.0
 10
34.0
 20
314.0
  0
LWPOLYLINE
  5
44
330
17
100
AcDbEntity
  8
TOP
100
AcDbPolyline
 90
2
 70
0
 10
4.0
 20
314.0
 10
4.0
 20
334.0
  0
LWPOLYLINE
  5
45
330
17
100
AcDbEntity
  8
TOP
100
AcDbPolyline
 90
2
 70
0
 10
4.0
 20
314.0
 10
4.0
 20
334.0
  0
LWPOLYLINE
  5
46
330
17
100
AcDbEntity
  8
TOP
100
AcDbPolyline
 90
2
 70
0
 10
344.0
 20
314.0
 10
344.0
 20
334.0
  0
LWPOLYLINE
  5
47
330
17
100
AcDbEntity
  8
TOP
100
AcDbPolyline
 90
2
 70
0
 10
344.0
 20
314.0
 10
344.0
 20
334.0
  0
LWPOLYLINE
  5
48
330
17
100
AcDbEntity
  8
TOP
100
AcDbPolyline
 90
2
 70
0
 10
4.0
 20
314.0
 10
344.0
 20
314.0
  0
LWPOLYLINE
  5
49
330
17
100
AcDbEntity
  8
TOP
100
AcDbPolyline
 90
2
 70
0
 10
4.0
 20
314.0
 10
344.0
 20
314.0
  0
LWPOLYLINE
  5
4A
330
17
100
AcDbEntity
  8
TOP
100
AcDbPolyline
 90
2
 70
0
 10
4.0
 20
334.0
 10
344.0
 20
334.0
  0
LWPOLYLINE
  5
4B
330
17
100
AcDbEntity
  8
TOP
100
AcDbPolyline
 90
2
 70
0
 10
4.0
 20
334.0
 10
344.0
 20
334.0
  0
LWPOLYLINE
  5
4C
330
17
100
AcDbEntity
  8
TOP
100
AcDbPolyline
 90
2
 70
0
 10
314.0
 20
34.0
 10
314.0
 20
314.0
  0
LWPOLYLINE
  5
4D
330
17
100
AcDbEntity
  8
TOP
100
AcDbPolyline
 90
2
 70
0
 10
314.0
 20
34.0
 10
314.0
 20
314.0
  0
LWPOLYLINE
  5
4E
330
17
100
AcDbEntity
  8
TOP
100
AcDbPolyline
 90
2
 70
0
 10
334.0
 20
34.0
 10
334.0
 20
314.0
  0
LWPOLYLINE
  5
4F
330
17
100
AcDbEntity
  8
TOP
100
AcDbPolyline
 90
2
 70
0
 10
334.0
 20
34.0
 10
334.0
 20
314.0
  0
LWPOLYLINE
  5
50
330
17
100
AcDbEntity
  8
TOP
100
AcDbPolyline
 90
2
 70
0
 10
314.0
 20
34.0
 10
334.0
 20
34.0
  0
LWPOLYLINE
  5
51
330
17
100
AcDbEntity
  8
TOP
100
AcDbPolyline
 90
2
 70
0
 10
314.0
 20
34.0
 10
334.0
 20
34.0
  0
LWPOLYLINE
  5
52
330
17
100
AcDbEntity
  8
TOP
100
AcDbPolyline
 90
2
 70
0
 10
314.0
 20
314.0
 10
334.0
 20
314.0
  0
LWPOLYLINE
  5
53
330
17
100
AcDbEntity
  8
TOP
100
AcDbPolyline
 90
2
 70
0
 10
314.0
 20
314.0
 10
334.0
 20
314.0
  0
LWPOLYLINE
  5
54
330
17
100
AcDbEntity
  8
TOP
100
AcDbPolyline
 90
52
 70
0
 10
48.0
 20
24.0
 10
47.81809223212646
 20
26.949318975953133
 10
47.27512646484023
 20
29.853929282601058
 10
46.37933350570454
 20
32.66979998849166
 10
45.14429266285882
 20
35.35424536406424
 10
43.588725896549306
 20
37.86657195379803
 10
41.73621401329581
 20
40.168695447517365
 10
39.61483920490181
 20
42.22571799971297
 10
37.25675935105215
 20
44.006457245306876
 10
34.69772053863693
 20
45.483918992521495
 10
31.976515187511836
 20
46.63570642731065
 10
29.134393996955936
 20
47.44435962623041
 10
26.214440627119245
 20
47.89762023108082
 10
23.260918594651912
 20
47.98861727312078
 10
20.318600282911547
 20
47.71597132995022
 10
17.432088238270012
 20
47.08381543614766
 10
14.645139040975693
 20
46.10173243067888
 10
12.0
 20
44.78460969082653
 10
9.536768726897833
 20
43.152413454725746
 10
7.292785296889747
 20
41.2298861535466
 10
5.302066211383931
 20
39.046171341458574
 10
3.5947887424892713
 20
36.63437190905654
 10
2.1968334763314488
 20
34.03104827728282
 10
1.1293919897482283
 20
31.275664178713043
 10
0.40864560758635093
 20
28.409988427597682
 10
0.04552011031094594
 20
25.477461747214647
 10
0.04552011031094594
 20
22.52253825278538
 10
0.40864560758635093
 20
19.590011572402318
 10
1.1293919897482283
 20
16.724335821286957
 10
2.1968334763314203
 20
13.968951722717208
 10
3.5947887424892713
 20
11.36562809094346
 10
5.302066211383902
 20
8.953828658541454
 10
7.292785296889747
 20
6.770113846453398
 10
9.536768726897833
 20
4.847586545274254
 10
12.0
 20
3.215390309173472
 10
14.645139040975693
 20
1.8982675693211206
 10
17.432088238270012
 20
0.9161845638523403
 10
20.318600282911547
 20
0.2840286700497643
 10
23.260918594651912
 20
0.011382726879219263
 10
26.214440627119245
 20
0.1023797689191781
 10
29.134393996955907
 20
0.5556403737695632
 10
31.976515187511836
 20
1.3642935726893484
 10
34.6977205386369
 20
2.5160810074785047
 10
37.25675935105215
 20
3.9935427546931237
 10
39.61483920490181
 20
5.77428200028703
 10
41.73621401329581
 20
7.831304552482607
 10
43.588725896549334
 20
10.133428046201999
 10
45.144292662858845
 20
12.64575463593576
 10
46.37933350570454
 20
15.330200011508339
 10
47.27512646484023
 20
18.14607071739897
 10
47.818092232126446
 20
21.05068102404684
 10
48.0
 20
24.0
  0
LWPOLYLINE
  5
55
330
17
100
AcDbEntity
  8
TOP
100
AcDbPolyline
 90
52
 70
0
 10
48.0
 20
24.0
 10
47.81809223212646
 20
26.949318975953133
 10
47.27512646484023
 20
29.853929282601058
 10
46.37933350570454
 20
32.66979998849166
 10
45.14429266285882
 20
35.35424536406424
 10
43.588725896549306
 20
37.86657195379803
 10
41.73621401329581
 20
40.168695447517365
 10
39.61483920490181
 20
42.22571799971297
 10
37.25675935105215
 20
44.006457245306876
 10
34.69772053863693
 20
45.483918992521495
 10
31.976515187511836
 20
46.63570642731065
 10
29.134393996955936
 20
47.44435962623041
 10
26.214440627119245
 20
47.89762023108082
 10
23.260918594651912
 20
47.98861727312078
 10
20.318600282911547
 20
47.71597132995022
 10
17.432088238270012
 20
47.08381543614766
 10
14.645139040975693
 20
46.10173243067888
 10
12.0
 20
44.78460969082653
 10
9.536768726897833
 20
43.152413454725746
 10
7.292785296889747
 20
41.2298861535466
 10
5.302066211383931
 20
39.046171341458574
 10
3.5947887424892713
 20
36.63437190905654
 10
2.1968334763314488
 20
34.03104827728282
 10
1.1293919897482283
 20
31.275664178713043
 10
0.40864560758635093
 20
28.409988427597682
 10
0.04552011031094594
 20
25.477461747214647
 10
0.04552011031094594
 20
22.52253825278538
 10
0.40864560758635093
 20
19.590011572402318
 10
1.1293919897482283
 20
16.724335821286957
 10
2.1968334763314203
 20
13.968951722717208
 10
3.5947887424892713
 20
11.36562809094346
 10
5.302066211383902
 20
8.953828658541454
 10
7.292785296889747
 20
6.770113846453398
 10
9.536768726897833
 20
4.847586545274254
 10
12.0
 20
3.215390309173472
 10
14.645139040975693
 20
1.8982675693211206
 10
17.432088238270012
 20
0.9161845638523403
 10
20.318600282911547
 20
0.2840286700497643
 10
23.260918594651912
 20
0.011382726879219263
 10
26.214440627119245
 20
0.1023797689191781
 10
29.134393996955907
 20
0.5556403737695632
 10
31.976515187511836
 20
1.3642935726893484
 10
34.6977205386369
 20
2.5160810074785047
 10
37.25675935105215
 20
3.9935427546931237
 10
39.61483920490181
 20
5.77428200028703
 10
41.73621401329581
 20
7.831304552482607
 10
43.588725896549334
 20
10.133428046201999
 10
45.144292662858845
 20
12.64575463593576
 10
46.37933350570454
 20
15.330200011508339
 10
47.27512646484023
 20
18.14607071739897
 10
47.818092232126446
 20
21.05068102404684
 10
48.0
 20
24.0
  0
LWPOLYLINE
  5
56
330
17
100
AcDbEntity
  8
TOP
100
AcDbPolyline
 90
37
 70
0
 10
41.0
 20
24.0
 10
40.74173180120755
 20
26.952019020337815
 10
39.97477455336045
 20
29.81434243653638
 10
38.72243186433545
 20
32.5
 10
37.02275553302263
 20
34.92738936467117
 10
34.92738936467117
 20
37.02275553302263
 10
32.5
 20
38.72243186433545
 10
29.81434243653638
 20
39.97477455336045
 10
26.952019020337815
 20
40.74173180120755
 10
24.0
 20
41.0
 10
21.047980979662185
 20
40.74173180120755
 10
18.18565756346362
 20
39.97477455336045
 10
15.5
 20
38.72243186433545
 10
13.072610635328829
 20
37.02275553302263
 10
10.977244466977368
 20
34.92738936467117
 10
9.277568135664552
 20
32.5
 10
8.025225446639553
 20
29.81434243653638
 10
7.25826819879245
 20
26.952019020337815
 10
7.0
 20
24.0
 10
7.25826819879245
 20
21.047980979662185
 10
8.025225446639553
 20
18.18565756346362
 10
9.277568135664552
 20
15.5
 10
10.977244466977368
 20
13.072610635328829
 10
13.072610635328829
 20
10.977244466977368
 10
15.5
 20
9.277568135664552
 10
18.18565756346362
 20
8.025225446639553
 10
21.047980979662185
 20
7.25826819879245
 10
24.0
 20
7.0
 10
26.952019020337815
 20
7.25826819879245
 10
29.81434243653638
 20
8.025225446639553
 10
32.5
 20
9.277568135664552
 10
34.92738936467117
 20
10.977244466977368
 10
37.02275553302263
 20
13.072610635328829
 10
38.72243186433545
 20
15.5
 10
39.97477455336045
 20
18.18565756346362
 10
40.74173180120755
 20
21.047980979662185
 10
41.0
 20
24.0
  0
LWPOLYLINE
  5
57
330
17
100
AcDbEntity
  8
TOP
100
AcDbPolyline
 90
37
 70
0
 10
41.0
 20
24.0
 10
40.74173180120755
 20
26.952019020337815
 10
39.97477455336045
 20
29.81434243653638
 10
38.72243186433545
 20
32.5
 10
37.02275553302263
 20
34.92738936467117
 10
34.92738936467117
 20
37.02275553302263
 10
32.5
 20
38.72243186433545
 10
29.81434243653638
 20
39.97477455336045
 10
26.952019020337815
 20
40.74173180120755
 10
24.0
 20
41.0
 10
21.047980979662185
 20
40.74173180120755
 10
18.18565756346362
 20
39.97477455336045
 10
15.5
 20
38.72243186433545
 10
13.072610635328829
 20
37.02275553302263
 10
10.977244466977368
 20
34.92738936467117
 10
9.277568135664552
 20
32.5
 10
8.025225446639553
 20
29.81434243653638
 10
7.25826819879245
 20
26.952019020337815
 10
7.0
 20
24.0
 10
7.25826819879245
 20
21.047980979662185
 10
8.025225446639553
 20
18.18565756346362
 10
9.277568135664552
 20
15.5
 10
10.977244466977368
 20
13.072610635328829
 10
13.072610635328829
 20
10.977244466977368
 10
15.5
 20
9.277568135664552
 10
18.18565756346362
 20
8.025225446639553
 10
21.047980979662185
 20
7.25826819879245
 10
24.0
 20
7.0
 10
26.952019020337815
 20
7.25826819879245
 10
29.81434243653638
 20
8.025225446639553
 10
32.5
 20
9.277568135664552
 10
34.92738936467117
 20
10.977244466977368
 10
37.02275553302263
 20
13.072610635328829
 10
38.72243186433545
 20
15.5
 10
39.97477455336045
 20
18.18565756346362
 10
40.74173180120755
 20
21.047980979662185
 10
41.0
 20
24.0
  0
LWPOLYLINE
  5
58
330
17
100
AcDbEntity
  8
TOP
100
AcDbPolyline
 90
35
 70
0
 10
40.0
 20
24.0
 10
39.72756959494242
 20
26.93999228506513
 10
38.91955567046969
 20
29.77986665899445
 10
37.60347417167384
 20
32.42291460603769
 10
35.82414267553054
 20
34.77913029834491
 10
33.64215418206811
 20
36.76827563648382
 10
31.1318136924246
 20
38.322612661681006
 10
28.378607841153325
 20
39.38921029076511
 10
25.47629375141284
 20
39.93174682072055
 10
22.52370624858716
 20
39.93174682072055
 10
19.621392158846675
 20
39.38921029076511
 10
16.8681863075754
 20
38.322612661681006
 10
14.357845817931889
 20
36.76827563648382
 10
12.175857324469462
 20
34.77913029834491
 10
10.396525828326162
 20
32.42291460603769
 10
9.080444329530309
 20
29.77986665899445
 10
8.272430405057577
 20
26.93999228506513
 10
8.0
 20
24.0
 10
8.272430405057577
 20
21.06000771493487
 10
9.080444329530309
 20
18.22013334100555
 10
10.396525828326162
 20
15.577085393962307
 10
12.175857324469462
 20
13.22086970165509
 10
14.357845817931889
 20
11.231724363516179
 10
16.8681863075754
 20
9.677387338318994
 10
19.621392158846675
 20
8.610789709234894
 10
22.52370624858716
 20
8.068253179279452
 10
25.47629375141281
 20
8.068253179279452
 10
28.378607841153325
 20
8.610789709234894
 10
31.1318136924246
 20
9.677387338318994
 10
33.64215418206811
 20
11.23172436351615
 10
35.82414267553054
 20
13.22086970165509
 10
37.60347417167381
 20
15.577085393962307
 10
38.91955567046969
 20
18.22013334100555
 10
39.72756959494242
 20
21.06000771493487
 10
40.0
 20
24.0
  0
LWPOLYLINE
  5
59
330
17
100
AcDbEntity
  8
TOP
100
AcDbPolyline
 90
35
 70
0
 10
40.0
 20
24.0
 10
39.72756959494242
 20
26.93999228506513
 10
38.91955567046969
 20
29.77986665899445
 10
37.60347417167384
 20
32.42291460603769
 10
35.82414267553054
 20
34.77913029834491
 10
33.64215418206811
 20
36.76827563648382
 10
31.1318136924246
 20
38.322612661681006
 10
28.378607841153325
 20
39.38921029076511
 10
25.47629375141284
 20
39.93174682072055
 10
22.52370624858716
 20
39.93174682072055
 10
19.621392158846675
 20
39.38921029076511
 10
16.8681863075754
 20
38.322612661681006
 10
14.357845817931889
 20
36.76827563648382
 10
12.175857324469462
 20
34.77913029834491
 10
10.396525828326162
 20
32.42291460603769
 10
9.080444329530309
 20
29.77986665899445
 10
8.272430405057577
 20
26.93999228506513
 10
8.0
 20
24.0
 10
8.272430405057577
 20
21.06000771493487
 10
9.080444329530309
 20
18.22013334100555
 10
10.396525828326162
 20
15.577085393962307
 10
12.175857324469462
 20
13.22086970165509
 10
14.357845817931889
 20
11.231724363516179
 10
16.8681863075754
 20
9.677387338318994
 10
19.621392158846675
 20
8.610789709234894
 10
22.52370624858716
 20
8.068253179279452
 10
25.47629375141281
 20
8.068253179279452
 10
28.378607841153325
 20
8.610789709234894
 10
31.1318136924246
 20
9.677387338318994
 10
33.64215418206811
 20
11.23172436351615
 10
35.82414267553054
 20
13.22086970165509
 10
37.60347417167381
 20
15.577085393962307
 10
38.91955567046969
 20
18.22013334100555
 10
39.72756959494242
 20
21.06000771493487
 10
40.0
 20
24.0
  0
LWPOLYLINE
  5
5A
330
17
100
AcDbEntity
  8
TOP
100
AcDbPolyline
 90
52
 70
0
 10
348.0
 20
24.0
 10
347.81809223212645
 20
26.949318975953133
 10
347.27512646484024
 20
29.853929282601058
 10
346.37933350570455
 20
32.66979998849166
 10
345.1442926628588
 20
35.35424536406424
 10
343.5887258965493
 20
37.86657195379803
 10
341.7362140132958
 20
40.168695447517365
 10
339.61483920490184
 20
42.22571799971297
 10
337.25675935105215
 20
44.006457245306876
 10
334.69772053863693
 20
45.483918992521495
 10
331.97651518751184
 20
46.63570642731065
 10
329.13439399695596
 20
47.44435962623041
 10
326.21444062711925
 20
47.89762023108082
 10
323.2609185946519
 20
47.98861727312078
 10
320.3186002829116
 20
47.71597132995022
 10
317.43208823827
 20
47.08381543614766
 10
314.64513904097566
 20
46.10173243067888
 10
312.0
 20
44.78460969082653
 10
309.53676872689783
 20
43.152413454725746
 10
307.29278529688975
 20
41.2298861535466
 10
305.30206621138393
 20
39.046171341458574
 10
303.5947887424893
 20
36.63437190905654
 10
302.19683347633145
 20
34.03104827728282
 10
301.1293919897482
 20
31.275664178713043
 10
300.4086456075863
 20
28.409988427597682
 10
300.0455201103109
 20
25.477461747214647
 10
300.0455201103109
 20
22.52253825278538
 10
300.4086456075863
 20
19.590011572402318
 10
301.1293919897482
 20
16.724335821286957
 10
302.19683347633145
 20
13.968951722717208
 10
303.5947887424893
 20
11.36562809094346
 10
305.30206621138393
 20
8.953828658541454
 10
307.29278529688975
 20
6.770113846453398
 10
309.53676872689783
 20
4.847586545274254
 10
312.0
 20
3.215390309173472
 10
314.64513904097566
 20
1.8982675693211206
 10
317.43208823827
 20
0.9161845638523403
 10
320.3186002829116
 20
0.2840286700497643
 10
323.2609185946519
 20
0.011382726879219263
 10
326.21444062711925
 20
0.1023797689191781
 10
329.1343939969559
 20
0.5556403737695632
 10
331.97651518751184
 20
1.3642935726893484
 10
334.6977205386369
 20
2.5160810074785047
 10
337.25675935105215
 20
3.9935427546931237
 10
339.61483920490184
 20
5.77428200028703
 10
341.7362140132958
 20
7.831304552482607
 10
343.58872589654936
 20
10.133428046201999
 10
345.14429266285885
 20
12.64575463593576
 10
346.37933350570455
 20
15.330200011508339
 10
347.27512646484024
 20
18.14607071739897
 10
347.81809223212645
 20
21.05068102404684
 10
348.0
 20
24.0
  0
LWPOLYLINE
  5
5B
330
17
100
AcDbEntity
  8
TOP
100
AcDbPolyline
 90
52
 70
0
 10
348.0
 20
24.0
 10
347.81809223212645
 20
26.949318975953133
 10
347.27512646484024
 20
29.853929282601058
 10
346.37933350570455
 20
32.66979998849166
 10
345.1442926628588
 20
35.35424536406424
 10
343.5887258965493
 20
37.86657195379803
 10
341.7362140132958
 20
40.168695447517365
 10
339.61483920490184
 20
42.22571799971297
 10
337.25675935105215
 20
44.006457245306876
 10
334.69772053863693
 20
45.483918992521495
 10
331.97651518751184
 20
46.63570642731065
 10
329.13439399695596
 20
47.44435962623041
 10
326.21444062711925
 20
47.89762023108082
 10
323.2609185946519
 20
47.98861727312078
 10
320.3186002829116
 20
47.71597132995022
 10
317.43208823827
 20
47.08381543614766
 10
314.64513904097566
 20
46.10173243067888
 10
312.0
 20
44.78460969082653
 10
309.53676872689783
 20
43.152413454725746
 10
307.29278529688975
 20
41.2298861535466
 10
305.30206621138393
 20
39.046171341458574
 10
303.5947887424893
 20
36.63437190905654
 10
302.19683347633145
 20
34.03104827728282
 10
301.1293919897482
 20
31.275664178713043
 10
300.4086456075863
 20
28.409988427597682
 10
300.0455201103109
 20
25.477461747214647
 10
300.0455201103109
 20
22.52253825278538
 10
300.4086456075863
 20
19.590011572402318
 10
301.1293919897482
 20
16.724335821286957
 10
302.19683347633145
 20
13.968951722717208
 10
303.5947887424893
 20
11.36562809094346
 10
305.30206621138393
 20
8.953828658541454
 10
307.29278529688975
 20
6.770113846453398
 10
309.53676872689783
 20
4.847586545274254
 10
312.0
 20
3.215390309173472
 10
314.64513904097566
 20
1.8982675693211206
 10
317.43208823827
 20
0.9161845638523403
 10
320.3186002829116
 20
0.2840286700497643
 10
323.2609185946519
 20
0.011382726879219263
 10
326.21444062711925
 20
0.1023797689191781
 10
329.1343939969559
 20
0.5556403737695632
 10
331.97651518751184
 20
1.3642935726893484
 10
334.6977205386369
 20
2.5160810074785047
 10
337.25675935105215
 20
3.9935427546931237
 10
339.61483920490184
 20
5.77428200028703
 10
341.7362140132958
 20
7.831304552482607
 10
343.58872589654936
 20
10.133428046201999
 10
345.14429266285885
 20
12.64575463593576
 10
346.37933350570455
 20
15.330200011508339
 10
347.27512646484024
 20
18.14607071739897
 10
347.81809223212645
 20
21.05068102404684
 10
348.0
 20
24.0
  0
LWPOLYLINE
  5
5C
330
17
100
AcDbEntity
  8
TOP
100
AcDbPolyline
 90
37
 70
0
 10
341.0
 20
24.0
 10
340.74173180120755
 20
26.952019020337815
 10
339.9747745533605
 20
29.81434243653638
 10
338.7224318643355
 20
32.5
 10
337.02275553302263
 20
34.92738936467117
 10
334.92738936467117
 20
37.02275553302263
 10
332.5
 20
38.72243186433545
 10
329.8143424365364
 20
39.97477455336045
 10
326.95201902033784
 20
40.74173180120755
 10
324.0
 20
41.0
 10
321.04798097966216
 20
40.74173180120755
 10
318.1856575634636
 20
39.97477455336045
 10
315.5
 20
38.72243186433545
 10
313.07261063532883
 20
37.02275553302263
 10
310.97724446697737
 20
34.92738936467117
 10
309.2775681356645
 20
32.5
 10
308.0252254466395
 20
29.81434243653638
 10
307.25826819879245
 20
26.952019020337815
 10
307.0
 20
24.0
 10
307.25826819879245
 20
21.047980979662185
 10
308.0252254466395
 20
18.18565756346362
 10
309.2775681356645
 20
15.5
 10
310.97724446697737
 20
13.072610635328829
 10
313.07261063532883
 20
10.977244466977368
 10
315.5
 20
9.277568135664552
 10
318.1856575634636
 20
8.025225446639553
 10
321.04798097966216
 20
7.25826819879245
 10
324.0
 20
7.0
 10
326.95201902033784
 20
7.25826819879245
 10
329.8143424365364
 20
8.025225446639553
 10
332.5
 20
9.277568135664552
 10
334.92738936467117
 20
10.977244466977368
 10
337.02275553302263
 20
13.072610635328829
 10
338.7224318643355
 20
15.5
 10
339.9747745533605
 20
18.18565756346362
 10
340.74173180120755
 20
21.047980979662185
 10
341.0
 20
24.0
  0
LWPOLYLINE
  5
5D
330
17
100
AcDbEntity
  8
TOP
100
AcDbPolyline
 90
37
 70
0
 10
341.0
 20
24.0
 10
340.74173180120755
 20
26.952019020337815
 10
339.9747745533605
 20
29.81434243653638
 10
338.7224318643355
 20
32.5
 10
337.02275553302263
 20
34.92738936467117
 10
334.92738936467117
 20
37.02275553302263
 10
332.5
 20
38.72243186433545
 10
329.8143424365364
 20
39.97477455336045
 10
326.95201902033784
 20
40.74173180120755
 10
324.0
 20
41.0
 10
321.04798097966216
 20
40.74173180120755
 10
318.1856575634636
 20
39.97477455336045
 10
315.5
 20
38.72243186433545
 10
313.07261063532883
 20
37.02275553302263
 10
310.97724446697737
 20
34.92738936467117
 10
309.2775681356645
 20
32.5
 10
308.0252254466395
 20
29.81434243653638
 10
307.25826819879245
 20
26.952019020337815
 10
307.0
 20
24.0
 10
307.25826819879245
 20
21.047980979662185
 10
308.0252254466395
 20
18.18565756346362
 10
309.2775681356645
 20
15.5
 10
310.97724446697737
 20
13.072610635328829
 10
313.07261063532883
 20
10.977244466977368
 10
315.5
 20
9.277568135664552
 10
318.1856575634636
 20
8.025225446639553
 10
321.04798097966216
 20
7.25826819879245
 10
324.0
 20
7.0
 10
326.95201902033784
 20
7.25826819879245
 10
329.8143424365364
 20
8.025225446639553
 10
332.5
 20
9.277568135664552
 10
334.92738936467117
 20
10.977244466977368
 10
337.02275553302263
 20
13.072610635328829
 10
338.7224318643355
 20
15.5
 10
339.9747745533605
 20
18.18565756346362
 10
340.74173180120755
 20
21.047980979662185
 10
341.0
 20
24.0
  0
LWPOLYLINE
  5
5E
330
17
100
AcDbEntity
  8
TOP
100
AcDbPolyline
 90
35
 70
0
 10
340.0
 20
24.0
 10
339.72756959494245
 20
26.93999228506513
 10
338.91955567046966
 20
29.77986665899445
 10
337.60347417167384
 20
32.42291460603769
 10
335.82414267553054
 20
34.77913029834491
 10
333.6421541820681
 20
36.76827563648382
 10
331.1318136924246
 20
38.322612661681006
 10
328.3786078411533
 20
39.38921029076511
 10
325.47629375141287
 20
39.93174682072055
 10
322.52370624858713
 20
39.93174682072055
 10
319.6213921588467
 20
39.38921029076511
 10
316.8681863075754
 20
38.322612661681006
 10
314.3578458179319
 20
36.76827563648382
 10
312.17585732446946
 20
34.77913029834491
 10
310.39652582832616
 20
32.42291460603769
 10
309.08044432953034
 20
29.77986665899445
 10
308.27243040505755
 20
26.93999228506513
 10
308.0
 20
24.0
 10
308.27243040505755
 20
21.06000771493487
 10
309.08044432953034
 20
18.22013334100555
 10
310.39652582832616
 20
15.577085393962307
 10
312.17585732446946
 20
13.22086970165509
 10
314.3578458179319
 20
11.231724363516179
 10
316.8681863075754
 20
9.677387338318994
 10
319.6213921588467
 20
8.610789709234894
 10
322.52370624858713
 20
8.068253179279452
 10
325.4762937514128
 20
8.068253179279452
 10
328.3786078411533
 20
8.610789709234894
 10
331.1318136924246
 20
9.677387338318994
 10
333.6421541820681
 20
11.23172436351615
 10
335.82414267553054
 20
13.22086970165509
 10
337.60347417167384
 20
15.577085393962307
 10
338.91955567046966
 20
18.22013334100555
 10
339.72756959494245
 20
21.06000771493487
 10
340.0
 20
24.0
  0
LWPOLYLINE
  5
5F
330
17
100
AcDbEntity
  8
TOP
100
AcDbPolyline
 90
35
 70
0
 10
340.0
 20
24.0
 10
339.72756959494245
 20
26.93999228506513
 10
338.91955567046966
 20
29.77986665899445
 10
337.60347417167384
 20
32.42291460603769
 10
335.82414267553054
 20
34.77913029834491
 10
333.6421541820681
 20
36.76827563648382
 10
331.1318136924246
 20
38.322612661681006
 10
328.3786078411533
 20
39.38921029076511
 10
325.47629375141287
 20
39.93174682072055
 10
322.52370624858713
 20
39.93174682072055
 10
319.6213921588467
 20
39.38921029076511
 10
316.8681863075754
 20
38.322612661681006
 10
314.3578458179319
 20
36.76827563648382
 10
312.17585732446946
 20
34.77913029834491
 10
310.39652582832616
 20
32.42291460603769
 10
309.08044432953034
 20
29.77986665899445
 10
308.27243040505755
 20
26.93999228506513
 10
308.0
 20
24.0
 10
308.27243040505755
 20
21.06000771493487
 10
309.08044432953034
 20
18.22013334100555
 10
310.39652582832616
 20
15.577085393962307
 10
312.17585732446946
 20
13.22086970165509
 10
314.3578458179319
 20
11.231724363516179
 10
316.8681863075754
 20
9.677387338318994
 10
319.6213921588467
 20
8.610789709234894
 10
322.52370624858713
 20
8.068253179279452
 10
325.4762937514128
 20
8.068253179279452
 10
328.3786078411533
 20
8.610789709234894
 10
331.1318136924246
 20
9.677387338318994
 10
333.6421541820681
 20
11.23172436351615
 10
335.82414267553054
 20
13.22086970165509
 10
337.60347417167384
 20
15.577085393962307
 10
338.91955567046966
 20
18.22013334100555
 10
339.72756959494245
 20
21.06000771493487
 10
340.0
 20
24.0
  0
LWPOLYLINE
  5
60
330
17
100
AcDbEntity
  8
TOP
100
AcDbPolyline
 90
52
 70
0
 10
348.0
 20
324.0
 10
347.81809223212645
 20
326.94931897595313
 10
347.27512646484024
 20
329.85392928260103
 10
346.37933350570455
 20
332.66979998849166
 10
345.1442926628588
 20
335.35424536406424
 10
343.5887258965493
 20
337.86657195379803
 10
341.7362140132958
 20
340.1686954475174
 10
339.61483920490184
 20
342.22571799971297
 10
337.25675935105215
 20
344.0064572453069
 10
334.69772053863693
 20
345.48391899252147
 10
331.97651518751184
 20
346.63570642731065
 10
329.13439399695596
 20
347.4443596262304
 10
326.21444062711925
 20
347.89762023108085
 10
323.2609185946519
 20
347.9886172731208
 10
320.3186002829116
 20
347.7159713299502
 10
317.43208823827
 20
347.0838154361477
 10
314.64513904097566
 20
346.1017324306789
 10
312.0
 20
344.7846096908265
 10
309.53676872689783
 20
343.1524134547258
 10
307.29278529688975
 20
341.2298861535466
 10
305.30206621138393
 20
339.0461713414586
 10
303.5947887424893
 20
336.63437190905654
 10
302.19683347633145
 20
334.0310482772828
 10
301.1293919897482
 20
331.27566417871304
 10
300.4086456075863
 20
328.4099884275977
 10
300.0455201103109
 20
325.47746174721465
 10
300.0455201103109
 20
322.52253825278535
 10
300.4086456075863
 20
319.5900115724023
 10
301.1293919897482
 20
316.72433582128696
 10
302.19683347633145
 20
313.9689517227172
 10
303.5947887424893
 20
311.36562809094346
 10
305.30206621138393
 20
308.95382865854145
 10
307.29278529688975
 20
306.7701138464534
 10
309.53676872689783
 20
304.8475865452742
 10
312.0
 20
303.2153903091735
 10
314.64513904097566
 20
301.8982675693211
 10
317.43208823827
 20
300.9161845638523
 10
320.3186002829116
 20
300.2840286700498
 10
323.2609185946519
 20
300.0113827268792
 10
326.21444062711925
 20
300.10237976891915
 10
329.1343939969559
 20
300.55564037376956
 10
331.97651518751184
 20
301.36429357268935
 10
334.6977205386369
 20
302.51608100747853
 10
337.25675935105215
 20
303.9935427546931
 10
339.61483920490184
 20
305.77428200028703
 10
341.7362140132958
 20
307.8313045524826
 10
343.58872589654936
 20
310.13342804620197
 10
345.14429266285885
 20
312.64575463593576
 10
346.37933350570455
 20
315.33020001150834
 10
347.27512646484024
 20
318.14607071739897
 10
347.81809223212645
 20
321.05068102404687
 10
348.0
 20
324.0
  0
LWPOLYLINE
  5
61
330
17
100
AcDbEntity
  8
TOP
100
AcDbPolyline
 90
52
 70
0
 10
348.0
 20
324.0
 10
347.81809223212645
 20
326.94931897595313
 10
347.27512646484024
 20
329.85392928260103
 10
346.37933350570455
 20
332.66979998849166
 10
345.1442926628588
 20
335.35424536406424
 10
343.5887258965493
 20
337.86657195379803
 10
341.7362140132958
 20
340.1686954475174
 10
339.61483920490184
 20
342.22571799971297
 10
337.25675935105215
 20
344.0064572453069
 10
334.69772053863693
 20
345.48391899252147
 10
331.97651518751184
 20
346.63570642731065
 10
329.13439399695596
 20
347.4443596262304
 10
326.21444062711925
 20
347.89762023108085
 10
323.2609185946519
 20
347.9886172731208
 10
320.3186002829116
 20
347.7159713299502
 10
317.43208823827
 20
347.0838154361477
 10
314.64513904097566
 20
346.1017324306789
 10
312.0
 20
344.7846096908265
 10
309.53676872689783
 20
343.1524134547258
 10
307.29278529688975
 20
341.2298861535466
 10
305.30206621138393
 20
339.0461713414586
 10
303.5947887424893
 20
336.63437190905654
 10
302.19683347633145
 20
334.0310482772828
 10
301.1293919897482
 20
331.27566417871304
 10
300.4086456075863
 20
328.4099884275977
 10
300.0455201103109
 20
325.47746174721465
 10
300.0455201103109
 20
322.52253825278535
 10
300.4086456075863
 20
319.5900115724023
 10
301.1293919897482
 20
316.72433582128696
 10
302.19683347633145
 20
313.9689517227172
 10
303.5947887424893
 20
311.36562809094346
 10
305.30206621138393
 20
308.95382865854145
 10
307.29278529688975
 20
306.7701138464534
 10
309.53676872689783
 20
304.8475865452742
 10
312.0
 20
303.2153903091735
 10
314.64513904097566
 20
301.8982675693211
 10
317.43208823827
 20
300.9161845638523
 10
320.3186002829116
 20
300.2840286700498
 10
323.2609185946519
 20
300.0113827268792
 10
326.21444062711925
 20
300.10237976891915
 10
329.1343939969559
 20
300.55564037376956
 10
331.97651518751184
 20
301.36429357268935
 10
334.6977205386369
 20
302.51608100747853
 10
337.25675935105215
 20
303.9935427546931
 10
339.61483920490184
 20
305.77428200028703
 10
341.7362140132958
 20
307.8313045524826
 10
343.58872589654936
 20
310.13342804620197
 10
345.14429266285885
 20
312.64575463593576
 10
346.37933350570455
 20
315.33020001150834
 10
347.27512646484024
 20
318.14607071739897
 10
347.81809223212645
 20
321.05068102404687
 10
348.0
 20
324.0
  0
LWPOLYLINE
  5
62
330
17
100
AcDbEntity
  8
TOP
100
AcDbPolyline
 90
37
 70
0
 10
341.0
 20
324.0
 10
340.74173180120755
 20
326.95201902033784
 10
339.9747745533605
 20
329.8143424365364
 10
338.7224318643355
 20
332.5
 10
337.02275553302263
 20
334.92738936467117
 10
334.92738936467117
 20
337.02275553302263
 10
332.5
 20
338.7224318643355
 10
329.8143424365364
 20
339.9747745533605
 10
326.95201902033784
 20
340.74173180120755
 10
324.0
 20
341.0
 10
321.04798097966216
 20
340.74173180120755
 10
318.1856575634636
 20
339.9747745533605
 10
315.5
 20
338.7224318643355
 10
313.07261063532883
 20
337.02275553302263
 10
310.97724446697737
 20
334.92738936467117
 10
309.2775681356645
 20
332.5
 10
308.0252254466395
 20
329.8143424365364
 10
307.25826819879245
 20
326.95201902033784
 10
307.0
 20
324.0
 10
307.25826819879245
 20
321.04798097966216
 10
308.0252254466395
 20
318.1856575634636
 10
309.2775681356645
 20
315.5
 10
310.97724446697737
 20
313.07261063532883
 10
313.07261063532883
 20
310.97724446697737
 10
315.5
 20
309.2775681356645
 10
318.1856575634636
 20
308.0252254466395
 10
321.04798097966216
 20
307.25826819879245
 10
324.0
 20
307.0
 10
326.95201902033784
 20
307.25826819879245
 10
329.8143424365364
 20
308.0252254466395
 10
332.5
 20
309.2775681356645
 10
334.92738936467117
 20
310.97724446697737
 10
337.02275553302263
 20
313.07261063532883
 10
338.7224318643355
 20
315.5
 10
339.9747745533605
 20
318.1856575634636
 10
340.74173180120755
 20
321.04798097966216
 10
341.0
 20
324.0
  0
LWPOLYLINE
  5
63
330
17
100
AcDbEntity
  8
TOP
100
AcDbPolyline
 90
37
 70
0
 10
341.0
 20
324.0
 10
340.74173180120755
 20
326.95201902033784
 10
339.9747745533605
 20
329.8143424365364
 10
338.7224318643355
 20
332.5
 10
337.02275553302263
 20
334.92738936467117
 10
334.92738936467117
 20
337.02275553302263
 10
332.5
 20
338.7224318643355
 10
329.8143424365364
 20
339.9747745533605
 10
326.95201902033784
 20
340.74173180120755
 10
324.0
 20
341.0
 10
321.04798097966216
 20
340.74173180120755
 10
318.1856575634636
 20
339.9747745533605
 10
315.5
 20
338.7224318643355
 10
313.07261063532883
 20
337.02275553302263
 10
310.97724446697737
 20
334.92738936467117
 10
309.2775681356645
 20
332.5
 10
308.0252254466395
 20
329.8143424365364
 10
307.25826819879245
 20
326.95201902033784
 10
307.0
 20
324.0
 10
307.25826819879245
 20
321.04798097966216
 10
308.0252254466395
 20
318.1856575634636
 10
309.2775681356645
 20
315.5
 10
310.97724446697737
 20
313.07261063532883
 10
313.07261063532883
 20
310.97724446697737
 10
315.5
 20
309.2775681356645
 10
318.1856575634636
 20
308.0252254466395
 10
321.04798097966216
 20
307.25826819879245
 10
324.0
 20
307.0
 10
326.95201902033784
 20
307.25826819879245
 10
329.8143424365364
 20
308.0252254466395
 10
332.5
 20
309.2775681356645
 10
334.92738936467117
 20
310.97724446697737
 10
337.02275553302263
 20
313.07261063532883
 10
338.7224318643355
 20
315.5
 10
339.9747745533605
 20
318.1856575634636
 10
340.74173180120755
 20
321.04798097966216
 10
341.0
 20
324.0
  0
LWPOLYLINE
  5
64
330
17
100
AcDbEntity
  8
TOP
100
AcDbPolyline
 90
35
 70
0
 10
340.0
 20
324.0
 10
339.72756959494245
 20
326.93999228506516
 10
338.91955567046966
 20
329.7798666589945
 10
337.60347417167384
 20
332.4229146060377
 10
335.82414267553054
 20
334.7791302983449
 10
333.6421541820681
 20
336.76827563648385
 10
331.1318136924246
 20
338.322612661681
 10
328.3786078411533
 20
339.3892102907651
 10
325.47629375141287
 20
339.93174682072055
 10
322.52370624858713
 20
339.93174682072055
 10
319.6213921588467
 20
339.3892102907651
 10
316.8681863075754
 20
338.322612661681
 10
314.3578458179319
 20
336.76827563648385
 10
312.17585732446946
 20
334.7791302983449
 10
310.39652582832616
 20
332.4229146060377
 10
309.08044432953034
 20
329.7798666589945
 10
308.27243040505755
 20
326.93999228506516
 10
308.0
 20
324.0
 10
308.27243040505755
 20
321.06000771493484
 10
309.08044432953034
 20
318.2201333410055
 10
310.39652582832616
 20
315.5770853939623
 10
312.17585732446946
 20
313.2208697016551
 10
314.3578458179319
 20
311.23172436351615
 10
316.8681863075754
 20
309.677387338319
 10
319.6213921588467
 20
308.6107897092349
 10
322.52370624858713
 20
308.06825317927945
 10
325.4762937514128
 20
308.06825317927945
 10
328.3786078411533
 20
308.6107897092349
 10
331.1318136924246
 20
309.677387338319
 10
333.6421541820681
 20
311.23172436351615
 10
335.82414267553054
 20
313.2208697016551
 10
337.60347417167384
 20
315.5770853939623
 10
338.91955567046966
 20
318.2201333410055
 10
339.72756959494245
 20
321.06000771493484
 10
340.0
 20
324.0
  0
LWPOLYLINE
  5
65
330
17
100
AcDbEntity
  8
TOP
100
AcDbPolyline
 90
35
 70
0
 10
340.0
 20
324.0
 10
339.72756959494245
 20
326.93999228506516
 10
338.91955567046966
 20
329.7798666589945
 10
337.60347417167384
 20
332.4229146060377
 10
335.82414267553054
 20
334.7791302983449
 10
333.6421541820681
 20
336.76827563648385
 10
331.1318136924246
 20
338.322612661681
 10
328.3786078411533
 20
339.3892102907651
 10
325.47629375141287
 20
339.93174682072055
 10
322.52370624858713
 20
339.93174682072055
 10
319.6213921588467
 20
339.3892102907651
 10
316.8681863075754
 20
338.322612661681
 10
314.3578458179319
 20
336.76827563648385
 10
312.17585732446946
 20
334.7791302983449
 10
310.39652582832616
 20
332.4229146060377
 10
309.08044432953034
 20
329.7798666589945
 10
308.27243040505755
 20
326.93999228506516
 10
308.0
 20
324.0
 10
308.27243040505755
 20
321.06000771493484
 10
309.08044432953034
 20
318.2201333410055
 10
310.39652582832616
 20
315.5770853939623
 10
312.17585732446946
 20
313.2208697016551
 10
314.3578458179319
 20
311.23172436351615
 10
316.8681863075754
 20
309.677387338319
 10
319.6213921588467
 20
308.6107897092349
 10
322.52370624858713
 20
308.06825317927945
 10
325.4762937514128
 20
308.06825317927945
 10
328.3786078411533
 20
308.6107897092349
 10
331.1318136924246
 20
309.677387338319
 10
333.6421541820681
 20
311.23172436351615
 10
335.82414267553054
 20
313.2208697016551
 10
337.60347417167384
 20
315.5770853939623
 10
338.91955567046966
 20
318.2201333410055
 10
339.72756959494245
 20
321.06000771493484
 10
340.0
 20
324.0
  0
LWPOLYLINE
  5
66
330
17
100
AcDbEntity
  8
TOP
100
AcDbPolyline
 90
52
 70
0
 10
48.0
 20
324.0
 10
47.81809223212646
 20
326.94931897595313
 10
47.27512646484023
 20
329.85392928260103
 10
46.37933350570454
 20
332.66979998849166
 10
45.14429266285882
 20
335.35424536406424
 10
43.588725896549306
 20
337.86657195379803
 10
41.73621401329581
 20
340.1686954475174
 10
39.61483920490181
 20
342.22571799971297
 10
37.25675935105215
 20
344.0064572453069
 10
34.69772053863693
 20
345.48391899252147
 10
31.976515187511836
 20
346.63570642731065
 10
29.134393996955936
 20
347.4443596262304
 10
26.214440627119245
 20
347.89762023108085
 10
23.260918594651912
 20
347.9886172731208
 10
20.318600282911547
 20
347.7159713299502
 10
17.432088238270012
 20
347.0838154361477
 10
14.645139040975693
 20
346.1017324306789
 10
12.0
 20
344.7846096908265
 10
9.536768726897833
 20
343.1524134547258
 10
7.292785296889747
 20
341.2298861535466
 10
5.302066211383931
 20
339.0461713414586
 10
3.5947887424892713
 20
336.63437190905654
 10
2.1968334763314488
 20
334.0310482772828
 10
1.1293919897482283
 20
331.27566417871304
 10
0.40864560758635093
 20
328.4099884275977
 10
0.04552011031094594
 20
325.47746174721465
 10
0.04552011031094594
 20
322.52253825278535
 10
0.40864560758635093
 20
319.5900115724023
 10
1.1293919897482283
 20
316.72433582128696
 10
2.1968334763314203
 20
313.9689517227172
 10
3.5947887424892713
 20
311.36562809094346
 10
5.302066211383902
 20
308.95382865854145
 10
7.292785296889747
 20
306.7701138464534
 10
9.536768726897833
 20
304.8475865452742
 10
12.0
 20
303.2153903091735
 10
14.645139040975693
 20
301.8982675693211
 10
17.432088238270012
 20
300.9161845638523
 10
20.318600282911547
 20
300.2840286700498
 10
23.260918594651912
 20
300.0113827268792
 10
26.214440627119245
 20
300.10237976891915
 10
29.134393996955907
 20
300.55564037376956
 10
31.976515187511836
 20
301.36429357268935
 10
34.6977205386369
 20
302.51608100747853
 10
37.25675935105215
 20
303.9935427546931
 10
39.61483920490181
 20
305.77428200028703
 10
41.73621401329581
 20
307.8313045524826
 10
43.588725896549334
 20
310.13342804620197
 10
45.144292662858845
 20
312.64575463593576
 10
46.37933350570454
 20
315.33020001150834
 10
47.27512646484023
 20
318.14607071739897
 10
47.818092232126446
 20
321.05068102404687
 10
48.0
 20
324.0
  0
LWPOLYLINE
  5
67
330
17
100
AcDbEntity
  8
TOP
100
AcDbPolyline
 90
52
 70
0
 10
48.0
 20
324.0
 10
47.81809223212646
 20
326.94931897595313
 10
47.27512646484023
 20
329.85392928260103
 10
46.37933350570454
 20
332.66979998849166
 10
45.14429266285882
 20
335.35424536406424
 10
43.588725896549306
 20
337.86657195379803
 10
41.73621401329581
 20
340.1686954475174
 10
39.61483920490181
 20
342.22571799971297
 10
37.25675935105215
 20
344.0064572453069
 10
34.69772053863693
 20
345.48391899252147
 10
31.976515187511836
 20
346.63570642731065
 10
29.134393996955936
 20
347.4443596262304
 10
26.214440627119245
 20
347.89762023108085
 10
23.260918594651912
 20
347.9886172731208
 10
20.318600282911547
 20
347.7159713299502
 10
17.432088238270012
 20
347.0838154361477
 10
14.645139040975693
 20
346.1017324306789
 10
12.0
 20
344.7846096908265
 10
9.536768726897833
 20
343.1524134547258
 10
7.292785296889747
 20
341.2298861535466
 10
5.302066211383931
 20
339.0461713414586
 10
3.5947887424892713
 20
336.63437190905654
 10
2.1968334763314488
 20
334.0310482772828
 10
1.1293919897482283
 20
331.27566417871304
 10
0.40864560758635093
 20
328.4099884275977
 10
0.04552011031094594
 20
325.47746174721465
 10
0.04552011031094594
 20
322.52253825278535
 10
0.40864560758635093
 20
319.5900115724023
 10
1.1293919897482283
 20
316.72433582128696
 10
2.1968334763314203
 20
313.9689517227172
 10
3.5947887424892713
 20
311.36562809094346
 10
5.302066211383902
 20
308.95382865854145
 10
7.292785296889747
 20
306.7701138464534
 10
9.536768726897833
 20
304.8475865452742
 10
12.0
 20
303.2153903091735
 10
14.645139040975693
 20
301.8982675693211
 10
17.432088238270012
 20
300.9161845638523
 10
20.318600282911547
 20
300.2840286700498
 10
23.260918594651912
 20
300.0113827268792
 10
26.214440627119245
 20
300.10237976891915
 10
29.134393996955907
 20
300.55564037376956
 10
31.976515187511836
 20
301.36429357268935
 10
34.6977205386369
 20
302.51608100747853
 10
37.25675935105215
 20
303.9935427546931
 10
39.61483920490181
 20
305.77428200028703
 10
41.73621401329581
 20
307.8313045524826
 10
43.588725896549334
 20
310.13342804620197
 10
45.144292662858845
 20
312.64575463593576
 10
46.37933350570454
 20
315.33020001150834
 10
47.27512646484023
 20
318.14607071739897
 10
47.818092232126446
 20
321.05068102404687
 10
48.0
 20
324.0
  0
LWPOLYLINE
  5
68
330
17
100
AcDbEntity
  8
TOP
100
AcDbPolyline
 90
37
 70
0
 10
41.0
 20
324.0
 10
40.74173180120755
 20
326.95201902033784
 10
39.97477455336045
 20
329.8143424365364
 10
38.72243186433545
 20
332.5
 10
37.02275553302263
 20
334.92738936467117
 10
34.92738936467117
 20
337.02275553302263
 10
32.5
 20
338.7224318643355
 10
29.81434243653638
 20
339.9747745533605
 10
26.952019020337815
 20
340.74173180120755
 10
24.0
 20
341.0
 10
21.047980979662185
 20
340.74173180120755
 10
18.18565756346362
 20
339.9747745533605
 10
15.5
 20
338.7224318643355
 10
13.072610635328829
 20
337.02275553302263
 10
10.977244466977368
 20
334.92738936467117
 10
9.277568135664552
 20
332.5
 10
8.025225446639553
 20
329.8143424365364
 10
7.25826819879245
 20
326.95201902033784
 10
7.0
 20
324.0
 10
7.25826819879245
 20
321.04798097966216
 10
8.025225446639553
 20
318.1856575634636
 10
9.277568135664552
 20
315.5
 10
10.977244466977368
 20
313.07261063532883
 10
13.072610635328829
 20
310.97724446697737
 10
15.5
 20
309.2775681356645
 10
18.18565756346362
 20
308.0252254466395
 10
21.047980979662185
 20
307.25826819879245
 10
24.0
 20
307.0
 10
26.952019020337815
 20
307.25826819879245
 10
29.81434243653638
 20
308.0252254466395
 10
32.5
 20
309.2775681356645
 10
34.92738936467117
 20
310.97724446697737
 10
37.02275553302263
 20
313.07261063532883
 10
38.72243186433545
 20
315.5
 10
39.97477455336045
 20
318.1856575634636
 10
40.74173180120755
 20
321.04798097966216
 10
41.0
 20
324.0
  0
LWPOLYLINE
  5
69
330
17
100
AcDbEntity
  8
TOP
100
AcDbPolyline
 90
37
 70
0
 10
41.0
 20
324.0
 10
40.74173180120755
 20
326.95201902033784
 10
39.97477455336045
 20
329.8143424365364
 10
38.72243186433545
 20
332.5
 10
37.02275553302263
 20
334.92738936467117
 10
34.92738936467117
 20
337.02275553302263
 10
32.5
 20
338.7224318643355
 10
29.81434243653638
 20
339.9747745533605
 10
26.952019020337815
 20
340.74173180120755
 10
24.0
 20
341.0
 10
21.047980979662185
 20
340.74173180120755
 10
18.18565756346362
 20
339.9747745533605
 10
15.5
 20
338.7224318643355
 10
13.072610635328829
 20
337.02275553302263
 10
10.977244466977368
 20
334.92738936467117
 10
9.277568135664552
 20
332.5
 10
8.025225446639553
 20
329.8143424365364
 10
7.25826819879245
 20
326.95201902033784
 10
7.0
 20
324.0
 10
7.25826819879245
 20
321.04798097966216
 10
8.025225446639553
 20
318.1856575634636
 10
9.277568135664552
 20
315.5
 10
10.977244466977368
 20
313.07261063532883
 10
13.072610635328829
 20
310.97724446697737
 10
15.5
 20
309.2775681356645
 10
18.18565756346362
 20
308.0252254466395
 10
21.047980979662185
 20
307.25826819879245
 10
24.0
 20
307.0
 10
26.952019020337815
 20
307.25826819879245
 10
29.81434243653638
 20
308.0252254466395
 10
32.5
 20
309.2775681356645
 10
34.92738936467117
 20
310.97724446697737
 10
37.02275553302263
 20
313.07261063532883
 10
38.72243186433545
 20
315.5
 10
39.97477455336045
 20
318.1856575634636
 10
40.74173180120755
 20
321.04798097966216
 10
41.0
 20
324.0
  0
LWPOLYLINE
  5
6A
330
17
100
AcDbEntity
  8
TOP
100
AcDbPolyline
 90
35
 70
0
 10
40.0
 20
324.0
 10
39.72756959494242
 20
326.93999228506516
 10
38.91955567046969
 20
329.7798666589945
 10
37.60347417167384
 20
332.4229146060377
 10
35.82414267553054
 20
334.7791302983449
 10
33.64215418206811
 20
336.76827563648385
 10
31.1318136924246
 20
338.322612661681
 10
28.378607841153325
 20
339.3892102907651
 10
25.47629375141284
 20
339.93174682072055
 10
22.52370624858716
 20
339.93174682072055
 10
19.621392158846675
 20
339.3892102907651
 10
16.8681863075754
 20
338.322612661681
 10
14.357845817931889
 20
336.76827563648385
 10
12.175857324469462
 20
334.7791302983449
 10
10.396525828326162
 20
332.4229146060377
 10
9.080444329530309
 20
329.7798666589945
 10
8.272430405057577
 20
326.93999228506516
 10
8.0
 20
324.0
 10
8.272430405057577
 20
321.06000771493484
 10
9.080444329530309
 20
318.2201333410055
 10
10.396525828326162
 20
315.5770853939623
 10
12.175857324469462
 20
313.2208697016551
 10
14.357845817931889
 20
311.23172436351615
 10
16.8681863075754
 20
309.677387338319
 10
19.621392158846675
 20
308.6107897092349
 10
22.52370624858716
 20
308.06825317927945
 10
25.47629375141281
 20
308.06825317927945
 10
28.378607841153325
 20
308.6107897092349
 10
31.1318136924246
 20
309.677387338319
 10
33.64215418206811
 20
311.23172436351615
 10
35.82414267553054
 20
313.2208697016551
 10
37.60347417167381
 20
315.5770853939623
 10
38.91955567046969
 20
318.2201333410055
 10
39.72756959494242
 20
321.06000771493484
 10
40.0
 20
324.0
  0
LWPOLYLINE
  5
6B
330
17
100
AcDbEntity
  8
TOP
100
AcDbPolyline
 90
35
 70
0
 10
40.0
 20
324.0
 10
39.72756959494242
 20
326.93999228506516
 10
38.91955567046969
 20
329.7798666589945
 10
37.60347417167384
 20
332.4229146060377
 10
35.82414267553054
 20
334.7791302983449
 10
33.64215418206811
 20
336.76827563648385
 10
31.1318136924246
 20
338.322612661681
 10
28.378607841153325
 20
339.3892102907651
 10
25.47629375141284
 20
339.93174682072055
 10
22.52370624858716
 20
339.93174682072055
 10
19.621392158846675
 20
339.3892102907651
 10
16.8681863075754
 20
338.322612661681
 10
14.357845817931889
 20
336.76827563648385
 10
12.175857324469462
 20
334.7791302983449
 10
10.396525828326162
 20
332.4229146060377
 10
9.080444329530309
 20
329.7798666589945
 10
8.272430405057577
 20
326.93999228506516
 10
8.0
 20
324.0
 10
8.272430405057577
 20
321.06000771493484
 10
9.080444329530309
 20
318.2201333410055
 10
10.396525828326162
 20
315.5770853939623
 10
12.175857324469462
 20
313.2208697016551
 10
14.357845817931889
 20
311.23172436351615
 10
16.8681863075754
 20
309.677387338319
 10
19.621392158846675
 20
308.6107897092349
 10
22.52370624858716
 20
308.06825317927945
 10
25.47629375141281
 20
308.06825317927945
 10
28.378607841153325
 20
308.6107897092349
 10
31.1318136924246
 20
309.677387338319
 10
33.64215418206811
 20
311.23172436351615
 10
35.82414267553054
 20
313.2208697016551
 10
37.60347417167381
 20
315.5770853939623
 10
38.91955567046969
 20
318.2201333410055
 10
39.72756959494242
 20
321.06000771493484
 10
40.0
 20
324.0
  0
DIMENSION
  5
6C
330
17
100
AcDbEntity
  8
DIMENSIONS
100
AcDbDimension
280
0
  2
*D1
  3
Standard
 10
0.0
 20
-35.0
 30
0.0
 11
174.0
 21
-35.0
 31
0.0
 70
32
 71
5
  1
<>
100
AcDbAlignedDimension
 13
0.0
 23
0.0
 33
0.0
 14
348.0
 24
0.0
 34
0.0
 50
0.0
100
AcDbRotatedDimension
1001
ACAD
1000
DSTYLE
1002
{
1070
140
1040
2.6769230769230767
1070
41
1040
2.5
1070
176
1070
7
1070
177
1070
7
1070
178
1070
7
1070
271
1070
2
1002
}
  0
DIMENSION
  5
80
330
17
100
AcDbEntity
  8
DIMENSIONS
100
AcDbDimension
280
0
  2
*D2
  3
Standard
 10
-35.0
 20
0.0
 30
0.0
 11
-35.0
 21
174.0
 31
0.0
 70
32
 71
5
  1
<>
100
AcDbAlignedDimension
 13
0.0
 23
0.0
 33
0.0
 14
0.0
 24
348.0
 34
0.0
 50
90.0
100
AcDbRotatedDimension
1001
ACAD
1000
DSTYLE
1002
{
1070
140
1040
2.6769230769230767
1070
41
1040
2.5
1070
176
1070
7
1070
177
1070
7
1070
178
1070
7
1070
271
1070
2
1002
}
  0
TEXT
  5
90
330
17
100
AcDbEntity
  8
NOTES
100
AcDbText
 10
0.0
 20
368.0
 30
0.0
 40
4.0
  1
TOP
100
AcDbText
  0
LWPOLYLINE
  5
91
330
17
100
AcDbEntity
  8
FRONT
100
AcDbPolyline
 90
2
 70
0
 10
4.0
 20
-274.0
 10
4.0
 20
-254.0
  0
LWPOLYLINE
  5
92
330
17
100
AcDbEntity
  8
FRONT
100
AcDbPolyline
 90
2
 70
0
 10
4.0
 20
-274.0
 10
4.0
 20
-254.0
  0
LWPOLYLINE
  5
93
330
17
100
AcDbEntity
  8
FRONT
100
AcDbPolyline
 90
2
 70
0
 10
344.0
 20
-274.0
 10
344.0
 20
-254.0
  0
LWPOLYLINE
  5
94
330
17
100
AcDbEntity
  8
FRONT
100
AcDbPolyline
 90
2
 70
0
 10
344.0
 20
-274.0
 10
344.0
 20
-254.0
  0
LWPOLYLINE
  5
95
330
17
100
AcDbEntity
  8
FRONT
100
AcDbPolyline
 90
2
 70
0
 10
4.0
 20
-274.0
 10
344.0
 20
-274.0
  0
LWPOLYLINE
  5
96
330
17
100
AcDbEntity
  8
FRONT
100
AcDbPolyline
 90
2
 70
0
 10
4.0
 20
-254.0
 10
344.0
 20
-254.0
  0
LWPOLYLINE
  5
97
330
17
100
AcDbEntity
  8
FRONT
100
AcDbPolyline
 90
2
 70
0
 10
4.0
 20
-274.0
 10
344.0
 20
-274.0
  0
LWPOLYLINE
  5
98
330
17
100
AcDbEntity
  8
FRONT
100
AcDbPolyline
 90
2
 70
0
 10
4.0
 20
-254.0
 10
344.0
 20
-254.0
  0
LWPOLYLINE
  5
99
330
17
100
AcDbEntity
  8
FRONT
100
AcDbPolyline
 90
2
 70
0
 10
14.0
 20
-274.0
 10
14.0
 20
-254.0
  0
LWPOLYLINE
  5
9A
330
17
100
AcDbEntity
  8
FRONT
100
AcDbPolyline
 90
2
 70
0
 10
14.0
 20
-274.0
 10
14.0
 20
-254.0
  0
LWPOLYLINE
  5
9B
330
17
100
AcDbEntity
  8
FRONT
100
AcDbPolyline
 90
2
 70
0
 10
34.0
 20
-274.0
 10
34.0
 20
-254.0
  0
LWPOLYLINE
  5
9C
330
17
100
AcDbEntity
  8
FRONT
100
AcDbPolyline
 90
2
 70
0
 10
34.0
 20
-274.0
 10
34.0
 20
-254.0
  0
LWPOLYLINE
  5
9D
330
17
100
AcDbEntity
  8
FRONT
100
AcDbPolyline
 90
2
 70
0
 10
14.0
 20
-274.0
 10
34.0
 20
-274.0
  0
LWPOLYLINE
  5
9E
330
17
100
AcDbEntity
  8
FRONT
100
AcDbPolyline
 90
2
 70
0
 10
14.0
 20
-254.0
 10
34.0
 20
-254.0
  0
LWPOLYLINE
  5
9F
330
17
100
AcDbEntity
  8
FRONT
100
AcDbPolyline
 90
2
 70
0
 10
14.0
 20
-274.0
 10
34.0
 20
-274.0
  0
LWPOLYLINE
  5
A0
330
17
100
AcDbEntity
  8
FRONT
100
AcDbPolyline
 90
2
 70
0
 10
14.0
 20
-254.0
 10
34.0
 20
-254.0
  0
LWPOLYLINE
  5
A1
330
17
100
AcDbEntity
  8
FRONT
100
AcDbPolyline
 90
2
 70
0
 10
4.0
 20
-274.0
 10
4.0
 20
-254.0
  0
LWPOLYLINE
  5
A2
330
17
100
AcDbEntity
  8
FRONT
100
AcDbPolyline
 90
2
 70
0
 10
4.0
 20
-274.0
 10
4.0
 20
-254.0
  0
LWPOLYLINE
  5
A3
330
17
100
AcDbEntity
  8
FRONT
100
AcDbPolyline
 90
2
 70
0
 10
344.0
 20
-274.0
 10
344.0
 20
-254.0
  0
LWPOLYLINE
  5
A4
330
17
100
AcDbEntity
  8
FRONT
100
AcDbPolyline
 90
2
 70
0
 10
344.0
 20
-274.0
 10
344.0
 20
-254.0
  0
LWPOLYLINE
  5
A5
330
17
100
AcDbEntity
  8
FRONT
100
AcDbPolyline
 90
2
 70
0
 10
4.0
 20
-274.0
 10
344.0
 20
-274.0
  0
LWPOLYLINE
  5
A6
330
17
100
AcDbEntity
  8
FRONT
100
AcDbPolyline
 90
2
 70
0
 10
4.0
 20
-254.0
 10
344.0
 20
-254.0
  0
LWPOLYLINE
  5
A7
330
17
100
AcDbEntity
  8
FRONT
100
AcDbPolyline
 90
2
 70
0
 10
4.0
 20
-274.0
 10
344.0
 20
-274.0
  0
LWPOLYLINE
  5
A8
330
17
100
AcDbEntity
  8
FRONT
100
AcDbPolyline
 90
2
 70
0
 10
4.0
 20
-254.0
 10
344.0
 20
-254.0
  0
LWPOLYLINE
  5
A9
330
17
100
AcDbEntity
  8
FRONT
100
AcDbPolyline
 90
2
 70
0
 10
314.0
 20
-274.0
 10
314.0
 20
-254.0
  0
LWPOLYLINE
  5
AA
330
17
100
AcDbEntity
  8
FRONT
100
AcDbPolyline
 90
2
 70
0
 10
314.0
 20
-274.0
 10
314.0
 20
-254.0
  0
LWPOLYLINE
  5
AB
330
17
100
AcDbEntity
  8
FRONT
100
AcDbPolyline
 90
2
 70
0
 10
334.0
 20
-274.0
 10
334.0
 20
-254.0
  0
LWPOLYLINE
  5
AC
330
17
100
AcDbEntity
  8
FRONT
100
AcDbPolyline
 90
2
 70
0
 10
334.0
 20
-274.0
 10
334.0
 20
-254.0
  0
LWPOLYLINE
  5
AD
330
17
100
AcDbEntity
  8
FRONT
100
AcDbPolyline
 90
2
 70
0
 10
314.0
 20
-274.0
 10
334.0
 20
-274.0
  0
LWPOLYLINE
  5
AE
330
17
100
AcDbEntity
  8
FRONT
100
AcDbPolyline
 90
2
 70
0
 10
314.0
 20
-254.0
 10
334.0
 20
-254.0
  0
LWPOLYLINE
  5
AF
330
17
100
AcDbEntity
  8
FRONT
100
AcDbPolyline
 90
2
 70
0
 10
314.0
 20
-274.0
 10
334.0
 20
-274.0
  0
LWPOLYLINE
  5
B0
330
17
100
AcDbEntity
  8
FRONT
100
AcDbPolyline
 90
2
 70
0
 10
314.0
 20
-254.0
 10
334.0
 20
-254.0
  0
LWPOLYLINE
  5
B1
330
17
100
AcDbEntity
  8
FRONT
100
AcDbPolyline
 90
2
 70
0
 10
48.0
 20
-252.0
 10
48.0
 20
-234.0
  0
LWPOLYLINE
  5
B2
330
17
100
AcDbEntity
  8
FRONT
100
AcDbPolyline
 90
52
 70
0
 10
48.0
 20
-252.0
 10
47.81809223212646
 20
-252.0
 10
47.27512646484023
 20
-252.0
 10
46.37933350570454
 20
-252.0
 10
45.14429266285882
 20
-252.0
 10
43.588725896549306
 20
-252.0
 10
41.73621401329581
 20
-252.0
 10
39.61483920490181
 20
-252.0
 10
37.25675935105215
 20
-252.0
 10
34.69772053863693
 20
-252.0
 10
31.976515187511836
 20
-252.0
 10
29.134393996955936
 20
-252.0
 10
26.214440627119245
 20
-252.0
 10
23.260918594651912
 20
-252.0
 10
20.318600282911547
 20
-252.0
 10
17.432088238270012
 20
-252.0
 10
14.645139040975693
 20
-252.0
 10
12.0
 20
-252.0
 10
9.536768726897833
 20
-252.0
 10
7.292785296889747
 20
-252.0
 10
5.302066211383931
 20
-252.0
 10
3.5947887424892713
 20
-252.0
 10
2.1968334763314488
 20
-252.0
 10
1.1293919897482283
 20
-252.0
 10
0.40864560758635093
 20
-252.0
 10
0.04552011031094594
 20
-252.0
 10
0.04552011031094594
 20
-252.0
 10
0.40864560758635093
 20
-252.0
 10
1.1293919897482283
 20
-252.0
 10
2.1968334763314203
 20
-252.0
 10
3.5947887424892713
 20
-252.0
 10
5.302066211383902
 20
-252.0
 10
7.292785296889747
 20
-252.0
 10
9.536768726897833
 20
-252.0
 10
12.0
 20
-252.0
 10
14.645139040975693
 20
-252.0
 10
17.432088238270012
 20
-252.0
 10
20.318600282911547
 20
-252.0
 10
23.260918594651912
 20
-252.0
 10
26.214440627119245
 20
-252.0
 10
29.134393996955907
 20
-252.0
 10
31.976515187511836
 20
-252.0
 10
34.6977205386369
 20
-252.0
 10
37.25675935105215
 20
-252.0
 10
39.61483920490181
 20
-252.0
 10
41.73621401329581
 20
-252.0
 10
43.588725896549334
 20
-252.0
 10
45.144292662858845
 20
-252.0
 10
46.37933350570454
 20
-252.0
 10
47.27512646484023
 20
-252.0
 10
47.818092232126446
 20
-252.0
 10
48.0
 20
-252.0
  0
LWPOLYLINE
  5
B3
330
17
100
AcDbEntity
  8
FRONT
100
AcDbPolyline
 90
52
 70
0
 10
48.0
 20
-234.0
 10
47.81809223212646
 20
-234.0
 10
47.27512646484023
 20
-234.0
 10
46.37933350570454
 20
-234.0
 10
45.14429266285882
 20
-234.0
 10
43.588725896549306
 20
-234.0
 10
41.73621401329581
 20
-234.0
 10
39.61483920490181
 20
-234.0
 10
37.25675935105215
 20
-234.0
 10
34.69772053863693
 20
-234.0
 10
31.976515187511836
 20
-234.0
 10
29.134393996955936
 20
-234.0
 10
26.214440627119245
 20
-234.0
 10
23.260918594651912
 20
-234.0
 10
20.318600282911547
 20
-234.0
 10
17.432088238270012
 20
-234.0
 10
14.645139040975693
 20
-234.0
 10
12.0
 20
-234.0
 10
9.536768726897833
 20
-234.0
 10
7.292785296889747
 20
-234.0
 10
5.302066211383931
 20
-234.0
 10
3.5947887424892713
 20
-234.0
 10
2.1968334763314488
 20
-234.0
 10
1.1293919897482283
 20
-234.0
 10
0.40864560758635093
 20
-234.0
 10
0.04552011031094594
 20
-234.0
 10
0.04552011031094594
 20
-234.0
 10
0.40864560758635093
 20
-234.0
 10
1.1293919897482283
 20
-234.0
 10
2.1968334763314203
 20
-234.0
 10
3.5947887424892713
 20
-234.0
 10
5.302066211383902
 20
-234.0
 10
7.292785296889747
 20
-234.0
 10
9.536768726897833
 20
-234.0
 10
12.0
 20
-234.0
 10
14.645139040975693
 20
-234.0
 10
17.432088238270012
 20
-234.0
 10
20.318600282911547
 20
-234.0
 10
23.260918594651912
 20
-234.0
 10
26.214440627119245
 20
-234.0
 10
29.134393996955907
 20
-234.0
 10
31.976515187511836
 20
-234.0
 10
34.6977205386369
 20
-234.0
 10
37.25675935105215
 20
-234.0
 10
39.61483920490181
 20
-234.0
 10
41.73621401329581
 20
-234.0
 10
43.588725896549334
 20
-234.0
 10
45.144292662858845
 20
-234.0
 10
46.37933350570454
 20
-234.0
 10
47.27512646484023
 20
-234.0
 10
47.818092232126446
 20
-234.0
 10
48.0
 20
-234.0
  0
LWPOLYLINE
  5
B4
330
17
100
AcDbEntity
  8
FRONT
100
AcDbPolyline
 90
37
 70
0
 10
41.0
 20
-252.0
 10
40.74173180120755
 20
-252.0
 10
39.97477455336045
 20
-252.0
 10
38.72243186433545
 20
-252.0
 10
37.02275553302263
 20
-252.0
 10
34.92738936467117
 20
-252.0
 10
32.5
 20
-252.0
 10
29.81434243653638
 20
-252.0
 10
26.952019020337815
 20
-252.0
 10
24.0
 20
-252.0
 10
21.047980979662185
 20
-252.0
 10
18.18565756346362
 20
-252.0
 10
15.5
 20
-252.0
 10
13.072610635328829
 20
-252.0
 10
10.977244466977368
 20
-252.0
 10
9.277568135664552
 20
-252.0
 10
8.025225446639553
 20
-252.0
 10
7.25826819879245
 20
-252.0
 10
7.0
 20
-252.0
 10
7.25826819879245
 20
-252.0
 10
8.025225446639553
 20
-252.0
 10
9.277568135664552
 20
-252.0
 10
10.977244466977368
 20
-252.0
 10
13.072610635328829
 20
-252.0
 10
15.5
 20
-252.0
 10
18.18565756346362
 20
-252.0
 10
21.047980979662185
 20
-252.0
 10
24.0
 20
-252.0
 10
26.952019020337815
 20
-252.0
 10
29.81434243653638
 20
-252.0
 10
32.5
 20
-252.0
 10
34.92738936467117
 20
-252.0
 10
37.02275553302263
 20
-252.0
 10
38.72243186433545
 20
-252.0
 10
39.97477455336045
 20
-252.0
 10
40.74173180120755
 20
-252.0
 10
41.0
 20
-252.0
  0
LWPOLYLINE
  5
B5
330
17
100
AcDbEntity
  8
FRONT
100
AcDbPolyline
 90
37
 70
0
 10
41.0
 20
-234.0
 10
40.74173180120755
 20
-234.0
 10
39.97477455336045
 20
-234.0
 10
38.72243186433545
 20
-234.0
 10
37.02275553302263
 20
-234.0
 10
34.92738936467117
 20
-234.0
 10
32.5
 20
-234.0
 10
29.81434243653638
 20
-234.0
 10
26.952019020337815
 20
-234.0
 10
24.0
 20
-234.0
 10
21.047980979662185
 20
-234.0
 10
18.18565756346362
 20
-234.0
 10
15.5
 20
-234.0
 10
13.072610635328829
 20
-234.0
 10
10.977244466977368
 20
-234.0
 10
9.277568135664552
 20
-234.0
 10
8.025225446639553
 20
-234.0
 10
7.25826819879245
 20
-234.0
 10
7.0
 20
-234.0
 10
7.25826819879245
 20
-234.0
 10
8.025225446639553
 20
-234.0
 10
9.277568135664552
 20
-234.0
 10
10.977244466977368
 20
-234.0
 10
13.072610635328829
 20
-234.0
 10
15.5
 20
-234.0
 10
18.18565756346362
 20
-234.0
 10
21.047980979662185
 20
-234.0
 10
24.0
 20
-234.0
 10
26.952019020337815
 20
-234.0
 10
29.81434243653638
 20
-234.0
 10
32.5
 20
-234.0
 10
34.92738936467117
 20
-234.0
 10
37.02275553302263
 20
-234.0
 10
38.72243186433545
 20
-234.0
 10
39.97477455336045
 20
-234.0
 10
40.74173180120755
 20
-234.0
 10
41.0
 20
-234.0
  0
LWPOLYLINE
  5
B6
330
17
100
AcDbEntity
  8
FRONT
100
AcDbPolyline
 90
2
 70
0
 10
41.0
 20
-252.0
 10
41.0
 20
-234.0
  0
LWPOLYLINE
  5
B7
330
17
100
AcDbEntity
  8
FRONT
100
AcDbPolyline
 90
2
 70
0
 10
40.0
 20
-250.0
 10
40.0
 20
-150.0
  0
LWPOLYLINE
  5
B8
330
17
100
AcDbEntity
  8
FRONT
100
AcDbPolyline
 90
35
 70
0
 10
40.0
 20
-250.0
 10
39.72756959494242
 20
-250.0
 10
38.91955567046969
 20
-250.0
 10
37.60347417167384
 20
-250.0
 10
35.82414267553054
 20
-250.0
 10
33.64215418206811
 20
-250.0
 10
31.1318136924246
 20
-250.0
 10
28.378607841153325
 20
-250.0
 10
25.47629375141284
 20
-250.0
 10
22.52370624858716
 20
-250.0
 10
19.621392158846675
 20
-250.0
 10
16.8681863075754
 20
-250.0
 10
14.357845817931889
 20
-250.0
 10
12.175857324469462
 20
-250.0
 10
10.396525828326162
 20
-250.0
 10
9.080444329530309
 20
-250.0
 10
8.272430405057577
 20
-250.0
 10
8.0
 20
-250.0
 10
8.272430405057577
 20
-250.0
 10
9.080444329530309
 20
-250.0
 10
10.396525828326162
 20
-250.0
 10
12.175857324469462
 20
-250.0
 10
14.357845817931889
 20
-250.0
 10
16.8681863075754
 20
-250.0
 10
19.621392158846675
 20
-250.0
 10
22.52370624858716
 20
-250.0
 10
25.47629375141281
 20
-250.0
 10
28.378607841153325
 20
-250.0
 10
31.1318136924246
 20
-250.0
 10
33.64215418206811
 20
-250.0
 10
35.82414267553054
 20
-250.0
 10
37.60347417167381
 20
-250.0
 10
38.91955567046969
 20
-250.0
 10
39.72756959494242
 20
-250.0
 10
40.0
 20
-250.0
  0
LWPOLYLINE
  5
B9
330
17
100
AcDbEntity
  8
FRONT
100
AcDbPolyline
 90
35
 70
0
 10
40.0
 20
-150.0
 10
39.72756959494242
 20
-150.0
 10
38.91955567046969
 20
-150.0
 10
37.60347417167384
 20
-150.0
 10
35.82414267553054
 20
-150.0
 10
33.64215418206811
 20
-150.0
 10
31.1318136924246
 20
-150.0
 10
28.378607841153325
 20
-150.0
 10
25.47629375141284
 20
-150.0
 10
22.52370624858716
 20
-150.0
 10
19.621392158846675
 20
-150.0
 10
16.8681863075754
 20
-150.0
 10
14.357845817931889
 20
-150.0
 10
12.175857324469462
 20
-150.0
 10
10.396525828326162
 20
-150.0
 10
9.080444329530309
 20
-150.0
 10
8.272430405057577
 20
-150.0
 10
8.0
 20
-150.0
 10
8.272430405057577
 20
-150.0
 10
9.080444329530309
 20
-150.0
 10
10.396525828326162
 20
-150.0
 10
12.175857324469462
 20
-150.0
 10
14.357845817931889
 20
-150.0
 10
16.8681863075754
 20
-150.0
 10
19.621392158846675
 20
-150.0
 10
22.52370624858716
 20
-150.0
 10
25.47629375141281
 20
-150.0
 10
28.378607841153325
 20
-150.0
 10
31.1318136924246
 20
-150.0
 10
33.64215418206811
 20
-150.0
 10
35.82414267553054
 20
-150.0
 10
37.60347417167381
 20
-150.0
 10
38.91955567046969
 20
-150.0
 10
39.72756959494242
 20
-150.0
 10
40.0
 20
-150.0
  0
LWPOLYLINE
  5
BA
330
17
100
AcDbEntity
  8
FRONT
100
AcDbPolyline
 90
2
 70
0
 10
348.0
 20
-252.0
 10
348.0
 20
-234.0
  0
LWPOLYLINE
  5
BB
330
17
100
AcDbEntity
  8
FRONT
100
AcDbPolyline
 90
52
 70
0
 10
348.0
 20
-252.0
 10
347.81809223212645
 20
-252.0
 10
347.27512646484024
 20
-252.0
 10
346.37933350570455
 20
-252.0
 10
345.1442926628588
 20
-252.0
 10
343.5887258965493
 20
-252.0
 10
341.7362140132958
 20
-252.0
 10
339.61483920490184
 20
-252.0
 10
337.25675935105215
 20
-252.0
 10
334.69772053863693
 20
-252.0
 10
331.97651518751184
 20
-252.0
 10
329.13439399695596
 20
-252.0
 10
326.21444062711925
 20
-252.0
 10
323.2609185946519
 20
-252.0
 10
320.3186002829116
 20
-252.0
 10
317.43208823827
 20
-252.0
 10
314.64513904097566
 20
-252.0
 10
312.0
 20
-252.0
 10
309.53676872689783
 20
-252.0
 10
307.29278529688975
 20
-252.0
 10
305.30206621138393
 20
-252.0
 10
303.5947887424893
 20
-252.0
 10
302.19683347633145
 20
-252.0
 10
301.1293919897482
 20
-252.0
 10
300.4086456075863
 20
-252.0
 10
300.0455201103109
 20
-252.0
 10
300.0455201103109
 20
-252.0
 10
300.4086456075863
 20
-252.0
 10
301.1293919897482
 20
-252.0
 10
302.19683347633145
 20
-252.0
 10
303.5947887424893
 20
-252.0
 10
305.30206621138393
 20
-252.0
 10
307.29278529688975
 20
-252.0
 10
309.53676872689783
 20
-252.0
 10
312.0
 20
-252.0
 10
314.64513904097566
 20
-252.0
 10
317.43208823827
 20
-252.0
 10
320.3186002829116
 20
-252.0
 10
323.2609185946519
 20
-252.0
 10
326.21444062711925
 20
-252.0
 10
329.1343939969559
 20
-252.0
 10
331.97651518751184
 20
-252.0
 10
334.6977205386369
 20
-252.0
 10
337.25675935105215
 20
-252.0
 10
339.61483920490184
 20
-252.0
 10
341.7362140132958
 20
-252.0
 10
343.58872589654936
 20
-252.0
 10
345.14429266285885
 20
-252.0
 10
346.37933350570455
 20
-252.0
 10
347.27512646484024
 20
-252.0
 10
347.81809223212645
 20
-252.0
 10
348.0
 20
-252.0
  0
LWPOLYLINE
  5
BC
330
17
100
AcDbEntity
  8
FRONT
100
AcDbPolyline
 90
52
 70
0
 10
348.0
 20
-234.0
 10
347.81809223212645
 20
-234.0
 10
347.27512646484024
 20
-234.0
 10
346.37933350570455
 20
-234.0
 10
345.1442926628588
 20
-234.0
 10
343.5887258965493
 20
-234.0
 10
341.7362140132958
 20
-234.0
 10
339.61483920490184
 20
-234.0
 10
337.25675935105215
 20
-234.0
 10
334.69772053863693
 20
-234.0
 10
331.97651518751184
 20
-234.0
 10
329.13439399695596
 20
-234.0
 10
326.21444062711925
 20
-234.0
 10
323.2609185946519
 20
-234.0
 10
320.3186002829116
 20
-234.0
 10
317.43208823827
 20
-234.0
 10
314.64513904097566
 20
-234.0
 10
312.0
 20
-234.0
 10
309.53676872689783
 20
-234.0
 10
307.29278529688975
 20
-234.0
 10
305.30206621138393
 20
-234.0
 10
303.5947887424893
 20
-234.0
 10
302.19683347633145
 20
-234.0
 10
301.1293919897482
 20
-234.0
 10
300.4086456075863
 20
-234.0
 10
300.0455201103109
 20
-234.0
 10
300.0455201103109
 20
-234.0
 10
300.4086456075863
 20
-234.0
 10
301.1293919897482
 20
-234.0
 10
302.19683347633145
 20
-234.0
 10
303.5947887424893
 20
-234.0
 10
305.30206621138393
 20
-234.0
 10
307.29278529688975
 20
-234.0
 10
309.53676872689783
 20
-234.0
 10
312.0
 20
-234.0
 10
314.64513904097566
 20
-234.0
 10
317.43208823827
 20
-234.0
 10
320.3186002829116
 20
-234.0
 10
323.2609185946519
 20
-234.0
 10
326.21444062711925
 20
-234.0
 10
329.1343939969559
 20
-234.0
 10
331.97651518751184
 20
-234.0
 10
334.6977205386369
 20
-234.0
 10
337.25675935105215
 20
-234.0
 10
339.61483920490184
 20
-234.0
 10
341.7362140132958
 20
-234.0
 10
343.58872589654936
 20
-234.0
 10
345.14429266285885
 20
-234.0
 10
346.37933350570455
 20
-234.0
 10
347.27512646484024
 20
-234.0
 10
347.81809223212645
 20
-234.0
 10
348.0
 20
-234.0
  0
LWPOLYLINE
  5
BD
330
17
100
AcDbEntity
  8
FRONT
100
AcDbPolyline
 90
37
 70
0
 10
341.0
 20
-252.0
 10
340.74173180120755
 20
-252.0
 10
339.9747745533605
 20
-252.0
 10
338.7224318643355
 20
-252.0
 10
337.02275553302263
 20
-252.0
 10
334.92738936467117
 20
-252.0
 10
332.5
 20
-252.0
 10
329.8143424365364
 20
-252.0
 10
326.95201902033784
 20
-252.0
 10
324.0
 20
-252.0
 10
321.04798097966216
 20
-252.0
 10
318.1856575634636
 20
-252.0
 10
315.5
 20
-252.0
 10
313.07261063532883
 20
-252.0
 10
310.97724446697737
 20
-252.0
 10
309.2775681356645
 20
-252.0
 10
308.0252254466395
 20
-252.0
 10
307.25826819879245
 20
-252.0
 10
307.0
 20
-252.0
 10
307.25826819879245
 20
-252.0
 10
308.0252254466395
 20
-252.0
 10
309.2775681356645
 20
-252.0
 10
310.97724446697737
 20
-252.0
 10
313.07261063532883
 20
-252.0
 10
315.5
 20
-252.0
 10
318.1856575634636
 20
-252.0
 10
321.04798097966216
 20
-252.0
 10
324.0
 20
-252.0
 10
326.95201902033784
 20
-252.0
 10
329.8143424365364
 20
-252.0
 10
332.5
 20
-252.0
 10
334.92738936467117
 20
-252.0
 10
337.02275553302263
 20
-252.0
 10
338.7224318643355
 20
-252.0
 10
339.9747745533605
 20
-252.0
 10
340.74173180120755
 20
-252.0
 10
341.0
 20
-252.0
  0
LWPOLYLINE
  5
BE
330
17
100
AcDbEntity
  8
FRONT
100
AcDbPolyline
 90
37
 70
0
 10
341.0
 20
-234.0
 10
340.74173180120755
 20
-234.0
 10
339.9747745533605
 20
-234.0
 10
338.7224318643355
 20
-234.0
 10
337.02275553302263
 20
-234.0
 10
334.92738936467117
 20
-234.0
 10
332.5
 20
-234.0
 10
329.8143424365364
 20
-234.0
 10
326.95201902033784
 20
-234.0
 10
324.0
 20
-234.0
 10
321.04798097966216
 20
-234.0
 10
318.1856575634636
 20
-234.0
 10
315.5
 20
-234.0
 10
313.07261063532883
 20
-234.0
 10
310.97724446697737
 20
-234.0
 10
309.2775681356645
 20
-234.0
 10
308.0252254466395
 20
-234.0
 10
307.25826819879245
 20
-234.0
 10
307.0
 20
-234.0
 10
307.25826819879245
 20
-234.0
 10
308.0252254466395
 20
-234.0
 10
309.2775681356645
 20
-234.0
 10
310.97724446697737
 20
-234.0
 10
313.07261063532883
 20
-234.0
 10
315.5
 20
-234.0
 10
318.1856575634636
 20
-234.0
 10
321.04798097966216
 20
-234.0
 10
324.0
 20
-234.0
 10
326.95201902033784
 20
-234.0
 10
329.8143424365364
 20
-234.0
 10
332.5
 20
-234.0
 10
334.92738936467117
 20
-234.0
 10
337.02275553302263
 20
-234.0
 10
338.7224318643355
 20
-234.0
 10
339.9747745533605
 20
-234.0
 10
340.74173180120755
 20
-234.0
 10
341.0
 20
-234.0
  0
LWPOLYLINE
  5
BF
330
17
100
AcDbEntity
  8
FRONT
100
AcDbPolyline
 90
2
 70
0
 10
341.0
 20
-252.0
 10
341.0
 20
-234.0
  0
LWPOLYLINE
  5
C0
330
17
100
AcDbEntity
  8
FRONT
100
AcDbPolyline
 90
2
 70
0
 10
340.0
 20
-250.0
 10
340.0
 20
-150.0
  0
LWPOLYLINE
  5
C1
330
17
100
AcDbEntity
  8
FRONT
100
AcDbPolyline
 90
35
 70
0
 10
340.0
 20
-250.0
 10
339.72756959494245
 20
-250.0
 10
338.91955567046966
 20
-250.0
 10
337.60347417167384
 20
-250.0
 10
335.82414267553054
 20
-250.0
 10
333.6421541820681
 20
-250.0
 10
331.1318136924246
 20
-250.0
 10
328.3786078411533
 20
-250.0
 10
325.47629375141287
 20
-250.0
 10
322.52370624858713
 20
-250.0
 10
319.6213921588467
 20
-250.0
 10
316.8681863075754
 20
-250.0
 10
314.3578458179319
 20
-250.0
 10
312.17585732446946
 20
-250.0
 10
310.39652582832616
 20
-250.0
 10
309.08044432953034
 20
-250.0
 10
308.27243040505755
 20
-250.0
 10
308.0
 20
-250.0
 10
308.27243040505755
 20
-250.0
 10
309.08044432953034
 20
-250.0
 10
310.39652582832616
 20
-250.0
 10
312.17585732446946
 20
-250.0
 10
314.3578458179319
 20
-250.0
 10
316.8681863075754
 20
-250.0
 10
319.6213921588467
 20
-250.0
 10
322.52370624858713
 20
-250.0
 10
325.4762937514128
 20
-250.0
 10
328.3786078411533
 20
-250.0
 10
331.1318136924246
 20
-250.0
 10
333.6421541820681
 20
-250.0
 10
335.82414267553054
 20
-250.0
 10
337.60347417167384
 20
-250.0
 10
338.91955567046966
 20
-250.0
 10
339.72756959494245
 20
-250.0
 10
340.0
 20
-250.0
  0
LWPOLYLINE
  5
C2
330
17
100
AcDbEntity
  8
FRONT
100
AcDbPolyline
 90
35
 70
0
 10
340.0
 20
-150.0
 10
339.72756959494245
 20
-150.0
 10
338.91955567046966
 20
-150.0
 10
337.60347417167384
 20
-150.0
 10
335.82414267553054
 20
-150.0
 10
333.6421541820681
 20
-150.0
 10
331.1318136924246
 20
-150.0
 10
328.3786078411533
 20
-150.0
 10
325.47629375141287
 20
-150.0
 10
322.52370624858713
 20
-150.0
 10
319.6213921588467
 20
-150.0
 10
316.8681863075754
 20
-150.0
 10
314.3578458179319
 20
-150.0
 10
312.17585732446946
 20
-150.0
 10
310.39652582832616
 20
-150.0
 10
309.08044432953034
 20
-150.0
 10
308.27243040505755
 20
-150.0
 10
308.0
 20
-150.0
 10
308.27243040505755
 20
-150.0
 10
309.08044432953034
 20
-150.0
 10
310.39652582832616
 20
-150.0
 10
312.17585732446946
 20
-150.0
 10
314.3578458179319
 20
-150.0
 10
316.8681863075754
 20
-150.0
 10
319.6213921588467
 20
-150.0
 10
322.52370624858713
 20
-150.0
 10
325.4762937514128
 20
-150.0
 10
328.3786078411533
 20
-150.0
 10
331.1318136924246
 20
-150.0
 10
333.6421541820681
 20
-150.0
 10
335.82414267553054
 20
-150.0
 10
337.60347417167384
 20
-150.0
 10
338.91955567046966
 20
-150.0
 10
339.72756959494245
 20
-150.0
 10
340.0
 20
-150.0
  0
LWPOLYLINE
  5
C3
330
17
100
AcDbEntity
  8
FRONT
100
AcDbPolyline
 90
2
 70
0
 10
348.0
 20
-252.0
 10
348.0
 20
-234.0
  0
LWPOLYLINE
  5
C4
330
17
100
AcDbEntity
  8
FRONT
100
AcDbPolyline
 90
52
 70
0
 10
348.0
 20
-252.0
 10
347.81809223212645
 20
-252.0
 10
347.27512646484024
 20
-252.0
 10
346.37933350570455
 20
-252.0
 10
345.1442926628588
 20
-252.0
 10
343.5887258965493
 20
-252.0
 10
341.7362140132958
 20
-252.0
 10
339.61483920490184
 20
-252.0
 10
337.25675935105215
 20
-252.0
 10
334.69772053863693
 20
-252.0
 10
331.97651518751184
 20
-252.0
 10
329.13439399695596
 20
-252.0
 10
326.21444062711925
 20
-252.0
 10
323.2609185946519
 20
-252.0
 10
320.3186002829116
 20
-252.0
 10
317.43208823827
 20
-252.0
 10
314.64513904097566
 20
-252.0
 10
312.0
 20
-252.0
 10
309.53676872689783
 20
-252.0
 10
307.29278529688975
 20
-252.0
 10
305.30206621138393
 20
-252.0
 10
303.5947887424893
 20
-252.0
 10
302.19683347633145
 20
-252.0
 10
301.1293919897482
 20
-252.0
 10
300.4086456075863
 20
-252.0
 10
300.0455201103109
 20
-252.0
 10
300.0455201103109
 20
-252.0
 10
300.4086456075863
 20
-252.0
 10
301.1293919897482
 20
-252.0
 10
302.19683347633145
 20
-252.0
 10
303.5947887424893
 20
-252.0
 10
305.30206621138393
 20
-252.0
 10
307.29278529688975
 20
-252.0
 10
309.53676872689783
 20
-252.0
 10
312.0
 20
-252.0
 10
314.64513904097566
 20
-252.0
 10
317.43208823827
 20
-252.0
 10
320.3186002829116
 20
-252.0
 10
323.2609185946519
 20
-252.0
 10
326.21444062711925
 20
-252.0
 10
329.1343939969559
 20
-252.0
 10
331.97651518751184
 20
-252.0
 10
334.6977205386369
 20
-252.0
 10
337.25675935105215
 20
-252.0
 10
339.61483920490184
 20
-252.0
 10
341.7362140132958
 20
-252.0
 10
343.58872589654936
 20
-252.0
 10
345.14429266285885
 20
-252.0
 10
346.37933350570455
 20
-252.0
 10
347.27512646484024
 20
-252.0
 10
347.81809223212645
 20
-252.0
 10
348.0
 20
-252.0
  0
LWPOLYLINE
  5
C5
330
17
100
AcDbEntity
  8
FRONT
100
AcDbPolyline
 90
52
 70
0
 10
348.0
 20
-234.0
 10
347.81809223212645
 20
-234.0
 10
347.27512646484024
 20
-234.0
 10
346.37933350570455
 20
-234.0
 10
345.1442926628588
 20
-234.0
 10
343.5887258965493
 20
-234.0
 10
341.7362140132958
 20
-234.0
 10
339.61483920490184
 20
-234.0
 10
337.25675935105215
 20
-234.0
 10
334.69772053863693
 20
-234.0
 10
331.97651518751184
 20
-234.0
 10
329.13439399695596
 20
-234.0
 10
326.21444062711925
 20
-234.0
 10
323.2609185946519
 20
-234.0
 10
320.3186002829116
 20
-234.0
 10
317.43208823827
 20
-234.0
 10
314.64513904097566
 20
-234.0
 10
312.0
 20
-234.0
 10
309.53676872689783
 20
-234.0
 10
307.29278529688975
 20
-234.0
 10
305.30206621138393
 20
-234.0
 10
303.5947887424893
 20
-234.0
 10
302.19683347633145
 20
-234.0
 10
301.1293919897482
 20
-234.0
 10
300.4086456075863
 20
-234.0
 10
300.0455201103109
 20
-234.0
 10
300.0455201103109
 20
-234.0
 10
300.4086456075863
 20
-234.0
 10
301.1293919897482
 20
-234.0
 10
302.19683347633145
 20
-234.0
 10
303.5947887424893
 20
-234.0
 10
305.30206621138393
 20
-234.0
 10
307.29278529688975
 20
-234.0
 10
309.53676872689783
 20
-234.0
 10
312.0
 20
-234.0
 10
314.64513904097566
 20
-234.0
 10
317.43208823827
 20
-234.0
 10
320.3186002829116
 20
-234.0
 10
323.2609185946519
 20
-234.0
 10
326.21444062711925
 20
-234.0
 10
329.1343939969559
 20
-234.0
 10
331.97651518751184
 20
-234.0
 10
334.6977205386369
 20
-234.0
 10
337.25675935105215
 20
-234.0
 10
339.61483920490184
 20
-234.0
 10
341.7362140132958
 20
-234.0
 10
343.58872589654936
 20
-234.0
 10
345.14429266285885
 20
-234.0
 10
346.37933350570455
 20
-234.0
 10
347.27512646484024
 20
-234.0
 10
347.81809223212645
 20
-234.0
 10
348.0
 20
-234.0
  0
LWPOLYLINE
  5
C6
330
17
100
AcDbEntity
  8
FRONT
100
AcDbPolyline
 90
37
 70
0
 10
341.0
 20
-252.0
 10
340.74173180120755
 20
-252.0
 10
339.9747745533605
 20
-252.0
 10
338.7224318643355
 20
-252.0
 10
337.02275553302263
 20
-252.0
 10
334.92738936467117
 20
-252.0
 10
332.5
 20
-252.0
 10
329.8143424365364
 20
-252.0
 10
326.95201902033784
 20
-252.0
 10
324.0
 20
-252.0
 10
321.04798097966216
 20
-252.0
 10
318.1856575634636
 20
-252.0
 10
315.5
 20
-252.0
 10
313.07261063532883
 20
-252.0
 10
310.97724446697737
 20
-252.0
 10
309.2775681356645
 20
-252.0
 10
308.0252254466395
 20
-252.0
 10
307.25826819879245
 20
-252.0
 10
307.0
 20
-252.0
 10
307.25826819879245
 20
-252.0
 10
308.0252254466395
 20
-252.0
 10
309.2775681356645
 20
-252.0
 10
310.97724446697737
 20
-252.0
 10
313.07261063532883
 20
-252.0
 10
315.5
 20
-252.0
 10
318.1856575634636
 20
-252.0
 10
321.04798097966216
 20
-252.0
 10
324.0
 20
-252.0
 10
326.95201902033784
 20
-252.0
 10
329.8143424365364
 20
-252.0
 10
332.5
 20
-252.0
 10
334.92738936467117
 20
-252.0
 10
337.02275553302263
 20
-252.0
 10
338.7224318643355
 20
-252.0
 10
339.9747745533605
 20
-252.0
 10
340.74173180120755
 20
-252.0
 10
341.0
 20
-252.0
  0
LWPOLYLINE
  5
C7
330
17
100
AcDbEntity
  8
FRONT
100
AcDbPolyline
 90
37
 70
0
 10
341.0
 20
-234.0
 10
340.74173180120755
 20
-234.0
 10
339.9747745533605
 20
-234.0
 10
338.7224318643355
 20
-234.0
 10
337.02275553302263
 20
-234.0
 10
334.92738936467117
 20
-234.0
 10
332.5
 20
-234.0
 10
329.8143424365364
 20
-234.0
 10
326.95201902033784
 20
-234.0
 10
324.0
 20
-234.0
 10
321.04798097966216
 20
-234.0
 10
318.1856575634636
 20
-234.0
 10
315.5
 20
-234.0
 10
313.07261063532883
 20
-234.0
 10
310.97724446697737
 20
-234.0
 10
309.2775681356645
 20
-234.0
 10
308.0252254466395
 20
-234.0
 10
307.25826819879245
 20
-234.0
 10
307.0
 20
-234.0
 10
307.25826819879245
 20
-234.0
 10
308.0252254466395
 20
-234.0
 10
309.2775681356645
 20
-234.0
 10
310.97724446697737
 20
-234.0
 10
313.07261063532883
 20
-234.0
 10
315.5
 20
-234.0
 10
318.1856575634636
 20
-234.0
 10
321.04798097966216
 20
-234.0
 10
324.0
 20
-234.0
 10
326.95201902033784
 20
-234.0
 10
329.8143424365364
 20
-234.0
 10
332.5
 20
-234.0
 10
334.92738936467117
 20
-234.0
 10
337.02275553302263
 20
-234.0
 10
338.7224318643355
 20
-234.0
 10
339.9747745533605
 20
-234.0
 10
340.74173180120755
 20
-234.0
 10
341.0
 20
-234.0
  0
LWPOLYLINE
  5
C8
330
17
100
AcDbEntity
  8
FRONT
100
AcDbPolyline
 90
2
 70
0
 10
341.0
 20
-252.0
 10
341.0
 20
-234.0
  0
LWPOLYLINE
  5
C9
330
17
100
AcDbEntity
  8
FRONT
100
AcDbPolyline
 90
2
 70
0
 10
340.0
 20
-250.0
 10
340.0
 20
-150.0
  0
LWPOLYLINE
  5
CA
330
17
100
AcDbEntity
  8
FRONT
100
AcDbPolyline
 90
35
 70
0
 10
340.0
 20
-250.0
 10
339.72756959494245
 20
-250.0
 10
338.91955567046966
 20
-250.0
 10
337.60347417167384
 20
-250.0
 10
335.82414267553054
 20
-250.0
 10
333.6421541820681
 20
-250.0
 10
331.1318136924246
 20
-250.0
 10
328.3786078411533
 20
-250.0
 10
325.47629375141287
 20
-250.0
 10
322.52370624858713
 20
-250.0
 10
319.6213921588467
 20
-250.0
 10
316.8681863075754
 20
-250.0
 10
314.3578458179319
 20
-250.0
 10
312.17585732446946
 20
-250.0
 10
310.39652582832616
 20
-250.0
 10
309.08044432953034
 20
-250.0
 10
308.27243040505755
 20
-250.0
 10
308.0
 20
-250.0
 10
308.27243040505755
 20
-250.0
 10
309.08044432953034
 20
-250.0
 10
310.39652582832616
 20
-250.0
 10
312.17585732446946
 20
-250.0
 10
314.3578458179319
 20
-250.0
 10
316.8681863075754
 20
-250.0
 10
319.6213921588467
 20
-250.0
 10
322.52370624858713
 20
-250.0
 10
325.4762937514128
 20
-250.0
 10
328.3786078411533
 20
-250.0
 10
331.1318136924246
 20
-250.0
 10
333.6421541820681
 20
-250.0
 10
335.82414267553054
 20
-250.0
 10
337.60347417167384
 20
-250.0
 10
338.91955567046966
 20
-250.0
 10
339.72756959494245
 20
-250.0
 10
340.0
 20
-250.0
  0
LWPOLYLINE
  5
CB
330
17
100
AcDbEntity
  8
FRONT
100
AcDbPolyline
 90
35
 70
0
 10
340.0
 20
-150.0
 10
339.72756959494245
 20
-150.0
 10
338.91955567046966
 20
-150.0
 10
337.60347417167384
 20
-150.0
 10
335.82414267553054
 20
-150.0
 10
333.6421541820681
 20
-150.0
 10
331.1318136924246
 20
-150.0
 10
328.3786078411533
 20
-150.0
 10
325.47629375141287
 20
-150.0
 10
322.52370624858713
 20
-150.0
 10
319.6213921588467
 20
-150.0
 10
316.8681863075754
 20
-150.0
 10
314.3578458179319
 20
-150.0
 10
312.17585732446946
 20
-150.0
 10
310.39652582832616
 20
-150.0
 10
309.08044432953034
 20
-150.0
 10
308.27243040505755
 20
-150.0
 10
308.0
 20
-150.0
 10
308.27243040505755
 20
-150.0
 10
309.08044432953034
 20
-150.0
 10
310.39652582832616
 20
-150.0
 10
312.17585732446946
 20
-150.0
 10
314.3578458179319
 20
-150.0
 10
316.8681863075754
 20
-150.0
 10
319.6213921588467
 20
-150.0
 10
322.52370624858713
 20
-150.0
 10
325.4762937514128
 20
-150.0
 10
328.3786078411533
 20
-150.0
 10
331.1318136924246
 20
-150.0
 10
333.6421541820681
 20
-150.0
 10
335.82414267553054
 20
-150.0
 10
337.60347417167384
 20
-150.0
 10
338.91955567046966
 20
-150.0
 10
339.72756959494245
 20
-150.0
 10
340.0
 20
-150.0
  0
LWPOLYLINE
  5
CC
330
17
100
AcDbEntity
  8
FRONT
100
AcDbPolyline
 90
2
 70
0
 10
48.0
 20
-252.0
 10
48.0
 20
-234.0
  0
LWPOLYLINE
  5
CD
330
17
100
AcDbEntity
  8
FRONT
100
AcDbPolyline
 90
52
 70
0
 10
48.0
 20
-252.0
 10
47.81809223212646
 20
-252.0
 10
47.27512646484023
 20
-252.0
 10
46.37933350570454
 20
-252.0
 10
45.14429266285882
 20
-252.0
 10
43.588725896549306
 20
-252.0
 10
41.73621401329581
 20
-252.0
 10
39.61483920490181
 20
-252.0
 10
37.25675935105215
 20
-252.0
 10
34.69772053863693
 20
-252.0
 10
31.976515187511836
 20
-252.0
 10
29.134393996955936
 20
-252.0
 10
26.214440627119245
 20
-252.0
 10
23.260918594651912
 20
-252.0
 10
20.318600282911547
 20
-252.0
 10
17.432088238270012
 20
-252.0
 10
14.645139040975693
 20
-252.0
 10
12.0
 20
-252.0
 10
9.536768726897833
 20
-252.0
 10
7.292785296889747
 20
-252.0
 10
5.302066211383931
 20
-252.0
 10
3.5947887424892713
 20
-252.0
 10
2.1968334763314488
 20
-252.0
 10
1.1293919897482283
 20
-252.0
 10
0.40864560758635093
 20
-252.0
 10
0.04552011031094594
 20
-252.0
 10
0.04552011031094594
 20
-252.0
 10
0.40864560758635093
 20
-252.0
 10
1.1293919897482283
 20
-252.0
 10
2.1968334763314203
 20
-252.0
 10
3.5947887424892713
 20
-252.0
 10
5.302066211383902
 20
-252.0
 10
7.292785296889747
 20
-252.0
 10
9.536768726897833
 20
-252.0
 10
12.0
 20
-252.0
 10
14.645139040975693
 20
-252.0
 10
17.432088238270012
 20
-252.0
 10
20.318600282911547
 20
-252.0
 10
23.260918594651912
 20
-252.0
 10
26.214440627119245
 20
-252.0
 10
29.134393996955907
 20
-252.0
 10
31.976515187511836
 20
-252.0
 10
34.6977205386369
 20
-252.0
 10
37.25675935105215
 20
-252.0
 10
39.61483920490181
 20
-252.0
 10
41.73621401329581
 20
-252.0
 10
43.588725896549334
 20
-252.0
 10
45.144292662858845
 20
-252.0
 10
46.37933350570454
 20
-252.0
 10
47.27512646484023
 20
-252.0
 10
47.818092232126446
 20
-252.0
 10
48.0
 20
-252.0
  0
LWPOLYLINE
  5
CE
330
17
100
AcDbEntity
  8
FRONT
100
AcDbPolyline
 90
52
 70
0
 10
48.0
 20
-234.0
 10
47.81809223212646
 20
-234.0
 10
47.27512646484023
 20
-234.0
 10
46.37933350570454
 20
-234.0
 10
45.14429266285882
 20
-234.0
 10
43.588725896549306
 20
-234.0
 10
41.73621401329581
 20
-234.0
 10
39.61483920490181
 20
-234.0
 10
37.25675935105215
 20
-234.0
 10
34.69772053863693
 20
-234.0
 10
31.976515187511836
 20
-234.0
 10
29.134393996955936
 20
-234.0
 10
26.214440627119245
 20
-234.0
 10
23.260918594651912
 20
-234.0
 10
20.318600282911547
 20
-234.0
 10
17.432088238270012
 20
-234.0
 10
14.645139040975693
 20
-234.0
 10
12.0
 20
-234.0
 10
9.536768726897833
 20
-234.0
 10
7.292785296889747
 20
-234.0
 10
5.302066211383931
 20
-234.0
 10
3.5947887424892713
 20
-234.0
 10
2.1968334763314488
 20
-234.0
 10
1.1293919897482283
 20
-234.0
 10
0.40864560758635093
 20
-234.0
 10
0.04552011031094594
 20
-234.0
 10
0.04552011031094594
 20
-234.0
 10
0.40864560758635093
 20
-234.0
 10
1.1293919897482283
 20
-234.0
 10
2.1968334763314203
 20
-234.0
 10
3.5947887424892713
 20
-234.0
 10
5.302066211383902
 20
-234.0
 10
7.292785296889747
 20
-234.0
 10
9.536768726897833
 20
-234.0
 10
12.0
 20
-234.0
 10
14.645139040975693
 20
-234.0
 10
17.432088238270012
 20
-234.0
 10
20.318600282911547
 20
-234.0
 10
23.260918594651912
 20
-234.0
 10
26.214440627119245
 20
-234.0
 10
29.134393996955907
 20
-234.0
 10
31.976515187511836
 20
-234.0
 10
34.6977205386369
 20
-234.0
 10
37.25675935105215
 20
-234.0
 10
39.61483920490181
 20
-234.0
 10
41.73621401329581
 20
-234.0
 10
43.588725896549334
 20
-234.0
 10
45.144292662858845
 20
-234.0
 10
46.37933350570454
 20
-234.0
 10
47.27512646484023
 20
-234.0
 10
47.818092232126446
 20
-234.0
 10
48.0
 20
-234.0
  0
LWPOLYLINE
  5
CF
330
17
100
AcDbEntity
  8
FRONT
100
AcDbPolyline
 90
37
 70
0
 10
41.0
 20
-252.0
 10
40.74173180120755
 20
-252.0
 10
39.97477455336045
 20
-252.0
 10
38.72243186433545
 20
-252.0
 10
37.02275553302263
 20
-252.0
 10
34.92738936467117
 20
-252.0
 10
32.5
 20
-252.0
 10
29.81434243653638
 20
-252.0
 10
26.952019020337815
 20
-252.0
 10
24.0
 20
-252.0
 10
21.047980979662185
 20
-252.0
 10
18.18565756346362
 20
-252.0
 10
15.5
 20
-252.0
 10
13.072610635328829
 20
-252.0
 10
10.977244466977368
 20
-252.0
 10
9.277568135664552
 20
-252.0
 10
8.025225446639553
 20
-252.0
 10
7.25826819879245
 20
-252.0
 10
7.0
 20
-252.0
 10
7.25826819879245
 20
-252.0
 10
8.025225446639553
 20
-252.0
 10
9.277568135664552
 20
-252.0
 10
10.977244466977368
 20
-252.0
 10
13.072610635328829
 20
-252.0
 10
15.5
 20
-252.0
 10
18.18565756346362
 20
-252.0
 10
21.047980979662185
 20
-252.0
 10
24.0
 20
-252.0
 10
26.952019020337815
 20
-252.0
 10
29.81434243653638
 20
-252.0
 10
32.5
 20
-252.0
 10
34.92738936467117
 20
-252.0
 10
37.02275553302263
 20
-252.0
 10
38.72243186433545
 20
-252.0
 10
39.97477455336045
 20
-252.0
 10
40.74173180120755
 20
-252.0
 10
41.0
 20
-252.0
  0
LWPOLYLINE
  5
D0
330
17
100
AcDbEntity
  8
FRONT
100
AcDbPolyline
 90
37
 70
0
 10
41.0
 20
-234.0
 10
40.74173180120755
 20
-234.0
 10
39.97477455336045
 20
-234.0
 10
38.72243186433545
 20
-234.0
 10
37.02275553302263
 20
-234.0
 10
34.92738936467117
 20
-234.0
 10
32.5
 20
-234.0
 10
29.81434243653638
 20
-234.0
 10
26.952019020337815
 20
-234.0
 10
24.0
 20
-234.0
 10
21.047980979662185
 20
-234.0
 10
18.18565756346362
 20
-234.0
 10
15.5
 20
-234.0
 10
13.072610635328829
 20
-234.0
 10
10.977244466977368
 20
-234.0
 10
9.277568135664552
 20
-234.0
 10
8.025225446639553
 20
-234.0
 10
7.25826819879245
 20
-234.0
 10
7.0
 20
-234.0
 10
7.25826819879245
 20
-234.0
 10
8.025225446639553
 20
-234.0
 10
9.277568135664552
 20
-234.0
 10
10.977244466977368
 20
-234.0
 10
13.072610635328829
 20
-234.0
 10
15.5
 20
-234.0
 10
18.18565756346362
 20
-234.0
 10
21.047980979662185
 20
-234.0
 10
24.0
 20
-234.0
 10
26.952019020337815
 20
-234.0
 10
29.81434243653638
 20
-234.0
 10
32.5
 20
-234.0
 10
34.92738936467117
 20
-234.0
 10
37.02275553302263
 20
-234.0
 10
38.72243186433545
 20
-234.0
 10
39.97477455336045
 20
-234.0
 10
40.74173180120755
 20
-234.0
 10
41.0
 20
-234.0
  0
LWPOLYLINE
  5
D1
330
17
100
AcDbEntity
  8
FRONT
100
AcDbPolyline
 90
2
 70
0
 10
41.0
 20
-252.0
 10
41.0
 20
-234.0
  0
LWPOLYLINE
  5
D2
330
17
100
AcDbEntity
  8
FRONT
100
AcDbPolyline
 90
2
 70
0
 10
40.0
 20
-250.0
 10
40.0
 20
-150.0
  0
LWPOLYLINE
  5
D3
330
17
100
AcDbEntity
  8
FRONT
100
AcDbPolyline
 90
35
 70
0
 10
40.0
 20
-250.0
 10
39.72756959494242
 20
-250.0
 10
38.91955567046969
 20
-250.0
 10
37.60347417167384
 20
-250.0
 10
35.82414267553054
 20
-250.0
 10
33.64215418206811
 20
-250.0
 10
31.1318136924246
 20
-250.0
 10
28.378607841153325
 20
-250.0
 10
25.47629375141284
 20
-250.0
 10
22.52370624858716
 20
-250.0
 10
19.621392158846675
 20
-250.0
 10
16.8681863075754
 20
-250.0
 10
14.357845817931889
 20
-250.0
 10
12.175857324469462
 20
-250.0
 10
10.396525828326162
 20
-250.0
 10
9.080444329530309
 20
-250.0
 10
8.272430405057577
 20
-250.0
 10
8.0
 20
-250.0
 10
8.272430405057577
 20
-250.0
 10
9.080444329530309
 20
-250.0
 10
10.396525828326162
 20
-250.0
 10
12.175857324469462
 20
-250.0
 10
14.357845817931889
 20
-250.0
 10
16.8681863075754
 20
-250.0
 10
19.621392158846675
 20
-250.0
 10
22.52370624858716
 20
-250.0
 10
25.47629375141281
 20
-250.0
 10
28.378607841153325
 20
-250.0
 10
31.1318136924246
 20
-250.0
 10
33.64215418206811
 20
-250.0
 10
35.82414267553054
 20
-250.0
 10
37.60347417167381
 20
-250.0
 10
38.91955567046969
 20
-250.0
 10
39.72756959494242
 20
-250.0
 10
40.0
 20
-250.0
  0
LWPOLYLINE
  5
D4
330
17
100
AcDbEntity
  8
FRONT
100
AcDbPolyline
 90
35
 70
0
 10
40.0
 20
-150.0
 10
39.72756959494242
 20
-150.0
 10
38.91955567046969
 20
-150.0
 10
37.60347417167384
 20
-150.0
 10
35.82414267553054
 20
-150.0
 10
33.64215418206811
 20
-150.0
 10
31.1318136924246
 20
-150.0
 10
28.378607841153325
 20
-150.0
 10
25.47629375141284
 20
-150.0
 10
22.52370624858716
 20
-150.0
 10
19.621392158846675
 20
-150.0
 10
16.8681863075754
 20
-150.0
 10
14.357845817931889
 20
-150.0
 10
12.175857324469462
 20
-150.0
 10
10.396525828326162
 20
-150.0
 10
9.080444329530309
 20
-150.0
 10
8.272430405057577
 20
-150.0
 10
8.0
 20
-150.0
 10
8.272430405057577
 20
-150.0
 10
9.080444329530309
 20
-150.0
 10
10.396525828326162
 20
-150.0
 10
12.175857324469462
 20
-150.0
 10
14.357845817931889
 20
-150.0
 10
16.8681863075754
 20
-150.0
 10
19.621392158846675
 20
-150.0
 10
22.52370624858716
 20
-150.0
 10
25.47629375141281
 20
-150.0
 10
28.378607841153325
 20
-150.0
 10
31.1318136924246
 20
-150.0
 10
33.64215418206811
 20
-150.0
 10
35.82414267553054
 20
-150.0
 10
37.60347417167381
 20
-150.0
 10
38.91955567046969
 20
-150.0
 10
39.72756959494242
 20
-150.0
 10
40.0
 20
-150.0
  0
DIMENSION
  5
D5
330
17
100
AcDbEntity
  8
DIMENSIONS
100
AcDbDimension
280
0
  2
*D3
  3
Standard
 10
0.0
 20
-309.0
 30
0.0
 11
174.0
 21
-309.0
 31
0.0
 70
32
 71
5
  1
<>
100
AcDbAlignedDimension
 13
0.0
 23
-274.0
 33
0.0
 14
348.0
 24
-274.0
 34
0.0
 50
0.0
100
AcDbRotatedDimension
1001
ACAD
1000
DSTYLE
1002
{
1070
140
1040
2.6769230769230767
1070
41
1040
2.5
1070
176
1070
7
1070
177
1070
7
1070
178
1070
7
1070
271
1070
2
1002
}
  0
DIMENSION
  5
E5
330
17
100
AcDbEntity
  8
DIMENSIONS
100
AcDbDimension
280
0
  2
*D4
  3
Standard
 10
-35.0
 20
-274.0
 30
0.0
 11
-35.0
 21
-212.0
 31
0.0
 70
32
 71
5
  1
<>
100
AcDbAlignedDimension
 13
0.0
 23
-274.0
 33
0.0
 14
0.0
 24
-150.0
 34
0.0
 50
90.0
100
AcDbRotatedDimension
1001
ACAD
1000
DSTYLE
1002
{
1070
140
1040
2.6769230769230767
1070
41
1040
2.5
1070
176
1070
7
1070
177
1070
7
1070
178
1070
7
1070
271
1070
2
1002
}
  0
TEXT
  5
F5
330
17
100
AcDbEntity
  8
NOTES
100
AcDbText
 10
0.0
 20
-130.0
 30
0.0
 40
4.0
  1
FRONT
100
AcDbText
  0
LWPOLYLINE
  5
F6
330
17
100
AcDbEntity
  8
RIGHT
100
AcDbPolyline
 90
2
 70
0
 10
512.0
 20
0.0
 10
512.0
 20
20.0
  0
LWPOLYLINE
  5
F7
330
17
100
AcDbEntity
  8
RIGHT
100
AcDbPolyline
 90
2
 70
0
 10
512.0
 20
20.0
 10
532.0
 20
20.0
  0
LWPOLYLINE
  5
F8
330
17
100
AcDbEntity
  8
RIGHT
100
AcDbPolyline
 90
2
 70
0
 10
532.0
 20
0.0
 10
532.0
 20
20.0
  0
LWPOLYLINE
  5
F9
330
17
100
AcDbEntity
  8
RIGHT
100
AcDbPolyline
 90
2
 70
0
 10
512.0
 20
0.0
 10
532.0
 20
0.0
  0
LWPOLYLINE
  5
FA
330
17
100
AcDbEntity
  8
RIGHT
100
AcDbPolyline
 90
2
 70
0
 10
512.0
 20
0.0
 10
512.0
 20
20.0
  0
LWPOLYLINE
  5
FB
330
17
100
AcDbEntity
  8
RIGHT
100
AcDbPolyline
 90
2
 70
0
 10
512.0
 20
20.0
 10
532.0
 20
20.0
  0
LWPOLYLINE
  5
FC
330
17
100
AcDbEntity
  8
RIGHT
100
AcDbPolyline
 90
2
 70
0
 10
532.0
 20
0.0
 10
532.0
 20
20.0
  0
LWPOLYLINE
  5
FD
330
17
100
AcDbEntity
  8
RIGHT
100
AcDbPolyline
 90
2
 70
0
 10
512.0
 20
0.0
 10
532.0
 20
0.0
  0
LWPOLYLINE
  5
FE
330
17
100
AcDbEntity
  8
RIGHT
100
AcDbPolyline
 90
2
 70
0
 10
532.0
 20
0.0
 10
532.0
 20
20.0
  0
LWPOLYLINE
  5
FF
330
17
100
AcDbEntity
  8
RIGHT
100
AcDbPolyline
 90
2
 70
0
 10
532.0
 20
20.0
 10
812.0
 20
20.0
  0
LWPOLYLINE
  5
100
330
17
100
AcDbEntity
  8
RIGHT
100
AcDbPolyline
 90
2
 70
0
 10
812.0
 20
0.0
 10
812.0
 20
20.0
  0
LWPOLYLINE
  5
101
330
17
100
AcDbEntity
  8
RIGHT
100
AcDbPolyline
 90
2
 70
0
 10
532.0
 20
0.0
 10
812.0
 20
0.0
  0
LWPOLYLINE
  5
102
330
17
100
AcDbEntity
  8
RIGHT
100
AcDbPolyline
 90
2
 70
0
 10
532.0
 20
0.0
 10
532.0
 20
20.0
  0
LWPOLYLINE
  5
103
330
17
100
AcDbEntity
  8
RIGHT
100
AcDbPolyline
 90
2
 70
0
 10
532.0
 20
20.0
 10
812.0
 20
20.0
  0
LWPOLYLINE
  5
104
330
17
100
AcDbEntity
  8
RIGHT
100
AcDbPolyline
 90
2
 70
0
 10
812.0
 20
0.0
 10
812.0
 20
20.0
  0
LWPOLYLINE
  5
105
330
17
100
AcDbEntity
  8
RIGHT
100
AcDbPolyline
 90
2
 70
0
 10
532.0
 20
0.0
 10
812.0
 20
0.0
  0
LWPOLYLINE
  5
106
330
17
100
AcDbEntity
  8
RIGHT
100
AcDbPolyline
 90
2
 70
0
 10
812.0
 20
0.0
 10
812.0
 20
20.0
  0
LWPOLYLINE
  5
107
330
17
100
AcDbEntity
  8
RIGHT
100
AcDbPolyline
 90
2
 70
0
 10
812.0
 20
20.0
 10
832.0
 20
20.0
  0
LWPOLYLINE
  5
108
330
17
100
AcDbEntity
  8
RIGHT
100
AcDbPolyline
 90
2
 70
0
 10
832.0
 20
0.0
 10
832.0
 20
20.0
  0
LWPOLYLINE
  5
109
330
17
100
AcDbEntity
  8
RIGHT
100
AcDbPolyline
 90
2
 70
0
 10
812.0
 20
0.0
 10
832.0
 20
0.0
  0
LWPOLYLINE
  5
10A
330
17
100
AcDbEntity
  8
RIGHT
100
AcDbPolyline
 90
2
 70
0
 10
812.0
 20
0.0
 10
812.0
 20
20.0
  0
LWPOLYLINE
  5
10B
330
17
100
AcDbEntity
  8
RIGHT
100
AcDbPolyline
 90
2
 70
0
 10
812.0
 20
20.0
 10
832.0
 20
20.0
  0
LWPOLYLINE
  5
10C
330
17
100
AcDbEntity
  8
RIGHT
100
AcDbPolyline
 90
2
 70
0
 10
832.0
 20
0.0
 10
832.0
 20
20.0
  0
LWPOLYLINE
  5
10D
330
17
100
AcDbEntity
  8
RIGHT
100
AcDbPolyline
 90
2
 70
0
 10
812.0
 20
0.0
 10
832.0
 20
0.0
  0
LWPOLYLINE
  5
10E
330
17
100
AcDbEntity
  8
RIGHT
100
AcDbPolyline
 90
2
 70
0
 10
532.0
 20
0.0
 10
532.0
 20
20.0
  0
LWPOLYLINE
  5
10F
330
17
100
AcDbEntity
  8
RIGHT
100
AcDbPolyline
 90
2
 70
0
 10
532.0
 20
20.0
 10
812.0
 20
20.0
  0
LWPOLYLINE
  5
110
330
17
100
AcDbEntity
  8
RIGHT
100
AcDbPolyline
 90
2
 70
0
 10
812.0
 20
0.0
 10
812.0
 20
20.0
  0
LWPOLYLINE
  5
111
330
17
100
AcDbEntity
  8
RIGHT
100
AcDbPolyline
 90
2
 70
0
 10
532.0
 20
0.0
 10
812.0
 20
0.0
  0
LWPOLYLINE
  5
112
330
17
100
AcDbEntity
  8
RIGHT
100
AcDbPolyline
 90
2
 70
0
 10
532.0
 20
0.0
 10
532.0
 20
20.0
  0
LWPOLYLINE
  5
113
330
17
100
AcDbEntity
  8
RIGHT
100
AcDbPolyline
 90
2
 70
0
 10
532.0
 20
20.0
 10
812.0
 20
20.0
  0
LWPOLYLINE
  5
114
330
17
100
AcDbEntity
  8
RIGHT
100
AcDbPolyline
 90
2
 70
0
 10
812.0
 20
0.0
 10
812.0
 20
20.0
  0
LWPOLYLINE
  5
115
330
17
100
AcDbEntity
  8
RIGHT
100
AcDbPolyline
 90
2
 70
0
 10
532.0
 20
0.0
 10
812.0
 20
0.0
  0
LWPOLYLINE
  5
116
330
17
100
AcDbEntity
  8
RIGHT
100
AcDbPolyline
 90
2
 70
0
 10
522.0
 20
22.0
 10
522.0
 20
40.0
  0
LWPOLYLINE
  5
117
330
17
100
AcDbEntity
  8
RIGHT
100
AcDbPolyline
 90
52
 70
0
 10
522.0
 20
22.0
 10
524.9493189759531
 20
22.0
 10
527.853929282601
 20
22.0
 10
530.6697999884916
 20
22.0
 10
533.3542453640642
 20
22.0
 10
535.866571953798
 20
22.0
 10
538.1686954475174
 20
22.0
 10
540.225717999713
 20
22.0
 10
542.0064572453068
 20
22.0
 10
543.4839189925215
 20
22.0
 10
544.6357064273107
 20
22.0
 10
545.4443596262304
 20
22.0
 10
545.8976202310809
 20
22.0
 10
545.9886172731208
 20
22.0
 10
545.7159713299502
 20
22.0
 10
545.0838154361477
 20
22.0
 10
544.1017324306789
 20
22.0
 10
542.7846096908265
 20
22.0
 10
541.1524134547258
 20
22.0
 10
539.2298861535467
 20
22.0
 10
537.0461713414586
 20
22.0
 10
534.6343719090565
 20
22.0
 10
532.0310482772828
 20
22.0
 10
529.275664178713
 20
22.0
 10
526.4099884275977
 20
22.0
 10
523.4774617472146
 20
22.0
 10
520.5225382527854
 20
22.0
 10
517.5900115724023
 20
22.0
 10
514.724335821287
 20
22.0
 10
511.9689517227172
 20
22.0
 10
509.36562809094346
 20
22.0
 10
506.95382865854145
 20
22.0
 10
504.7701138464534
 20
22.0
 10
502.8475865452742
 20
22.0
 10
501.2153903091735
 20
22.0
 10
499.8982675693211
 20
22.0
 10
498.9161845638523
 20
22.0
 10
498.2840286700498
 20
22.0
 10
498.0113827268792
 20
22.0
 10
498.10237976891915
 20
22.0
 10
498.55564037376956
 20
22.0
 10
499.36429357268935
 20
22.0
 10
500.51608100747853
 20
22.0
 10
501.9935427546931
 20
22.0
 10
503.77428200028703
 20
22.0
 10
505.8313045524826
 20
22.0
 10
508.13342804620197
 20
22.0
 10
510.64575463593576
 20
22.0
 10
513.3302000115084
 20
22.0
 10
516.146070717399
 20
22.0
 10
519.0506810240469
 20
22.0
 10
522.0
 20
22.0
  0
LWPOLYLINE
  5
118
330
17
100
AcDbEntity
  8
RIGHT
100
AcDbPolyline
 90
52
 70
0
 10
522.0
 20
40.0
 10
524.9493189759531
 20
40.0
 10
527.853929282601
 20
40.0
 10
530.6697999884916
 20
40.0
 10
533.3542453640642
 20
40.0
 10
535.866571953798
 20
40.0
 10
538.1686954475174
 20
40.0
 10
540.225717999713
 20
40.0
 10
542.0064572453068
 20
40.0
 10
543.4839189925215
 20
40.0
 10
544.6357064273107
 20
40.0
 10
545.4443596262304
 20
40.0
 10
545.8976202310809
 20
40.0
 10
545.9886172731208
 20
40.0
 10
545.7159713299502
 20
40.0
 10
545.0838154361477
 20
40.0
 10
544.1017324306789
 20
40.0
 10
542.7846096908265
 20
40.0
 10
541.1524134547258
 20
40.0
 10
539.2298861535467
 20
40.0
 10
537.0461713414586
 20
40.0
 10
534.6343719090565
 20
40.0
 10
532.0310482772828
 20
40.0
 10
529.275664178713
 20
40.0
 10
526.4099884275977
 20
40.0
 10
523.4774617472146
 20
40.0
 10
520.5225382527854
 20
40.0
 10
517.5900115724023
 20
40.0
 10
514.724335821287
 20
40.0
 10
511.9689517227172
 20
40.0
 10
509.36562809094346
 20
40.0
 10
506.95382865854145
 20
40.0
 10
504.7701138464534
 20
40.0
 10
502.8475865452742
 20
40.0
 10
501.2153903091735
 20
40.0
 10
499.8982675693211
 20
40.0
 10
498.9161845638523
 20
40.0
 10
498.2840286700498
 20
40.0
 10
498.0113827268792
 20
40.0
 10
498.10237976891915
 20
40.0
 10
498.55564037376956
 20
40.0
 10
499.36429357268935
 20
40.0
 10
500.51608100747853
 20
40.0
 10
501.9935427546931
 20
40.0
 10
503.77428200028703
 20
40.0
 10
505.8313045524826
 20
40.0
 10
508.13342804620197
 20
40.0
 10
510.64575463593576
 20
40.0
 10
513.3302000115084
 20
40.0
 10
516.146070717399
 20
40.0
 10
519.0506810240469
 20
40.0
 10
522.0
 20
40.0
  0
LWPOLYLINE
  5
119
330
17
100
AcDbEntity
  8
RIGHT
100
AcDbPolyline
 90
37
 70
0
 10
522.0
 20
22.0
 10
524.9520190203378
 20
22.0
 10
527.8143424365364
 20
22.0
 10
530.5
 20
22.0
 10
532.9273893646712
 20
22.0
 10
535.0227555330226
 20
22.0
 10
536.7224318643355
 20
22.0
 10
537.9747745533605
 20
22.0
 10
538.7417318012076
 20
22.0
 10
539.0
 20
22.0
 10
538.7417318012076
 20
22.0
 10
537.9747745533605
 20
22.0
 10
536.7224318643355
 20
22.0
 10
535.0227555330226
 20
22.0
 10
532.9273893646712
 20
22.0
 10
530.5
 20
22.0
 10
527.8143424365364
 20
22.0
 10
524.9520190203378
 20
22.0
 10
522.0
 20
22.0
 10
519.0479809796622
 20
22.0
 10
516.1856575634636
 20
22.0
 10
513.5
 20
22.0
 10
511.07261063532883
 20
22.0
 10
508.97724446697737
 20
22.0
 10
507.2775681356645
 20
22.0
 10
506.0252254466395
 20
22.0
 10
505.25826819879245
 20
22.0
 10
505.0
 20
22.0
 10
505.25826819879245
 20
22.0
 10
506.0252254466395
 20
22.0
 10
507.2775681356645
 20
22.0
 10
508.97724446697737
 20
22.0
 10
511.07261063532883
 20
22.0
 10
513.5
 20
22.0
 10
516.1856575634636
 20
22.0
 10
519.0479809796622
 20
22.0
 10
522.0
 20
22.0
  0
LWPOLYLINE
  5
11A
330
17
100
AcDbEntity
  8
RIGHT
100
AcDbPolyline
 90
37
 70
0
 10
522.0
 20
40.0
 10
524.9520190203378
 20
40.0
 10
527.8143424365364
 20
40.0
 10
530.5
 20
40.0
 10
532.9273893646712
 20
40.0
 10
535.0227555330226
 20
40.0
 10
536.7224318643355
 20
40.0
 10
537.9747745533605
 20
40.0
 10
538.7417318012076
 20
40.0
 10
539.0
 20
40.0
 10
538.7417318012076
 20
40.0
 10
537.9747745533605
 20
40.0
 10
536.7224318643355
 20
40.0
 10
535.0227555330226
 20
40.0
 10
532.9273893646712
 20
40.0
 10
530.5
 20
40.0
 10
527.8143424365364
 20
40.0
 10
524.9520190203378
 20
40.0
 10
522.0
 20
40.0
 10
519.0479809796622
 20
40.0
 10
516.1856575634636
 20
40.0
 10
513.5
 20
40.0
 10
511.07261063532883
 20
40.0
 10
508.97724446697737
 20
40.0
 10
507.2775681356645
 20
40.0
 10
506.0252254466395
 20
40.0
 10
505.25826819879245
 20
40.0
 10
505.0
 20
40.0
 10
505.25826819879245
 20
40.0
 10
506.0252254466395
 20
40.0
 10
507.2775681356645
 20
40.0
 10
508.97724446697737
 20
40.0
 10
511.07261063532883
 20
40.0
 10
513.5
 20
40.0
 10
516.1856575634636
 20
40.0
 10
519.0479809796622
 20
40.0
 10
522.0
 20
40.0
  0
LWPOLYLINE
  5
11B
330
17
100
AcDbEntity
  8
RIGHT
100
AcDbPolyline
 90
2
 70
0
 10
522.0
 20
22.0
 10
522.0
 20
40.0
  0
LWPOLYLINE
  5
11C
330
17
100
AcDbEntity
  8
RIGHT
100
AcDbPolyline
 90
2
 70
0
 10
522.0
 20
24.0
 10
522.0
 20
124.0
  0
LWPOLYLINE
  5
11D
330
17
100
AcDbEntity
  8
RIGHT
100
AcDbPolyline
 90
35
 70
0
 10
522.0
 20
24.0
 10
524.9399922850652
 20
24.0
 10
527.7798666589945
 20
24.0
 10
530.4229146060377
 20
24.0
 10
532.7791302983449
 20
24.0
 10
534.7682756364838
 20
24.0
 10
536.322612661681
 20
24.0
 10
537.389210290765
 20
24.0
 10
537.9317468207205
 20
24.0
 10
537.9317468207205
 20
24.0
 10
537.389210290765
 20
24.0
 10
536.322612661681
 20
24.0
 10
534.7682756364838
 20
24.0
 10
532.7791302983449
 20
24.0
 10
530.4229146060377
 20
24.0
 10
527.7798666589945
 20
24.0
 10
524.9399922850652
 20
24.0
 10
522.0
 20
24.0
 10
519.0600077149348
 20
24.0
 10
516.2201333410055
 20
24.0
 10
513.5770853939623
 20
24.0
 10
511.2208697016551
 20
24.0
 10
509.23172436351615
 20
24.0
 10
507.677387338319
 20
24.0
 10
506.6107897092349
 20
24.0
 10
506.06825317927945
 20
24.0
 10
506.06825317927945
 20
24.0
 10
506.6107897092349
 20
24.0
 10
507.677387338319
 20
24.0
 10
509.23172436351615
 20
24.0
 10
511.2208697016551
 20
24.0
 10
513.5770853939623
 20
24.0
 10
516.2201333410055
 20
24.0
 10
519.0600077149348
 20
24.0
 10
522.0
 20
24.0
  0
LWPOLYLINE
  5
11E
330
17
100
AcDbEntity
  8
RIGHT
100
AcDbPolyline
 90
35
 70
0
 10
522.0
 20
124.0
 10
524.9399922850652
 20
124.0
 10
527.7798666589945
 20
124.0
 10
530.4229146060377
 20
124.0
 10
532.7791302983449
 20
124.0
 10
534.7682756364838
 20
124.0
 10
536.322612661681
 20
124.0
 10
537.389210290765
 20
124.0
 10
537.9317468207205
 20
124.0
 10
537.9317468207205
 20
124.0
 10
537.389210290765
 20
124.0
 10
536.322612661681
 20
124.0
 10
534.7682756364838
 20
124.0
 10
532.7791302983449
 20
124.0
 10
530.4229146060377
 20
124.0
 10
527.7798666589945
 20
124.0
 10
524.9399922850652
 20
124.0
 10
522.0
 20
124.0
 10
519.0600077149348
 20
124.0
 10
516.2201333410055
 20
124.0
 10
513.5770853939623
 20
124.0
 10
511.2208697016551
 20
124.0
 10
509.23172436351615
 20
124.0
 10
507.677387338319
 20
124.0
 10
506.6107897092349
 20
124.0
 10
506.06825317927945
 20
124.0
 10
506.06825317927945
 20
124.0
 10
506.6107897092349
 20
124.0
 10
507.677387338319
 20
124.0
 10
509.23172436351615
 20
124.0
 10
511.2208697016551
 20
124.0
 10
513.5770853939623
 20
124.0
 10
516.2201333410055
 20
124.0
 10
519.0600077149348
 20
124.0
 10
522.0
 20
124.0
  0
LWPOLYLINE
  5
11F
330
17
100
AcDbEntity
  8
RIGHT
100
AcDbPolyline
 90
2
 70
0
 10
522.0
 20
22.0
 10
522.0
 20
40.0
  0
LWPOLYLINE
  5
120
330
17
100
AcDbEntity
  8
RIGHT
100
AcDbPolyline
 90
52
 70
0
 10
522.0
 20
22.0
 10
524.9493189759531
 20
22.0
 10
527.853929282601
 20
22.0
 10
530.6697999884916
 20
22.0
 10
533.3542453640642
 20
22.0
 10
535.866571953798
 20
22.0
 10
538.1686954475174
 20
22.0
 10
540.225717999713
 20
22.0
 10
542.0064572453068
 20
22.0
 10
543.4839189925215
 20
22.0
 10
544.6357064273107
 20
22.0
 10
545.4443596262304
 20
22.0
 10
545.8976202310809
 20
22.0
 10
545.9886172731208
 20
22.0
 10
545.7159713299502
 20
22.0
 10
545.0838154361477
 20
22.0
 10
544.1017324306789
 20
22.0
 10
542.7846096908265
 20
22.0
 10
541.1524134547258
 20
22.0
 10
539.2298861535467
 20
22.0
 10
537.0461713414586
 20
22.0
 10
534.6343719090565
 20
22.0
 10
532.0310482772828
 20
22.0
 10
529.275664178713
 20
22.0
 10
526.4099884275977
 20
22.0
 10
523.4774617472146
 20
22.0
 10
520.5225382527854
 20
22.0
 10
517.5900115724023
 20
22.0
 10
514.724335821287
 20
22.0
 10
511.9689517227172
 20
22.0
 10
509.36562809094346
 20
22.0
 10
506.95382865854145
 20
22.0
 10
504.7701138464534
 20
22.0
 10
502.8475865452742
 20
22.0
 10
501.2153903091735
 20
22.0
 10
499.8982675693211
 20
22.0
 10
498.9161845638523
 20
22.0
 10
498.2840286700498
 20
22.0
 10
498.0113827268792
 20
22.0
 10
498.10237976891915
 20
22.0
 10
498.55564037376956
 20
22.0
 10
499.36429357268935
 20
22.0
 10
500.51608100747853
 20
22.0
 10
501.9935427546931
 20
22.0
 10
503.77428200028703
 20
22.0
 10
505.8313045524826
 20
22.0
 10
508.13342804620197
 20
22.0
 10
510.64575463593576
 20
22.0
 10
513.3302000115084
 20
22.0
 10
516.146070717399
 20
22.0
 10
519.0506810240469
 20
22.0
 10
522.0
 20
22.0
  0
LWPOLYLINE
  5
121
330
17
100
AcDbEntity
  8
RIGHT
100
AcDbPolyline
 90
52
 70
0
 10
522.0
 20
40.0
 10
524.9493189759531
 20
40.0
 10
527.853929282601
 20
40.0
 10
530.6697999884916
 20
40.0
 10
533.3542453640642
 20
40.0
 10
535.866571953798
 20
40.0
 10
538.1686954475174
 20
40.0
 10
540.225717999713
 20
40.0
 10
542.0064572453068
 20
40.0
 10
543.4839189925215
 20
40.0
 10
544.6357064273107
 20
40.0
 10
545.4443596262304
 20
40.0
 10
545.8976202310809
 20
40.0
 10
545.9886172731208
 20
40.0
 10
545.7159713299502
 20
40.0
 10
545.0838154361477
 20
40.0
 10
544.1017324306789
 20
40.0
 10
542.7846096908265
 20
40.0
 10
541.1524134547258
 20
40.0
 10
539.2298861535467
 20
40.0
 10
537.0461713414586
 20
40.0
 10
534.6343719090565
 20
40.0
 10
532.0310482772828
 20
40.0
 10
529.275664178713
 20
40.0
 10
526.4099884275977
 20
40.0
 10
523.4774617472146
 20
40.0
 10
520.5225382527854
 20
40.0
 10
517.5900115724023
 20
40.0
 10
514.724335821287
 20
40.0
 10
511.9689517227172
 20
40.0
 10
509.36562809094346
 20
40.0
 10
506.95382865854145
 20
40.0
 10
504.7701138464534
 20
40.0
 10
502.8475865452742
 20
40.0
 10
501.2153903091735
 20
40.0
 10
499.8982675693211
 20
40.0
 10
498.9161845638523
 20
40.0
 10
498.2840286700498
 20
40.0
 10
498.0113827268792
 20
40.0
 10
498.10237976891915
 20
40.0
 10
498.55564037376956
 20
40.0
 10
499.36429357268935
 20
40.0
 10
500.51608100747853
 20
40.0
 10
501.9935427546931
 20
40.0
 10
503.77428200028703
 20
40.0
 10
505.8313045524826
 20
40.0
 10
508.13342804620197
 20
40.0
 10
510.64575463593576
 20
40.0
 10
513.3302000115084
 20
40.0
 10
516.146070717399
 20
40.0
 10
519.0506810240469
 20
40.0
 10
522.0
 20
40.0
  0
LWPOLYLINE
  5
122
330
17
100
AcDbEntity
  8
RIGHT
100
AcDbPolyline
 90
37
 70
0
 10
522.0
 20
22.0
 10
524.9520190203378
 20
22.0
 10
527.8143424365364
 20
22.0
 10
530.5
 20
22.0
 10
532.9273893646712
 20
22.0
 10
535.0227555330226
 20
22.0
 10
536.7224318643355
 20
22.0
 10
537.9747745533605
 20
22.0
 10
538.7417318012076
 20
22.0
 10
539.0
 20
22.0
 10
538.7417318012076
 20
22.0
 10
537.9747745533605
 20
22.0
 10
536.7224318643355
 20
22.0
 10
535.0227555330226
 20
22.0
 10
532.9273893646712
 20
22.0
 10
530.5
 20
22.0
 10
527.8143424365364
 20
22.0
 10
524.9520190203378
 20
22.0
 10
522.0
 20
22.0
 10
519.0479809796622
 20
22.0
 10
516.1856575634636
 20
22.0
 10
513.5
 20
22.0
 10
511.07261063532883
 20
22.0
 10
508.97724446697737
 20
22.0
 10
507.2775681356645
 20
22.0
 10
506.0252254466395
 20
22.0
 10
505.25826819879245
 20
22.0
 10
505.0
 20
22.0
 10
505.25826819879245
 20
22.0
 10
506.0252254466395
 20
22.0
 10
507.2775681356645
 20
22.0
 10
508.97724446697737
 20
22.0
 10
511.07261063532883
 20
22.0
 10
513.5
 20
22.0
 10
516.1856575634636
 20
22.0
 10
519.0479809796622
 20
22.0
 10
522.0
 20
22.0
  0
LWPOLYLINE
  5
123
330
17
100
AcDbEntity
  8
RIGHT
100
AcDbPolyline
 90
37
 70
0
 10
522.0
 20
40.0
 10
524.9520190203378
 20
40.0
 10
527.8143424365364
 20
40.0
 10
530.5
 20
40.0
 10
532.9273893646712
 20
40.0
 10
535.0227555330226
 20
40.0
 10
536.7224318643355
 20
40.0
 10
537.9747745533605
 20
40.0
 10
538.7417318012076
 20
40.0
 10
539.0
 20
40.0
 10
538.7417318012076
 20
40.0
 10
537.9747745533605
 20
40.0
 10
536.7224318643355
 20
40.0
 10
535.0227555330226
 20
40.0
 10
532.9273893646712
 20
40.0
 10
530.5
 20
40.0
 10
527.8143424365364
 20
40.0
 10
524.9520190203378
 20
40.0
 10
522.0
 20
40.0
 10
519.0479809796622
 20
40.0
 10
516.1856575634636
 20
40.0
 10
513.5
 20
40.0
 10
511.07261063532883
 20
40.0
 10
508.97724446697737
 20
40.0
 10
507.2775681356645
 20
40.0
 10
506.0252254466395
 20
40.0
 10
505.25826819879245
 20
40.0
 10
505.0
 20
40.0
 10
505.25826819879245
 20
40.0
 10
506.0252254466395
 20
40.0
 10
507.2775681356645
 20
40.0
 10
508.97724446697737
 20
40.0
 10
511.07261063532883
 20
40.0
 10
513.5
 20
40.0
 10
516.1856575634636
 20
40.0
 10
519.0479809796622
 20
40.0
 10
522.0
 20
40.0
  0
LWPOLYLINE
  5
124
330
17
100
AcDbEntity
  8
RIGHT
100
AcDbPolyline
 90
2
 70
0
 10
522.0
 20
22.0
 10
522.0
 20
40.0
  0
LWPOLYLINE
  5
125
330
17
100
AcDbEntity
  8
RIGHT
100
AcDbPolyline
 90
2
 70
0
 10
522.0
 20
24.0
 10
522.0
 20
124.0
  0
LWPOLYLINE
  5
126
330
17
100
AcDbEntity
  8
RIGHT
100
AcDbPolyline
 90
35
 70
0
 10
522.0
 20
24.0
 10
524.9399922850652
 20
24.0
 10
527.7798666589945
 20
24.0
 10
530.4229146060377
 20
24.0
 10
532.7791302983449
 20
24.0
 10
534.7682756364838
 20
24.0
 10
536.322612661681
 20
24.0
 10
537.389210290765
 20
24.0
 10
537.9317468207205
 20
24.0
 10
537.9317468207205
 20
24.0
 10
537.389210290765
 20
24.0
 10
536.322612661681
 20
24.0
 10
534.7682756364838
 20
24.0
 10
532.7791302983449
 20
24.0
 10
530.4229146060377
 20
24.0
 10
527.7798666589945
 20
24.0
 10
524.9399922850652
 20
24.0
 10
522.0
 20
24.0
 10
519.0600077149348
 20
24.0
 10
516.2201333410055
 20
24.0
 10
513.5770853939623
 20
24.0
 10
511.2208697016551
 20
24.0
 10
509.23172436351615
 20
24.0
 10
507.677387338319
 20
24.0
 10
506.6107897092349
 20
24.0
 10
506.06825317927945
 20
24.0
 10
506.06825317927945
 20
24.0
 10
506.6107897092349
 20
24.0
 10
507.677387338319
 20
24.0
 10
509.23172436351615
 20
24.0
 10
511.2208697016551
 20
24.0
 10
513.5770853939623
 20
24.0
 10
516.2201333410055
 20
24.0
 10
519.0600077149348
 20
24.0
 10
522.0
 20
24.0
  0
LWPOLYLINE
  5
127
330
17
100
AcDbEntity
  8
RIGHT
100
AcDbPolyline
 90
35
 70
0
 10
522.0
 20
124.0
 10
524.9399922850652
 20
124.0
 10
527.7798666589945
 20
124.0
 10
530.4229146060377
 20
124.0
 10
532.7791302983449
 20
124.0
 10
534.7682756364838
 20
124.0
 10
536.322612661681
 20
124.0
 10
537.389210290765
 20
124.0
 10
537.9317468207205
 20
124.0
 10
537.9317468207205
 20
124.0
 10
537.389210290765
 20
124.0
 10
536.322612661681
 20
124.0
 10
534.7682756364838
 20
124.0
 10
532.7791302983449
 20
124.0
 10
530.4229146060377
 20
124.0
 10
527.7798666589945
 20
124.0
 10
524.9399922850652
 20
124.0
 10
522.0
 20
124.0
 10
519.0600077149348
 20
124.0
 10
516.2201333410055
 20
124.0
 10
513.5770853939623
 20
124.0
 10
511.2208697016551
 20
124.0
 10
509.23172436351615
 20
124.0
 10
507.677387338319
 20
124.0
 10
506.6107897092349
 20
124.0
 10
506.06825317927945
 20
124.0
 10
506.06825317927945
 20
124.0
 10
506.6107897092349
 20
124.0
 10
507.677387338319
 20
124.0
 10
509.23172436351615
 20
124.0
 10
511.2208697016551
 20
124.0
 10
513.5770853939623
 20
124.0
 10
516.2201333410055
 20
124.0
 10
519.0600077149348
 20
124.0
 10
522.0
 20
124.0
  0
LWPOLYLINE
  5
128
330
17
100
AcDbEntity
  8
RIGHT
100
AcDbPolyline
 90
2
 70
0
 10
822.0
 20
22.0
 10
822.0
 20
40.0
  0
LWPOLYLINE
  5
129
330
17
100
AcDbEntity
  8
RIGHT
100
AcDbPolyline
 90
52
 70
0
 10
822.0
 20
22.0
 10
824.9493189759531
 20
22.0
 10
827.853929282601
 20
22.0
 10
830.6697999884916
 20
22.0
 10
833.3542453640642
 20
22.0
 10
835.866571953798
 20
22.0
 10
838.1686954475174
 20
22.0
 10
840.225717999713
 20
22.0
 10
842.0064572453068
 20
22.0
 10
843.4839189925215
 20
22.0
 10
844.6357064273107
 20
22.0
 10
845.4443596262304
 20
22.0
 10
845.8976202310809
 20
22.0
 10
845.9886172731208
 20
22.0
 10
845.7159713299502
 20
22.0
 10
845.0838154361477
 20
22.0
 10
844.1017324306789
 20
22.0
 10
842.7846096908265
 20
22.0
 10
841.1524134547258
 20
22.0
 10
839.2298861535467
 20
22.0
 10
837.0461713414586
 20
22.0
 10
834.6343719090565
 20
22.0
 10
832.0310482772828
 20
22.0
 10
829.275664178713
 20
22.0
 10
826.4099884275977
 20
22.0
 10
823.4774617472146
 20
22.0
 10
820.5225382527854
 20
22.0
 10
817.5900115724023
 20
22.0
 10
814.724335821287
 20
22.0
 10
811.9689517227172
 20
22.0
 10
809.3656280909435
 20
22.0
 10
806.9538286585414
 20
22.0
 10
804.7701138464533
 20
22.0
 10
802.8475865452742
 20
22.0
 10
801.2153903091735
 20
22.0
 10
799.8982675693211
 20
22.0
 10
798.9161845638523
 20
22.0
 10
798.2840286700498
 20
22.0
 10
798.0113827268792
 20
22.0
 10
798.1023797689191
 20
22.0
 10
798.5556403737696
 20
22.0
 10
799.3642935726893
 20
22.0
 10
800.5160810074785
 20
22.0
 10
801.9935427546932
 20
22.0
 10
803.774282000287
 20
22.0
 10
805.8313045524826
 20
22.0
 10
808.133428046202
 20
22.0
 10
810.6457546359358
 20
22.0
 10
813.3302000115084
 20
22.0
 10
816.146070717399
 20
22.0
 10
819.0506810240469
 20
22.0
 10
822.0
 20
22.0
  0
LWPOLYLINE
  5
12A
330
17
100
AcDbEntity
  8
RIGHT
100
AcDbPolyline
 90
52
 70
0
 10
822.0
 20
40.0
 10
824.9493189759531
 20
40.0
 10
827.853929282601
 20
40.0
 10
830.6697999884916
 20
40.0
 10
833.3542453640642
 20
40.0
 10
835.866571953798
 20
40.0
 10
838.1686954475174
 20
40.0
 10
840.225717999713
 20
40.0
 10
842.0064572453068
 20
40.0
 10
843.4839189925215
 20
40.0
 10
844.6357064273107
 20
40.0
 10
845.4443596262304
 20
40.0
 10
845.8976202310809
 20
40.0
 10
845.9886172731208
 20
40.0
 10
845.7159713299502
 20
40.0
 10
845.0838154361477
 20
40.0
 10
844.1017324306789
 20
40.0
 10
842.7846096908265
 20
40.0
 10
841.1524134547258
 20
40.0
 10
839.2298861535467
 20
40.0
 10
837.0461713414586
 20
40.0
 10
834.6343719090565
 20
40.0
 10
832.0310482772828
 20
40.0
 10
829.275664178713
 20
40.0
 10
826.4099884275977
 20
40.0
 10
823.4774617472146
 20
40.0
 10
820.5225382527854
 20
40.0
 10
817.5900115724023
 20
40.0
 10
814.724335821287
 20
40.0
 10
811.9689517227172
 20
40.0
 10
809.3656280909435
 20
40.0
 10
806.9538286585414
 20
40.0
 10
804.7701138464533
 20
40.0
 10
802.8475865452742
 20
40.0
 10
801.2153903091735
 20
40.0
 10
799.8982675693211
 20
40.0
 10
798.9161845638523
 20
40.0
 10
798.2840286700498
 20
40.0
 10
798.0113827268792
 20
40.0
 10
798.1023797689191
 20
40.0
 10
798.5556403737696
 20
40.0
 10
799.3642935726893
 20
40.0
 10
800.5160810074785
 20
40.0
 10
801.9935427546932
 20
40.0
 10
803.774282000287
 20
40.0
 10
805.8313045524826
 20
40.0
 10
808.133428046202
 20
40.0
 10
810.6457546359358
 20
40.0
 10
813.3302000115084
 20
40.0
 10
816.146070717399
 20
40.0
 10
819.0506810240469
 20
40.0
 10
822.0
 20
40.0
  0
LWPOLYLINE
  5
12B
330
17
100
AcDbEntity
  8
RIGHT
100
AcDbPolyline
 90
37
 70
0
 10
822.0
 20
22.0
 10
824.9520190203378
 20
22.0
 10
827.8143424365364
 20
22.0
 10
830.5
 20
22.0
 10
832.9273893646712
 20
22.0
 10
835.0227555330226
 20
22.0
 10
836.7224318643355
 20
22.0
 10
837.9747745533605
 20
22.0
 10
838.7417318012076
 20
22.0
 10
839.0
 20
22.0
 10
838.7417318012076
 20
22.0
 10
837.9747745533605
 20
22.0
 10
836.7224318643355
 20
22.0
 10
835.0227555330226
 20
22.0
 10
832.9273893646712
 20
22.0
 10
830.5
 20
22.0
 10
827.8143424365364
 20
22.0
 10
824.9520190203378
 20
22.0
 10
822.0
 20
22.0
 10
819.0479809796622
 20
22.0
 10
816.1856575634636
 20
22.0
 10
813.5
 20
22.0
 10
811.0726106353288
 20
22.0
 10
808.9772444669774
 20
22.0
 10
807.2775681356645
 20
22.0
 10
806.0252254466395
 20
22.0
 10
805.2582681987924
 20
22.0
 10
805.0
 20
22.0
 10
805.2582681987924
 20
22.0
 10
806.0252254466395
 20
22.0
 10
807.2775681356645
 20
22.0
 10
808.9772444669774
 20
22.0
 10
811.0726106353288
 20
22.0
 10
813.5
 20
22.0
 10
816.1856575634636
 20
22.0
 10
819.0479809796622
 20
22.0
 10
822.0
 20
22.0
  0
LWPOLYLINE
  5
12C
330
17
100
AcDbEntity
  8
RIGHT
100
AcDbPolyline
 90
37
 70
0
 10
822.0
 20
40.0
 10
824.9520190203378
 20
40.0
 10
827.8143424365364
 20
40.0
 10
830.5
 20
40.0
 10
832.9273893646712
 20
40.0
 10
835.0227555330226
 20
40.0
 10
836.7224318643355
 20
40.0
 10
837.9747745533605
 20
40.0
 10
838.7417318012076
 20
40.0
 10
839.0
 20
40.0
 10
838.7417318012076
 20
40.0
 10
837.9747745533605
 20
40.0
 10
836.7224318643355
 20
40.0
 10
835.0227555330226
 20
40.0
 10
832.9273893646712
 20
40.0
 10
830.5
 20
40.0
 10
827.8143424365364
 20
40.0
 10
824.9520190203378
 20
40.0
 10
822.0
 20
40.0
 10
819.0479809796622
 20
40.0
 10
816.1856575634636
 20
40.0
 10
813.5
 20
40.0
 10
811.0726106353288
 20
40.0
 10
808.9772444669774
 20
40.0
 10
807.2775681356645
 20
40.0
 10
806.0252254466395
 20
40.0
 10
805.2582681987924
 20
40.0
 10
805.0
 20
40.0
 10
805.2582681987924
 20
40.0
 10
806.0252254466395
 20
40.0
 10
807.2775681356645
 20
40.0
 10
808.9772444669774
 20
40.0
 10
811.0726106353288
 20
40.0
 10
813.5
 20
40.0
 10
816.1856575634636
 20
40.0
 10
819.0479809796622
 20
40.0
 10
822.0
 20
40.0
  0
LWPOLYLINE
  5
12D
330
17
100
AcDbEntity
  8
RIGHT
100
AcDbPolyline
 90
2
 70
0
 10
822.0
 20
22.0
 10
822.0
 20
40.0
  0
LWPOLYLINE
  5
12E
330
17
100
AcDbEntity
  8
RIGHT
100
AcDbPolyline
 90
2
 70
0
 10
822.0
 20
24.0
 10
822.0
 20
124.0
  0
LWPOLYLINE
  5
12F
330
17
100
AcDbEntity
  8
RIGHT
100
AcDbPolyline
 90
35
 70
0
 10
822.0
 20
24.0
 10
824.9399922850652
 20
24.0
 10
827.7798666589945
 20
24.0
 10
830.4229146060377
 20
24.0
 10
832.7791302983449
 20
24.0
 10
834.7682756364838
 20
24.0
 10
836.322612661681
 20
24.0
 10
837.389210290765
 20
24.0
 10
837.9317468207205
 20
24.0
 10
837.9317468207205
 20
24.0
 10
837.389210290765
 20
24.0
 10
836.322612661681
 20
24.0
 10
834.7682756364838
 20
24.0
 10
832.7791302983449
 20
24.0
 10
830.4229146060377
 20
24.0
 10
827.7798666589945
 20
24.0
 10
824.9399922850652
 20
24.0
 10
822.0
 20
24.0
 10
819.0600077149348
 20
24.0
 10
816.2201333410055
 20
24.0
 10
813.5770853939623
 20
24.0
 10
811.2208697016551
 20
24.0
 10
809.2317243635162
 20
24.0
 10
807.677387338319
 20
24.0
 10
806.610789709235
 20
24.0
 10
806.0682531792795
 20
24.0
 10
806.0682531792795
 20
24.0
 10
806.610789709235
 20
24.0
 10
807.677387338319
 20
24.0
 10
809.2317243635162
 20
24.0
 10
811.2208697016551
 20
24.0
 10
813.5770853939623
 20
24.0
 10
816.2201333410055
 20
24.0
 10
819.0600077149348
 20
24.0
 10
822.0
 20
24.0
  0
LWPOLYLINE
  5
130
330
17
100
AcDbEntity
  8
RIGHT
100
AcDbPolyline
 90
35
 70
0
 10
822.0
 20
124.0
 10
824.9399922850652
 20
124.0
 10
827.7798666589945
 20
124.0
 10
830.4229146060377
 20
124.0
 10
832.7791302983449
 20
124.0
 10
834.7682756364838
 20
124.0
 10
836.322612661681
 20
124.0
 10
837.389210290765
 20
124.0
 10
837.9317468207205
 20
124.0
 10
837.9317468207205
 20
124.0
 10
837.389210290765
 20
124.0
 10
836.322612661681
 20
124.0
 10
834.7682756364838
 20
124.0
 10
832.7791302983449
 20
124.0
 10
830.4229146060377
 20
124.0
 10
827.7798666589945
 20
124.0
 10
824.9399922850652
 20
124.0
 10
822.0
 20
124.0
 10
819.0600077149348
 20
124.0
 10
816.2201333410055
 20
124.0
 10
813.5770853939623
 20
124.0
 10
811.2208697016551
 20
124.0
 10
809.2317243635162
 20
124.0
 10
807.677387338319
 20
124.0
 10
806.610789709235
 20
124.0
 10
806.0682531792795
 20
124.0
 10
806.0682531792795
 20
124.0
 10
806.610789709235
 20
124.0
 10
807.677387338319
 20
124.0
 10
809.2317243635162
 20
124.0
 10
811.2208697016551
 20
124.0
 10
813.5770853939623
 20
124.0
 10
816.2201333410055
 20
124.0
 10
819.0600077149348
 20
124.0
 10
822.0
 20
124.0
  0
LWPOLYLINE
  5
131
330
17
100
AcDbEntity
  8
RIGHT
100
AcDbPolyline
 90
2
 70
0
 10
822.0
 20
22.0
 10
822.0
 20
40.0
  0
LWPOLYLINE
  5
132
330
17
100
AcDbEntity
  8
RIGHT
100
AcDbPolyline
 90
52
 70
0
 10
822.0
 20
22.0
 10
824.9493189759531
 20
22.0
 10
827.853929282601
 20
22.0
 10
830.6697999884916
 20
22.0
 10
833.3542453640642
 20
22.0
 10
835.866571953798
 20
22.0
 10
838.1686954475174
 20
22.0
 10
840.225717999713
 20
22.0
 10
842.0064572453068
 20
22.0
 10
843.4839189925215
 20
22.0
 10
844.6357064273107
 20
22.0
 10
845.4443596262304
 20
22.0
 10
845.8976202310809
 20
22.0
 10
845.9886172731208
 20
22.0
 10
845.7159713299502
 20
22.0
 10
845.0838154361477
 20
22.0
 10
844.1017324306789
 20
22.0
 10
842.7846096908265
 20
22.0
 10
841.1524134547258
 20
22.0
 10
839.2298861535467
 20
22.0
 10
837.0461713414586
 20
22.0
 10
834.6343719090565
 20
22.0
 10
832.0310482772828
 20
22.0
 10
829.275664178713
 20
22.0
 10
826.4099884275977
 20
22.0
 10
823.4774617472146
 20
22.0
 10
820.5225382527854
 20
22.0
 10
817.5900115724023
 20
22.0
 10
814.724335821287
 20
22.0
 10
811.9689517227172
 20
22.0
 10
809.3656280909435
 20
22.0
 10
806.9538286585414
 20
22.0
 10
804.7701138464533
 20
22.0
 10
802.8475865452742
 20
22.0
 10
801.2153903091735
 20
22.0
 10
799.8982675693211
 20
22.0
 10
798.9161845638523
 20
22.0
 10
798.2840286700498
 20
22.0
 10
798.0113827268792
 20
22.0
 10
798.1023797689191
 20
22.0
 10
798.5556403737696
 20
22.0
 10
799.3642935726893
 20
22.0
 10
800.5160810074785
 20
22.0
 10
801.9935427546932
 20
22.0
 10
803.774282000287
 20
22.0
 10
805.8313045524826
 20
22.0
 10
808.133428046202
 20
22.0
 10
810.6457546359358
 20
22.0
 10
813.3302000115084
 20
22.0
 10
816.146070717399
 20
22.0
 10
819.0506810240469
 20
22.0
 10
822.0
 20
22.0
  0
LWPOLYLINE
  5
133
330
17
100
AcDbEntity
  8
RIGHT
100
AcDbPolyline
 90
52
 70
0
 10
822.0
 20
40.0
 10
824.9493189759531
 20
40.0
 10
827.853929282601
 20
40.0
 10
830.6697999884916
 20
40.0
 10
833.3542453640642
 20
40.0
 10
835.866571953798
 20
40.0
 10
838.1686954475174
 20
40.0
 10
840.225717999713
 20
40.0
 10
842.0064572453068
 20
40.0
 10
843.4839189925215
 20
40.0
 10
844.6357064273107
 20
40.0
 10
845.4443596262304
 20
40.0
 10
845.8976202310809
 20
40.0
 10
845.9886172731208
 20
40.0
 10
845.7159713299502
 20
40.0
 10
845.0838154361477
 20
40.0
 10
844.1017324306789
 20
40.0
 10
842.7846096908265
 20
40.0
 10
841.1524134547258
 20
40.0
 10
839.2298861535467
 20
40.0
 10
837.0461713414586
 20
40.0
 10
834.6343719090565
 20
40.0
 10
832.0310482772828
 20
40.0
 10
829.275664178713
 20
40.0
 10
826.4099884275977
 20
40.0
 10
823.4774617472146
 20
40.0
 10
820.5225382527854
 20
40.0
 10
817.5900115724023
 20
40.0
 10
814.724335821287
 20
40.0
 10
811.9689517227172
 20
40.0
 10
809.3656280909435
 20
40.0
 10
806.9538286585414
 20
40.0
 10
804.7701138464533
 20
40.0
 10
802.8475865452742
 20
40.0
 10
801.2153903091735
 20
40.0
 10
799.8982675693211
 20
40.0
 10
798.9161845638523
 20
40.0
 10
798.2840286700498
 20
40.0
 10
798.0113827268792
 20
40.0
 10
798.1023797689191
 20
40.0
 10
798.5556403737696
 20
40.0
 10
799.3642935726893
 20
40.0
 10
800.5160810074785
 20
40.0
 10
801.9935427546932
 20
40.0
 10
803.774282000287
 20
40.0
 10
805.8313045524826
 20
40.0
 10
808.133428046202
 20
40.0
 10
810.6457546359358
 20
40.0
 10
813.3302000115084
 20
40.0
 10
816.146070717399
 20
40.0
 10
819.0506810240469
 20
40.0
 10
822.0
 20
40.0
  0
LWPOLYLINE
  5
134
330
17
100
AcDbEntity
  8
RIGHT
100
AcDbPolyline
 90
37
 70
0
 10
822.0
 20
22.0
 10
824.9520190203378
 20
22.0
 10
827.8143424365364
 20
22.0
 10
830.5
 20
22.0
 10
832.9273893646712
 20
22.0
 10
835.0227555330226
 20
22.0
 10
836.7224318643355
 20
22.0
 10
837.9747745533605
 20
22.0
 10
838.7417318012076
 20
22.0
 10
839.0
 20
22.0
 10
838.7417318012076
 20
22.0
 10
837.9747745533605
 20
22.0
 10
836.7224318643355
 20
22.0
 10
835.0227555330226
 20
22.0
 10
832.9273893646712
 20
22.0
 10
830.5
 20
22.0
 10
827.8143424365364
 20
22.0
 10
824.9520190203378
 20
22.0
 10
822.0
 20
22.0
 10
819.0479809796622
 20
22.0
 10
816.1856575634636
 20
22.0
 10
813.5
 20
22.0
 10
811.0726106353288
 20
22.0
 10
808.9772444669774
 20
22.0
 10
807.2775681356645
 20
22.0
 10
806.0252254466395
 20
22.0
 10
805.2582681987924
 20
22.0
 10
805.0
 20
22.0
 10
805.2582681987924
 20
22.0
 10
806.0252254466395
 20
22.0
 10
807.2775681356645
 20
22.0
 10
808.9772444669774
 20
22.0
 10
811.0726106353288
 20
22.0
 10
813.5
 20
22.0
 10
816.1856575634636
 20
22.0
 10
819.0479809796622
 20
22.0
 10
822.0
 20
22.0
  0
LWPOLYLINE
  5
135
330
17
100
AcDbEntity
  8
RIGHT
100
AcDbPolyline
 90
37
 70
0
 10
822.0
 20
40.0
 10
824.9520190203378
 20
40.0
 10
827.8143424365364
 20
40.0
 10
830.5
 20
40.0
 10
832.9273893646712
 20
40.0
 10
835.0227555330226
 20
40.0
 10
836.7224318643355
 20
40.0
 10
837.9747745533605
 20
40.0
 10
838.7417318012076
 20
40.0
 10
839.0
 20
40.0
 10
838.7417318012076
 20
40.0
 10
837.9747745533605
 20
40.0
 10
836.7224318643355
 20
40.0
 10
835.0227555330226
 20
40.0
 10
832.9273893646712
 20
40.0
 10
830.5
 20
40.0
 10
827.8143424365364
 20
40.0
 10
824.9520190203378
 20
40.0
 10
822.0
 20
40.0
 10
819.0479809796622
 20
40.0
 10
816.1856575634636
 20
40.0
 10
813.5
 20
40.0
 10
811.0726106353288
 20
40.0
 10
808.9772444669774
 20
40.0
 10
807.2775681356645
 20
40.0
 10
806.0252254466395
 20
40.0
 10
805.2582681987924
 20
40.0
 10
805.0
 20
40.0
 10
805.2582681987924
 20
40.0
 10
806.0252254466395
 20
40.0
 10
807.2775681356645
 20
40.0
 10
808.9772444669774
 20
40.0
 10
811.0726106353288
 20
40.0
 10
813.5
 20
40.0
 10
816.1856575634636
 20
40.0
 10
819.0479809796622
 20
40.0
 10
822.0
 20
40.0
  0
LWPOLYLINE
  5
136
330
17
100
AcDbEntity
  8
RIGHT
100
AcDbPolyline
 90
2
 70
0
 10
822.0
 20
22.0
 10
822.0
 20
40.0
  0
LWPOLYLINE
  5
137
330
17
100
AcDbEntity
  8
RIGHT
100
AcDbPolyline
 90
2
 70
0
 10
822.0
 20
24.0
 10
822.0
 20
124.0
  0
LWPOLYLINE
  5
138
330
17
100
AcDbEntity
  8
RIGHT
100
AcDbPolyline
 90
35
 70
0
 10
822.0
 20
24.0
 10
824.9399922850652
 20
24.0
 10
827.7798666589945
 20
24.0
 10
830.4229146060377
 20
24.0
 10
832.7791302983449
 20
24.0
 10
834.7682756364838
 20
24.0
 10
836.322612661681
 20
24.0
 10
837.389210290765
 20
24.0
 10
837.9317468207205
 20
24.0
 10
837.9317468207205
 20
24.0
 10
837.389210290765
 20
24.0
 10
836.322612661681
 20
24.0
 10
834.7682756364838
 20
24.0
 10
832.7791302983449
 20
24.0
 10
830.4229146060377
 20
24.0
 10
827.7798666589945
 20
24.0
 10
824.9399922850652
 20
24.0
 10
822.0
 20
24.0
 10
819.0600077149348
 20
24.0
 10
816.2201333410055
 20
24.0
 10
813.5770853939623
 20
24.0
 10
811.2208697016551
 20
24.0
 10
809.2317243635162
 20
24.0
 10
807.677387338319
 20
24.0
 10
806.610789709235
 20
24.0
 10
806.0682531792795
 20
24.0
 10
806.0682531792795
 20
24.0
 10
806.610789709235
 20
24.0
 10
807.677387338319
 20
24.0
 10
809.2317243635162
 20
24.0
 10
811.2208697016551
 20
24.0
 10
813.5770853939623
 20
24.0
 10
816.2201333410055
 20
24.0
 10
819.0600077149348
 20
24.0
 10
822.0
 20
24.0
  0
LWPOLYLINE
  5
139
330
17
100
AcDbEntity
  8
RIGHT
100
AcDbPolyline
 90
35
 70
0
 10
822.0
 20
124.0
 10
824.9399922850652
 20
124.0
 10
827.7798666589945
 20
124.0
 10
830.4229146060377
 20
124.0
 10
832.7791302983449
 20
124.0
 10
834.7682756364838
 20
124.0
 10
836.322612661681
 20
124.0
 10
837.389210290765
 20
124.0
 10
837.9317468207205
 20
124.0
 10
837.9317468207205
 20
124.0
 10
837.389210290765
 20
124.0
 10
836.322612661681
 20
124.0
 10
834.7682756364838
 20
124.0
 10
832.7791302983449
 20
124.0
 10
830.4229146060377
 20
124.0
 10
827.7798666589945
 20
124.0
 10
824.9399922850652
 20
124.0
 10
822.0
 20
124.0
 10
819.0600077149348
 20
124.0
 10
816.2201333410055
 20
124.0
 10
813.5770853939623
 20
124.0
 10
811.2208697016551
 20
124.0
 10
809.2317243635162
 20
124.0
 10
807.677387338319
 20
124.0
 10
806.610789709235
 20
124.0
 10
806.0682531792795
 20
124.0
 10
806.0682531792795
 20
124.0
 10
806.610789709235
 20
124.0
 10
807.677387338319
 20
124.0
 10
809.2317243635162
 20
124.0
 10
811.2208697016551
 20
124.0
 10
813.5770853939623
 20
124.0
 10
816.2201333410055
 20
124.0
 10
819.0600077149348
 20
124.0
 10
822.0
 20
124.0
  0
DIMENSION
  5
13A
330
17
100
AcDbEntity
  8
DIMENSIONS
100
AcDbDimension
280
0
  2
*D5
  3
Standard
 10
498.0
 20
-35.0
 30
0.0
 11
672.0
 21
-35.0
 31
0.0
 70
32
 71
5
  1
<>
100
AcDbAlignedDimension
 13
498.0
 23
0.0
 33
0.0
 14
846.0
 24
0.0
 34
0.0
 50
0.0
100
AcDbRotatedDimension
1001
ACAD
1000
DSTYLE
1002
{
1070
140
1040
2.6769230769230767
1070
41
1040
2.5
1070
176
1070
7
1070
177
1070
7
1070
178
1070
7
1070
271
1070
2
1002
}
  0
DIMENSION
  5
14A
330
17
100
AcDbEntity
  8
DIMENSIONS
100
AcDbDimension
280
0
  2
*D6
  3
Standard
 10
463.0
 20
0.0
 30
0.0
 11
463.0
 21
62.0
 31
0.0
 70
32
 71
5
  1
<>
100
AcDbAlignedDimension
 13
498.0
 23
0.0
 33
0.0
 14
498.0
 24
124.0
 34
0.0
 50
90.0
100
AcDbRotatedDimension
1001
ACAD
1000
DSTYLE
1002
{
1070
140
1040
2.6769230769230767
1070
41
1040
2.5
1070
176
1070
7
1070
177
1070
7
1070
178
1070
7
1070
271
1070
2
1002
}
  0
TEXT
  5
15A
330
17
100
AcDbEntity
  8
NOTES
100
AcDbText
 10
498.0
 20
144.0
 30
0.0
 40
4.0
  1
RIGHT
100
AcDbText
  0
TEXT
  5
15B
330
17
100
AcDbEntity
  8
NOTES
100
AcDbText
 10
0.0
 20
-374.0
 30
0.0
 40
4.0
  1
Datum: right-handed assembly-local X/Y/Z; plan XY, front XZ, right YZ. Overall dimensions derive from exact BRep.
100
AcDbText
  0
TEXT
  5
15C
330
17
100
AcDbEntity
  8
NOTES
100
AcDbText
 10
0.0
 20
-383.0
 30
0.0
 40
4.0
  1
Curved drawing edges are sampled; wireframe includes hidden/back edges. STEP is the geometry authority; DXF units mm.
100
AcDbText
  0
TEXT
  5
15D
330
17
100
AcDbEntity
  8
NOTES
100
AcDbText
 10
0.0
 20
-392.0
 30
0.0
 40
4.0
  1
Source-tagged Pi features and battery/panel/converter/MPPT overall sizes are verified references; other geometry is provisional.
100
AcDbText
  0
TEXT
  5
15E
330
17
100
AcDbEntity
  8
NOTES
100
AcDbText
 10
0.0
 20
-401.0
 30
0.0
 40
4.0
  1
Default machining allowance +/-0.30 mm; clamp bore +/-0.20 mm; envelope dia +/-0.50 mm: assumptions, not release tolerances.
100
AcDbText
  0
TEXT
  5
15F
330
17
100
AcDbEntity
  8
NOTES
100
AcDbText
 10
0.0
 20
-410.0
 30
0.0
 40
4.0
  1
Metal parts: deburr/passivate or isolate/anodize per material record; fastener torque, coating, corrosion and loads remain open.
100
AcDbText
  0
TEXT
  5
160
330
17
100
AcDbEntity
  8
NOTES
100
AcDbText
 10
0.0
 20
-419.0
 30
0.0
 40
4.0
  1
No pressure containment, rating, calibration, safe working load or fabrication release. See manifest.json part/BOM/feature notes.
100
AcDbText
  0
ENDSEC
  0
SECTION
  2
OBJECTS
  0
DICTIONARY
  5
A
330
0
100
AcDbDictionary
281
1
  3
ACAD_COLOR
350
B
  3
ACAD_GROUP
350
C
  3
ACAD_LAYOUT
350
D
  3
ACAD_MATERIAL
350
E
  3
ACAD_MLEADERSTYLE
350
F
  3
ACAD_MLINESTYLE
350
10
  3
ACAD_PLOTSETTINGS
350
11
  3
ACAD_PLOTSTYLENAME
350
12
  3
ACAD_SCALELIST
350
14
  3
ACAD_TABLESTYLE
350
15
  3
ACAD_VISUALSTYLE
350
16
  3
EZDXF_META
350
2D
  0
DICTIONARY
  5
B
330
A
100
AcDbDictionary
281
1
  0
DICTIONARY
  5
C
330
A
100
AcDbDictionary
281
1
  0
DICTIONARY
  5
D
330
A
100
AcDbDictionary
281
1
  3
Model
350
1A
  3
Layout1
350
1E
  0
DICTIONARY
  5
E
330
A
100
AcDbDictionary
281
1
  3
ByBlock
350
1F
  3
ByLayer
350
20
  3
Global
350
21
  0
DICTIONARY
  5
F
330
A
100
AcDbDictionary
281
1
  3
Standard
350
2C
  0
DICTIONARY
  5
10
330
A
100
AcDbDictionary
281
1
  3
Standard
350
22
  0
DICTIONARY
  5
11
330
A
100
AcDbDictionary
281
1
  0
ACDBDICTIONARYWDFLT
  5
12
330
A
100
AcDbDictionary
281
1
  3
Normal
350
13
100
AcDbDictionaryWithDefault
340
13
  0
ACDBPLACEHOLDER
  5
13
330
12
  0
DICTIONARY
  5
14
330
A
100
AcDbDictionary
281
1
  0
DICTIONARY
  5
15
330
A
100
AcDbDictionary
281
1
  0
DICTIONARY
  5
16
330
A
100
AcDbDictionary
281
1
  0
LAYOUT
  5
1A
330
D
100
AcDbPlotSettings
  1

  4
A3
  6

 40
7.5
 41
20.0
 42
7.5
 43
20.0
 44
420.0
 45
297.0
 46
0.0
 47
0.0
 48
0.0
 49
0.0
140
0.0
141
0.0
142
1.0
143
1.0
 70
1024
 72
1
 73
0
 74
5
  7

 75
16
 76
0
 77
2
 78
300
147
1.0
148
0.0
149
0.0
100
AcDbLayout
  1
Model
 70
1
 71
0
 10
0.0
 20
0.0
 11
420.0
 21
297.0
 12
0.0
 22
0.0
 32
0.0
 14
1e+20
 24
1e+20
 34
1e+20
 15
-1e+20
 25
-1e+20
 35
-1e+20
146
0.0
 13
0.0
 23
0.0
 33
0.0
 16
1.0
 26
0.0
 36
0.0
 17
0.0
 27
1.0
 37
0.0
 76
1
330
17
  0
LAYOUT
  5
1E
330
D
100
AcDbPlotSettings
  1

  4
A3
  6

 40
7.5
 41
20.0
 42
7.5
 43
20.0
 44
420.0
 45
297.0
 46
0.0
 47
0.0
 48
0.0
 49
0.0
140
0.0
141
0.0
142
1.0
143
1.0
 70
0
 72
1
 73
0
 74
5
  7

 75
16
 76
0
 77
2
 78
300
147
1.0
148
0.0
149
0.0
100
AcDbLayout
  1
Layout1
 70
1
 71
1
 10
0.0
 20
0.0
 11
420.0
 21
297.0
 12
0.0
 22
0.0
 32
0.0
 14
1e+20
 24
1e+20
 34
1e+20
 15
-1e+20
 25
-1e+20
 35
-1e+20
146
0.0
 13
0.0
 23
0.0
 33
0.0
 16
1.0
 26
0.0
 36
0.0
 17
0.0
 27
1.0
 37
0.0
 76
1
330
1B
  0
MATERIAL
  5
1F
102
{ACAD_REACTORS
330
E
102
}
330
E
100
AcDbMaterial
  1
ByBlock
  2

 70
0
 40
1.0
 71
1
 41
1.0
 91
-1023410177
 42
1.0
 72
1
  3

 73
1
 74
1
 75
1
 44
0.5
 73
0
 45
1.0
 46
1.0
 77
1
  4

 78
1
 79
1
170
1
 48
1.0
171
1
  6

172
1
173
1
174
1
140
1.0
141
1.0
175
1
  7

176
1
177
1
178
1
143
1.0
179
1
  8

270
1
271
1
272
1
145
1.0
146
1.0
273
1
  9

274
1
275
1
276
1
 42
1.0
 72
1
  3

 73
1
 74
1
 75
1
 94
63
  0
MATERIAL
  5
20
102
{ACAD_REACTORS
330
E
102
}
330
E
100
AcDbMaterial
  1
ByLayer
  2

 70
0
 40
1.0
 71
1
 41
1.0
 91
-1023410177
 42
1.0
 72
1
  3

 73
1
 74
1
 75
1
 44
0.5
 73
0
 45
1.0
 46
1.0
 77
1
  4

 78
1
 79
1
170
1
 48
1.0
171
1
  6

172
1
173
1
174
1
140
1.0
141
1.0
175
1
  7

176
1
177
1
178
1
143
1.0
179
1
  8

270
1
271
1
272
1
145
1.0
146
1.0
273
1
  9

274
1
275
1
276
1
 42
1.0
 72
1
  3

 73
1
 74
1
 75
1
 94
63
  0
MATERIAL
  5
21
102
{ACAD_REACTORS
330
E
102
}
330
E
100
AcDbMaterial
  1
Global
  2

 70
0
 40
1.0
 71
1
 41
1.0
 91
-1023410177
 42
1.0
 72
1
  3

 73
1
 74
1
 75
1
 44
0.5
 73
0
 45
1.0
 46
1.0
 77
1
  4

 78
1
 79
1
170
1
 48
1.0
171
1
  6

172
1
173
1
174
1
140
1.0
141
1.0
175
1
  7

176
1
177
1
178
1
143
1.0
179
1
  8

270
1
271
1
272
1
145
1.0
146
1.0
273
1
  9

274
1
275
1
276
1
 42
1.0
 72
1
  3

 73
1
 74
1
 75
1
 94
63
  0
MLINESTYLE
  5
22
102
{ACAD_REACTORS
330
10
102
}
330
10
100
AcDbMlineStyle
  2
Standard
 70
0
  3

 62
256
 51
90.0
 52
90.0
 71
2
 49
0.5
 62
256
  6
BYLAYER
 49
-0.5
 62
256
  6
BYLAYER
  0
MLEADERSTYLE
  5
2C
102
{ACAD_REACTORS
330
F
102
}
330
F
100
AcDbMLeaderStyle
179
2
170
2
171
1
172
0
 90
2
 40
0.0
 41
0.0
173
1
 91
-1056964608
 92
-2
290
1
 42
2.0
291
1
 43
8.0
  3
Standard
 44
4.0
300

342
29
174
1
175
1
176
0
178
1
 93
-1056964608
 45
4.0
292
0
297
0
 46
4.0
 94
-1056964608
 47
1.0
 49
1.0
140
1.0
294
1
141
0.0
177
0
142
1.0
295
0
296
0
143
3.75
271
0
272
9
273
9
  0
DICTIONARY
  5
2D
330
A
100
AcDbDictionary
280
1
281
1
  3
CREATED_BY_EZDXF
350
2E
  3
WRITTEN_BY_EZDXF
350
163
  0
DICTIONARYVAR
  5
2E
330
2D
100
DictionaryVariables
280
0
  1
1.4.3 @ 2026-09-27T12:03:29.866238+00:00
  0
DICTIONARYVAR
  5
163
330
2D
100
DictionaryVariables
280
0
  1
1.4.3 @ 2026-09-27T12:03:29.892338+00:00
  0
ENDSEC
  0
EOF
