  0
SECTION
  2
HEADER
  9
$ACADVER
  1
AC1032
  9
$ACADMAINTVER
 90
4
  9
$DWGCODEPAGE
  3
ANSI_1252
  9
$LASTSAVEDBY
  1
ezdxf
  9
$REQUIREDVERSIONS
160
0
  9
$INSBASE
 10
0.0
 20
0.0
 30
0.0
  9
$EXTMIN
 10
1e+20
 20
1e+20
 30
1e+20
  9
$EXTMAX
 10
-1e+20
 20
-1e+20
 30
-1e+20
  9
$LIMMIN
 10
0.0
 20
0.0
  9
$LIMMAX
 10
420.0
 20
297.0
  9
$ORTHOMODE
 70
0
  9
$REGENMODE
 70
1
  9
$FILLMODE
 70
1
  9
$QTEXTMODE
 70
0
  9
$MIRRTEXT
 70
1
  9
$LTSCALE
 40
1.0
  9
$ATTMODE
 70
1
  9
$TEXTSIZE
 40
2.5
  9
$TRACEWID
 40
1.0
  9
$TEXTSTYLE
  7
Standard
  9
$CLAYER
  8
0
  9
$CELTYPE
  6
ByLayer
  9
$CECOLOR
 62
256
  9
$CELTSCALE
 40
1.0
  9
$DISPSILH
 70
0
  9
$DIMSCALE
 40
1.0
  9
$DIMASZ
 40
2.5
  9
$DIMEXO
 40
0.625
  9
$DIMDLI
 40
3.75
  9
$DIMRND
 40
0.0
  9
$DIMDLE
 40
0.0
  9
$DIMEXE
 40
1.25
  9
$DIMTP
 40
0.0
  9
$DIMTM
 40
0.0
  9
$DIMTXT
 40
2.5
  9
$DIMCEN
 40
2.5
  9
$DIMTSZ
 40
0.0
  9
$DIMTOL
 70
0
  9
$DIMLIM
 70
0
  9
$DIMTIH
 70
0
  9
$DIMTOH
 70
0
  9
$DIMSE1
 70
0
  9
$DIMSE2
 70
0
  9
$DIMTAD
 70
1
  9
$DIMZIN
 70
8
  9
$DIMBLK
  1

  9
$DIMASO
 70
1
  9
$DIMSHO
 70
1
  9
$DIMPOST
  1

  9
$DIMAPOST
  1

  9
$DIMALT
 70
0
  9
$DIMALTD
 70
3
  9
$DIMALTF
 40
0.03937007874
  9
$DIMLFAC
 40
1.0
  9
$DIMTOFL
 70
1
  9
$DIMTVP
 40
0.0
  9
$DIMTIX
 70
0
  9
$DIMSOXD
 70
0
  9
$DIMSAH
 70
0
  9
$DIMBLK1
  1

  9
$DIMBLK2
  1

  9
$DIMSTYLE
  2
ISO-25
  9
$DIMCLRD
 70
0
  9
$DIMCLRE
 70
0
  9
$DIMCLRT
 70
0
  9
$DIMTFAC
 40
1.0
  9
$DIMGAP
 40
0.625
  9
$DIMJUST
 70
0
  9
$DIMSD1
 70
0
  9
$DIMSD2
 70
0
  9
$DIMTOLJ
 70
0
  9
$DIMTZIN
 70
8
  9
$DIMALTZ
 70
0
  9
$DIMALTTZ
 70
0
  9
$DIMUPT
 70
0
  9
$DIMDEC
 70
2
  9
$DIMTDEC
 70
2
  9
$DIMALTU
 70
2
  9
$DIMALTTD
 70
3
  9
$DIMTXSTY
  7
Standard
  9
$DIMAUNIT
 70
0
  9
$DIMADEC
 70
0
  9
$DIMALTRND
 40
0.0
  9
$DIMAZIN
 70
0
  9
$DIMDSEP
 70
44
  9
$DIMATFIT
 70
3
  9
$DIMFRAC
 70
0
  9
$DIMLDRBLK
  1

  9
$DIMLUNIT
 70
2
  9
$DIMLWD
 70
-2
  9
$DIMLWE
 70
-2
  9
$DIMTMOVE
 70
0
  9
$DIMFXL
 40
1.0
  9
$DIMFXLON
 70
0
  9
$DIMJOGANG
 40
0.785398163397
  9
$DIMTFILL
 70
0
  9
$DIMTFILLCLR
 70
0
  9
$DIMARCSYM
 70
0
  9
$DIMLTYPE
  6

  9
$DIMLTEX1
  6

  9
$DIMLTEX2
  6

  9
$DIMTXTDIRECTION
 70
0
  9
$LUNITS
 70
2
  9
$LUPREC
 70
4
  9
$SKETCHINC
 40
1.0
  9
$FILLETRAD
 40
10.0
  9
$AUNITS
 70
0
  9
$AUPREC
 70
2
  9
$MENU
  1
.
  9
$ELEVATION
 40
0.0
  9
$PELEVATION
 40
0.0
  9
$THICKNESS
 40
0.0
  9
$LIMCHECK
 70
0
  9
$CHAMFERA
 40
0.0
  9
$CHAMFERB
 40
0.0
  9
$CHAMFERC
 40
0.0
  9
$CHAMFERD
 40
0.0
  9
$SKPOLY
 70
0
  9
$TDCREATE
 40
2461311.585775463
  9
$TDUCREATE
 40
2458532.153996898
  9
$TDUPDATE
 40
2461311.585775463
  9
$TDUUPDATE
 40
2458532.1544311
  9
$TDINDWG
 40
0.0
  9
$TDUSRTIMER
 40
0.0
  9
$USRTIMER
 70
1
  9
$ANGBASE
 50
0.0
  9
$ANGDIR
 70
0
  9
$PDMODE
 70
0
  9
$PDSIZE
 40
0.0
  9
$PLINEWID
 40
0.0
  9
$SPLFRAME
 70
0
  9
$SPLINETYPE
 70
6
  9
$SPLINESEGS
 70
8
  9
$HANDSEED
  5
F7
  9
$SURFTAB1
 70
6
  9
$SURFTAB2
 70
6
  9
$SURFTYPE
 70
6
  9
$SURFU
 70
6
  9
$SURFV
 70
6
  9
$UCSBASE
  2

  9
$UCSNAME
  2

  9
$UCSORG
 10
0.0
 20
0.0
 30
0.0
  9
$UCSXDIR
 10
1.0
 20
0.0
 30
0.0
  9
$UCSYDIR
 10
0.0
 20
1.0
 30
0.0
  9
$UCSORTHOREF
  2

  9
$UCSORTHOVIEW
 70
0
  9
$UCSORGTOP
 10
0.0
 20
0.0
 30
0.0
  9
$UCSORGBOTTOM
 10
0.0
 20
0.0
 30
0.0
  9
$UCSORGLEFT
 10
0.0
 20
0.0
 30
0.0
  9
$UCSORGRIGHT
 10
0.0
 20
0.0
 30
0.0
  9
$UCSORGFRONT
 10
0.0
 20
0.0
 30
0.0
  9
$UCSORGBACK
 10
0.0
 20
0.0
 30
0.0
  9
$PUCSBASE
  2

  9
$PUCSNAME
  2

  9
$PUCSORG
 10
0.0
 20
0.0
 30
0.0
  9
$PUCSXDIR
 10
1.0
 20
0.0
 30
0.0
  9
$PUCSYDIR
 10
0.0
 20
1.0
 30
0.0
  9
$PUCSORTHOREF
  2

  9
$PUCSORTHOVIEW
 70
0
  9
$PUCSORGTOP
 10
0.0
 20
0.0
 30
0.0
  9
$PUCSORGBOTTOM
 10
0.0
 20
0.0
 30
0.0
  9
$PUCSORGLEFT
 10
0.0
 20
0.0
 30
0.0
  9
$PUCSORGRIGHT
 10
0.0
 20
0.0
 30
0.0
  9
$PUCSORGFRONT
 10
0.0
 20
0.0
 30
0.0
  9
$PUCSORGBACK
 10
0.0
 20
0.0
 30
0.0
  9
$USERI1
 70
0
  9
$USERI2
 70
0
  9
$USERI3
 70
0
  9
$USERI4
 70
0
  9
$USERI5
 70
0
  9
$USERR1
 40
0.0
  9
$USERR2
 40
0.0
  9
$USERR3
 40
0.0
  9
$USERR4
 40
0.0
  9
$USERR5
 40
0.0
  9
$WORLDVIEW
 70
1
  9
$SHADEDGE
 70
3
  9
$SHADEDIF
 70
70
  9
$TILEMODE
 70
1
  9
$MAXACTVP
 70
64
  9
$PINSBASE
 10
0.0
 20
0.0
 30
0.0
  9
$PLIMCHECK
 70
0
  9
$PEXTMIN
 10
1e+20
 20
1e+20
 30
1e+20
  9
$PEXTMAX
 10
-1e+20
 20
-1e+20
 30
-1e+20
  9
$PLIMMIN
 10
0.0
 20
0.0
  9
$PLIMMAX
 10
420.0
 20
297.0
  9
$UNITMODE
 70
0
  9
$VISRETAIN
 70
1
  9
$PLINEGEN
 70
0
  9
$PSLTSCALE
 70
1
  9
$TREEDEPTH
 70
3020
  9
$CMLSTYLE
  2
Standard
  9
$CMLJUST
 70
0
  9
$CMLSCALE
 40
20.0
  9
$PROXYGRAPHICS
 70
1
  9
$MEASUREMENT
 70
1
  9
$CELWEIGHT
370
-1
  9
$ENDCAPS
280
0
  9
$JOINSTYLE
280
0
  9
$LWDISPLAY
290
0
  9
$INSUNITS
 70
4
  9
$HYPERLINKBASE
  1

  9
$STYLESHEET
  1

  9
$XEDIT
290
1
  9
$CEPSNTYPE
380
0
  9
$PSTYLEMODE
290
1
  9
$FINGERPRINTGUID
  2
{C931CB85-6EA6-4A24-8C76-F91AC77511C6}
  9
$VERSIONGUID
  2
{7D12836A-09C6-4EF5-80B1-B883AD861088}
  9
$EXTNAMES
290
1
  9
$PSVPSCALE
 40
0.0
  9
$OLESTARTUP
290
0
  9
$SORTENTS
280
127
  9
$INDEXCTL
280
0
  9
$HIDETEXT
280
1
  9
$XCLIPFRAME
280
1
  9
$HALOGAP
280
0
  9
$OBSCOLOR
 70
257
  9
$OBSLTYPE
280
0
  9
$INTERSECTIONDISPLAY
280
0
  9
$INTERSECTIONCOLOR
 70
257
  9
$DIMASSOC
280
2
  9
$PROJECTNAME
  1

  9
$CAMERADISPLAY
290
0
  9
$LENSLENGTH
 40
50.0
  9
$CAMERAHEIGHT
 40
0.0
  9
$STEPSPERSEC
 40
24.0
  9
$STEPSIZE
 40
100.0
  9
$3DDWFPREC
 40
2.0
  9
$PSOLWIDTH
 40
0.005
  9
$PSOLHEIGHT
 40
0.08
  9
$LOFTANG1
 40
1.570796326795
  9
$LOFTANG2
 40
1.570796326795
  9
$LOFTMAG1
 40
0.0
  9
$LOFTMAG2
 40
0.0
  9
$LOFTPARAM
 70
7
  9
$LOFTNORMALS
280
1
  9
$LATITUDE
 40
37.795
  9
$LONGITUDE
 40
-122.394
  9
$NORTHDIRECTION
 40
0.0
  9
$TIMEZONE
 70
-8000
  9
$LIGHTGLYPHDISPLAY
280
1
  9
$TILEMODELIGHTSYNCH
280
1
  9
$CMATERIAL
347
20
  9
$SOLIDHIST
280
0
  9
$SHOWHIST
280
1
  9
$DWFFRAME
280
2
  9
$DGNFRAME
280
2
  9
$REALWORLDSCALE
290
1
  9
$INTERFERECOLOR
 62
256
  9
$CSHADOW
280
0
  9
$SHADOWPLANELOCATION
 40
0.0
  0
ENDSEC
  0
SECTION
  2
CLASSES
  0
CLASS
  1
ACDBDICTIONARYWDFLT
  2
AcDbDictionaryWithDefault
  3
ObjectDBX Classes
 90
0
 91
0
280
0
281
0
  0
CLASS
  1
SUN
  2
AcDbSun
  3
SCENEOE
 90
1153
 91
0
280
0
281
0
  0
CLASS
  1
VISUALSTYLE
  2
AcDbVisualStyle
  3
ObjectDBX Classes
 90
4095
 91
0
280
0
281
0
  0
CLASS
  1
MATERIAL
  2
AcDbMaterial
  3
ObjectDBX Classes
 90
1153
 91
0
280
0
281
0
  0
CLASS
  1
SCALE
  2
AcDbScale
  3
ObjectDBX Classes
 90
1153
 91
0
280
0
281
0
  0
CLASS
  1
TABLESTYLE
  2
AcDbTableStyle
  3
ObjectDBX Classes
 90
4095
 91
0
280
0
281
0
  0
CLASS
  1
MLEADERSTYLE
  2
AcDbMLeaderStyle
  3
ACDB_MLEADERSTYLE_CLASS
 90
4095
 91
0
280
0
281
0
  0
CLASS
  1
DICTIONARYVAR
  2
AcDbDictionaryVar
  3
ObjectDBX Classes
 90
0
 91
0
280
0
281
0
  0
CLASS
  1
CELLSTYLEMAP
  2
AcDbCellStyleMap
  3
ObjectDBX Classes
 90
1152
 91
0
280
0
281
0
  0
CLASS
  1
MENTALRAYRENDERSETTINGS
  2
AcDbMentalRayRenderSettings
  3
SCENEOE
 90
1024
 91
0
280
0
281
0
  0
CLASS
  1
ACDBDETAILVIEWSTYLE
  2
AcDbDetailViewStyle
  3
ObjectDBX Classes
 90
1025
 91
0
280
0
281
0
  0
CLASS
  1
ACDBSECTIONVIEWSTYLE
  2
AcDbSectionViewStyle
  3
ObjectDBX Classes
 90
1025
 91
0
280
0
281
0
  0
CLASS
  1
RASTERVARIABLES
  2
AcDbRasterVariables
  3
ISM
 90
0
 91
0
280
0
281
0
  0
CLASS
  1
LAYOUT
  2
AcDbLayout
  3
ObjectDBX Classes
 90
0
 91
0
280
0
281
0
  0
CLASS
  1
ACDBPLACEHOLDER
  2
AcDbPlaceHolder
  3
ObjectDBX Classes
 90
0
 91
0
280
0
281
0
  0
ENDSEC
  0
SECTION
  2
TABLES
  0
TABLE
  2
VPORT
  5
8
330
0
100
AcDbSymbolTable
 70
1
  0
VPORT
  5
23
330
8
100
AcDbSymbolTableRecord
100
AcDbViewportTableRecord
  2
*Active
 70
0
 10
0.0
 20
0.0
 11
1.0
 21
1.0
 12
0.0
 22
0.0
 13
0.0
 23
0.0
 14
0.5
 24
0.5
 15
0.5
 25
0.5
 16
0.0
 26
0.0
 36
1.0
 17
0.0
 27
0.0
 37
0.0
 40
1000.0
 41
1.34
 42
50.0
 43
0.0
 44
0.0
 50
0.0
 51
0.0
 71
0
 72
1000
 73
1
 74
3
 75
0
 76
0
 77
0
 78
0
281
0
 65
0
146
0.0
  0
ENDTAB
  0
TABLE
  2
LTYPE
  5
2
330
0
100
AcDbSymbolTable
 70
3
  0
LTYPE
  5
24
330
2
100
AcDbSymbolTableRecord
100
AcDbLinetypeTableRecord
  2
ByBlock
 70
0
  3

 72
65
 73
0
 40
0.0
  0
LTYPE
  5
25
330
2
100
AcDbSymbolTableRecord
100
AcDbLinetypeTableRecord
  2
ByLayer
 70
0
  3

 72
65
 73
0
 40
0.0
  0
LTYPE
  5
26
330
2
100
AcDbSymbolTableRecord
100
AcDbLinetypeTableRecord
  2
Continuous
 70
0
  3

 72
65
 73
0
 40
0.0
  0
ENDTAB
  0
TABLE
  2
LAYER
  5
1
330
0
100
AcDbSymbolTable
 70
7
  0
LAYER
  5
27
330
1
100
AcDbSymbolTableRecord
100
AcDbLayerTableRecord
  2
0
 70
0
 62
7
  6
Continuous
370
-3
390
13
347
21
  0
LAYER
  5
28
330
1
100
AcDbSymbolTableRecord
100
AcDbLayerTableRecord
  2
Defpoints
 70
0
 62
7
  6
Continuous
290
0
370
-3
390
13
347
21
  0
LAYER
  5
2F
330
1
100
AcDbSymbolTableRecord
100
AcDbLayerTableRecord
  2
TOP
 70
0
 62
7
  6
Continuous
370
-3
390
13
347
21
  0
LAYER
  5
30
330
1
100
AcDbSymbolTableRecord
100
AcDbLayerTableRecord
  2
FRONT
 70
0
 62
7
  6
Continuous
370
-3
390
13
347
21
  0
LAYER
  5
31
330
1
100
AcDbSymbolTableRecord
100
AcDbLayerTableRecord
  2
RIGHT
 70
0
 62
7
  6
Continuous
370
-3
390
13
347
21
  0
LAYER
  5
32
330
1
100
AcDbSymbolTableRecord
100
AcDbLayerTableRecord
  2
DIMENSIONS
 70
0
 62
7
  6
Continuous
370
-3
390
13
347
21
  0
LAYER
  5
33
330
1
100
AcDbSymbolTableRecord
100
AcDbLayerTableRecord
  2
NOTES
 70
0
 62
7
  6
Continuous
370
-3
390
13
347
21
  0
ENDTAB
  0
TABLE
  2
STYLE
  5
5
330
0
100
AcDbSymbolTable
 70
1
  0
STYLE
  5
29
330
5
100
AcDbSymbolTableRecord
100
AcDbTextStyleTableRecord
  2
Standard
 70
0
 40
0.0
 41
1.0
 50
0.0
 71
0
 42
2.5
  3
txt
  4

  0
ENDTAB
  0
TABLE
  2
VIEW
  5
7
330
0
100
AcDbSymbolTable
 70
0
  0
ENDTAB
  0
TABLE
  2
UCS
  5
6
330
0
100
AcDbSymbolTable
 70
0
  0
ENDTAB
  0
TABLE
  2
APPID
  5
3
330
0
100
AcDbSymbolTable
 70
3
  0
APPID
  5
2A
330
3
100
AcDbSymbolTableRecord
100
AcDbRegAppTableRecord
  2
ACAD
 70
0
  0
APPID
  5
F4
330
3
100
AcDbSymbolTableRecord
100
AcDbRegAppTableRecord
  2
HATCHBACKGROUNDCOLOR
 70
0
  0
APPID
  5
F5
330
3
100
AcDbSymbolTableRecord
100
AcDbRegAppTableRecord
  2
EZDXF
 70
0
  0
ENDTAB
  0
TABLE
  2
DIMSTYLE
  5
4
330
0
100
AcDbSymbolTable
 70
1
100
AcDbDimStyleTable
  0
DIMSTYLE
105
2B
330
4
100
AcDbSymbolTableRecord
100
AcDbDimStyleTableRecord
  2
Standard
 70
0
 40
1.0
 41
2.5
 42
0.625
 43
3.75
 44
1.25
 45
0.0
 46
0.0
 47
0.0
 48
0.0
 49
2.5
140
2.5
141
2.5
142
0.0
143
0.03937007874
144
1.0
145
0.0
146
1.0
147
0.625
148
0.0
 69
0
 70
0
 71
0
 72
0
 73
0
 74
0
 75
0
 76
0
 77
1
 78
8
 79
3
170
0
171
3
172
1
173
0
174
0
175
0
176
0
177
0
178
0
179
2
271
2
272
2
273
2
274
3
275
0
276
0
277
2
278
44
279
0
280
0
281
0
282
0
283
0
284
8
285
0
286
0
288
0
289
3
290
0
371
-2
372
-2
  0
ENDTAB
  0
TABLE
  2
BLOCK_RECORD
  5
9
330
0
100
AcDbSymbolTable
 70
9
  0
BLOCK_RECORD
  5
17
330
9
100
AcDbSymbolTableRecord
100
AcDbBlockTableRecord
  2
*Model_Space
340
1A
 70
0
280
1
281
0
  0
BLOCK_RECORD
  5
1B
330
9
100
AcDbSymbolTableRecord
100
AcDbBlockTableRecord
  2
*Paper_Space
340
1E
 70
0
280
1
281
0
  0
BLOCK_RECORD
  5
4E
330
9
100
AcDbSymbolTableRecord
100
AcDbBlockTableRecord
  2
*D1
340
0
 70
0
280
1
281
0
  0
BLOCK_RECORD
  5
53
330
9
100
AcDbSymbolTableRecord
100
AcDbBlockTableRecord
  2
_CLOSEDFILLED
340
0
 70
0
280
1
281
0
  0
BLOCK_RECORD
  5
62
330
9
100
AcDbSymbolTableRecord
100
AcDbBlockTableRecord
  2
*D2
340
0
 70
0
280
1
281
0
  0
BLOCK_RECORD
  5
90
330
9
100
AcDbSymbolTableRecord
100
AcDbBlockTableRecord
  2
*D3
340
0
 70
0
280
1
281
0
  0
BLOCK_RECORD
  5
A0
330
9
100
AcDbSymbolTableRecord
100
AcDbBlockTableRecord
  2
*D4
340
0
 70
0
280
1
281
0
  0
BLOCK_RECORD
  5
CE
330
9
100
AcDbSymbolTableRecord
100
AcDbBlockTableRecord
  2
*D5
340
0
 70
0
280
1
281
0
  0
BLOCK_RECORD
  5
DE
330
9
100
AcDbSymbolTableRecord
100
AcDbBlockTableRecord
  2
*D6
340
0
 70
0
280
1
281
0
  0
ENDTAB
  0
ENDSEC
  0
SECTION
  2
BLOCKS
  0
BLOCK
  5
18
330
17
100
AcDbEntity
  8
0
100
AcDbBlockBegin
  2
*Model_Space
 70
0
 10
0.0
 20
0.0
 30
0.0
  3
*Model_Space
  1

  0
ENDBLK
  5
19
330
17
100
AcDbEntity
  8
0
100
AcDbBlockEnd
  0
BLOCK
  5
1C
330
1B
100
AcDbEntity
  8
0
100
AcDbBlockBegin
  2
*Paper_Space
 70
0
 10
0.0
 20
0.0
 30
0.0
  3
*Paper_Space
  1

  0
ENDBLK
  5
1D
330
1B
100
AcDbEntity
  8
0
100
AcDbBlockEnd
  0
BLOCK
  5
4F
330
4E
100
AcDbEntity
  8
0
100
AcDbBlockBegin
  2
*D1
 70
1
 10
0.0
 20
0.0
 30
0.0
  3
*D1
  1

  0
LINE
  5
51
330
4E
100
AcDbEntity
  8
0
 62
7
100
AcDbLine
 10
0.0
 20
0.0
 30
0.0
 11
0.0
 21
-35.0
 31
0.0
  0
LINE
  5
52
330
4E
100
AcDbEntity
  8
0
 62
7
100
AcDbLine
 10
287.50000009999997
 20
0.0
 30
0.0
 11
287.50000009999997
 21
-35.0
 31
0.0
  0
INSERT
  5
57
330
4E
100
AcDbEntity
  8
DIMENSIONS
 62
7
100
AcDbBlockReference
  2
_CLOSEDFILLED
 10
0.0
 20
-35.0
 30
0.0
 41
2.5
 42
2.5
 50
180.0
  0
INSERT
  5
59
330
4E
100
AcDbEntity
  8
DIMENSIONS
 62
7
100
AcDbBlockReference
  2
_CLOSEDFILLED
 10
287.50000009999997
 20
-35.0
 30
0.0
 41
2.5
 42
2.5
  0
LINE
  5
5B
330
4E
100
AcDbEntity
  8
0
 62
7
100
AcDbLine
 10
2.5
 20
-35.0
 30
0.0
 11
137.50000004999998
 21
-35.0
 31
0.0
  0
LINE
  5
5C
330
4E
100
AcDbEntity
  8
0
 62
7
100
AcDbLine
 10
150.00000004999998
 20
-35.0
 30
0.0
 11
285.00000009999997
 21
-35.0
 31
0.0
  0
MTEXT
  5
5D
330
4E
100
AcDbEntity
  8
DIMENSIONS
 62
7
100
AcDbMText
 10
143.75000004999998
 20
-35.0
 30
0.0
 40
2.5
 71
5
  1
287,5
  0
POINT
  5
5E
330
4E
100
AcDbEntity
  8
Defpoints
100
AcDbPoint
 10
0.0
 20
-35.0
 30
0.0
  0
POINT
  5
5F
330
4E
100
AcDbEntity
  8
Defpoints
100
AcDbPoint
 10
0.0
 20
0.0
 30
0.0
  0
POINT
  5
60
330
4E
100
AcDbEntity
  8
Defpoints
100
AcDbPoint
 10
287.50000009999997
 20
0.0
 30
0.0
  0
ENDBLK
  5
50
330
4E
100
AcDbEntity
  8
0
100
AcDbBlockEnd
  0
BLOCK
  5
54
330
53
100
AcDbEntity
  8
0
100
AcDbBlockBegin
  2
_CLOSEDFILLED
 70
0
 10
0.0
 20
0.0
 30
0.0
  3
_CLOSEDFILLED
  1

  0
SOLID
  5
56
330
53
100
AcDbEntity
  8
0
  6
BYBLOCK
 62
0
100
AcDbTrace
 10
-1.0
 20
0.16439898372402537
 30
0.0
 11
0.0
 21
0.0
 31
0.0
 12
-1.0
 22
-0.16439898372402537
 32
0.0
 13
-1.0
 23
-0.16439898372402537
 33
0.0
  0
ENDBLK
  5
55
330
53
100
AcDbEntity
  8
0
100
AcDbBlockEnd
  0
BLOCK
  5
63
330
62
100
AcDbEntity
  8
0
100
AcDbBlockBegin
  2
*D2
 70
1
 10
0.0
 20
0.0
 30
0.0
  3
*D2
  1

  0
LINE
  5
65
330
62
100
AcDbEntity
  8
0
 62
7
100
AcDbLine
 10
0.0
 20
0.0
 30
0.0
 11
-35.0
 21
0.0
 31
0.0
  0
LINE
  5
66
330
62
100
AcDbEntity
  8
0
 62
7
100
AcDbLine
 10
0.0
 20
169.0
 30
0.0
 11
-35.0
 21
169.0
 31
0.0
  0
INSERT
  5
67
330
62
100
AcDbEntity
  8
DIMENSIONS
 62
7
100
AcDbBlockReference
  2
_CLOSEDFILLED
 10
-35.0
 20
0.0
 30
0.0
 41
2.5
 42
2.5
 50
270.0
  0
INSERT
  5
69
330
62
100
AcDbEntity
  8
DIMENSIONS
 62
7
100
AcDbBlockReference
  2
_CLOSEDFILLED
 10
-35.0
 20
169.0
 30
0.0
 41
2.5
 42
2.5
 50
90.0
  0
LINE
  5
6B
330
62
100
AcDbEntity
  8
0
 62
7
100
AcDbLine
 10
-35.0
 20
2.5
 30
0.0
 11
-35.0
 21
80.75
 31
0.0
  0
LINE
  5
6C
330
62
100
AcDbEntity
  8
0
 62
7
100
AcDbLine
 10
-35.0
 20
88.25
 30
0.0
 11
-35.0
 21
166.5
 31
0.0
  0
MTEXT
  5
6D
330
62
100
AcDbEntity
  8
DIMENSIONS
 62
7
100
AcDbMText
 10
-35.0
 20
84.5
 30
0.0
 40
2.5
 71
5
  1
169
 50
90.0
  0
POINT
  5
6E
330
62
100
AcDbEntity
  8
Defpoints
100
AcDbPoint
 10
-35.0
 20
0.0
 30
0.0
  0
POINT
  5
6F
330
62
100
AcDbEntity
  8
Defpoints
100
AcDbPoint
 10
0.0
 20
0.0
 30
0.0
  0
POINT
  5
70
330
62
100
AcDbEntity
  8
Defpoints
100
AcDbPoint
 10
0.0
 20
169.0
 30
0.0
  0
ENDBLK
  5
64
330
62
100
AcDbEntity
  8
0
100
AcDbBlockEnd
  0
BLOCK
  5
91
330
90
100
AcDbEntity
  8
0
100
AcDbBlockBegin
  2
*D3
 70
1
 10
0.0
 20
0.0
 30
0.0
  3
*D3
  1

  0
LINE
  5
93
330
90
100
AcDbEntity
  8
0
 62
7
100
AcDbLine
 10
0.0
 20
-166.0000001
 30
0.0
 11
0.0
 21
-201.0000001
 31
0.0
  0
LINE
  5
94
330
90
100
AcDbEntity
  8
0
 62
7
100
AcDbLine
 10
287.50000009999997
 20
-166.0000001
 30
0.0
 11
287.50000009999997
 21
-201.0000001
 31
0.0
  0
INSERT
  5
95
330
90
100
AcDbEntity
  8
DIMENSIONS
 62
7
100
AcDbBlockReference
  2
_CLOSEDFILLED
 10
0.0
 20
-201.0000001
 30
0.0
 41
2.5
 42
2.5
 50
180.0
  0
INSERT
  5
97
330
90
100
AcDbEntity
  8
DIMENSIONS
 62
7
100
AcDbBlockReference
  2
_CLOSEDFILLED
 10
287.50000009999997
 20
-201.0000001
 30
0.0
 41
2.5
 42
2.5
  0
LINE
  5
99
330
90
100
AcDbEntity
  8
0
 62
7
100
AcDbLine
 10
2.5
 20
-201.0000001
 30
0.0
 11
137.50000004999998
 21
-201.0000001
 31
0.0
  0
LINE
  5
9A
330
90
100
AcDbEntity
  8
0
 62
7
100
AcDbLine
 10
150.00000004999998
 20
-201.0000001
 30
0.0
 11
285.00000009999997
 21
-201.0000001
 31
0.0
  0
MTEXT
  5
9B
330
90
100
AcDbEntity
  8
DIMENSIONS
 62
7
100
AcDbMText
 10
143.75000004999998
 20
-201.0000001
 30
0.0
 40
2.5
 71
5
  1
287,5
  0
POINT
  5
9C
330
90
100
AcDbEntity
  8
Defpoints
100
AcDbPoint
 10
0.0
 20
-201.0000001
 30
0.0
  0
POINT
  5
9D
330
90
100
AcDbEntity
  8
Defpoints
100
AcDbPoint
 10
0.0
 20
-166.0000001
 30
0.0
  0
POINT
  5
9E
330
90
100
AcDbEntity
  8
Defpoints
100
AcDbPoint
 10
287.50000009999997
 20
-166.0000001
 30
0.0
  0
ENDBLK
  5
92
330
90
100
AcDbEntity
  8
0
100
AcDbBlockEnd
  0
BLOCK
  5
A1
330
A0
100
AcDbEntity
  8
0
100
AcDbBlockBegin
  2
*D4
 70
1
 10
0.0
 20
0.0
 30
0.0
  3
*D4
  1

  0
LINE
  5
A3
330
A0
100
AcDbEntity
  8
0
 62
7
100
AcDbLine
 10
0.0
 20
-166.0000001
 30
0.0
 11
-35.0
 21
-166.0000001
 31
0.0
  0
LINE
  5
A4
330
A0
100
AcDbEntity
  8
0
 62
7
100
AcDbLine
 10
0.0
 20
-150.0
 30
0.0
 11
-35.0
 21
-150.0
 31
0.0
  0
INSERT
  5
A5
330
A0
100
AcDbEntity
  8
DIMENSIONS
 62
7
100
AcDbBlockReference
  2
_CLOSEDFILLED
 10
-35.0
 20
-166.0000001
 30
0.0
 41
2.5
 42
2.5
 50
270.0
  0
INSERT
  5
A7
330
A0
100
AcDbEntity
  8
DIMENSIONS
 62
7
100
AcDbBlockReference
  2
_CLOSEDFILLED
 10
-35.0
 20
-150.0
 30
0.0
 41
2.5
 42
2.5
 50
90.0
  0
LINE
  5
A9
330
A0
100
AcDbEntity
  8
0
 62
7
100
AcDbLine
 10
-35.0
 20
-163.5000001
 30
0.0
 11
-35.0
 21
-160.50000004999998
 31
0.0
  0
LINE
  5
AA
330
A0
100
AcDbEntity
  8
0
 62
7
100
AcDbLine
 10
-35.0
 20
-155.50000004999998
 30
0.0
 11
-35.0
 21
-152.5
 31
0.0
  0
MTEXT
  5
AB
330
A0
100
AcDbEntity
  8
DIMENSIONS
 62
7
100
AcDbMText
 10
-35.0
 20
-158.00000004999998
 30
0.0
 40
2.5
 71
5
  1
16
 50
90.0
  0
POINT
  5
AC
330
A0
100
AcDbEntity
  8
Defpoints
100
AcDbPoint
 10
-35.0
 20
-166.0000001
 30
0.0
  0
POINT
  5
AD
330
A0
100
AcDbEntity
  8
Defpoints
100
AcDbPoint
 10
0.0
 20
-166.0000001
 30
0.0
  0
POINT
  5
AE
330
A0
100
AcDbEntity
  8
Defpoints
100
AcDbPoint
 10
0.0
 20
-150.0
 30
0.0
  0
ENDBLK
  5
A2
330
A0
100
AcDbEntity
  8
0
100
AcDbBlockEnd
  0
BLOCK
  5
CF
330
CE
100
AcDbEntity
  8
0
100
AcDbBlockBegin
  2
*D5
 70
1
 10
0.0
 20
0.0
 30
0.0
  3
*D5
  1

  0
LINE
  5
D1
330
CE
100
AcDbEntity
  8
0
 62
7
100
AcDbLine
 10
437.50000009999997
 20
0.0
 30
0.0
 11
437.50000009999997
 21
-35.0
 31
0.0
  0
LINE
  5
D2
330
CE
100
AcDbEntity
  8
0
 62
7
100
AcDbLine
 10
606.5000001
 20
0.0
 30
0.0
 11
606.5000001
 21
-35.0
 31
0.0
  0
INSERT
  5
D3
330
CE
100
AcDbEntity
  8
DIMENSIONS
 62
7
100
AcDbBlockReference
  2
_CLOSEDFILLED
 10
437.50000009999997
 20
-35.0
 30
0.0
 41
2.5
 42
2.5
 50
180.0
  0
INSERT
  5
D5
330
CE
100
AcDbEntity
  8
DIMENSIONS
 62
7
100
AcDbBlockReference
  2
_CLOSEDFILLED
 10
606.5000001
 20
-35.0
 30
0.0
 41
2.5
 42
2.5
  0
LINE
  5
D7
330
CE
100
AcDbEntity
  8
0
 62
7
100
AcDbLine
 10
440.00000009999997
 20
-35.0
 30
0.0
 11
518.2500001
 21
-35.0
 31
0.0
  0
LINE
  5
D8
330
CE
100
AcDbEntity
  8
0
 62
7
100
AcDbLine
 10
525.7500001
 20
-35.0
 30
0.0
 11
604.0000001
 21
-35.0
 31
0.0
  0
MTEXT
  5
D9
330
CE
100
AcDbEntity
  8
DIMENSIONS
 62
7
100
AcDbMText
 10
522.0000001
 20
-35.0
 30
0.0
 40
2.5
 71
5
  1
169
  0
POINT
  5
DA
330
CE
100
AcDbEntity
  8
Defpoints
100
AcDbPoint
 10
437.50000009999997
 20
-35.0
 30
0.0
  0
POINT
  5
DB
330
CE
100
AcDbEntity
  8
Defpoints
100
AcDbPoint
 10
437.50000009999997
 20
0.0
 30
0.0
  0
POINT
  5
DC
330
CE
100
AcDbEntity
  8
Defpoints
100
AcDbPoint
 10
606.5000001
 20
0.0
 30
0.0
  0
ENDBLK
  5
D0
330
CE
100
AcDbEntity
  8
0
100
AcDbBlockEnd
  0
BLOCK
  5
DF
330
DE
100
AcDbEntity
  8
0
100
AcDbBlockBegin
  2
*D6
 70
1
 10
0.0
 20
0.0
 30
0.0
  3
*D6
  1

  0
LINE
  5
E1
330
DE
100
AcDbEntity
  8
0
 62
7
100
AcDbLine
 10
437.50000009999997
 20
0.0
 30
0.0
 11
402.50000009999997
 21
0.0
 31
0.0
  0
LINE
  5
E2
330
DE
100
AcDbEntity
  8
0
 62
7
100
AcDbLine
 10
437.50000009999997
 20
16.0000001
 30
0.0
 11
402.50000009999997
 21
16.0000001
 31
0.0
  0
INSERT
  5
E3
330
DE
100
AcDbEntity
  8
DIMENSIONS
 62
7
100
AcDbBlockReference
  2
_CLOSEDFILLED
 10
402.50000009999997
 20
0.0
 30
0.0
 41
2.5
 42
2.5
 50
270.0
  0
INSERT
  5
E5
330
DE
100
AcDbEntity
  8
DIMENSIONS
 62
7
100
AcDbBlockReference
  2
_CLOSEDFILLED
 10
402.50000009999997
 20
16.0000001
 30
0.0
 41
2.5
 42
2.5
 50
90.0
  0
LINE
  5
E7
330
DE
100
AcDbEntity
  8
0
 62
7
100
AcDbLine
 10
402.50000009999997
 20
2.5
 30
0.0
 11
402.50000009999997
 21
5.500000050000001
 31
0.0
  0
LINE
  5
E8
330
DE
100
AcDbEntity
  8
0
 62
7
100
AcDbLine
 10
402.50000009999997
 20
10.50000005
 30
0.0
 11
402.50000009999997
 21
13.500000100000001
 31
0.0
  0
MTEXT
  5
E9
330
DE
100
AcDbEntity
  8
DIMENSIONS
 62
7
100
AcDbMText
 10
402.50000009999997
 20
8.00000005
 30
0.0
 40
2.5
 71
5
  1
16
 50
90.0
  0
POINT
  5
EA
330
DE
100
AcDbEntity
  8
Defpoints
100
AcDbPoint
 10
402.50000009999997
 20
0.0
 30
0.0
  0
POINT
  5
EB
330
DE
100
AcDbEntity
  8
Defpoints
100
AcDbPoint
 10
437.50000009999997
 20
0.0
 30
0.0
  0
POINT
  5
EC
330
DE
100
AcDbEntity
  8
Defpoints
100
AcDbPoint
 10
437.50000009999997
 20
16.0000001
 30
0.0
  0
ENDBLK
  5
E0
330
DE
100
AcDbEntity
  8
0
100
AcDbBlockEnd
  0
ENDSEC
  0
SECTION
  2
ENTITIES
  0
LWPOLYLINE
  5
34
330
17
100
AcDbEntity
  8
TOP
100
AcDbPolyline
 90
2
 70
0
 10
0.0
 20
0.0
 10
0.0
 20
66.0
  0
LWPOLYLINE
  5
35
330
17
100
AcDbEntity
  8
TOP
100
AcDbPolyline
 90
2
 70
0
 10
0.0
 20
0.0
 10
0.0
 20
66.0
  0
LWPOLYLINE
  5
36
330
17
100
AcDbEntity
  8
TOP
100
AcDbPolyline
 90
2
 70
0
 10
0.0
 20
0.0
 10
95.0
 20
0.0
  0
LWPOLYLINE
  5
37
330
17
100
AcDbEntity
  8
TOP
100
AcDbPolyline
 90
2
 70
0
 10
0.0
 20
0.0
 10
95.0
 20
0.0
  0
LWPOLYLINE
  5
38
330
17
100
AcDbEntity
  8
TOP
100
AcDbPolyline
 90
2
 70
0
 10
0.0
 20
66.0
 10
95.0
 20
66.0
  0
LWPOLYLINE
  5
39
330
17
100
AcDbEntity
  8
TOP
100
AcDbPolyline
 90
2
 70
0
 10
95.0
 20
0.0
 10
95.0
 20
66.0
  0
LWPOLYLINE
  5
3A
330
17
100
AcDbEntity
  8
TOP
100
AcDbPolyline
 90
16
 70
0
 10
10.100000000000001
 20
8.5
 10
9.961672732228159
 20
7.84922137107872
 10
9.57060897017417
 20
7.310968279236171
 10
8.994427190999915
 20
6.978309573927753
 10
8.332754458771753
 20
6.908764967410761
 10
7.700000000000003
 20
7.114359353944899
 10
7.205572809000081
 20
7.559543596332041
 10
6.934963838825908
 20
8.167341294691585
 10
6.934963838825908
 20
8.832658705308415
 10
7.205572809000081
 20
9.440456403667955
 10
7.700000000000003
 20
9.885640646055101
 10
8.332754458771753
 20
10.091235032589239
 10
8.994427190999915
 20
10.021690426072247
 10
9.57060897017417
 20
9.689031720763833
 10
9.961672732228159
 20
9.15077862892128
 10
10.100000000000001
 20
8.5
  0
LWPOLYLINE
  5
3B
330
17
100
AcDbEntity
  8
TOP
100
AcDbPolyline
 90
16
 70
0
 10
68.1
 20
8.5
 10
67.96167273222817
 20
7.84922137107872
 10
67.57060897017418
 20
7.310968279236171
 10
66.99442719099991
 20
6.978309573927753
 10
66.33275445877176
 20
6.908764967410761
 10
65.7
 20
7.114359353944899
 10
65.20557280900009
 20
7.559543596332041
 10
64.93496383882591
 20
8.167341294691585
 10
64.93496383882591
 20
8.832658705308415
 10
65.20557280900009
 20
9.440456403667955
 10
65.7
 20
9.885640646055101
 10
66.33275445877175
 20
10.091235032589239
 10
66.99442719099991
 20
10.021690426072247
 10
67.57060897017418
 20
9.689031720763833
 10
67.96167273222817
 20
9.15077862892128
 10
68.1
 20
8.5
  0
LWPOLYLINE
  5
3C
330
17
100
AcDbEntity
  8
TOP
100
AcDbPolyline
 90
16
 70
0
 10
10.100000000000001
 20
57.5
 10
9.961672732228159
 20
56.84922137107872
 10
9.57060897017417
 20
56.31096827923617
 10
8.994427190999915
 20
55.97830957392775
 10
8.332754458771753
 20
55.90876496741076
 10
7.700000000000003
 20
56.1143593539449
 10
7.205572809000081
 20
56.55954359633204
 10
6.934963838825908
 20
57.16734129469158
 10
6.934963838825908
 20
57.83265870530842
 10
7.205572809000081
 20
58.44045640366795
 10
7.700000000000003
 20
58.8856406460551
 10
8.332754458771753
 20
59.09123503258924
 10
8.994427190999915
 20
59.02169042607225
 10
9.57060897017417
 20
58.689031720763836
 10
9.961672732228159
 20
58.15077862892128
 10
10.100000000000001
 20
57.5
  0
LWPOLYLINE
  5
3D
330
17
100
AcDbEntity
  8
TOP
100
AcDbPolyline
 90
16
 70
0
 10
68.1
 20
57.5
 10
67.96167273222817
 20
56.84922137107872
 10
67.57060897017418
 20
56.31096827923617
 10
66.99442719099991
 20
55.97830957392775
 10
66.33275445877176
 20
55.90876496741076
 10
65.7
 20
56.1143593539449
 10
65.20557280900009
 20
56.55954359633204
 10
64.93496383882591
 20
57.16734129469158
 10
64.93496383882591
 20
57.83265870530842
 10
65.20557280900009
 20
58.44045640366795
 10
65.7
 20
58.8856406460551
 10
66.33275445877175
 20
59.09123503258924
 10
66.99442719099991
 20
59.02169042607225
 10
67.57060897017418
 20
58.689031720763836
 10
67.96167273222817
 20
58.15077862892128
 10
68.1
 20
57.5
  0
LWPOLYLINE
  5
3E
330
17
100
AcDbEntity
  8
TOP
100
AcDbPolyline
 90
2
 70
0
 10
0.0
 20
66.0
 10
95.0
 20
66.0
  0
LWPOLYLINE
  5
3F
330
17
100
AcDbEntity
  8
TOP
100
AcDbPolyline
 90
2
 70
0
 10
95.0
 20
0.0
 10
95.0
 20
66.0
  0
LWPOLYLINE
  5
40
330
17
100
AcDbEntity
  8
TOP
100
AcDbPolyline
 90
16
 70
0
 10
10.100000000000001
 20
8.5
 10
9.961672732228159
 20
7.84922137107872
 10
9.57060897017417
 20
7.310968279236171
 10
8.994427190999915
 20
6.978309573927753
 10
8.332754458771753
 20
6.908764967410761
 10
7.700000000000003
 20
7.114359353944899
 10
7.205572809000081
 20
7.559543596332041
 10
6.934963838825908
 20
8.167341294691585
 10
6.934963838825908
 20
8.832658705308415
 10
7.205572809000081
 20
9.440456403667955
 10
7.700000000000003
 20
9.885640646055101
 10
8.332754458771753
 20
10.091235032589239
 10
8.994427190999915
 20
10.021690426072247
 10
9.57060897017417
 20
9.689031720763833
 10
9.961672732228159
 20
9.15077862892128
 10
10.100000000000001
 20
8.5
  0
LWPOLYLINE
  5
41
330
17
100
AcDbEntity
  8
TOP
100
AcDbPolyline
 90
16
 70
0
 10
68.1
 20
8.5
 10
67.96167273222817
 20
7.84922137107872
 10
67.57060897017418
 20
7.310968279236171
 10
66.99442719099991
 20
6.978309573927753
 10
66.33275445877176
 20
6.908764967410761
 10
65.7
 20
7.114359353944899
 10
65.20557280900009
 20
7.559543596332041
 10
64.93496383882591
 20
8.167341294691585
 10
64.93496383882591
 20
8.832658705308415
 10
65.20557280900009
 20
9.440456403667955
 10
65.7
 20
9.885640646055101
 10
66.33275445877175
 20
10.091235032589239
 10
66.99442719099991
 20
10.021690426072247
 10
67.57060897017418
 20
9.689031720763833
 10
67.96167273222817
 20
9.15077862892128
 10
68.1
 20
8.5
  0
LWPOLYLINE
  5
42
330
17
100
AcDbEntity
  8
TOP
100
AcDbPolyline
 90
16
 70
0
 10
10.100000000000001
 20
57.5
 10
9.961672732228159
 20
56.84922137107872
 10
9.57060897017417
 20
56.31096827923617
 10
8.994427190999915
 20
55.97830957392775
 10
8.332754458771753
 20
55.90876496741076
 10
7.700000000000003
 20
56.1143593539449
 10
7.205572809000081
 20
56.55954359633204
 10
6.934963838825908
 20
57.16734129469158
 10
6.934963838825908
 20
57.83265870530842
 10
7.205572809000081
 20
58.44045640366795
 10
7.700000000000003
 20
58.8856406460551
 10
8.332754458771753
 20
59.09123503258924
 10
8.994427190999915
 20
59.02169042607225
 10
9.57060897017417
 20
58.689031720763836
 10
9.961672732228159
 20
58.15077862892128
 10
10.100000000000001
 20
57.5
  0
LWPOLYLINE
  5
43
330
17
100
AcDbEntity
  8
TOP
100
AcDbPolyline
 90
16
 70
0
 10
68.1
 20
57.5
 10
67.96167273222817
 20
56.84922137107872
 10
67.57060897017418
 20
56.31096827923617
 10
66.99442719099991
 20
55.97830957392775
 10
66.33275445877176
 20
55.90876496741076
 10
65.7
 20
56.1143593539449
 10
65.20557280900009
 20
56.55954359633204
 10
64.93496383882591
 20
57.16734129469158
 10
64.93496383882591
 20
57.83265870530842
 10
65.20557280900009
 20
58.44045640366795
 10
65.7
 20
58.8856406460551
 10
66.33275445877175
 20
59.09123503258924
 10
66.99442719099991
 20
59.02169042607225
 10
67.57060897017418
 20
58.689031720763836
 10
67.96167273222817
 20
58.15077862892128
 10
68.1
 20
57.5
  0
LWPOLYLINE
  5
44
330
17
100
AcDbEntity
  8
TOP
100
AcDbPolyline
 90
2
 70
0
 10
167.5
 20
37.0
 10
227.5
 20
37.0
  0
LWPOLYLINE
  5
45
330
17
100
AcDbEntity
  8
TOP
100
AcDbPolyline
 90
16
 70
0
 10
167.5
 20
37.0
 10
167.5
 20
36.6541818305704
 10
167.5
 20
35.67652242543544
 10
167.5
 20
34.236067977499786
 10
167.5
 20
32.581886146929385
 10
167.5
 20
31.0
 10
167.5
 20
29.76393202250021
 10
167.5
 20
29.087409597064777
 10
167.5
 20
29.087409597064777
 10
167.5
 20
29.76393202250021
 10
167.5
 20
31.0
 10
167.5
 20
32.581886146929385
 10
167.5
 20
34.236067977499786
 10
167.5
 20
35.67652242543544
 10
167.5
 20
36.6541818305704
 10
167.5
 20
37.0
  0
LWPOLYLINE
  5
46
330
17
100
AcDbEntity
  8
TOP
100
AcDbPolyline
 90
16
 70
0
 10
227.5
 20
37.0
 10
227.5
 20
36.6541818305704
 10
227.5
 20
35.67652242543544
 10
227.5
 20
34.236067977499786
 10
227.5
 20
32.581886146929385
 10
227.5
 20
31.0
 10
227.5
 20
29.76393202250021
 10
227.5
 20
29.087409597064777
 10
227.5
 20
29.087409597064777
 10
227.5
 20
29.76393202250021
 10
227.5
 20
31.0
 10
227.5
 20
32.581886146929385
 10
227.5
 20
34.236067977499786
 10
227.5
 20
35.67652242543544
 10
227.5
 20
36.6541818305704
 10
227.5
 20
37.0
  0
LWPOLYLINE
  5
47
330
17
100
AcDbEntity
  8
TOP
100
AcDbPolyline
 90
29
 70
0
 10
227.5
 20
36.99999999999999
 10
230.41566325633397
 20
37.08180561907353
 10
233.322152757372
 20
37.32696508555138
 10
236.2103236118463
 20
37.73470703705173
 10
239.07108856572836
 20
38.30374856654517
 10
241.89544659409216
 20
39.03229925885482
 10
244.6745112216687
 20
39.91806682396488
 10
247.39953848298467
 20
40.95826430941308
 10
250.06195443411303
 20
42.149618869074196
 10
252.65338212947248
 20
43.488382060744804
 10
255.1656679787975
 20
44.97034164012922
 10
257.5909074013499
 20
46.590834814118466
 10
259.9214696966541
 20
48.34476291166244
 10
262.15002205350424
 20
50.22660742607538
 10
264.2695526217005
 20
52.23044737829952
 10
266.27339257392464
 20
54.34997794649579
 10
268.15523708833757
 20
56.57853030334584
 10
269.90916518588153
 20
58.90909259865009
 10
271.5296583598708
 20
61.3343320212025
 10
273.0116179392552
 20
63.84661787052753
 10
274.3503811309258
 20
66.43804556588698
 10
275.5417356905869
 20
69.10046151701532
 10
276.58193317603514
 20
71.8254887783313
 10
277.46770074114517
 20
74.60455340590782
 10
278.1962514334548
 20
77.42891143427164
 10
278.76529296294825
 20
80.28967638815371
 10
279.17303491444864
 20
83.17784724262799
 10
279.4181943809265
 20
86.08433674366603
 10
279.5
 20
89.0
  0
LWPOLYLINE
  5
48
330
17
100
AcDbEntity
  8
TOP
100
AcDbPolyline
 90
16
 70
0
 10
279.5
 20
89.0
 10
279.8458181694296
 20
89.0
 10
280.82347757456455
 20
89.0
 10
282.26393202250017
 20
89.0
 10
283.9181138530706
 20
89.0
 10
285.5
 20
89.0
 10
286.73606797749983
 20
89.0
 10
287.4125904029352
 20
89.0
 10
287.4125904029352
 20
89.0
 10
286.73606797749983
 20
89.0
 10
285.5
 20
89.0
 10
283.9181138530706
 20
89.0
 10
282.26393202250017
 20
89.0
 10
280.82347757456455
 20
89.0
 10
279.8458181694296
 20
89.0
 10
279.5
 20
89.0
  0
LWPOLYLINE
  5
49
330
17
100
AcDbEntity
  8
TOP
100
AcDbPolyline
 90
2
 70
0
 10
279.5
 20
89.0
 10
279.5
 20
169.0
  0
LWPOLYLINE
  5
4A
330
17
100
AcDbEntity
  8
TOP
100
AcDbPolyline
 90
16
 70
0
 10
279.5
 20
169.0
 10
279.8458181694296
 20
169.0
 10
280.82347757456455
 20
169.0
 10
282.26393202250017
 20
169.0
 10
283.9181138530706
 20
169.0
 10
285.5
 20
169.0
 10
286.73606797749983
 20
169.0
 10
287.4125904029352
 20
169.0
 10
287.4125904029352
 20
169.0
 10
286.73606797749983
 20
169.0
 10
285.5
 20
169.0
 10
283.9181138530706
 20
169.0
 10
282.26393202250017
 20
169.0
 10
280.82347757456455
 20
169.0
 10
279.8458181694296
 20
169.0
 10
279.5
 20
169.0
  0
LWPOLYLINE
  5
4B
330
17
100
AcDbEntity
  8
TOP
100
AcDbPolyline
 90
100
 70
0
 10
279.0
 20
89.0
 10
278.89631383830204
 20
92.26633186231308
 10
278.58567286078596
 20
95.5195113590481
 10
278.0693279090294
 20
98.74643908456113
 10
277.34935812191236
 20
101.93412133982558
 10
276.4286625636587
 20
105.06972245347208
 10
275.31094855032774
 20
108.14061646650687
 10
274.000716721761
 20
111.13443797259234
 10
272.5032429190939
 20
114.03913190917413
 10
270.82455694080585
 20
116.84300209896327
 10
268.9714182628495
 20
119.53475834631398
 10
266.9512888206274
 20
122.10356189885678
 10
264.7723029624111
 20
124.53906909132877
 10
262.4432346951923
 20
126.83147299586295
 10
259.9734623548529
 20
128.97154291102547
 10
257.37293084291673
 20
130.9506615305923
 10
254.65211158194086
 20
132.7608596424
 10
251.82196035079318
 20
134.39484821755048
 10
248.89387316959716
 20
135.8460477607577
 10
245.87964041198143
 20
137.10861480365298
 10
242.79139932940618
 20
138.1774654343698
 10
239.6415851787355
 20
139.0482957686624
 10
236.44288114984693
 20
139.71759928012872
 10
233.20816729490207
 20
140.1826809197546
 10
229.95046866492274
 20
140.4416679679249
 10
226.6829028625074
 20
140.49351757520458
 10
223.4186272218754
 20
140.33802096152505
 10
220.17078582892583
 20
139.97580425686803
 10
216.9524565946427
 20
139.4083259800611
 10
213.7765985949632
 20
138.637871165837
 10
210.65599988915278
 20
137.66754216380542
 10
207.60322602680387
 20
136.50124614638594
 10
204.63056945080262
 20
135.1436793760038
 10
201.75
 20
133.60030829489858
 10
198.97311671089534
 20
131.87734751369072
 10
196.31110111241017
 20
129.98173478733787
 10
193.77467220181782
 20
127.9211030792443
 10
191.37404328312448
 20
125.70374982601145
 10
189.11888084169865
 20
123.33860352658904
 10
187.01826562074646
 20
120.83518779036118
 10
185.08065605636364
 20
118.20358298893271
 10
183.3138542183987
 20
115.45438566603045
 10
181.72497439427144
 20
112.59866586896165
 10
180.32041444224842
 20
109.6479225734406
 10
179.10583002952572
 20
106.61403738127197
 10
178.0861118588534
 20
103.50922667733364
 10
177.26536597540155
 20
100.34599243850687
 10
176.6468972331657
 20
97.13707189262752
 10
176.23319598748614
 20
93.89538623016543
 10
176.02592806726597
 20
90.63398857515048
 10
176.02592806726597
 20
87.36601142484953
 10
176.23319598748614
 20
84.10461376983461
 10
176.6468972331657
 20
80.8629281073725
 10
177.26536597540155
 20
77.65400756149316
 10
178.08611185885337
 20
74.4907733226664
 10
179.10583002952572
 20
71.38596261872806
 10
180.3204144422484
 20
68.35207742655943
 10
181.72497439427144
 20
65.40133413103837
 10
183.3138542183987
 20
62.54561433396957
 10
185.08065605636358
 20
59.796417011067334
 10
187.01826562074643
 20
57.164812209638825
 10
189.11888084169863
 20
54.661396473411
 10
191.37404328312445
 20
52.29625017398856
 10
193.77467220181782
 20
50.0788969207557
 10
196.31110111241017
 20
48.01826521266214
 10
198.9731167108953
 20
46.12265248630928
 10
201.74999999999997
 20
44.399691705101425
 10
204.63056945080265
 20
42.8563206239962
 10
207.60322602680384
 20
41.498753853614076
 10
210.65599988915278
 20
40.33245783619458
 10
213.77659859496316
 20
39.36212883416299
 10
216.95245659464265
 20
38.59167401993891
 10
220.1707858289258
 20
38.02419574313197
 10
223.41862722187534
 20
37.661979038474975
 10
226.68290286250738
 20
37.506482424795436
 10
229.95046866492274
 20
37.55833203207509
 10
233.208167294902
 20
37.817319080245404
 10
236.4428811498469
 20
38.28240071987128
 10
239.64158517873548
 20
38.951704231337594
 10
242.79139932940615
 20
39.82253456563019
 10
245.87964041198134
 20
40.89138519634698
 10
248.89387316959713
 20
42.153952239242294
 10
251.82196035079312
 20
43.605151782449504
 10
254.65211158194086
 20
45.23914035760001
 10
257.37293084291673
 20
47.0493384694077
 10
259.97346235485287
 20
49.028457088974505
 10
262.4432346951923
 20
51.16852700413704
 10
264.7723029624111
 20
53.46093090867123
 10
266.9512888206273
 20
55.896438101143175
 10
268.9714182628495
 20
58.46524165368599
 10
270.8245569408058
 20
61.15699790103669
 10
272.5032429190939
 20
63.960868090825855
 10
274.00071672176097
 20
66.8655620274076
 10
275.31094855032774
 20
69.8593835334931
 10
276.4286625636587
 20
72.93027754652792
 10
277.34935812191236
 20
76.0658786601744
 10
278.0693279090294
 20
79.25356091543885
 10
278.58567286078596
 20
82.48048864095188
 10
278.89631383830204
 20
85.73366813768692
 10
279.0
 20
88.99999999999999
  0
LWPOLYLINE
  5
4C
330
17
100
AcDbEntity
  8
TOP
100
AcDbPolyline
 90
100
 70
0
 10
279.0
 20
89.0
 10
278.89631383830204
 20
92.26633186231308
 10
278.58567286078596
 20
95.5195113590481
 10
278.0693279090294
 20
98.74643908456113
 10
277.34935812191236
 20
101.93412133982558
 10
276.4286625636587
 20
105.06972245347208
 10
275.31094855032774
 20
108.14061646650687
 10
274.000716721761
 20
111.13443797259234
 10
272.5032429190939
 20
114.03913190917413
 10
270.82455694080585
 20
116.84300209896327
 10
268.9714182628495
 20
119.53475834631398
 10
266.9512888206274
 20
122.10356189885678
 10
264.7723029624111
 20
124.53906909132877
 10
262.4432346951923
 20
126.83147299586295
 10
259.9734623548529
 20
128.97154291102547
 10
257.37293084291673
 20
130.9506615305923
 10
254.65211158194086
 20
132.7608596424
 10
251.82196035079318
 20
134.39484821755048
 10
248.89387316959716
 20
135.8460477607577
 10
245.87964041198143
 20
137.10861480365298
 10
242.79139932940618
 20
138.1774654343698
 10
239.6415851787355
 20
139.0482957686624
 10
236.44288114984693
 20
139.71759928012872
 10
233.20816729490207
 20
140.1826809197546
 10
229.95046866492274
 20
140.4416679679249
 10
226.6829028625074
 20
140.49351757520458
 10
223.4186272218754
 20
140.33802096152505
 10
220.17078582892583
 20
139.97580425686803
 10
216.9524565946427
 20
139.4083259800611
 10
213.7765985949632
 20
138.637871165837
 10
210.65599988915278
 20
137.66754216380542
 10
207.60322602680387
 20
136.50124614638594
 10
204.63056945080262
 20
135.1436793760038
 10
201.75
 20
133.60030829489858
 10
198.97311671089534
 20
131.87734751369072
 10
196.31110111241017
 20
129.98173478733787
 10
193.77467220181782
 20
127.9211030792443
 10
191.37404328312448
 20
125.70374982601145
 10
189.11888084169865
 20
123.33860352658904
 10
187.01826562074646
 20
120.83518779036118
 10
185.08065605636364
 20
118.20358298893271
 10
183.3138542183987
 20
115.45438566603045
 10
181.72497439427144
 20
112.59866586896165
 10
180.32041444224842
 20
109.6479225734406
 10
179.10583002952572
 20
106.61403738127197
 10
178.0861118588534
 20
103.50922667733364
 10
177.26536597540155
 20
100.34599243850687
 10
176.6468972331657
 20
97.13707189262752
 10
176.23319598748614
 20
93.89538623016543
 10
176.02592806726597
 20
90.63398857515048
 10
176.02592806726597
 20
87.36601142484953
 10
176.23319598748614
 20
84.10461376983461
 10
176.6468972331657
 20
80.8629281073725
 10
177.26536597540155
 20
77.65400756149316
 10
178.08611185885337
 20
74.4907733226664
 10
179.10583002952572
 20
71.38596261872806
 10
180.3204144422484
 20
68.35207742655943
 10
181.72497439427144
 20
65.40133413103837
 10
183.3138542183987
 20
62.54561433396957
 10
185.08065605636358
 20
59.796417011067334
 10
187.01826562074643
 20
57.164812209638825
 10
189.11888084169863
 20
54.661396473411
 10
191.37404328312445
 20
52.29625017398856
 10
193.77467220181782
 20
50.0788969207557
 10
196.31110111241017
 20
48.01826521266214
 10
198.9731167108953
 20
46.12265248630928
 10
201.74999999999997
 20
44.399691705101425
 10
204.63056945080265
 20
42.8563206239962
 10
207.60322602680384
 20
41.498753853614076
 10
210.65599988915278
 20
40.33245783619458
 10
213.77659859496316
 20
39.36212883416299
 10
216.95245659464265
 20
38.59167401993891
 10
220.1707858289258
 20
38.02419574313197
 10
223.41862722187534
 20
37.661979038474975
 10
226.68290286250738
 20
37.506482424795436
 10
229.95046866492274
 20
37.55833203207509
 10
233.208167294902
 20
37.817319080245404
 10
236.4428811498469
 20
38.28240071987128
 10
239.64158517873548
 20
38.951704231337594
 10
242.79139932940615
 20
39.82253456563019
 10
245.87964041198134
 20
40.89138519634698
 10
248.89387316959713
 20
42.153952239242294
 10
251.82196035079312
 20
43.605151782449504
 10
254.65211158194086
 20
45.23914035760001
 10
257.37293084291673
 20
47.0493384694077
 10
259.97346235485287
 20
49.028457088974505
 10
262.4432346951923
 20
51.16852700413704
 10
264.7723029624111
 20
53.46093090867123
 10
266.9512888206273
 20
55.896438101143175
 10
268.9714182628495
 20
58.46524165368599
 10
270.8245569408058
 20
61.15699790103669
 10
272.5032429190939
 20
63.960868090825855
 10
274.00071672176097
 20
66.8655620274076
 10
275.31094855032774
 20
69.8593835334931
 10
276.4286625636587
 20
72.93027754652792
 10
277.34935812191236
 20
76.0658786601744
 10
278.0693279090294
 20
79.25356091543885
 10
278.58567286078596
 20
82.48048864095188
 10
278.89631383830204
 20
85.73366813768692
 10
279.0
 20
88.99999999999999
  0
DIMENSION
  5
4D
330
17
100
AcDbEntity
  8
DIMENSIONS
100
AcDbDimension
280
0
  2
*D1
  3
Standard
 10
0.0
 20
-35.0
 30
0.0
 11
143.75000004999998
 21
-35.0
 31
0.0
 70
32
 71
5
  1
<>
100
AcDbAlignedDimension
 13
0.0
 23
0.0
 33
0.0
 14
287.50000009999997
 24
0.0
 34
0.0
 50
0.0
100
AcDbRotatedDimension
1001
ACAD
1000
DSTYLE
1002
{
1070
140
1040
2.5
1070
41
1040
2.5
1070
176
1070
7
1070
177
1070
7
1070
178
1070
7
1070
271
1070
2
1002
}
  0
DIMENSION
  5
61
330
17
100
AcDbEntity
  8
DIMENSIONS
100
AcDbDimension
280
0
  2
*D2
  3
Standard
 10
-35.0
 20
0.0
 30
0.0
 11
-35.0
 21
84.5
 31
0.0
 70
32
 71
5
  1
<>
100
AcDbAlignedDimension
 13
0.0
 23
0.0
 33
0.0
 14
0.0
 24
169.0
 34
0.0
 50
90.0
100
AcDbRotatedDimension
1001
ACAD
1000
DSTYLE
1002
{
1070
140
1040
2.5
1070
41
1040
2.5
1070
176
1070
7
1070
177
1070
7
1070
178
1070
7
1070
271
1070
2
1002
}
  0
TEXT
  5
71
330
17
100
AcDbEntity
  8
NOTES
100
AcDbText
 10
0.0
 20
189.0
 30
0.0
 40
4.0
  1
TOP
100
AcDbText
  0
LWPOLYLINE
  5
72
330
17
100
AcDbEntity
  8
FRONT
100
AcDbPolyline
 90
2
 70
0
 10
0.0
 20
-166.0000001
 10
0.0
 20
-162.0000001
  0
LWPOLYLINE
  5
73
330
17
100
AcDbEntity
  8
FRONT
100
AcDbPolyline
 90
2
 70
0
 10
0.0
 20
-166.0000001
 10
0.0
 20
-162.0000001
  0
LWPOLYLINE
  5
74
330
17
100
AcDbEntity
  8
FRONT
100
AcDbPolyline
 90
2
 70
0
 10
0.0
 20
-166.0000001
 10
95.0
 20
-166.0000001
  0
LWPOLYLINE
  5
75
330
17
100
AcDbEntity
  8
FRONT
100
AcDbPolyline
 90
2
 70
0
 10
95.0
 20
-166.0000001
 10
95.0
 20
-162.0000001
  0
LWPOLYLINE
  5
76
330
17
100
AcDbEntity
  8
FRONT
100
AcDbPolyline
 90
2
 70
0
 10
0.0
 20
-162.0000001
 10
95.0
 20
-162.0000001
  0
LWPOLYLINE
  5
77
330
17
100
AcDbEntity
  8
FRONT
100
AcDbPolyline
 90
2
 70
0
 10
0.0
 20
-162.0000001
 10
95.0
 20
-162.0000001
  0
LWPOLYLINE
  5
78
330
17
100
AcDbEntity
  8
FRONT
100
AcDbPolyline
 90
16
 70
0
 10
10.100000000000001
 20
-162.0000001
 10
9.961672732228159
 20
-162.0000001
 10
9.57060897017417
 20
-162.0000001
 10
8.994427190999915
 20
-162.0000001
 10
8.332754458771753
 20
-162.0000001
 10
7.700000000000003
 20
-162.0000001
 10
7.205572809000081
 20
-162.0000001
 10
6.934963838825908
 20
-162.0000001
 10
6.934963838825908
 20
-162.0000001
 10
7.205572809000081
 20
-162.0000001
 10
7.700000000000003
 20
-162.0000001
 10
8.332754458771753
 20
-162.0000001
 10
8.994427190999915
 20
-162.0000001
 10
9.57060897017417
 20
-162.0000001
 10
9.961672732228159
 20
-162.0000001
 10
10.100000000000001
 20
-162.0000001
  0
LWPOLYLINE
  5
79
330
17
100
AcDbEntity
  8
FRONT
100
AcDbPolyline
 90
16
 70
0
 10
68.1
 20
-162.0000001
 10
67.96167273222817
 20
-162.0000001
 10
67.57060897017418
 20
-162.0000001
 10
66.99442719099991
 20
-162.0000001
 10
66.33275445877176
 20
-162.0000001
 10
65.7
 20
-162.0000001
 10
65.20557280900009
 20
-162.0000001
 10
64.93496383882591
 20
-162.0000001
 10
64.93496383882591
 20
-162.0000001
 10
65.20557280900009
 20
-162.0000001
 10
65.7
 20
-162.0000001
 10
66.33275445877175
 20
-162.0000001
 10
66.99442719099991
 20
-162.0000001
 10
67.57060897017418
 20
-162.0000001
 10
67.96167273222817
 20
-162.0000001
 10
68.1
 20
-162.0000001
  0
LWPOLYLINE
  5
7A
330
17
100
AcDbEntity
  8
FRONT
100
AcDbPolyline
 90
16
 70
0
 10
10.100000000000001
 20
-162.0000001
 10
9.961672732228159
 20
-162.0000001
 10
9.57060897017417
 20
-162.0000001
 10
8.994427190999915
 20
-162.0000001
 10
8.332754458771753
 20
-162.0000001
 10
7.700000000000003
 20
-162.0000001
 10
7.205572809000081
 20
-162.0000001
 10
6.934963838825908
 20
-162.0000001
 10
6.934963838825908
 20
-162.0000001
 10
7.205572809000081
 20
-162.0000001
 10
7.700000000000003
 20
-162.0000001
 10
8.332754458771753
 20
-162.0000001
 10
8.994427190999915
 20
-162.0000001
 10
9.57060897017417
 20
-162.0000001
 10
9.961672732228159
 20
-162.0000001
 10
10.100000000000001
 20
-162.0000001
  0
LWPOLYLINE
  5
7B
330
17
100
AcDbEntity
  8
FRONT
100
AcDbPolyline
 90
16
 70
0
 10
68.1
 20
-162.0000001
 10
67.96167273222817
 20
-162.0000001
 10
67.57060897017418
 20
-162.0000001
 10
66.99442719099991
 20
-162.0000001
 10
66.33275445877176
 20
-162.0000001
 10
65.7
 20
-162.0000001
 10
65.20557280900009
 20
-162.0000001
 10
64.93496383882591
 20
-162.0000001
 10
64.93496383882591
 20
-162.0000001
 10
65.20557280900009
 20
-162.0000001
 10
65.7
 20
-162.0000001
 10
66.33275445877175
 20
-162.0000001
 10
66.99442719099991
 20
-162.0000001
 10
67.57060897017418
 20
-162.0000001
 10
67.96167273222817
 20
-162.0000001
 10
68.1
 20
-162.0000001
  0
LWPOLYLINE
  5
7C
330
17
100
AcDbEntity
  8
FRONT
100
AcDbPolyline
 90
2
 70
0
 10
0.0
 20
-166.0000001
 10
95.0
 20
-166.0000001
  0
LWPOLYLINE
  5
7D
330
17
100
AcDbEntity
  8
FRONT
100
AcDbPolyline
 90
2
 70
0
 10
95.0
 20
-166.0000001
 10
95.0
 20
-162.0000001
  0
LWPOLYLINE
  5
7E
330
17
100
AcDbEntity
  8
FRONT
100
AcDbPolyline
 90
16
 70
0
 10
10.100000000000001
 20
-166.0000001
 10
9.961672732228159
 20
-166.0000001
 10
9.57060897017417
 20
-166.0000001
 10
8.994427190999915
 20
-166.0000001
 10
8.332754458771753
 20
-166.0000001
 10
7.700000000000003
 20
-166.0000001
 10
7.205572809000081
 20
-166.0000001
 10
6.934963838825908
 20
-166.0000001
 10
6.934963838825908
 20
-166.0000001
 10
7.205572809000081
 20
-166.0000001
 10
7.700000000000003
 20
-166.0000001
 10
8.332754458771753
 20
-166.0000001
 10
8.994427190999915
 20
-166.0000001
 10
9.57060897017417
 20
-166.0000001
 10
9.961672732228159
 20
-166.0000001
 10
10.100000000000001
 20
-166.0000001
  0
LWPOLYLINE
  5
7F
330
17
100
AcDbEntity
  8
FRONT
100
AcDbPolyline
 90
16
 70
0
 10
68.1
 20
-166.0000001
 10
67.96167273222817
 20
-166.0000001
 10
67.57060897017418
 20
-166.0000001
 10
66.99442719099991
 20
-166.0000001
 10
66.33275445877176
 20
-166.0000001
 10
65.7
 20
-166.0000001
 10
65.20557280900009
 20
-166.0000001
 10
64.93496383882591
 20
-166.0000001
 10
64.93496383882591
 20
-166.0000001
 10
65.20557280900009
 20
-166.0000001
 10
65.7
 20
-166.0000001
 10
66.33275445877175
 20
-166.0000001
 10
66.99442719099991
 20
-166.0000001
 10
67.57060897017418
 20
-166.0000001
 10
67.96167273222817
 20
-166.0000001
 10
68.1
 20
-166.0000001
  0
LWPOLYLINE
  5
80
330
17
100
AcDbEntity
  8
FRONT
100
AcDbPolyline
 90
16
 70
0
 10
10.100000000000001
 20
-166.0000001
 10
9.961672732228159
 20
-166.0000001
 10
9.57060897017417
 20
-166.0000001
 10
8.994427190999915
 20
-166.0000001
 10
8.332754458771753
 20
-166.0000001
 10
7.700000000000003
 20
-166.0000001
 10
7.205572809000081
 20
-166.0000001
 10
6.934963838825908
 20
-166.0000001
 10
6.934963838825908
 20
-166.0000001
 10
7.205572809000081
 20
-166.0000001
 10
7.700000000000003
 20
-166.0000001
 10
8.332754458771753
 20
-166.0000001
 10
8.994427190999915
 20
-166.0000001
 10
9.57060897017417
 20
-166.0000001
 10
9.961672732228159
 20
-166.0000001
 10
10.100000000000001
 20
-166.0000001
  0
LWPOLYLINE
  5
81
330
17
100
AcDbEntity
  8
FRONT
100
AcDbPolyline
 90
16
 70
0
 10
68.1
 20
-166.0000001
 10
67.96167273222817
 20
-166.0000001
 10
67.57060897017418
 20
-166.0000001
 10
66.99442719099991
 20
-166.0000001
 10
66.33275445877176
 20
-166.0000001
 10
65.7
 20
-166.0000001
 10
65.20557280900009
 20
-166.0000001
 10
64.93496383882591
 20
-166.0000001
 10
64.93496383882591
 20
-166.0000001
 10
65.20557280900009
 20
-166.0000001
 10
65.7
 20
-166.0000001
 10
66.33275445877175
 20
-166.0000001
 10
66.99442719099991
 20
-166.0000001
 10
67.57060897017418
 20
-166.0000001
 10
67.96167273222817
 20
-166.0000001
 10
68.1
 20
-166.0000001
  0
LWPOLYLINE
  5
82
330
17
100
AcDbEntity
  8
FRONT
100
AcDbPolyline
 90
2
 70
0
 10
10.100000000000001
 20
-166.0000001
 10
10.100000000000001
 20
-162.0000001
  0
LWPOLYLINE
  5
83
330
17
100
AcDbEntity
  8
FRONT
100
AcDbPolyline
 90
2
 70
0
 10
68.1
 20
-166.0000001
 10
68.1
 20
-162.0000001
  0
LWPOLYLINE
  5
84
330
17
100
AcDbEntity
  8
FRONT
100
AcDbPolyline
 90
2
 70
0
 10
10.100000000000001
 20
-166.0000001
 10
10.100000000000001
 20
-162.0000001
  0
LWPOLYLINE
  5
85
330
17
100
AcDbEntity
  8
FRONT
100
AcDbPolyline
 90
2
 70
0
 10
68.1
 20
-166.0000001
 10
68.1
 20
-162.0000001
  0
LWPOLYLINE
  5
86
330
17
100
AcDbEntity
  8
FRONT
100
AcDbPolyline
 90
2
 70
0
 10
167.5
 20
-154.0000001
 10
227.5
 20
-154.0000001
  0
LWPOLYLINE
  5
87
330
17
100
AcDbEntity
  8
FRONT
100
AcDbPolyline
 90
16
 70
0
 10
167.5
 20
-154.0000001
 10
167.5
 20
-152.37305352769678
 10
167.5
 20
-151.02742079809042
 10
167.5
 20
-150.19577403481938
 10
167.5
 20
-150.0219125185269
 10
167.5
 20
-150.53589848486223
 10
167.5
 20
-151.64885909083011
 10
167.5
 20
-153.16835333672896
 10
167.5
 20
-154.83164686327103
 10
167.5
 20
-156.35114110916987
 10
167.5
 20
-157.46410171513776
 10
167.5
 20
-157.97808768147308
 10
167.5
 20
-157.8042261651806
 10
167.5
 20
-156.97257940190957
 10
167.5
 20
-155.6269466723032
 10
167.5
 20
-154.0000001
  0
LWPOLYLINE
  5
88
330
17
100
AcDbEntity
  8
FRONT
100
AcDbPolyline
 90
16
 70
0
 10
227.5
 20
-154.0000001
 10
227.5
 20
-152.37305352769678
 10
227.5
 20
-151.02742079809042
 10
227.5
 20
-150.19577403481938
 10
227.5
 20
-150.0219125185269
 10
227.5
 20
-150.53589848486223
 10
227.5
 20
-151.64885909083011
 10
227.5
 20
-153.16835333672896
 10
227.5
 20
-154.83164686327103
 10
227.5
 20
-156.35114110916987
 10
227.5
 20
-157.46410171513776
 10
227.5
 20
-157.97808768147308
 10
227.5
 20
-157.8042261651806
 10
227.5
 20
-156.97257940190957
 10
227.5
 20
-155.6269466723032
 10
227.5
 20
-154.0000001
  0
LWPOLYLINE
  5
89
330
17
100
AcDbEntity
  8
FRONT
100
AcDbPolyline
 90
29
 70
0
 10
227.5
 20
-154.0000001
 10
230.41566325633397
 20
-154.0000001
 10
233.322152757372
 20
-154.0000001
 10
236.2103236118463
 20
-154.0000001
 10
239.07108856572836
 20
-154.0000001
 10
241.89544659409216
 20
-154.0000001
 10
244.6745112216687
 20
-154.0000001
 10
247.39953848298467
 20
-154.0000001
 10
250.06195443411303
 20
-154.0000001
 10
252.65338212947248
 20
-154.0000001
 10
255.1656679787975
 20
-154.0000001
 10
257.5909074013499
 20
-154.0000001
 10
259.9214696966541
 20
-154.0000001
 10
262.15002205350424
 20
-154.0000001
 10
264.2695526217005
 20
-154.0000001
 10
266.27339257392464
 20
-154.0000001
 10
268.15523708833757
 20
-154.0000001
 10
269.90916518588153
 20
-154.0000001
 10
271.5296583598708
 20
-154.0000001
 10
273.0116179392552
 20
-154.0000001
 10
274.3503811309258
 20
-154.0000001
 10
275.5417356905869
 20
-154.0000001
 10
276.58193317603514
 20
-154.0000001
 10
277.46770074114517
 20
-154.0000001
 10
278.1962514334548
 20
-154.0000001
 10
278.76529296294825
 20
-154.0000001
 10
279.17303491444864
 20
-154.0000001
 10
279.4181943809265
 20
-154.0000001
 10
279.5
 20
-154.0000001
  0
LWPOLYLINE
  5
8A
330
17
100
AcDbEntity
  8
FRONT
100
AcDbPolyline
 90
16
 70
0
 10
279.5
 20
-154.0000001
 10
279.8458181694296
 20
-155.6269466723032
 10
280.82347757456455
 20
-156.97257940190957
 10
282.26393202250017
 20
-157.8042261651806
 10
283.9181138530706
 20
-157.97808768147308
 10
285.5
 20
-157.46410171513776
 10
286.73606797749983
 20
-156.35114110916987
 10
287.4125904029352
 20
-154.83164686327103
 10
287.4125904029352
 20
-153.16835333672896
 10
286.73606797749983
 20
-151.64885909083011
 10
285.5
 20
-150.53589848486223
 10
283.9181138530706
 20
-150.0219125185269
 10
282.26393202250017
 20
-150.19577403481938
 10
280.82347757456455
 20
-151.02742079809042
 10
279.8458181694296
 20
-152.3730535276968
 10
279.5
 20
-154.0000001
  0
LWPOLYLINE
  5
8B
330
17
100
AcDbEntity
  8
FRONT
100
AcDbPolyline
 90
16
 70
0
 10
279.5
 20
-154.0000001
 10
279.8458181694296
 20
-152.37305352769678
 10
280.82347757456455
 20
-151.02742079809042
 10
282.26393202250017
 20
-150.19577403481938
 10
283.9181138530706
 20
-150.0219125185269
 10
285.5
 20
-150.53589848486223
 10
286.73606797749983
 20
-151.64885909083011
 10
287.4125904029352
 20
-153.16835333672896
 10
287.4125904029352
 20
-154.83164686327103
 10
286.73606797749983
 20
-156.35114110916987
 10
285.5
 20
-157.46410171513776
 10
283.9181138530706
 20
-157.97808768147308
 10
282.26393202250017
 20
-157.8042261651806
 10
280.82347757456455
 20
-156.97257940190957
 10
279.8458181694296
 20
-155.6269466723032
 10
279.5
 20
-154.0000001
  0
LWPOLYLINE
  5
8C
330
17
100
AcDbEntity
  8
FRONT
100
AcDbPolyline
 90
2
 70
0
 10
279.0
 20
-166.0000001
 10
279.0
 20
-150.0000001
  0
LWPOLYLINE
  5
8D
330
17
100
AcDbEntity
  8
FRONT
100
AcDbPolyline
 90
100
 70
0
 10
279.0
 20
-166.0000001
 10
278.89631383830204
 20
-166.0000001
 10
278.58567286078596
 20
-166.0000001
 10
278.0693279090294
 20
-166.0000001
 10
277.34935812191236
 20
-166.0000001
 10
276.4286625636587
 20
-166.0000001
 10
275.31094855032774
 20
-166.0000001
 10
274.000716721761
 20
-166.0000001
 10
272.5032429190939
 20
-166.0000001
 10
270.82455694080585
 20
-166.0000001
 10
268.9714182628495
 20
-166.0000001
 10
266.9512888206274
 20
-166.0000001
 10
264.7723029624111
 20
-166.0000001
 10
262.4432346951923
 20
-166.0000001
 10
259.9734623548529
 20
-166.0000001
 10
257.37293084291673
 20
-166.0000001
 10
254.65211158194086
 20
-166.0000001
 10
251.82196035079318
 20
-166.0000001
 10
248.89387316959716
 20
-166.0000001
 10
245.87964041198143
 20
-166.0000001
 10
242.79139932940618
 20
-166.0000001
 10
239.6415851787355
 20
-166.0000001
 10
236.44288114984693
 20
-166.0000001
 10
233.20816729490207
 20
-166.0000001
 10
229.95046866492274
 20
-166.0000001
 10
226.6829028625074
 20
-166.0000001
 10
223.4186272218754
 20
-166.0000001
 10
220.17078582892583
 20
-166.0000001
 10
216.9524565946427
 20
-166.0000001
 10
213.7765985949632
 20
-166.0000001
 10
210.65599988915278
 20
-166.0000001
 10
207.60322602680387
 20
-166.0000001
 10
204.63056945080262
 20
-166.0000001
 10
201.75
 20
-166.0000001
 10
198.97311671089534
 20
-166.0000001
 10
196.31110111241017
 20
-166.0000001
 10
193.77467220181782
 20
-166.0000001
 10
191.37404328312448
 20
-166.0000001
 10
189.11888084169865
 20
-166.0000001
 10
187.01826562074646
 20
-166.0000001
 10
185.08065605636364
 20
-166.0000001
 10
183.3138542183987
 20
-166.0000001
 10
181.72497439427144
 20
-166.0000001
 10
180.32041444224842
 20
-166.0000001
 10
179.10583002952572
 20
-166.0000001
 10
178.0861118588534
 20
-166.0000001
 10
177.26536597540155
 20
-166.0000001
 10
176.6468972331657
 20
-166.0000001
 10
176.23319598748614
 20
-166.0000001
 10
176.02592806726597
 20
-166.0000001
 10
176.02592806726597
 20
-166.0000001
 10
176.23319598748614
 20
-166.0000001
 10
176.6468972331657
 20
-166.0000001
 10
177.26536597540155
 20
-166.0000001
 10
178.08611185885337
 20
-166.0000001
 10
179.10583002952572
 20
-166.0000001
 10
180.3204144422484
 20
-166.0000001
 10
181.72497439427144
 20
-166.0000001
 10
183.3138542183987
 20
-166.0000001
 10
185.08065605636358
 20
-166.0000001
 10
187.01826562074643
 20
-166.0000001
 10
189.11888084169863
 20
-166.0000001
 10
191.37404328312445
 20
-166.0000001
 10
193.77467220181782
 20
-166.0000001
 10
196.31110111241017
 20
-166.0000001
 10
198.9731167108953
 20
-166.0000001
 10
201.74999999999997
 20
-166.0000001
 10
204.63056945080265
 20
-166.0000001
 10
207.60322602680384
 20
-166.0000001
 10
210.65599988915278
 20
-166.0000001
 10
213.77659859496316
 20
-166.0000001
 10
216.95245659464265
 20
-166.0000001
 10
220.1707858289258
 20
-166.0000001
 10
223.41862722187534
 20
-166.0000001
 10
226.68290286250738
 20
-166.0000001
 10
229.95046866492274
 20
-166.0000001
 10
233.208167294902
 20
-166.0000001
 10
236.4428811498469
 20
-166.0000001
 10
239.64158517873548
 20
-166.0000001
 10
242.79139932940615
 20
-166.0000001
 10
245.87964041198134
 20
-166.0000001
 10
248.89387316959713
 20
-166.0000001
 10
251.82196035079312
 20
-166.0000001
 10
254.65211158194086
 20
-166.0000001
 10
257.37293084291673
 20
-166.0000001
 10
259.97346235485287
 20
-166.0000001
 10
262.4432346951923
 20
-166.0000001
 10
264.7723029624111
 20
-166.0000001
 10
266.9512888206273
 20
-166.0000001
 10
268.9714182628495
 20
-166.0000001
 10
270.8245569408058
 20
-166.0000001
 10
272.5032429190939
 20
-166.0000001
 10
274.00071672176097
 20
-166.0000001
 10
275.31094855032774
 20
-166.0000001
 10
276.4286625636587
 20
-166.0000001
 10
277.34935812191236
 20
-166.0000001
 10
278.0693279090294
 20
-166.0000001
 10
278.58567286078596
 20
-166.0000001
 10
278.89631383830204
 20
-166.0000001
 10
279.0
 20
-166.0000001
  0
LWPOLYLINE
  5
8E
330
17
100
AcDbEntity
  8
FRONT
100
AcDbPolyline
 90
100
 70
0
 10
279.0
 20
-150.0000001
 10
278.89631383830204
 20
-150.0000001
 10
278.58567286078596
 20
-150.0000001
 10
278.0693279090294
 20
-150.0000001
 10
277.34935812191236
 20
-150.0000001
 10
276.4286625636587
 20
-150.0000001
 10
275.31094855032774
 20
-150.0000001
 10
274.000716721761
 20
-150.0000001
 10
272.5032429190939
 20
-150.0000001
 10
270.82455694080585
 20
-150.0000001
 10
268.9714182628495
 20
-150.0000001
 10
266.9512888206274
 20
-150.0000001
 10
264.7723029624111
 20
-150.0000001
 10
262.4432346951923
 20
-150.0000001
 10
259.9734623548529
 20
-150.0000001
 10
257.37293084291673
 20
-150.0000001
 10
254.65211158194086
 20
-150.0000001
 10
251.82196035079318
 20
-150.0000001
 10
248.89387316959716
 20
-150.0000001
 10
245.87964041198143
 20
-150.0000001
 10
242.79139932940618
 20
-150.0000001
 10
239.6415851787355
 20
-150.0000001
 10
236.44288114984693
 20
-150.0000001
 10
233.20816729490207
 20
-150.0000001
 10
229.95046866492274
 20
-150.0000001
 10
226.6829028625074
 20
-150.0000001
 10
223.4186272218754
 20
-150.0000001
 10
220.17078582892583
 20
-150.0000001
 10
216.9524565946427
 20
-150.0000001
 10
213.7765985949632
 20
-150.0000001
 10
210.65599988915278
 20
-150.0000001
 10
207.60322602680387
 20
-150.0000001
 10
204.63056945080262
 20
-150.0000001
 10
201.75
 20
-150.0000001
 10
198.97311671089534
 20
-150.0000001
 10
196.31110111241017
 20
-150.0000001
 10
193.77467220181782
 20
-150.0000001
 10
191.37404328312448
 20
-150.0000001
 10
189.11888084169865
 20
-150.0000001
 10
187.01826562074646
 20
-150.0000001
 10
185.08065605636364
 20
-150.0000001
 10
183.3138542183987
 20
-150.0000001
 10
181.72497439427144
 20
-150.0000001
 10
180.32041444224842
 20
-150.0000001
 10
179.10583002952572
 20
-150.0000001
 10
178.0861118588534
 20
-150.0000001
 10
177.26536597540155
 20
-150.0000001
 10
176.6468972331657
 20
-150.0000001
 10
176.23319598748614
 20
-150.0000001
 10
176.02592806726597
 20
-150.0000001
 10
176.02592806726597
 20
-150.0000001
 10
176.23319598748614
 20
-150.0000001
 10
176.6468972331657
 20
-150.0000001
 10
177.26536597540155
 20
-150.0000001
 10
178.08611185885337
 20
-150.0000001
 10
179.10583002952572
 20
-150.0000001
 10
180.3204144422484
 20
-150.0000001
 10
181.72497439427144
 20
-150.0000001
 10
183.3138542183987
 20
-150.0000001
 10
185.08065605636358
 20
-150.0000001
 10
187.01826562074643
 20
-150.0000001
 10
189.11888084169863
 20
-150.0000001
 10
191.37404328312445
 20
-150.0000001
 10
193.77467220181782
 20
-150.0000001
 10
196.31110111241017
 20
-150.0000001
 10
198.9731167108953
 20
-150.0000001
 10
201.74999999999997
 20
-150.0000001
 10
204.63056945080265
 20
-150.0000001
 10
207.60322602680384
 20
-150.0000001
 10
210.65599988915278
 20
-150.0000001
 10
213.77659859496316
 20
-150.0000001
 10
216.95245659464265
 20
-150.0000001
 10
220.1707858289258
 20
-150.0000001
 10
223.41862722187534
 20
-150.0000001
 10
226.68290286250738
 20
-150.0000001
 10
229.95046866492274
 20
-150.0000001
 10
233.208167294902
 20
-150.0000001
 10
236.4428811498469
 20
-150.0000001
 10
239.64158517873548
 20
-150.0000001
 10
242.79139932940615
 20
-150.0000001
 10
245.87964041198134
 20
-150.0000001
 10
248.89387316959713
 20
-150.0000001
 10
251.82196035079312
 20
-150.0000001
 10
254.65211158194086
 20
-150.0000001
 10
257.37293084291673
 20
-150.0000001
 10
259.97346235485287
 20
-150.0000001
 10
262.4432346951923
 20
-150.0000001
 10
264.7723029624111
 20
-150.0000001
 10
266.9512888206273
 20
-150.0000001
 10
268.9714182628495
 20
-150.0000001
 10
270.8245569408058
 20
-150.0000001
 10
272.5032429190939
 20
-150.0000001
 10
274.00071672176097
 20
-150.0000001
 10
275.31094855032774
 20
-150.0000001
 10
276.4286625636587
 20
-150.0000001
 10
277.34935812191236
 20
-150.0000001
 10
278.0693279090294
 20
-150.0000001
 10
278.58567286078596
 20
-150.0000001
 10
278.89631383830204
 20
-150.0000001
 10
279.0
 20
-150.0000001
  0
DIMENSION
  5
8F
330
17
100
AcDbEntity
  8
DIMENSIONS
100
AcDbDimension
280
0
  2
*D3
  3
Standard
 10
0.0
 20
-201.0000001
 30
0.0
 11
143.75000004999998
 21
-201.0000001
 31
0.0
 70
32
 71
5
  1
<>
100
AcDbAlignedDimension
 13
0.0
 23
-166.0000001
 33
0.0
 14
287.50000009999997
 24
-166.0000001
 34
0.0
 50
0.0
100
AcDbRotatedDimension
1001
ACAD
1000
DSTYLE
1002
{
1070
140
1040
2.5
1070
41
1040
2.5
1070
176
1070
7
1070
177
1070
7
1070
178
1070
7
1070
271
1070
2
1002
}
  0
DIMENSION
  5
9F
330
17
100
AcDbEntity
  8
DIMENSIONS
100
AcDbDimension
280
0
  2
*D4
  3
Standard
 10
-35.0
 20
-166.0000001
 30
0.0
 11
-35.0
 21
-158.00000004999998
 31
0.0
 70
32
 71
5
  1
<>
100
AcDbAlignedDimension
 13
0.0
 23
-166.0000001
 33
0.0
 14
0.0
 24
-150.0
 34
0.0
 50
90.0
100
AcDbRotatedDimension
1001
ACAD
1000
DSTYLE
1002
{
1070
140
1040
2.5
1070
41
1040
2.5
1070
176
1070
7
1070
177
1070
7
1070
178
1070
7
1070
271
1070
2
1002
}
  0
TEXT
  5
AF
330
17
100
AcDbEntity
  8
NOTES
100
AcDbText
 10
0.0
 20
-130.0
 30
0.0
 40
4.0
  1
FRONT
100
AcDbText
  0
LWPOLYLINE
  5
B0
330
17
100
AcDbEntity
  8
RIGHT
100
AcDbPolyline
 90
2
 70
0
 10
437.50000009999997
 20
0.0
 10
437.50000009999997
 20
4.0
  0
LWPOLYLINE
  5
B1
330
17
100
AcDbEntity
  8
RIGHT
100
AcDbPolyline
 90
2
 70
0
 10
437.50000009999997
 20
4.0
 10
503.50000009999997
 20
4.0
  0
LWPOLYLINE
  5
B2
330
17
100
AcDbEntity
  8
RIGHT
100
AcDbPolyline
 90
2
 70
0
 10
503.50000009999997
 20
0.0
 10
503.50000009999997
 20
4.0
  0
LWPOLYLINE
  5
B3
330
17
100
AcDbEntity
  8
RIGHT
100
AcDbPolyline
 90
2
 70
0
 10
437.50000009999997
 20
0.0
 10
503.50000009999997
 20
0.0
  0
LWPOLYLINE
  5
B4
330
17
100
AcDbEntity
  8
RIGHT
100
AcDbPolyline
 90
2
 70
0
 10
437.50000009999997
 20
0.0
 10
437.50000009999997
 20
4.0
  0
LWPOLYLINE
  5
B5
330
17
100
AcDbEntity
  8
RIGHT
100
AcDbPolyline
 90
2
 70
0
 10
437.50000009999997
 20
4.0
 10
503.50000009999997
 20
4.0
  0
LWPOLYLINE
  5
B6
330
17
100
AcDbEntity
  8
RIGHT
100
AcDbPolyline
 90
16
 70
0
 10
446.00000009999997
 20
4.0
 10
445.3492214710787
 20
4.0
 10
444.81096837923616
 20
4.0
 10
444.4783096739277
 20
4.0
 10
444.40876506741074
 20
4.0
 10
444.61435945394487
 20
4.0
 10
445.059543696332
 20
4.0
 10
445.66734139469156
 20
4.0
 10
446.33265880530837
 20
4.0
 10
446.9404565036679
 20
4.0
 10
447.38564074605506
 20
4.0
 10
447.5912351325892
 20
4.0
 10
447.52169052607223
 20
4.0
 10
447.1890318207638
 20
4.0
 10
446.65077872892124
 20
4.0
 10
446.00000009999997
 20
4.0
  0
LWPOLYLINE
  5
B7
330
17
100
AcDbEntity
  8
RIGHT
100
AcDbPolyline
 90
16
 70
0
 10
446.00000009999997
 20
4.0
 10
445.3492214710787
 20
4.0
 10
444.81096837923616
 20
4.0
 10
444.4783096739277
 20
4.0
 10
444.40876506741074
 20
4.0
 10
444.61435945394487
 20
4.0
 10
445.059543696332
 20
4.0
 10
445.66734139469156
 20
4.0
 10
446.33265880530837
 20
4.0
 10
446.9404565036679
 20
4.0
 10
447.38564074605506
 20
4.0
 10
447.5912351325892
 20
4.0
 10
447.52169052607223
 20
4.0
 10
447.1890318207638
 20
4.0
 10
446.65077872892124
 20
4.0
 10
446.00000009999997
 20
4.0
  0
LWPOLYLINE
  5
B8
330
17
100
AcDbEntity
  8
RIGHT
100
AcDbPolyline
 90
16
 70
0
 10
495.00000009999997
 20
4.0
 10
494.3492214710787
 20
4.0
 10
493.81096837923616
 20
4.0
 10
493.4783096739277
 20
4.0
 10
493.40876506741074
 20
4.0
 10
493.61435945394487
 20
4.0
 10
494.059543696332
 20
4.0
 10
494.66734139469156
 20
4.0
 10
495.33265880530837
 20
4.0
 10
495.9404565036679
 20
4.0
 10
496.38564074605506
 20
4.0
 10
496.5912351325892
 20
4.0
 10
496.52169052607223
 20
4.0
 10
496.18903182076383
 20
4.0
 10
495.65077872892124
 20
4.0
 10
495.00000009999997
 20
4.0
  0
LWPOLYLINE
  5
B9
330
17
100
AcDbEntity
  8
RIGHT
100
AcDbPolyline
 90
16
 70
0
 10
495.00000009999997
 20
4.0
 10
494.3492214710787
 20
4.0
 10
493.81096837923616
 20
4.0
 10
493.4783096739277
 20
4.0
 10
493.40876506741074
 20
4.0
 10
493.61435945394487
 20
4.0
 10
494.059543696332
 20
4.0
 10
494.66734139469156
 20
4.0
 10
495.33265880530837
 20
4.0
 10
495.9404565036679
 20
4.0
 10
496.38564074605506
 20
4.0
 10
496.5912351325892
 20
4.0
 10
496.52169052607223
 20
4.0
 10
496.18903182076383
 20
4.0
 10
495.65077872892124
 20
4.0
 10
495.00000009999997
 20
4.0
  0
LWPOLYLINE
  5
BA
330
17
100
AcDbEntity
  8
RIGHT
100
AcDbPolyline
 90
2
 70
0
 10
503.50000009999997
 20
0.0
 10
503.50000009999997
 20
4.0
  0
LWPOLYLINE
  5
BB
330
17
100
AcDbEntity
  8
RIGHT
100
AcDbPolyline
 90
2
 70
0
 10
437.50000009999997
 20
0.0
 10
503.50000009999997
 20
0.0
  0
LWPOLYLINE
  5
BC
330
17
100
AcDbEntity
  8
RIGHT
100
AcDbPolyline
 90
16
 70
0
 10
446.00000009999997
 20
0.0
 10
445.3492214710787
 20
0.0
 10
444.81096837923616
 20
0.0
 10
444.4783096739277
 20
0.0
 10
444.40876506741074
 20
0.0
 10
444.61435945394487
 20
0.0
 10
445.059543696332
 20
0.0
 10
445.66734139469156
 20
0.0
 10
446.33265880530837
 20
0.0
 10
446.9404565036679
 20
0.0
 10
447.38564074605506
 20
0.0
 10
447.5912351325892
 20
0.0
 10
447.52169052607223
 20
0.0
 10
447.1890318207638
 20
0.0
 10
446.65077872892124
 20
0.0
 10
446.00000009999997
 20
0.0
  0
LWPOLYLINE
  5
BD
330
17
100
AcDbEntity
  8
RIGHT
100
AcDbPolyline
 90
16
 70
0
 10
446.00000009999997
 20
0.0
 10
445.3492214710787
 20
0.0
 10
444.81096837923616
 20
0.0
 10
444.4783096739277
 20
0.0
 10
444.40876506741074
 20
0.0
 10
444.61435945394487
 20
0.0
 10
445.059543696332
 20
0.0
 10
445.66734139469156
 20
0.0
 10
446.33265880530837
 20
0.0
 10
446.9404565036679
 20
0.0
 10
447.38564074605506
 20
0.0
 10
447.5912351325892
 20
0.0
 10
447.52169052607223
 20
0.0
 10
447.1890318207638
 20
0.0
 10
446.65077872892124
 20
0.0
 10
446.00000009999997
 20
0.0
  0
LWPOLYLINE
  5
BE
330
17
100
AcDbEntity
  8
RIGHT
100
AcDbPolyline
 90
16
 70
0
 10
495.00000009999997
 20
0.0
 10
494.3492214710787
 20
0.0
 10
493.81096837923616
 20
0.0
 10
493.4783096739277
 20
0.0
 10
493.40876506741074
 20
0.0
 10
493.61435945394487
 20
0.0
 10
494.059543696332
 20
0.0
 10
494.66734139469156
 20
0.0
 10
495.33265880530837
 20
0.0
 10
495.9404565036679
 20
0.0
 10
496.38564074605506
 20
0.0
 10
496.5912351325892
 20
0.0
 10
496.52169052607223
 20
0.0
 10
496.18903182076383
 20
0.0
 10
495.65077872892124
 20
0.0
 10
495.00000009999997
 20
0.0
  0
LWPOLYLINE
  5
BF
330
17
100
AcDbEntity
  8
RIGHT
100
AcDbPolyline
 90
16
 70
0
 10
495.00000009999997
 20
0.0
 10
494.3492214710787
 20
0.0
 10
493.81096837923616
 20
0.0
 10
493.4783096739277
 20
0.0
 10
493.40876506741074
 20
0.0
 10
493.61435945394487
 20
0.0
 10
494.059543696332
 20
0.0
 10
494.66734139469156
 20
0.0
 10
495.33265880530837
 20
0.0
 10
495.9404565036679
 20
0.0
 10
496.38564074605506
 20
0.0
 10
496.5912351325892
 20
0.0
 10
496.52169052607223
 20
0.0
 10
496.18903182076383
 20
0.0
 10
495.65077872892124
 20
0.0
 10
495.00000009999997
 20
0.0
  0
LWPOLYLINE
  5
C0
330
17
100
AcDbEntity
  8
RIGHT
100
AcDbPolyline
 90
2
 70
0
 10
446.00000009999997
 20
0.0
 10
446.00000009999997
 20
4.0
  0
LWPOLYLINE
  5
C1
330
17
100
AcDbEntity
  8
RIGHT
100
AcDbPolyline
 90
2
 70
0
 10
446.00000009999997
 20
0.0
 10
446.00000009999997
 20
4.0
  0
LWPOLYLINE
  5
C2
330
17
100
AcDbEntity
  8
RIGHT
100
AcDbPolyline
 90
2
 70
0
 10
495.00000009999997
 20
0.0
 10
495.00000009999997
 20
4.0
  0
LWPOLYLINE
  5
C3
330
17
100
AcDbEntity
  8
RIGHT
100
AcDbPolyline
 90
2
 70
0
 10
495.00000009999997
 20
0.0
 10
495.00000009999997
 20
4.0
  0
LWPOLYLINE
  5
C4
330
17
100
AcDbEntity
  8
RIGHT
100
AcDbPolyline
 90
16
 70
0
 10
474.50000009999997
 20
12.0
 10
474.15418193057036
 20
13.6269465723032
 10
473.1765225254354
 20
14.972579301909576
 10
471.73606807749974
 20
15.804226065180615
 10
470.08188624692934
 20
15.978087581473094
 10
468.50000009999997
 20
15.464101615137755
 10
467.2639321225002
 20
14.351141009169893
 10
466.58740969706474
 20
12.831646763271037
 10
466.58740969706474
 20
11.168353236728963
 10
467.2639321225002
 20
9.648858990830108
 10
468.50000009999997
 20
8.535898384862247
 10
470.08188624692934
 20
8.021912418526906
 10
471.73606807749974
 20
8.195773934819385
 10
473.1765225254354
 20
9.027420698090424
 10
474.15418193057036
 20
10.3730534276968
 10
474.50000009999997
 20
11.999999999999998
  0
LWPOLYLINE
  5
C5
330
17
100
AcDbEntity
  8
RIGHT
100
AcDbPolyline
 90
16
 70
0
 10
474.50000009999997
 20
12.0
 10
474.15418193057036
 20
13.6269465723032
 10
473.1765225254354
 20
14.972579301909576
 10
471.73606807749974
 20
15.804226065180615
 10
470.08188624692934
 20
15.978087581473094
 10
468.50000009999997
 20
15.464101615137755
 10
467.2639321225002
 20
14.351141009169893
 10
466.58740969706474
 20
12.831646763271037
 10
466.58740969706474
 20
11.168353236728963
 10
467.2639321225002
 20
9.648858990830108
 10
468.50000009999997
 20
8.535898384862247
 10
470.08188624692934
 20
8.021912418526906
 10
471.73606807749974
 20
8.195773934819385
 10
473.1765225254354
 20
9.027420698090424
 10
474.15418193057036
 20
10.3730534276968
 10
474.50000009999997
 20
11.999999999999998
  0
LWPOLYLINE
  5
C6
330
17
100
AcDbEntity
  8
RIGHT
100
AcDbPolyline
 90
29
 70
0
 10
474.50000009999997
 20
12.000000000000002
 10
474.5818057190735
 20
12.000000000000002
 10
474.82696518555133
 20
12.000000000000002
 10
475.2347071370517
 20
12.000000000000002
 10
475.8037486665451
 20
12.000000000000002
 10
476.5322993588548
 20
12.000000000000002
 10
477.41806692396483
 20
12.000000000000002
 10
478.45826440941306
 20
12.000000000000002
 10
479.64961896907414
 20
12.000000000000002
 10
480.9883821607448
 20
12.000000000000002
 10
482.4703417401292
 20
12.000000000000002
 10
484.09083491411843
 20
12.000000000000002
 10
485.8447630116624
 20
12.000000000000002
 10
487.7266075260753
 20
12.000000000000002
 10
489.7304474782995
 20
12.000000000000002
 10
491.8499780464958
 20
12.000000000000002
 10
494.0785304033458
 20
12.000000000000002
 10
496.40909269865006
 20
12.000000000000002
 10
498.83433212120246
 20
12.000000000000002
 10
501.3466179705275
 20
12.000000000000002
 10
503.93804566588693
 20
12.000000000000002
 10
506.6004616170153
 20
12.000000000000002
 10
509.32548887833127
 20
12.000000000000002
 10
512.1045535059078
 20
12.000000000000002
 10
514.9289115342716
 20
12.000000000000002
 10
517.7896764881536
 20
12.000000000000002
 10
520.677847342628
 20
12.000000000000002
 10
523.584336843666
 20
12.000000000000002
 10
526.5000001
 20
12.000000000000002
  0
LWPOLYLINE
  5
C7
330
17
100
AcDbEntity
  8
RIGHT
100
AcDbPolyline
 90
16
 70
0
 10
526.5000001
 20
12.0
 10
526.5000001
 20
10.3730534276968
 10
526.5000001
 20
9.027420698090424
 10
526.5000001
 20
8.195773934819385
 10
526.5000001
 20
8.021912418526906
 10
526.5000001
 20
8.535898384862243
 10
526.5000001
 20
9.648858990830107
 10
526.5000001
 20
11.168353236728963
 10
526.5000001
 20
12.831646763271035
 10
526.5000001
 20
14.351141009169892
 10
526.5000001
 20
15.464101615137753
 10
526.5000001
 20
15.978087581473094
 10
526.5000001
 20
15.804226065180615
 10
526.5000001
 20
14.972579301909576
 10
526.5000001
 20
13.626946572303197
 10
526.5000001
 20
12.000000000000002
  0
LWPOLYLINE
  5
C8
330
17
100
AcDbEntity
  8
RIGHT
100
AcDbPolyline
 90
2
 70
0
 10
526.5000001
 20
12.0
 10
606.5000001
 20
12.0
  0
LWPOLYLINE
  5
C9
330
17
100
AcDbEntity
  8
RIGHT
100
AcDbPolyline
 90
16
 70
0
 10
606.5000001
 20
12.0
 10
606.5000001
 20
13.6269465723032
 10
606.5000001
 20
14.972579301909576
 10
606.5000001
 20
15.804226065180615
 10
606.5000001
 20
15.978087581473094
 10
606.5000001
 20
15.464101615137755
 10
606.5000001
 20
14.351141009169893
 10
606.5000001
 20
12.831646763271037
 10
606.5000001
 20
11.168353236728963
 10
606.5000001
 20
9.648858990830108
 10
606.5000001
 20
8.535898384862247
 10
606.5000001
 20
8.021912418526906
 10
606.5000001
 20
8.195773934819385
 10
606.5000001
 20
9.027420698090424
 10
606.5000001
 20
10.3730534276968
 10
606.5000001
 20
11.999999999999998
  0
LWPOLYLINE
  5
CA
330
17
100
AcDbEntity
  8
RIGHT
100
AcDbPolyline
 90
2
 70
0
 10
526.5000001
 20
0.0
 10
526.5000001
 20
16.0
  0
LWPOLYLINE
  5
CB
330
17
100
AcDbEntity
  8
RIGHT
100
AcDbPolyline
 90
100
 70
0
 10
526.5000001
 20
0.0
 10
529.7663319623131
 20
0.0
 10
533.0195114590481
 20
0.0
 10
536.246439184561
 20
0.0
 10
539.4341214398255
 20
0.0
 10
542.569722553472
 20
0.0
 10
545.6406165665069
 20
0.0
 10
548.6344380725923
 20
0.0
 10
551.5391320091741
 20
0.0
 10
554.3430021989632
 20
0.0
 10
557.034758446314
 20
0.0
 10
559.6035619988568
 20
0.0
 10
562.0390691913287
 20
0.0
 10
564.331473095863
 20
0.0
 10
566.4715430110255
 20
0.0
 10
568.4506616305923
 20
0.0
 10
570.2608597423999
 20
0.0
 10
571.8948483175504
 20
0.0
 10
573.3460478607576
 20
0.0
 10
574.608614903653
 20
0.0
 10
575.6774655343697
 20
0.0
 10
576.5482958686623
 20
0.0
 10
577.2175993801287
 20
0.0
 10
577.6826810197546
 20
0.0
 10
577.9416680679249
 20
0.0
 10
577.9935176752045
 20
0.0
 10
577.8380210615251
 20
0.0
 10
577.475804356868
 20
0.0
 10
576.9083260800611
 20
0.0
 10
576.137871265837
 20
0.0
 10
575.1675422638054
 20
0.0
 10
574.0012462463859
 20
0.0
 10
572.6436794760037
 20
0.0
 10
571.1003083948985
 20
0.0
 10
569.3773476136907
 20
0.0
 10
567.4817348873378
 20
0.0
 10
565.4211031792443
 20
0.0
 10
563.2037499260114
 20
0.0
 10
560.838603626589
 20
0.0
 10
558.3351878903611
 20
0.0
 10
555.7035830889326
 20
0.0
 10
552.9543857660304
 20
0.0
 10
550.0986659689617
 20
0.0
 10
547.1479226734406
 20
0.0
 10
544.1140374812719
 20
0.0
 10
541.0092267773337
 20
0.0
 10
537.8459925385068
 20
0.0
 10
534.6370719926275
 20
0.0
 10
531.3953863301654
 20
0.0
 10
528.1339886751505
 20
0.0
 10
524.8660115248495
 20
0.0
 10
521.6046138698346
 20
0.0
 10
518.3629282073724
 20
0.0
 10
515.1540076614931
 20
0.0
 10
511.9907734226664
 20
0.0
 10
508.885962718728
 20
0.0
 10
505.8520775265594
 20
0.0
 10
502.90133423103833
 20
0.0
 10
500.04561443396955
 20
0.0
 10
497.2964171110673
 20
0.0
 10
494.6648123096388
 20
0.0
 10
492.16139657341097
 20
0.0
 10
489.7962502739885
 20
0.0
 10
487.5788970207557
 20
0.0
 10
485.5182653126621
 20
0.0
 10
483.62265258630924
 20
0.0
 10
481.8996918051014
 20
0.0
 10
480.3563207239962
 20
0.0
 10
478.998753953614
 20
0.0
 10
477.83245793619454
 20
0.0
 10
476.86212893416297
 20
0.0
 10
476.0916741199389
 20
0.0
 10
475.5241958431319
 20
0.0
 10
475.1619791384749
 20
0.0
 10
475.0064825247954
 20
0.0
 10
475.05833213207507
 20
0.0
 10
475.31731918024536
 20
0.0
 10
475.78240081987127
 20
0.0
 10
476.45170433133757
 20
0.0
 10
477.32253466563014
 20
0.0
 10
478.3913852963469
 20
0.0
 10
479.65395233924227
 20
0.0
 10
481.1051518824495
 20
0.0
 10
482.7391404576
 20
0.0
 10
484.54933856940767
 20
0.0
 10
486.52845718897447
 20
0.0
 10
488.668527104137
 20
0.0
 10
490.9609310086712
 20
0.0
 10
493.39643820114316
 20
0.0
 10
495.965241753686
 20
0.0
 10
498.65699800103664
 20
0.0
 10
501.4608681908258
 20
0.0
 10
504.36556212740754
 20
0.0
 10
507.35938363349305
 20
0.0
 10
510.4302776465279
 20
0.0
 10
513.5658787601744
 20
0.0
 10
516.7535610154388
 20
0.0
 10
519.9804887409518
 20
0.0
 10
523.2336682376869
 20
0.0
 10
526.5000001
 20
0.0
  0
LWPOLYLINE
  5
CC
330
17
100
AcDbEntity
  8
RIGHT
100
AcDbPolyline
 90
100
 70
0
 10
526.5000001
 20
16.0
 10
529.7663319623131
 20
16.0
 10
533.0195114590481
 20
16.0
 10
536.246439184561
 20
16.0
 10
539.4341214398255
 20
16.0
 10
542.569722553472
 20
16.0
 10
545.6406165665069
 20
16.0
 10
548.6344380725923
 20
16.0
 10
551.5391320091741
 20
16.0
 10
554.3430021989632
 20
16.0
 10
557.034758446314
 20
16.0
 10
559.6035619988568
 20
16.0
 10
562.0390691913287
 20
16.0
 10
564.331473095863
 20
16.0
 10
566.4715430110255
 20
16.0
 10
568.4506616305923
 20
16.0
 10
570.2608597423999
 20
16.0
 10
571.8948483175504
 20
16.0
 10
573.3460478607576
 20
16.0
 10
574.608614903653
 20
16.0
 10
575.6774655343697
 20
16.0
 10
576.5482958686623
 20
16.0
 10
577.2175993801287
 20
16.0
 10
577.6826810197546
 20
16.0
 10
577.9416680679249
 20
16.0
 10
577.9935176752045
 20
16.0
 10
577.8380210615251
 20
16.0
 10
577.475804356868
 20
16.0
 10
576.9083260800611
 20
16.0
 10
576.137871265837
 20
16.0
 10
575.1675422638054
 20
16.0
 10
574.0012462463859
 20
16.0
 10
572.6436794760037
 20
16.0
 10
571.1003083948985
 20
16.0
 10
569.3773476136907
 20
16.0
 10
567.4817348873378
 20
16.0
 10
565.4211031792443
 20
16.0
 10
563.2037499260114
 20
16.0
 10
560.838603626589
 20
16.0
 10
558.3351878903611
 20
16.0
 10
555.7035830889326
 20
16.0
 10
552.9543857660304
 20
16.0
 10
550.0986659689617
 20
16.0
 10
547.1479226734406
 20
16.0
 10
544.1140374812719
 20
16.0
 10
541.0092267773337
 20
16.0
 10
537.8459925385068
 20
16.0
 10
534.6370719926275
 20
16.0
 10
531.3953863301654
 20
16.0
 10
528.1339886751505
 20
16.0
 10
524.8660115248495
 20
16.0
 10
521.6046138698346
 20
16.0
 10
518.3629282073724
 20
16.0
 10
515.1540076614931
 20
16.0
 10
511.9907734226664
 20
16.0
 10
508.885962718728
 20
16.0
 10
505.8520775265594
 20
16.0
 10
502.90133423103833
 20
16.0
 10
500.04561443396955
 20
16.0
 10
497.2964171110673
 20
16.0
 10
494.6648123096388
 20
16.0
 10
492.16139657341097
 20
16.0
 10
489.7962502739885
 20
16.0
 10
487.5788970207557
 20
16.0
 10
485.5182653126621
 20
16.0
 10
483.62265258630924
 20
16.0
 10
481.8996918051014
 20
16.0
 10
480.3563207239962
 20
16.0
 10
478.998753953614
 20
16.0
 10
477.83245793619454
 20
16.0
 10
476.86212893416297
 20
16.0
 10
476.0916741199389
 20
16.0
 10
475.5241958431319
 20
16.0
 10
475.1619791384749
 20
16.0
 10
475.0064825247954
 20
16.0
 10
475.05833213207507
 20
16.0
 10
475.31731918024536
 20
16.0
 10
475.78240081987127
 20
16.0
 10
476.45170433133757
 20
16.0
 10
477.32253466563014
 20
16.0
 10
478.3913852963469
 20
16.0
 10
479.65395233924227
 20
16.0
 10
481.1051518824495
 20
16.0
 10
482.7391404576
 20
16.0
 10
484.54933856940767
 20
16.0
 10
486.52845718897447
 20
16.0
 10
488.668527104137
 20
16.0
 10
490.9609310086712
 20
16.0
 10
493.39643820114316
 20
16.0
 10
495.965241753686
 20
16.0
 10
498.65699800103664
 20
16.0
 10
501.4608681908258
 20
16.0
 10
504.36556212740754
 20
16.0
 10
507.35938363349305
 20
16.0
 10
510.4302776465279
 20
16.0
 10
513.5658787601744
 20
16.0
 10
516.7535610154388
 20
16.0
 10
519.9804887409518
 20
16.0
 10
523.2336682376869
 20
16.0
 10
526.5000001
 20
16.0
  0
DIMENSION
  5
CD
330
17
100
AcDbEntity
  8
DIMENSIONS
100
AcDbDimension
280
0
  2
*D5
  3
Standard
 10
437.50000009999997
 20
-35.0
 30
0.0
 11
522.0000001
 21
-35.0
 31
0.0
 70
32
 71
5
  1
<>
100
AcDbAlignedDimension
 13
437.50000009999997
 23
0.0
 33
0.0
 14
606.5000001
 24
0.0
 34
0.0
 50
0.0
100
AcDbRotatedDimension
1001
ACAD
1000
DSTYLE
1002
{
1070
140
1040
2.5
1070
41
1040
2.5
1070
176
1070
7
1070
177
1070
7
1070
178
1070
7
1070
271
1070
2
1002
}
  0
DIMENSION
  5
DD
330
17
100
AcDbEntity
  8
DIMENSIONS
100
AcDbDimension
280
0
  2
*D6
  3
Standard
 10
402.50000009999997
 20
0.0
 30
0.0
 11
402.50000009999997
 21
8.00000005
 31
0.0
 70
32
 71
5
  1
<>
100
AcDbAlignedDimension
 13
437.50000009999997
 23
0.0
 33
0.0
 14
437.50000009999997
 24
16.0000001
 34
0.0
 50
90.0
100
AcDbRotatedDimension
1001
ACAD
1000
DSTYLE
1002
{
1070
140
1040
2.5
1070
41
1040
2.5
1070
176
1070
7
1070
177
1070
7
1070
178
1070
7
1070
271
1070
2
1002
}
  0
TEXT
  5
ED
330
17
100
AcDbEntity
  8
NOTES
100
AcDbText
 10
437.50000009999997
 20
36.0000001
 30
0.0
 40
4.0
  1
RIGHT
100
AcDbText
  0
TEXT
  5
EE
330
17
100
AcDbEntity
  8
NOTES
100
AcDbText
 10
0.0
 20
-266.0000001
 30
0.0
 40
4.0
  1
Datum: right-handed assembly-local X/Y/Z; plan XY, front XZ, right YZ. Overall dimensions derive from exact BRep.
100
AcDbText
  0
TEXT
  5
EF
330
17
100
AcDbEntity
  8
NOTES
100
AcDbText
 10
0.0
 20
-275.0000001
 30
0.0
 40
4.0
  1
Curved drawing edges are sampled; wireframe includes hidden/back edges. STEP is the geometry authority; DXF units mm.
100
AcDbText
  0
TEXT
  5
F0
330
17
100
AcDbEntity
  8
NOTES
100
AcDbText
 10
0.0
 20
-284.0000001
 30
0.0
 40
4.0
  1
Source-tagged Pi features and battery/panel/converter/MPPT overall sizes are verified references; other geometry is provisional.
100
AcDbText
  0
TEXT
  5
F1
330
17
100
AcDbEntity
  8
NOTES
100
AcDbText
 10
0.0
 20
-293.0000001
 30
0.0
 40
4.0
  1
Default machining allowance +/-0.30 mm; clamp bore +/-0.20 mm; envelope dia +/-0.50 mm: assumptions, not release tolerances.
100
AcDbText
  0
TEXT
  5
F2
330
17
100
AcDbEntity
  8
NOTES
100
AcDbText
 10
0.0
 20
-302.0000001
 30
0.0
 40
4.0
  1
Metal parts: deburr/passivate or isolate/anodize per material record; fastener torque, coating, corrosion and loads remain open.
100
AcDbText
  0
TEXT
  5
F3
330
17
100
AcDbEntity
  8
NOTES
100
AcDbText
 10
0.0
 20
-311.0000001
 30
0.0
 40
4.0
  1
No pressure containment, rating, calibration, safe working load or fabrication release. See manifest.json part/BOM/feature notes.
100
AcDbText
  0
ENDSEC
  0
SECTION
  2
OBJECTS
  0
DICTIONARY
  5
A
330
0
100
AcDbDictionary
281
1
  3
ACAD_COLOR
350
B
  3
ACAD_GROUP
350
C
  3
ACAD_LAYOUT
350
D
  3
ACAD_MATERIAL
350
E
  3
ACAD_MLEADERSTYLE
350
F
  3
ACAD_MLINESTYLE
350
10
  3
ACAD_PLOTSETTINGS
350
11
  3
ACAD_PLOTSTYLENAME
350
12
  3
ACAD_SCALELIST
350
14
  3
ACAD_TABLESTYLE
350
15
  3
ACAD_VISUALSTYLE
350
16
  3
EZDXF_META
350
2D
  0
DICTIONARY
  5
B
330
A
100
AcDbDictionary
281
1
  0
DICTIONARY
  5
C
330
A
100
AcDbDictionary
281
1
  0
DICTIONARY
  5
D
330
A
100
AcDbDictionary
281
1
  3
Model
350
1A
  3
Layout1
350
1E
  0
DICTIONARY
  5
E
330
A
100
AcDbDictionary
281
1
  3
ByBlock
350
1F
  3
ByLayer
350
20
  3
Global
350
21
  0
DICTIONARY
  5
F
330
A
100
AcDbDictionary
281
1
  3
Standard
350
2C
  0
DICTIONARY
  5
10
330
A
100
AcDbDictionary
281
1
  3
Standard
350
22
  0
DICTIONARY
  5
11
330
A
100
AcDbDictionary
281
1
  0
ACDBDICTIONARYWDFLT
  5
12
330
A
100
AcDbDictionary
281
1
  3
Normal
350
13
100
AcDbDictionaryWithDefault
340
13
  0
ACDBPLACEHOLDER
  5
13
330
12
  0
DICTIONARY
  5
14
330
A
100
AcDbDictionary
281
1
  0
DICTIONARY
  5
15
330
A
100
AcDbDictionary
281
1
  0
DICTIONARY
  5
16
330
A
100
AcDbDictionary
281
1
  0
LAYOUT
  5
1A
330
D
100
AcDbPlotSettings
  1

  4
A3
  6

 40
7.5
 41
20.0
 42
7.5
 43
20.0
 44
420.0
 45
297.0
 46
0.0
 47
0.0
 48
0.0
 49
0.0
140
0.0
141
0.0
142
1.0
143
1.0
 70
1024
 72
1
 73
0
 74
5
  7

 75
16
 76
0
 77
2
 78
300
147
1.0
148
0.0
149
0.0
100
AcDbLayout
  1
Model
 70
1
 71
0
 10
0.0
 20
0.0
 11
420.0
 21
297.0
 12
0.0
 22
0.0
 32
0.0
 14
1e+20
 24
1e+20
 34
1e+20
 15
-1e+20
 25
-1e+20
 35
-1e+20
146
0.0
 13
0.0
 23
0.0
 33
0.0
 16
1.0
 26
0.0
 36
0.0
 17
0.0
 27
1.0
 37
0.0
 76
1
330
17
  0
LAYOUT
  5
1E
330
D
100
AcDbPlotSettings
  1

  4
A3
  6

 40
7.5
 41
20.0
 42
7.5
 43
20.0
 44
420.0
 45
297.0
 46
0.0
 47
0.0
 48
0.0
 49
0.0
140
0.0
141
0.0
142
1.0
143
1.0
 70
0
 72
1
 73
0
 74
5
  7

 75
16
 76
0
 77
2
 78
300
147
1.0
148
0.0
149
0.0
100
AcDbLayout
  1
Layout1
 70
1
 71
1
 10
0.0
 20
0.0
 11
420.0
 21
297.0
 12
0.0
 22
0.0
 32
0.0
 14
1e+20
 24
1e+20
 34
1e+20
 15
-1e+20
 25
-1e+20
 35
-1e+20
146
0.0
 13
0.0
 23
0.0
 33
0.0
 16
1.0
 26
0.0
 36
0.0
 17
0.0
 27
1.0
 37
0.0
 76
1
330
1B
  0
MATERIAL
  5
1F
102
{ACAD_REACTORS
330
E
102
}
330
E
100
AcDbMaterial
  1
ByBlock
  2

 70
0
 40
1.0
 71
1
 41
1.0
 91
-1023410177
 42
1.0
 72
1
  3

 73
1
 74
1
 75
1
 44
0.5
 73
0
 45
1.0
 46
1.0
 77
1
  4

 78
1
 79
1
170
1
 48
1.0
171
1
  6

172
1
173
1
174
1
140
1.0
141
1.0
175
1
  7

176
1
177
1
178
1
143
1.0
179
1
  8

270
1
271
1
272
1
145
1.0
146
1.0
273
1
  9

274
1
275
1
276
1
 42
1.0
 72
1
  3

 73
1
 74
1
 75
1
 94
63
  0
MATERIAL
  5
20
102
{ACAD_REACTORS
330
E
102
}
330
E
100
AcDbMaterial
  1
ByLayer
  2

 70
0
 40
1.0
 71
1
 41
1.0
 91
-1023410177
 42
1.0
 72
1
  3

 73
1
 74
1
 75
1
 44
0.5
 73
0
 45
1.0
 46
1.0
 77
1
  4

 78
1
 79
1
170
1
 48
1.0
171
1
  6

172
1
173
1
174
1
140
1.0
141
1.0
175
1
  7

176
1
177
1
178
1
143
1.0
179
1
  8

270
1
271
1
272
1
145
1.0
146
1.0
273
1
  9

274
1
275
1
276
1
 42
1.0
 72
1
  3

 73
1
 74
1
 75
1
 94
63
  0
MATERIAL
  5
21
102
{ACAD_REACTORS
330
E
102
}
330
E
100
AcDbMaterial
  1
Global
  2

 70
0
 40
1.0
 71
1
 41
1.0
 91
-1023410177
 42
1.0
 72
1
  3

 73
1
 74
1
 75
1
 44
0.5
 73
0
 45
1.0
 46
1.0
 77
1
  4

 78
1
 79
1
170
1
 48
1.0
171
1
  6

172
1
173
1
174
1
140
1.0
141
1.0
175
1
  7

176
1
177
1
178
1
143
1.0
179
1
  8

270
1
271
1
272
1
145
1.0
146
1.0
273
1
  9

274
1
275
1
276
1
 42
1.0
 72
1
  3

 73
1
 74
1
 75
1
 94
63
  0
MLINESTYLE
  5
22
102
{ACAD_REACTORS
330
10
102
}
330
10
100
AcDbMlineStyle
  2
Standard
 70
0
  3

 62
256
 51
90.0
 52
90.0
 71
2
 49
0.5
 62
256
  6
BYLAYER
 49
-0.5
 62
256
  6
BYLAYER
  0
MLEADERSTYLE
  5
2C
102
{ACAD_REACTORS
330
F
102
}
330
F
100
AcDbMLeaderStyle
179
2
170
2
171
1
172
0
 90
2
 40
0.0
 41
0.0
173
1
 91
-1056964608
 92
-2
290
1
 42
2.0
291
1
 43
8.0
  3
Standard
 44
4.0
300

342
29
174
1
175
1
176
0
178
1
 93
-1056964608
 45
4.0
292
0
297
0
 46
4.0
 94
-1056964608
 47
1.0
 49
1.0
140
1.0
294
1
141
0.0
177
0
142
1.0
295
0
296
0
143
3.75
271
0
272
9
273
9
  0
DICTIONARY
  5
2D
330
A
100
AcDbDictionary
280
1
281
1
  3
CREATED_BY_EZDXF
350
2E
  3
WRITTEN_BY_EZDXF
350
F6
  0
DICTIONARYVAR
  5
2E
330
2D
100
DictionaryVariables
280
0
  1
1.4.3 @ 2026-09-27T12:03:31.049808+00:00
  0
DICTIONARYVAR
  5
F6
330
2D
100
DictionaryVariables
280
0
  1
1.4.3 @ 2026-09-27T12:03:31.066204+00:00
  0
ENDSEC
  0
EOF
