  0
SECTION
  2
HEADER
  9
$ACADVER
  1
AC1032
  9
$ACADMAINTVER
 90
4
  9
$DWGCODEPAGE
  3
ANSI_1252
  9
$LASTSAVEDBY
  1
ezdxf
  9
$REQUIREDVERSIONS
160
0
  9
$INSBASE
 10
0.0
 20
0.0
 30
0.0
  9
$EXTMIN
 10
1e+20
 20
1e+20
 30
1e+20
  9
$EXTMAX
 10
-1e+20
 20
-1e+20
 30
-1e+20
  9
$LIMMIN
 10
0.0
 20
0.0
  9
$LIMMAX
 10
420.0
 20
297.0
  9
$ORTHOMODE
 70
0
  9
$REGENMODE
 70
1
  9
$FILLMODE
 70
1
  9
$QTEXTMODE
 70
0
  9
$MIRRTEXT
 70
1
  9
$LTSCALE
 40
1.0
  9
$ATTMODE
 70
1
  9
$TEXTSIZE
 40
2.5
  9
$TRACEWID
 40
1.0
  9
$TEXTSTYLE
  7
Standard
  9
$CLAYER
  8
0
  9
$CELTYPE
  6
ByLayer
  9
$CECOLOR
 62
256
  9
$CELTSCALE
 40
1.0
  9
$DISPSILH
 70
0
  9
$DIMSCALE
 40
1.0
  9
$DIMASZ
 40
2.5
  9
$DIMEXO
 40
0.625
  9
$DIMDLI
 40
3.75
  9
$DIMRND
 40
0.0
  9
$DIMDLE
 40
0.0
  9
$DIMEXE
 40
1.25
  9
$DIMTP
 40
0.0
  9
$DIMTM
 40
0.0
  9
$DIMTXT
 40
2.5
  9
$DIMCEN
 40
2.5
  9
$DIMTSZ
 40
0.0
  9
$DIMTOL
 70
0
  9
$DIMLIM
 70
0
  9
$DIMTIH
 70
0
  9
$DIMTOH
 70
0
  9
$DIMSE1
 70
0
  9
$DIMSE2
 70
0
  9
$DIMTAD
 70
1
  9
$DIMZIN
 70
8
  9
$DIMBLK
  1

  9
$DIMASO
 70
1
  9
$DIMSHO
 70
1
  9
$DIMPOST
  1

  9
$DIMAPOST
  1

  9
$DIMALT
 70
0
  9
$DIMALTD
 70
3
  9
$DIMALTF
 40
0.03937007874
  9
$DIMLFAC
 40
1.0
  9
$DIMTOFL
 70
1
  9
$DIMTVP
 40
0.0
  9
$DIMTIX
 70
0
  9
$DIMSOXD
 70
0
  9
$DIMSAH
 70
0
  9
$DIMBLK1
  1

  9
$DIMBLK2
  1

  9
$DIMSTYLE
  2
ISO-25
  9
$DIMCLRD
 70
0
  9
$DIMCLRE
 70
0
  9
$DIMCLRT
 70
0
  9
$DIMTFAC
 40
1.0
  9
$DIMGAP
 40
0.625
  9
$DIMJUST
 70
0
  9
$DIMSD1
 70
0
  9
$DIMSD2
 70
0
  9
$DIMTOLJ
 70
0
  9
$DIMTZIN
 70
8
  9
$DIMALTZ
 70
0
  9
$DIMALTTZ
 70
0
  9
$DIMUPT
 70
0
  9
$DIMDEC
 70
2
  9
$DIMTDEC
 70
2
  9
$DIMALTU
 70
2
  9
$DIMALTTD
 70
3
  9
$DIMTXSTY
  7
Standard
  9
$DIMAUNIT
 70
0
  9
$DIMADEC
 70
0
  9
$DIMALTRND
 40
0.0
  9
$DIMAZIN
 70
0
  9
$DIMDSEP
 70
44
  9
$DIMATFIT
 70
3
  9
$DIMFRAC
 70
0
  9
$DIMLDRBLK
  1

  9
$DIMLUNIT
 70
2
  9
$DIMLWD
 70
-2
  9
$DIMLWE
 70
-2
  9
$DIMTMOVE
 70
0
  9
$DIMFXL
 40
1.0
  9
$DIMFXLON
 70
0
  9
$DIMJOGANG
 40
0.785398163397
  9
$DIMTFILL
 70
0
  9
$DIMTFILLCLR
 70
0
  9
$DIMARCSYM
 70
0
  9
$DIMLTYPE
  6

  9
$DIMLTEX1
  6

  9
$DIMLTEX2
  6

  9
$DIMTXTDIRECTION
 70
0
  9
$LUNITS
 70
2
  9
$LUPREC
 70
4
  9
$SKETCHINC
 40
1.0
  9
$FILLETRAD
 40
10.0
  9
$AUNITS
 70
0
  9
$AUPREC
 70
2
  9
$MENU
  1
.
  9
$ELEVATION
 40
0.0
  9
$PELEVATION
 40
0.0
  9
$THICKNESS
 40
0.0
  9
$LIMCHECK
 70
0
  9
$CHAMFERA
 40
0.0
  9
$CHAMFERB
 40
0.0
  9
$CHAMFERC
 40
0.0
  9
$CHAMFERD
 40
0.0
  9
$SKPOLY
 70
0
  9
$TDCREATE
 40
2461311.585775463
  9
$TDUCREATE
 40
2458532.153996898
  9
$TDUPDATE
 40
2461311.585775463
  9
$TDUUPDATE
 40
2458532.1544311
  9
$TDINDWG
 40
0.0
  9
$TDUSRTIMER
 40
0.0
  9
$USRTIMER
 70
1
  9
$ANGBASE
 50
0.0
  9
$ANGDIR
 70
0
  9
$PDMODE
 70
0
  9
$PDSIZE
 40
0.0
  9
$PLINEWID
 40
0.0
  9
$SPLFRAME
 70
0
  9
$SPLINETYPE
 70
6
  9
$SPLINESEGS
 70
8
  9
$HANDSEED
  5
16C
  9
$SURFTAB1
 70
6
  9
$SURFTAB2
 70
6
  9
$SURFTYPE
 70
6
  9
$SURFU
 70
6
  9
$SURFV
 70
6
  9
$UCSBASE
  2

  9
$UCSNAME
  2

  9
$UCSORG
 10
0.0
 20
0.0
 30
0.0
  9
$UCSXDIR
 10
1.0
 20
0.0
 30
0.0
  9
$UCSYDIR
 10
0.0
 20
1.0
 30
0.0
  9
$UCSORTHOREF
  2

  9
$UCSORTHOVIEW
 70
0
  9
$UCSORGTOP
 10
0.0
 20
0.0
 30
0.0
  9
$UCSORGBOTTOM
 10
0.0
 20
0.0
 30
0.0
  9
$UCSORGLEFT
 10
0.0
 20
0.0
 30
0.0
  9
$UCSORGRIGHT
 10
0.0
 20
0.0
 30
0.0
  9
$UCSORGFRONT
 10
0.0
 20
0.0
 30
0.0
  9
$UCSORGBACK
 10
0.0
 20
0.0
 30
0.0
  9
$PUCSBASE
  2

  9
$PUCSNAME
  2

  9
$PUCSORG
 10
0.0
 20
0.0
 30
0.0
  9
$PUCSXDIR
 10
1.0
 20
0.0
 30
0.0
  9
$PUCSYDIR
 10
0.0
 20
1.0
 30
0.0
  9
$PUCSORTHOREF
  2

  9
$PUCSORTHOVIEW
 70
0
  9
$PUCSORGTOP
 10
0.0
 20
0.0
 30
0.0
  9
$PUCSORGBOTTOM
 10
0.0
 20
0.0
 30
0.0
  9
$PUCSORGLEFT
 10
0.0
 20
0.0
 30
0.0
  9
$PUCSORGRIGHT
 10
0.0
 20
0.0
 30
0.0
  9
$PUCSORGFRONT
 10
0.0
 20
0.0
 30
0.0
  9
$PUCSORGBACK
 10
0.0
 20
0.0
 30
0.0
  9
$USERI1
 70
0
  9
$USERI2
 70
0
  9
$USERI3
 70
0
  9
$USERI4
 70
0
  9
$USERI5
 70
0
  9
$USERR1
 40
0.0
  9
$USERR2
 40
0.0
  9
$USERR3
 40
0.0
  9
$USERR4
 40
0.0
  9
$USERR5
 40
0.0
  9
$WORLDVIEW
 70
1
  9
$SHADEDGE
 70
3
  9
$SHADEDIF
 70
70
  9
$TILEMODE
 70
1
  9
$MAXACTVP
 70
64
  9
$PINSBASE
 10
0.0
 20
0.0
 30
0.0
  9
$PLIMCHECK
 70
0
  9
$PEXTMIN
 10
1e+20
 20
1e+20
 30
1e+20
  9
$PEXTMAX
 10
-1e+20
 20
-1e+20
 30
-1e+20
  9
$PLIMMIN
 10
0.0
 20
0.0
  9
$PLIMMAX
 10
420.0
 20
297.0
  9
$UNITMODE
 70
0
  9
$VISRETAIN
 70
1
  9
$PLINEGEN
 70
0
  9
$PSLTSCALE
 70
1
  9
$TREEDEPTH
 70
3020
  9
$CMLSTYLE
  2
Standard
  9
$CMLJUST
 70
0
  9
$CMLSCALE
 40
20.0
  9
$PROXYGRAPHICS
 70
1
  9
$MEASUREMENT
 70
1
  9
$CELWEIGHT
370
-1
  9
$ENDCAPS
280
0
  9
$JOINSTYLE
280
0
  9
$LWDISPLAY
290
0
  9
$INSUNITS
 70
4
  9
$HYPERLINKBASE
  1

  9
$STYLESHEET
  1

  9
$XEDIT
290
1
  9
$CEPSNTYPE
380
0
  9
$PSTYLEMODE
290
1
  9
$FINGERPRINTGUID
  2
{1A7F04C7-6F6C-4ED7-BF33-D9299BA52823}
  9
$VERSIONGUID
  2
{95070B60-9135-4764-91F9-9E0D29A3A203}
  9
$EXTNAMES
290
1
  9
$PSVPSCALE
 40
0.0
  9
$OLESTARTUP
290
0
  9
$SORTENTS
280
127
  9
$INDEXCTL
280
0
  9
$HIDETEXT
280
1
  9
$XCLIPFRAME
280
1
  9
$HALOGAP
280
0
  9
$OBSCOLOR
 70
257
  9
$OBSLTYPE
280
0
  9
$INTERSECTIONDISPLAY
280
0
  9
$INTERSECTIONCOLOR
 70
257
  9
$DIMASSOC
280
2
  9
$PROJECTNAME
  1

  9
$CAMERADISPLAY
290
0
  9
$LENSLENGTH
 40
50.0
  9
$CAMERAHEIGHT
 40
0.0
  9
$STEPSPERSEC
 40
24.0
  9
$STEPSIZE
 40
100.0
  9
$3DDWFPREC
 40
2.0
  9
$PSOLWIDTH
 40
0.005
  9
$PSOLHEIGHT
 40
0.08
  9
$LOFTANG1
 40
1.570796326795
  9
$LOFTANG2
 40
1.570796326795
  9
$LOFTMAG1
 40
0.0
  9
$LOFTMAG2
 40
0.0
  9
$LOFTPARAM
 70
7
  9
$LOFTNORMALS
280
1
  9
$LATITUDE
 40
37.795
  9
$LONGITUDE
 40
-122.394
  9
$NORTHDIRECTION
 40
0.0
  9
$TIMEZONE
 70
-8000
  9
$LIGHTGLYPHDISPLAY
280
1
  9
$TILEMODELIGHTSYNCH
280
1
  9
$CMATERIAL
347
20
  9
$SOLIDHIST
280
0
  9
$SHOWHIST
280
1
  9
$DWFFRAME
280
2
  9
$DGNFRAME
280
2
  9
$REALWORLDSCALE
290
1
  9
$INTERFERECOLOR
 62
256
  9
$CSHADOW
280
0
  9
$SHADOWPLANELOCATION
 40
0.0
  0
ENDSEC
  0
SECTION
  2
CLASSES
  0
CLASS
  1
ACDBDICTIONARYWDFLT
  2
AcDbDictionaryWithDefault
  3
ObjectDBX Classes
 90
0
 91
0
280
0
281
0
  0
CLASS
  1
SUN
  2
AcDbSun
  3
SCENEOE
 90
1153
 91
0
280
0
281
0
  0
CLASS
  1
VISUALSTYLE
  2
AcDbVisualStyle
  3
ObjectDBX Classes
 90
4095
 91
0
280
0
281
0
  0
CLASS
  1
MATERIAL
  2
AcDbMaterial
  3
ObjectDBX Classes
 90
1153
 91
0
280
0
281
0
  0
CLASS
  1
SCALE
  2
AcDbScale
  3
ObjectDBX Classes
 90
1153
 91
0
280
0
281
0
  0
CLASS
  1
TABLESTYLE
  2
AcDbTableStyle
  3
ObjectDBX Classes
 90
4095
 91
0
280
0
281
0
  0
CLASS
  1
MLEADERSTYLE
  2
AcDbMLeaderStyle
  3
ACDB_MLEADERSTYLE_CLASS
 90
4095
 91
0
280
0
281
0
  0
CLASS
  1
DICTIONARYVAR
  2
AcDbDictionaryVar
  3
ObjectDBX Classes
 90
0
 91
0
280
0
281
0
  0
CLASS
  1
CELLSTYLEMAP
  2
AcDbCellStyleMap
  3
ObjectDBX Classes
 90
1152
 91
0
280
0
281
0
  0
CLASS
  1
MENTALRAYRENDERSETTINGS
  2
AcDbMentalRayRenderSettings
  3
SCENEOE
 90
1024
 91
0
280
0
281
0
  0
CLASS
  1
ACDBDETAILVIEWSTYLE
  2
AcDbDetailViewStyle
  3
ObjectDBX Classes
 90
1025
 91
0
280
0
281
0
  0
CLASS
  1
ACDBSECTIONVIEWSTYLE
  2
AcDbSectionViewStyle
  3
ObjectDBX Classes
 90
1025
 91
0
280
0
281
0
  0
CLASS
  1
RASTERVARIABLES
  2
AcDbRasterVariables
  3
ISM
 90
0
 91
0
280
0
281
0
  0
CLASS
  1
LAYOUT
  2
AcDbLayout
  3
ObjectDBX Classes
 90
0
 91
0
280
0
281
0
  0
CLASS
  1
ACDBPLACEHOLDER
  2
AcDbPlaceHolder
  3
ObjectDBX Classes
 90
0
 91
0
280
0
281
0
  0
ENDSEC
  0
SECTION
  2
TABLES
  0
TABLE
  2
VPORT
  5
8
330
0
100
AcDbSymbolTable
 70
1
  0
VPORT
  5
23
330
8
100
AcDbSymbolTableRecord
100
AcDbViewportTableRecord
  2
*Active
 70
0
 10
0.0
 20
0.0
 11
1.0
 21
1.0
 12
0.0
 22
0.0
 13
0.0
 23
0.0
 14
0.5
 24
0.5
 15
0.5
 25
0.5
 16
0.0
 26
0.0
 36
1.0
 17
0.0
 27
0.0
 37
0.0
 40
1000.0
 41
1.34
 42
50.0
 43
0.0
 44
0.0
 50
0.0
 51
0.0
 71
0
 72
1000
 73
1
 74
3
 75
0
 76
0
 77
0
 78
0
281
0
 65
0
146
0.0
  0
ENDTAB
  0
TABLE
  2
LTYPE
  5
2
330
0
100
AcDbSymbolTable
 70
3
  0
LTYPE
  5
24
330
2
100
AcDbSymbolTableRecord
100
AcDbLinetypeTableRecord
  2
ByBlock
 70
0
  3

 72
65
 73
0
 40
0.0
  0
LTYPE
  5
25
330
2
100
AcDbSymbolTableRecord
100
AcDbLinetypeTableRecord
  2
ByLayer
 70
0
  3

 72
65
 73
0
 40
0.0
  0
LTYPE
  5
26
330
2
100
AcDbSymbolTableRecord
100
AcDbLinetypeTableRecord
  2
Continuous
 70
0
  3

 72
65
 73
0
 40
0.0
  0
ENDTAB
  0
TABLE
  2
LAYER
  5
1
330
0
100
AcDbSymbolTable
 70
7
  0
LAYER
  5
27
330
1
100
AcDbSymbolTableRecord
100
AcDbLayerTableRecord
  2
0
 70
0
 62
7
  6
Continuous
370
-3
390
13
347
21
  0
LAYER
  5
28
330
1
100
AcDbSymbolTableRecord
100
AcDbLayerTableRecord
  2
Defpoints
 70
0
 62
7
  6
Continuous
290
0
370
-3
390
13
347
21
  0
LAYER
  5
2F
330
1
100
AcDbSymbolTableRecord
100
AcDbLayerTableRecord
  2
TOP
 70
0
 62
7
  6
Continuous
370
-3
390
13
347
21
  0
LAYER
  5
30
330
1
100
AcDbSymbolTableRecord
100
AcDbLayerTableRecord
  2
FRONT
 70
0
 62
7
  6
Continuous
370
-3
390
13
347
21
  0
LAYER
  5
31
330
1
100
AcDbSymbolTableRecord
100
AcDbLayerTableRecord
  2
RIGHT
 70
0
 62
7
  6
Continuous
370
-3
390
13
347
21
  0
LAYER
  5
32
330
1
100
AcDbSymbolTableRecord
100
AcDbLayerTableRecord
  2
DIMENSIONS
 70
0
 62
7
  6
Continuous
370
-3
390
13
347
21
  0
LAYER
  5
33
330
1
100
AcDbSymbolTableRecord
100
AcDbLayerTableRecord
  2
NOTES
 70
0
 62
7
  6
Continuous
370
-3
390
13
347
21
  0
ENDTAB
  0
TABLE
  2
STYLE
  5
5
330
0
100
AcDbSymbolTable
 70
1
  0
STYLE
  5
29
330
5
100
AcDbSymbolTableRecord
100
AcDbTextStyleTableRecord
  2
Standard
 70
0
 40
0.0
 41
1.0
 50
0.0
 71
0
 42
2.5
  3
txt
  4

  0
ENDTAB
  0
TABLE
  2
VIEW
  5
7
330
0
100
AcDbSymbolTable
 70
0
  0
ENDTAB
  0
TABLE
  2
UCS
  5
6
330
0
100
AcDbSymbolTable
 70
0
  0
ENDTAB
  0
TABLE
  2
APPID
  5
3
330
0
100
AcDbSymbolTable
 70
3
  0
APPID
  5
2A
330
3
100
AcDbSymbolTableRecord
100
AcDbRegAppTableRecord
  2
ACAD
 70
0
  0
APPID
  5
169
330
3
100
AcDbSymbolTableRecord
100
AcDbRegAppTableRecord
  2
HATCHBACKGROUNDCOLOR
 70
0
  0
APPID
  5
16A
330
3
100
AcDbSymbolTableRecord
100
AcDbRegAppTableRecord
  2
EZDXF
 70
0
  0
ENDTAB
  0
TABLE
  2
DIMSTYLE
  5
4
330
0
100
AcDbSymbolTable
 70
1
100
AcDbDimStyleTable
  0
DIMSTYLE
105
2B
330
4
100
AcDbSymbolTableRecord
100
AcDbDimStyleTableRecord
  2
Standard
 70
0
 40
1.0
 41
2.5
 42
0.625
 43
3.75
 44
1.25
 45
0.0
 46
0.0
 47
0.0
 48
0.0
 49
2.5
140
2.5
141
2.5
142
0.0
143
0.03937007874
144
1.0
145
0.0
146
1.0
147
0.625
148
0.0
 69
0
 70
0
 71
0
 72
0
 73
0
 74
0
 75
0
 76
0
 77
1
 78
8
 79
3
170
0
171
3
172
1
173
0
174
0
175
0
176
0
177
0
178
0
179
2
271
2
272
2
273
2
274
3
275
0
276
0
277
2
278
44
279
0
280
0
281
0
282
0
283
0
284
8
285
0
286
0
288
0
289
3
290
0
371
-2
372
-2
  0
ENDTAB
  0
TABLE
  2
BLOCK_RECORD
  5
9
330
0
100
AcDbSymbolTable
 70
9
  0
BLOCK_RECORD
  5
17
330
9
100
AcDbSymbolTableRecord
100
AcDbBlockTableRecord
  2
*Model_Space
340
1A
 70
0
280
1
281
0
  0
BLOCK_RECORD
  5
1B
330
9
100
AcDbSymbolTableRecord
100
AcDbBlockTableRecord
  2
*Paper_Space
340
1E
 70
0
280
1
281
0
  0
BLOCK_RECORD
  5
71
330
9
100
AcDbSymbolTableRecord
100
AcDbBlockTableRecord
  2
*D1
340
0
 70
0
280
1
281
0
  0
BLOCK_RECORD
  5
76
330
9
100
AcDbSymbolTableRecord
100
AcDbBlockTableRecord
  2
_CLOSEDFILLED
340
0
 70
0
280
1
281
0
  0
BLOCK_RECORD
  5
85
330
9
100
AcDbSymbolTableRecord
100
AcDbBlockTableRecord
  2
*D2
340
0
 70
0
280
1
281
0
  0
BLOCK_RECORD
  5
DC
330
9
100
AcDbSymbolTableRecord
100
AcDbBlockTableRecord
  2
*D3
340
0
 70
0
280
1
281
0
  0
BLOCK_RECORD
  5
EC
330
9
100
AcDbSymbolTableRecord
100
AcDbBlockTableRecord
  2
*D4
340
0
 70
0
280
1
281
0
  0
BLOCK_RECORD
  5
143
330
9
100
AcDbSymbolTableRecord
100
AcDbBlockTableRecord
  2
*D5
340
0
 70
0
280
1
281
0
  0
BLOCK_RECORD
  5
153
330
9
100
AcDbSymbolTableRecord
100
AcDbBlockTableRecord
  2
*D6
340
0
 70
0
280
1
281
0
  0
ENDTAB
  0
ENDSEC
  0
SECTION
  2
BLOCKS
  0
BLOCK
  5
18
330
17
100
AcDbEntity
  8
0
100
AcDbBlockBegin
  2
*Model_Space
 70
0
 10
0.0
 20
0.0
 30
0.0
  3
*Model_Space
  1

  0
ENDBLK
  5
19
330
17
100
AcDbEntity
  8
0
100
AcDbBlockEnd
  0
BLOCK
  5
1C
330
1B
100
AcDbEntity
  8
0
100
AcDbBlockBegin
  2
*Paper_Space
 70
0
 10
0.0
 20
0.0
 30
0.0
  3
*Paper_Space
  1

  0
ENDBLK
  5
1D
330
1B
100
AcDbEntity
  8
0
100
AcDbBlockEnd
  0
BLOCK
  5
72
330
71
100
AcDbEntity
  8
0
100
AcDbBlockBegin
  2
*D1
 70
1
 10
0.0
 20
0.0
 30
0.0
  3
*D1
  1

  0
LINE
  5
74
330
71
100
AcDbEntity
  8
0
 62
7
100
AcDbLine
 10
0.0
 20
0.0
 30
0.0
 11
0.0
 21
-35.0
 31
0.0
  0
LINE
  5
75
330
71
100
AcDbEntity
  8
0
 62
7
100
AcDbLine
 10
600.0
 20
0.0
 30
0.0
 11
600.0
 21
-35.0
 31
0.0
  0
INSERT
  5
7A
330
71
100
AcDbEntity
  8
DIMENSIONS
 62
7
100
AcDbBlockReference
  2
_CLOSEDFILLED
 10
0.0
 20
-35.0
 30
0.0
 41
3.3333333333333335
 42
3.3333333333333335
 50
180.0
  0
INSERT
  5
7C
330
71
100
AcDbEntity
  8
DIMENSIONS
 62
7
100
AcDbBlockReference
  2
_CLOSEDFILLED
 10
600.0
 20
-35.0
 30
0.0
 41
3.3333333333333335
 42
3.3333333333333335
  0
LINE
  5
7E
330
71
100
AcDbEntity
  8
0
 62
7
100
AcDbLine
 10
3.3333333333333335
 20
-35.0
 30
0.0
 11
293.0769230769231
 21
-35.0
 31
0.0
  0
LINE
  5
7F
330
71
100
AcDbEntity
  8
0
 62
7
100
AcDbLine
 10
306.92307692307696
 20
-35.0
 30
0.0
 11
596.6666666666666
 21
-35.0
 31
0.0
  0
MTEXT
  5
80
330
71
100
AcDbEntity
  8
DIMENSIONS
 62
7
100
AcDbMText
 10
300.0
 20
-35.0
 30
0.0
 40
4.615384615384615
 71
5
  1
600
  0
POINT
  5
81
330
71
100
AcDbEntity
  8
Defpoints
100
AcDbPoint
 10
0.0
 20
-35.0
 30
0.0
  0
POINT
  5
82
330
71
100
AcDbEntity
  8
Defpoints
100
AcDbPoint
 10
0.0
 20
0.0
 30
0.0
  0
POINT
  5
83
330
71
100
AcDbEntity
  8
Defpoints
100
AcDbPoint
 10
600.0
 20
0.0
 30
0.0
  0
ENDBLK
  5
73
330
71
100
AcDbEntity
  8
0
100
AcDbBlockEnd
  0
BLOCK
  5
77
330
76
100
AcDbEntity
  8
0
100
AcDbBlockBegin
  2
_CLOSEDFILLED
 70
0
 10
0.0
 20
0.0
 30
0.0
  3
_CLOSEDFILLED
  1

  0
SOLID
  5
79
330
76
100
AcDbEntity
  8
0
  6
BYBLOCK
 62
0
100
AcDbTrace
 10
-1.0
 20
0.16439898372402537
 30
0.0
 11
0.0
 21
0.0
 31
0.0
 12
-1.0
 22
-0.16439898372402537
 32
0.0
 13
-1.0
 23
-0.16439898372402537
 33
0.0
  0
ENDBLK
  5
78
330
76
100
AcDbEntity
  8
0
100
AcDbBlockEnd
  0
BLOCK
  5
86
330
85
100
AcDbEntity
  8
0
100
AcDbBlockBegin
  2
*D2
 70
1
 10
0.0
 20
0.0
 30
0.0
  3
*D2
  1

  0
LINE
  5
88
330
85
100
AcDbEntity
  8
0
 62
7
100
AcDbLine
 10
0.0
 20
0.0
 30
0.0
 11
-35.0
 21
0.0
 31
0.0
  0
LINE
  5
89
330
85
100
AcDbEntity
  8
0
 62
7
100
AcDbLine
 10
0.0
 20
156.0
 30
0.0
 11
-35.0
 21
156.0
 31
0.0
  0
INSERT
  5
8A
330
85
100
AcDbEntity
  8
DIMENSIONS
 62
7
100
AcDbBlockReference
  2
_CLOSEDFILLED
 10
-35.0
 20
0.0
 30
0.0
 41
3.3333333333333335
 42
3.3333333333333335
 50
270.0
  0
INSERT
  5
8C
330
85
100
AcDbEntity
  8
DIMENSIONS
 62
7
100
AcDbBlockReference
  2
_CLOSEDFILLED
 10
-35.0
 20
156.0
 30
0.0
 41
3.3333333333333335
 42
3.3333333333333335
 50
90.0
  0
LINE
  5
8E
330
85
100
AcDbEntity
  8
0
 62
7
100
AcDbLine
 10
-35.0
 20
3.3333333333333335
 30
0.0
 11
-35.0
 21
71.07692307692308
 31
0.0
  0
LINE
  5
8F
330
85
100
AcDbEntity
  8
0
 62
7
100
AcDbLine
 10
-35.0
 20
84.92307692307692
 30
0.0
 11
-35.0
 21
152.66666666666666
 31
0.0
  0
MTEXT
  5
90
330
85
100
AcDbEntity
  8
DIMENSIONS
 62
7
100
AcDbMText
 10
-35.0
 20
78.0
 30
0.0
 40
4.615384615384615
 71
5
  1
156
 50
90.0
  0
POINT
  5
91
330
85
100
AcDbEntity
  8
Defpoints
100
AcDbPoint
 10
-35.0
 20
0.0
 30
0.0
  0
POINT
  5
92
330
85
100
AcDbEntity
  8
Defpoints
100
AcDbPoint
 10
0.0
 20
0.0
 30
0.0
  0
POINT
  5
93
330
85
100
AcDbEntity
  8
Defpoints
100
AcDbPoint
 10
0.0
 20
156.0
 30
0.0
  0
ENDBLK
  5
87
330
85
100
AcDbEntity
  8
0
100
AcDbBlockEnd
  0
BLOCK
  5
DD
330
DC
100
AcDbEntity
  8
0
100
AcDbBlockBegin
  2
*D3
 70
1
 10
0.0
 20
0.0
 30
0.0
  3
*D3
  1

  0
LINE
  5
DF
330
DC
100
AcDbEntity
  8
0
 62
7
100
AcDbLine
 10
0.0
 20
-284.0
 30
0.0
 11
0.0
 21
-319.0
 31
0.0
  0
LINE
  5
E0
330
DC
100
AcDbEntity
  8
0
 62
7
100
AcDbLine
 10
600.0
 20
-284.0
 30
0.0
 11
600.0
 21
-319.0
 31
0.0
  0
INSERT
  5
E1
330
DC
100
AcDbEntity
  8
DIMENSIONS
 62
7
100
AcDbBlockReference
  2
_CLOSEDFILLED
 10
0.0
 20
-319.0
 30
0.0
 41
3.3333333333333335
 42
3.3333333333333335
 50
180.0
  0
INSERT
  5
E3
330
DC
100
AcDbEntity
  8
DIMENSIONS
 62
7
100
AcDbBlockReference
  2
_CLOSEDFILLED
 10
600.0
 20
-319.0
 30
0.0
 41
3.3333333333333335
 42
3.3333333333333335
  0
LINE
  5
E5
330
DC
100
AcDbEntity
  8
0
 62
7
100
AcDbLine
 10
3.3333333333333335
 20
-319.0
 30
0.0
 11
293.0769230769231
 21
-319.0
 31
0.0
  0
LINE
  5
E6
330
DC
100
AcDbEntity
  8
0
 62
7
100
AcDbLine
 10
306.92307692307696
 20
-319.0
 30
0.0
 11
596.6666666666666
 21
-319.0
 31
0.0
  0
MTEXT
  5
E7
330
DC
100
AcDbEntity
  8
DIMENSIONS
 62
7
100
AcDbMText
 10
300.0
 20
-319.0
 30
0.0
 40
4.615384615384615
 71
5
  1
600
  0
POINT
  5
E8
330
DC
100
AcDbEntity
  8
Defpoints
100
AcDbPoint
 10
0.0
 20
-319.0
 30
0.0
  0
POINT
  5
E9
330
DC
100
AcDbEntity
  8
Defpoints
100
AcDbPoint
 10
0.0
 20
-284.0
 30
0.0
  0
POINT
  5
EA
330
DC
100
AcDbEntity
  8
Defpoints
100
AcDbPoint
 10
600.0
 20
-284.0
 30
0.0
  0
ENDBLK
  5
DE
330
DC
100
AcDbEntity
  8
0
100
AcDbBlockEnd
  0
BLOCK
  5
ED
330
EC
100
AcDbEntity
  8
0
100
AcDbBlockBegin
  2
*D4
 70
1
 10
0.0
 20
0.0
 30
0.0
  3
*D4
  1

  0
LINE
  5
EF
330
EC
100
AcDbEntity
  8
0
 62
7
100
AcDbLine
 10
0.0
 20
-284.0
 30
0.0
 11
-35.0
 21
-284.0
 31
0.0
  0
LINE
  5
F0
330
EC
100
AcDbEntity
  8
0
 62
7
100
AcDbLine
 10
0.0
 20
-150.0
 30
0.0
 11
-35.0
 21
-150.0
 31
0.0
  0
INSERT
  5
F1
330
EC
100
AcDbEntity
  8
DIMENSIONS
 62
7
100
AcDbBlockReference
  2
_CLOSEDFILLED
 10
-35.0
 20
-284.0
 30
0.0
 41
3.3333333333333335
 42
3.3333333333333335
 50
270.0
  0
INSERT
  5
F3
330
EC
100
AcDbEntity
  8
DIMENSIONS
 62
7
100
AcDbBlockReference
  2
_CLOSEDFILLED
 10
-35.0
 20
-150.0
 30
0.0
 41
3.3333333333333335
 42
3.3333333333333335
 50
90.0
  0
LINE
  5
F5
330
EC
100
AcDbEntity
  8
0
 62
7
100
AcDbLine
 10
-35.0
 20
-280.6666666666667
 30
0.0
 11
-35.0
 21
-223.92307692307693
 31
0.0
  0
LINE
  5
F6
330
EC
100
AcDbEntity
  8
0
 62
7
100
AcDbLine
 10
-35.0
 20
-210.07692307692307
 30
0.0
 11
-35.0
 21
-153.33333333333334
 31
0.0
  0
MTEXT
  5
F7
330
EC
100
AcDbEntity
  8
DIMENSIONS
 62
7
100
AcDbMText
 10
-35.0
 20
-217.0
 30
0.0
 40
4.615384615384615
 71
5
  1
134
 50
90.0
  0
POINT
  5
F8
330
EC
100
AcDbEntity
  8
Defpoints
100
AcDbPoint
 10
-35.0
 20
-284.0
 30
0.0
  0
POINT
  5
F9
330
EC
100
AcDbEntity
  8
Defpoints
100
AcDbPoint
 10
0.0
 20
-284.0
 30
0.0
  0
POINT
  5
FA
330
EC
100
AcDbEntity
  8
Defpoints
100
AcDbPoint
 10
0.0
 20
-150.0
 30
0.0
  0
ENDBLK
  5
EE
330
EC
100
AcDbEntity
  8
0
100
AcDbBlockEnd
  0
BLOCK
  5
144
330
143
100
AcDbEntity
  8
0
100
AcDbBlockBegin
  2
*D5
 70
1
 10
0.0
 20
0.0
 30
0.0
  3
*D5
  1

  0
LINE
  5
146
330
143
100
AcDbEntity
  8
0
 62
7
100
AcDbLine
 10
750.0
 20
0.0
 30
0.0
 11
750.0
 21
-35.0
 31
0.0
  0
LINE
  5
147
330
143
100
AcDbEntity
  8
0
 62
7
100
AcDbLine
 10
906.0
 20
0.0
 30
0.0
 11
906.0
 21
-35.0
 31
0.0
  0
INSERT
  5
148
330
143
100
AcDbEntity
  8
DIMENSIONS
 62
7
100
AcDbBlockReference
  2
_CLOSEDFILLED
 10
750.0
 20
-35.0
 30
0.0
 41
3.3333333333333335
 42
3.3333333333333335
 50
180.0
  0
INSERT
  5
14A
330
143
100
AcDbEntity
  8
DIMENSIONS
 62
7
100
AcDbBlockReference
  2
_CLOSEDFILLED
 10
906.0
 20
-35.0
 30
0.0
 41
3.3333333333333335
 42
3.3333333333333335
  0
LINE
  5
14C
330
143
100
AcDbEntity
  8
0
 62
7
100
AcDbLine
 10
753.3333333333334
 20
-35.0
 30
0.0
 11
821.0769230769231
 21
-35.0
 31
0.0
  0
LINE
  5
14D
330
143
100
AcDbEntity
  8
0
 62
7
100
AcDbLine
 10
834.9230769230769
 20
-35.0
 30
0.0
 11
902.6666666666666
 21
-35.0
 31
0.0
  0
MTEXT
  5
14E
330
143
100
AcDbEntity
  8
DIMENSIONS
 62
7
100
AcDbMText
 10
828.0
 20
-35.0
 30
0.0
 40
4.615384615384615
 71
5
  1
156
  0
POINT
  5
14F
330
143
100
AcDbEntity
  8
Defpoints
100
AcDbPoint
 10
750.0
 20
-35.0
 30
0.0
  0
POINT
  5
150
330
143
100
AcDbEntity
  8
Defpoints
100
AcDbPoint
 10
750.0
 20
0.0
 30
0.0
  0
POINT
  5
151
330
143
100
AcDbEntity
  8
Defpoints
100
AcDbPoint
 10
906.0
 20
0.0
 30
0.0
  0
ENDBLK
  5
145
330
143
100
AcDbEntity
  8
0
100
AcDbBlockEnd
  0
BLOCK
  5
154
330
153
100
AcDbEntity
  8
0
100
AcDbBlockBegin
  2
*D6
 70
1
 10
0.0
 20
0.0
 30
0.0
  3
*D6
  1

  0
LINE
  5
156
330
153
100
AcDbEntity
  8
0
 62
7
100
AcDbLine
 10
750.0
 20
0.0
 30
0.0
 11
715.0
 21
0.0
 31
0.0
  0
LINE
  5
157
330
153
100
AcDbEntity
  8
0
 62
7
100
AcDbLine
 10
750.0
 20
134.0
 30
0.0
 11
715.0
 21
134.0
 31
0.0
  0
INSERT
  5
158
330
153
100
AcDbEntity
  8
DIMENSIONS
 62
7
100
AcDbBlockReference
  2
_CLOSEDFILLED
 10
715.0
 20
0.0
 30
0.0
 41
3.3333333333333335
 42
3.3333333333333335
 50
270.0
  0
INSERT
  5
15A
330
153
100
AcDbEntity
  8
DIMENSIONS
 62
7
100
AcDbBlockReference
  2
_CLOSEDFILLED
 10
715.0
 20
134.0
 30
0.0
 41
3.3333333333333335
 42
3.3333333333333335
 50
90.0
  0
LINE
  5
15C
330
153
100
AcDbEntity
  8
0
 62
7
100
AcDbLine
 10
715.0
 20
3.3333333333333335
 30
0.0
 11
715.0
 21
60.07692307692308
 31
0.0
  0
LINE
  5
15D
330
153
100
AcDbEntity
  8
0
 62
7
100
AcDbLine
 10
715.0
 20
73.92307692307693
 30
0.0
 11
715.0
 21
130.66666666666666
 31
0.0
  0
MTEXT
  5
15E
330
153
100
AcDbEntity
  8
DIMENSIONS
 62
7
100
AcDbMText
 10
715.0
 20
67.0
 30
0.0
 40
4.615384615384615
 71
5
  1
134
 50
90.0
  0
POINT
  5
15F
330
153
100
AcDbEntity
  8
Defpoints
100
AcDbPoint
 10
715.0
 20
0.0
 30
0.0
  0
POINT
  5
160
330
153
100
AcDbEntity
  8
Defpoints
100
AcDbPoint
 10
750.0
 20
0.0
 30
0.0
  0
POINT
  5
161
330
153
100
AcDbEntity
  8
Defpoints
100
AcDbPoint
 10
750.0
 20
134.0
 30
0.0
  0
ENDBLK
  5
155
330
153
100
AcDbEntity
  8
0
100
AcDbBlockEnd
  0
ENDSEC
  0
SECTION
  2
ENTITIES
  0
LWPOLYLINE
  5
34
330
17
100
AcDbEntity
  8
TOP
100
AcDbPolyline
 90
2
 70
0
 10
0.0
 20
17.5
 10
0.0
 20
52.5
  0
LWPOLYLINE
  5
35
330
17
100
AcDbEntity
  8
TOP
100
AcDbPolyline
 90
2
 70
0
 10
0.0
 20
17.5
 10
0.0
 20
52.5
  0
LWPOLYLINE
  5
36
330
17
100
AcDbEntity
  8
TOP
100
AcDbPolyline
 90
2
 70
0
 10
600.0
 20
17.5
 10
600.0
 20
52.5
  0
LWPOLYLINE
  5
37
330
17
100
AcDbEntity
  8
TOP
100
AcDbPolyline
 90
2
 70
0
 10
600.0
 20
17.5
 10
600.0
 20
52.5
  0
LWPOLYLINE
  5
38
330
17
100
AcDbEntity
  8
TOP
100
AcDbPolyline
 90
2
 70
0
 10
0.0
 20
17.5
 10
600.0
 20
17.5
  0
LWPOLYLINE
  5
39
330
17
100
AcDbEntity
  8
TOP
100
AcDbPolyline
 90
2
 70
0
 10
0.0
 20
17.5
 10
600.0
 20
17.5
  0
LWPOLYLINE
  5
3A
330
17
100
AcDbEntity
  8
TOP
100
AcDbPolyline
 90
2
 70
0
 10
0.0
 20
52.5
 10
600.0
 20
52.5
  0
LWPOLYLINE
  5
3B
330
17
100
AcDbEntity
  8
TOP
100
AcDbPolyline
 90
2
 70
0
 10
0.0
 20
52.5
 10
600.0
 20
52.5
  0
LWPOLYLINE
  5
3C
330
17
100
AcDbEntity
  8
TOP
100
AcDbPolyline
 90
2
 70
0
 10
70.0
 20
0.0
 10
70.0
 20
70.0
  0
LWPOLYLINE
  5
3D
330
17
100
AcDbEntity
  8
TOP
100
AcDbPolyline
 90
2
 70
0
 10
70.0
 20
0.0
 10
70.0
 20
70.0
  0
LWPOLYLINE
  5
3E
330
17
100
AcDbEntity
  8
TOP
100
AcDbPolyline
 90
2
 70
0
 10
70.0
 20
0.0
 10
130.0
 20
0.0
  0
LWPOLYLINE
  5
3F
330
17
100
AcDbEntity
  8
TOP
100
AcDbPolyline
 90
2
 70
0
 10
70.0
 20
0.0
 10
130.0
 20
0.0
  0
LWPOLYLINE
  5
40
330
17
100
AcDbEntity
  8
TOP
100
AcDbPolyline
 90
2
 70
0
 10
70.0
 20
70.0
 10
130.0
 20
70.0
  0
LWPOLYLINE
  5
41
330
17
100
AcDbEntity
  8
TOP
100
AcDbPolyline
 90
2
 70
0
 10
130.0
 20
0.0
 10
130.0
 20
70.0
  0
LWPOLYLINE
  5
42
330
17
100
AcDbEntity
  8
TOP
100
AcDbPolyline
 90
16
 70
0
 10
83.30000000000001
 20
35.0
 10
83.0147000102206
 20
33.657769077849856
 10
82.20813100098422
 20
32.5476220759246
 10
81.01975608143732
 20
31.861513496225992
 10
79.65505607121673
 20
31.7180777452847
 10
78.35
 20
32.142116167511354
 10
77.33024391856267
 20
33.06030866743484
 10
76.77211291757845
 20
34.313891420301395
 10
76.77211291757845
 20
35.686108579698605
 10
77.33024391856267
 20
36.93969133256516
 10
78.35
 20
37.857883832488646
 10
79.65505607121673
 20
38.281922254715305
 10
81.01975608143732
 20
38.138486503774004
 10
82.20813100098422
 20
37.4523779240754
 10
83.0147000102206
 20
36.342230922150144
 10
83.30000000000001
 20
35.0
  0
LWPOLYLINE
  5
43
330
17
100
AcDbEntity
  8
TOP
100
AcDbPolyline
 90
16
 70
0
 10
123.30000000000001
 20
35.0
 10
123.0147000102206
 20
33.657769077849856
 10
122.20813100098422
 20
32.5476220759246
 10
121.01975608143732
 20
31.861513496225992
 10
119.65505607121673
 20
31.7180777452847
 10
118.35
 20
32.142116167511354
 10
117.33024391856267
 20
33.06030866743484
 10
116.77211291757845
 20
34.313891420301395
 10
116.77211291757845
 20
35.686108579698605
 10
117.33024391856267
 20
36.93969133256516
 10
118.35
 20
37.857883832488646
 10
119.65505607121673
 20
38.281922254715305
 10
121.01975608143732
 20
38.138486503774004
 10
122.20813100098422
 20
37.4523779240754
 10
123.0147000102206
 20
36.342230922150144
 10
123.30000000000001
 20
35.0
  0
LWPOLYLINE
  5
44
330
17
100
AcDbEntity
  8
TOP
100
AcDbPolyline
 90
2
 70
0
 10
70.0
 20
70.0
 10
130.0
 20
70.0
  0
LWPOLYLINE
  5
45
330
17
100
AcDbEntity
  8
TOP
100
AcDbPolyline
 90
2
 70
0
 10
130.0
 20
0.0
 10
130.0
 20
70.0
  0
LWPOLYLINE
  5
46
330
17
100
AcDbEntity
  8
TOP
100
AcDbPolyline
 90
16
 70
0
 10
83.30000000000001
 20
35.0
 10
83.0147000102206
 20
33.657769077849856
 10
82.20813100098422
 20
32.5476220759246
 10
81.01975608143732
 20
31.861513496225992
 10
79.65505607121673
 20
31.7180777452847
 10
78.35
 20
32.142116167511354
 10
77.33024391856267
 20
33.06030866743484
 10
76.77211291757845
 20
34.313891420301395
 10
76.77211291757845
 20
35.686108579698605
 10
77.33024391856267
 20
36.93969133256516
 10
78.35
 20
37.857883832488646
 10
79.65505607121673
 20
38.281922254715305
 10
81.01975608143732
 20
38.138486503774004
 10
82.20813100098422
 20
37.4523779240754
 10
83.0147000102206
 20
36.342230922150144
 10
83.30000000000001
 20
35.0
  0
LWPOLYLINE
  5
47
330
17
100
AcDbEntity
  8
TOP
100
AcDbPolyline
 90
16
 70
0
 10
123.30000000000001
 20
35.0
 10
123.0147000102206
 20
33.657769077849856
 10
122.20813100098422
 20
32.5476220759246
 10
121.01975608143732
 20
31.861513496225992
 10
119.65505607121673
 20
31.7180777452847
 10
118.35
 20
32.142116167511354
 10
117.33024391856267
 20
33.06030866743484
 10
116.77211291757845
 20
34.313891420301395
 10
116.77211291757845
 20
35.686108579698605
 10
117.33024391856267
 20
36.93969133256516
 10
118.35
 20
37.857883832488646
 10
119.65505607121673
 20
38.281922254715305
 10
121.01975608143732
 20
38.138486503774004
 10
122.20813100098422
 20
37.4523779240754
 10
123.0147000102206
 20
36.342230922150144
 10
123.30000000000001
 20
35.0
  0
LWPOLYLINE
  5
48
330
17
100
AcDbEntity
  8
TOP
100
AcDbPolyline
 90
52
 70
0
 10
124.0
 20
35.0
 10
123.81809223212645
 20
37.94931897595314
 10
123.27512646484024
 20
40.85392928260105
 10
122.37933350570455
 20
43.66979998849167
 10
121.14429266285882
 20
46.35424536406424
 10
119.5887258965493
 20
48.86657195379802
 10
117.73621401329581
 20
51.16869544751737
 10
115.61483920490181
 20
53.22571799971297
 10
113.25675935105215
 20
55.00645724530687
 10
110.69772053863693
 20
56.483918992521495
 10
107.97651518751184
 20
57.63570642731066
 10
105.13439399695594
 20
58.444359626230415
 10
102.21444062711925
 20
58.89762023108083
 10
99.26091859465191
 20
58.98861727312078
 10
96.31860028291155
 20
58.71597132995022
 10
93.43208823827001
 20
58.08381543614766
 10
90.64513904097569
 20
57.10173243067889
 10
88.0
 20
55.78460969082653
 10
85.53676872689783
 20
54.152413454725746
 10
83.29278529688975
 20
52.22988615354661
 10
81.30206621138393
 20
50.04617134145856
 10
79.59478874248927
 20
47.63437190905655
 10
78.19683347633145
 20
45.03104827728281
 10
77.12939198974823
 20
42.275664178713036
 10
76.40864560758635
 20
39.40998842759769
 10
76.04552011031095
 20
36.47746174721464
 10
76.04552011031095
 20
33.52253825278538
 10
76.40864560758635
 20
30.590011572402318
 10
77.12939198974823
 20
27.72433582128695
 10
78.19683347633142
 20
24.9689517227172
 10
79.59478874248927
 20
22.36562809094346
 10
81.3020662113839
 20
19.95382865854145
 10
83.29278529688975
 20
17.7701138464534
 10
85.53676872689783
 20
15.847586545274254
 10
88.0
 20
14.215390309173479
 10
90.64513904097569
 20
12.898267569321114
 10
93.43208823827001
 20
11.916184563852337
 10
96.31860028291155
 20
11.284028670049771
 10
99.26091859465191
 20
11.01138272687922
 10
102.21444062711925
 20
11.102379768919171
 10
105.13439399695591
 20
11.555640373769577
 10
107.97651518751184
 20
12.364293572689338
 10
110.6977205386369
 20
13.516081007478498
 10
113.25675935105215
 20
14.99354275469313
 10
115.61483920490181
 20
16.774282000287023
 10
117.73621401329581
 20
18.831304552482614
 10
119.58872589654933
 20
21.133428046201985
 10
121.14429266285885
 20
23.645754635935763
 10
122.37933350570455
 20
26.330200011508328
 10
123.27512646484024
 20
29.14607071739896
 10
123.81809223212645
 20
32.050681024046845
 10
124.0
 20
34.99999999999999
  0
LWPOLYLINE
  5
49
330
17
100
AcDbEntity
  8
TOP
100
AcDbPolyline
 90
52
 70
0
 10
124.0
 20
35.0
 10
123.81809223212645
 20
37.94931897595314
 10
123.27512646484024
 20
40.85392928260105
 10
122.37933350570455
 20
43.66979998849167
 10
121.14429266285882
 20
46.35424536406424
 10
119.5887258965493
 20
48.86657195379802
 10
117.73621401329581
 20
51.16869544751737
 10
115.61483920490181
 20
53.22571799971297
 10
113.25675935105215
 20
55.00645724530687
 10
110.69772053863693
 20
56.483918992521495
 10
107.97651518751184
 20
57.63570642731066
 10
105.13439399695594
 20
58.444359626230415
 10
102.21444062711925
 20
58.89762023108083
 10
99.26091859465191
 20
58.98861727312078
 10
96.31860028291155
 20
58.71597132995022
 10
93.43208823827001
 20
58.08381543614766
 10
90.64513904097569
 20
57.10173243067889
 10
88.0
 20
55.78460969082653
 10
85.53676872689783
 20
54.152413454725746
 10
83.29278529688975
 20
52.22988615354661
 10
81.30206621138393
 20
50.04617134145856
 10
79.59478874248927
 20
47.63437190905655
 10
78.19683347633145
 20
45.03104827728281
 10
77.12939198974823
 20
42.275664178713036
 10
76.40864560758635
 20
39.40998842759769
 10
76.04552011031095
 20
36.47746174721464
 10
76.04552011031095
 20
33.52253825278538
 10
76.40864560758635
 20
30.590011572402318
 10
77.12939198974823
 20
27.72433582128695
 10
78.19683347633142
 20
24.9689517227172
 10
79.59478874248927
 20
22.36562809094346
 10
81.3020662113839
 20
19.95382865854145
 10
83.29278529688975
 20
17.7701138464534
 10
85.53676872689783
 20
15.847586545274254
 10
88.0
 20
14.215390309173479
 10
90.64513904097569
 20
12.898267569321114
 10
93.43208823827001
 20
11.916184563852337
 10
96.31860028291155
 20
11.284028670049771
 10
99.26091859465191
 20
11.01138272687922
 10
102.21444062711925
 20
11.102379768919171
 10
105.13439399695591
 20
11.555640373769577
 10
107.97651518751184
 20
12.364293572689338
 10
110.6977205386369
 20
13.516081007478498
 10
113.25675935105215
 20
14.99354275469313
 10
115.61483920490181
 20
16.774282000287023
 10
117.73621401329581
 20
18.831304552482614
 10
119.58872589654933
 20
21.133428046201985
 10
121.14429266285885
 20
23.645754635935763
 10
122.37933350570455
 20
26.330200011508328
 10
123.27512646484024
 20
29.14607071739896
 10
123.81809223212645
 20
32.050681024046845
 10
124.0
 20
34.99999999999999
  0
LWPOLYLINE
  5
4A
330
17
100
AcDbEntity
  8
TOP
100
AcDbPolyline
 90
37
 70
0
 10
117.0
 20
35.0
 10
116.74173180120755
 20
37.952019020337815
 10
115.97477455336045
 20
40.81434243653637
 10
114.72243186433545
 20
43.5
 10
113.02275553302263
 20
45.92738936467117
 10
110.92738936467117
 20
48.022755533022625
 10
108.5
 20
49.72243186433546
 10
105.81434243653638
 20
50.97477455336045
 10
102.95201902033781
 20
51.741731801207536
 10
100.0
 20
52.0
 10
97.04798097966219
 20
51.741731801207536
 10
94.18565756346362
 20
50.97477455336045
 10
91.5
 20
49.722431864335455
 10
89.07261063532883
 20
48.022755533022625
 10
86.97724446697737
 20
45.927389364671164
 10
85.27756813566455
 20
43.5
 10
84.02522544663955
 20
40.814342436536364
 10
83.25826819879245
 20
37.952019020337815
 10
83.0
 20
35.0
 10
83.25826819879245
 20
32.047980979662185
 10
84.02522544663955
 20
29.185657563463632
 10
85.27756813566455
 20
26.499999999999993
 10
86.97724446697737
 20
24.072610635328832
 10
89.07261063532883
 20
21.977244466977375
 10
91.5
 20
20.277568135664538
 10
94.18565756346362
 20
19.02522544663956
 10
97.04798097966219
 20
18.258268198792464
 10
100.0
 20
18.0
 10
102.95201902033781
 20
18.258268198792464
 10
105.81434243653638
 20
19.02522544663956
 10
108.5
 20
20.277568135664545
 10
110.92738936467117
 20
21.977244466977382
 10
113.02275553302263
 20
24.072610635328836
 10
114.72243186433545
 20
26.499999999999993
 10
115.97477455336045
 20
29.185657563463636
 10
116.74173180120755
 20
32.047980979662185
 10
117.0
 20
34.99999999999999
  0
LWPOLYLINE
  5
4B
330
17
100
AcDbEntity
  8
TOP
100
AcDbPolyline
 90
37
 70
0
 10
117.0
 20
35.0
 10
116.74173180120755
 20
37.952019020337815
 10
115.97477455336045
 20
40.81434243653637
 10
114.72243186433545
 20
43.5
 10
113.02275553302263
 20
45.92738936467117
 10
110.92738936467117
 20
48.022755533022625
 10
108.5
 20
49.72243186433546
 10
105.81434243653638
 20
50.97477455336045
 10
102.95201902033781
 20
51.741731801207536
 10
100.0
 20
52.0
 10
97.04798097966219
 20
51.741731801207536
 10
94.18565756346362
 20
50.97477455336045
 10
91.5
 20
49.722431864335455
 10
89.07261063532883
 20
48.022755533022625
 10
86.97724446697737
 20
45.927389364671164
 10
85.27756813566455
 20
43.5
 10
84.02522544663955
 20
40.814342436536364
 10
83.25826819879245
 20
37.952019020337815
 10
83.0
 20
35.0
 10
83.25826819879245
 20
32.047980979662185
 10
84.02522544663955
 20
29.185657563463632
 10
85.27756813566455
 20
26.499999999999993
 10
86.97724446697737
 20
24.072610635328832
 10
89.07261063532883
 20
21.977244466977375
 10
91.5
 20
20.277568135664538
 10
94.18565756346362
 20
19.02522544663956
 10
97.04798097966219
 20
18.258268198792464
 10
100.0
 20
18.0
 10
102.95201902033781
 20
18.258268198792464
 10
105.81434243653638
 20
19.02522544663956
 10
108.5
 20
20.277568135664545
 10
110.92738936467117
 20
21.977244466977382
 10
113.02275553302263
 20
24.072610635328836
 10
114.72243186433545
 20
26.499999999999993
 10
115.97477455336045
 20
29.185657563463636
 10
116.74173180120755
 20
32.047980979662185
 10
117.0
 20
34.99999999999999
  0
LWPOLYLINE
  5
4C
330
17
100
AcDbEntity
  8
TOP
100
AcDbPolyline
 90
35
 70
0
 10
116.0
 20
35.0
 10
115.72756959494242
 20
37.939992285065124
 10
114.91955567046969
 20
40.77986665899445
 10
113.60347417167384
 20
43.42291460603769
 10
111.82414267553054
 20
45.77913029834492
 10
109.64215418206811
 20
47.768275636483835
 10
107.1318136924246
 20
49.322612661681
 10
104.37860784115333
 20
50.38921029076511
 10
101.47629375141284
 20
50.93174682072055
 10
98.52370624858716
 20
50.931746820720555
 10
95.62139215884667
 20
50.38921029076511
 10
92.8681863075754
 20
49.322612661681
 10
90.35784581793189
 20
47.768275636483835
 10
88.17585732446946
 20
45.77913029834492
 10
86.39652582832616
 20
43.42291460603769
 10
85.08044432953031
 20
40.77986665899445
 10
84.27243040505758
 20
37.939992285065124
 10
84.0
 20
35.0
 10
84.27243040505758
 20
32.060007714934876
 10
85.08044432953031
 20
29.22013334100555
 10
86.39652582832616
 20
26.577085393962307
 10
88.17585732446946
 20
24.220869701655083
 10
90.35784581793189
 20
22.23172436351617
 10
92.8681863075754
 20
20.677387338319
 10
95.62139215884667
 20
19.610789709234894
 10
98.52370624858716
 20
19.068253179279445
 10
101.47629375141281
 20
19.068253179279445
 10
104.37860784115333
 20
19.610789709234894
 10
107.1318136924246
 20
20.677387338319
 10
109.64215418206811
 20
22.231724363516165
 10
111.82414267553054
 20
24.220869701655076
 10
113.60347417167381
 20
26.5770853939623
 10
114.91955567046969
 20
29.22013334100555
 10
115.72756959494242
 20
32.06000771493486
 10
116.0
 20
34.99999999999999
  0
LWPOLYLINE
  5
4D
330
17
100
AcDbEntity
  8
TOP
100
AcDbPolyline
 90
35
 70
0
 10
116.0
 20
35.0
 10
115.72756959494242
 20
37.939992285065124
 10
114.91955567046969
 20
40.77986665899445
 10
113.60347417167384
 20
43.42291460603769
 10
111.82414267553054
 20
45.77913029834492
 10
109.64215418206811
 20
47.768275636483835
 10
107.1318136924246
 20
49.322612661681
 10
104.37860784115333
 20
50.38921029076511
 10
101.47629375141284
 20
50.93174682072055
 10
98.52370624858716
 20
50.931746820720555
 10
95.62139215884667
 20
50.38921029076511
 10
92.8681863075754
 20
49.322612661681
 10
90.35784581793189
 20
47.768275636483835
 10
88.17585732446946
 20
45.77913029834492
 10
86.39652582832616
 20
43.42291460603769
 10
85.08044432953031
 20
40.77986665899445
 10
84.27243040505758
 20
37.939992285065124
 10
84.0
 20
35.0
 10
84.27243040505758
 20
32.060007714934876
 10
85.08044432953031
 20
29.22013334100555
 10
86.39652582832616
 20
26.577085393962307
 10
88.17585732446946
 20
24.220869701655083
 10
90.35784581793189
 20
22.23172436351617
 10
92.8681863075754
 20
20.677387338319
 10
95.62139215884667
 20
19.610789709234894
 10
98.52370624858716
 20
19.068253179279445
 10
101.47629375141281
 20
19.068253179279445
 10
104.37860784115333
 20
19.610789709234894
 10
107.1318136924246
 20
20.677387338319
 10
109.64215418206811
 20
22.231724363516165
 10
111.82414267553054
 20
24.220869701655076
 10
113.60347417167381
 20
26.5770853939623
 10
114.91955567046969
 20
29.22013334100555
 10
115.72756959494242
 20
32.06000771493486
 10
116.0
 20
34.99999999999999
  0
LWPOLYLINE
  5
4E
330
17
100
AcDbEntity
  8
TOP
100
AcDbPolyline
 90
2
 70
0
 10
470.0
 20
0.0
 10
470.0
 20
70.0
  0
LWPOLYLINE
  5
4F
330
17
100
AcDbEntity
  8
TOP
100
AcDbPolyline
 90
2
 70
0
 10
470.0
 20
0.0
 10
470.0
 20
70.0
  0
LWPOLYLINE
  5
50
330
17
100
AcDbEntity
  8
TOP
100
AcDbPolyline
 90
2
 70
0
 10
470.0
 20
0.0
 10
530.0
 20
0.0
  0
LWPOLYLINE
  5
51
330
17
100
AcDbEntity
  8
TOP
100
AcDbPolyline
 90
2
 70
0
 10
470.0
 20
0.0
 10
530.0
 20
0.0
  0
LWPOLYLINE
  5
52
330
17
100
AcDbEntity
  8
TOP
100
AcDbPolyline
 90
2
 70
0
 10
470.0
 20
70.0
 10
530.0
 20
70.0
  0
LWPOLYLINE
  5
53
330
17
100
AcDbEntity
  8
TOP
100
AcDbPolyline
 90
2
 70
0
 10
530.0
 20
0.0
 10
530.0
 20
70.0
  0
LWPOLYLINE
  5
54
330
17
100
AcDbEntity
  8
TOP
100
AcDbPolyline
 90
16
 70
0
 10
483.3
 20
35.0
 10
483.0147000102206
 20
33.657769077849856
 10
482.2081310009842
 20
32.5476220759246
 10
481.0197560814373
 20
31.861513496225992
 10
479.65505607121673
 20
31.7180777452847
 10
478.35
 20
32.142116167511354
 10
477.3302439185627
 20
33.06030866743484
 10
476.77211291757845
 20
34.313891420301395
 10
476.77211291757845
 20
35.686108579698605
 10
477.3302439185627
 20
36.93969133256516
 10
478.35
 20
37.857883832488646
 10
479.65505607121673
 20
38.281922254715305
 10
481.0197560814373
 20
38.138486503774004
 10
482.2081310009842
 20
37.4523779240754
 10
483.0147000102206
 20
36.342230922150144
 10
483.3
 20
35.0
  0
LWPOLYLINE
  5
55
330
17
100
AcDbEntity
  8
TOP
100
AcDbPolyline
 90
16
 70
0
 10
523.3
 20
35.0
 10
523.0147000102206
 20
33.657769077849856
 10
522.2081310009842
 20
32.5476220759246
 10
521.0197560814373
 20
31.861513496225992
 10
519.6550560712167
 20
31.7180777452847
 10
518.35
 20
32.142116167511354
 10
517.3302439185627
 20
33.06030866743484
 10
516.7721129175784
 20
34.313891420301395
 10
516.7721129175784
 20
35.686108579698605
 10
517.3302439185627
 20
36.93969133256516
 10
518.35
 20
37.857883832488646
 10
519.6550560712167
 20
38.281922254715305
 10
521.0197560814373
 20
38.138486503774004
 10
522.2081310009842
 20
37.4523779240754
 10
523.0147000102206
 20
36.342230922150144
 10
523.3
 20
35.0
  0
LWPOLYLINE
  5
56
330
17
100
AcDbEntity
  8
TOP
100
AcDbPolyline
 90
2
 70
0
 10
470.0
 20
70.0
 10
530.0
 20
70.0
  0
LWPOLYLINE
  5
57
330
17
100
AcDbEntity
  8
TOP
100
AcDbPolyline
 90
2
 70
0
 10
530.0
 20
0.0
 10
530.0
 20
70.0
  0
LWPOLYLINE
  5
58
330
17
100
AcDbEntity
  8
TOP
100
AcDbPolyline
 90
16
 70
0
 10
483.3
 20
35.0
 10
483.0147000102206
 20
33.657769077849856
 10
482.2081310009842
 20
32.5476220759246
 10
481.0197560814373
 20
31.861513496225992
 10
479.65505607121673
 20
31.7180777452847
 10
478.35
 20
32.142116167511354
 10
477.3302439185627
 20
33.06030866743484
 10
476.77211291757845
 20
34.313891420301395
 10
476.77211291757845
 20
35.686108579698605
 10
477.3302439185627
 20
36.93969133256516
 10
478.35
 20
37.857883832488646
 10
479.65505607121673
 20
38.281922254715305
 10
481.0197560814373
 20
38.138486503774004
 10
482.2081310009842
 20
37.4523779240754
 10
483.0147000102206
 20
36.342230922150144
 10
483.3
 20
35.0
  0
LWPOLYLINE
  5
59
330
17
100
AcDbEntity
  8
TOP
100
AcDbPolyline
 90
16
 70
0
 10
523.3
 20
35.0
 10
523.0147000102206
 20
33.657769077849856
 10
522.2081310009842
 20
32.5476220759246
 10
521.0197560814373
 20
31.861513496225992
 10
519.6550560712167
 20
31.7180777452847
 10
518.35
 20
32.142116167511354
 10
517.3302439185627
 20
33.06030866743484
 10
516.7721129175784
 20
34.313891420301395
 10
516.7721129175784
 20
35.686108579698605
 10
517.3302439185627
 20
36.93969133256516
 10
518.35
 20
37.857883832488646
 10
519.6550560712167
 20
38.281922254715305
 10
521.0197560814373
 20
38.138486503774004
 10
522.2081310009842
 20
37.4523779240754
 10
523.0147000102206
 20
36.342230922150144
 10
523.3
 20
35.0
  0
LWPOLYLINE
  5
5A
330
17
100
AcDbEntity
  8
TOP
100
AcDbPolyline
 90
52
 70
0
 10
524.0
 20
35.0
 10
523.8180922321264
 20
37.94931897595314
 10
523.2751264648402
 20
40.85392928260105
 10
522.3793335057046
 20
43.66979998849167
 10
521.1442926628588
 20
46.35424536406424
 10
519.5887258965492
 20
48.86657195379802
 10
517.7362140132958
 20
51.16869544751737
 10
515.6148392049018
 20
53.22571799971297
 10
513.2567593510521
 20
55.00645724530687
 10
510.69772053863693
 20
56.483918992521495
 10
507.97651518751184
 20
57.63570642731066
 10
505.13439399695596
 20
58.444359626230415
 10
502.21444062711925
 20
58.89762023108083
 10
499.2609185946519
 20
58.98861727312078
 10
496.3186002829116
 20
58.71597132995022
 10
493.43208823827
 20
58.08381543614766
 10
490.64513904097566
 20
57.10173243067889
 10
488.0
 20
55.78460969082653
 10
485.53676872689783
 20
54.152413454725746
 10
483.29278529688975
 20
52.22988615354661
 10
481.30206621138393
 20
50.04617134145856
 10
479.5947887424893
 20
47.63437190905655
 10
478.19683347633145
 20
45.03104827728281
 10
477.1293919897482
 20
42.275664178713036
 10
476.4086456075863
 20
39.40998842759769
 10
476.0455201103109
 20
36.47746174721464
 10
476.0455201103109
 20
33.52253825278538
 10
476.4086456075863
 20
30.590011572402318
 10
477.1293919897482
 20
27.72433582128695
 10
478.19683347633145
 20
24.9689517227172
 10
479.5947887424893
 20
22.36562809094346
 10
481.30206621138393
 20
19.95382865854145
 10
483.29278529688975
 20
17.7701138464534
 10
485.53676872689783
 20
15.847586545274254
 10
488.0
 20
14.215390309173479
 10
490.64513904097566
 20
12.898267569321114
 10
493.43208823827
 20
11.916184563852337
 10
496.3186002829116
 20
11.284028670049771
 10
499.2609185946519
 20
11.01138272687922
 10
502.21444062711925
 20
11.102379768919171
 10
505.1343939969559
 20
11.555640373769577
 10
507.97651518751184
 20
12.364293572689338
 10
510.6977205386369
 20
13.516081007478498
 10
513.2567593510521
 20
14.99354275469313
 10
515.6148392049018
 20
16.774282000287023
 10
517.7362140132958
 20
18.831304552482614
 10
519.5887258965494
 20
21.133428046201985
 10
521.1442926628588
 20
23.645754635935763
 10
522.3793335057046
 20
26.330200011508328
 10
523.2751264648402
 20
29.14607071739896
 10
523.8180922321264
 20
32.050681024046845
 10
524.0
 20
34.99999999999999
  0
LWPOLYLINE
  5
5B
330
17
100
AcDbEntity
  8
TOP
100
AcDbPolyline
 90
52
 70
0
 10
524.0
 20
35.0
 10
523.8180922321264
 20
37.94931897595314
 10
523.2751264648402
 20
40.85392928260105
 10
522.3793335057046
 20
43.66979998849167
 10
521.1442926628588
 20
46.35424536406424
 10
519.5887258965492
 20
48.86657195379802
 10
517.7362140132958
 20
51.16869544751737
 10
515.6148392049018
 20
53.22571799971297
 10
513.2567593510521
 20
55.00645724530687
 10
510.69772053863693
 20
56.483918992521495
 10
507.97651518751184
 20
57.63570642731066
 10
505.13439399695596
 20
58.444359626230415
 10
502.21444062711925
 20
58.89762023108083
 10
499.2609185946519
 20
58.98861727312078
 10
496.3186002829116
 20
58.71597132995022
 10
493.43208823827
 20
58.08381543614766
 10
490.64513904097566
 20
57.10173243067889
 10
488.0
 20
55.78460969082653
 10
485.53676872689783
 20
54.152413454725746
 10
483.29278529688975
 20
52.22988615354661
 10
481.30206621138393
 20
50.04617134145856
 10
479.5947887424893
 20
47.63437190905655
 10
478.19683347633145
 20
45.03104827728281
 10
477.1293919897482
 20
42.275664178713036
 10
476.4086456075863
 20
39.40998842759769
 10
476.0455201103109
 20
36.47746174721464
 10
476.0455201103109
 20
33.52253825278538
 10
476.4086456075863
 20
30.590011572402318
 10
477.1293919897482
 20
27.72433582128695
 10
478.19683347633145
 20
24.9689517227172
 10
479.5947887424893
 20
22.36562809094346
 10
481.30206621138393
 20
19.95382865854145
 10
483.29278529688975
 20
17.7701138464534
 10
485.53676872689783
 20
15.847586545274254
 10
488.0
 20
14.215390309173479
 10
490.64513904097566
 20
12.898267569321114
 10
493.43208823827
 20
11.916184563852337
 10
496.3186002829116
 20
11.284028670049771
 10
499.2609185946519
 20
11.01138272687922
 10
502.21444062711925
 20
11.102379768919171
 10
505.1343939969559
 20
11.555640373769577
 10
507.97651518751184
 20
12.364293572689338
 10
510.6977205386369
 20
13.516081007478498
 10
513.2567593510521
 20
14.99354275469313
 10
515.6148392049018
 20
16.774282000287023
 10
517.7362140132958
 20
18.831304552482614
 10
519.5887258965494
 20
21.133428046201985
 10
521.1442926628588
 20
23.645754635935763
 10
522.3793335057046
 20
26.330200011508328
 10
523.2751264648402
 20
29.14607071739896
 10
523.8180922321264
 20
32.050681024046845
 10
524.0
 20
34.99999999999999
  0
LWPOLYLINE
  5
5C
330
17
100
AcDbEntity
  8
TOP
100
AcDbPolyline
 90
37
 70
0
 10
517.0
 20
35.0
 10
516.7417318012076
 20
37.952019020337815
 10
515.9747745533605
 20
40.81434243653637
 10
514.7224318643355
 20
43.5
 10
513.0227555330226
 20
45.92738936467117
 10
510.92738936467117
 20
48.022755533022625
 10
508.5
 20
49.72243186433546
 10
505.8143424365364
 20
50.97477455336045
 10
502.95201902033784
 20
51.741731801207536
 10
500.0
 20
52.0
 10
497.04798097966216
 20
51.741731801207536
 10
494.1856575634636
 20
50.97477455336045
 10
491.5
 20
49.722431864335455
 10
489.07261063532883
 20
48.022755533022625
 10
486.97724446697737
 20
45.927389364671164
 10
485.2775681356645
 20
43.5
 10
484.0252254466395
 20
40.814342436536364
 10
483.25826819879245
 20
37.952019020337815
 10
483.0
 20
35.0
 10
483.25826819879245
 20
32.047980979662185
 10
484.0252254466395
 20
29.185657563463632
 10
485.2775681356645
 20
26.499999999999993
 10
486.97724446697737
 20
24.072610635328832
 10
489.07261063532883
 20
21.977244466977375
 10
491.5
 20
20.277568135664538
 10
494.1856575634636
 20
19.02522544663956
 10
497.04798097966216
 20
18.258268198792464
 10
500.0
 20
18.0
 10
502.95201902033784
 20
18.258268198792464
 10
505.8143424365364
 20
19.02522544663956
 10
508.5
 20
20.277568135664545
 10
510.92738936467117
 20
21.977244466977382
 10
513.0227555330226
 20
24.072610635328836
 10
514.7224318643355
 20
26.499999999999993
 10
515.9747745533605
 20
29.185657563463636
 10
516.7417318012076
 20
32.047980979662185
 10
517.0
 20
34.99999999999999
  0
LWPOLYLINE
  5
5D
330
17
100
AcDbEntity
  8
TOP
100
AcDbPolyline
 90
37
 70
0
 10
517.0
 20
35.0
 10
516.7417318012076
 20
37.952019020337815
 10
515.9747745533605
 20
40.81434243653637
 10
514.7224318643355
 20
43.5
 10
513.0227555330226
 20
45.92738936467117
 10
510.92738936467117
 20
48.022755533022625
 10
508.5
 20
49.72243186433546
 10
505.8143424365364
 20
50.97477455336045
 10
502.95201902033784
 20
51.741731801207536
 10
500.0
 20
52.0
 10
497.04798097966216
 20
51.741731801207536
 10
494.1856575634636
 20
50.97477455336045
 10
491.5
 20
49.722431864335455
 10
489.07261063532883
 20
48.022755533022625
 10
486.97724446697737
 20
45.927389364671164
 10
485.2775681356645
 20
43.5
 10
484.0252254466395
 20
40.814342436536364
 10
483.25826819879245
 20
37.952019020337815
 10
483.0
 20
35.0
 10
483.25826819879245
 20
32.047980979662185
 10
484.0252254466395
 20
29.185657563463632
 10
485.2775681356645
 20
26.499999999999993
 10
486.97724446697737
 20
24.072610635328832
 10
489.07261063532883
 20
21.977244466977375
 10
491.5
 20
20.277568135664538
 10
494.1856575634636
 20
19.02522544663956
 10
497.04798097966216
 20
18.258268198792464
 10
500.0
 20
18.0
 10
502.95201902033784
 20
18.258268198792464
 10
505.8143424365364
 20
19.02522544663956
 10
508.5
 20
20.277568135664545
 10
510.92738936467117
 20
21.977244466977382
 10
513.0227555330226
 20
24.072610635328836
 10
514.7224318643355
 20
26.499999999999993
 10
515.9747745533605
 20
29.185657563463636
 10
516.7417318012076
 20
32.047980979662185
 10
517.0
 20
34.99999999999999
  0
LWPOLYLINE
  5
5E
330
17
100
AcDbEntity
  8
TOP
100
AcDbPolyline
 90
35
 70
0
 10
516.0
 20
35.0
 10
515.7275695949425
 20
37.939992285065124
 10
514.9195556704697
 20
40.77986665899445
 10
513.6034741716738
 20
43.42291460603769
 10
511.82414267553054
 20
45.77913029834492
 10
509.6421541820681
 20
47.768275636483835
 10
507.1318136924246
 20
49.322612661681
 10
504.3786078411533
 20
50.38921029076511
 10
501.47629375141287
 20
50.93174682072055
 10
498.52370624858713
 20
50.931746820720555
 10
495.6213921588467
 20
50.38921029076511
 10
492.8681863075754
 20
49.322612661681
 10
490.3578458179319
 20
47.768275636483835
 10
488.17585732446946
 20
45.77913029834492
 10
486.39652582832616
 20
43.42291460603769
 10
485.08044432953034
 20
40.77986665899445
 10
484.27243040505755
 20
37.939992285065124
 10
484.0
 20
35.0
 10
484.27243040505755
 20
32.060007714934876
 10
485.08044432953034
 20
29.22013334100555
 10
486.39652582832616
 20
26.577085393962307
 10
488.17585732446946
 20
24.220869701655083
 10
490.3578458179319
 20
22.23172436351617
 10
492.8681863075754
 20
20.677387338319
 10
495.6213921588467
 20
19.610789709234894
 10
498.52370624858713
 20
19.068253179279445
 10
501.4762937514128
 20
19.068253179279445
 10
504.3786078411533
 20
19.610789709234894
 10
507.1318136924246
 20
20.677387338319
 10
509.6421541820681
 20
22.231724363516165
 10
511.82414267553054
 20
24.220869701655076
 10
513.6034741716738
 20
26.5770853939623
 10
514.9195556704697
 20
29.22013334100555
 10
515.7275695949425
 20
32.06000771493486
 10
516.0
 20
34.99999999999999
  0
LWPOLYLINE
  5
5F
330
17
100
AcDbEntity
  8
TOP
100
AcDbPolyline
 90
35
 70
0
 10
516.0
 20
35.0
 10
515.7275695949425
 20
37.939992285065124
 10
514.9195556704697
 20
40.77986665899445
 10
513.6034741716738
 20
43.42291460603769
 10
511.82414267553054
 20
45.77913029834492
 10
509.6421541820681
 20
47.768275636483835
 10
507.1318136924246
 20
49.322612661681
 10
504.3786078411533
 20
50.38921029076511
 10
501.47629375141287
 20
50.93174682072055
 10
498.52370624858713
 20
50.931746820720555
 10
495.6213921588467
 20
50.38921029076511
 10
492.8681863075754
 20
49.322612661681
 10
490.3578458179319
 20
47.768275636483835
 10
488.17585732446946
 20
45.77913029834492
 10
486.39652582832616
 20
43.42291460603769
 10
485.08044432953034
 20
40.77986665899445
 10
484.27243040505755
 20
37.939992285065124
 10
484.0
 20
35.0
 10
484.27243040505755
 20
32.060007714934876
 10
485.08044432953034
 20
29.22013334100555
 10
486.39652582832616
 20
26.577085393962307
 10
488.17585732446946
 20
24.220869701655083
 10
490.3578458179319
 20
22.23172436351617
 10
492.8681863075754
 20
20.677387338319
 10
495.6213921588467
 20
19.610789709234894
 10
498.52370624858713
 20
19.068253179279445
 10
501.4762937514128
 20
19.068253179279445
 10
504.3786078411533
 20
19.610789709234894
 10
507.1318136924246
 20
20.677387338319
 10
509.6421541820681
 20
22.231724363516165
 10
511.82414267553054
 20
24.220869701655076
 10
513.6034741716738
 20
26.5770853939623
 10
514.9195556704697
 20
29.22013334100555
 10
515.7275695949425
 20
32.06000771493486
 10
516.0
 20
34.99999999999999
  0
LWPOLYLINE
  5
60
330
17
100
AcDbEntity
  8
TOP
100
AcDbPolyline
 90
2
 70
0
 10
250.0
 20
134.0
 10
250.0
 20
156.0
  0
LWPOLYLINE
  5
61
330
17
100
AcDbEntity
  8
TOP
100
AcDbPolyline
 90
2
 70
0
 10
250.0
 20
134.0
 10
250.0
 20
156.0
  0
LWPOLYLINE
  5
62
330
17
100
AcDbEntity
  8
TOP
100
AcDbPolyline
 90
2
 70
0
 10
250.0
 20
134.0
 10
350.0
 20
134.0
  0
LWPOLYLINE
  5
63
330
17
100
AcDbEntity
  8
TOP
100
AcDbPolyline
 90
2
 70
0
 10
250.0
 20
134.0
 10
350.0
 20
134.0
  0
LWPOLYLINE
  5
64
330
17
100
AcDbEntity
  8
TOP
100
AcDbPolyline
 90
2
 70
0
 10
250.0
 20
156.0
 10
350.0
 20
156.0
  0
LWPOLYLINE
  5
65
330
17
100
AcDbEntity
  8
TOP
100
AcDbPolyline
 90
2
 70
0
 10
350.0
 20
134.0
 10
350.0
 20
156.0
  0
LWPOLYLINE
  5
66
330
17
100
AcDbEntity
  8
TOP
100
AcDbPolyline
 90
2
 70
0
 10
341.0
 20
143.0
 10
259.0
 20
143.0
  0
LWPOLYLINE
  5
67
330
17
100
AcDbEntity
  8
TOP
100
AcDbPolyline
 90
2
 70
0
 10
341.0
 20
143.0
 10
341.0
 20
147.0
  0
LWPOLYLINE
  5
68
330
17
100
AcDbEntity
  8
TOP
100
AcDbPolyline
 90
2
 70
0
 10
341.0
 20
147.0
 10
259.0
 20
147.0
  0
LWPOLYLINE
  5
69
330
17
100
AcDbEntity
  8
TOP
100
AcDbPolyline
 90
2
 70
0
 10
259.0
 20
143.0
 10
259.0
 20
147.0
  0
LWPOLYLINE
  5
6A
330
17
100
AcDbEntity
  8
TOP
100
AcDbPolyline
 90
2
 70
0
 10
250.0
 20
156.0
 10
350.0
 20
156.0
  0
LWPOLYLINE
  5
6B
330
17
100
AcDbEntity
  8
TOP
100
AcDbPolyline
 90
2
 70
0
 10
350.0
 20
134.0
 10
350.0
 20
156.0
  0
LWPOLYLINE
  5
6C
330
17
100
AcDbEntity
  8
TOP
100
AcDbPolyline
 90
2
 70
0
 10
259.0
 20
143.0
 10
341.0
 20
143.0
  0
LWPOLYLINE
  5
6D
330
17
100
AcDbEntity
  8
TOP
100
AcDbPolyline
 90
2
 70
0
 10
341.0
 20
143.0
 10
341.0
 20
147.0
  0
LWPOLYLINE
  5
6E
330
17
100
AcDbEntity
  8
TOP
100
AcDbPolyline
 90
2
 70
0
 10
259.0
 20
147.0
 10
341.0
 20
147.0
  0
LWPOLYLINE
  5
6F
330
17
100
AcDbEntity
  8
TOP
100
AcDbPolyline
 90
2
 70
0
 10
259.0
 20
143.0
 10
259.0
 20
147.0
  0
DIMENSION
  5
70
330
17
100
AcDbEntity
  8
DIMENSIONS
100
AcDbDimension
280
0
  2
*D1
  3
Standard
 10
0.0
 20
-35.0
 30
0.0
 11
300.0
 21
-35.0
 31
0.0
 70
32
 71
5
  1
<>
100
AcDbAlignedDimension
 13
0.0
 23
0.0
 33
0.0
 14
600.0
 24
0.0
 34
0.0
 50
0.0
100
AcDbRotatedDimension
1001
ACAD
1000
DSTYLE
1002
{
1070
140
1040
4.615384615384615
1070
41
1040
3.3333333333333335
1070
176
1070
7
1070
177
1070
7
1070
178
1070
7
1070
271
1070
2
1002
}
  0
DIMENSION
  5
84
330
17
100
AcDbEntity
  8
DIMENSIONS
100
AcDbDimension
280
0
  2
*D2
  3
Standard
 10
-35.0
 20
0.0
 30
0.0
 11
-35.0
 21
78.0
 31
0.0
 70
32
 71
5
  1
<>
100
AcDbAlignedDimension
 13
0.0
 23
0.0
 33
0.0
 14
0.0
 24
156.0
 34
0.0
 50
90.0
100
AcDbRotatedDimension
1001
ACAD
1000
DSTYLE
1002
{
1070
140
1040
4.615384615384615
1070
41
1040
3.3333333333333335
1070
176
1070
7
1070
177
1070
7
1070
178
1070
7
1070
271
1070
2
1002
}
  0
TEXT
  5
94
330
17
100
AcDbEntity
  8
NOTES
100
AcDbText
 10
0.0
 20
176.0
 30
0.0
 40
6.0
  1
TOP
100
AcDbText
  0
LWPOLYLINE
  5
95
330
17
100
AcDbEntity
  8
FRONT
100
AcDbPolyline
 90
2
 70
0
 10
0.0
 20
-284.0
 10
0.0
 20
-264.0
  0
LWPOLYLINE
  5
96
330
17
100
AcDbEntity
  8
FRONT
100
AcDbPolyline
 90
2
 70
0
 10
0.0
 20
-284.0
 10
0.0
 20
-264.0
  0
LWPOLYLINE
  5
97
330
17
100
AcDbEntity
  8
FRONT
100
AcDbPolyline
 90
2
 70
0
 10
600.0
 20
-284.0
 10
600.0
 20
-264.0
  0
LWPOLYLINE
  5
98
330
17
100
AcDbEntity
  8
FRONT
100
AcDbPolyline
 90
2
 70
0
 10
600.0
 20
-284.0
 10
600.0
 20
-264.0
  0
LWPOLYLINE
  5
99
330
17
100
AcDbEntity
  8
FRONT
100
AcDbPolyline
 90
2
 70
0
 10
0.0
 20
-284.0
 10
600.0
 20
-284.0
  0
LWPOLYLINE
  5
9A
330
17
100
AcDbEntity
  8
FRONT
100
AcDbPolyline
 90
2
 70
0
 10
0.0
 20
-264.0
 10
600.0
 20
-264.0
  0
LWPOLYLINE
  5
9B
330
17
100
AcDbEntity
  8
FRONT
100
AcDbPolyline
 90
2
 70
0
 10
0.0
 20
-284.0
 10
600.0
 20
-284.0
  0
LWPOLYLINE
  5
9C
330
17
100
AcDbEntity
  8
FRONT
100
AcDbPolyline
 90
2
 70
0
 10
0.0
 20
-264.0
 10
600.0
 20
-264.0
  0
LWPOLYLINE
  5
9D
330
17
100
AcDbEntity
  8
FRONT
100
AcDbPolyline
 90
2
 70
0
 10
70.0
 20
-264.0
 10
70.0
 20
-254.0
  0
LWPOLYLINE
  5
9E
330
17
100
AcDbEntity
  8
FRONT
100
AcDbPolyline
 90
2
 70
0
 10
70.0
 20
-264.0
 10
70.0
 20
-254.0
  0
LWPOLYLINE
  5
9F
330
17
100
AcDbEntity
  8
FRONT
100
AcDbPolyline
 90
2
 70
0
 10
70.0
 20
-264.0
 10
130.0
 20
-264.0
  0
LWPOLYLINE
  5
A0
330
17
100
AcDbEntity
  8
FRONT
100
AcDbPolyline
 90
2
 70
0
 10
130.0
 20
-264.0
 10
130.0
 20
-254.0
  0
LWPOLYLINE
  5
A1
330
17
100
AcDbEntity
  8
FRONT
100
AcDbPolyline
 90
2
 70
0
 10
70.0
 20
-254.0
 10
130.0
 20
-254.0
  0
LWPOLYLINE
  5
A2
330
17
100
AcDbEntity
  8
FRONT
100
AcDbPolyline
 90
2
 70
0
 10
70.0
 20
-254.0
 10
130.0
 20
-254.0
  0
LWPOLYLINE
  5
A3
330
17
100
AcDbEntity
  8
FRONT
100
AcDbPolyline
 90
16
 70
0
 10
83.30000000000001
 20
-254.0
 10
83.0147000102206
 20
-254.0
 10
82.20813100098422
 20
-254.0
 10
81.01975608143732
 20
-254.0
 10
79.65505607121673
 20
-254.0
 10
78.35
 20
-254.0
 10
77.33024391856267
 20
-254.0
 10
76.77211291757845
 20
-254.0
 10
76.77211291757845
 20
-254.0
 10
77.33024391856267
 20
-254.0
 10
78.35
 20
-254.0
 10
79.65505607121673
 20
-254.0
 10
81.01975608143732
 20
-254.0
 10
82.20813100098422
 20
-254.0
 10
83.0147000102206
 20
-254.0
 10
83.30000000000001
 20
-254.0
  0
LWPOLYLINE
  5
A4
330
17
100
AcDbEntity
  8
FRONT
100
AcDbPolyline
 90
16
 70
0
 10
123.30000000000001
 20
-254.0
 10
123.0147000102206
 20
-254.0
 10
122.20813100098422
 20
-254.0
 10
121.01975608143732
 20
-254.0
 10
119.65505607121673
 20
-254.0
 10
118.35
 20
-254.0
 10
117.33024391856267
 20
-254.0
 10
116.77211291757845
 20
-254.0
 10
116.77211291757845
 20
-254.0
 10
117.33024391856267
 20
-254.0
 10
118.35
 20
-254.0
 10
119.65505607121673
 20
-254.0
 10
121.01975608143732
 20
-254.0
 10
122.20813100098422
 20
-254.0
 10
123.0147000102206
 20
-254.0
 10
123.30000000000001
 20
-254.0
  0
LWPOLYLINE
  5
A5
330
17
100
AcDbEntity
  8
FRONT
100
AcDbPolyline
 90
2
 70
0
 10
70.0
 20
-264.0
 10
130.0
 20
-264.0
  0
LWPOLYLINE
  5
A6
330
17
100
AcDbEntity
  8
FRONT
100
AcDbPolyline
 90
2
 70
0
 10
130.0
 20
-264.0
 10
130.0
 20
-254.0
  0
LWPOLYLINE
  5
A7
330
17
100
AcDbEntity
  8
FRONT
100
AcDbPolyline
 90
16
 70
0
 10
83.30000000000001
 20
-264.0
 10
83.0147000102206
 20
-264.0
 10
82.20813100098422
 20
-264.0
 10
81.01975608143732
 20
-264.0
 10
79.65505607121673
 20
-264.0
 10
78.35
 20
-264.0
 10
77.33024391856267
 20
-264.0
 10
76.77211291757845
 20
-264.0
 10
76.77211291757845
 20
-264.0
 10
77.33024391856267
 20
-264.0
 10
78.35
 20
-264.0
 10
79.65505607121673
 20
-264.0
 10
81.01975608143732
 20
-264.0
 10
82.20813100098422
 20
-264.0
 10
83.0147000102206
 20
-264.0
 10
83.30000000000001
 20
-264.0
  0
LWPOLYLINE
  5
A8
330
17
100
AcDbEntity
  8
FRONT
100
AcDbPolyline
 90
16
 70
0
 10
123.30000000000001
 20
-264.0
 10
123.0147000102206
 20
-264.0
 10
122.20813100098422
 20
-264.0
 10
121.01975608143732
 20
-264.0
 10
119.65505607121673
 20
-264.0
 10
118.35
 20
-264.0
 10
117.33024391856267
 20
-264.0
 10
116.77211291757845
 20
-264.0
 10
116.77211291757845
 20
-264.0
 10
117.33024391856267
 20
-264.0
 10
118.35
 20
-264.0
 10
119.65505607121673
 20
-264.0
 10
121.01975608143732
 20
-264.0
 10
122.20813100098422
 20
-264.0
 10
123.0147000102206
 20
-264.0
 10
123.30000000000001
 20
-264.0
  0
LWPOLYLINE
  5
A9
330
17
100
AcDbEntity
  8
FRONT
100
AcDbPolyline
 90
2
 70
0
 10
83.30000000000001
 20
-264.0
 10
83.30000000000001
 20
-254.0
  0
LWPOLYLINE
  5
AA
330
17
100
AcDbEntity
  8
FRONT
100
AcDbPolyline
 90
2
 70
0
 10
123.30000000000001
 20
-264.0
 10
123.30000000000001
 20
-254.0
  0
LWPOLYLINE
  5
AB
330
17
100
AcDbEntity
  8
FRONT
100
AcDbPolyline
 90
2
 70
0
 10
124.0
 20
-252.0
 10
124.0
 20
-234.0
  0
LWPOLYLINE
  5
AC
330
17
100
AcDbEntity
  8
FRONT
100
AcDbPolyline
 90
52
 70
0
 10
124.0
 20
-252.0
 10
123.81809223212645
 20
-252.0
 10
123.27512646484024
 20
-252.0
 10
122.37933350570455
 20
-252.0
 10
121.14429266285882
 20
-252.0
 10
119.5887258965493
 20
-252.0
 10
117.73621401329581
 20
-252.0
 10
115.61483920490181
 20
-252.0
 10
113.25675935105215
 20
-252.0
 10
110.69772053863693
 20
-252.0
 10
107.97651518751184
 20
-252.0
 10
105.13439399695594
 20
-252.0
 10
102.21444062711925
 20
-252.0
 10
99.26091859465191
 20
-252.0
 10
96.31860028291155
 20
-252.0
 10
93.43208823827001
 20
-252.0
 10
90.64513904097569
 20
-252.0
 10
88.0
 20
-252.0
 10
85.53676872689783
 20
-252.0
 10
83.29278529688975
 20
-252.0
 10
81.30206621138393
 20
-252.0
 10
79.59478874248927
 20
-252.0
 10
78.19683347633145
 20
-252.0
 10
77.12939198974823
 20
-252.0
 10
76.40864560758635
 20
-252.0
 10
76.04552011031095
 20
-252.0
 10
76.04552011031095
 20
-252.0
 10
76.40864560758635
 20
-252.0
 10
77.12939198974823
 20
-252.0
 10
78.19683347633142
 20
-252.0
 10
79.59478874248927
 20
-252.0
 10
81.3020662113839
 20
-252.0
 10
83.29278529688975
 20
-252.0
 10
85.53676872689783
 20
-252.0
 10
88.0
 20
-252.0
 10
90.64513904097569
 20
-252.0
 10
93.43208823827001
 20
-252.0
 10
96.31860028291155
 20
-252.0
 10
99.26091859465191
 20
-252.0
 10
102.21444062711925
 20
-252.0
 10
105.13439399695591
 20
-252.0
 10
107.97651518751184
 20
-252.0
 10
110.6977205386369
 20
-252.0
 10
113.25675935105215
 20
-252.0
 10
115.61483920490181
 20
-252.0
 10
117.73621401329581
 20
-252.0
 10
119.58872589654933
 20
-252.0
 10
121.14429266285885
 20
-252.0
 10
122.37933350570455
 20
-252.0
 10
123.27512646484024
 20
-252.0
 10
123.81809223212645
 20
-252.0
 10
124.0
 20
-252.0
  0
LWPOLYLINE
  5
AD
330
17
100
AcDbEntity
  8
FRONT
100
AcDbPolyline
 90
52
 70
0
 10
124.0
 20
-234.0
 10
123.81809223212645
 20
-234.0
 10
123.27512646484024
 20
-234.0
 10
122.37933350570455
 20
-234.0
 10
121.14429266285882
 20
-234.0
 10
119.5887258965493
 20
-234.0
 10
117.73621401329581
 20
-234.0
 10
115.61483920490181
 20
-234.0
 10
113.25675935105215
 20
-234.0
 10
110.69772053863693
 20
-234.0
 10
107.97651518751184
 20
-234.0
 10
105.13439399695594
 20
-234.0
 10
102.21444062711925
 20
-234.0
 10
99.26091859465191
 20
-234.0
 10
96.31860028291155
 20
-234.0
 10
93.43208823827001
 20
-234.0
 10
90.64513904097569
 20
-234.0
 10
88.0
 20
-234.0
 10
85.53676872689783
 20
-234.0
 10
83.29278529688975
 20
-234.0
 10
81.30206621138393
 20
-234.0
 10
79.59478874248927
 20
-234.0
 10
78.19683347633145
 20
-234.0
 10
77.12939198974823
 20
-234.0
 10
76.40864560758635
 20
-234.0
 10
76.04552011031095
 20
-234.0
 10
76.04552011031095
 20
-234.0
 10
76.40864560758635
 20
-234.0
 10
77.12939198974823
 20
-234.0
 10
78.19683347633142
 20
-234.0
 10
79.59478874248927
 20
-234.0
 10
81.3020662113839
 20
-234.0
 10
83.29278529688975
 20
-234.0
 10
85.53676872689783
 20
-234.0
 10
88.0
 20
-234.0
 10
90.64513904097569
 20
-234.0
 10
93.43208823827001
 20
-234.0
 10
96.31860028291155
 20
-234.0
 10
99.26091859465191
 20
-234.0
 10
102.21444062711925
 20
-234.0
 10
105.13439399695591
 20
-234.0
 10
107.97651518751184
 20
-234.0
 10
110.6977205386369
 20
-234.0
 10
113.25675935105215
 20
-234.0
 10
115.61483920490181
 20
-234.0
 10
117.73621401329581
 20
-234.0
 10
119.58872589654933
 20
-234.0
 10
121.14429266285885
 20
-234.0
 10
122.37933350570455
 20
-234.0
 10
123.27512646484024
 20
-234.0
 10
123.81809223212645
 20
-234.0
 10
124.0
 20
-234.0
  0
LWPOLYLINE
  5
AE
330
17
100
AcDbEntity
  8
FRONT
100
AcDbPolyline
 90
37
 70
0
 10
117.0
 20
-252.0
 10
116.74173180120755
 20
-252.0
 10
115.97477455336045
 20
-252.0
 10
114.72243186433545
 20
-252.0
 10
113.02275553302263
 20
-252.0
 10
110.92738936467117
 20
-252.0
 10
108.5
 20
-252.0
 10
105.81434243653638
 20
-252.0
 10
102.95201902033781
 20
-252.0
 10
100.0
 20
-252.0
 10
97.04798097966219
 20
-252.0
 10
94.18565756346362
 20
-252.0
 10
91.5
 20
-252.0
 10
89.07261063532883
 20
-252.0
 10
86.97724446697737
 20
-252.0
 10
85.27756813566455
 20
-252.0
 10
84.02522544663955
 20
-252.0
 10
83.25826819879245
 20
-252.0
 10
83.0
 20
-252.0
 10
83.25826819879245
 20
-252.0
 10
84.02522544663955
 20
-252.0
 10
85.27756813566455
 20
-252.0
 10
86.97724446697737
 20
-252.0
 10
89.07261063532883
 20
-252.0
 10
91.5
 20
-252.0
 10
94.18565756346362
 20
-252.0
 10
97.04798097966219
 20
-252.0
 10
100.0
 20
-252.0
 10
102.95201902033781
 20
-252.0
 10
105.81434243653638
 20
-252.0
 10
108.5
 20
-252.0
 10
110.92738936467117
 20
-252.0
 10
113.02275553302263
 20
-252.0
 10
114.72243186433545
 20
-252.0
 10
115.97477455336045
 20
-252.0
 10
116.74173180120755
 20
-252.0
 10
117.0
 20
-252.0
  0
LWPOLYLINE
  5
AF
330
17
100
AcDbEntity
  8
FRONT
100
AcDbPolyline
 90
37
 70
0
 10
117.0
 20
-234.0
 10
116.74173180120755
 20
-234.0
 10
115.97477455336045
 20
-234.0
 10
114.72243186433545
 20
-234.0
 10
113.02275553302263
 20
-234.0
 10
110.92738936467117
 20
-234.0
 10
108.5
 20
-234.0
 10
105.81434243653638
 20
-234.0
 10
102.95201902033781
 20
-234.0
 10
100.0
 20
-234.0
 10
97.04798097966219
 20
-234.0
 10
94.18565756346362
 20
-234.0
 10
91.5
 20
-234.0
 10
89.07261063532883
 20
-234.0
 10
86.97724446697737
 20
-234.0
 10
85.27756813566455
 20
-234.0
 10
84.02522544663955
 20
-234.0
 10
83.25826819879245
 20
-234.0
 10
83.0
 20
-234.0
 10
83.25826819879245
 20
-234.0
 10
84.02522544663955
 20
-234.0
 10
85.27756813566455
 20
-234.0
 10
86.97724446697737
 20
-234.0
 10
89.07261063532883
 20
-234.0
 10
91.5
 20
-234.0
 10
94.18565756346362
 20
-234.0
 10
97.04798097966219
 20
-234.0
 10
100.0
 20
-234.0
 10
102.95201902033781
 20
-234.0
 10
105.81434243653638
 20
-234.0
 10
108.5
 20
-234.0
 10
110.92738936467117
 20
-234.0
 10
113.02275553302263
 20
-234.0
 10
114.72243186433545
 20
-234.0
 10
115.97477455336045
 20
-234.0
 10
116.74173180120755
 20
-234.0
 10
117.0
 20
-234.0
  0
LWPOLYLINE
  5
B0
330
17
100
AcDbEntity
  8
FRONT
100
AcDbPolyline
 90
2
 70
0
 10
117.0
 20
-252.0
 10
117.0
 20
-234.0
  0
LWPOLYLINE
  5
B1
330
17
100
AcDbEntity
  8
FRONT
100
AcDbPolyline
 90
2
 70
0
 10
116.0
 20
-250.0
 10
116.0
 20
-150.0
  0
LWPOLYLINE
  5
B2
330
17
100
AcDbEntity
  8
FRONT
100
AcDbPolyline
 90
35
 70
0
 10
116.0
 20
-250.0
 10
115.72756959494242
 20
-250.0
 10
114.91955567046969
 20
-250.0
 10
113.60347417167384
 20
-250.0
 10
111.82414267553054
 20
-250.0
 10
109.64215418206811
 20
-250.0
 10
107.1318136924246
 20
-250.0
 10
104.37860784115333
 20
-250.0
 10
101.47629375141284
 20
-250.0
 10
98.52370624858716
 20
-250.0
 10
95.62139215884667
 20
-250.0
 10
92.8681863075754
 20
-250.0
 10
90.35784581793189
 20
-250.0
 10
88.17585732446946
 20
-250.0
 10
86.39652582832616
 20
-250.0
 10
85.08044432953031
 20
-250.0
 10
84.27243040505758
 20
-250.0
 10
84.0
 20
-250.0
 10
84.27243040505758
 20
-250.0
 10
85.08044432953031
 20
-250.0
 10
86.39652582832616
 20
-250.0
 10
88.17585732446946
 20
-250.0
 10
90.35784581793189
 20
-250.0
 10
92.8681863075754
 20
-250.0
 10
95.62139215884667
 20
-250.0
 10
98.52370624858716
 20
-250.0
 10
101.47629375141281
 20
-250.0
 10
104.37860784115333
 20
-250.0
 10
107.1318136924246
 20
-250.0
 10
109.64215418206811
 20
-250.0
 10
111.82414267553054
 20
-250.0
 10
113.60347417167381
 20
-250.0
 10
114.91955567046969
 20
-250.0
 10
115.72756959494242
 20
-250.0
 10
116.0
 20
-250.0
  0
LWPOLYLINE
  5
B3
330
17
100
AcDbEntity
  8
FRONT
100
AcDbPolyline
 90
35
 70
0
 10
116.0
 20
-150.0
 10
115.72756959494242
 20
-150.0
 10
114.91955567046969
 20
-150.0
 10
113.60347417167384
 20
-150.0
 10
111.82414267553054
 20
-150.0
 10
109.64215418206811
 20
-150.0
 10
107.1318136924246
 20
-150.0
 10
104.37860784115333
 20
-150.0
 10
101.47629375141284
 20
-150.0
 10
98.52370624858716
 20
-150.0
 10
95.62139215884667
 20
-150.0
 10
92.8681863075754
 20
-150.0
 10
90.35784581793189
 20
-150.0
 10
88.17585732446946
 20
-150.0
 10
86.39652582832616
 20
-150.0
 10
85.08044432953031
 20
-150.0
 10
84.27243040505758
 20
-150.0
 10
84.0
 20
-150.0
 10
84.27243040505758
 20
-150.0
 10
85.08044432953031
 20
-150.0
 10
86.39652582832616
 20
-150.0
 10
88.17585732446946
 20
-150.0
 10
90.35784581793189
 20
-150.0
 10
92.8681863075754
 20
-150.0
 10
95.62139215884667
 20
-150.0
 10
98.52370624858716
 20
-150.0
 10
101.47629375141281
 20
-150.0
 10
104.37860784115333
 20
-150.0
 10
107.1318136924246
 20
-150.0
 10
109.64215418206811
 20
-150.0
 10
111.82414267553054
 20
-150.0
 10
113.60347417167381
 20
-150.0
 10
114.91955567046969
 20
-150.0
 10
115.72756959494242
 20
-150.0
 10
116.0
 20
-150.0
  0
LWPOLYLINE
  5
B4
330
17
100
AcDbEntity
  8
FRONT
100
AcDbPolyline
 90
2
 70
0
 10
470.0
 20
-264.0
 10
470.0
 20
-254.0
  0
LWPOLYLINE
  5
B5
330
17
100
AcDbEntity
  8
FRONT
100
AcDbPolyline
 90
2
 70
0
 10
470.0
 20
-264.0
 10
470.0
 20
-254.0
  0
LWPOLYLINE
  5
B6
330
17
100
AcDbEntity
  8
FRONT
100
AcDbPolyline
 90
2
 70
0
 10
470.0
 20
-264.0
 10
530.0
 20
-264.0
  0
LWPOLYLINE
  5
B7
330
17
100
AcDbEntity
  8
FRONT
100
AcDbPolyline
 90
2
 70
0
 10
530.0
 20
-264.0
 10
530.0
 20
-254.0
  0
LWPOLYLINE
  5
B8
330
17
100
AcDbEntity
  8
FRONT
100
AcDbPolyline
 90
2
 70
0
 10
470.0
 20
-254.0
 10
530.0
 20
-254.0
  0
LWPOLYLINE
  5
B9
330
17
100
AcDbEntity
  8
FRONT
100
AcDbPolyline
 90
2
 70
0
 10
470.0
 20
-254.0
 10
530.0
 20
-254.0
  0
LWPOLYLINE
  5
BA
330
17
100
AcDbEntity
  8
FRONT
100
AcDbPolyline
 90
16
 70
0
 10
483.3
 20
-254.0
 10
483.0147000102206
 20
-254.0
 10
482.2081310009842
 20
-254.0
 10
481.0197560814373
 20
-254.0
 10
479.65505607121673
 20
-254.0
 10
478.35
 20
-254.0
 10
477.3302439185627
 20
-254.0
 10
476.77211291757845
 20
-254.0
 10
476.77211291757845
 20
-254.0
 10
477.3302439185627
 20
-254.0
 10
478.35
 20
-254.0
 10
479.65505607121673
 20
-254.0
 10
481.0197560814373
 20
-254.0
 10
482.2081310009842
 20
-254.0
 10
483.0147000102206
 20
-254.0
 10
483.3
 20
-254.0
  0
LWPOLYLINE
  5
BB
330
17
100
AcDbEntity
  8
FRONT
100
AcDbPolyline
 90
16
 70
0
 10
523.3
 20
-254.0
 10
523.0147000102206
 20
-254.0
 10
522.2081310009842
 20
-254.0
 10
521.0197560814373
 20
-254.0
 10
519.6550560712167
 20
-254.0
 10
518.35
 20
-254.0
 10
517.3302439185627
 20
-254.0
 10
516.7721129175784
 20
-254.0
 10
516.7721129175784
 20
-254.0
 10
517.3302439185627
 20
-254.0
 10
518.35
 20
-254.0
 10
519.6550560712167
 20
-254.0
 10
521.0197560814373
 20
-254.0
 10
522.2081310009842
 20
-254.0
 10
523.0147000102206
 20
-254.0
 10
523.3
 20
-254.0
  0
LWPOLYLINE
  5
BC
330
17
100
AcDbEntity
  8
FRONT
100
AcDbPolyline
 90
2
 70
0
 10
470.0
 20
-264.0
 10
530.0
 20
-264.0
  0
LWPOLYLINE
  5
BD
330
17
100
AcDbEntity
  8
FRONT
100
AcDbPolyline
 90
2
 70
0
 10
530.0
 20
-264.0
 10
530.0
 20
-254.0
  0
LWPOLYLINE
  5
BE
330
17
100
AcDbEntity
  8
FRONT
100
AcDbPolyline
 90
16
 70
0
 10
483.3
 20
-264.0
 10
483.0147000102206
 20
-264.0
 10
482.2081310009842
 20
-264.0
 10
481.0197560814373
 20
-264.0
 10
479.65505607121673
 20
-264.0
 10
478.35
 20
-264.0
 10
477.3302439185627
 20
-264.0
 10
476.77211291757845
 20
-264.0
 10
476.77211291757845
 20
-264.0
 10
477.3302439185627
 20
-264.0
 10
478.35
 20
-264.0
 10
479.65505607121673
 20
-264.0
 10
481.0197560814373
 20
-264.0
 10
482.2081310009842
 20
-264.0
 10
483.0147000102206
 20
-264.0
 10
483.3
 20
-264.0
  0
LWPOLYLINE
  5
BF
330
17
100
AcDbEntity
  8
FRONT
100
AcDbPolyline
 90
16
 70
0
 10
523.3
 20
-264.0
 10
523.0147000102206
 20
-264.0
 10
522.2081310009842
 20
-264.0
 10
521.0197560814373
 20
-264.0
 10
519.6550560712167
 20
-264.0
 10
518.35
 20
-264.0
 10
517.3302439185627
 20
-264.0
 10
516.7721129175784
 20
-264.0
 10
516.7721129175784
 20
-264.0
 10
517.3302439185627
 20
-264.0
 10
518.35
 20
-264.0
 10
519.6550560712167
 20
-264.0
 10
521.0197560814373
 20
-264.0
 10
522.2081310009842
 20
-264.0
 10
523.0147000102206
 20
-264.0
 10
523.3
 20
-264.0
  0
LWPOLYLINE
  5
C0
330
17
100
AcDbEntity
  8
FRONT
100
AcDbPolyline
 90
2
 70
0
 10
483.3
 20
-264.0
 10
483.3
 20
-254.0
  0
LWPOLYLINE
  5
C1
330
17
100
AcDbEntity
  8
FRONT
100
AcDbPolyline
 90
2
 70
0
 10
523.3
 20
-264.0
 10
523.3
 20
-254.0
  0
LWPOLYLINE
  5
C2
330
17
100
AcDbEntity
  8
FRONT
100
AcDbPolyline
 90
2
 70
0
 10
524.0
 20
-252.0
 10
524.0
 20
-234.0
  0
LWPOLYLINE
  5
C3
330
17
100
AcDbEntity
  8
FRONT
100
AcDbPolyline
 90
52
 70
0
 10
524.0
 20
-252.0
 10
523.8180922321264
 20
-252.0
 10
523.2751264648402
 20
-252.0
 10
522.3793335057046
 20
-252.0
 10
521.1442926628588
 20
-252.0
 10
519.5887258965492
 20
-252.0
 10
517.7362140132958
 20
-252.0
 10
515.6148392049018
 20
-252.0
 10
513.2567593510521
 20
-252.0
 10
510.69772053863693
 20
-252.0
 10
507.97651518751184
 20
-252.0
 10
505.13439399695596
 20
-252.0
 10
502.21444062711925
 20
-252.0
 10
499.2609185946519
 20
-252.0
 10
496.3186002829116
 20
-252.0
 10
493.43208823827
 20
-252.0
 10
490.64513904097566
 20
-252.0
 10
488.0
 20
-252.0
 10
485.53676872689783
 20
-252.0
 10
483.29278529688975
 20
-252.0
 10
481.30206621138393
 20
-252.0
 10
479.5947887424893
 20
-252.0
 10
478.19683347633145
 20
-252.0
 10
477.1293919897482
 20
-252.0
 10
476.4086456075863
 20
-252.0
 10
476.0455201103109
 20
-252.0
 10
476.0455201103109
 20
-252.0
 10
476.4086456075863
 20
-252.0
 10
477.1293919897482
 20
-252.0
 10
478.19683347633145
 20
-252.0
 10
479.5947887424893
 20
-252.0
 10
481.30206621138393
 20
-252.0
 10
483.29278529688975
 20
-252.0
 10
485.53676872689783
 20
-252.0
 10
488.0
 20
-252.0
 10
490.64513904097566
 20
-252.0
 10
493.43208823827
 20
-252.0
 10
496.3186002829116
 20
-252.0
 10
499.2609185946519
 20
-252.0
 10
502.21444062711925
 20
-252.0
 10
505.1343939969559
 20
-252.0
 10
507.97651518751184
 20
-252.0
 10
510.6977205386369
 20
-252.0
 10
513.2567593510521
 20
-252.0
 10
515.6148392049018
 20
-252.0
 10
517.7362140132958
 20
-252.0
 10
519.5887258965494
 20
-252.0
 10
521.1442926628588
 20
-252.0
 10
522.3793335057046
 20
-252.0
 10
523.2751264648402
 20
-252.0
 10
523.8180922321264
 20
-252.0
 10
524.0
 20
-252.0
  0
LWPOLYLINE
  5
C4
330
17
100
AcDbEntity
  8
FRONT
100
AcDbPolyline
 90
52
 70
0
 10
524.0
 20
-234.0
 10
523.8180922321264
 20
-234.0
 10
523.2751264648402
 20
-234.0
 10
522.3793335057046
 20
-234.0
 10
521.1442926628588
 20
-234.0
 10
519.5887258965492
 20
-234.0
 10
517.7362140132958
 20
-234.0
 10
515.6148392049018
 20
-234.0
 10
513.2567593510521
 20
-234.0
 10
510.69772053863693
 20
-234.0
 10
507.97651518751184
 20
-234.0
 10
505.13439399695596
 20
-234.0
 10
502.21444062711925
 20
-234.0
 10
499.2609185946519
 20
-234.0
 10
496.3186002829116
 20
-234.0
 10
493.43208823827
 20
-234.0
 10
490.64513904097566
 20
-234.0
 10
488.0
 20
-234.0
 10
485.53676872689783
 20
-234.0
 10
483.29278529688975
 20
-234.0
 10
481.30206621138393
 20
-234.0
 10
479.5947887424893
 20
-234.0
 10
478.19683347633145
 20
-234.0
 10
477.1293919897482
 20
-234.0
 10
476.4086456075863
 20
-234.0
 10
476.0455201103109
 20
-234.0
 10
476.0455201103109
 20
-234.0
 10
476.4086456075863
 20
-234.0
 10
477.1293919897482
 20
-234.0
 10
478.19683347633145
 20
-234.0
 10
479.5947887424893
 20
-234.0
 10
481.30206621138393
 20
-234.0
 10
483.29278529688975
 20
-234.0
 10
485.53676872689783
 20
-234.0
 10
488.0
 20
-234.0
 10
490.64513904097566
 20
-234.0
 10
493.43208823827
 20
-234.0
 10
496.3186002829116
 20
-234.0
 10
499.2609185946519
 20
-234.0
 10
502.21444062711925
 20
-234.0
 10
505.1343939969559
 20
-234.0
 10
507.97651518751184
 20
-234.0
 10
510.6977205386369
 20
-234.0
 10
513.2567593510521
 20
-234.0
 10
515.6148392049018
 20
-234.0
 10
517.7362140132958
 20
-234.0
 10
519.5887258965494
 20
-234.0
 10
521.1442926628588
 20
-234.0
 10
522.3793335057046
 20
-234.0
 10
523.2751264648402
 20
-234.0
 10
523.8180922321264
 20
-234.0
 10
524.0
 20
-234.0
  0
LWPOLYLINE
  5
C5
330
17
100
AcDbEntity
  8
FRONT
100
AcDbPolyline
 90
37
 70
0
 10
517.0
 20
-252.0
 10
516.7417318012076
 20
-252.0
 10
515.9747745533605
 20
-252.0
 10
514.7224318643355
 20
-252.0
 10
513.0227555330226
 20
-252.0
 10
510.92738936467117
 20
-252.0
 10
508.5
 20
-252.0
 10
505.8143424365364
 20
-252.0
 10
502.95201902033784
 20
-252.0
 10
500.0
 20
-252.0
 10
497.04798097966216
 20
-252.0
 10
494.1856575634636
 20
-252.0
 10
491.5
 20
-252.0
 10
489.07261063532883
 20
-252.0
 10
486.97724446697737
 20
-252.0
 10
485.2775681356645
 20
-252.0
 10
484.0252254466395
 20
-252.0
 10
483.25826819879245
 20
-252.0
 10
483.0
 20
-252.0
 10
483.25826819879245
 20
-252.0
 10
484.0252254466395
 20
-252.0
 10
485.2775681356645
 20
-252.0
 10
486.97724446697737
 20
-252.0
 10
489.07261063532883
 20
-252.0
 10
491.5
 20
-252.0
 10
494.1856575634636
 20
-252.0
 10
497.04798097966216
 20
-252.0
 10
500.0
 20
-252.0
 10
502.95201902033784
 20
-252.0
 10
505.8143424365364
 20
-252.0
 10
508.5
 20
-252.0
 10
510.92738936467117
 20
-252.0
 10
513.0227555330226
 20
-252.0
 10
514.7224318643355
 20
-252.0
 10
515.9747745533605
 20
-252.0
 10
516.7417318012076
 20
-252.0
 10
517.0
 20
-252.0
  0
LWPOLYLINE
  5
C6
330
17
100
AcDbEntity
  8
FRONT
100
AcDbPolyline
 90
37
 70
0
 10
517.0
 20
-234.0
 10
516.7417318012076
 20
-234.0
 10
515.9747745533605
 20
-234.0
 10
514.7224318643355
 20
-234.0
 10
513.0227555330226
 20
-234.0
 10
510.92738936467117
 20
-234.0
 10
508.5
 20
-234.0
 10
505.8143424365364
 20
-234.0
 10
502.95201902033784
 20
-234.0
 10
500.0
 20
-234.0
 10
497.04798097966216
 20
-234.0
 10
494.1856575634636
 20
-234.0
 10
491.5
 20
-234.0
 10
489.07261063532883
 20
-234.0
 10
486.97724446697737
 20
-234.0
 10
485.2775681356645
 20
-234.0
 10
484.0252254466395
 20
-234.0
 10
483.25826819879245
 20
-234.0
 10
483.0
 20
-234.0
 10
483.25826819879245
 20
-234.0
 10
484.0252254466395
 20
-234.0
 10
485.2775681356645
 20
-234.0
 10
486.97724446697737
 20
-234.0
 10
489.07261063532883
 20
-234.0
 10
491.5
 20
-234.0
 10
494.1856575634636
 20
-234.0
 10
497.04798097966216
 20
-234.0
 10
500.0
 20
-234.0
 10
502.95201902033784
 20
-234.0
 10
505.8143424365364
 20
-234.0
 10
508.5
 20
-234.0
 10
510.92738936467117
 20
-234.0
 10
513.0227555330226
 20
-234.0
 10
514.7224318643355
 20
-234.0
 10
515.9747745533605
 20
-234.0
 10
516.7417318012076
 20
-234.0
 10
517.0
 20
-234.0
  0
LWPOLYLINE
  5
C7
330
17
100
AcDbEntity
  8
FRONT
100
AcDbPolyline
 90
2
 70
0
 10
517.0
 20
-252.0
 10
517.0
 20
-234.0
  0
LWPOLYLINE
  5
C8
330
17
100
AcDbEntity
  8
FRONT
100
AcDbPolyline
 90
2
 70
0
 10
516.0
 20
-250.0
 10
516.0
 20
-150.0
  0
LWPOLYLINE
  5
C9
330
17
100
AcDbEntity
  8
FRONT
100
AcDbPolyline
 90
35
 70
0
 10
516.0
 20
-250.0
 10
515.7275695949425
 20
-250.0
 10
514.9195556704697
 20
-250.0
 10
513.6034741716738
 20
-250.0
 10
511.82414267553054
 20
-250.0
 10
509.6421541820681
 20
-250.0
 10
507.1318136924246
 20
-250.0
 10
504.3786078411533
 20
-250.0
 10
501.47629375141287
 20
-250.0
 10
498.52370624858713
 20
-250.0
 10
495.6213921588467
 20
-250.0
 10
492.8681863075754
 20
-250.0
 10
490.3578458179319
 20
-250.0
 10
488.17585732446946
 20
-250.0
 10
486.39652582832616
 20
-250.0
 10
485.08044432953034
 20
-250.0
 10
484.27243040505755
 20
-250.0
 10
484.0
 20
-250.0
 10
484.27243040505755
 20
-250.0
 10
485.08044432953034
 20
-250.0
 10
486.39652582832616
 20
-250.0
 10
488.17585732446946
 20
-250.0
 10
490.3578458179319
 20
-250.0
 10
492.8681863075754
 20
-250.0
 10
495.6213921588467
 20
-250.0
 10
498.52370624858713
 20
-250.0
 10
501.4762937514128
 20
-250.0
 10
504.3786078411533
 20
-250.0
 10
507.1318136924246
 20
-250.0
 10
509.6421541820681
 20
-250.0
 10
511.82414267553054
 20
-250.0
 10
513.6034741716738
 20
-250.0
 10
514.9195556704697
 20
-250.0
 10
515.7275695949425
 20
-250.0
 10
516.0
 20
-250.0
  0
LWPOLYLINE
  5
CA
330
17
100
AcDbEntity
  8
FRONT
100
AcDbPolyline
 90
35
 70
0
 10
516.0
 20
-150.0
 10
515.7275695949425
 20
-150.0
 10
514.9195556704697
 20
-150.0
 10
513.6034741716738
 20
-150.0
 10
511.82414267553054
 20
-150.0
 10
509.6421541820681
 20
-150.0
 10
507.1318136924246
 20
-150.0
 10
504.3786078411533
 20
-150.0
 10
501.47629375141287
 20
-150.0
 10
498.52370624858713
 20
-150.0
 10
495.6213921588467
 20
-150.0
 10
492.8681863075754
 20
-150.0
 10
490.3578458179319
 20
-150.0
 10
488.17585732446946
 20
-150.0
 10
486.39652582832616
 20
-150.0
 10
485.08044432953034
 20
-150.0
 10
484.27243040505755
 20
-150.0
 10
484.0
 20
-150.0
 10
484.27243040505755
 20
-150.0
 10
485.08044432953034
 20
-150.0
 10
486.39652582832616
 20
-150.0
 10
488.17585732446946
 20
-150.0
 10
490.3578458179319
 20
-150.0
 10
492.8681863075754
 20
-150.0
 10
495.6213921588467
 20
-150.0
 10
498.52370624858713
 20
-150.0
 10
501.4762937514128
 20
-150.0
 10
504.3786078411533
 20
-150.0
 10
507.1318136924246
 20
-150.0
 10
509.6421541820681
 20
-150.0
 10
511.82414267553054
 20
-150.0
 10
513.6034741716738
 20
-150.0
 10
514.9195556704697
 20
-150.0
 10
515.7275695949425
 20
-150.0
 10
516.0
 20
-150.0
  0
LWPOLYLINE
  5
CB
330
17
100
AcDbEntity
  8
FRONT
100
AcDbPolyline
 90
2
 70
0
 10
250.0
 20
-284.0
 10
250.0
 20
-268.0
  0
LWPOLYLINE
  5
CC
330
17
100
AcDbEntity
  8
FRONT
100
AcDbPolyline
 90
2
 70
0
 10
250.0
 20
-284.0
 10
250.0
 20
-268.0
  0
LWPOLYLINE
  5
CD
330
17
100
AcDbEntity
  8
FRONT
100
AcDbPolyline
 90
2
 70
0
 10
250.0
 20
-284.0
 10
350.0
 20
-284.0
  0
LWPOLYLINE
  5
CE
330
17
100
AcDbEntity
  8
FRONT
100
AcDbPolyline
 90
2
 70
0
 10
350.0
 20
-284.0
 10
350.0
 20
-268.0
  0
LWPOLYLINE
  5
CF
330
17
100
AcDbEntity
  8
FRONT
100
AcDbPolyline
 90
2
 70
0
 10
250.0
 20
-268.0
 10
350.0
 20
-268.0
  0
LWPOLYLINE
  5
D0
330
17
100
AcDbEntity
  8
FRONT
100
AcDbPolyline
 90
2
 70
0
 10
250.0
 20
-268.0
 10
350.0
 20
-268.0
  0
LWPOLYLINE
  5
D1
330
17
100
AcDbEntity
  8
FRONT
100
AcDbPolyline
 90
2
 70
0
 10
341.0
 20
-268.0
 10
259.0
 20
-268.0
  0
LWPOLYLINE
  5
D2
330
17
100
AcDbEntity
  8
FRONT
100
AcDbPolyline
 90
2
 70
0
 10
341.0
 20
-268.0
 10
259.0
 20
-268.0
  0
LWPOLYLINE
  5
D3
330
17
100
AcDbEntity
  8
FRONT
100
AcDbPolyline
 90
2
 70
0
 10
250.0
 20
-284.0
 10
350.0
 20
-284.0
  0
LWPOLYLINE
  5
D4
330
17
100
AcDbEntity
  8
FRONT
100
AcDbPolyline
 90
2
 70
0
 10
350.0
 20
-284.0
 10
350.0
 20
-268.0
  0
LWPOLYLINE
  5
D5
330
17
100
AcDbEntity
  8
FRONT
100
AcDbPolyline
 90
2
 70
0
 10
341.0
 20
-280.0
 10
341.0
 20
-268.0
  0
LWPOLYLINE
  5
D6
330
17
100
AcDbEntity
  8
FRONT
100
AcDbPolyline
 90
2
 70
0
 10
259.0
 20
-280.0
 10
259.0
 20
-268.0
  0
LWPOLYLINE
  5
D7
330
17
100
AcDbEntity
  8
FRONT
100
AcDbPolyline
 90
2
 70
0
 10
259.0
 20
-280.0
 10
341.0
 20
-280.0
  0
LWPOLYLINE
  5
D8
330
17
100
AcDbEntity
  8
FRONT
100
AcDbPolyline
 90
2
 70
0
 10
341.0
 20
-280.0
 10
341.0
 20
-268.0
  0
LWPOLYLINE
  5
D9
330
17
100
AcDbEntity
  8
FRONT
100
AcDbPolyline
 90
2
 70
0
 10
259.0
 20
-280.0
 10
259.0
 20
-268.0
  0
LWPOLYLINE
  5
DA
330
17
100
AcDbEntity
  8
FRONT
100
AcDbPolyline
 90
2
 70
0
 10
259.0
 20
-280.0
 10
341.0
 20
-280.0
  0
DIMENSION
  5
DB
330
17
100
AcDbEntity
  8
DIMENSIONS
100
AcDbDimension
280
0
  2
*D3
  3
Standard
 10
0.0
 20
-319.0
 30
0.0
 11
300.0
 21
-319.0
 31
0.0
 70
32
 71
5
  1
<>
100
AcDbAlignedDimension
 13
0.0
 23
-284.0
 33
0.0
 14
600.0
 24
-284.0
 34
0.0
 50
0.0
100
AcDbRotatedDimension
1001
ACAD
1000
DSTYLE
1002
{
1070
140
1040
4.615384615384615
1070
41
1040
3.3333333333333335
1070
176
1070
7
1070
177
1070
7
1070
178
1070
7
1070
271
1070
2
1002
}
  0
DIMENSION
  5
EB
330
17
100
AcDbEntity
  8
DIMENSIONS
100
AcDbDimension
280
0
  2
*D4
  3
Standard
 10
-35.0
 20
-284.0
 30
0.0
 11
-35.0
 21
-217.0
 31
0.0
 70
32
 71
5
  1
<>
100
AcDbAlignedDimension
 13
0.0
 23
-284.0
 33
0.0
 14
0.0
 24
-150.0
 34
0.0
 50
90.0
100
AcDbRotatedDimension
1001
ACAD
1000
DSTYLE
1002
{
1070
140
1040
4.615384615384615
1070
41
1040
3.3333333333333335
1070
176
1070
7
1070
177
1070
7
1070
178
1070
7
1070
271
1070
2
1002
}
  0
TEXT
  5
FB
330
17
100
AcDbEntity
  8
NOTES
100
AcDbText
 10
0.0
 20
-130.0
 30
0.0
 40
6.0
  1
FRONT
100
AcDbText
  0
LWPOLYLINE
  5
FC
330
17
100
AcDbEntity
  8
RIGHT
100
AcDbPolyline
 90
2
 70
0
 10
767.5
 20
0.0
 10
767.5
 20
20.0
  0
LWPOLYLINE
  5
FD
330
17
100
AcDbEntity
  8
RIGHT
100
AcDbPolyline
 90
2
 70
0
 10
767.5
 20
20.0
 10
802.5
 20
20.0
  0
LWPOLYLINE
  5
FE
330
17
100
AcDbEntity
  8
RIGHT
100
AcDbPolyline
 90
2
 70
0
 10
802.5
 20
0.0
 10
802.5
 20
20.0
  0
LWPOLYLINE
  5
FF
330
17
100
AcDbEntity
  8
RIGHT
100
AcDbPolyline
 90
2
 70
0
 10
767.5
 20
0.0
 10
802.5
 20
0.0
  0
LWPOLYLINE
  5
100
330
17
100
AcDbEntity
  8
RIGHT
100
AcDbPolyline
 90
2
 70
0
 10
767.5
 20
0.0
 10
767.5
 20
20.0
  0
LWPOLYLINE
  5
101
330
17
100
AcDbEntity
  8
RIGHT
100
AcDbPolyline
 90
2
 70
0
 10
767.5
 20
20.0
 10
802.5
 20
20.0
  0
LWPOLYLINE
  5
102
330
17
100
AcDbEntity
  8
RIGHT
100
AcDbPolyline
 90
2
 70
0
 10
802.5
 20
0.0
 10
802.5
 20
20.0
  0
LWPOLYLINE
  5
103
330
17
100
AcDbEntity
  8
RIGHT
100
AcDbPolyline
 90
2
 70
0
 10
767.5
 20
0.0
 10
802.5
 20
0.0
  0
LWPOLYLINE
  5
104
330
17
100
AcDbEntity
  8
RIGHT
100
AcDbPolyline
 90
2
 70
0
 10
750.0
 20
20.0
 10
750.0
 20
30.0
  0
LWPOLYLINE
  5
105
330
17
100
AcDbEntity
  8
RIGHT
100
AcDbPolyline
 90
2
 70
0
 10
750.0
 20
30.0
 10
820.0
 20
30.0
  0
LWPOLYLINE
  5
106
330
17
100
AcDbEntity
  8
RIGHT
100
AcDbPolyline
 90
2
 70
0
 10
820.0
 20
20.0
 10
820.0
 20
30.0
  0
LWPOLYLINE
  5
107
330
17
100
AcDbEntity
  8
RIGHT
100
AcDbPolyline
 90
2
 70
0
 10
750.0
 20
20.0
 10
820.0
 20
20.0
  0
LWPOLYLINE
  5
108
330
17
100
AcDbEntity
  8
RIGHT
100
AcDbPolyline
 90
2
 70
0
 10
750.0
 20
20.0
 10
750.0
 20
30.0
  0
LWPOLYLINE
  5
109
330
17
100
AcDbEntity
  8
RIGHT
100
AcDbPolyline
 90
2
 70
0
 10
750.0
 20
30.0
 10
820.0
 20
30.0
  0
LWPOLYLINE
  5
10A
330
17
100
AcDbEntity
  8
RIGHT
100
AcDbPolyline
 90
16
 70
0
 10
785.0
 20
30.0
 10
783.6577690778498
 20
30.0
 10
782.5476220759246
 20
30.0
 10
781.8615134962259
 20
30.0
 10
781.7180777452847
 20
30.0
 10
782.1421161675114
 20
30.0
 10
783.0603086674348
 20
30.0
 10
784.3138914203014
 20
30.0
 10
785.6861085796986
 20
30.0
 10
786.9396913325652
 20
30.0
 10
787.8578838324886
 20
30.0
 10
788.2819222547153
 20
30.0
 10
788.138486503774
 20
30.0
 10
787.4523779240754
 20
30.0
 10
786.3422309221502
 20
30.0
 10
785.0
 20
30.0
  0
LWPOLYLINE
  5
10B
330
17
100
AcDbEntity
  8
RIGHT
100
AcDbPolyline
 90
16
 70
0
 10
785.0
 20
30.0
 10
783.6577690778498
 20
30.0
 10
782.5476220759246
 20
30.0
 10
781.8615134962259
 20
30.0
 10
781.7180777452847
 20
30.0
 10
782.1421161675114
 20
30.0
 10
783.0603086674348
 20
30.0
 10
784.3138914203014
 20
30.0
 10
785.6861085796986
 20
30.0
 10
786.9396913325652
 20
30.0
 10
787.8578838324886
 20
30.0
 10
788.2819222547153
 20
30.0
 10
788.138486503774
 20
30.0
 10
787.4523779240754
 20
30.0
 10
786.3422309221502
 20
30.0
 10
785.0
 20
30.0
  0
LWPOLYLINE
  5
10C
330
17
100
AcDbEntity
  8
RIGHT
100
AcDbPolyline
 90
2
 70
0
 10
820.0
 20
20.0
 10
820.0
 20
30.0
  0
LWPOLYLINE
  5
10D
330
17
100
AcDbEntity
  8
RIGHT
100
AcDbPolyline
 90
2
 70
0
 10
750.0
 20
20.0
 10
820.0
 20
20.0
  0
LWPOLYLINE
  5
10E
330
17
100
AcDbEntity
  8
RIGHT
100
AcDbPolyline
 90
16
 70
0
 10
785.0
 20
20.0
 10
783.6577690778498
 20
20.0
 10
782.5476220759246
 20
20.0
 10
781.8615134962259
 20
20.0
 10
781.7180777452847
 20
20.0
 10
782.1421161675114
 20
20.0
 10
783.0603086674348
 20
20.0
 10
784.3138914203014
 20
20.0
 10
785.6861085796986
 20
20.0
 10
786.9396913325652
 20
20.0
 10
787.8578838324886
 20
20.0
 10
788.2819222547153
 20
20.0
 10
788.138486503774
 20
20.0
 10
787.4523779240754
 20
20.0
 10
786.3422309221502
 20
20.0
 10
785.0
 20
20.0
  0
LWPOLYLINE
  5
10F
330
17
100
AcDbEntity
  8
RIGHT
100
AcDbPolyline
 90
16
 70
0
 10
785.0
 20
20.0
 10
783.6577690778498
 20
20.0
 10
782.5476220759246
 20
20.0
 10
781.8615134962259
 20
20.0
 10
781.7180777452847
 20
20.0
 10
782.1421161675114
 20
20.0
 10
783.0603086674348
 20
20.0
 10
784.3138914203014
 20
20.0
 10
785.6861085796986
 20
20.0
 10
786.9396913325652
 20
20.0
 10
787.8578838324886
 20
20.0
 10
788.2819222547153
 20
20.0
 10
788.138486503774
 20
20.0
 10
787.4523779240754
 20
20.0
 10
786.3422309221502
 20
20.0
 10
785.0
 20
20.0
  0
LWPOLYLINE
  5
110
330
17
100
AcDbEntity
  8
RIGHT
100
AcDbPolyline
 90
2
 70
0
 10
785.0
 20
20.0
 10
785.0
 20
30.0
  0
LWPOLYLINE
  5
111
330
17
100
AcDbEntity
  8
RIGHT
100
AcDbPolyline
 90
2
 70
0
 10
785.0
 20
20.0
 10
785.0
 20
30.0
  0
LWPOLYLINE
  5
112
330
17
100
AcDbEntity
  8
RIGHT
100
AcDbPolyline
 90
2
 70
0
 10
785.0
 20
32.0
 10
785.0
 20
50.0
  0
LWPOLYLINE
  5
113
330
17
100
AcDbEntity
  8
RIGHT
100
AcDbPolyline
 90
52
 70
0
 10
785.0
 20
32.0
 10
787.9493189759531
 20
32.0
 10
790.853929282601
 20
32.0
 10
793.6697999884917
 20
32.0
 10
796.3542453640642
 20
32.0
 10
798.866571953798
 20
32.0
 10
801.1686954475174
 20
32.0
 10
803.225717999713
 20
32.0
 10
805.0064572453068
 20
32.0
 10
806.4839189925215
 20
32.0
 10
807.6357064273107
 20
32.0
 10
808.4443596262304
 20
32.0
 10
808.8976202310809
 20
32.0
 10
808.9886172731208
 20
32.0
 10
808.7159713299502
 20
32.0
 10
808.0838154361477
 20
32.0
 10
807.1017324306789
 20
32.0
 10
805.7846096908265
 20
32.0
 10
804.1524134547258
 20
32.0
 10
802.2298861535467
 20
32.0
 10
800.0461713414586
 20
32.0
 10
797.6343719090565
 20
32.0
 10
795.0310482772828
 20
32.0
 10
792.275664178713
 20
32.0
 10
789.4099884275977
 20
32.0
 10
786.4774617472146
 20
32.0
 10
783.5225382527854
 20
32.0
 10
780.5900115724023
 20
32.0
 10
777.7243358212869
 20
32.0
 10
774.9689517227172
 20
32.0
 10
772.3656280909435
 20
32.0
 10
769.9538286585414
 20
32.0
 10
767.7701138464533
 20
32.0
 10
765.8475865452742
 20
32.0
 10
764.2153903091735
 20
32.0
 10
762.8982675693211
 20
32.0
 10
761.9161845638523
 20
32.0
 10
761.2840286700498
 20
32.0
 10
761.0113827268792
 20
32.0
 10
761.1023797689191
 20
32.0
 10
761.5556403737696
 20
32.0
 10
762.3642935726893
 20
32.0
 10
763.5160810074785
 20
32.0
 10
764.9935427546932
 20
32.0
 10
766.774282000287
 20
32.0
 10
768.8313045524826
 20
32.0
 10
771.133428046202
 20
32.0
 10
773.6457546359358
 20
32.0
 10
776.3302000115083
 20
32.0
 10
779.146070717399
 20
32.0
 10
782.0506810240469
 20
32.0
 10
785.0
 20
32.0
  0
LWPOLYLINE
  5
114
330
17
100
AcDbEntity
  8
RIGHT
100
AcDbPolyline
 90
52
 70
0
 10
785.0
 20
50.0
 10
787.9493189759531
 20
50.0
 10
790.853929282601
 20
50.0
 10
793.6697999884917
 20
50.0
 10
796.3542453640642
 20
50.0
 10
798.866571953798
 20
50.0
 10
801.1686954475174
 20
50.0
 10
803.225717999713
 20
50.0
 10
805.0064572453068
 20
50.0
 10
806.4839189925215
 20
50.0
 10
807.6357064273107
 20
50.0
 10
808.4443596262304
 20
50.0
 10
808.8976202310809
 20
50.0
 10
808.9886172731208
 20
50.0
 10
808.7159713299502
 20
50.0
 10
808.0838154361477
 20
50.0
 10
807.1017324306789
 20
50.0
 10
805.7846096908265
 20
50.0
 10
804.1524134547258
 20
50.0
 10
802.2298861535467
 20
50.0
 10
800.0461713414586
 20
50.0
 10
797.6343719090565
 20
50.0
 10
795.0310482772828
 20
50.0
 10
792.275664178713
 20
50.0
 10
789.4099884275977
 20
50.0
 10
786.4774617472146
 20
50.0
 10
783.5225382527854
 20
50.0
 10
780.5900115724023
 20
50.0
 10
777.7243358212869
 20
50.0
 10
774.9689517227172
 20
50.0
 10
772.3656280909435
 20
50.0
 10
769.9538286585414
 20
50.0
 10
767.7701138464533
 20
50.0
 10
765.8475865452742
 20
50.0
 10
764.2153903091735
 20
50.0
 10
762.8982675693211
 20
50.0
 10
761.9161845638523
 20
50.0
 10
761.2840286700498
 20
50.0
 10
761.0113827268792
 20
50.0
 10
761.1023797689191
 20
50.0
 10
761.5556403737696
 20
50.0
 10
762.3642935726893
 20
50.0
 10
763.5160810074785
 20
50.0
 10
764.9935427546932
 20
50.0
 10
766.774282000287
 20
50.0
 10
768.8313045524826
 20
50.0
 10
771.133428046202
 20
50.0
 10
773.6457546359358
 20
50.0
 10
776.3302000115083
 20
50.0
 10
779.146070717399
 20
50.0
 10
782.0506810240469
 20
50.0
 10
785.0
 20
50.0
  0
LWPOLYLINE
  5
115
330
17
100
AcDbEntity
  8
RIGHT
100
AcDbPolyline
 90
37
 70
0
 10
785.0
 20
32.0
 10
787.9520190203378
 20
32.0
 10
790.8143424365363
 20
32.0
 10
793.5
 20
32.0
 10
795.9273893646712
 20
32.0
 10
798.0227555330226
 20
32.0
 10
799.7224318643355
 20
32.0
 10
800.9747745533605
 20
32.0
 10
801.7417318012075
 20
32.0
 10
802.0
 20
32.0
 10
801.7417318012075
 20
32.0
 10
800.9747745533605
 20
32.0
 10
799.7224318643355
 20
32.0
 10
798.0227555330226
 20
32.0
 10
795.9273893646712
 20
32.0
 10
793.5
 20
32.0
 10
790.8143424365363
 20
32.0
 10
787.9520190203378
 20
32.0
 10
785.0
 20
32.0
 10
782.0479809796622
 20
32.0
 10
779.1856575634637
 20
32.0
 10
776.5
 20
32.0
 10
774.0726106353288
 20
32.0
 10
771.9772444669774
 20
32.0
 10
770.2775681356645
 20
32.0
 10
769.0252254466395
 20
32.0
 10
768.2582681987925
 20
32.0
 10
768.0
 20
32.0
 10
768.2582681987925
 20
32.0
 10
769.0252254466395
 20
32.0
 10
770.2775681356645
 20
32.0
 10
771.9772444669774
 20
32.0
 10
774.0726106353288
 20
32.0
 10
776.5
 20
32.0
 10
779.1856575634637
 20
32.0
 10
782.0479809796622
 20
32.0
 10
785.0
 20
32.0
  0
LWPOLYLINE
  5
116
330
17
100
AcDbEntity
  8
RIGHT
100
AcDbPolyline
 90
37
 70
0
 10
785.0
 20
50.0
 10
787.9520190203378
 20
50.0
 10
790.8143424365363
 20
50.0
 10
793.5
 20
50.0
 10
795.9273893646712
 20
50.0
 10
798.0227555330226
 20
50.0
 10
799.7224318643355
 20
50.0
 10
800.9747745533605
 20
50.0
 10
801.7417318012075
 20
50.0
 10
802.0
 20
50.0
 10
801.7417318012075
 20
50.0
 10
800.9747745533605
 20
50.0
 10
799.7224318643355
 20
50.0
 10
798.0227555330226
 20
50.0
 10
795.9273893646712
 20
50.0
 10
793.5
 20
50.0
 10
790.8143424365363
 20
50.0
 10
787.9520190203378
 20
50.0
 10
785.0
 20
50.0
 10
782.0479809796622
 20
50.0
 10
779.1856575634637
 20
50.0
 10
776.5
 20
50.0
 10
774.0726106353288
 20
50.0
 10
771.9772444669774
 20
50.0
 10
770.2775681356645
 20
50.0
 10
769.0252254466395
 20
50.0
 10
768.2582681987925
 20
50.0
 10
768.0
 20
50.0
 10
768.2582681987925
 20
50.0
 10
769.0252254466395
 20
50.0
 10
770.2775681356645
 20
50.0
 10
771.9772444669774
 20
50.0
 10
774.0726106353288
 20
50.0
 10
776.5
 20
50.0
 10
779.1856575634637
 20
50.0
 10
782.0479809796622
 20
50.0
 10
785.0
 20
50.0
  0
LWPOLYLINE
  5
117
330
17
100
AcDbEntity
  8
RIGHT
100
AcDbPolyline
 90
2
 70
0
 10
785.0
 20
32.0
 10
785.0
 20
50.0
  0
LWPOLYLINE
  5
118
330
17
100
AcDbEntity
  8
RIGHT
100
AcDbPolyline
 90
2
 70
0
 10
785.0
 20
34.0
 10
785.0
 20
134.0
  0
LWPOLYLINE
  5
119
330
17
100
AcDbEntity
  8
RIGHT
100
AcDbPolyline
 90
35
 70
0
 10
785.0
 20
34.0
 10
787.9399922850652
 20
34.0
 10
790.7798666589945
 20
34.0
 10
793.4229146060377
 20
34.0
 10
795.779130298345
 20
34.0
 10
797.7682756364838
 20
34.0
 10
799.322612661681
 20
34.0
 10
800.389210290765
 20
34.0
 10
800.9317468207205
 20
34.0
 10
800.9317468207206
 20
34.0
 10
800.389210290765
 20
34.0
 10
799.322612661681
 20
34.0
 10
797.7682756364838
 20
34.0
 10
795.779130298345
 20
34.0
 10
793.4229146060377
 20
34.0
 10
790.7798666589945
 20
34.0
 10
787.9399922850652
 20
34.0
 10
785.0
 20
34.0
 10
782.0600077149348
 20
34.0
 10
779.2201333410055
 20
34.0
 10
776.5770853939623
 20
34.0
 10
774.220869701655
 20
34.0
 10
772.2317243635162
 20
34.0
 10
770.677387338319
 20
34.0
 10
769.610789709235
 20
34.0
 10
769.0682531792794
 20
34.0
 10
769.0682531792794
 20
34.0
 10
769.610789709235
 20
34.0
 10
770.677387338319
 20
34.0
 10
772.2317243635162
 20
34.0
 10
774.220869701655
 20
34.0
 10
776.5770853939623
 20
34.0
 10
779.2201333410055
 20
34.0
 10
782.0600077149348
 20
34.0
 10
785.0
 20
34.0
  0
LWPOLYLINE
  5
11A
330
17
100
AcDbEntity
  8
RIGHT
100
AcDbPolyline
 90
35
 70
0
 10
785.0
 20
134.0
 10
787.9399922850652
 20
134.0
 10
790.7798666589945
 20
134.0
 10
793.4229146060377
 20
134.0
 10
795.779130298345
 20
134.0
 10
797.7682756364838
 20
134.0
 10
799.322612661681
 20
134.0
 10
800.389210290765
 20
134.0
 10
800.9317468207205
 20
134.0
 10
800.9317468207206
 20
134.0
 10
800.389210290765
 20
134.0
 10
799.322612661681
 20
134.0
 10
797.7682756364838
 20
134.0
 10
795.779130298345
 20
134.0
 10
793.4229146060377
 20
134.0
 10
790.7798666589945
 20
134.0
 10
787.9399922850652
 20
134.0
 10
785.0
 20
134.0
 10
782.0600077149348
 20
134.0
 10
779.2201333410055
 20
134.0
 10
776.5770853939623
 20
134.0
 10
774.220869701655
 20
134.0
 10
772.2317243635162
 20
134.0
 10
770.677387338319
 20
134.0
 10
769.610789709235
 20
134.0
 10
769.0682531792794
 20
134.0
 10
769.0682531792794
 20
134.0
 10
769.610789709235
 20
134.0
 10
770.677387338319
 20
134.0
 10
772.2317243635162
 20
134.0
 10
774.220869701655
 20
134.0
 10
776.5770853939623
 20
134.0
 10
779.2201333410055
 20
134.0
 10
782.0600077149348
 20
134.0
 10
785.0
 20
134.0
  0
LWPOLYLINE
  5
11B
330
17
100
AcDbEntity
  8
RIGHT
100
AcDbPolyline
 90
2
 70
0
 10
750.0
 20
20.0
 10
750.0
 20
30.0
  0
LWPOLYLINE
  5
11C
330
17
100
AcDbEntity
  8
RIGHT
100
AcDbPolyline
 90
2
 70
0
 10
750.0
 20
30.0
 10
820.0
 20
30.0
  0
LWPOLYLINE
  5
11D
330
17
100
AcDbEntity
  8
RIGHT
100
AcDbPolyline
 90
2
 70
0
 10
820.0
 20
20.0
 10
820.0
 20
30.0
  0
LWPOLYLINE
  5
11E
330
17
100
AcDbEntity
  8
RIGHT
100
AcDbPolyline
 90
2
 70
0
 10
750.0
 20
20.0
 10
820.0
 20
20.0
  0
LWPOLYLINE
  5
11F
330
17
100
AcDbEntity
  8
RIGHT
100
AcDbPolyline
 90
2
 70
0
 10
750.0
 20
20.0
 10
750.0
 20
30.0
  0
LWPOLYLINE
  5
120
330
17
100
AcDbEntity
  8
RIGHT
100
AcDbPolyline
 90
2
 70
0
 10
750.0
 20
30.0
 10
820.0
 20
30.0
  0
LWPOLYLINE
  5
121
330
17
100
AcDbEntity
  8
RIGHT
100
AcDbPolyline
 90
16
 70
0
 10
785.0
 20
30.0
 10
783.6577690778498
 20
30.0
 10
782.5476220759246
 20
30.0
 10
781.8615134962259
 20
30.0
 10
781.7180777452847
 20
30.0
 10
782.1421161675114
 20
30.0
 10
783.0603086674348
 20
30.0
 10
784.3138914203014
 20
30.0
 10
785.6861085796986
 20
30.0
 10
786.9396913325652
 20
30.0
 10
787.8578838324886
 20
30.0
 10
788.2819222547153
 20
30.0
 10
788.138486503774
 20
30.0
 10
787.4523779240754
 20
30.0
 10
786.3422309221502
 20
30.0
 10
785.0
 20
30.0
  0
LWPOLYLINE
  5
122
330
17
100
AcDbEntity
  8
RIGHT
100
AcDbPolyline
 90
16
 70
0
 10
785.0
 20
30.0
 10
783.6577690778498
 20
30.0
 10
782.5476220759246
 20
30.0
 10
781.8615134962259
 20
30.0
 10
781.7180777452847
 20
30.0
 10
782.1421161675114
 20
30.0
 10
783.0603086674348
 20
30.0
 10
784.3138914203014
 20
30.0
 10
785.6861085796986
 20
30.0
 10
786.9396913325652
 20
30.0
 10
787.8578838324886
 20
30.0
 10
788.2819222547153
 20
30.0
 10
788.138486503774
 20
30.0
 10
787.4523779240754
 20
30.0
 10
786.3422309221502
 20
30.0
 10
785.0
 20
30.0
  0
LWPOLYLINE
  5
123
330
17
100
AcDbEntity
  8
RIGHT
100
AcDbPolyline
 90
2
 70
0
 10
820.0
 20
20.0
 10
820.0
 20
30.0
  0
LWPOLYLINE
  5
124
330
17
100
AcDbEntity
  8
RIGHT
100
AcDbPolyline
 90
2
 70
0
 10
750.0
 20
20.0
 10
820.0
 20
20.0
  0
LWPOLYLINE
  5
125
330
17
100
AcDbEntity
  8
RIGHT
100
AcDbPolyline
 90
16
 70
0
 10
785.0
 20
20.0
 10
783.6577690778498
 20
20.0
 10
782.5476220759246
 20
20.0
 10
781.8615134962259
 20
20.0
 10
781.7180777452847
 20
20.0
 10
782.1421161675114
 20
20.0
 10
783.0603086674348
 20
20.0
 10
784.3138914203014
 20
20.0
 10
785.6861085796986
 20
20.0
 10
786.9396913325652
 20
20.0
 10
787.8578838324886
 20
20.0
 10
788.2819222547153
 20
20.0
 10
788.138486503774
 20
20.0
 10
787.4523779240754
 20
20.0
 10
786.3422309221502
 20
20.0
 10
785.0
 20
20.0
  0
LWPOLYLINE
  5
126
330
17
100
AcDbEntity
  8
RIGHT
100
AcDbPolyline
 90
16
 70
0
 10
785.0
 20
20.0
 10
783.6577690778498
 20
20.0
 10
782.5476220759246
 20
20.0
 10
781.8615134962259
 20
20.0
 10
781.7180777452847
 20
20.0
 10
782.1421161675114
 20
20.0
 10
783.0603086674348
 20
20.0
 10
784.3138914203014
 20
20.0
 10
785.6861085796986
 20
20.0
 10
786.9396913325652
 20
20.0
 10
787.8578838324886
 20
20.0
 10
788.2819222547153
 20
20.0
 10
788.138486503774
 20
20.0
 10
787.4523779240754
 20
20.0
 10
786.3422309221502
 20
20.0
 10
785.0
 20
20.0
  0
LWPOLYLINE
  5
127
330
17
100
AcDbEntity
  8
RIGHT
100
AcDbPolyline
 90
2
 70
0
 10
785.0
 20
20.0
 10
785.0
 20
30.0
  0
LWPOLYLINE
  5
128
330
17
100
AcDbEntity
  8
RIGHT
100
AcDbPolyline
 90
2
 70
0
 10
785.0
 20
20.0
 10
785.0
 20
30.0
  0
LWPOLYLINE
  5
129
330
17
100
AcDbEntity
  8
RIGHT
100
AcDbPolyline
 90
2
 70
0
 10
785.0
 20
32.0
 10
785.0
 20
50.0
  0
LWPOLYLINE
  5
12A
330
17
100
AcDbEntity
  8
RIGHT
100
AcDbPolyline
 90
52
 70
0
 10
785.0
 20
32.0
 10
787.9493189759531
 20
32.0
 10
790.853929282601
 20
32.0
 10
793.6697999884917
 20
32.0
 10
796.3542453640642
 20
32.0
 10
798.866571953798
 20
32.0
 10
801.1686954475174
 20
32.0
 10
803.225717999713
 20
32.0
 10
805.0064572453068
 20
32.0
 10
806.4839189925215
 20
32.0
 10
807.6357064273107
 20
32.0
 10
808.4443596262304
 20
32.0
 10
808.8976202310809
 20
32.0
 10
808.9886172731208
 20
32.0
 10
808.7159713299502
 20
32.0
 10
808.0838154361477
 20
32.0
 10
807.1017324306789
 20
32.0
 10
805.7846096908265
 20
32.0
 10
804.1524134547258
 20
32.0
 10
802.2298861535467
 20
32.0
 10
800.0461713414586
 20
32.0
 10
797.6343719090565
 20
32.0
 10
795.0310482772828
 20
32.0
 10
792.275664178713
 20
32.0
 10
789.4099884275977
 20
32.0
 10
786.4774617472146
 20
32.0
 10
783.5225382527854
 20
32.0
 10
780.5900115724023
 20
32.0
 10
777.7243358212869
 20
32.0
 10
774.9689517227172
 20
32.0
 10
772.3656280909435
 20
32.0
 10
769.9538286585414
 20
32.0
 10
767.7701138464533
 20
32.0
 10
765.8475865452742
 20
32.0
 10
764.2153903091735
 20
32.0
 10
762.8982675693211
 20
32.0
 10
761.9161845638523
 20
32.0
 10
761.2840286700498
 20
32.0
 10
761.0113827268792
 20
32.0
 10
761.1023797689191
 20
32.0
 10
761.5556403737696
 20
32.0
 10
762.3642935726893
 20
32.0
 10
763.5160810074785
 20
32.0
 10
764.9935427546932
 20
32.0
 10
766.774282000287
 20
32.0
 10
768.8313045524826
 20
32.0
 10
771.133428046202
 20
32.0
 10
773.6457546359358
 20
32.0
 10
776.3302000115083
 20
32.0
 10
779.146070717399
 20
32.0
 10
782.0506810240469
 20
32.0
 10
785.0
 20
32.0
  0
LWPOLYLINE
  5
12B
330
17
100
AcDbEntity
  8
RIGHT
100
AcDbPolyline
 90
52
 70
0
 10
785.0
 20
50.0
 10
787.9493189759531
 20
50.0
 10
790.853929282601
 20
50.0
 10
793.6697999884917
 20
50.0
 10
796.3542453640642
 20
50.0
 10
798.866571953798
 20
50.0
 10
801.1686954475174
 20
50.0
 10
803.225717999713
 20
50.0
 10
805.0064572453068
 20
50.0
 10
806.4839189925215
 20
50.0
 10
807.6357064273107
 20
50.0
 10
808.4443596262304
 20
50.0
 10
808.8976202310809
 20
50.0
 10
808.9886172731208
 20
50.0
 10
808.7159713299502
 20
50.0
 10
808.0838154361477
 20
50.0
 10
807.1017324306789
 20
50.0
 10
805.7846096908265
 20
50.0
 10
804.1524134547258
 20
50.0
 10
802.2298861535467
 20
50.0
 10
800.0461713414586
 20
50.0
 10
797.6343719090565
 20
50.0
 10
795.0310482772828
 20
50.0
 10
792.275664178713
 20
50.0
 10
789.4099884275977
 20
50.0
 10
786.4774617472146
 20
50.0
 10
783.5225382527854
 20
50.0
 10
780.5900115724023
 20
50.0
 10
777.7243358212869
 20
50.0
 10
774.9689517227172
 20
50.0
 10
772.3656280909435
 20
50.0
 10
769.9538286585414
 20
50.0
 10
767.7701138464533
 20
50.0
 10
765.8475865452742
 20
50.0
 10
764.2153903091735
 20
50.0
 10
762.8982675693211
 20
50.0
 10
761.9161845638523
 20
50.0
 10
761.2840286700498
 20
50.0
 10
761.0113827268792
 20
50.0
 10
761.1023797689191
 20
50.0
 10
761.5556403737696
 20
50.0
 10
762.3642935726893
 20
50.0
 10
763.5160810074785
 20
50.0
 10
764.9935427546932
 20
50.0
 10
766.774282000287
 20
50.0
 10
768.8313045524826
 20
50.0
 10
771.133428046202
 20
50.0
 10
773.6457546359358
 20
50.0
 10
776.3302000115083
 20
50.0
 10
779.146070717399
 20
50.0
 10
782.0506810240469
 20
50.0
 10
785.0
 20
50.0
  0
LWPOLYLINE
  5
12C
330
17
100
AcDbEntity
  8
RIGHT
100
AcDbPolyline
 90
37
 70
0
 10
785.0
 20
32.0
 10
787.9520190203378
 20
32.0
 10
790.8143424365363
 20
32.0
 10
793.5
 20
32.0
 10
795.9273893646712
 20
32.0
 10
798.0227555330226
 20
32.0
 10
799.7224318643355
 20
32.0
 10
800.9747745533605
 20
32.0
 10
801.7417318012075
 20
32.0
 10
802.0
 20
32.0
 10
801.7417318012075
 20
32.0
 10
800.9747745533605
 20
32.0
 10
799.7224318643355
 20
32.0
 10
798.0227555330226
 20
32.0
 10
795.9273893646712
 20
32.0
 10
793.5
 20
32.0
 10
790.8143424365363
 20
32.0
 10
787.9520190203378
 20
32.0
 10
785.0
 20
32.0
 10
782.0479809796622
 20
32.0
 10
779.1856575634637
 20
32.0
 10
776.5
 20
32.0
 10
774.0726106353288
 20
32.0
 10
771.9772444669774
 20
32.0
 10
770.2775681356645
 20
32.0
 10
769.0252254466395
 20
32.0
 10
768.2582681987925
 20
32.0
 10
768.0
 20
32.0
 10
768.2582681987925
 20
32.0
 10
769.0252254466395
 20
32.0
 10
770.2775681356645
 20
32.0
 10
771.9772444669774
 20
32.0
 10
774.0726106353288
 20
32.0
 10
776.5
 20
32.0
 10
779.1856575634637
 20
32.0
 10
782.0479809796622
 20
32.0
 10
785.0
 20
32.0
  0
LWPOLYLINE
  5
12D
330
17
100
AcDbEntity
  8
RIGHT
100
AcDbPolyline
 90
37
 70
0
 10
785.0
 20
50.0
 10
787.9520190203378
 20
50.0
 10
790.8143424365363
 20
50.0
 10
793.5
 20
50.0
 10
795.9273893646712
 20
50.0
 10
798.0227555330226
 20
50.0
 10
799.7224318643355
 20
50.0
 10
800.9747745533605
 20
50.0
 10
801.7417318012075
 20
50.0
 10
802.0
 20
50.0
 10
801.7417318012075
 20
50.0
 10
800.9747745533605
 20
50.0
 10
799.7224318643355
 20
50.0
 10
798.0227555330226
 20
50.0
 10
795.9273893646712
 20
50.0
 10
793.5
 20
50.0
 10
790.8143424365363
 20
50.0
 10
787.9520190203378
 20
50.0
 10
785.0
 20
50.0
 10
782.0479809796622
 20
50.0
 10
779.1856575634637
 20
50.0
 10
776.5
 20
50.0
 10
774.0726106353288
 20
50.0
 10
771.9772444669774
 20
50.0
 10
770.2775681356645
 20
50.0
 10
769.0252254466395
 20
50.0
 10
768.2582681987925
 20
50.0
 10
768.0
 20
50.0
 10
768.2582681987925
 20
50.0
 10
769.0252254466395
 20
50.0
 10
770.2775681356645
 20
50.0
 10
771.9772444669774
 20
50.0
 10
774.0726106353288
 20
50.0
 10
776.5
 20
50.0
 10
779.1856575634637
 20
50.0
 10
782.0479809796622
 20
50.0
 10
785.0
 20
50.0
  0
LWPOLYLINE
  5
12E
330
17
100
AcDbEntity
  8
RIGHT
100
AcDbPolyline
 90
2
 70
0
 10
785.0
 20
32.0
 10
785.0
 20
50.0
  0
LWPOLYLINE
  5
12F
330
17
100
AcDbEntity
  8
RIGHT
100
AcDbPolyline
 90
2
 70
0
 10
785.0
 20
34.0
 10
785.0
 20
134.0
  0
LWPOLYLINE
  5
130
330
17
100
AcDbEntity
  8
RIGHT
100
AcDbPolyline
 90
35
 70
0
 10
785.0
 20
34.0
 10
787.9399922850652
 20
34.0
 10
790.7798666589945
 20
34.0
 10
793.4229146060377
 20
34.0
 10
795.779130298345
 20
34.0
 10
797.7682756364838
 20
34.0
 10
799.322612661681
 20
34.0
 10
800.389210290765
 20
34.0
 10
800.9317468207205
 20
34.0
 10
800.9317468207206
 20
34.0
 10
800.389210290765
 20
34.0
 10
799.322612661681
 20
34.0
 10
797.7682756364838
 20
34.0
 10
795.779130298345
 20
34.0
 10
793.4229146060377
 20
34.0
 10
790.7798666589945
 20
34.0
 10
787.9399922850652
 20
34.0
 10
785.0
 20
34.0
 10
782.0600077149348
 20
34.0
 10
779.2201333410055
 20
34.0
 10
776.5770853939623
 20
34.0
 10
774.220869701655
 20
34.0
 10
772.2317243635162
 20
34.0
 10
770.677387338319
 20
34.0
 10
769.610789709235
 20
34.0
 10
769.0682531792794
 20
34.0
 10
769.0682531792794
 20
34.0
 10
769.610789709235
 20
34.0
 10
770.677387338319
 20
34.0
 10
772.2317243635162
 20
34.0
 10
774.220869701655
 20
34.0
 10
776.5770853939623
 20
34.0
 10
779.2201333410055
 20
34.0
 10
782.0600077149348
 20
34.0
 10
785.0
 20
34.0
  0
LWPOLYLINE
  5
131
330
17
100
AcDbEntity
  8
RIGHT
100
AcDbPolyline
 90
35
 70
0
 10
785.0
 20
134.0
 10
787.9399922850652
 20
134.0
 10
790.7798666589945
 20
134.0
 10
793.4229146060377
 20
134.0
 10
795.779130298345
 20
134.0
 10
797.7682756364838
 20
134.0
 10
799.322612661681
 20
134.0
 10
800.389210290765
 20
134.0
 10
800.9317468207205
 20
134.0
 10
800.9317468207206
 20
134.0
 10
800.389210290765
 20
134.0
 10
799.322612661681
 20
134.0
 10
797.7682756364838
 20
134.0
 10
795.779130298345
 20
134.0
 10
793.4229146060377
 20
134.0
 10
790.7798666589945
 20
134.0
 10
787.9399922850652
 20
134.0
 10
785.0
 20
134.0
 10
782.0600077149348
 20
134.0
 10
779.2201333410055
 20
134.0
 10
776.5770853939623
 20
134.0
 10
774.220869701655
 20
134.0
 10
772.2317243635162
 20
134.0
 10
770.677387338319
 20
134.0
 10
769.610789709235
 20
134.0
 10
769.0682531792794
 20
134.0
 10
769.0682531792794
 20
134.0
 10
769.610789709235
 20
134.0
 10
770.677387338319
 20
134.0
 10
772.2317243635162
 20
134.0
 10
774.220869701655
 20
134.0
 10
776.5770853939623
 20
134.0
 10
779.2201333410055
 20
134.0
 10
782.0600077149348
 20
134.0
 10
785.0
 20
134.0
  0
LWPOLYLINE
  5
132
330
17
100
AcDbEntity
  8
RIGHT
100
AcDbPolyline
 90
2
 70
0
 10
884.0
 20
0.0
 10
884.0
 20
16.0
  0
LWPOLYLINE
  5
133
330
17
100
AcDbEntity
  8
RIGHT
100
AcDbPolyline
 90
2
 70
0
 10
884.0
 20
16.0
 10
906.0
 20
16.0
  0
LWPOLYLINE
  5
134
330
17
100
AcDbEntity
  8
RIGHT
100
AcDbPolyline
 90
2
 70
0
 10
906.0
 20
0.0
 10
906.0
 20
16.0
  0
LWPOLYLINE
  5
135
330
17
100
AcDbEntity
  8
RIGHT
100
AcDbPolyline
 90
2
 70
0
 10
884.0
 20
0.0
 10
906.0
 20
0.0
  0
LWPOLYLINE
  5
136
330
17
100
AcDbEntity
  8
RIGHT
100
AcDbPolyline
 90
2
 70
0
 10
884.0
 20
0.0
 10
884.0
 20
16.0
  0
LWPOLYLINE
  5
137
330
17
100
AcDbEntity
  8
RIGHT
100
AcDbPolyline
 90
2
 70
0
 10
884.0
 20
16.0
 10
906.0
 20
16.0
  0
LWPOLYLINE
  5
138
330
17
100
AcDbEntity
  8
RIGHT
100
AcDbPolyline
 90
2
 70
0
 10
893.0
 20
16.0
 10
897.0
 20
16.0
  0
LWPOLYLINE
  5
139
330
17
100
AcDbEntity
  8
RIGHT
100
AcDbPolyline
 90
2
 70
0
 10
893.0
 20
16.0
 10
897.0
 20
16.0
  0
LWPOLYLINE
  5
13A
330
17
100
AcDbEntity
  8
RIGHT
100
AcDbPolyline
 90
2
 70
0
 10
906.0
 20
0.0
 10
906.0
 20
16.0
  0
LWPOLYLINE
  5
13B
330
17
100
AcDbEntity
  8
RIGHT
100
AcDbPolyline
 90
2
 70
0
 10
884.0
 20
0.0
 10
906.0
 20
0.0
  0
LWPOLYLINE
  5
13C
330
17
100
AcDbEntity
  8
RIGHT
100
AcDbPolyline
 90
2
 70
0
 10
893.0
 20
4.0
 10
893.0
 20
16.0
  0
LWPOLYLINE
  5
13D
330
17
100
AcDbEntity
  8
RIGHT
100
AcDbPolyline
 90
2
 70
0
 10
893.0
 20
4.0
 10
893.0
 20
16.0
  0
LWPOLYLINE
  5
13E
330
17
100
AcDbEntity
  8
RIGHT
100
AcDbPolyline
 90
2
 70
0
 10
897.0
 20
4.0
 10
897.0
 20
16.0
  0
LWPOLYLINE
  5
13F
330
17
100
AcDbEntity
  8
RIGHT
100
AcDbPolyline
 90
2
 70
0
 10
893.0
 20
4.0
 10
897.0
 20
4.0
  0
LWPOLYLINE
  5
140
330
17
100
AcDbEntity
  8
RIGHT
100
AcDbPolyline
 90
2
 70
0
 10
897.0
 20
4.0
 10
897.0
 20
16.0
  0
LWPOLYLINE
  5
141
330
17
100
AcDbEntity
  8
RIGHT
100
AcDbPolyline
 90
2
 70
0
 10
893.0
 20
4.0
 10
897.0
 20
4.0
  0
DIMENSION
  5
142
330
17
100
AcDbEntity
  8
DIMENSIONS
100
AcDbDimension
280
0
  2
*D5
  3
Standard
 10
750.0
 20
-35.0
 30
0.0
 11
828.0
 21
-35.0
 31
0.0
 70
32
 71
5
  1
<>
100
AcDbAlignedDimension
 13
750.0
 23
0.0
 33
0.0
 14
906.0
 24
0.0
 34
0.0
 50
0.0
100
AcDbRotatedDimension
1001
ACAD
1000
DSTYLE
1002
{
1070
140
1040
4.615384615384615
1070
41
1040
3.3333333333333335
1070
176
1070
7
1070
177
1070
7
1070
178
1070
7
1070
271
1070
2
1002
}
  0
DIMENSION
  5
152
330
17
100
AcDbEntity
  8
DIMENSIONS
100
AcDbDimension
280
0
  2
*D6
  3
Standard
 10
715.0
 20
0.0
 30
0.0
 11
715.0
 21
67.0
 31
0.0
 70
32
 71
5
  1
<>
100
AcDbAlignedDimension
 13
750.0
 23
0.0
 33
0.0
 14
750.0
 24
134.0
 34
0.0
 50
90.0
100
AcDbRotatedDimension
1001
ACAD
1000
DSTYLE
1002
{
1070
140
1040
4.615384615384615
1070
41
1040
3.3333333333333335
1070
176
1070
7
1070
177
1070
7
1070
178
1070
7
1070
271
1070
2
1002
}
  0
TEXT
  5
162
330
17
100
AcDbEntity
  8
NOTES
100
AcDbText
 10
750.0
 20
154.0
 30
0.0
 40
6.0
  1
RIGHT
100
AcDbText
  0
TEXT
  5
163
330
17
100
AcDbEntity
  8
NOTES
100
AcDbText
 10
0.0
 20
-384.0
 30
0.0
 40
4.0
  1
Datum: right-handed assembly-local X/Y/Z; plan XY, front XZ, right YZ. Overall dimensions derive from exact BRep.
100
AcDbText
  0
TEXT
  5
164
330
17
100
AcDbEntity
  8
NOTES
100
AcDbText
 10
0.0
 20
-393.0
 30
0.0
 40
4.0
  1
Curved drawing edges are sampled; wireframe includes hidden/back edges. STEP is the geometry authority; DXF units mm.
100
AcDbText
  0
TEXT
  5
165
330
17
100
AcDbEntity
  8
NOTES
100
AcDbText
 10
0.0
 20
-402.0
 30
0.0
 40
4.0
  1
Source-tagged Pi features and battery/panel/converter/MPPT overall sizes are verified references; other geometry is provisional.
100
AcDbText
  0
TEXT
  5
166
330
17
100
AcDbEntity
  8
NOTES
100
AcDbText
 10
0.0
 20
-411.0
 30
0.0
 40
4.0
  1
Default machining allowance +/-0.30 mm; clamp bore +/-0.20 mm; envelope dia +/-0.50 mm: assumptions, not release tolerances.
100
AcDbText
  0
TEXT
  5
167
330
17
100
AcDbEntity
  8
NOTES
100
AcDbText
 10
0.0
 20
-420.0
 30
0.0
 40
4.0
  1
Metal parts: deburr/passivate or isolate/anodize per material record; fastener torque, coating, corrosion and loads remain open.
100
AcDbText
  0
TEXT
  5
168
330
17
100
AcDbEntity
  8
NOTES
100
AcDbText
 10
0.0
 20
-429.0
 30
0.0
 40
4.0
  1
No pressure containment, rating, calibration, safe working load or fabrication release. See manifest.json part/BOM/feature notes.
100
AcDbText
  0
ENDSEC
  0
SECTION
  2
OBJECTS
  0
DICTIONARY
  5
A
330
0
100
AcDbDictionary
281
1
  3
ACAD_COLOR
350
B
  3
ACAD_GROUP
350
C
  3
ACAD_LAYOUT
350
D
  3
ACAD_MATERIAL
350
E
  3
ACAD_MLEADERSTYLE
350
F
  3
ACAD_MLINESTYLE
350
10
  3
ACAD_PLOTSETTINGS
350
11
  3
ACAD_PLOTSTYLENAME
350
12
  3
ACAD_SCALELIST
350
14
  3
ACAD_TABLESTYLE
350
15
  3
ACAD_VISUALSTYLE
350
16
  3
EZDXF_META
350
2D
  0
DICTIONARY
  5
B
330
A
100
AcDbDictionary
281
1
  0
DICTIONARY
  5
C
330
A
100
AcDbDictionary
281
1
  0
DICTIONARY
  5
D
330
A
100
AcDbDictionary
281
1
  3
Model
350
1A
  3
Layout1
350
1E
  0
DICTIONARY
  5
E
330
A
100
AcDbDictionary
281
1
  3
ByBlock
350
1F
  3
ByLayer
350
20
  3
Global
350
21
  0
DICTIONARY
  5
F
330
A
100
AcDbDictionary
281
1
  3
Standard
350
2C
  0
DICTIONARY
  5
10
330
A
100
AcDbDictionary
281
1
  3
Standard
350
22
  0
DICTIONARY
  5
11
330
A
100
AcDbDictionary
281
1
  0
ACDBDICTIONARYWDFLT
  5
12
330
A
100
AcDbDictionary
281
1
  3
Normal
350
13
100
AcDbDictionaryWithDefault
340
13
  0
ACDBPLACEHOLDER
  5
13
330
12
  0
DICTIONARY
  5
14
330
A
100
AcDbDictionary
281
1
  0
DICTIONARY
  5
15
330
A
100
AcDbDictionary
281
1
  0
DICTIONARY
  5
16
330
A
100
AcDbDictionary
281
1
  0
LAYOUT
  5
1A
330
D
100
AcDbPlotSettings
  1

  4
A3
  6

 40
7.5
 41
20.0
 42
7.5
 43
20.0
 44
420.0
 45
297.0
 46
0.0
 47
0.0
 48
0.0
 49
0.0
140
0.0
141
0.0
142
1.0
143
1.0
 70
1024
 72
1
 73
0
 74
5
  7

 75
16
 76
0
 77
2
 78
300
147
1.0
148
0.0
149
0.0
100
AcDbLayout
  1
Model
 70
1
 71
0
 10
0.0
 20
0.0
 11
420.0
 21
297.0
 12
0.0
 22
0.0
 32
0.0
 14
1e+20
 24
1e+20
 34
1e+20
 15
-1e+20
 25
-1e+20
 35
-1e+20
146
0.0
 13
0.0
 23
0.0
 33
0.0
 16
1.0
 26
0.0
 36
0.0
 17
0.0
 27
1.0
 37
0.0
 76
1
330
17
  0
LAYOUT
  5
1E
330
D
100
AcDbPlotSettings
  1

  4
A3
  6

 40
7.5
 41
20.0
 42
7.5
 43
20.0
 44
420.0
 45
297.0
 46
0.0
 47
0.0
 48
0.0
 49
0.0
140
0.0
141
0.0
142
1.0
143
1.0
 70
0
 72
1
 73
0
 74
5
  7

 75
16
 76
0
 77
2
 78
300
147
1.0
148
0.0
149
0.0
100
AcDbLayout
  1
Layout1
 70
1
 71
1
 10
0.0
 20
0.0
 11
420.0
 21
297.0
 12
0.0
 22
0.0
 32
0.0
 14
1e+20
 24
1e+20
 34
1e+20
 15
-1e+20
 25
-1e+20
 35
-1e+20
146
0.0
 13
0.0
 23
0.0
 33
0.0
 16
1.0
 26
0.0
 36
0.0
 17
0.0
 27
1.0
 37
0.0
 76
1
330
1B
  0
MATERIAL
  5
1F
102
{ACAD_REACTORS
330
E
102
}
330
E
100
AcDbMaterial
  1
ByBlock
  2

 70
0
 40
1.0
 71
1
 41
1.0
 91
-1023410177
 42
1.0
 72
1
  3

 73
1
 74
1
 75
1
 44
0.5
 73
0
 45
1.0
 46
1.0
 77
1
  4

 78
1
 79
1
170
1
 48
1.0
171
1
  6

172
1
173
1
174
1
140
1.0
141
1.0
175
1
  7

176
1
177
1
178
1
143
1.0
179
1
  8

270
1
271
1
272
1
145
1.0
146
1.0
273
1
  9

274
1
275
1
276
1
 42
1.0
 72
1
  3

 73
1
 74
1
 75
1
 94
63
  0
MATERIAL
  5
20
102
{ACAD_REACTORS
330
E
102
}
330
E
100
AcDbMaterial
  1
ByLayer
  2

 70
0
 40
1.0
 71
1
 41
1.0
 91
-1023410177
 42
1.0
 72
1
  3

 73
1
 74
1
 75
1
 44
0.5
 73
0
 45
1.0
 46
1.0
 77
1
  4

 78
1
 79
1
170
1
 48
1.0
171
1
  6

172
1
173
1
174
1
140
1.0
141
1.0
175
1
  7

176
1
177
1
178
1
143
1.0
179
1
  8

270
1
271
1
272
1
145
1.0
146
1.0
273
1
  9

274
1
275
1
276
1
 42
1.0
 72
1
  3

 73
1
 74
1
 75
1
 94
63
  0
MATERIAL
  5
21
102
{ACAD_REACTORS
330
E
102
}
330
E
100
AcDbMaterial
  1
Global
  2

 70
0
 40
1.0
 71
1
 41
1.0
 91
-1023410177
 42
1.0
 72
1
  3

 73
1
 74
1
 75
1
 44
0.5
 73
0
 45
1.0
 46
1.0
 77
1
  4

 78
1
 79
1
170
1
 48
1.0
171
1
  6

172
1
173
1
174
1
140
1.0
141
1.0
175
1
  7

176
1
177
1
178
1
143
1.0
179
1
  8

270
1
271
1
272
1
145
1.0
146
1.0
273
1
  9

274
1
275
1
276
1
 42
1.0
 72
1
  3

 73
1
 74
1
 75
1
 94
63
  0
MLINESTYLE
  5
22
102
{ACAD_REACTORS
330
10
102
}
330
10
100
AcDbMlineStyle
  2
Standard
 70
0
  3

 62
256
 51
90.0
 52
90.0
 71
2
 49
0.5
 62
256
  6
BYLAYER
 49
-0.5
 62
256
  6
BYLAYER
  0
MLEADERSTYLE
  5
2C
102
{ACAD_REACTORS
330
F
102
}
330
F
100
AcDbMLeaderStyle
179
2
170
2
171
1
172
0
 90
2
 40
0.0
 41
0.0
173
1
 91
-1056964608
 92
-2
290
1
 42
2.0
291
1
 43
8.0
  3
Standard
 44
4.0
300

342
29
174
1
175
1
176
0
178
1
 93
-1056964608
 45
4.0
292
0
297
0
 46
4.0
 94
-1056964608
 47
1.0
 49
1.0
140
1.0
294
1
141
0.0
177
0
142
1.0
295
0
296
0
143
3.75
271
0
272
9
273
9
  0
DICTIONARY
  5
2D
330
A
100
AcDbDictionary
280
1
281
1
  3
CREATED_BY_EZDXF
350
2E
  3
WRITTEN_BY_EZDXF
350
16B
  0
DICTIONARYVAR
  5
2E
330
2D
100
DictionaryVariables
280
0
  1
1.4.3 @ 2026-09-27T12:03:31.218552+00:00
  0
DICTIONARYVAR
  5
16B
330
2D
100
DictionaryVariables
280
0
  1
1.4.3 @ 2026-09-27T12:03:31.240226+00:00
  0
ENDSEC
  0
EOF
