  0
SECTION
  2
HEADER
  9
$ACADVER
  1
AC1032
  9
$ACADMAINTVER
 90
4
  9
$DWGCODEPAGE
  3
ANSI_1252
  9
$LASTSAVEDBY
  1
ezdxf
  9
$REQUIREDVERSIONS
160
0
  9
$INSBASE
 10
0.0
 20
0.0
 30
0.0
  9
$EXTMIN
 10
1e+20
 20
1e+20
 30
1e+20
  9
$EXTMAX
 10
-1e+20
 20
-1e+20
 30
-1e+20
  9
$LIMMIN
 10
0.0
 20
0.0
  9
$LIMMAX
 10
420.0
 20
297.0
  9
$ORTHOMODE
 70
0
  9
$REGENMODE
 70
1
  9
$FILLMODE
 70
1
  9
$QTEXTMODE
 70
0
  9
$MIRRTEXT
 70
1
  9
$LTSCALE
 40
1.0
  9
$ATTMODE
 70
1
  9
$TEXTSIZE
 40
2.5
  9
$TRACEWID
 40
1.0
  9
$TEXTSTYLE
  7
Standard
  9
$CLAYER
  8
0
  9
$CELTYPE
  6
ByLayer
  9
$CECOLOR
 62
256
  9
$CELTSCALE
 40
1.0
  9
$DISPSILH
 70
0
  9
$DIMSCALE
 40
1.0
  9
$DIMASZ
 40
2.5
  9
$DIMEXO
 40
0.625
  9
$DIMDLI
 40
3.75
  9
$DIMRND
 40
0.0
  9
$DIMDLE
 40
0.0
  9
$DIMEXE
 40
1.25
  9
$DIMTP
 40
0.0
  9
$DIMTM
 40
0.0
  9
$DIMTXT
 40
2.5
  9
$DIMCEN
 40
2.5
  9
$DIMTSZ
 40
0.0
  9
$DIMTOL
 70
0
  9
$DIMLIM
 70
0
  9
$DIMTIH
 70
0
  9
$DIMTOH
 70
0
  9
$DIMSE1
 70
0
  9
$DIMSE2
 70
0
  9
$DIMTAD
 70
1
  9
$DIMZIN
 70
8
  9
$DIMBLK
  1

  9
$DIMASO
 70
1
  9
$DIMSHO
 70
1
  9
$DIMPOST
  1

  9
$DIMAPOST
  1

  9
$DIMALT
 70
0
  9
$DIMALTD
 70
3
  9
$DIMALTF
 40
0.03937007874
  9
$DIMLFAC
 40
1.0
  9
$DIMTOFL
 70
1
  9
$DIMTVP
 40
0.0
  9
$DIMTIX
 70
0
  9
$DIMSOXD
 70
0
  9
$DIMSAH
 70
0
  9
$DIMBLK1
  1

  9
$DIMBLK2
  1

  9
$DIMSTYLE
  2
ISO-25
  9
$DIMCLRD
 70
0
  9
$DIMCLRE
 70
0
  9
$DIMCLRT
 70
0
  9
$DIMTFAC
 40
1.0
  9
$DIMGAP
 40
0.625
  9
$DIMJUST
 70
0
  9
$DIMSD1
 70
0
  9
$DIMSD2
 70
0
  9
$DIMTOLJ
 70
0
  9
$DIMTZIN
 70
8
  9
$DIMALTZ
 70
0
  9
$DIMALTTZ
 70
0
  9
$DIMUPT
 70
0
  9
$DIMDEC
 70
2
  9
$DIMTDEC
 70
2
  9
$DIMALTU
 70
2
  9
$DIMALTTD
 70
3
  9
$DIMTXSTY
  7
Standard
  9
$DIMAUNIT
 70
0
  9
$DIMADEC
 70
0
  9
$DIMALTRND
 40
0.0
  9
$DIMAZIN
 70
0
  9
$DIMDSEP
 70
44
  9
$DIMATFIT
 70
3
  9
$DIMFRAC
 70
0
  9
$DIMLDRBLK
  1

  9
$DIMLUNIT
 70
2
  9
$DIMLWD
 70
-2
  9
$DIMLWE
 70
-2
  9
$DIMTMOVE
 70
0
  9
$DIMFXL
 40
1.0
  9
$DIMFXLON
 70
0
  9
$DIMJOGANG
 40
0.785398163397
  9
$DIMTFILL
 70
0
  9
$DIMTFILLCLR
 70
0
  9
$DIMARCSYM
 70
0
  9
$DIMLTYPE
  6

  9
$DIMLTEX1
  6

  9
$DIMLTEX2
  6

  9
$DIMTXTDIRECTION
 70
0
  9
$LUNITS
 70
2
  9
$LUPREC
 70
4
  9
$SKETCHINC
 40
1.0
  9
$FILLETRAD
 40
10.0
  9
$AUNITS
 70
0
  9
$AUPREC
 70
2
  9
$MENU
  1
.
  9
$ELEVATION
 40
0.0
  9
$PELEVATION
 40
0.0
  9
$THICKNESS
 40
0.0
  9
$LIMCHECK
 70
0
  9
$CHAMFERA
 40
0.0
  9
$CHAMFERB
 40
0.0
  9
$CHAMFERC
 40
0.0
  9
$CHAMFERD
 40
0.0
  9
$SKPOLY
 70
0
  9
$TDCREATE
 40
2461311.585763889
  9
$TDUCREATE
 40
2458532.153996898
  9
$TDUPDATE
 40
2461311.585763889
  9
$TDUUPDATE
 40
2458532.1544311
  9
$TDINDWG
 40
0.0
  9
$TDUSRTIMER
 40
0.0
  9
$USRTIMER
 70
1
  9
$ANGBASE
 50
0.0
  9
$ANGDIR
 70
0
  9
$PDMODE
 70
0
  9
$PDSIZE
 40
0.0
  9
$PLINEWID
 40
0.0
  9
$SPLFRAME
 70
0
  9
$SPLINETYPE
 70
6
  9
$SPLINESEGS
 70
8
  9
$HANDSEED
  5
1F0
  9
$SURFTAB1
 70
6
  9
$SURFTAB2
 70
6
  9
$SURFTYPE
 70
6
  9
$SURFU
 70
6
  9
$SURFV
 70
6
  9
$UCSBASE
  2

  9
$UCSNAME
  2

  9
$UCSORG
 10
0.0
 20
0.0
 30
0.0
  9
$UCSXDIR
 10
1.0
 20
0.0
 30
0.0
  9
$UCSYDIR
 10
0.0
 20
1.0
 30
0.0
  9
$UCSORTHOREF
  2

  9
$UCSORTHOVIEW
 70
0
  9
$UCSORGTOP
 10
0.0
 20
0.0
 30
0.0
  9
$UCSORGBOTTOM
 10
0.0
 20
0.0
 30
0.0
  9
$UCSORGLEFT
 10
0.0
 20
0.0
 30
0.0
  9
$UCSORGRIGHT
 10
0.0
 20
0.0
 30
0.0
  9
$UCSORGFRONT
 10
0.0
 20
0.0
 30
0.0
  9
$UCSORGBACK
 10
0.0
 20
0.0
 30
0.0
  9
$PUCSBASE
  2

  9
$PUCSNAME
  2

  9
$PUCSORG
 10
0.0
 20
0.0
 30
0.0
  9
$PUCSXDIR
 10
1.0
 20
0.0
 30
0.0
  9
$PUCSYDIR
 10
0.0
 20
1.0
 30
0.0
  9
$PUCSORTHOREF
  2

  9
$PUCSORTHOVIEW
 70
0
  9
$PUCSORGTOP
 10
0.0
 20
0.0
 30
0.0
  9
$PUCSORGBOTTOM
 10
0.0
 20
0.0
 30
0.0
  9
$PUCSORGLEFT
 10
0.0
 20
0.0
 30
0.0
  9
$PUCSORGRIGHT
 10
0.0
 20
0.0
 30
0.0
  9
$PUCSORGFRONT
 10
0.0
 20
0.0
 30
0.0
  9
$PUCSORGBACK
 10
0.0
 20
0.0
 30
0.0
  9
$USERI1
 70
0
  9
$USERI2
 70
0
  9
$USERI3
 70
0
  9
$USERI4
 70
0
  9
$USERI5
 70
0
  9
$USERR1
 40
0.0
  9
$USERR2
 40
0.0
  9
$USERR3
 40
0.0
  9
$USERR4
 40
0.0
  9
$USERR5
 40
0.0
  9
$WORLDVIEW
 70
1
  9
$SHADEDGE
 70
3
  9
$SHADEDIF
 70
70
  9
$TILEMODE
 70
1
  9
$MAXACTVP
 70
64
  9
$PINSBASE
 10
0.0
 20
0.0
 30
0.0
  9
$PLIMCHECK
 70
0
  9
$PEXTMIN
 10
1e+20
 20
1e+20
 30
1e+20
  9
$PEXTMAX
 10
-1e+20
 20
-1e+20
 30
-1e+20
  9
$PLIMMIN
 10
0.0
 20
0.0
  9
$PLIMMAX
 10
420.0
 20
297.0
  9
$UNITMODE
 70
0
  9
$VISRETAIN
 70
1
  9
$PLINEGEN
 70
0
  9
$PSLTSCALE
 70
1
  9
$TREEDEPTH
 70
3020
  9
$CMLSTYLE
  2
Standard
  9
$CMLJUST
 70
0
  9
$CMLSCALE
 40
20.0
  9
$PROXYGRAPHICS
 70
1
  9
$MEASUREMENT
 70
1
  9
$CELWEIGHT
370
-1
  9
$ENDCAPS
280
0
  9
$JOINSTYLE
280
0
  9
$LWDISPLAY
290
0
  9
$INSUNITS
 70
4
  9
$HYPERLINKBASE
  1

  9
$STYLESHEET
  1

  9
$XEDIT
290
1
  9
$CEPSNTYPE
380
0
  9
$PSTYLEMODE
290
1
  9
$FINGERPRINTGUID
  2
{F0C84C7A-8703-4D98-BD93-64FC4A392239}
  9
$VERSIONGUID
  2
{C32D3676-9038-4A36-AE7C-EE8A60855122}
  9
$EXTNAMES
290
1
  9
$PSVPSCALE
 40
0.0
  9
$OLESTARTUP
290
0
  9
$SORTENTS
280
127
  9
$INDEXCTL
280
0
  9
$HIDETEXT
280
1
  9
$XCLIPFRAME
280
1
  9
$HALOGAP
280
0
  9
$OBSCOLOR
 70
257
  9
$OBSLTYPE
280
0
  9
$INTERSECTIONDISPLAY
280
0
  9
$INTERSECTIONCOLOR
 70
257
  9
$DIMASSOC
280
2
  9
$PROJECTNAME
  1

  9
$CAMERADISPLAY
290
0
  9
$LENSLENGTH
 40
50.0
  9
$CAMERAHEIGHT
 40
0.0
  9
$STEPSPERSEC
 40
24.0
  9
$STEPSIZE
 40
100.0
  9
$3DDWFPREC
 40
2.0
  9
$PSOLWIDTH
 40
0.005
  9
$PSOLHEIGHT
 40
0.08
  9
$LOFTANG1
 40
1.570796326795
  9
$LOFTANG2
 40
1.570796326795
  9
$LOFTMAG1
 40
0.0
  9
$LOFTMAG2
 40
0.0
  9
$LOFTPARAM
 70
7
  9
$LOFTNORMALS
280
1
  9
$LATITUDE
 40
37.795
  9
$LONGITUDE
 40
-122.394
  9
$NORTHDIRECTION
 40
0.0
  9
$TIMEZONE
 70
-8000
  9
$LIGHTGLYPHDISPLAY
280
1
  9
$TILEMODELIGHTSYNCH
280
1
  9
$CMATERIAL
347
20
  9
$SOLIDHIST
280
0
  9
$SHOWHIST
280
1
  9
$DWFFRAME
280
2
  9
$DGNFRAME
280
2
  9
$REALWORLDSCALE
290
1
  9
$INTERFERECOLOR
 62
256
  9
$CSHADOW
280
0
  9
$SHADOWPLANELOCATION
 40
0.0
  0
ENDSEC
  0
SECTION
  2
CLASSES
  0
CLASS
  1
ACDBDICTIONARYWDFLT
  2
AcDbDictionaryWithDefault
  3
ObjectDBX Classes
 90
0
 91
0
280
0
281
0
  0
CLASS
  1
SUN
  2
AcDbSun
  3
SCENEOE
 90
1153
 91
0
280
0
281
0
  0
CLASS
  1
VISUALSTYLE
  2
AcDbVisualStyle
  3
ObjectDBX Classes
 90
4095
 91
0
280
0
281
0
  0
CLASS
  1
MATERIAL
  2
AcDbMaterial
  3
ObjectDBX Classes
 90
1153
 91
0
280
0
281
0
  0
CLASS
  1
SCALE
  2
AcDbScale
  3
ObjectDBX Classes
 90
1153
 91
0
280
0
281
0
  0
CLASS
  1
TABLESTYLE
  2
AcDbTableStyle
  3
ObjectDBX Classes
 90
4095
 91
0
280
0
281
0
  0
CLASS
  1
MLEADERSTYLE
  2
AcDbMLeaderStyle
  3
ACDB_MLEADERSTYLE_CLASS
 90
4095
 91
0
280
0
281
0
  0
CLASS
  1
DICTIONARYVAR
  2
AcDbDictionaryVar
  3
ObjectDBX Classes
 90
0
 91
0
280
0
281
0
  0
CLASS
  1
CELLSTYLEMAP
  2
AcDbCellStyleMap
  3
ObjectDBX Classes
 90
1152
 91
0
280
0
281
0
  0
CLASS
  1
MENTALRAYRENDERSETTINGS
  2
AcDbMentalRayRenderSettings
  3
SCENEOE
 90
1024
 91
0
280
0
281
0
  0
CLASS
  1
ACDBDETAILVIEWSTYLE
  2
AcDbDetailViewStyle
  3
ObjectDBX Classes
 90
1025
 91
0
280
0
281
0
  0
CLASS
  1
ACDBSECTIONVIEWSTYLE
  2
AcDbSectionViewStyle
  3
ObjectDBX Classes
 90
1025
 91
0
280
0
281
0
  0
CLASS
  1
RASTERVARIABLES
  2
AcDbRasterVariables
  3
ISM
 90
0
 91
0
280
0
281
0
  0
CLASS
  1
LAYOUT
  2
AcDbLayout
  3
ObjectDBX Classes
 90
0
 91
0
280
0
281
0
  0
CLASS
  1
ACDBPLACEHOLDER
  2
AcDbPlaceHolder
  3
ObjectDBX Classes
 90
0
 91
0
280
0
281
0
  0
ENDSEC
  0
SECTION
  2
TABLES
  0
TABLE
  2
VPORT
  5
8
330
0
100
AcDbSymbolTable
 70
1
  0
VPORT
  5
23
330
8
100
AcDbSymbolTableRecord
100
AcDbViewportTableRecord
  2
*Active
 70
0
 10
0.0
 20
0.0
 11
1.0
 21
1.0
 12
0.0
 22
0.0
 13
0.0
 23
0.0
 14
0.5
 24
0.5
 15
0.5
 25
0.5
 16
0.0
 26
0.0
 36
1.0
 17
0.0
 27
0.0
 37
0.0
 40
1000.0
 41
1.34
 42
50.0
 43
0.0
 44
0.0
 50
0.0
 51
0.0
 71
0
 72
1000
 73
1
 74
3
 75
0
 76
0
 77
0
 78
0
281
0
 65
0
146
0.0
  0
ENDTAB
  0
TABLE
  2
LTYPE
  5
2
330
0
100
AcDbSymbolTable
 70
3
  0
LTYPE
  5
24
330
2
100
AcDbSymbolTableRecord
100
AcDbLinetypeTableRecord
  2
ByBlock
 70
0
  3

 72
65
 73
0
 40
0.0
  0
LTYPE
  5
25
330
2
100
AcDbSymbolTableRecord
100
AcDbLinetypeTableRecord
  2
ByLayer
 70
0
  3

 72
65
 73
0
 40
0.0
  0
LTYPE
  5
26
330
2
100
AcDbSymbolTableRecord
100
AcDbLinetypeTableRecord
  2
Continuous
 70
0
  3

 72
65
 73
0
 40
0.0
  0
ENDTAB
  0
TABLE
  2
LAYER
  5
1
330
0
100
AcDbSymbolTable
 70
7
  0
LAYER
  5
27
330
1
100
AcDbSymbolTableRecord
100
AcDbLayerTableRecord
  2
0
 70
0
 62
7
  6
Continuous
370
-3
390
13
347
21
  0
LAYER
  5
28
330
1
100
AcDbSymbolTableRecord
100
AcDbLayerTableRecord
  2
Defpoints
 70
0
 62
7
  6
Continuous
290
0
370
-3
390
13
347
21
  0
LAYER
  5
2F
330
1
100
AcDbSymbolTableRecord
100
AcDbLayerTableRecord
  2
TOP
 70
0
 62
7
  6
Continuous
370
-3
390
13
347
21
  0
LAYER
  5
30
330
1
100
AcDbSymbolTableRecord
100
AcDbLayerTableRecord
  2
FRONT
 70
0
 62
7
  6
Continuous
370
-3
390
13
347
21
  0
LAYER
  5
31
330
1
100
AcDbSymbolTableRecord
100
AcDbLayerTableRecord
  2
RIGHT
 70
0
 62
7
  6
Continuous
370
-3
390
13
347
21
  0
LAYER
  5
32
330
1
100
AcDbSymbolTableRecord
100
AcDbLayerTableRecord
  2
DIMENSIONS
 70
0
 62
7
  6
Continuous
370
-3
390
13
347
21
  0
LAYER
  5
33
330
1
100
AcDbSymbolTableRecord
100
AcDbLayerTableRecord
  2
NOTES
 70
0
 62
7
  6
Continuous
370
-3
390
13
347
21
  0
ENDTAB
  0
TABLE
  2
STYLE
  5
5
330
0
100
AcDbSymbolTable
 70
1
  0
STYLE
  5
29
330
5
100
AcDbSymbolTableRecord
100
AcDbTextStyleTableRecord
  2
Standard
 70
0
 40
0.0
 41
1.0
 50
0.0
 71
0
 42
2.5
  3
txt
  4

  0
ENDTAB
  0
TABLE
  2
VIEW
  5
7
330
0
100
AcDbSymbolTable
 70
0
  0
ENDTAB
  0
TABLE
  2
UCS
  5
6
330
0
100
AcDbSymbolTable
 70
0
  0
ENDTAB
  0
TABLE
  2
APPID
  5
3
330
0
100
AcDbSymbolTable
 70
3
  0
APPID
  5
2A
330
3
100
AcDbSymbolTableRecord
100
AcDbRegAppTableRecord
  2
ACAD
 70
0
  0
APPID
  5
1ED
330
3
100
AcDbSymbolTableRecord
100
AcDbRegAppTableRecord
  2
HATCHBACKGROUNDCOLOR
 70
0
  0
APPID
  5
1EE
330
3
100
AcDbSymbolTableRecord
100
AcDbRegAppTableRecord
  2
EZDXF
 70
0
  0
ENDTAB
  0
TABLE
  2
DIMSTYLE
  5
4
330
0
100
AcDbSymbolTable
 70
1
100
AcDbDimStyleTable
  0
DIMSTYLE
105
2B
330
4
100
AcDbSymbolTableRecord
100
AcDbDimStyleTableRecord
  2
Standard
 70
0
 40
1.0
 41
2.5
 42
0.625
 43
3.75
 44
1.25
 45
0.0
 46
0.0
 47
0.0
 48
0.0
 49
2.5
140
2.5
141
2.5
142
0.0
143
0.03937007874
144
1.0
145
0.0
146
1.0
147
0.625
148
0.0
 69
0
 70
0
 71
0
 72
0
 73
0
 74
0
 75
0
 76
0
 77
1
 78
8
 79
3
170
0
171
3
172
1
173
0
174
0
175
0
176
0
177
0
178
0
179
2
271
2
272
2
273
2
274
3
275
0
276
0
277
2
278
44
279
0
280
0
281
0
282
0
283
0
284
8
285
0
286
0
288
0
289
3
290
0
371
-2
372
-2
  0
ENDTAB
  0
TABLE
  2
BLOCK_RECORD
  5
9
330
0
100
AcDbSymbolTable
 70
9
  0
BLOCK_RECORD
  5
17
330
9
100
AcDbSymbolTableRecord
100
AcDbBlockTableRecord
  2
*Model_Space
340
1A
 70
0
280
1
281
0
  0
BLOCK_RECORD
  5
1B
330
9
100
AcDbSymbolTableRecord
100
AcDbBlockTableRecord
  2
*Paper_Space
340
1E
 70
0
280
1
281
0
  0
BLOCK_RECORD
  5
AC
330
9
100
AcDbSymbolTableRecord
100
AcDbBlockTableRecord
  2
*D1
340
0
 70
0
280
1
281
0
  0
BLOCK_RECORD
  5
B1
330
9
100
AcDbSymbolTableRecord
100
AcDbBlockTableRecord
  2
_CLOSEDFILLED
340
0
 70
0
280
1
281
0
  0
BLOCK_RECORD
  5
C0
330
9
100
AcDbSymbolTableRecord
100
AcDbBlockTableRecord
  2
*D2
340
0
 70
0
280
1
281
0
  0
BLOCK_RECORD
  5
137
330
9
100
AcDbSymbolTableRecord
100
AcDbBlockTableRecord
  2
*D3
340
0
 70
0
280
1
281
0
  0
BLOCK_RECORD
  5
147
330
9
100
AcDbSymbolTableRecord
100
AcDbBlockTableRecord
  2
*D4
340
0
 70
0
280
1
281
0
  0
BLOCK_RECORD
  5
1C7
330
9
100
AcDbSymbolTableRecord
100
AcDbBlockTableRecord
  2
*D5
340
0
 70
0
280
1
281
0
  0
BLOCK_RECORD
  5
1D7
330
9
100
AcDbSymbolTableRecord
100
AcDbBlockTableRecord
  2
*D6
340
0
 70
0
280
1
281
0
  0
ENDTAB
  0
ENDSEC
  0
SECTION
  2
BLOCKS
  0
BLOCK
  5
18
330
17
100
AcDbEntity
  8
0
100
AcDbBlockBegin
  2
*Model_Space
 70
0
 10
0.0
 20
0.0
 30
0.0
  3
*Model_Space
  1

  0
ENDBLK
  5
19
330
17
100
AcDbEntity
  8
0
100
AcDbBlockEnd
  0
BLOCK
  5
1C
330
1B
100
AcDbEntity
  8
0
100
AcDbBlockBegin
  2
*Paper_Space
 70
0
 10
0.0
 20
0.0
 30
0.0
  3
*Paper_Space
  1

  0
ENDBLK
  5
1D
330
1B
100
AcDbEntity
  8
0
100
AcDbBlockEnd
  0
BLOCK
  5
AD
330
AC
100
AcDbEntity
  8
0
100
AcDbBlockBegin
  2
*D1
 70
1
 10
0.0
 20
0.0
 30
0.0
  3
*D1
  1

  0
LINE
  5
AF
330
AC
100
AcDbEntity
  8
0
 62
7
100
AcDbLine
 10
0.0
 20
0.0
 30
0.0
 11
0.0
 21
-35.0
 31
0.0
  0
LINE
  5
B0
330
AC
100
AcDbEntity
  8
0
 62
7
100
AcDbLine
 10
180.0
 20
0.0
 30
0.0
 11
180.0
 21
-35.0
 31
0.0
  0
INSERT
  5
B5
330
AC
100
AcDbEntity
  8
DIMENSIONS
 62
7
100
AcDbBlockReference
  2
_CLOSEDFILLED
 10
0.0
 20
-35.0
 30
0.0
 41
2.5
 42
2.5
 50
180.0
  0
INSERT
  5
B7
330
AC
100
AcDbEntity
  8
DIMENSIONS
 62
7
100
AcDbBlockReference
  2
_CLOSEDFILLED
 10
180.0
 20
-35.0
 30
0.0
 41
2.5
 42
2.5
  0
LINE
  5
B9
330
AC
100
AcDbEntity
  8
0
 62
7
100
AcDbLine
 10
2.5
 20
-35.0
 30
0.0
 11
86.25
 21
-35.0
 31
0.0
  0
LINE
  5
BA
330
AC
100
AcDbEntity
  8
0
 62
7
100
AcDbLine
 10
93.75
 20
-35.0
 30
0.0
 11
177.5
 21
-35.0
 31
0.0
  0
MTEXT
  5
BB
330
AC
100
AcDbEntity
  8
DIMENSIONS
 62
7
100
AcDbMText
 10
90.0
 20
-35.0
 30
0.0
 40
2.5
 71
5
  1
180
  0
POINT
  5
BC
330
AC
100
AcDbEntity
  8
Defpoints
100
AcDbPoint
 10
0.0
 20
-35.0
 30
0.0
  0
POINT
  5
BD
330
AC
100
AcDbEntity
  8
Defpoints
100
AcDbPoint
 10
0.0
 20
0.0
 30
0.0
  0
POINT
  5
BE
330
AC
100
AcDbEntity
  8
Defpoints
100
AcDbPoint
 10
180.0
 20
0.0
 30
0.0
  0
ENDBLK
  5
AE
330
AC
100
AcDbEntity
  8
0
100
AcDbBlockEnd
  0
BLOCK
  5
B2
330
B1
100
AcDbEntity
  8
0
100
AcDbBlockBegin
  2
_CLOSEDFILLED
 70
0
 10
0.0
 20
0.0
 30
0.0
  3
_CLOSEDFILLED
  1

  0
SOLID
  5
B4
330
B1
100
AcDbEntity
  8
0
  6
BYBLOCK
 62
0
100
AcDbTrace
 10
-1.0
 20
0.16439898372402537
 30
0.0
 11
0.0
 21
0.0
 31
0.0
 12
-1.0
 22
-0.16439898372402537
 32
0.0
 13
-1.0
 23
-0.16439898372402537
 33
0.0
  0
ENDBLK
  5
B3
330
B1
100
AcDbEntity
  8
0
100
AcDbBlockEnd
  0
BLOCK
  5
C1
330
C0
100
AcDbEntity
  8
0
100
AcDbBlockBegin
  2
*D2
 70
1
 10
0.0
 20
0.0
 30
0.0
  3
*D2
  1

  0
LINE
  5
C3
330
C0
100
AcDbEntity
  8
0
 62
7
100
AcDbLine
 10
0.0
 20
0.0
 30
0.0
 11
-35.0
 21
0.0
 31
0.0
  0
LINE
  5
C4
330
C0
100
AcDbEntity
  8
0
 62
7
100
AcDbLine
 10
0.0
 20
300.0
 30
0.0
 11
-35.0
 21
300.0
 31
0.0
  0
INSERT
  5
C5
330
C0
100
AcDbEntity
  8
DIMENSIONS
 62
7
100
AcDbBlockReference
  2
_CLOSEDFILLED
 10
-35.0
 20
0.0
 30
0.0
 41
2.5
 42
2.5
 50
270.0
  0
INSERT
  5
C7
330
C0
100
AcDbEntity
  8
DIMENSIONS
 62
7
100
AcDbBlockReference
  2
_CLOSEDFILLED
 10
-35.0
 20
300.0
 30
0.0
 41
2.5
 42
2.5
 50
90.0
  0
LINE
  5
C9
330
C0
100
AcDbEntity
  8
0
 62
7
100
AcDbLine
 10
-35.0
 20
2.5
 30
0.0
 11
-35.0
 21
146.25
 31
0.0
  0
LINE
  5
CA
330
C0
100
AcDbEntity
  8
0
 62
7
100
AcDbLine
 10
-35.0
 20
153.75
 30
0.0
 11
-35.0
 21
297.5
 31
0.0
  0
MTEXT
  5
CB
330
C0
100
AcDbEntity
  8
DIMENSIONS
 62
7
100
AcDbMText
 10
-35.0
 20
150.0
 30
0.0
 40
2.5
 71
5
  1
300
 50
90.0
  0
POINT
  5
CC
330
C0
100
AcDbEntity
  8
Defpoints
100
AcDbPoint
 10
-35.0
 20
0.0
 30
0.0
  0
POINT
  5
CD
330
C0
100
AcDbEntity
  8
Defpoints
100
AcDbPoint
 10
0.0
 20
0.0
 30
0.0
  0
POINT
  5
CE
330
C0
100
AcDbEntity
  8
Defpoints
100
AcDbPoint
 10
0.0
 20
300.0
 30
0.0
  0
ENDBLK
  5
C2
330
C0
100
AcDbEntity
  8
0
100
AcDbBlockEnd
  0
BLOCK
  5
138
330
137
100
AcDbEntity
  8
0
100
AcDbBlockBegin
  2
*D3
 70
1
 10
0.0
 20
0.0
 30
0.0
  3
*D3
  1

  0
LINE
  5
13A
330
137
100
AcDbEntity
  8
0
 62
7
100
AcDbLine
 10
0.0
 20
-292.0
 30
0.0
 11
0.0
 21
-327.0
 31
0.0
  0
LINE
  5
13B
330
137
100
AcDbEntity
  8
0
 62
7
100
AcDbLine
 10
180.0
 20
-292.0
 30
0.0
 11
180.0
 21
-327.0
 31
0.0
  0
INSERT
  5
13C
330
137
100
AcDbEntity
  8
DIMENSIONS
 62
7
100
AcDbBlockReference
  2
_CLOSEDFILLED
 10
0.0
 20
-327.0
 30
0.0
 41
2.5
 42
2.5
 50
180.0
  0
INSERT
  5
13E
330
137
100
AcDbEntity
  8
DIMENSIONS
 62
7
100
AcDbBlockReference
  2
_CLOSEDFILLED
 10
180.0
 20
-327.0
 30
0.0
 41
2.5
 42
2.5
  0
LINE
  5
140
330
137
100
AcDbEntity
  8
0
 62
7
100
AcDbLine
 10
2.5
 20
-327.0
 30
0.0
 11
86.25
 21
-327.0
 31
0.0
  0
LINE
  5
141
330
137
100
AcDbEntity
  8
0
 62
7
100
AcDbLine
 10
93.75
 20
-327.0
 30
0.0
 11
177.5
 21
-327.0
 31
0.0
  0
MTEXT
  5
142
330
137
100
AcDbEntity
  8
DIMENSIONS
 62
7
100
AcDbMText
 10
90.0
 20
-327.0
 30
0.0
 40
2.5
 71
5
  1
180
  0
POINT
  5
143
330
137
100
AcDbEntity
  8
Defpoints
100
AcDbPoint
 10
0.0
 20
-327.0
 30
0.0
  0
POINT
  5
144
330
137
100
AcDbEntity
  8
Defpoints
100
AcDbPoint
 10
0.0
 20
-292.0
 30
0.0
  0
POINT
  5
145
330
137
100
AcDbEntity
  8
Defpoints
100
AcDbPoint
 10
180.0
 20
-292.0
 30
0.0
  0
ENDBLK
  5
139
330
137
100
AcDbEntity
  8
0
100
AcDbBlockEnd
  0
BLOCK
  5
148
330
147
100
AcDbEntity
  8
0
100
AcDbBlockBegin
  2
*D4
 70
1
 10
0.0
 20
0.0
 30
0.0
  3
*D4
  1

  0
LINE
  5
14A
330
147
100
AcDbEntity
  8
0
 62
7
100
AcDbLine
 10
0.0
 20
-292.0
 30
0.0
 11
-35.0
 21
-292.0
 31
0.0
  0
LINE
  5
14B
330
147
100
AcDbEntity
  8
0
 62
7
100
AcDbLine
 10
0.0
 20
-150.0
 30
0.0
 11
-35.0
 21
-150.0
 31
0.0
  0
INSERT
  5
14C
330
147
100
AcDbEntity
  8
DIMENSIONS
 62
7
100
AcDbBlockReference
  2
_CLOSEDFILLED
 10
-35.0
 20
-292.0
 30
0.0
 41
2.5
 42
2.5
 50
270.0
  0
INSERT
  5
14E
330
147
100
AcDbEntity
  8
DIMENSIONS
 62
7
100
AcDbBlockReference
  2
_CLOSEDFILLED
 10
-35.0
 20
-150.0
 30
0.0
 41
2.5
 42
2.5
 50
90.0
  0
LINE
  5
150
330
147
100
AcDbEntity
  8
0
 62
7
100
AcDbLine
 10
-35.0
 20
-289.5
 30
0.0
 11
-35.0
 21
-224.75
 31
0.0
  0
LINE
  5
151
330
147
100
AcDbEntity
  8
0
 62
7
100
AcDbLine
 10
-35.0
 20
-217.25
 30
0.0
 11
-35.0
 21
-152.5
 31
0.0
  0
MTEXT
  5
152
330
147
100
AcDbEntity
  8
DIMENSIONS
 62
7
100
AcDbMText
 10
-35.0
 20
-221.0
 30
0.0
 40
2.5
 71
5
  1
142
 50
90.0
  0
POINT
  5
153
330
147
100
AcDbEntity
  8
Defpoints
100
AcDbPoint
 10
-35.0
 20
-292.0
 30
0.0
  0
POINT
  5
154
330
147
100
AcDbEntity
  8
Defpoints
100
AcDbPoint
 10
0.0
 20
-292.0
 30
0.0
  0
POINT
  5
155
330
147
100
AcDbEntity
  8
Defpoints
100
AcDbPoint
 10
0.0
 20
-150.0
 30
0.0
  0
ENDBLK
  5
149
330
147
100
AcDbEntity
  8
0
100
AcDbBlockEnd
  0
BLOCK
  5
1C8
330
1C7
100
AcDbEntity
  8
0
100
AcDbBlockBegin
  2
*D5
 70
1
 10
0.0
 20
0.0
 30
0.0
  3
*D5
  1

  0
LINE
  5
1CA
330
1C7
100
AcDbEntity
  8
0
 62
7
100
AcDbLine
 10
330.0
 20
0.0
 30
0.0
 11
330.0
 21
-35.0
 31
0.0
  0
LINE
  5
1CB
330
1C7
100
AcDbEntity
  8
0
 62
7
100
AcDbLine
 10
630.0
 20
0.0
 30
0.0
 11
630.0
 21
-35.0
 31
0.0
  0
INSERT
  5
1CC
330
1C7
100
AcDbEntity
  8
DIMENSIONS
 62
7
100
AcDbBlockReference
  2
_CLOSEDFILLED
 10
330.0
 20
-35.0
 30
0.0
 41
2.5
 42
2.5
 50
180.0
  0
INSERT
  5
1CE
330
1C7
100
AcDbEntity
  8
DIMENSIONS
 62
7
100
AcDbBlockReference
  2
_CLOSEDFILLED
 10
630.0
 20
-35.0
 30
0.0
 41
2.5
 42
2.5
  0
LINE
  5
1D0
330
1C7
100
AcDbEntity
  8
0
 62
7
100
AcDbLine
 10
332.5
 20
-35.0
 30
0.0
 11
476.25
 21
-35.0
 31
0.0
  0
LINE
  5
1D1
330
1C7
100
AcDbEntity
  8
0
 62
7
100
AcDbLine
 10
483.75
 20
-35.0
 30
0.0
 11
627.5
 21
-35.0
 31
0.0
  0
MTEXT
  5
1D2
330
1C7
100
AcDbEntity
  8
DIMENSIONS
 62
7
100
AcDbMText
 10
480.0
 20
-35.0
 30
0.0
 40
2.5
 71
5
  1
300
  0
POINT
  5
1D3
330
1C7
100
AcDbEntity
  8
Defpoints
100
AcDbPoint
 10
330.0
 20
-35.0
 30
0.0
  0
POINT
  5
1D4
330
1C7
100
AcDbEntity
  8
Defpoints
100
AcDbPoint
 10
330.0
 20
0.0
 30
0.0
  0
POINT
  5
1D5
330
1C7
100
AcDbEntity
  8
Defpoints
100
AcDbPoint
 10
630.0
 20
0.0
 30
0.0
  0
ENDBLK
  5
1C9
330
1C7
100
AcDbEntity
  8
0
100
AcDbBlockEnd
  0
BLOCK
  5
1D8
330
1D7
100
AcDbEntity
  8
0
100
AcDbBlockBegin
  2
*D6
 70
1
 10
0.0
 20
0.0
 30
0.0
  3
*D6
  1

  0
LINE
  5
1DA
330
1D7
100
AcDbEntity
  8
0
 62
7
100
AcDbLine
 10
330.0
 20
0.0
 30
0.0
 11
295.0
 21
0.0
 31
0.0
  0
LINE
  5
1DB
330
1D7
100
AcDbEntity
  8
0
 62
7
100
AcDbLine
 10
330.0
 20
142.0
 30
0.0
 11
295.0
 21
142.0
 31
0.0
  0
INSERT
  5
1DC
330
1D7
100
AcDbEntity
  8
DIMENSIONS
 62
7
100
AcDbBlockReference
  2
_CLOSEDFILLED
 10
295.0
 20
0.0
 30
0.0
 41
2.5
 42
2.5
 50
270.0
  0
INSERT
  5
1DE
330
1D7
100
AcDbEntity
  8
DIMENSIONS
 62
7
100
AcDbBlockReference
  2
_CLOSEDFILLED
 10
295.0
 20
142.0
 30
0.0
 41
2.5
 42
2.5
 50
90.0
  0
LINE
  5
1E0
330
1D7
100
AcDbEntity
  8
0
 62
7
100
AcDbLine
 10
295.0
 20
2.5
 30
0.0
 11
295.0
 21
67.25
 31
0.0
  0
LINE
  5
1E1
330
1D7
100
AcDbEntity
  8
0
 62
7
100
AcDbLine
 10
295.0
 20
74.75
 30
0.0
 11
295.0
 21
139.5
 31
0.0
  0
MTEXT
  5
1E2
330
1D7
100
AcDbEntity
  8
DIMENSIONS
 62
7
100
AcDbMText
 10
295.0
 20
71.0
 30
0.0
 40
2.5
 71
5
  1
142
 50
90.0
  0
POINT
  5
1E3
330
1D7
100
AcDbEntity
  8
Defpoints
100
AcDbPoint
 10
295.0
 20
0.0
 30
0.0
  0
POINT
  5
1E4
330
1D7
100
AcDbEntity
  8
Defpoints
100
AcDbPoint
 10
330.0
 20
0.0
 30
0.0
  0
POINT
  5
1E5
330
1D7
100
AcDbEntity
  8
Defpoints
100
AcDbPoint
 10
330.0
 20
142.0
 30
0.0
  0
ENDBLK
  5
1D9
330
1D7
100
AcDbEntity
  8
0
100
AcDbBlockEnd
  0
ENDSEC
  0
SECTION
  2
ENTITIES
  0
LWPOLYLINE
  5
34
330
17
100
AcDbEntity
  8
TOP
100
AcDbPolyline
 90
2
 70
0
 10
120.0
 20
0.0
 10
120.0
 20
300.0
  0
LWPOLYLINE
  5
35
330
17
100
AcDbEntity
  8
TOP
100
AcDbPolyline
 90
64
 70
0
 10
120.0
 20
0.0
 10
119.85092326096205
 20
0.0
 10
119.40517463545632
 20
0.0
 10
118.66718417358422
 20
0.0
 10
117.64428635611223
 20
0.0
 10
116.34664720110686
 20
0.0
 10
114.78716322947984
 20
0.0
 10
112.98133329356935
 20
0.0
 10
110.9471045425822
 20
0.0
 10
108.704694055762
 20
0.0
 10
106.27638791597278
 20
0.0
 10
103.6863197205949
 20
0.0
 10
100.96023073099185
 20
0.0
 10
98.12521404429016
 20
0.0
 10
95.20944533000792
 20
0.0
 10
92.24190280759274
 20
0.0
 10
89.25207924785782
 20
0.0
 10
86.26968886057546
 20
0.0
 10
83.32437198131058
 20
0.0
 10
80.44540049244948
 20
0.0
 10
77.66138690608166
 20
0.0
 10
75.0
 20
0.0
 10
72.4876898329563
 20
0.0
 10
70.14942487209423
 20
0.0
 10
68.00844384510522
 20
0.0
 10
66.08602478331234
 20
0.0
 10
64.40127355103533
 20
0.0
 10
62.97093396292743
 20
0.0
 10
61.809221376422755
 20
0.0
 10
60.927681413127665
 20
0.0
 10
60.33507521324615
 20
0.0
 10
60.03729236343233
 20
0.0
 10
60.03729236343233
 20
0.0
 10
60.33507521324614
 20
0.0
 10
60.92768141312766
 20
0.0
 10
61.80922137642275
 20
0.0
 10
62.97093396292742
 20
0.0
 10
64.40127355103532
 20
0.0
 10
66.08602478331231
 20
0.0
 10
68.0084438451052
 20
0.0
 10
70.14942487209422
 20
0.0
 10
72.4876898329563
 20
0.0
 10
74.99999999999999
 20
0.0
 10
77.66138690608165
 20
0.0
 10
80.44540049244945
 20
0.0
 10
83.32437198131053
 20
0.0
 10
86.26968886057543
 20
0.0
 10
89.25207924785781
 20
0.0
 10
92.24190280759271
 20
0.0
 10
95.2094453300079
 20
0.0
 10
98.12521404429013
 20
0.0
 10
100.96023073099184
 20
0.0
 10
103.68631972059488
 20
0.0
 10
106.27638791597276
 20
0.0
 10
108.70469405576198
 20
0.0
 10
110.94710454258217
 20
0.0
 10
112.98133329356932
 20
0.0
 10
114.78716322947983
 20
0.0
 10
116.34664720110685
 20
0.0
 10
117.64428635611223
 20
0.0
 10
118.66718417358422
 20
0.0
 10
119.4051746354563
 20
0.0
 10
119.85092326096203
 20
0.0
 10
120.0
 20
0.0
  0
LWPOLYLINE
  5
36
330
17
100
AcDbEntity
  8
TOP
100
AcDbPolyline
 90
64
 70
0
 10
120.0
 20
300.0
 10
119.85092326096205
 20
300.0
 10
119.40517463545632
 20
300.0
 10
118.66718417358422
 20
300.0
 10
117.64428635611223
 20
300.0
 10
116.34664720110686
 20
300.0
 10
114.78716322947984
 20
300.0
 10
112.98133329356935
 20
300.0
 10
110.9471045425822
 20
300.0
 10
108.704694055762
 20
300.0
 10
106.27638791597278
 20
300.0
 10
103.6863197205949
 20
300.0
 10
100.96023073099185
 20
300.0
 10
98.12521404429016
 20
300.0
 10
95.20944533000792
 20
300.0
 10
92.24190280759274
 20
300.0
 10
89.25207924785782
 20
300.0
 10
86.26968886057546
 20
300.0
 10
83.32437198131058
 20
300.0
 10
80.44540049244948
 20
300.0
 10
77.66138690608166
 20
300.0
 10
75.0
 20
300.0
 10
72.4876898329563
 20
300.0
 10
70.14942487209423
 20
300.0
 10
68.00844384510522
 20
300.0
 10
66.08602478331234
 20
300.0
 10
64.40127355103533
 20
300.0
 10
62.97093396292743
 20
300.0
 10
61.809221376422755
 20
300.0
 10
60.927681413127665
 20
300.0
 10
60.33507521324615
 20
300.0
 10
60.03729236343233
 20
300.0
 10
60.03729236343233
 20
300.0
 10
60.33507521324614
 20
300.0
 10
60.92768141312766
 20
300.0
 10
61.80922137642275
 20
300.0
 10
62.97093396292742
 20
300.0
 10
64.40127355103532
 20
300.0
 10
66.08602478331231
 20
300.0
 10
68.0084438451052
 20
300.0
 10
70.14942487209422
 20
300.0
 10
72.4876898329563
 20
300.0
 10
74.99999999999999
 20
300.0
 10
77.66138690608165
 20
300.0
 10
80.44540049244945
 20
300.0
 10
83.32437198131053
 20
300.0
 10
86.26968886057543
 20
300.0
 10
89.25207924785781
 20
300.0
 10
92.24190280759271
 20
300.0
 10
95.2094453300079
 20
300.0
 10
98.12521404429013
 20
300.0
 10
100.96023073099184
 20
300.0
 10
103.68631972059488
 20
300.0
 10
106.27638791597276
 20
300.0
 10
108.70469405576198
 20
300.0
 10
110.94710454258217
 20
300.0
 10
112.98133329356932
 20
300.0
 10
114.78716322947983
 20
300.0
 10
116.34664720110685
 20
300.0
 10
117.64428635611223
 20
300.0
 10
118.66718417358422
 20
300.0
 10
119.4051746354563
 20
300.0
 10
119.85092326096203
 20
300.0
 10
120.0
 20
300.0
  0
LWPOLYLINE
  5
37
330
17
100
AcDbEntity
  8
TOP
100
AcDbPolyline
 90
2
 70
0
 10
0.0
 20
25.0
 10
0.0
 20
275.0
  0
LWPOLYLINE
  5
38
330
17
100
AcDbEntity
  8
TOP
100
AcDbPolyline
 90
2
 70
0
 10
0.0
 20
25.0
 10
0.0
 20
275.0
  0
LWPOLYLINE
  5
39
330
17
100
AcDbEntity
  8
TOP
100
AcDbPolyline
 90
2
 70
0
 10
0.0
 20
25.0
 10
180.0
 20
25.0
  0
LWPOLYLINE
  5
3A
330
17
100
AcDbEntity
  8
TOP
100
AcDbPolyline
 90
2
 70
0
 10
0.0
 20
25.0
 10
180.0
 20
25.0
  0
LWPOLYLINE
  5
3B
330
17
100
AcDbEntity
  8
TOP
100
AcDbPolyline
 90
2
 70
0
 10
0.0
 20
275.0
 10
180.0
 20
275.0
  0
LWPOLYLINE
  5
3C
330
17
100
AcDbEntity
  8
TOP
100
AcDbPolyline
 90
2
 70
0
 10
180.0
 20
25.0
 10
180.0
 20
275.0
  0
LWPOLYLINE
  5
3D
330
17
100
AcDbEntity
  8
TOP
100
AcDbPolyline
 90
16
 70
0
 10
25.25
 20
50.0
 10
24.79611365262366
 20
47.864632623852046
 10
23.512935683384
 20
46.09848966624368
 10
21.622339220468476
 20
45.00695328945045
 10
19.451225567844816
 20
44.77876004931656
 10
17.375
 20
45.4533666301317
 10
15.752660779531524
 20
46.914127425464514
 10
14.864725096147524
 20
48.90846362320676
 10
14.864725096147524
 20
51.09153637679323
 10
15.752660779531524
 20
53.085872574535486
 10
17.375
 20
54.5466333698683
 10
19.451225567844816
 20
55.22123995068344
 10
21.622339220468476
 20
54.99304671054955
 10
23.512935683384
 20
53.90151033375632
 10
24.79611365262366
 20
52.135367376147954
 10
25.25
 20
50.0
  0
LWPOLYLINE
  5
3E
330
17
100
AcDbEntity
  8
TOP
100
AcDbPolyline
 90
16
 70
0
 10
165.25
 20
50.0
 10
164.79611365262366
 20
47.864632623852046
 10
163.512935683384
 20
46.09848966624368
 10
161.62233922046846
 20
45.00695328945045
 10
159.4512255678448
 20
44.77876004931656
 10
157.375
 20
45.4533666301317
 10
155.75266077953154
 20
46.914127425464514
 10
154.86472509614754
 20
48.90846362320676
 10
154.86472509614754
 20
51.09153637679323
 10
155.75266077953154
 20
53.085872574535486
 10
157.375
 20
54.5466333698683
 10
159.4512255678448
 20
55.22123995068344
 10
161.62233922046846
 20
54.99304671054955
 10
163.512935683384
 20
53.90151033375632
 10
164.79611365262366
 20
52.135367376147954
 10
165.25
 20
50.0
  0
LWPOLYLINE
  5
3F
330
17
100
AcDbEntity
  8
TOP
100
AcDbPolyline
 90
16
 70
0
 10
25.25
 20
250.0
 10
24.79611365262366
 20
247.86463262385206
 10
23.512935683384
 20
246.09848966624367
 10
21.622339220468476
 20
245.00695328945045
 10
19.451225567844816
 20
244.77876004931656
 10
17.375
 20
245.4533666301317
 10
15.752660779531524
 20
246.91412742546453
 10
14.864725096147524
 20
248.90846362320676
 10
14.864725096147524
 20
251.09153637679321
 10
15.752660779531524
 20
253.08587257453547
 10
17.375
 20
254.5466333698683
 10
19.451225567844816
 20
255.22123995068344
 10
21.622339220468476
 20
254.99304671054955
 10
23.512935683384
 20
253.90151033375633
 10
24.79611365262366
 20
252.13536737614794
 10
25.25
 20
250.0
  0
LWPOLYLINE
  5
40
330
17
100
AcDbEntity
  8
TOP
100
AcDbPolyline
 90
16
 70
0
 10
165.25
 20
250.0
 10
164.79611365262366
 20
247.86463262385206
 10
163.512935683384
 20
246.09848966624367
 10
161.62233922046846
 20
245.00695328945045
 10
159.4512255678448
 20
244.77876004931656
 10
157.375
 20
245.4533666301317
 10
155.75266077953154
 20
246.91412742546453
 10
154.86472509614754
 20
248.90846362320676
 10
154.86472509614754
 20
251.09153637679321
 10
155.75266077953154
 20
253.08587257453547
 10
157.375
 20
254.5466333698683
 10
159.4512255678448
 20
255.22123995068344
 10
161.62233922046846
 20
254.99304671054955
 10
163.512935683384
 20
253.90151033375633
 10
164.79611365262366
 20
252.13536737614794
 10
165.25
 20
250.0
  0
LWPOLYLINE
  5
41
330
17
100
AcDbEntity
  8
TOP
100
AcDbPolyline
 90
2
 70
0
 10
0.0
 20
275.0
 10
180.0
 20
275.0
  0
LWPOLYLINE
  5
42
330
17
100
AcDbEntity
  8
TOP
100
AcDbPolyline
 90
2
 70
0
 10
180.0
 20
25.0
 10
180.0
 20
275.0
  0
LWPOLYLINE
  5
43
330
17
100
AcDbEntity
  8
TOP
100
AcDbPolyline
 90
16
 70
0
 10
25.25
 20
50.0
 10
24.79611365262366
 20
47.864632623852046
 10
23.512935683384
 20
46.09848966624368
 10
21.622339220468476
 20
45.00695328945045
 10
19.451225567844816
 20
44.77876004931656
 10
17.375
 20
45.4533666301317
 10
15.752660779531524
 20
46.914127425464514
 10
14.864725096147524
 20
48.90846362320676
 10
14.864725096147524
 20
51.09153637679323
 10
15.752660779531524
 20
53.085872574535486
 10
17.375
 20
54.5466333698683
 10
19.451225567844816
 20
55.22123995068344
 10
21.622339220468476
 20
54.99304671054955
 10
23.512935683384
 20
53.90151033375632
 10
24.79611365262366
 20
52.135367376147954
 10
25.25
 20
50.0
  0
LWPOLYLINE
  5
44
330
17
100
AcDbEntity
  8
TOP
100
AcDbPolyline
 90
16
 70
0
 10
165.25
 20
50.0
 10
164.79611365262366
 20
47.864632623852046
 10
163.512935683384
 20
46.09848966624368
 10
161.62233922046846
 20
45.00695328945045
 10
159.4512255678448
 20
44.77876004931656
 10
157.375
 20
45.4533666301317
 10
155.75266077953154
 20
46.914127425464514
 10
154.86472509614754
 20
48.90846362320676
 10
154.86472509614754
 20
51.09153637679323
 10
155.75266077953154
 20
53.085872574535486
 10
157.375
 20
54.5466333698683
 10
159.4512255678448
 20
55.22123995068344
 10
161.62233922046846
 20
54.99304671054955
 10
163.512935683384
 20
53.90151033375632
 10
164.79611365262366
 20
52.135367376147954
 10
165.25
 20
50.0
  0
LWPOLYLINE
  5
45
330
17
100
AcDbEntity
  8
TOP
100
AcDbPolyline
 90
16
 70
0
 10
25.25
 20
250.0
 10
24.79611365262366
 20
247.86463262385206
 10
23.512935683384
 20
246.09848966624367
 10
21.622339220468476
 20
245.00695328945045
 10
19.451225567844816
 20
244.77876004931656
 10
17.375
 20
245.4533666301317
 10
15.752660779531524
 20
246.91412742546453
 10
14.864725096147524
 20
248.90846362320676
 10
14.864725096147524
 20
251.09153637679321
 10
15.752660779531524
 20
253.08587257453547
 10
17.375
 20
254.5466333698683
 10
19.451225567844816
 20
255.22123995068344
 10
21.622339220468476
 20
254.99304671054955
 10
23.512935683384
 20
253.90151033375633
 10
24.79611365262366
 20
252.13536737614794
 10
25.25
 20
250.0
  0
LWPOLYLINE
  5
46
330
17
100
AcDbEntity
  8
TOP
100
AcDbPolyline
 90
16
 70
0
 10
165.25
 20
250.0
 10
164.79611365262366
 20
247.86463262385206
 10
163.512935683384
 20
246.09848966624367
 10
161.62233922046846
 20
245.00695328945045
 10
159.4512255678448
 20
244.77876004931656
 10
157.375
 20
245.4533666301317
 10
155.75266077953154
 20
246.91412742546453
 10
154.86472509614754
 20
248.90846362320676
 10
154.86472509614754
 20
251.09153637679321
 10
155.75266077953154
 20
253.08587257453547
 10
157.375
 20
254.5466333698683
 10
159.4512255678448
 20
255.22123995068344
 10
161.62233922046846
 20
254.99304671054955
 10
163.512935683384
 20
253.90151033375633
 10
164.79611365262366
 20
252.13536737614794
 10
165.25
 20
250.0
  0
LWPOLYLINE
  5
47
330
17
100
AcDbEntity
  8
TOP
100
AcDbPolyline
 90
18
 70
0
 10
131.98809355043403
 20
70.0
 10
131.81721995709427
 20
70.0
 10
131.44434526896802
 20
70.0
 10
130.8712706841095
 20
70.0
 10
130.10076448060255
 20
70.0
 10
129.136548644194
 20
70.0
 10
127.98328088897293
 20
70.0
 10
126.64653215794746
 20
70.0
 10
125.13275971220281
 20
70.0
 10
123.44927593863635
 20
70.0
 10
121.60421302694562
 20
70.0
 10
119.60648368649997
 20
70.0
 10
117.46573809285559
 20
70.0
 10
115.19231727188694
 20
70.0
 10
112.79720314671607
 20
70.0
 10
110.29196548874147
 20
70.0
 10
107.68870602902342
 20
70.0
 10
105.00000000000009
 20
70.0
  0
LWPOLYLINE
  5
48
330
17
100
AcDbEntity
  8
TOP
100
AcDbPolyline
 90
2
 70
0
 10
105.0
 20
90.0
 10
105.0
 20
70.0
  0
LWPOLYLINE
  5
49
330
17
100
AcDbEntity
  8
TOP
100
AcDbPolyline
 90
18
 70
0
 10
131.98809355043403
 20
90.0
 10
131.81721995709427
 20
90.0
 10
131.44434526896802
 20
90.0
 10
130.8712706841095
 20
90.0
 10
130.10076448060255
 20
90.0
 10
129.136548644194
 20
90.0
 10
127.98328088897293
 20
90.0
 10
126.64653215794746
 20
90.0
 10
125.13275971220281
 20
90.0
 10
123.44927593863635
 20
90.0
 10
121.60421302694562
 20
90.0
 10
119.60648368649997
 20
90.0
 10
117.46573809285559
 20
90.0
 10
115.19231727188694
 20
90.0
 10
112.79720314671607
 20
90.0
 10
110.29196548874147
 20
90.0
 10
107.68870602902342
 20
90.0
 10
105.00000000000009
 20
90.0
  0
LWPOLYLINE
  5
4A
330
17
100
AcDbEntity
  8
TOP
100
AcDbPolyline
 90
2
 70
0
 10
131.98809355043403
 20
90.0
 10
131.98809355043403
 20
70.0
  0
LWPOLYLINE
  5
4B
330
17
100
AcDbEntity
  8
TOP
100
AcDbPolyline
 90
33
 70
0
 10
120.98386676965933
 20
70.0
 10
120.74472206055036
 20
70.0
 10
120.22151780853875
 20
70.0
 10
119.41908805181743
 20
70.0
 10
118.34484667526253
 20
70.0
 10
117.0087189113673
 20
70.0
 10
115.42304963809562
 20
70.0
 10
113.60248932091842
 20
70.0
 10
111.56385865284783
 20
70.0
 10
109.32599314309996
 20
70.0
 10
106.90956909027742
 20
70.0
 10
104.33691254795619
 20
70.0
 10
101.63179304770071
 20
70.0
 10
98.81920398536037
 20
70.0
 10
95.92513169972361
 20
70.0
 10
92.97631537707954
 20
70.0
 10
90.0
 20
70.0
 10
87.02368462292044
 20
70.0
 10
84.07486830027639
 20
70.0
 10
81.18079601463963
 20
70.0
 10
78.36820695229929
 20
70.0
 10
75.6630874520438
 20
70.0
 10
73.09043090972257
 20
70.0
 10
70.67400685690004
 20
70.0
 10
68.43614134715217
 20
70.0
 10
66.39751067908158
 20
70.0
 10
64.57695036190438
 20
70.0
 10
62.991281088632704
 20
70.0
 10
61.65515332473747
 20
70.0
 10
60.58091194818257
 20
70.0
 10
59.77848219146125
 20
70.0
 10
59.25527793944964
 20
70.0
 10
59.016133230340664
 20
70.0
  0
LWPOLYLINE
  5
4C
330
17
100
AcDbEntity
  8
TOP
100
AcDbPolyline
 90
2
 70
0
 10
120.98386676965933
 20
70.0
 10
131.98809355043403
 20
70.0
  0
LWPOLYLINE
  5
4D
330
17
100
AcDbEntity
  8
TOP
100
AcDbPolyline
 90
2
 70
0
 10
75.0
 20
70.0
 10
105.0
 20
70.0
  0
LWPOLYLINE
  5
4E
330
17
100
AcDbEntity
  8
TOP
100
AcDbPolyline
 90
18
 70
0
 10
74.99999999999993
 20
70.0
 10
72.31129397097659
 20
70.0
 10
69.70803451125855
 20
70.0
 10
67.20279685328394
 20
70.0
 10
64.80768272811306
 20
70.0
 10
62.534261907144426
 20
70.0
 10
60.39351631350004
 20
70.0
 10
58.39578697305439
 20
70.0
 10
56.55072406136366
 20
70.0
 10
54.867240287797195
 20
70.0
 10
53.353467842052545
 20
70.0
 10
52.01671911102708
 20
70.0
 10
50.86345135580601
 20
70.0
 10
49.899235519397436
 20
70.0
 10
49.12872931589051
 20
70.0
 10
48.55565473103199
 20
70.0
 10
48.18278004290573
 20
70.0
 10
48.01190644956597
 20
70.0
  0
LWPOLYLINE
  5
4F
330
17
100
AcDbEntity
  8
TOP
100
AcDbPolyline
 90
2
 70
0
 10
48.01190644956597
 20
70.0
 10
59.016133230340664
 20
70.0
  0
LWPOLYLINE
  5
50
330
17
100
AcDbEntity
  8
TOP
100
AcDbPolyline
 90
2
 70
0
 10
105.0
 20
70.0
 10
105.0
 20
90.0
  0
LWPOLYLINE
  5
51
330
17
100
AcDbEntity
  8
TOP
100
AcDbPolyline
 90
33
 70
0
 10
120.98386676965933
 20
90.0
 10
120.74472206055036
 20
90.0
 10
120.22151780853875
 20
90.0
 10
119.41908805181743
 20
90.0
 10
118.34484667526253
 20
90.0
 10
117.0087189113673
 20
90.0
 10
115.42304963809562
 20
90.0
 10
113.60248932091842
 20
90.0
 10
111.56385865284783
 20
90.0
 10
109.32599314309996
 20
90.0
 10
106.90956909027742
 20
90.0
 10
104.33691254795619
 20
90.0
 10
101.63179304770071
 20
90.0
 10
98.81920398536037
 20
90.0
 10
95.92513169972361
 20
90.0
 10
92.97631537707954
 20
90.0
 10
90.0
 20
90.0
 10
87.02368462292044
 20
90.0
 10
84.07486830027639
 20
90.0
 10
81.18079601463963
 20
90.0
 10
78.36820695229929
 20
90.0
 10
75.6630874520438
 20
90.0
 10
73.09043090972257
 20
90.0
 10
70.67400685690004
 20
90.0
 10
68.43614134715217
 20
90.0
 10
66.39751067908158
 20
90.0
 10
64.57695036190438
 20
90.0
 10
62.991281088632704
 20
90.0
 10
61.65515332473747
 20
90.0
 10
60.58091194818257
 20
90.0
 10
59.77848219146125
 20
90.0
 10
59.25527793944964
 20
90.0
 10
59.016133230340664
 20
90.0
  0
LWPOLYLINE
  5
52
330
17
100
AcDbEntity
  8
TOP
100
AcDbPolyline
 90
2
 70
0
 10
120.98386676965933
 20
90.0
 10
131.98809355043403
 20
90.0
  0
LWPOLYLINE
  5
53
330
17
100
AcDbEntity
  8
TOP
100
AcDbPolyline
 90
2
 70
0
 10
75.0
 20
90.0
 10
105.0
 20
90.0
  0
LWPOLYLINE
  5
54
330
17
100
AcDbEntity
  8
TOP
100
AcDbPolyline
 90
18
 70
0
 10
74.99999999999993
 20
90.0
 10
72.31129397097659
 20
90.0
 10
69.70803451125855
 20
90.0
 10
67.20279685328394
 20
90.0
 10
64.80768272811306
 20
90.0
 10
62.534261907144426
 20
90.0
 10
60.39351631350004
 20
90.0
 10
58.39578697305439
 20
90.0
 10
56.55072406136366
 20
90.0
 10
54.867240287797195
 20
90.0
 10
53.353467842052545
 20
90.0
 10
52.01671911102708
 20
90.0
 10
50.86345135580601
 20
90.0
 10
49.899235519397436
 20
90.0
 10
49.12872931589051
 20
90.0
 10
48.55565473103199
 20
90.0
 10
48.18278004290573
 20
90.0
 10
48.01190644956597
 20
90.0
  0
LWPOLYLINE
  5
55
330
17
100
AcDbEntity
  8
TOP
100
AcDbPolyline
 90
2
 70
0
 10
48.01190644956597
 20
90.0
 10
59.016133230340664
 20
90.0
  0
LWPOLYLINE
  5
56
330
17
100
AcDbEntity
  8
TOP
100
AcDbPolyline
 90
2
 70
0
 10
120.98386676965933
 20
90.0
 10
120.98386676965933
 20
70.0
  0
LWPOLYLINE
  5
57
330
17
100
AcDbEntity
  8
TOP
100
AcDbPolyline
 90
2
 70
0
 10
59.016133230340664
 20
90.0
 10
59.016133230340664
 20
70.0
  0
LWPOLYLINE
  5
58
330
17
100
AcDbEntity
  8
TOP
100
AcDbPolyline
 90
2
 70
0
 10
48.01190644956597
 20
90.0
 10
48.01190644956597
 20
70.0
  0
LWPOLYLINE
  5
59
330
17
100
AcDbEntity
  8
TOP
100
AcDbPolyline
 90
2
 70
0
 10
75.0
 20
90.0
 10
75.0
 20
70.0
  0
LWPOLYLINE
  5
5A
330
17
100
AcDbEntity
  8
TOP
100
AcDbPolyline
 90
2
 70
0
 10
75.0
 20
70.0
 10
75.0
 20
90.0
  0
LWPOLYLINE
  5
5B
330
17
100
AcDbEntity
  8
TOP
100
AcDbPolyline
 90
44
 70
0
 10
48.04764607319394
 20
70.0
 10
48.29445137753526
 20
70.0
 10
48.75048761962472
 20
70.0
 10
49.41346692905344
 20
70.0
 10
50.280063230821774
 20
70.0
 10
51.34592893179507
 20
70.0
 10
52.60571673197383
 20
70.0
 10
54.05310645115418
 20
70.0
 10
55.68083673639309
 20
70.0
 10
57.480741491206224
 20
70.0
 10
59.44379084373854
 20
70.0
 10
61.56013644837551
 20
70.0
 10
63.81916089352367
 20
70.0
 10
66.20953096768795
 20
70.0
 10
68.71925451661791
 20
70.0
 10
71.33574060627774
 20
70.0
 10
74.04586268981149
 20
70.0
 10
76.83602446160329
 20
70.0
 10
79.69222806805185
 20
70.0
 10
82.60014433285525
 20
70.0
 10
85.54518464449598
 20
70.0
 10
88.51257414527612
 20
70.0
 10
91.48742585472382
 20
70.0
 10
94.45481535550401
 20
70.0
 10
97.39985566714473
 20
70.0
 10
100.30777193194814
 20
70.0
 10
103.16397553839666
 20
70.0
 10
105.9541373101885
 20
70.0
 10
108.66425939372225
 20
70.0
 10
111.28074548338205
 20
70.0
 10
113.79046903231203
 20
70.0
 10
116.18083910647631
 20
70.0
 10
118.43986355162446
 20
70.0
 10
120.55620915626145
 20
70.0
 10
122.51925850879374
 20
70.0
 10
124.3191632636069
 20
70.0
 10
125.9468935488458
 20
70.0
 10
127.39428326802616
 20
70.0
 10
128.65407106820493
 20
70.0
 10
129.71993676917822
 20
70.0
 10
130.58653307094656
 20
70.0
 10
131.24951238037528
 20
70.0
 10
131.70554862246473
 20
70.0
 10
131.95235392680607
 20
70.0
  0
LWPOLYLINE
  5
5C
330
17
100
AcDbEntity
  8
TOP
100
AcDbPolyline
 90
2
 70
0
 10
131.95235392680607
 20
90.0
 10
131.95235392680607
 20
70.0
  0
LWPOLYLINE
  5
5D
330
17
100
AcDbEntity
  8
TOP
100
AcDbPolyline
 90
44
 70
0
 10
48.04764607319394
 20
90.0
 10
48.29445137753526
 20
90.0
 10
48.75048761962472
 20
90.0
 10
49.41346692905344
 20
90.0
 10
50.280063230821774
 20
90.0
 10
51.34592893179507
 20
90.0
 10
52.60571673197383
 20
90.0
 10
54.05310645115418
 20
90.0
 10
55.68083673639309
 20
90.0
 10
57.480741491206224
 20
90.0
 10
59.44379084373854
 20
90.0
 10
61.56013644837551
 20
90.0
 10
63.81916089352367
 20
90.0
 10
66.20953096768795
 20
90.0
 10
68.71925451661791
 20
90.0
 10
71.33574060627774
 20
90.0
 10
74.04586268981149
 20
90.0
 10
76.83602446160329
 20
90.0
 10
79.69222806805185
 20
90.0
 10
82.60014433285525
 20
90.0
 10
85.54518464449598
 20
90.0
 10
88.51257414527612
 20
90.0
 10
91.48742585472382
 20
90.0
 10
94.45481535550401
 20
90.0
 10
97.39985566714473
 20
90.0
 10
100.30777193194814
 20
90.0
 10
103.16397553839666
 20
90.0
 10
105.9541373101885
 20
90.0
 10
108.66425939372225
 20
90.0
 10
111.28074548338205
 20
90.0
 10
113.79046903231203
 20
90.0
 10
116.18083910647631
 20
90.0
 10
118.43986355162446
 20
90.0
 10
120.55620915626145
 20
90.0
 10
122.51925850879374
 20
90.0
 10
124.3191632636069
 20
90.0
 10
125.9468935488458
 20
90.0
 10
127.39428326802616
 20
90.0
 10
128.65407106820493
 20
90.0
 10
129.71993676917822
 20
90.0
 10
130.58653307094656
 20
90.0
 10
131.24951238037528
 20
90.0
 10
131.70554862246473
 20
90.0
 10
131.95235392680607
 20
90.0
  0
LWPOLYLINE
  5
5E
330
17
100
AcDbEntity
  8
TOP
100
AcDbPolyline
 90
2
 70
0
 10
48.04764607319394
 20
90.0
 10
48.04764607319394
 20
70.0
  0
LWPOLYLINE
  5
5F
330
17
100
AcDbEntity
  8
TOP
100
AcDbPolyline
 90
2
 70
0
 10
48.04764607319394
 20
70.0
 10
59.064583403483965
 20
70.0
  0
LWPOLYLINE
  5
60
330
17
100
AcDbEntity
  8
TOP
100
AcDbPolyline
 90
33
 70
0
 10
59.064583403483965
 20
70.0
 10
59.38956288111443
 20
70.0
 10
59.98562048914588
 20
70.0
 10
60.84747769524738
 20
70.0
 10
61.96750211445182
 20
70.0
 10
63.33577509958724
 20
70.0
 10
64.94017957825616
 20
70.0
 10
66.76650735850117
 20
70.0
 10
68.7985849528858
 20
70.0
 10
71.01841680672467
 20
70.0
 10
73.40634466207112
 20
70.0
 10
75.94122164617566
 20
70.0
 10
78.60059954273287
 20
70.0
 10
81.36092758749106
 20
70.0
 10
84.19776102774182
 20
70.0
 10
87.08597759874081
 20
70.0
 10
90.0
 20
70.0
 10
92.91402240125917
 20
70.0
 10
95.80223897225817
 20
70.0
 10
98.63907241250894
 20
70.0
 10
101.39940045726712
 20
70.0
 10
104.05877835382434
 20
70.0
 10
106.59365533792885
 20
70.0
 10
108.98158319327533
 20
70.0
 10
111.20141504711418
 20
70.0
 10
113.2334926414988
 20
70.0
 10
115.05982042174384
 20
70.0
 10
116.66422490041273
 20
70.0
 10
118.03249788554818
 20
70.0
 10
119.15252230475261
 20
70.0
 10
120.01437951085413
 20
70.0
 10
120.61043711888557
 20
70.0
 10
120.93541659651603
 20
70.0
  0
LWPOLYLINE
  5
61
330
17
100
AcDbEntity
  8
TOP
100
AcDbPolyline
 90
2
 70
0
 10
120.93541659651603
 20
70.0
 10
131.95235392680607
 20
70.0
  0
LWPOLYLINE
  5
62
330
17
100
AcDbEntity
  8
TOP
100
AcDbPolyline
 90
2
 70
0
 10
120.93541659651603
 20
90.0
 10
120.93541659651603
 20
70.0
  0
LWPOLYLINE
  5
63
330
17
100
AcDbEntity
  8
TOP
100
AcDbPolyline
 90
2
 70
0
 10
120.93541659651603
 20
90.0
 10
131.95235392680607
 20
90.0
  0
LWPOLYLINE
  5
64
330
17
100
AcDbEntity
  8
TOP
100
AcDbPolyline
 90
2
 70
0
 10
48.04764607319394
 20
90.0
 10
59.064583403483965
 20
90.0
  0
LWPOLYLINE
  5
65
330
17
100
AcDbEntity
  8
TOP
100
AcDbPolyline
 90
33
 70
0
 10
59.064583403483965
 20
90.0
 10
59.38956288111443
 20
90.0
 10
59.98562048914588
 20
90.0
 10
60.84747769524738
 20
90.0
 10
61.96750211445182
 20
90.0
 10
63.33577509958724
 20
90.0
 10
64.94017957825616
 20
90.0
 10
66.76650735850117
 20
90.0
 10
68.7985849528858
 20
90.0
 10
71.01841680672467
 20
90.0
 10
73.40634466207112
 20
90.0
 10
75.94122164617566
 20
90.0
 10
78.60059954273287
 20
90.0
 10
81.36092758749106
 20
90.0
 10
84.19776102774182
 20
90.0
 10
87.08597759874081
 20
90.0
 10
90.0
 20
90.0
 10
92.91402240125917
 20
90.0
 10
95.80223897225817
 20
90.0
 10
98.63907241250894
 20
90.0
 10
101.39940045726712
 20
90.0
 10
104.05877835382434
 20
90.0
 10
106.59365533792885
 20
90.0
 10
108.98158319327533
 20
90.0
 10
111.20141504711418
 20
90.0
 10
113.2334926414988
 20
90.0
 10
115.05982042174384
 20
90.0
 10
116.66422490041273
 20
90.0
 10
118.03249788554818
 20
90.0
 10
119.15252230475261
 20
90.0
 10
120.01437951085413
 20
90.0
 10
120.61043711888557
 20
90.0
 10
120.93541659651603
 20
90.0
  0
LWPOLYLINE
  5
66
330
17
100
AcDbEntity
  8
TOP
100
AcDbPolyline
 90
2
 70
0
 10
59.064583403483965
 20
90.0
 10
59.064583403483965
 20
70.0
  0
LWPOLYLINE
  5
67
330
17
100
AcDbEntity
  8
TOP
100
AcDbPolyline
 90
18
 70
0
 10
131.98809355043403
 20
210.0
 10
131.81721995709427
 20
210.0
 10
131.44434526896802
 20
210.0
 10
130.8712706841095
 20
210.0
 10
130.10076448060255
 20
210.0
 10
129.136548644194
 20
210.0
 10
127.98328088897293
 20
210.0
 10
126.64653215794746
 20
210.0
 10
125.13275971220281
 20
210.0
 10
123.44927593863635
 20
210.0
 10
121.60421302694562
 20
210.0
 10
119.60648368649997
 20
210.0
 10
117.46573809285559
 20
210.0
 10
115.19231727188694
 20
210.0
 10
112.79720314671607
 20
210.0
 10
110.29196548874147
 20
210.0
 10
107.68870602902342
 20
210.0
 10
105.00000000000009
 20
210.0
  0
LWPOLYLINE
  5
68
330
17
100
AcDbEntity
  8
TOP
100
AcDbPolyline
 90
2
 70
0
 10
105.0
 20
230.0
 10
105.0
 20
210.0
  0
LWPOLYLINE
  5
69
330
17
100
AcDbEntity
  8
TOP
100
AcDbPolyline
 90
18
 70
0
 10
131.98809355043403
 20
230.0
 10
131.81721995709427
 20
230.0
 10
131.44434526896802
 20
230.0
 10
130.8712706841095
 20
230.0
 10
130.10076448060255
 20
230.0
 10
129.136548644194
 20
230.0
 10
127.98328088897293
 20
230.0
 10
126.64653215794746
 20
230.0
 10
125.13275971220281
 20
230.0
 10
123.44927593863635
 20
230.0
 10
121.60421302694562
 20
230.0
 10
119.60648368649997
 20
230.0
 10
117.46573809285559
 20
230.0
 10
115.19231727188694
 20
230.0
 10
112.79720314671607
 20
230.0
 10
110.29196548874147
 20
230.0
 10
107.68870602902342
 20
230.0
 10
105.00000000000009
 20
230.0
  0
LWPOLYLINE
  5
6A
330
17
100
AcDbEntity
  8
TOP
100
AcDbPolyline
 90
2
 70
0
 10
131.98809355043403
 20
230.0
 10
131.98809355043403
 20
210.0
  0
LWPOLYLINE
  5
6B
330
17
100
AcDbEntity
  8
TOP
100
AcDbPolyline
 90
33
 70
0
 10
120.98386676965933
 20
210.0
 10
120.74472206055036
 20
210.0
 10
120.22151780853875
 20
210.0
 10
119.41908805181743
 20
210.0
 10
118.34484667526253
 20
210.0
 10
117.0087189113673
 20
210.0
 10
115.42304963809562
 20
210.0
 10
113.60248932091842
 20
210.0
 10
111.56385865284783
 20
210.0
 10
109.32599314309996
 20
210.0
 10
106.90956909027742
 20
210.0
 10
104.33691254795619
 20
210.0
 10
101.63179304770071
 20
210.0
 10
98.81920398536037
 20
210.0
 10
95.92513169972361
 20
210.0
 10
92.97631537707954
 20
210.0
 10
90.0
 20
210.0
 10
87.02368462292044
 20
210.0
 10
84.07486830027639
 20
210.0
 10
81.18079601463963
 20
210.0
 10
78.36820695229929
 20
210.0
 10
75.6630874520438
 20
210.0
 10
73.09043090972257
 20
210.0
 10
70.67400685690004
 20
210.0
 10
68.43614134715217
 20
210.0
 10
66.39751067908158
 20
210.0
 10
64.57695036190438
 20
210.0
 10
62.991281088632704
 20
210.0
 10
61.65515332473747
 20
210.0
 10
60.58091194818257
 20
210.0
 10
59.77848219146125
 20
210.0
 10
59.25527793944964
 20
210.0
 10
59.016133230340664
 20
210.0
  0
LWPOLYLINE
  5
6C
330
17
100
AcDbEntity
  8
TOP
100
AcDbPolyline
 90
2
 70
0
 10
120.98386676965933
 20
210.0
 10
131.98809355043403
 20
210.0
  0
LWPOLYLINE
  5
6D
330
17
100
AcDbEntity
  8
TOP
100
AcDbPolyline
 90
2
 70
0
 10
75.0
 20
210.0
 10
105.0
 20
210.0
  0
LWPOLYLINE
  5
6E
330
17
100
AcDbEntity
  8
TOP
100
AcDbPolyline
 90
18
 70
0
 10
74.99999999999993
 20
210.0
 10
72.31129397097659
 20
210.0
 10
69.70803451125855
 20
210.0
 10
67.20279685328394
 20
210.0
 10
64.80768272811306
 20
210.0
 10
62.534261907144426
 20
210.0
 10
60.39351631350004
 20
210.0
 10
58.39578697305439
 20
210.0
 10
56.55072406136366
 20
210.0
 10
54.867240287797195
 20
210.0
 10
53.353467842052545
 20
210.0
 10
52.01671911102708
 20
210.0
 10
50.86345135580601
 20
210.0
 10
49.899235519397436
 20
210.0
 10
49.12872931589051
 20
210.0
 10
48.55565473103199
 20
210.0
 10
48.18278004290573
 20
210.0
 10
48.01190644956597
 20
210.0
  0
LWPOLYLINE
  5
6F
330
17
100
AcDbEntity
  8
TOP
100
AcDbPolyline
 90
2
 70
0
 10
48.01190644956597
 20
210.0
 10
59.016133230340664
 20
210.0
  0
LWPOLYLINE
  5
70
330
17
100
AcDbEntity
  8
TOP
100
AcDbPolyline
 90
2
 70
0
 10
105.0
 20
210.0
 10
105.0
 20
230.0
  0
LWPOLYLINE
  5
71
330
17
100
AcDbEntity
  8
TOP
100
AcDbPolyline
 90
33
 70
0
 10
120.98386676965933
 20
230.0
 10
120.74472206055036
 20
230.0
 10
120.22151780853875
 20
230.0
 10
119.41908805181743
 20
230.0
 10
118.34484667526253
 20
230.0
 10
117.0087189113673
 20
230.0
 10
115.42304963809562
 20
230.0
 10
113.60248932091842
 20
230.0
 10
111.56385865284783
 20
230.0
 10
109.32599314309996
 20
230.0
 10
106.90956909027742
 20
230.0
 10
104.33691254795619
 20
230.0
 10
101.63179304770071
 20
230.0
 10
98.81920398536037
 20
230.0
 10
95.92513169972361
 20
230.0
 10
92.97631537707954
 20
230.0
 10
90.0
 20
230.0
 10
87.02368462292044
 20
230.0
 10
84.07486830027639
 20
230.0
 10
81.18079601463963
 20
230.0
 10
78.36820695229929
 20
230.0
 10
75.6630874520438
 20
230.0
 10
73.09043090972257
 20
230.0
 10
70.67400685690004
 20
230.0
 10
68.43614134715217
 20
230.0
 10
66.39751067908158
 20
230.0
 10
64.57695036190438
 20
230.0
 10
62.991281088632704
 20
230.0
 10
61.65515332473747
 20
230.0
 10
60.58091194818257
 20
230.0
 10
59.77848219146125
 20
230.0
 10
59.25527793944964
 20
230.0
 10
59.016133230340664
 20
230.0
  0
LWPOLYLINE
  5
72
330
17
100
AcDbEntity
  8
TOP
100
AcDbPolyline
 90
2
 70
0
 10
120.98386676965933
 20
230.0
 10
131.98809355043403
 20
230.0
  0
LWPOLYLINE
  5
73
330
17
100
AcDbEntity
  8
TOP
100
AcDbPolyline
 90
2
 70
0
 10
75.0
 20
230.0
 10
105.0
 20
230.0
  0
LWPOLYLINE
  5
74
330
17
100
AcDbEntity
  8
TOP
100
AcDbPolyline
 90
18
 70
0
 10
74.99999999999993
 20
230.0
 10
72.31129397097659
 20
230.0
 10
69.70803451125855
 20
230.0
 10
67.20279685328394
 20
230.0
 10
64.80768272811306
 20
230.0
 10
62.534261907144426
 20
230.0
 10
60.39351631350004
 20
230.0
 10
58.39578697305439
 20
230.0
 10
56.55072406136366
 20
230.0
 10
54.867240287797195
 20
230.0
 10
53.353467842052545
 20
230.0
 10
52.01671911102708
 20
230.0
 10
50.86345135580601
 20
230.0
 10
49.899235519397436
 20
230.0
 10
49.12872931589051
 20
230.0
 10
48.55565473103199
 20
230.0
 10
48.18278004290573
 20
230.0
 10
48.01190644956597
 20
230.0
  0
LWPOLYLINE
  5
75
330
17
100
AcDbEntity
  8
TOP
100
AcDbPolyline
 90
2
 70
0
 10
48.01190644956597
 20
230.0
 10
59.016133230340664
 20
230.0
  0
LWPOLYLINE
  5
76
330
17
100
AcDbEntity
  8
TOP
100
AcDbPolyline
 90
2
 70
0
 10
120.98386676965933
 20
230.0
 10
120.98386676965933
 20
210.0
  0
LWPOLYLINE
  5
77
330
17
100
AcDbEntity
  8
TOP
100
AcDbPolyline
 90
2
 70
0
 10
59.016133230340664
 20
230.0
 10
59.016133230340664
 20
210.0
  0
LWPOLYLINE
  5
78
330
17
100
AcDbEntity
  8
TOP
100
AcDbPolyline
 90
2
 70
0
 10
48.01190644956597
 20
230.0
 10
48.01190644956597
 20
210.0
  0
LWPOLYLINE
  5
79
330
17
100
AcDbEntity
  8
TOP
100
AcDbPolyline
 90
2
 70
0
 10
75.0
 20
230.0
 10
75.0
 20
210.0
  0
LWPOLYLINE
  5
7A
330
17
100
AcDbEntity
  8
TOP
100
AcDbPolyline
 90
2
 70
0
 10
75.0
 20
210.0
 10
75.0
 20
230.0
  0
LWPOLYLINE
  5
7B
330
17
100
AcDbEntity
  8
TOP
100
AcDbPolyline
 90
44
 70
0
 10
48.04764607319394
 20
210.0
 10
48.29445137753526
 20
210.0
 10
48.75048761962472
 20
210.0
 10
49.41346692905344
 20
210.0
 10
50.280063230821774
 20
210.0
 10
51.34592893179507
 20
210.0
 10
52.60571673197383
 20
210.0
 10
54.05310645115418
 20
210.0
 10
55.68083673639309
 20
210.0
 10
57.480741491206224
 20
210.0
 10
59.44379084373854
 20
210.0
 10
61.56013644837551
 20
210.0
 10
63.81916089352367
 20
210.0
 10
66.20953096768795
 20
210.0
 10
68.71925451661791
 20
210.0
 10
71.33574060627774
 20
210.0
 10
74.04586268981149
 20
210.0
 10
76.83602446160329
 20
210.0
 10
79.69222806805185
 20
210.0
 10
82.60014433285525
 20
210.0
 10
85.54518464449598
 20
210.0
 10
88.51257414527612
 20
210.0
 10
91.48742585472382
 20
210.0
 10
94.45481535550401
 20
210.0
 10
97.39985566714473
 20
210.0
 10
100.30777193194814
 20
210.0
 10
103.16397553839666
 20
210.0
 10
105.9541373101885
 20
210.0
 10
108.66425939372225
 20
210.0
 10
111.28074548338205
 20
210.0
 10
113.79046903231203
 20
210.0
 10
116.18083910647631
 20
210.0
 10
118.43986355162446
 20
210.0
 10
120.55620915626145
 20
210.0
 10
122.51925850879374
 20
210.0
 10
124.3191632636069
 20
210.0
 10
125.9468935488458
 20
210.0
 10
127.39428326802616
 20
210.0
 10
128.65407106820493
 20
210.0
 10
129.71993676917822
 20
210.0
 10
130.58653307094656
 20
210.0
 10
131.24951238037528
 20
210.0
 10
131.70554862246473
 20
210.0
 10
131.95235392680607
 20
210.0
  0
LWPOLYLINE
  5
7C
330
17
100
AcDbEntity
  8
TOP
100
AcDbPolyline
 90
2
 70
0
 10
131.95235392680607
 20
230.0
 10
131.95235392680607
 20
210.0
  0
LWPOLYLINE
  5
7D
330
17
100
AcDbEntity
  8
TOP
100
AcDbPolyline
 90
44
 70
0
 10
48.04764607319394
 20
230.0
 10
48.29445137753526
 20
230.0
 10
48.75048761962472
 20
230.0
 10
49.41346692905344
 20
230.0
 10
50.280063230821774
 20
230.0
 10
51.34592893179507
 20
230.0
 10
52.60571673197383
 20
230.0
 10
54.05310645115418
 20
230.0
 10
55.68083673639309
 20
230.0
 10
57.480741491206224
 20
230.0
 10
59.44379084373854
 20
230.0
 10
61.56013644837551
 20
230.0
 10
63.81916089352367
 20
230.0
 10
66.20953096768795
 20
230.0
 10
68.71925451661791
 20
230.0
 10
71.33574060627774
 20
230.0
 10
74.04586268981149
 20
230.0
 10
76.83602446160329
 20
230.0
 10
79.69222806805185
 20
230.0
 10
82.60014433285525
 20
230.0
 10
85.54518464449598
 20
230.0
 10
88.51257414527612
 20
230.0
 10
91.48742585472382
 20
230.0
 10
94.45481535550401
 20
230.0
 10
97.39985566714473
 20
230.0
 10
100.30777193194814
 20
230.0
 10
103.16397553839666
 20
230.0
 10
105.9541373101885
 20
230.0
 10
108.66425939372225
 20
230.0
 10
111.28074548338205
 20
230.0
 10
113.79046903231203
 20
230.0
 10
116.18083910647631
 20
230.0
 10
118.43986355162446
 20
230.0
 10
120.55620915626145
 20
230.0
 10
122.51925850879374
 20
230.0
 10
124.3191632636069
 20
230.0
 10
125.9468935488458
 20
230.0
 10
127.39428326802616
 20
230.0
 10
128.65407106820493
 20
230.0
 10
129.71993676917822
 20
230.0
 10
130.58653307094656
 20
230.0
 10
131.24951238037528
 20
230.0
 10
131.70554862246473
 20
230.0
 10
131.95235392680607
 20
230.0
  0
LWPOLYLINE
  5
7E
330
17
100
AcDbEntity
  8
TOP
100
AcDbPolyline
 90
2
 70
0
 10
48.04764607319394
 20
230.0
 10
48.04764607319394
 20
210.0
  0
LWPOLYLINE
  5
7F
330
17
100
AcDbEntity
  8
TOP
100
AcDbPolyline
 90
2
 70
0
 10
48.04764607319394
 20
210.0
 10
59.064583403483965
 20
210.0
  0
LWPOLYLINE
  5
80
330
17
100
AcDbEntity
  8
TOP
100
AcDbPolyline
 90
33
 70
0
 10
59.064583403483965
 20
210.0
 10
59.38956288111443
 20
210.0
 10
59.98562048914588
 20
210.0
 10
60.84747769524738
 20
210.0
 10
61.96750211445182
 20
210.0
 10
63.33577509958724
 20
210.0
 10
64.94017957825616
 20
210.0
 10
66.76650735850117
 20
210.0
 10
68.7985849528858
 20
210.0
 10
71.01841680672467
 20
210.0
 10
73.40634466207112
 20
210.0
 10
75.94122164617566
 20
210.0
 10
78.60059954273287
 20
210.0
 10
81.36092758749106
 20
210.0
 10
84.19776102774182
 20
210.0
 10
87.08597759874081
 20
210.0
 10
90.0
 20
210.0
 10
92.91402240125917
 20
210.0
 10
95.80223897225817
 20
210.0
 10
98.63907241250894
 20
210.0
 10
101.39940045726712
 20
210.0
 10
104.05877835382434
 20
210.0
 10
106.59365533792885
 20
210.0
 10
108.98158319327533
 20
210.0
 10
111.20141504711418
 20
210.0
 10
113.2334926414988
 20
210.0
 10
115.05982042174384
 20
210.0
 10
116.66422490041273
 20
210.0
 10
118.03249788554818
 20
210.0
 10
119.15252230475261
 20
210.0
 10
120.01437951085413
 20
210.0
 10
120.61043711888557
 20
210.0
 10
120.93541659651603
 20
210.0
  0
LWPOLYLINE
  5
81
330
17
100
AcDbEntity
  8
TOP
100
AcDbPolyline
 90
2
 70
0
 10
120.93541659651603
 20
210.0
 10
131.95235392680607
 20
210.0
  0
LWPOLYLINE
  5
82
330
17
100
AcDbEntity
  8
TOP
100
AcDbPolyline
 90
2
 70
0
 10
120.93541659651603
 20
230.0
 10
120.93541659651603
 20
210.0
  0
LWPOLYLINE
  5
83
330
17
100
AcDbEntity
  8
TOP
100
AcDbPolyline
 90
2
 70
0
 10
120.93541659651603
 20
230.0
 10
131.95235392680607
 20
230.0
  0
LWPOLYLINE
  5
84
330
17
100
AcDbEntity
  8
TOP
100
AcDbPolyline
 90
2
 70
0
 10
48.04764607319394
 20
230.0
 10
59.064583403483965
 20
230.0
  0
LWPOLYLINE
  5
85
330
17
100
AcDbEntity
  8
TOP
100
AcDbPolyline
 90
33
 70
0
 10
59.064583403483965
 20
230.0
 10
59.38956288111443
 20
230.0
 10
59.98562048914588
 20
230.0
 10
60.84747769524738
 20
230.0
 10
61.96750211445182
 20
230.0
 10
63.33577509958724
 20
230.0
 10
64.94017957825616
 20
230.0
 10
66.76650735850117
 20
230.0
 10
68.7985849528858
 20
230.0
 10
71.01841680672467
 20
230.0
 10
73.40634466207112
 20
230.0
 10
75.94122164617566
 20
230.0
 10
78.60059954273287
 20
230.0
 10
81.36092758749106
 20
230.0
 10
84.19776102774182
 20
230.0
 10
87.08597759874081
 20
230.0
 10
90.0
 20
230.0
 10
92.91402240125917
 20
230.0
 10
95.80223897225817
 20
230.0
 10
98.63907241250894
 20
230.0
 10
101.39940045726712
 20
230.0
 10
104.05877835382434
 20
230.0
 10
106.59365533792885
 20
230.0
 10
108.98158319327533
 20
230.0
 10
111.20141504711418
 20
230.0
 10
113.2334926414988
 20
230.0
 10
115.05982042174384
 20
230.0
 10
116.66422490041273
 20
230.0
 10
118.03249788554818
 20
230.0
 10
119.15252230475261
 20
230.0
 10
120.01437951085413
 20
230.0
 10
120.61043711888557
 20
230.0
 10
120.93541659651603
 20
230.0
  0
LWPOLYLINE
  5
86
330
17
100
AcDbEntity
  8
TOP
100
AcDbPolyline
 90
2
 70
0
 10
59.064583403483965
 20
230.0
 10
59.064583403483965
 20
210.0
  0
LWPOLYLINE
  5
87
330
17
100
AcDbEntity
  8
TOP
100
AcDbPolyline
 90
2
 70
0
 10
112.5
 20
146.0
 10
112.5
 20
154.0
  0
LWPOLYLINE
  5
88
330
17
100
AcDbEntity
  8
TOP
100
AcDbPolyline
 90
2
 70
0
 10
112.5
 20
146.0
 10
112.5
 20
154.0
  0
LWPOLYLINE
  5
89
330
17
100
AcDbEntity
  8
TOP
100
AcDbPolyline
 90
2
 70
0
 10
112.5
 20
146.0
 10
177.5
 20
146.0
  0
LWPOLYLINE
  5
8A
330
17
100
AcDbEntity
  8
TOP
100
AcDbPolyline
 90
2
 70
0
 10
112.5
 20
146.0
 10
177.5
 20
146.0
  0
LWPOLYLINE
  5
8B
330
17
100
AcDbEntity
  8
TOP
100
AcDbPolyline
 90
18
 70
0
 10
153.0
 20
146.0
 10
152.45977783523483
 20
146.0
 10
150.91207133776527
 20
146.0
 10
148.5659068462123
 20
146.0
 10
145.7381468757064
 20
146.0
 10
142.81069607942334
 20
146.0
 10
140.17892290896594
 20
146.0
 10
138.19826291416308
 20
146.0
 10
137.13621520252877
 20
146.0
 10
137.13621520252877
 20
146.0
 10
138.19826291416308
 20
146.0
 10
140.17892290896594
 20
146.0
 10
142.81069607942334
 20
146.0
 10
145.7381468757064
 20
146.0
 10
148.5659068462123
 20
146.0
 10
150.91207133776527
 20
146.0
 10
152.45977783523483
 20
146.0
 10
153.0
 20
146.0
  0
LWPOLYLINE
  5
8C
330
17
100
AcDbEntity
  8
TOP
100
AcDbPolyline
 90
2
 70
0
 10
112.5
 20
154.0
 10
177.5
 20
154.0
  0
LWPOLYLINE
  5
8D
330
17
100
AcDbEntity
  8
TOP
100
AcDbPolyline
 90
2
 70
0
 10
177.5
 20
146.0
 10
177.5
 20
154.0
  0
LWPOLYLINE
  5
8E
330
17
100
AcDbEntity
  8
TOP
100
AcDbPolyline
 90
2
 70
0
 10
112.5
 20
154.0
 10
177.5
 20
154.0
  0
LWPOLYLINE
  5
8F
330
17
100
AcDbEntity
  8
TOP
100
AcDbPolyline
 90
18
 70
0
 10
153.0
 20
154.0
 10
152.45977783523483
 20
154.0
 10
150.91207133776527
 20
154.0
 10
148.5659068462123
 20
154.0
 10
145.7381468757064
 20
154.0
 10
142.81069607942334
 20
154.0
 10
140.17892290896594
 20
154.0
 10
138.19826291416308
 20
154.0
 10
137.13621520252877
 20
154.0
 10
137.13621520252877
 20
154.0
 10
138.19826291416308
 20
154.0
 10
140.17892290896594
 20
154.0
 10
142.81069607942334
 20
154.0
 10
145.7381468757064
 20
154.0
 10
148.5659068462123
 20
154.0
 10
150.91207133776527
 20
154.0
 10
152.45977783523483
 20
154.0
 10
153.0
 20
154.0
  0
LWPOLYLINE
  5
90
330
17
100
AcDbEntity
  8
TOP
100
AcDbPolyline
 90
2
 70
0
 10
177.5
 20
146.0
 10
177.5
 20
154.0
  0
LWPOLYLINE
  5
91
330
17
100
AcDbEntity
  8
TOP
100
AcDbPolyline
 90
2
 70
0
 10
153.0
 20
146.0
 10
153.0
 20
154.0
  0
LWPOLYLINE
  5
92
330
17
100
AcDbEntity
  8
TOP
100
AcDbPolyline
 90
2
 70
0
 10
34.0
 20
60.0
 10
34.0
 20
240.0
  0
LWPOLYLINE
  5
93
330
17
100
AcDbEntity
  8
TOP
100
AcDbPolyline
 90
16
 70
0
 10
34.0
 20
60.0
 10
33.6541818305704
 20
60.0
 10
32.67652242543544
 20
60.0
 10
31.236067977499786
 20
60.0
 10
29.581886146929385
 20
60.0
 10
28.0
 20
60.0
 10
26.763932022500214
 20
60.0
 10
26.087409597064777
 20
60.0
 10
26.087409597064777
 20
60.0
 10
26.763932022500214
 20
60.0
 10
28.0
 20
60.0
 10
29.581886146929385
 20
60.0
 10
31.236067977499786
 20
60.0
 10
32.67652242543544
 20
60.0
 10
33.6541818305704
 20
60.0
 10
34.0
 20
60.0
  0
LWPOLYLINE
  5
94
330
17
100
AcDbEntity
  8
TOP
100
AcDbPolyline
 90
16
 70
0
 10
34.0
 20
240.0
 10
33.6541818305704
 20
240.0
 10
32.67652242543544
 20
240.0
 10
31.236067977499786
 20
240.0
 10
29.581886146929385
 20
240.0
 10
28.0
 20
240.0
 10
26.763932022500214
 20
240.0
 10
26.087409597064777
 20
240.0
 10
26.087409597064777
 20
240.0
 10
26.763932022500214
 20
240.0
 10
28.0
 20
240.0
 10
29.581886146929385
 20
240.0
 10
31.236067977499786
 20
240.0
 10
32.67652242543544
 20
240.0
 10
33.6541818305704
 20
240.0
 10
34.0
 20
240.0
  0
LWPOLYLINE
  5
95
330
17
100
AcDbEntity
  8
TOP
100
AcDbPolyline
 90
2
 70
0
 10
17.5
 20
85.0
 10
17.5
 20
105.0
  0
LWPOLYLINE
  5
96
330
17
100
AcDbEntity
  8
TOP
100
AcDbPolyline
 90
2
 70
0
 10
17.5
 20
85.0
 10
17.5
 20
105.0
  0
LWPOLYLINE
  5
97
330
17
100
AcDbEntity
  8
TOP
100
AcDbPolyline
 90
2
 70
0
 10
17.5
 20
85.0
 10
42.5
 20
85.0
  0
LWPOLYLINE
  5
98
330
17
100
AcDbEntity
  8
TOP
100
AcDbPolyline
 90
2
 70
0
 10
17.5
 20
85.0
 10
42.5
 20
85.0
  0
LWPOLYLINE
  5
99
330
17
100
AcDbEntity
  8
TOP
100
AcDbPolyline
 90
16
 70
0
 10
34.5
 20
85.0
 10
34.1109545593917
 20
85.0
 10
33.01108772861486
 20
85.0
 10
31.390576474687265
 20
85.0
 10
29.529621915295557
 20
85.0
 10
27.75
 20
85.0
 10
26.359423525312735
 20
85.0
 10
25.59833579669788
 20
85.0
 10
25.59833579669788
 20
85.0
 10
26.359423525312735
 20
85.0
 10
27.75
 20
85.0
 10
29.529621915295557
 20
85.0
 10
31.390576474687265
 20
85.0
 10
33.01108772861486
 20
85.0
 10
34.1109545593917
 20
85.0
 10
34.5
 20
85.0
  0
LWPOLYLINE
  5
9A
330
17
100
AcDbEntity
  8
TOP
100
AcDbPolyline
 90
2
 70
0
 10
17.5
 20
105.0
 10
42.5
 20
105.0
  0
LWPOLYLINE
  5
9B
330
17
100
AcDbEntity
  8
TOP
100
AcDbPolyline
 90
2
 70
0
 10
42.5
 20
85.0
 10
42.5
 20
105.0
  0
LWPOLYLINE
  5
9C
330
17
100
AcDbEntity
  8
TOP
100
AcDbPolyline
 90
2
 70
0
 10
17.5
 20
105.0
 10
42.5
 20
105.0
  0
LWPOLYLINE
  5
9D
330
17
100
AcDbEntity
  8
TOP
100
AcDbPolyline
 90
16
 70
0
 10
34.5
 20
105.0
 10
34.1109545593917
 20
105.0
 10
33.01108772861486
 20
105.0
 10
31.390576474687265
 20
105.0
 10
29.529621915295557
 20
105.0
 10
27.75
 20
105.0
 10
26.359423525312735
 20
105.0
 10
25.59833579669788
 20
105.0
 10
25.59833579669788
 20
105.0
 10
26.359423525312735
 20
105.0
 10
27.75
 20
105.0
 10
29.529621915295557
 20
105.0
 10
31.390576474687265
 20
105.0
 10
33.01108772861486
 20
105.0
 10
34.1109545593917
 20
105.0
 10
34.5
 20
105.0
  0
LWPOLYLINE
  5
9E
330
17
100
AcDbEntity
  8
TOP
100
AcDbPolyline
 90
2
 70
0
 10
42.5
 20
85.0
 10
42.5
 20
105.0
  0
LWPOLYLINE
  5
9F
330
17
100
AcDbEntity
  8
TOP
100
AcDbPolyline
 90
2
 70
0
 10
34.5
 20
85.0
 10
34.5
 20
105.0
  0
LWPOLYLINE
  5
A0
330
17
100
AcDbEntity
  8
TOP
100
AcDbPolyline
 90
2
 70
0
 10
17.5
 20
175.0
 10
17.5
 20
195.0
  0
LWPOLYLINE
  5
A1
330
17
100
AcDbEntity
  8
TOP
100
AcDbPolyline
 90
2
 70
0
 10
17.5
 20
175.0
 10
17.5
 20
195.0
  0
LWPOLYLINE
  5
A2
330
17
100
AcDbEntity
  8
TOP
100
AcDbPolyline
 90
2
 70
0
 10
17.5
 20
175.0
 10
42.5
 20
175.0
  0
LWPOLYLINE
  5
A3
330
17
100
AcDbEntity
  8
TOP
100
AcDbPolyline
 90
2
 70
0
 10
17.5
 20
175.0
 10
42.5
 20
175.0
  0
LWPOLYLINE
  5
A4
330
17
100
AcDbEntity
  8
TOP
100
AcDbPolyline
 90
16
 70
0
 10
34.5
 20
175.0
 10
34.1109545593917
 20
175.0
 10
33.01108772861486
 20
175.0
 10
31.390576474687265
 20
175.0
 10
29.529621915295557
 20
175.0
 10
27.75
 20
175.0
 10
26.359423525312735
 20
175.0
 10
25.59833579669788
 20
175.0
 10
25.59833579669788
 20
175.0
 10
26.359423525312735
 20
175.0
 10
27.75
 20
175.0
 10
29.529621915295557
 20
175.0
 10
31.390576474687265
 20
175.0
 10
33.01108772861486
 20
175.0
 10
34.1109545593917
 20
175.0
 10
34.5
 20
175.0
  0
LWPOLYLINE
  5
A5
330
17
100
AcDbEntity
  8
TOP
100
AcDbPolyline
 90
2
 70
0
 10
17.5
 20
195.0
 10
42.5
 20
195.0
  0
LWPOLYLINE
  5
A6
330
17
100
AcDbEntity
  8
TOP
100
AcDbPolyline
 90
2
 70
0
 10
42.5
 20
175.0
 10
42.5
 20
195.0
  0
LWPOLYLINE
  5
A7
330
17
100
AcDbEntity
  8
TOP
100
AcDbPolyline
 90
2
 70
0
 10
17.5
 20
195.0
 10
42.5
 20
195.0
  0
LWPOLYLINE
  5
A8
330
17
100
AcDbEntity
  8
TOP
100
AcDbPolyline
 90
16
 70
0
 10
34.5
 20
195.0
 10
34.1109545593917
 20
195.0
 10
33.01108772861486
 20
195.0
 10
31.390576474687265
 20
195.0
 10
29.529621915295557
 20
195.0
 10
27.75
 20
195.0
 10
26.359423525312735
 20
195.0
 10
25.59833579669788
 20
195.0
 10
25.59833579669788
 20
195.0
 10
26.359423525312735
 20
195.0
 10
27.75
 20
195.0
 10
29.529621915295557
 20
195.0
 10
31.390576474687265
 20
195.0
 10
33.01108772861486
 20
195.0
 10
34.1109545593917
 20
195.0
 10
34.5
 20
195.0
  0
LWPOLYLINE
  5
A9
330
17
100
AcDbEntity
  8
TOP
100
AcDbPolyline
 90
2
 70
0
 10
42.5
 20
175.0
 10
42.5
 20
195.0
  0
LWPOLYLINE
  5
AA
330
17
100
AcDbEntity
  8
TOP
100
AcDbPolyline
 90
2
 70
0
 10
34.5
 20
175.0
 10
34.5
 20
195.0
  0
DIMENSION
  5
AB
330
17
100
AcDbEntity
  8
DIMENSIONS
100
AcDbDimension
280
0
  2
*D1
  3
Standard
 10
0.0
 20
-35.0
 30
0.0
 11
90.0
 21
-35.0
 31
0.0
 70
32
 71
5
  1
<>
100
AcDbAlignedDimension
 13
0.0
 23
0.0
 33
0.0
 14
180.0
 24
0.0
 34
0.0
 50
0.0
100
AcDbRotatedDimension
1001
ACAD
1000
DSTYLE
1002
{
1070
140
1040
2.5
1070
41
1040
2.5
1070
176
1070
7
1070
177
1070
7
1070
178
1070
7
1070
271
1070
2
1002
}
  0
DIMENSION
  5
BF
330
17
100
AcDbEntity
  8
DIMENSIONS
100
AcDbDimension
280
0
  2
*D2
  3
Standard
 10
-35.0
 20
0.0
 30
0.0
 11
-35.0
 21
150.0
 31
0.0
 70
32
 71
5
  1
<>
100
AcDbAlignedDimension
 13
0.0
 23
0.0
 33
0.0
 14
0.0
 24
300.0
 34
0.0
 50
90.0
100
AcDbRotatedDimension
1001
ACAD
1000
DSTYLE
1002
{
1070
140
1040
2.5
1070
41
1040
2.5
1070
176
1070
7
1070
177
1070
7
1070
178
1070
7
1070
271
1070
2
1002
}
  0
TEXT
  5
CF
330
17
100
AcDbEntity
  8
NOTES
100
AcDbText
 10
0.0
 20
320.0
 30
0.0
 40
4.0
  1
TOP
100
AcDbText
  0
LWPOLYLINE
  5
D0
330
17
100
AcDbEntity
  8
FRONT
100
AcDbPolyline
 90
64
 70
0
 10
120.0
 20
-192.0
 10
119.85092326096205
 20
-194.98703539787448
 10
119.40517463545632
 20
-197.94438429598193
 10
118.66718417358422
 20
-200.84265523232713
 10
117.64428635611223
 20
-203.65304388824086
 10
116.34664720110686
 20
-206.34761935863955
 10
114.78716322947984
 20
-208.89960174190867
 10
112.98133329356935
 20
-211.28362829059617
 10
110.9471045425822
 20
-213.47600547779155
 10
108.704694055762
 20
-215.45494447404087
 10
106.27638791597278
 20
-217.20077769452314
 10
103.6863197205949
 20
-218.69615426434405
 10
100.96023073099185
 20
-219.9262124593261
 10
98.12521404429016
 20
-220.87872740850037
 10
95.20944533000792
 20
-221.54423259036625
 10
92.24190280759274
 20
-221.9161139154354
 10
89.25207924785782
 20
-221.99067546002448
 10
86.26968886057546
 20
-221.76717619800516
 10
83.32437198131058
 20
-221.2478373654547
 10
80.44540049244948
 20
-220.43782038501396
 10
77.66138690608166
 20
-219.3451755693502
 10
75.0
 20
-217.98076211353316
 10
72.4876898329563
 20
-216.3581401714757
 10
70.14942487209423
 20
-214.49343608903203
 10
68.00844384510522
 20
-212.4051821331276
 10
66.08602478331234
 20
-210.11413230976433
 10
64.40127355103533
 20
-207.64305610138496
 10
62.97093396292743
 20
-205.01651217352676
 10
61.809221376422755
 20
-202.26060429977008
 10
60.927681413127665
 20
-199.40272193070882
 10
60.33507521324615
 20
-196.47126798528524
 10
60.03729236343233
 20
-193.4953765698209
 10
60.03729236343233
 20
-190.5046234301791
 10
60.33507521324614
 20
-187.52873201471476
 10
60.92768141312766
 20
-184.5972780692912
 10
61.80922137642275
 20
-181.73939570022992
 10
62.97093396292742
 20
-178.98348782647327
 10
64.40127355103532
 20
-176.35694389861507
 10
66.08602478331231
 20
-173.8858676902357
 10
68.0084438451052
 20
-171.59481786687243
 10
70.14942487209422
 20
-169.506563910968
 10
72.4876898329563
 20
-167.6418598285243
 10
74.99999999999999
 20
-166.01923788646684
 10
77.66138690608165
 20
-164.6548244306498
 10
80.44540049244945
 20
-163.56217961498606
 10
83.32437198131053
 20
-162.7521626345453
 10
86.26968886057543
 20
-162.23282380199484
 10
89.25207924785781
 20
-162.00932453997552
 10
92.24190280759271
 20
-162.0838860845646
 10
95.2094453300079
 20
-162.45576740963375
 10
98.12521404429013
 20
-163.12127259149963
 10
100.96023073099184
 20
-164.07378754067386
 10
103.68631972059488
 20
-165.30384573565595
 10
106.27638791597276
 20
-166.79922230547686
 10
108.70469405576198
 20
-168.54505552595907
 10
110.94710454258217
 20
-170.52399452220843
 10
112.98133329356932
 20
-172.7163717094038
 10
114.78716322947983
 20
-175.10039825809133
 10
116.34664720110685
 20
-177.65238064136042
 10
117.64428635611223
 20
-180.34695611175914
 10
118.66718417358422
 20
-183.15734476767284
 10
119.4051746354563
 20
-186.05561570401804
 10
119.85092326096203
 20
-189.01296460212546
 10
120.0
 20
-191.99999999999997
  0
LWPOLYLINE
  5
D1
330
17
100
AcDbEntity
  8
FRONT
100
AcDbPolyline
 90
64
 70
0
 10
120.0
 20
-191.99999999999997
 10
119.85092326096205
 20
-194.98703539787448
 10
119.40517463545632
 20
-197.94438429598188
 10
118.66718417358422
 20
-200.8426552323271
 10
117.64428635611223
 20
-203.6530438882408
 10
116.34664720110686
 20
-206.34761935863952
 10
114.78716322947984
 20
-208.8996017419086
 10
112.98133329356935
 20
-211.28362829059614
 10
110.9471045425822
 20
-213.47600547779152
 10
108.704694055762
 20
-215.45494447404087
 10
106.27638791597278
 20
-217.2007776945231
 10
103.6863197205949
 20
-218.69615426434405
 10
100.96023073099185
 20
-219.9262124593261
 10
98.12521404429016
 20
-220.87872740850034
 10
95.20944533000792
 20
-221.54423259036622
 10
92.24190280759274
 20
-221.91611391543537
 10
89.25207924785782
 20
-221.99067546002448
 10
86.26968886057546
 20
-221.76717619800513
 10
83.32437198131058
 20
-221.24783736545467
 10
80.44540049244948
 20
-220.43782038501394
 10
77.66138690608166
 20
-219.34517556935018
 10
75.0
 20
-217.98076211353313
 10
72.4876898329563
 20
-216.35814017147567
 10
70.14942487209423
 20
-214.493436089032
 10
68.00844384510522
 20
-212.40518213312757
 10
66.08602478331234
 20
-210.1141323097643
 10
64.40127355103533
 20
-207.6430561013849
 10
62.97093396292743
 20
-205.01651217352673
 10
61.809221376422755
 20
-202.26060429977005
 10
60.927681413127665
 20
-199.4027219307088
 10
60.33507521324615
 20
-196.47126798528524
 10
60.03729236343233
 20
-193.4953765698209
 10
60.03729236343233
 20
-190.5046234301791
 10
60.33507521324614
 20
-187.52873201471473
 10
60.92768141312766
 20
-184.59727806929118
 10
61.80922137642275
 20
-181.73939570022992
 10
62.97093396292742
 20
-178.98348782647324
 10
64.40127355103532
 20
-176.35694389861504
 10
66.08602478331231
 20
-173.88586769023567
 10
68.0084438451052
 20
-171.5948178668724
 10
70.14942487209422
 20
-169.50656391096794
 10
72.4876898329563
 20
-167.64185982852428
 10
74.99999999999999
 20
-166.0192378864668
 10
77.66138690608165
 20
-164.6548244306498
 10
80.44540049244945
 20
-163.56217961498604
 10
83.32437198131053
 20
-162.75216263454527
 10
86.26968886057543
 20
-162.2328238019948
 10
89.25207924785781
 20
-162.0093245399755
 10
92.24190280759271
 20
-162.08388608456457
 10
95.2094453300079
 20
-162.45576740963372
 10
98.12521404429013
 20
-163.1212725914996
 10
100.96023073099184
 20
-164.07378754067383
 10
103.68631972059488
 20
-165.3038457356559
 10
106.27638791597276
 20
-166.7992223054768
 10
108.70469405576198
 20
-168.54505552595907
 10
110.94710454258217
 20
-170.5239945222084
 10
112.98133329356932
 20
-172.71637170940375
 10
114.78716322947983
 20
-175.10039825809127
 10
116.34664720110685
 20
-177.65238064136042
 10
117.64428635611223
 20
-180.34695611175914
 10
118.66718417358422
 20
-183.1573447676728
 10
119.4051746354563
 20
-186.055615704018
 10
119.85092326096203
 20
-189.01296460212546
 10
120.0
 20
-191.99999999999994
  0
LWPOLYLINE
  5
D2
330
17
100
AcDbEntity
  8
FRONT
100
AcDbPolyline
 90
2
 70
0
 10
0.0
 20
-292.0
 10
0.0
 20
-284.0
  0
LWPOLYLINE
  5
D3
330
17
100
AcDbEntity
  8
FRONT
100
AcDbPolyline
 90
2
 70
0
 10
0.0
 20
-292.0
 10
0.0
 20
-284.0
  0
LWPOLYLINE
  5
D4
330
17
100
AcDbEntity
  8
FRONT
100
AcDbPolyline
 90
2
 70
0
 10
0.0
 20
-292.0
 10
180.0
 20
-292.0
  0
LWPOLYLINE
  5
D5
330
17
100
AcDbEntity
  8
FRONT
100
AcDbPolyline
 90
2
 70
0
 10
180.0
 20
-292.0
 10
180.0
 20
-284.0
  0
LWPOLYLINE
  5
D6
330
17
100
AcDbEntity
  8
FRONT
100
AcDbPolyline
 90
2
 70
0
 10
0.0
 20
-284.0
 10
180.0
 20
-284.0
  0
LWPOLYLINE
  5
D7
330
17
100
AcDbEntity
  8
FRONT
100
AcDbPolyline
 90
2
 70
0
 10
0.0
 20
-284.0
 10
180.0
 20
-284.0
  0
LWPOLYLINE
  5
D8
330
17
100
AcDbEntity
  8
FRONT
100
AcDbPolyline
 90
16
 70
0
 10
25.25
 20
-284.0
 10
24.79611365262366
 20
-284.0
 10
23.512935683384
 20
-284.0
 10
21.622339220468476
 20
-284.0
 10
19.451225567844816
 20
-284.0
 10
17.375
 20
-284.0
 10
15.752660779531524
 20
-284.0
 10
14.864725096147524
 20
-284.0
 10
14.864725096147524
 20
-284.0
 10
15.752660779531524
 20
-284.0
 10
17.375
 20
-284.0
 10
19.451225567844816
 20
-284.0
 10
21.622339220468476
 20
-284.0
 10
23.512935683384
 20
-284.0
 10
24.79611365262366
 20
-284.0
 10
25.25
 20
-284.0
  0
LWPOLYLINE
  5
D9
330
17
100
AcDbEntity
  8
FRONT
100
AcDbPolyline
 90
16
 70
0
 10
165.25
 20
-284.0
 10
164.79611365262366
 20
-284.0
 10
163.512935683384
 20
-284.0
 10
161.62233922046846
 20
-284.0
 10
159.4512255678448
 20
-284.0
 10
157.375
 20
-284.0
 10
155.75266077953154
 20
-284.0
 10
154.86472509614754
 20
-284.0
 10
154.86472509614754
 20
-284.0
 10
155.75266077953154
 20
-284.0
 10
157.375
 20
-284.0
 10
159.4512255678448
 20
-284.0
 10
161.62233922046846
 20
-284.0
 10
163.512935683384
 20
-284.0
 10
164.79611365262366
 20
-284.0
 10
165.25
 20
-284.0
  0
LWPOLYLINE
  5
DA
330
17
100
AcDbEntity
  8
FRONT
100
AcDbPolyline
 90
16
 70
0
 10
25.25
 20
-284.0
 10
24.79611365262366
 20
-284.0
 10
23.512935683384
 20
-284.0
 10
21.622339220468476
 20
-284.0
 10
19.451225567844816
 20
-284.0
 10
17.375
 20
-284.0
 10
15.752660779531524
 20
-284.0
 10
14.864725096147524
 20
-284.0
 10
14.864725096147524
 20
-284.0
 10
15.752660779531524
 20
-284.0
 10
17.375
 20
-284.0
 10
19.451225567844816
 20
-284.0
 10
21.622339220468476
 20
-284.0
 10
23.512935683384
 20
-284.0
 10
24.79611365262366
 20
-284.0
 10
25.25
 20
-284.0
  0
LWPOLYLINE
  5
DB
330
17
100
AcDbEntity
  8
FRONT
100
AcDbPolyline
 90
16
 70
0
 10
165.25
 20
-284.0
 10
164.79611365262366
 20
-284.0
 10
163.512935683384
 20
-284.0
 10
161.62233922046846
 20
-284.0
 10
159.4512255678448
 20
-284.0
 10
157.375
 20
-284.0
 10
155.75266077953154
 20
-284.0
 10
154.86472509614754
 20
-284.0
 10
154.86472509614754
 20
-284.0
 10
155.75266077953154
 20
-284.0
 10
157.375
 20
-284.0
 10
159.4512255678448
 20
-284.0
 10
161.62233922046846
 20
-284.0
 10
163.512935683384
 20
-284.0
 10
164.79611365262366
 20
-284.0
 10
165.25
 20
-284.0
  0
LWPOLYLINE
  5
DC
330
17
100
AcDbEntity
  8
FRONT
100
AcDbPolyline
 90
2
 70
0
 10
0.0
 20
-292.0
 10
180.0
 20
-292.0
  0
LWPOLYLINE
  5
DD
330
17
100
AcDbEntity
  8
FRONT
100
AcDbPolyline
 90
2
 70
0
 10
180.0
 20
-292.0
 10
180.0
 20
-284.0
  0
LWPOLYLINE
  5
DE
330
17
100
AcDbEntity
  8
FRONT
100
AcDbPolyline
 90
16
 70
0
 10
25.25
 20
-292.0
 10
24.79611365262366
 20
-292.0
 10
23.512935683384
 20
-292.0
 10
21.622339220468476
 20
-292.0
 10
19.451225567844816
 20
-292.0
 10
17.375
 20
-292.0
 10
15.752660779531524
 20
-292.0
 10
14.864725096147524
 20
-292.0
 10
14.864725096147524
 20
-292.0
 10
15.752660779531524
 20
-292.0
 10
17.375
 20
-292.0
 10
19.451225567844816
 20
-292.0
 10
21.622339220468476
 20
-292.0
 10
23.512935683384
 20
-292.0
 10
24.79611365262366
 20
-292.0
 10
25.25
 20
-292.0
  0
LWPOLYLINE
  5
DF
330
17
100
AcDbEntity
  8
FRONT
100
AcDbPolyline
 90
16
 70
0
 10
165.25
 20
-292.0
 10
164.79611365262366
 20
-292.0
 10
163.512935683384
 20
-292.0
 10
161.62233922046846
 20
-292.0
 10
159.4512255678448
 20
-292.0
 10
157.375
 20
-292.0
 10
155.75266077953154
 20
-292.0
 10
154.86472509614754
 20
-292.0
 10
154.86472509614754
 20
-292.0
 10
155.75266077953154
 20
-292.0
 10
157.375
 20
-292.0
 10
159.4512255678448
 20
-292.0
 10
161.62233922046846
 20
-292.0
 10
163.512935683384
 20
-292.0
 10
164.79611365262366
 20
-292.0
 10
165.25
 20
-292.0
  0
LWPOLYLINE
  5
E0
330
17
100
AcDbEntity
  8
FRONT
100
AcDbPolyline
 90
16
 70
0
 10
25.25
 20
-292.0
 10
24.79611365262366
 20
-292.0
 10
23.512935683384
 20
-292.0
 10
21.622339220468476
 20
-292.0
 10
19.451225567844816
 20
-292.0
 10
17.375
 20
-292.0
 10
15.752660779531524
 20
-292.0
 10
14.864725096147524
 20
-292.0
 10
14.864725096147524
 20
-292.0
 10
15.752660779531524
 20
-292.0
 10
17.375
 20
-292.0
 10
19.451225567844816
 20
-292.0
 10
21.622339220468476
 20
-292.0
 10
23.512935683384
 20
-292.0
 10
24.79611365262366
 20
-292.0
 10
25.25
 20
-292.0
  0
LWPOLYLINE
  5
E1
330
17
100
AcDbEntity
  8
FRONT
100
AcDbPolyline
 90
16
 70
0
 10
165.25
 20
-292.0
 10
164.79611365262366
 20
-292.0
 10
163.512935683384
 20
-292.0
 10
161.62233922046846
 20
-292.0
 10
159.4512255678448
 20
-292.0
 10
157.375
 20
-292.0
 10
155.75266077953154
 20
-292.0
 10
154.86472509614754
 20
-292.0
 10
154.86472509614754
 20
-292.0
 10
155.75266077953154
 20
-292.0
 10
157.375
 20
-292.0
 10
159.4512255678448
 20
-292.0
 10
161.62233922046846
 20
-292.0
 10
163.512935683384
 20
-292.0
 10
164.79611365262366
 20
-292.0
 10
165.25
 20
-292.0
  0
LWPOLYLINE
  5
E2
330
17
100
AcDbEntity
  8
FRONT
100
AcDbPolyline
 90
2
 70
0
 10
25.25
 20
-292.0
 10
25.25
 20
-284.0
  0
LWPOLYLINE
  5
E3
330
17
100
AcDbEntity
  8
FRONT
100
AcDbPolyline
 90
2
 70
0
 10
165.25
 20
-292.0
 10
165.25
 20
-284.0
  0
LWPOLYLINE
  5
E4
330
17
100
AcDbEntity
  8
FRONT
100
AcDbPolyline
 90
2
 70
0
 10
25.25
 20
-292.0
 10
25.25
 20
-284.0
  0
LWPOLYLINE
  5
E5
330
17
100
AcDbEntity
  8
FRONT
100
AcDbPolyline
 90
2
 70
0
 10
165.25
 20
-292.0
 10
165.25
 20
-284.0
  0
LWPOLYLINE
  5
E6
330
17
100
AcDbEntity
  8
FRONT
100
AcDbPolyline
 90
18
 70
0
 10
131.98809355043403
 20
-193.0
 10
131.81721995709427
 20
-195.9140918563566
 10
131.44434526896802
 20
-198.80927640991086
 10
130.8712706841095
 20
-201.67156826301982
 10
130.10076448060255
 20
-204.48714090860048
 10
129.136548644194
 20
-207.2423935200689
 10
127.98328088897293
 20
-209.92401665111322
 10
126.64653215794746
 20
-212.51905652793332
 10
125.13275971220281
 20
-215.01497762337863
 10
123.44927593863635
 20
-217.3997232107156
 10
121.60421302694562
 20
-219.66177360451496
 10
119.60648368649997
 20
-221.79020180732266
 10
117.46573809285559
 20
-223.77472629330836
 10
115.19231727188694
 20
-225.60576067391702
 10
112.79720314671607
 20
-227.2744600056097
 10
110.29196548874147
 20
-228.77276351600088
 10
107.68870602902342
 20
-230.09343354200024
 10
105.00000000000009
 20
-231.23009049186604
  0
LWPOLYLINE
  5
E7
330
17
100
AcDbEntity
  8
FRONT
100
AcDbPolyline
 90
18
 70
0
 10
131.98809355043403
 20
-193.0
 10
131.81721995709427
 20
-195.9140918563566
 10
131.44434526896802
 20
-198.80927640991086
 10
130.8712706841095
 20
-201.67156826301982
 10
130.10076448060255
 20
-204.48714090860048
 10
129.136548644194
 20
-207.2423935200689
 10
127.98328088897293
 20
-209.92401665111322
 10
126.64653215794746
 20
-212.51905652793332
 10
125.13275971220281
 20
-215.01497762337863
 10
123.44927593863635
 20
-217.3997232107156
 10
121.60421302694562
 20
-219.66177360451496
 10
119.60648368649997
 20
-221.79020180732266
 10
117.46573809285559
 20
-223.77472629330836
 10
115.19231727188694
 20
-225.60576067391702
 10
112.79720314671607
 20
-227.2744600056097
 10
110.29196548874147
 20
-228.77276351600088
 10
107.68870602902342
 20
-230.09343354200024
 10
105.00000000000009
 20
-231.23009049186604
  0
LWPOLYLINE
  5
E8
330
17
100
AcDbEntity
  8
FRONT
100
AcDbPolyline
 90
33
 70
0
 10
120.98386676965933
 20
-193.0
 10
120.74472206055036
 20
-195.97014677556234
 10
120.22151780853875
 20
-198.90361219566793
 10
119.41908805181743
 20
-201.77329310925506
 10
118.34484667526253
 20
-204.55267568910546
 10
117.0087189113673
 20
-207.2160804009032
 10
115.42304963809562
 20
-209.7388992640165
 10
113.60248932091842
 20
-212.09782321187873
 10
111.56385865284783
 20
-214.27105745132008
 10
109.32599314309996
 20
-216.23852283108135
 10
106.90956909027742
 20
-217.9820413590067
 10
104.33691254795619
 20
-219.48550415386728
 10
101.63179304770071
 20
-220.73502028006004
 10
98.81920398536037
 20
-221.71904509005302
 10
95.92513169972361
 20
-222.4284868887845
 10
92.97631537707954
 20
-222.85679093451165
 10
90.0
 20
-223.0
 10
87.02368462292044
 20
-222.85679093451165
 10
84.07486830027639
 20
-222.4284868887845
 10
81.18079601463963
 20
-221.719045090053
 10
78.36820695229929
 20
-220.73502028006004
 10
75.6630874520438
 20
-219.48550415386728
 10
73.09043090972257
 20
-217.9820413590067
 10
70.67400685690004
 20
-216.23852283108138
 10
68.43614134715217
 20
-214.27105745132008
 10
66.39751067908158
 20
-212.09782321187873
 10
64.57695036190438
 20
-209.7388992640165
 10
62.991281088632704
 20
-207.2160804009032
 10
61.65515332473747
 20
-204.55267568910546
 10
60.58091194818257
 20
-201.77329310925506
 10
59.77848219146125
 20
-198.90361219566793
 10
59.25527793944964
 20
-195.97014677556234
 10
59.016133230340664
 20
-193.0
  0
LWPOLYLINE
  5
E9
330
17
100
AcDbEntity
  8
FRONT
100
AcDbPolyline
 90
2
 70
0
 10
120.98386676965933
 20
-193.0
 10
131.98809355043403
 20
-193.0
  0
LWPOLYLINE
  5
EA
330
17
100
AcDbEntity
  8
FRONT
100
AcDbPolyline
 90
2
 70
0
 10
105.0
 20
-284.0
 10
105.0
 20
-231.230090491866
  0
LWPOLYLINE
  5
EB
330
17
100
AcDbEntity
  8
FRONT
100
AcDbPolyline
 90
2
 70
0
 10
75.0
 20
-284.0
 10
105.0
 20
-284.0
  0
LWPOLYLINE
  5
EC
330
17
100
AcDbEntity
  8
FRONT
100
AcDbPolyline
 90
2
 70
0
 10
75.0
 20
-284.0
 10
75.0
 20
-231.230090491866
  0
LWPOLYLINE
  5
ED
330
17
100
AcDbEntity
  8
FRONT
100
AcDbPolyline
 90
18
 70
0
 10
74.99999999999993
 20
-231.23009049186604
 10
72.31129397097659
 20
-230.09343354200027
 10
69.70803451125855
 20
-228.77276351600088
 10
67.20279685328394
 20
-227.2744600056097
 10
64.80768272811306
 20
-225.60576067391702
 10
62.534261907144426
 20
-223.7747262933084
 10
60.39351631350004
 20
-221.79020180732266
 10
58.39578697305439
 20
-219.66177360451496
 10
56.55072406136366
 20
-217.3997232107156
 10
54.867240287797195
 20
-215.01497762337863
 10
53.353467842052545
 20
-212.51905652793332
 10
52.01671911102708
 20
-209.92401665111322
 10
50.86345135580601
 20
-207.2423935200689
 10
49.899235519397436
 20
-204.48714090860048
 10
49.12872931589051
 20
-201.67156826301982
 10
48.55565473103199
 20
-198.8092764099109
 10
48.18278004290573
 20
-195.9140918563566
 10
48.01190644956597
 20
-193.0
  0
LWPOLYLINE
  5
EE
330
17
100
AcDbEntity
  8
FRONT
100
AcDbPolyline
 90
2
 70
0
 10
48.01190644956597
 20
-193.0
 10
59.016133230340664
 20
-193.0
  0
LWPOLYLINE
  5
EF
330
17
100
AcDbEntity
  8
FRONT
100
AcDbPolyline
 90
2
 70
0
 10
105.0
 20
-284.0
 10
105.0
 20
-231.230090491866
  0
LWPOLYLINE
  5
F0
330
17
100
AcDbEntity
  8
FRONT
100
AcDbPolyline
 90
33
 70
0
 10
120.98386676965933
 20
-193.0
 10
120.74472206055036
 20
-195.97014677556234
 10
120.22151780853875
 20
-198.90361219566793
 10
119.41908805181743
 20
-201.77329310925506
 10
118.34484667526253
 20
-204.55267568910546
 10
117.0087189113673
 20
-207.2160804009032
 10
115.42304963809562
 20
-209.7388992640165
 10
113.60248932091842
 20
-212.09782321187873
 10
111.56385865284783
 20
-214.27105745132008
 10
109.32599314309996
 20
-216.23852283108135
 10
106.90956909027742
 20
-217.9820413590067
 10
104.33691254795619
 20
-219.48550415386728
 10
101.63179304770071
 20
-220.73502028006004
 10
98.81920398536037
 20
-221.71904509005302
 10
95.92513169972361
 20
-222.4284868887845
 10
92.97631537707954
 20
-222.85679093451165
 10
90.0
 20
-223.0
 10
87.02368462292044
 20
-222.85679093451165
 10
84.07486830027639
 20
-222.4284868887845
 10
81.18079601463963
 20
-221.719045090053
 10
78.36820695229929
 20
-220.73502028006004
 10
75.6630874520438
 20
-219.48550415386728
 10
73.09043090972257
 20
-217.9820413590067
 10
70.67400685690004
 20
-216.23852283108138
 10
68.43614134715217
 20
-214.27105745132008
 10
66.39751067908158
 20
-212.09782321187873
 10
64.57695036190438
 20
-209.7388992640165
 10
62.991281088632704
 20
-207.2160804009032
 10
61.65515332473747
 20
-204.55267568910546
 10
60.58091194818257
 20
-201.77329310925506
 10
59.77848219146125
 20
-198.90361219566793
 10
59.25527793944964
 20
-195.97014677556234
 10
59.016133230340664
 20
-193.0
  0
LWPOLYLINE
  5
F1
330
17
100
AcDbEntity
  8
FRONT
100
AcDbPolyline
 90
2
 70
0
 10
120.98386676965933
 20
-193.0
 10
131.98809355043403
 20
-193.0
  0
LWPOLYLINE
  5
F2
330
17
100
AcDbEntity
  8
FRONT
100
AcDbPolyline
 90
2
 70
0
 10
75.0
 20
-284.0
 10
105.0
 20
-284.0
  0
LWPOLYLINE
  5
F3
330
17
100
AcDbEntity
  8
FRONT
100
AcDbPolyline
 90
2
 70
0
 10
75.0
 20
-284.0
 10
75.0
 20
-231.230090491866
  0
LWPOLYLINE
  5
F4
330
17
100
AcDbEntity
  8
FRONT
100
AcDbPolyline
 90
18
 70
0
 10
74.99999999999993
 20
-231.23009049186604
 10
72.31129397097659
 20
-230.09343354200027
 10
69.70803451125855
 20
-228.77276351600088
 10
67.20279685328394
 20
-227.2744600056097
 10
64.80768272811306
 20
-225.60576067391702
 10
62.534261907144426
 20
-223.7747262933084
 10
60.39351631350004
 20
-221.79020180732266
 10
58.39578697305439
 20
-219.66177360451496
 10
56.55072406136366
 20
-217.3997232107156
 10
54.867240287797195
 20
-215.01497762337863
 10
53.353467842052545
 20
-212.51905652793332
 10
52.01671911102708
 20
-209.92401665111322
 10
50.86345135580601
 20
-207.2423935200689
 10
49.899235519397436
 20
-204.48714090860048
 10
49.12872931589051
 20
-201.67156826301982
 10
48.55565473103199
 20
-198.8092764099109
 10
48.18278004290573
 20
-195.9140918563566
 10
48.01190644956597
 20
-193.0
  0
LWPOLYLINE
  5
F5
330
17
100
AcDbEntity
  8
FRONT
100
AcDbPolyline
 90
2
 70
0
 10
48.01190644956597
 20
-193.0
 10
59.016133230340664
 20
-193.0
  0
LWPOLYLINE
  5
F6
330
17
100
AcDbEntity
  8
FRONT
100
AcDbPolyline
 90
44
 70
0
 10
48.04764607319394
 20
-190.0
 10
48.29445137753526
 20
-187.03540393393084
 10
48.75048761962472
 20
-184.09571455593445
 10
49.41346692905344
 20
-181.1956798788188
 10
50.280063230821774
 20
-178.349848973272
 10
51.34592893179507
 20
-175.57249897719794
 10
52.60571673197383
 20
-172.87756346930084
 10
54.05310645115418
 20
-170.2785625662585
 10
55.68083673639309
 20
-167.78853509417712
 10
57.480741491206224
 20
-165.41997317461392
 10
59.44379084373854
 20
-163.18475955334046
 10
61.56013644837551
 20
-161.09410798625964
 10
63.81916089352367
 20
-159.1585069815515
 10
66.20953096768795
 20
-157.3876671802867
 10
68.71925451661791
 20
-155.79047263949013
 10
71.33574060627774
 20
-154.37493626206262
 10
74.04586268981149
 20
-153.14815959716128
 10
76.83602446160329
 20
-152.1162972127149
 10
79.69222806805185
 20
-151.28452581881254
 10
82.60014433285525
 20
-150.65701829686898
 10
85.54518464449598
 20
-150.23692276485883
 10
88.51257414527612
 20
-150.02634678364655
 10
91.48742585472382
 20
-150.02634678364655
 10
94.45481535550401
 20
-150.23692276485883
 10
97.39985566714473
 20
-150.65701829686898
 10
100.30777193194814
 20
-151.28452581881254
 10
103.16397553839666
 20
-152.11629721271487
 10
105.9541373101885
 20
-153.14815959716128
 10
108.66425939372225
 20
-154.37493626206262
 10
111.28074548338205
 20
-155.7904726394901
 10
113.79046903231203
 20
-157.3876671802867
 10
116.18083910647631
 20
-159.1585069815515
 10
118.43986355162446
 20
-161.0941079862596
 10
120.55620915626145
 20
-163.18475955334046
 10
122.51925850879374
 20
-165.4199731746139
 10
124.3191632636069
 20
-167.7885350941771
 10
125.9468935488458
 20
-170.27856256625844
 10
127.39428326802616
 20
-172.8775634693008
 10
128.65407106820493
 20
-175.57249897719794
 10
129.71993676917822
 20
-178.34984897327195
 10
130.58653307094656
 20
-181.19567987881874
 10
131.24951238037528
 20
-184.09571455593442
 10
131.70554862246473
 20
-187.0354039339308
 10
131.95235392680607
 20
-190.0
  0
LWPOLYLINE
  5
F7
330
17
100
AcDbEntity
  8
FRONT
100
AcDbPolyline
 90
44
 70
0
 10
48.04764607319394
 20
-190.0
 10
48.29445137753526
 20
-187.03540393393084
 10
48.75048761962472
 20
-184.09571455593445
 10
49.41346692905344
 20
-181.1956798788188
 10
50.280063230821774
 20
-178.349848973272
 10
51.34592893179507
 20
-175.57249897719794
 10
52.60571673197383
 20
-172.87756346930084
 10
54.05310645115418
 20
-170.2785625662585
 10
55.68083673639309
 20
-167.78853509417712
 10
57.480741491206224
 20
-165.41997317461392
 10
59.44379084373854
 20
-163.18475955334046
 10
61.56013644837551
 20
-161.09410798625964
 10
63.81916089352367
 20
-159.1585069815515
 10
66.20953096768795
 20
-157.3876671802867
 10
68.71925451661791
 20
-155.79047263949013
 10
71.33574060627774
 20
-154.37493626206262
 10
74.04586268981149
 20
-153.14815959716128
 10
76.83602446160329
 20
-152.1162972127149
 10
79.69222806805185
 20
-151.28452581881254
 10
82.60014433285525
 20
-150.65701829686898
 10
85.54518464449598
 20
-150.23692276485883
 10
88.51257414527612
 20
-150.02634678364655
 10
91.48742585472382
 20
-150.02634678364655
 10
94.45481535550401
 20
-150.23692276485883
 10
97.39985566714473
 20
-150.65701829686898
 10
100.30777193194814
 20
-151.28452581881254
 10
103.16397553839666
 20
-152.11629721271487
 10
105.9541373101885
 20
-153.14815959716128
 10
108.66425939372225
 20
-154.37493626206262
 10
111.28074548338205
 20
-155.7904726394901
 10
113.79046903231203
 20
-157.3876671802867
 10
116.18083910647631
 20
-159.1585069815515
 10
118.43986355162446
 20
-161.0941079862596
 10
120.55620915626145
 20
-163.18475955334046
 10
122.51925850879374
 20
-165.4199731746139
 10
124.3191632636069
 20
-167.7885350941771
 10
125.9468935488458
 20
-170.27856256625844
 10
127.39428326802616
 20
-172.8775634693008
 10
128.65407106820493
 20
-175.57249897719794
 10
129.71993676917822
 20
-178.34984897327195
 10
130.58653307094656
 20
-181.19567987881874
 10
131.24951238037528
 20
-184.09571455593442
 10
131.70554862246473
 20
-187.0354039339308
 10
131.95235392680607
 20
-190.0
  0
LWPOLYLINE
  5
F8
330
17
100
AcDbEntity
  8
FRONT
100
AcDbPolyline
 90
2
 70
0
 10
48.04764607319394
 20
-190.0
 10
59.064583403483965
 20
-190.0
  0
LWPOLYLINE
  5
F9
330
17
100
AcDbEntity
  8
FRONT
100
AcDbPolyline
 90
33
 70
0
 10
59.064583403483965
 20
-190.0
 10
59.38956288111443
 20
-187.1009042272321
 10
59.98562048914588
 20
-184.245193582144
 10
60.84747769524738
 20
-181.45815750113383
 10
61.96750211445182
 20
-178.7644772563855
 10
63.33577509958724
 20
-176.18800738489267
 10
64.94017957825616
 20
-173.7515644388361
 10
66.76650735850117
 20
-171.47672492808664
 10
68.7985849528858
 20
-169.3836342442027
 10
71.01841680672467
 20
-167.4908282580425
 10
73.40634466207112
 20
-165.8150691708757
 10
75.94122164617566
 20
-164.3711970726555
 10
78.60059954273287
 20
-163.17199852201236
 10
81.36092758749106
 20
-162.22809331179096
 10
84.19776102774182
 20
-161.54784042290584
 10
87.08597759874081
 20
-161.1372639993639
 10
90.0
 20
-161.0
 10
92.91402240125917
 20
-161.1372639993639
 10
95.80223897225817
 20
-161.54784042290584
 10
98.63907241250894
 20
-162.22809331179093
 10
101.39940045726712
 20
-163.17199852201236
 10
104.05877835382434
 20
-164.3711970726555
 10
106.59365533792885
 20
-165.8150691708757
 10
108.98158319327533
 20
-167.4908282580425
 10
111.20141504711418
 20
-169.3836342442027
 10
113.2334926414988
 20
-171.47672492808664
 10
115.05982042174384
 20
-173.7515644388361
 10
116.66422490041273
 20
-176.18800738489264
 10
118.03249788554818
 20
-178.7644772563855
 10
119.15252230475261
 20
-181.4581575011338
 10
120.01437951085413
 20
-184.245193582144
 10
120.61043711888557
 20
-187.1009042272321
 10
120.93541659651603
 20
-190.0
  0
LWPOLYLINE
  5
FA
330
17
100
AcDbEntity
  8
FRONT
100
AcDbPolyline
 90
2
 70
0
 10
120.93541659651603
 20
-190.0
 10
131.95235392680607
 20
-190.0
  0
LWPOLYLINE
  5
FB
330
17
100
AcDbEntity
  8
FRONT
100
AcDbPolyline
 90
2
 70
0
 10
120.93541659651603
 20
-190.0
 10
131.95235392680607
 20
-190.0
  0
LWPOLYLINE
  5
FC
330
17
100
AcDbEntity
  8
FRONT
100
AcDbPolyline
 90
2
 70
0
 10
48.04764607319394
 20
-190.0
 10
59.064583403483965
 20
-190.0
  0
LWPOLYLINE
  5
FD
330
17
100
AcDbEntity
  8
FRONT
100
AcDbPolyline
 90
33
 70
0
 10
59.064583403483965
 20
-190.0
 10
59.38956288111443
 20
-187.1009042272321
 10
59.98562048914588
 20
-184.245193582144
 10
60.84747769524738
 20
-181.45815750113383
 10
61.96750211445182
 20
-178.7644772563855
 10
63.33577509958724
 20
-176.18800738489267
 10
64.94017957825616
 20
-173.7515644388361
 10
66.76650735850117
 20
-171.47672492808664
 10
68.7985849528858
 20
-169.3836342442027
 10
71.01841680672467
 20
-167.4908282580425
 10
73.40634466207112
 20
-165.8150691708757
 10
75.94122164617566
 20
-164.3711970726555
 10
78.60059954273287
 20
-163.17199852201236
 10
81.36092758749106
 20
-162.22809331179096
 10
84.19776102774182
 20
-161.54784042290584
 10
87.08597759874081
 20
-161.1372639993639
 10
90.0
 20
-161.0
 10
92.91402240125917
 20
-161.1372639993639
 10
95.80223897225817
 20
-161.54784042290584
 10
98.63907241250894
 20
-162.22809331179093
 10
101.39940045726712
 20
-163.17199852201236
 10
104.05877835382434
 20
-164.3711970726555
 10
106.59365533792885
 20
-165.8150691708757
 10
108.98158319327533
 20
-167.4908282580425
 10
111.20141504711418
 20
-169.3836342442027
 10
113.2334926414988
 20
-171.47672492808664
 10
115.05982042174384
 20
-173.7515644388361
 10
116.66422490041273
 20
-176.18800738489264
 10
118.03249788554818
 20
-178.7644772563855
 10
119.15252230475261
 20
-181.4581575011338
 10
120.01437951085413
 20
-184.245193582144
 10
120.61043711888557
 20
-187.1009042272321
 10
120.93541659651603
 20
-190.0
  0
LWPOLYLINE
  5
FE
330
17
100
AcDbEntity
  8
FRONT
100
AcDbPolyline
 90
18
 70
0
 10
131.98809355043403
 20
-193.0
 10
131.81721995709427
 20
-195.9140918563566
 10
131.44434526896802
 20
-198.80927640991086
 10
130.8712706841095
 20
-201.67156826301982
 10
130.10076448060255
 20
-204.48714090860048
 10
129.136548644194
 20
-207.2423935200689
 10
127.98328088897293
 20
-209.92401665111322
 10
126.64653215794746
 20
-212.51905652793332
 10
125.13275971220281
 20
-215.01497762337863
 10
123.44927593863635
 20
-217.3997232107156
 10
121.60421302694562
 20
-219.66177360451496
 10
119.60648368649997
 20
-221.79020180732266
 10
117.46573809285559
 20
-223.77472629330836
 10
115.19231727188694
 20
-225.60576067391702
 10
112.79720314671607
 20
-227.2744600056097
 10
110.29196548874147
 20
-228.77276351600088
 10
107.68870602902342
 20
-230.09343354200024
 10
105.00000000000009
 20
-231.23009049186604
  0
LWPOLYLINE
  5
FF
330
17
100
AcDbEntity
  8
FRONT
100
AcDbPolyline
 90
18
 70
0
 10
131.98809355043403
 20
-193.0
 10
131.81721995709427
 20
-195.9140918563566
 10
131.44434526896802
 20
-198.80927640991086
 10
130.8712706841095
 20
-201.67156826301982
 10
130.10076448060255
 20
-204.48714090860048
 10
129.136548644194
 20
-207.2423935200689
 10
127.98328088897293
 20
-209.92401665111322
 10
126.64653215794746
 20
-212.51905652793332
 10
125.13275971220281
 20
-215.01497762337863
 10
123.44927593863635
 20
-217.3997232107156
 10
121.60421302694562
 20
-219.66177360451496
 10
119.60648368649997
 20
-221.79020180732266
 10
117.46573809285559
 20
-223.77472629330836
 10
115.19231727188694
 20
-225.60576067391702
 10
112.79720314671607
 20
-227.2744600056097
 10
110.29196548874147
 20
-228.77276351600088
 10
107.68870602902342
 20
-230.09343354200024
 10
105.00000000000009
 20
-231.23009049186604
  0
LWPOLYLINE
  5
100
330
17
100
AcDbEntity
  8
FRONT
100
AcDbPolyline
 90
33
 70
0
 10
120.98386676965933
 20
-193.0
 10
120.74472206055036
 20
-195.97014677556234
 10
120.22151780853875
 20
-198.90361219566793
 10
119.41908805181743
 20
-201.77329310925506
 10
118.34484667526253
 20
-204.55267568910546
 10
117.0087189113673
 20
-207.2160804009032
 10
115.42304963809562
 20
-209.7388992640165
 10
113.60248932091842
 20
-212.09782321187873
 10
111.56385865284783
 20
-214.27105745132008
 10
109.32599314309996
 20
-216.23852283108135
 10
106.90956909027742
 20
-217.9820413590067
 10
104.33691254795619
 20
-219.48550415386728
 10
101.63179304770071
 20
-220.73502028006004
 10
98.81920398536037
 20
-221.71904509005302
 10
95.92513169972361
 20
-222.4284868887845
 10
92.97631537707954
 20
-222.85679093451165
 10
90.0
 20
-223.0
 10
87.02368462292044
 20
-222.85679093451165
 10
84.07486830027639
 20
-222.4284868887845
 10
81.18079601463963
 20
-221.719045090053
 10
78.36820695229929
 20
-220.73502028006004
 10
75.6630874520438
 20
-219.48550415386728
 10
73.09043090972257
 20
-217.9820413590067
 10
70.67400685690004
 20
-216.23852283108138
 10
68.43614134715217
 20
-214.27105745132008
 10
66.39751067908158
 20
-212.09782321187873
 10
64.57695036190438
 20
-209.7388992640165
 10
62.991281088632704
 20
-207.2160804009032
 10
61.65515332473747
 20
-204.55267568910546
 10
60.58091194818257
 20
-201.77329310925506
 10
59.77848219146125
 20
-198.90361219566793
 10
59.25527793944964
 20
-195.97014677556234
 10
59.016133230340664
 20
-193.0
  0
LWPOLYLINE
  5
101
330
17
100
AcDbEntity
  8
FRONT
100
AcDbPolyline
 90
2
 70
0
 10
120.98386676965933
 20
-193.0
 10
131.98809355043403
 20
-193.0
  0
LWPOLYLINE
  5
102
330
17
100
AcDbEntity
  8
FRONT
100
AcDbPolyline
 90
2
 70
0
 10
105.0
 20
-284.0
 10
105.0
 20
-231.230090491866
  0
LWPOLYLINE
  5
103
330
17
100
AcDbEntity
  8
FRONT
100
AcDbPolyline
 90
2
 70
0
 10
75.0
 20
-284.0
 10
105.0
 20
-284.0
  0
LWPOLYLINE
  5
104
330
17
100
AcDbEntity
  8
FRONT
100
AcDbPolyline
 90
2
 70
0
 10
75.0
 20
-284.0
 10
75.0
 20
-231.230090491866
  0
LWPOLYLINE
  5
105
330
17
100
AcDbEntity
  8
FRONT
100
AcDbPolyline
 90
18
 70
0
 10
74.99999999999993
 20
-231.23009049186604
 10
72.31129397097659
 20
-230.09343354200027
 10
69.70803451125855
 20
-228.77276351600088
 10
67.20279685328394
 20
-227.2744600056097
 10
64.80768272811306
 20
-225.60576067391702
 10
62.534261907144426
 20
-223.7747262933084
 10
60.39351631350004
 20
-221.79020180732266
 10
58.39578697305439
 20
-219.66177360451496
 10
56.55072406136366
 20
-217.3997232107156
 10
54.867240287797195
 20
-215.01497762337863
 10
53.353467842052545
 20
-212.51905652793332
 10
52.01671911102708
 20
-209.92401665111322
 10
50.86345135580601
 20
-207.2423935200689
 10
49.899235519397436
 20
-204.48714090860048
 10
49.12872931589051
 20
-201.67156826301982
 10
48.55565473103199
 20
-198.8092764099109
 10
48.18278004290573
 20
-195.9140918563566
 10
48.01190644956597
 20
-193.0
  0
LWPOLYLINE
  5
106
330
17
100
AcDbEntity
  8
FRONT
100
AcDbPolyline
 90
2
 70
0
 10
48.01190644956597
 20
-193.0
 10
59.016133230340664
 20
-193.0
  0
LWPOLYLINE
  5
107
330
17
100
AcDbEntity
  8
FRONT
100
AcDbPolyline
 90
2
 70
0
 10
105.0
 20
-284.0
 10
105.0
 20
-231.230090491866
  0
LWPOLYLINE
  5
108
330
17
100
AcDbEntity
  8
FRONT
100
AcDbPolyline
 90
33
 70
0
 10
120.98386676965933
 20
-193.0
 10
120.74472206055036
 20
-195.97014677556234
 10
120.22151780853875
 20
-198.90361219566793
 10
119.41908805181743
 20
-201.77329310925506
 10
118.34484667526253
 20
-204.55267568910546
 10
117.0087189113673
 20
-207.2160804009032
 10
115.42304963809562
 20
-209.7388992640165
 10
113.60248932091842
 20
-212.09782321187873
 10
111.56385865284783
 20
-214.27105745132008
 10
109.32599314309996
 20
-216.23852283108135
 10
106.90956909027742
 20
-217.9820413590067
 10
104.33691254795619
 20
-219.48550415386728
 10
101.63179304770071
 20
-220.73502028006004
 10
98.81920398536037
 20
-221.71904509005302
 10
95.92513169972361
 20
-222.4284868887845
 10
92.97631537707954
 20
-222.85679093451165
 10
90.0
 20
-223.0
 10
87.02368462292044
 20
-222.85679093451165
 10
84.07486830027639
 20
-222.4284868887845
 10
81.18079601463963
 20
-221.719045090053
 10
78.36820695229929
 20
-220.73502028006004
 10
75.6630874520438
 20
-219.48550415386728
 10
73.09043090972257
 20
-217.9820413590067
 10
70.67400685690004
 20
-216.23852283108138
 10
68.43614134715217
 20
-214.27105745132008
 10
66.39751067908158
 20
-212.09782321187873
 10
64.57695036190438
 20
-209.7388992640165
 10
62.991281088632704
 20
-207.2160804009032
 10
61.65515332473747
 20
-204.55267568910546
 10
60.58091194818257
 20
-201.77329310925506
 10
59.77848219146125
 20
-198.90361219566793
 10
59.25527793944964
 20
-195.97014677556234
 10
59.016133230340664
 20
-193.0
  0
LWPOLYLINE
  5
109
330
17
100
AcDbEntity
  8
FRONT
100
AcDbPolyline
 90
2
 70
0
 10
120.98386676965933
 20
-193.0
 10
131.98809355043403
 20
-193.0
  0
LWPOLYLINE
  5
10A
330
17
100
AcDbEntity
  8
FRONT
100
AcDbPolyline
 90
2
 70
0
 10
75.0
 20
-284.0
 10
105.0
 20
-284.0
  0
LWPOLYLINE
  5
10B
330
17
100
AcDbEntity
  8
FRONT
100
AcDbPolyline
 90
2
 70
0
 10
75.0
 20
-284.0
 10
75.0
 20
-231.230090491866
  0
LWPOLYLINE
  5
10C
330
17
100
AcDbEntity
  8
FRONT
100
AcDbPolyline
 90
18
 70
0
 10
74.99999999999993
 20
-231.23009049186604
 10
72.31129397097659
 20
-230.09343354200027
 10
69.70803451125855
 20
-228.77276351600088
 10
67.20279685328394
 20
-227.2744600056097
 10
64.80768272811306
 20
-225.60576067391702
 10
62.534261907144426
 20
-223.7747262933084
 10
60.39351631350004
 20
-221.79020180732266
 10
58.39578697305439
 20
-219.66177360451496
 10
56.55072406136366
 20
-217.3997232107156
 10
54.867240287797195
 20
-215.01497762337863
 10
53.353467842052545
 20
-212.51905652793332
 10
52.01671911102708
 20
-209.92401665111322
 10
50.86345135580601
 20
-207.2423935200689
 10
49.899235519397436
 20
-204.48714090860048
 10
49.12872931589051
 20
-201.67156826301982
 10
48.55565473103199
 20
-198.8092764099109
 10
48.18278004290573
 20
-195.9140918563566
 10
48.01190644956597
 20
-193.0
  0
LWPOLYLINE
  5
10D
330
17
100
AcDbEntity
  8
FRONT
100
AcDbPolyline
 90
2
 70
0
 10
48.01190644956597
 20
-193.0
 10
59.016133230340664
 20
-193.0
  0
LWPOLYLINE
  5
10E
330
17
100
AcDbEntity
  8
FRONT
100
AcDbPolyline
 90
44
 70
0
 10
48.04764607319394
 20
-190.0
 10
48.29445137753526
 20
-187.03540393393084
 10
48.75048761962472
 20
-184.09571455593445
 10
49.41346692905344
 20
-181.1956798788188
 10
50.280063230821774
 20
-178.349848973272
 10
51.34592893179507
 20
-175.57249897719794
 10
52.60571673197383
 20
-172.87756346930084
 10
54.05310645115418
 20
-170.2785625662585
 10
55.68083673639309
 20
-167.78853509417712
 10
57.480741491206224
 20
-165.41997317461392
 10
59.44379084373854
 20
-163.18475955334046
 10
61.56013644837551
 20
-161.09410798625964
 10
63.81916089352367
 20
-159.1585069815515
 10
66.20953096768795
 20
-157.3876671802867
 10
68.71925451661791
 20
-155.79047263949013
 10
71.33574060627774
 20
-154.37493626206262
 10
74.04586268981149
 20
-153.14815959716128
 10
76.83602446160329
 20
-152.1162972127149
 10
79.69222806805185
 20
-151.28452581881254
 10
82.60014433285525
 20
-150.65701829686898
 10
85.54518464449598
 20
-150.23692276485883
 10
88.51257414527612
 20
-150.02634678364655
 10
91.48742585472382
 20
-150.02634678364655
 10
94.45481535550401
 20
-150.23692276485883
 10
97.39985566714473
 20
-150.65701829686898
 10
100.30777193194814
 20
-151.28452581881254
 10
103.16397553839666
 20
-152.11629721271487
 10
105.9541373101885
 20
-153.14815959716128
 10
108.66425939372225
 20
-154.37493626206262
 10
111.28074548338205
 20
-155.7904726394901
 10
113.79046903231203
 20
-157.3876671802867
 10
116.18083910647631
 20
-159.1585069815515
 10
118.43986355162446
 20
-161.0941079862596
 10
120.55620915626145
 20
-163.18475955334046
 10
122.51925850879374
 20
-165.4199731746139
 10
124.3191632636069
 20
-167.7885350941771
 10
125.9468935488458
 20
-170.27856256625844
 10
127.39428326802616
 20
-172.8775634693008
 10
128.65407106820493
 20
-175.57249897719794
 10
129.71993676917822
 20
-178.34984897327195
 10
130.58653307094656
 20
-181.19567987881874
 10
131.24951238037528
 20
-184.09571455593442
 10
131.70554862246473
 20
-187.0354039339308
 10
131.95235392680607
 20
-190.0
  0
LWPOLYLINE
  5
10F
330
17
100
AcDbEntity
  8
FRONT
100
AcDbPolyline
 90
44
 70
0
 10
48.04764607319394
 20
-190.0
 10
48.29445137753526
 20
-187.03540393393084
 10
48.75048761962472
 20
-184.09571455593445
 10
49.41346692905344
 20
-181.1956798788188
 10
50.280063230821774
 20
-178.349848973272
 10
51.34592893179507
 20
-175.57249897719794
 10
52.60571673197383
 20
-172.87756346930084
 10
54.05310645115418
 20
-170.2785625662585
 10
55.68083673639309
 20
-167.78853509417712
 10
57.480741491206224
 20
-165.41997317461392
 10
59.44379084373854
 20
-163.18475955334046
 10
61.56013644837551
 20
-161.09410798625964
 10
63.81916089352367
 20
-159.1585069815515
 10
66.20953096768795
 20
-157.3876671802867
 10
68.71925451661791
 20
-155.79047263949013
 10
71.33574060627774
 20
-154.37493626206262
 10
74.04586268981149
 20
-153.14815959716128
 10
76.83602446160329
 20
-152.1162972127149
 10
79.69222806805185
 20
-151.28452581881254
 10
82.60014433285525
 20
-150.65701829686898
 10
85.54518464449598
 20
-150.23692276485883
 10
88.51257414527612
 20
-150.02634678364655
 10
91.48742585472382
 20
-150.02634678364655
 10
94.45481535550401
 20
-150.23692276485883
 10
97.39985566714473
 20
-150.65701829686898
 10
100.30777193194814
 20
-151.28452581881254
 10
103.16397553839666
 20
-152.11629721271487
 10
105.9541373101885
 20
-153.14815959716128
 10
108.66425939372225
 20
-154.37493626206262
 10
111.28074548338205
 20
-155.7904726394901
 10
113.79046903231203
 20
-157.3876671802867
 10
116.18083910647631
 20
-159.1585069815515
 10
118.43986355162446
 20
-161.0941079862596
 10
120.55620915626145
 20
-163.18475955334046
 10
122.51925850879374
 20
-165.4199731746139
 10
124.3191632636069
 20
-167.7885350941771
 10
125.9468935488458
 20
-170.27856256625844
 10
127.39428326802616
 20
-172.8775634693008
 10
128.65407106820493
 20
-175.57249897719794
 10
129.71993676917822
 20
-178.34984897327195
 10
130.58653307094656
 20
-181.19567987881874
 10
131.24951238037528
 20
-184.09571455593442
 10
131.70554862246473
 20
-187.0354039339308
 10
131.95235392680607
 20
-190.0
  0
LWPOLYLINE
  5
110
330
17
100
AcDbEntity
  8
FRONT
100
AcDbPolyline
 90
2
 70
0
 10
48.04764607319394
 20
-190.0
 10
59.064583403483965
 20
-190.0
  0
LWPOLYLINE
  5
111
330
17
100
AcDbEntity
  8
FRONT
100
AcDbPolyline
 90
33
 70
0
 10
59.064583403483965
 20
-190.0
 10
59.38956288111443
 20
-187.1009042272321
 10
59.98562048914588
 20
-184.245193582144
 10
60.84747769524738
 20
-181.45815750113383
 10
61.96750211445182
 20
-178.7644772563855
 10
63.33577509958724
 20
-176.18800738489267
 10
64.94017957825616
 20
-173.7515644388361
 10
66.76650735850117
 20
-171.47672492808664
 10
68.7985849528858
 20
-169.3836342442027
 10
71.01841680672467
 20
-167.4908282580425
 10
73.40634466207112
 20
-165.8150691708757
 10
75.94122164617566
 20
-164.3711970726555
 10
78.60059954273287
 20
-163.17199852201236
 10
81.36092758749106
 20
-162.22809331179096
 10
84.19776102774182
 20
-161.54784042290584
 10
87.08597759874081
 20
-161.1372639993639
 10
90.0
 20
-161.0
 10
92.91402240125917
 20
-161.1372639993639
 10
95.80223897225817
 20
-161.54784042290584
 10
98.63907241250894
 20
-162.22809331179093
 10
101.39940045726712
 20
-163.17199852201236
 10
104.05877835382434
 20
-164.3711970726555
 10
106.59365533792885
 20
-165.8150691708757
 10
108.98158319327533
 20
-167.4908282580425
 10
111.20141504711418
 20
-169.3836342442027
 10
113.2334926414988
 20
-171.47672492808664
 10
115.05982042174384
 20
-173.7515644388361
 10
116.66422490041273
 20
-176.18800738489264
 10
118.03249788554818
 20
-178.7644772563855
 10
119.15252230475261
 20
-181.4581575011338
 10
120.01437951085413
 20
-184.245193582144
 10
120.61043711888557
 20
-187.1009042272321
 10
120.93541659651603
 20
-190.0
  0
LWPOLYLINE
  5
112
330
17
100
AcDbEntity
  8
FRONT
100
AcDbPolyline
 90
2
 70
0
 10
120.93541659651603
 20
-190.0
 10
131.95235392680607
 20
-190.0
  0
LWPOLYLINE
  5
113
330
17
100
AcDbEntity
  8
FRONT
100
AcDbPolyline
 90
2
 70
0
 10
120.93541659651603
 20
-190.0
 10
131.95235392680607
 20
-190.0
  0
LWPOLYLINE
  5
114
330
17
100
AcDbEntity
  8
FRONT
100
AcDbPolyline
 90
2
 70
0
 10
48.04764607319394
 20
-190.0
 10
59.064583403483965
 20
-190.0
  0
LWPOLYLINE
  5
115
330
17
100
AcDbEntity
  8
FRONT
100
AcDbPolyline
 90
33
 70
0
 10
59.064583403483965
 20
-190.0
 10
59.38956288111443
 20
-187.1009042272321
 10
59.98562048914588
 20
-184.245193582144
 10
60.84747769524738
 20
-181.45815750113383
 10
61.96750211445182
 20
-178.7644772563855
 10
63.33577509958724
 20
-176.18800738489267
 10
64.94017957825616
 20
-173.7515644388361
 10
66.76650735850117
 20
-171.47672492808664
 10
68.7985849528858
 20
-169.3836342442027
 10
71.01841680672467
 20
-167.4908282580425
 10
73.40634466207112
 20
-165.8150691708757
 10
75.94122164617566
 20
-164.3711970726555
 10
78.60059954273287
 20
-163.17199852201236
 10
81.36092758749106
 20
-162.22809331179096
 10
84.19776102774182
 20
-161.54784042290584
 10
87.08597759874081
 20
-161.1372639993639
 10
90.0
 20
-161.0
 10
92.91402240125917
 20
-161.1372639993639
 10
95.80223897225817
 20
-161.54784042290584
 10
98.63907241250894
 20
-162.22809331179093
 10
101.39940045726712
 20
-163.17199852201236
 10
104.05877835382434
 20
-164.3711970726555
 10
106.59365533792885
 20
-165.8150691708757
 10
108.98158319327533
 20
-167.4908282580425
 10
111.20141504711418
 20
-169.3836342442027
 10
113.2334926414988
 20
-171.47672492808664
 10
115.05982042174384
 20
-173.7515644388361
 10
116.66422490041273
 20
-176.18800738489264
 10
118.03249788554818
 20
-178.7644772563855
 10
119.15252230475261
 20
-181.4581575011338
 10
120.01437951085413
 20
-184.245193582144
 10
120.61043711888557
 20
-187.1009042272321
 10
120.93541659651603
 20
-190.0
  0
LWPOLYLINE
  5
116
330
17
100
AcDbEntity
  8
FRONT
100
AcDbPolyline
 90
2
 70
0
 10
112.5
 20
-284.0
 10
112.5
 20
-219.0
  0
LWPOLYLINE
  5
117
330
17
100
AcDbEntity
  8
FRONT
100
AcDbPolyline
 90
2
 70
0
 10
112.5
 20
-284.0
 10
112.5
 20
-219.0
  0
LWPOLYLINE
  5
118
330
17
100
AcDbEntity
  8
FRONT
100
AcDbPolyline
 90
2
 70
0
 10
112.5
 20
-284.0
 10
177.5
 20
-284.0
  0
LWPOLYLINE
  5
119
330
17
100
AcDbEntity
  8
FRONT
100
AcDbPolyline
 90
2
 70
0
 10
177.5
 20
-284.0
 10
177.5
 20
-219.0
  0
LWPOLYLINE
  5
11A
330
17
100
AcDbEntity
  8
FRONT
100
AcDbPolyline
 90
2
 70
0
 10
112.5
 20
-219.0
 10
177.5
 20
-219.0
  0
LWPOLYLINE
  5
11B
330
17
100
AcDbEntity
  8
FRONT
100
AcDbPolyline
 90
18
 70
0
 10
153.0
 20
-238.0
 10
152.45977783523483
 20
-235.11006667050276
 10
150.91207133776527
 20
-232.61043485082755
 10
148.5659068462123
 20
-230.8386936691595
 10
145.7381468757064
 20
-230.03412658963973
 10
142.81069607942334
 20
-230.30539485461745
 10
140.17892290896594
 20
-231.61586218175808
 10
138.19826291416308
 20
-233.78854269698115
 10
137.13621520252877
 20
-236.53000385746742
 10
137.13621520252877
 20
-239.46999614253255
 10
138.19826291416308
 20
-242.21145730301885
 10
140.17892290896594
 20
-244.38413781824192
 10
142.81069607942334
 20
-245.69460514538255
 10
145.7381468757064
 20
-245.96587341036027
 10
148.5659068462123
 20
-245.1613063308405
 10
150.91207133776527
 20
-243.38956514917245
 10
152.45977783523483
 20
-240.88993332949724
 10
153.0
 20
-238.0
  0
LWPOLYLINE
  5
11C
330
17
100
AcDbEntity
  8
FRONT
100
AcDbPolyline
 90
2
 70
0
 10
112.5
 20
-219.0
 10
177.5
 20
-219.0
  0
LWPOLYLINE
  5
11D
330
17
100
AcDbEntity
  8
FRONT
100
AcDbPolyline
 90
2
 70
0
 10
112.5
 20
-284.0
 10
177.5
 20
-284.0
  0
LWPOLYLINE
  5
11E
330
17
100
AcDbEntity
  8
FRONT
100
AcDbPolyline
 90
2
 70
0
 10
177.5
 20
-284.0
 10
177.5
 20
-219.0
  0
LWPOLYLINE
  5
11F
330
17
100
AcDbEntity
  8
FRONT
100
AcDbPolyline
 90
18
 70
0
 10
153.0
 20
-238.0
 10
152.45977783523483
 20
-235.11006667050276
 10
150.91207133776527
 20
-232.61043485082755
 10
148.5659068462123
 20
-230.8386936691595
 10
145.7381468757064
 20
-230.03412658963973
 10
142.81069607942334
 20
-230.30539485461745
 10
140.17892290896594
 20
-231.61586218175808
 10
138.19826291416308
 20
-233.78854269698115
 10
137.13621520252877
 20
-236.53000385746742
 10
137.13621520252877
 20
-239.46999614253255
 10
138.19826291416308
 20
-242.21145730301885
 10
140.17892290896594
 20
-244.38413781824192
 10
142.81069607942334
 20
-245.69460514538255
 10
145.7381468757064
 20
-245.96587341036027
 10
148.5659068462123
 20
-245.1613063308405
 10
150.91207133776527
 20
-243.38956514917245
 10
152.45977783523483
 20
-240.88993332949724
 10
153.0
 20
-238.0
  0
LWPOLYLINE
  5
120
330
17
100
AcDbEntity
  8
FRONT
100
AcDbPolyline
 90
16
 70
0
 10
34.0
 20
-269.0
 10
33.6541818305704
 20
-270.6269465723032
 10
32.67652242543544
 20
-271.9725793019096
 10
31.236067977499786
 20
-272.8042260651806
 10
29.581886146929385
 20
-272.9780875814731
 10
28.0
 20
-272.46410161513774
 10
26.763932022500214
 20
-271.3511410091699
 10
26.087409597064777
 20
-269.831646763271
 10
26.087409597064777
 20
-268.168353236729
 10
26.763932022500214
 20
-266.6488589908301
 10
28.0
 20
-265.53589838486226
 10
29.581886146929385
 20
-265.0219124185269
 10
31.236067977499786
 20
-265.1957739348194
 10
32.67652242543544
 20
-266.0274206980904
 10
33.6541818305704
 20
-267.3730534276968
 10
34.0
 20
-269.0
  0
LWPOLYLINE
  5
121
330
17
100
AcDbEntity
  8
FRONT
100
AcDbPolyline
 90
16
 70
0
 10
34.0
 20
-269.0
 10
33.6541818305704
 20
-270.62694657230315
 10
32.67652242543544
 20
-271.97257930190955
 10
31.236067977499786
 20
-272.8042260651806
 10
29.581886146929385
 20
-272.97808758147306
 10
28.0
 20
-272.46410161513774
 10
26.763932022500214
 20
-271.35114100916985
 10
26.087409597064777
 20
-269.831646763271
 10
26.087409597064777
 20
-268.16835323672893
 10
26.763932022500214
 20
-266.6488589908301
 10
28.0
 20
-265.5358983848622
 10
29.581886146929385
 20
-265.0219124185269
 10
31.236067977499786
 20
-265.1957739348194
 10
32.67652242543544
 20
-266.0274206980904
 10
33.6541818305704
 20
-267.3730534276968
 10
34.0
 20
-269.0
  0
LWPOLYLINE
  5
122
330
17
100
AcDbEntity
  8
FRONT
100
AcDbPolyline
 90
2
 70
0
 10
17.5
 20
-284.0
 10
17.5
 20
-254.0
  0
LWPOLYLINE
  5
123
330
17
100
AcDbEntity
  8
FRONT
100
AcDbPolyline
 90
2
 70
0
 10
17.5
 20
-284.0
 10
17.5
 20
-254.0
  0
LWPOLYLINE
  5
124
330
17
100
AcDbEntity
  8
FRONT
100
AcDbPolyline
 90
2
 70
0
 10
17.5
 20
-284.0
 10
42.5
 20
-284.0
  0
LWPOLYLINE
  5
125
330
17
100
AcDbEntity
  8
FRONT
100
AcDbPolyline
 90
2
 70
0
 10
42.5
 20
-284.0
 10
42.5
 20
-254.0
  0
LWPOLYLINE
  5
126
330
17
100
AcDbEntity
  8
FRONT
100
AcDbPolyline
 90
2
 70
0
 10
17.5
 20
-254.0
 10
42.5
 20
-254.0
  0
LWPOLYLINE
  5
127
330
17
100
AcDbEntity
  8
FRONT
100
AcDbPolyline
 90
16
 70
0
 10
34.5
 20
-269.0
 10
34.1109545593917
 20
-267.1696851061589
 10
33.01108772861486
 20
-265.65584828535174
 10
31.390576474687265
 20
-264.7202456766718
 10
29.529621915295557
 20
-264.52465147084274
 10
27.75
 20
-265.10288568297005
 10
26.359423525312735
 20
-266.3549663646839
 10
25.59833579669788
 20
-268.0643973913201
 10
25.59833579669788
 20
-269.9356026086799
 10
26.359423525312735
 20
-271.6450336353161
 10
27.75
 20
-272.89711431702995
 10
29.529621915295557
 20
-273.47534852915726
 10
31.390576474687265
 20
-273.2797543233282
 10
33.01108772861486
 20
-272.34415171464826
 10
34.1109545593917
 20
-270.8303148938411
 10
34.5
 20
-269.0
  0
LWPOLYLINE
  5
128
330
17
100
AcDbEntity
  8
FRONT
100
AcDbPolyline
 90
2
 70
0
 10
17.5
 20
-254.0
 10
42.5
 20
-254.0
  0
LWPOLYLINE
  5
129
330
17
100
AcDbEntity
  8
FRONT
100
AcDbPolyline
 90
2
 70
0
 10
17.5
 20
-284.0
 10
42.5
 20
-284.0
  0
LWPOLYLINE
  5
12A
330
17
100
AcDbEntity
  8
FRONT
100
AcDbPolyline
 90
2
 70
0
 10
42.5
 20
-284.0
 10
42.5
 20
-254.0
  0
LWPOLYLINE
  5
12B
330
17
100
AcDbEntity
  8
FRONT
100
AcDbPolyline
 90
16
 70
0
 10
34.5
 20
-269.0
 10
34.1109545593917
 20
-267.1696851061589
 10
33.01108772861486
 20
-265.65584828535174
 10
31.390576474687265
 20
-264.7202456766718
 10
29.529621915295557
 20
-264.52465147084274
 10
27.75
 20
-265.10288568297
 10
26.359423525312735
 20
-266.3549663646839
 10
25.59833579669788
 20
-268.0643973913201
 10
25.59833579669788
 20
-269.9356026086799
 10
26.359423525312735
 20
-271.6450336353161
 10
27.75
 20
-272.89711431702995
 10
29.529621915295557
 20
-273.4753485291572
 10
31.390576474687265
 20
-273.2797543233282
 10
33.01108772861486
 20
-272.34415171464826
 10
34.1109545593917
 20
-270.8303148938411
 10
34.5
 20
-269.0
  0
LWPOLYLINE
  5
12C
330
17
100
AcDbEntity
  8
FRONT
100
AcDbPolyline
 90
2
 70
0
 10
17.5
 20
-284.0
 10
17.5
 20
-254.0
  0
LWPOLYLINE
  5
12D
330
17
100
AcDbEntity
  8
FRONT
100
AcDbPolyline
 90
2
 70
0
 10
17.5
 20
-284.0
 10
17.5
 20
-254.0
  0
LWPOLYLINE
  5
12E
330
17
100
AcDbEntity
  8
FRONT
100
AcDbPolyline
 90
2
 70
0
 10
17.5
 20
-284.0
 10
42.5
 20
-284.0
  0
LWPOLYLINE
  5
12F
330
17
100
AcDbEntity
  8
FRONT
100
AcDbPolyline
 90
2
 70
0
 10
42.5
 20
-284.0
 10
42.5
 20
-254.0
  0
LWPOLYLINE
  5
130
330
17
100
AcDbEntity
  8
FRONT
100
AcDbPolyline
 90
2
 70
0
 10
17.5
 20
-254.0
 10
42.5
 20
-254.0
  0
LWPOLYLINE
  5
131
330
17
100
AcDbEntity
  8
FRONT
100
AcDbPolyline
 90
16
 70
0
 10
34.5
 20
-269.0
 10
34.1109545593917
 20
-267.1696851061589
 10
33.01108772861486
 20
-265.65584828535174
 10
31.390576474687265
 20
-264.7202456766718
 10
29.529621915295557
 20
-264.52465147084274
 10
27.75
 20
-265.10288568297005
 10
26.359423525312735
 20
-266.3549663646839
 10
25.59833579669788
 20
-268.0643973913201
 10
25.59833579669788
 20
-269.9356026086799
 10
26.359423525312735
 20
-271.6450336353161
 10
27.75
 20
-272.89711431702995
 10
29.529621915295557
 20
-273.47534852915726
 10
31.390576474687265
 20
-273.2797543233282
 10
33.01108772861486
 20
-272.34415171464826
 10
34.1109545593917
 20
-270.8303148938411
 10
34.5
 20
-269.0
  0
LWPOLYLINE
  5
132
330
17
100
AcDbEntity
  8
FRONT
100
AcDbPolyline
 90
2
 70
0
 10
17.5
 20
-254.0
 10
42.5
 20
-254.0
  0
LWPOLYLINE
  5
133
330
17
100
AcDbEntity
  8
FRONT
100
AcDbPolyline
 90
2
 70
0
 10
17.5
 20
-284.0
 10
42.5
 20
-284.0
  0
LWPOLYLINE
  5
134
330
17
100
AcDbEntity
  8
FRONT
100
AcDbPolyline
 90
2
 70
0
 10
42.5
 20
-284.0
 10
42.5
 20
-254.0
  0
LWPOLYLINE
  5
135
330
17
100
AcDbEntity
  8
FRONT
100
AcDbPolyline
 90
16
 70
0
 10
34.5
 20
-269.0
 10
34.1109545593917
 20
-267.1696851061589
 10
33.01108772861486
 20
-265.65584828535174
 10
31.390576474687265
 20
-264.7202456766718
 10
29.529621915295557
 20
-264.52465147084274
 10
27.75
 20
-265.10288568297
 10
26.359423525312735
 20
-266.3549663646839
 10
25.59833579669788
 20
-268.0643973913201
 10
25.59833579669788
 20
-269.9356026086799
 10
26.359423525312735
 20
-271.6450336353161
 10
27.75
 20
-272.89711431702995
 10
29.529621915295557
 20
-273.4753485291572
 10
31.390576474687265
 20
-273.2797543233282
 10
33.01108772861486
 20
-272.34415171464826
 10
34.1109545593917
 20
-270.8303148938411
 10
34.5
 20
-269.0
  0
DIMENSION
  5
136
330
17
100
AcDbEntity
  8
DIMENSIONS
100
AcDbDimension
280
0
  2
*D3
  3
Standard
 10
0.0
 20
-327.0
 30
0.0
 11
90.0
 21
-327.0
 31
0.0
 70
32
 71
5
  1
<>
100
AcDbAlignedDimension
 13
0.0
 23
-292.0
 33
0.0
 14
180.0
 24
-292.0
 34
0.0
 50
0.0
100
AcDbRotatedDimension
1001
ACAD
1000
DSTYLE
1002
{
1070
140
1040
2.5
1070
41
1040
2.5
1070
176
1070
7
1070
177
1070
7
1070
178
1070
7
1070
271
1070
2
1002
}
  0
DIMENSION
  5
146
330
17
100
AcDbEntity
  8
DIMENSIONS
100
AcDbDimension
280
0
  2
*D4
  3
Standard
 10
-35.0
 20
-292.0
 30
0.0
 11
-35.0
 21
-221.0
 31
0.0
 70
32
 71
5
  1
<>
100
AcDbAlignedDimension
 13
0.0
 23
-292.0
 33
0.0
 14
0.0
 24
-150.0
 34
0.0
 50
90.0
100
AcDbRotatedDimension
1001
ACAD
1000
DSTYLE
1002
{
1070
140
1040
2.5
1070
41
1040
2.5
1070
176
1070
7
1070
177
1070
7
1070
178
1070
7
1070
271
1070
2
1002
}
  0
TEXT
  5
156
330
17
100
AcDbEntity
  8
NOTES
100
AcDbText
 10
0.0
 20
-130.0
 30
0.0
 40
4.0
  1
FRONT
100
AcDbText
  0
LWPOLYLINE
  5
157
330
17
100
AcDbEntity
  8
RIGHT
100
AcDbPolyline
 90
2
 70
0
 10
330.0
 20
100.0
 10
630.0
 20
100.00000000000003
  0
LWPOLYLINE
  5
158
330
17
100
AcDbEntity
  8
RIGHT
100
AcDbPolyline
 90
64
 70
0
 10
330.0
 20
100.0
 10
330.0
 20
97.0129646021255
 10
330.0
 20
94.05561570401808
 10
330.0
 20
91.15734476767287
 10
330.0
 20
88.34695611175916
 10
330.0
 20
85.65238064136045
 10
330.0
 20
83.10039825809135
 10
330.0
 20
80.71637170940383
 10
330.0
 20
78.52399452220845
 10
330.0
 20
76.54505552595911
 10
330.0
 20
74.79922230547686
 10
330.0
 20
73.30384573565594
 10
330.0
 20
72.07378754067388
 10
330.0
 20
71.12127259149963
 10
330.0
 20
70.45576740963375
 10
330.0
 20
70.0838860845646
 10
330.0
 20
70.00932453997551
 10
330.0
 20
70.23282380199484
 10
330.0
 20
70.7521626345453
 10
330.0
 20
71.56217961498604
 10
330.0
 20
72.6548244306498
 10
330.0
 20
74.01923788646684
 10
330.0
 20
75.6418598285243
 10
330.0
 20
77.50656391096797
 10
330.0
 20
79.5948178668724
 10
330.0
 20
81.88586769023567
 10
330.0
 20
84.35694389861506
 10
330.0
 20
86.98348782647324
 10
330.0
 20
89.73939570022992
 10
330.0
 20
92.59727806929118
 10
330.0
 20
95.52873201471475
 10
330.0
 20
98.50462343017908
 10
330.0
 20
101.49537656982089
 10
330.0
 20
104.47126798528524
 10
330.0
 20
107.4027219307088
 10
330.0
 20
110.26060429977007
 10
330.0
 20
113.01651217352673
 10
330.0
 20
115.64305610138493
 10
330.0
 20
118.1141323097643
 10
330.0
 20
120.40518213312757
 10
330.0
 20
122.49343608903202
 10
330.0
 20
124.3581401714757
 10
330.0
 20
125.98076211353316
 10
330.0
 20
127.34517556935019
 10
330.0
 20
128.43782038501394
 10
330.0
 20
129.2478373654547
 10
330.0
 20
129.76717619800516
 10
330.0
 20
129.99067546002448
 10
330.0
 20
129.9161139154354
 10
330.0
 20
129.54423259036625
 10
330.0
 20
128.87872740850037
 10
330.0
 20
127.92621245932614
 10
330.0
 20
126.69615426434406
 10
330.0
 20
125.20077769452315
 10
330.0
 20
123.45494447404091
 10
330.0
 20
121.47600547779157
 10
330.0
 20
119.28362829059621
 10
330.0
 20
116.89960174190868
 10
330.0
 20
114.34761935863956
 10
330.0
 20
111.65304388824084
 10
330.0
 20
108.84265523232716
 10
330.0
 20
105.94438429598196
 10
330.0
 20
102.98703539787452
 10
330.0
 20
100.00000000000003
  0
LWPOLYLINE
  5
159
330
17
100
AcDbEntity
  8
RIGHT
100
AcDbPolyline
 90
64
 70
0
 10
630.0
 20
100.00000000000003
 10
630.0
 20
97.01296460212554
 10
630.0
 20
94.05561570401811
 10
630.0
 20
91.1573447676729
 10
630.0
 20
88.34695611175918
 10
630.0
 20
85.65238064136048
 10
630.0
 20
83.10039825809137
 10
630.0
 20
80.71637170940386
 10
630.0
 20
78.52399452220848
 10
630.0
 20
76.54505552595914
 10
630.0
 20
74.79922230547689
 10
630.0
 20
73.30384573565597
 10
630.0
 20
72.0737875406739
 10
630.0
 20
71.12127259149966
 10
630.0
 20
70.45576740963378
 10
630.0
 20
70.08388608456463
 10
630.0
 20
70.00932453997554
 10
630.0
 20
70.23282380199487
 10
630.0
 20
70.75216263454533
 10
630.0
 20
71.56217961498606
 10
630.0
 20
72.65482443064982
 10
630.0
 20
74.01923788646687
 10
630.0
 20
75.64185982852433
 10
630.0
 20
77.506563910968
 10
630.0
 20
79.59481786687243
 10
630.0
 20
81.8858676902357
 10
630.0
 20
84.35694389861509
 10
630.0
 20
86.98348782647327
 10
630.0
 20
89.73939570022995
 10
630.0
 20
92.5972780692912
 10
630.0
 20
95.52873201471478
 10
630.0
 20
98.50462343017911
 10
630.0
 20
101.49537656982092
 10
630.0
 20
104.47126798528527
 10
630.0
 20
107.40272193070882
 10
630.0
 20
110.2606042997701
 10
630.0
 20
113.01651217352676
 10
630.0
 20
115.64305610138496
 10
630.0
 20
118.11413230976433
 10
630.0
 20
120.4051821331276
 10
630.0
 20
122.49343608903204
 10
630.0
 20
124.35814017147572
 10
630.0
 20
125.98076211353319
 10
630.0
 20
127.34517556935022
 10
630.0
 20
128.43782038501396
 10
630.0
 20
129.24783736545473
 10
630.0
 20
129.7671761980052
 10
630.0
 20
129.9906754600245
 10
630.0
 20
129.91611391543543
 10
630.0
 20
129.54423259036628
 10
630.0
 20
128.8787274085004
 10
630.0
 20
127.92621245932617
 10
630.0
 20
126.69615426434409
 10
630.0
 20
125.20077769452318
 10
630.0
 20
123.45494447404094
 10
630.0
 20
121.4760054777916
 10
630.0
 20
119.28362829059624
 10
630.0
 20
116.89960174190871
 10
630.0
 20
114.34761935863959
 10
630.0
 20
111.65304388824087
 10
630.0
 20
108.84265523232719
 10
630.0
 20
105.94438429598199
 10
630.0
 20
102.98703539787455
 10
630.0
 20
100.00000000000006
  0
LWPOLYLINE
  5
15A
330
17
100
AcDbEntity
  8
RIGHT
100
AcDbPolyline
 90
2
 70
0
 10
355.0
 20
0.0
 10
355.0
 20
8.0
  0
LWPOLYLINE
  5
15B
330
17
100
AcDbEntity
  8
RIGHT
100
AcDbPolyline
 90
2
 70
0
 10
355.0
 20
8.0
 10
605.0
 20
8.0
  0
LWPOLYLINE
  5
15C
330
17
100
AcDbEntity
  8
RIGHT
100
AcDbPolyline
 90
2
 70
0
 10
605.0
 20
0.0
 10
605.0
 20
8.0
  0
LWPOLYLINE
  5
15D
330
17
100
AcDbEntity
  8
RIGHT
100
AcDbPolyline
 90
2
 70
0
 10
355.0
 20
0.0
 10
605.0
 20
0.0
  0
LWPOLYLINE
  5
15E
330
17
100
AcDbEntity
  8
RIGHT
100
AcDbPolyline
 90
2
 70
0
 10
355.0
 20
0.0
 10
355.0
 20
8.0
  0
LWPOLYLINE
  5
15F
330
17
100
AcDbEntity
  8
RIGHT
100
AcDbPolyline
 90
2
 70
0
 10
355.0
 20
8.0
 10
605.0
 20
8.0
  0
LWPOLYLINE
  5
160
330
17
100
AcDbEntity
  8
RIGHT
100
AcDbPolyline
 90
16
 70
0
 10
380.0
 20
8.0
 10
377.86463262385206
 20
8.0
 10
376.09848966624367
 20
8.0
 10
375.00695328945045
 20
8.0
 10
374.7787600493166
 20
8.0
 10
375.4533666301317
 20
8.0
 10
376.9141274254645
 20
8.0
 10
378.9084636232068
 20
8.0
 10
381.0915363767932
 20
8.0
 10
383.0858725745355
 20
8.0
 10
384.5466333698683
 20
8.0
 10
385.2212399506834
 20
8.0
 10
384.99304671054955
 20
8.0
 10
383.90151033375633
 20
8.0
 10
382.13536737614794
 20
8.0
 10
380.0
 20
8.0
  0
LWPOLYLINE
  5
161
330
17
100
AcDbEntity
  8
RIGHT
100
AcDbPolyline
 90
16
 70
0
 10
380.0
 20
8.0
 10
377.86463262385206
 20
8.0
 10
376.09848966624367
 20
8.0
 10
375.00695328945045
 20
8.0
 10
374.7787600493166
 20
8.0
 10
375.4533666301317
 20
8.0
 10
376.9141274254645
 20
8.0
 10
378.9084636232068
 20
8.0
 10
381.0915363767932
 20
8.0
 10
383.0858725745355
 20
8.0
 10
384.5466333698683
 20
8.0
 10
385.2212399506834
 20
8.0
 10
384.99304671054955
 20
8.0
 10
383.90151033375633
 20
8.0
 10
382.13536737614794
 20
8.0
 10
380.0
 20
8.0
  0
LWPOLYLINE
  5
162
330
17
100
AcDbEntity
  8
RIGHT
100
AcDbPolyline
 90
16
 70
0
 10
580.0
 20
8.0
 10
577.864632623852
 20
8.0
 10
576.0984896662437
 20
8.0
 10
575.0069532894504
 20
8.0
 10
574.7787600493166
 20
8.0
 10
575.4533666301318
 20
8.0
 10
576.9141274254646
 20
8.0
 10
578.9084636232068
 20
8.0
 10
581.0915363767932
 20
8.0
 10
583.0858725745354
 20
8.0
 10
584.5466333698682
 20
8.0
 10
585.2212399506834
 20
8.0
 10
584.9930467105496
 20
8.0
 10
583.9015103337563
 20
8.0
 10
582.135367376148
 20
8.0
 10
580.0
 20
8.0
  0
LWPOLYLINE
  5
163
330
17
100
AcDbEntity
  8
RIGHT
100
AcDbPolyline
 90
16
 70
0
 10
580.0
 20
8.0
 10
577.864632623852
 20
8.0
 10
576.0984896662437
 20
8.0
 10
575.0069532894504
 20
8.0
 10
574.7787600493166
 20
8.0
 10
575.4533666301318
 20
8.0
 10
576.9141274254646
 20
8.0
 10
578.9084636232068
 20
8.0
 10
581.0915363767932
 20
8.0
 10
583.0858725745354
 20
8.0
 10
584.5466333698682
 20
8.0
 10
585.2212399506834
 20
8.0
 10
584.9930467105496
 20
8.0
 10
583.9015103337563
 20
8.0
 10
582.135367376148
 20
8.0
 10
580.0
 20
8.0
  0
LWPOLYLINE
  5
164
330
17
100
AcDbEntity
  8
RIGHT
100
AcDbPolyline
 90
2
 70
0
 10
605.0
 20
0.0
 10
605.0
 20
8.0
  0
LWPOLYLINE
  5
165
330
17
100
AcDbEntity
  8
RIGHT
100
AcDbPolyline
 90
2
 70
0
 10
355.0
 20
0.0
 10
605.0
 20
0.0
  0
LWPOLYLINE
  5
166
330
17
100
AcDbEntity
  8
RIGHT
100
AcDbPolyline
 90
16
 70
0
 10
380.0
 20
0.0
 10
377.86463262385206
 20
0.0
 10
376.09848966624367
 20
0.0
 10
375.00695328945045
 20
0.0
 10
374.7787600493166
 20
0.0
 10
375.4533666301317
 20
0.0
 10
376.9141274254645
 20
0.0
 10
378.9084636232068
 20
0.0
 10
381.0915363767932
 20
0.0
 10
383.0858725745355
 20
0.0
 10
384.5466333698683
 20
0.0
 10
385.2212399506834
 20
0.0
 10
384.99304671054955
 20
0.0
 10
383.90151033375633
 20
0.0
 10
382.13536737614794
 20
0.0
 10
380.0
 20
0.0
  0
LWPOLYLINE
  5
167
330
17
100
AcDbEntity
  8
RIGHT
100
AcDbPolyline
 90
16
 70
0
 10
380.0
 20
0.0
 10
377.86463262385206
 20
0.0
 10
376.09848966624367
 20
0.0
 10
375.00695328945045
 20
0.0
 10
374.7787600493166
 20
0.0
 10
375.4533666301317
 20
0.0
 10
376.9141274254645
 20
0.0
 10
378.9084636232068
 20
0.0
 10
381.0915363767932
 20
0.0
 10
383.0858725745355
 20
0.0
 10
384.5466333698683
 20
0.0
 10
385.2212399506834
 20
0.0
 10
384.99304671054955
 20
0.0
 10
383.90151033375633
 20
0.0
 10
382.13536737614794
 20
0.0
 10
380.0
 20
0.0
  0
LWPOLYLINE
  5
168
330
17
100
AcDbEntity
  8
RIGHT
100
AcDbPolyline
 90
16
 70
0
 10
580.0
 20
0.0
 10
577.864632623852
 20
0.0
 10
576.0984896662437
 20
0.0
 10
575.0069532894504
 20
0.0
 10
574.7787600493166
 20
0.0
 10
575.4533666301318
 20
0.0
 10
576.9141274254646
 20
0.0
 10
578.9084636232068
 20
0.0
 10
581.0915363767932
 20
0.0
 10
583.0858725745354
 20
0.0
 10
584.5466333698682
 20
0.0
 10
585.2212399506834
 20
0.0
 10
584.9930467105496
 20
0.0
 10
583.9015103337563
 20
0.0
 10
582.135367376148
 20
0.0
 10
580.0
 20
0.0
  0
LWPOLYLINE
  5
169
330
17
100
AcDbEntity
  8
RIGHT
100
AcDbPolyline
 90
16
 70
0
 10
580.0
 20
0.0
 10
577.864632623852
 20
0.0
 10
576.0984896662437
 20
0.0
 10
575.0069532894504
 20
0.0
 10
574.7787600493166
 20
0.0
 10
575.4533666301318
 20
0.0
 10
576.9141274254646
 20
0.0
 10
578.9084636232068
 20
0.0
 10
581.0915363767932
 20
0.0
 10
583.0858725745354
 20
0.0
 10
584.5466333698682
 20
0.0
 10
585.2212399506834
 20
0.0
 10
584.9930467105496
 20
0.0
 10
583.9015103337563
 20
0.0
 10
582.135367376148
 20
0.0
 10
580.0
 20
0.0
  0
LWPOLYLINE
  5
16A
330
17
100
AcDbEntity
  8
RIGHT
100
AcDbPolyline
 90
2
 70
0
 10
380.0
 20
0.0
 10
380.0
 20
8.0
  0
LWPOLYLINE
  5
16B
330
17
100
AcDbEntity
  8
RIGHT
100
AcDbPolyline
 90
2
 70
0
 10
380.0
 20
0.0
 10
380.0
 20
8.0
  0
LWPOLYLINE
  5
16C
330
17
100
AcDbEntity
  8
RIGHT
100
AcDbPolyline
 90
2
 70
0
 10
580.0
 20
0.0
 10
580.0
 20
8.0
  0
LWPOLYLINE
  5
16D
330
17
100
AcDbEntity
  8
RIGHT
100
AcDbPolyline
 90
2
 70
0
 10
580.0
 20
0.0
 10
580.0
 20
8.0
  0
LWPOLYLINE
  5
16E
330
17
100
AcDbEntity
  8
RIGHT
100
AcDbPolyline
 90
18
 70
0
 10
400.0
 20
99.0
 10
400.0
 20
96.08590814364341
 10
400.0
 20
93.19072359008912
 10
400.0
 20
90.32843173698016
 10
400.0
 20
87.51285909139952
 10
400.0
 20
84.7576064799311
 10
400.0
 20
82.07598334888677
 10
400.0
 20
79.48094347206668
 10
400.0
 20
76.98502237662137
 10
400.0
 20
74.60027678928442
 10
400.0
 20
72.33822639548504
 10
400.0
 20
70.20979819267733
 10
400.0
 20
68.22527370669164
 10
400.0
 20
66.39423932608298
 10
400.0
 20
64.72553999439029
 10
400.0
 20
63.22723648399912
 10
400.0
 20
61.906566457999745
 10
400.0
 20
60.76990950813397
  0
LWPOLYLINE
  5
16F
330
17
100
AcDbEntity
  8
RIGHT
100
AcDbPolyline
 90
2
 70
0
 10
420.0
 20
60.769909508133935
 10
400.0
 20
60.769909508133935
  0
LWPOLYLINE
  5
170
330
17
100
AcDbEntity
  8
RIGHT
100
AcDbPolyline
 90
18
 70
0
 10
420.0
 20
99.0
 10
420.0
 20
96.08590814364341
 10
420.0
 20
93.19072359008912
 10
420.0
 20
90.32843173698016
 10
420.0
 20
87.51285909139952
 10
420.0
 20
84.7576064799311
 10
420.0
 20
82.07598334888677
 10
420.0
 20
79.48094347206668
 10
420.0
 20
76.98502237662137
 10
420.0
 20
74.60027678928442
 10
420.0
 20
72.33822639548504
 10
420.0
 20
70.20979819267733
 10
420.0
 20
68.22527370669164
 10
420.0
 20
66.39423932608298
 10
420.0
 20
64.72553999439029
 10
420.0
 20
63.22723648399912
 10
420.0
 20
61.906566457999745
 10
420.0
 20
60.76990950813397
  0
LWPOLYLINE
  5
171
330
17
100
AcDbEntity
  8
RIGHT
100
AcDbPolyline
 90
2
 70
0
 10
420.0
 20
99.0
 10
400.0
 20
99.0
  0
LWPOLYLINE
  5
172
330
17
100
AcDbEntity
  8
RIGHT
100
AcDbPolyline
 90
33
 70
0
 10
400.0
 20
99.0
 10
400.0
 20
96.02985322443766
 10
400.0
 20
93.09638780433207
 10
400.0
 20
90.22670689074492
 10
400.0
 20
87.44732431089456
 10
400.0
 20
84.78391959909679
 10
400.0
 20
82.26110073598349
 10
400.0
 20
79.90217678812127
 10
400.0
 20
77.72894254867991
 10
400.0
 20
75.76147716891863
 10
400.0
 20
74.0179586409933
 10
400.0
 20
72.5144958461327
 10
400.0
 20
71.26497971993996
 10
400.0
 20
70.28095490994698
 10
400.0
 20
69.5715131112155
 10
400.0
 20
69.14320906548836
 10
400.0
 20
69.0
 10
400.0
 20
69.14320906548836
 10
400.0
 20
69.5715131112155
 10
400.0
 20
70.280954909947
 10
400.0
 20
71.26497971993996
 10
400.0
 20
72.51449584613272
 10
400.0
 20
74.01795864099331
 10
400.0
 20
75.76147716891862
 10
400.0
 20
77.72894254867991
 10
400.0
 20
79.90217678812127
 10
400.0
 20
82.26110073598349
 10
400.0
 20
84.78391959909679
 10
400.0
 20
87.44732431089456
 10
400.0
 20
90.22670689074492
 10
400.0
 20
93.09638780433207
 10
400.0
 20
96.02985322443764
 10
400.0
 20
99.0
  0
LWPOLYLINE
  5
173
330
17
100
AcDbEntity
  8
RIGHT
100
AcDbPolyline
 90
2
 70
0
 10
400.0
 20
8.0
 10
400.0
 20
60.76990950813399
  0
LWPOLYLINE
  5
174
330
17
100
AcDbEntity
  8
RIGHT
100
AcDbPolyline
 90
2
 70
0
 10
400.0
 20
8.0
 10
400.0
 20
60.76990950813399
  0
LWPOLYLINE
  5
175
330
17
100
AcDbEntity
  8
RIGHT
100
AcDbPolyline
 90
18
 70
0
 10
400.0
 20
60.76990950813396
 10
400.0
 20
61.90656645799973
 10
400.0
 20
63.227236483999114
 10
400.0
 20
64.72553999439029
 10
400.0
 20
66.39423932608298
 10
400.0
 20
68.22527370669162
 10
400.0
 20
70.20979819267733
 10
400.0
 20
72.33822639548502
 10
400.0
 20
74.60027678928442
 10
400.0
 20
76.98502237662136
 10
400.0
 20
79.48094347206668
 10
400.0
 20
82.07598334888677
 10
400.0
 20
84.7576064799311
 10
400.0
 20
87.51285909139952
 10
400.0
 20
90.32843173698016
 10
400.0
 20
93.1907235900891
 10
400.0
 20
96.0859081436434
 10
400.0
 20
99.0
  0
LWPOLYLINE
  5
176
330
17
100
AcDbEntity
  8
RIGHT
100
AcDbPolyline
 90
2
 70
0
 10
420.0
 20
8.0
 10
420.0
 20
60.76990950813399
  0
LWPOLYLINE
  5
177
330
17
100
AcDbEntity
  8
RIGHT
100
AcDbPolyline
 90
2
 70
0
 10
400.0
 20
8.0
 10
420.0
 20
8.0
  0
LWPOLYLINE
  5
178
330
17
100
AcDbEntity
  8
RIGHT
100
AcDbPolyline
 90
33
 70
0
 10
420.0
 20
99.0
 10
420.0
 20
96.02985322443766
 10
420.0
 20
93.09638780433207
 10
420.0
 20
90.22670689074492
 10
420.0
 20
87.44732431089456
 10
420.0
 20
84.78391959909679
 10
420.0
 20
82.26110073598349
 10
420.0
 20
79.90217678812127
 10
420.0
 20
77.72894254867991
 10
420.0
 20
75.76147716891863
 10
420.0
 20
74.0179586409933
 10
420.0
 20
72.5144958461327
 10
420.0
 20
71.26497971993996
 10
420.0
 20
70.28095490994698
 10
420.0
 20
69.5715131112155
 10
420.0
 20
69.14320906548836
 10
420.0
 20
69.0
 10
420.0
 20
69.14320906548836
 10
420.0
 20
69.5715131112155
 10
420.0
 20
70.280954909947
 10
420.0
 20
71.26497971993996
 10
420.0
 20
72.51449584613272
 10
420.0
 20
74.01795864099331
 10
420.0
 20
75.76147716891862
 10
420.0
 20
77.72894254867991
 10
420.0
 20
79.90217678812127
 10
420.0
 20
82.26110073598349
 10
420.0
 20
84.78391959909679
 10
420.0
 20
87.44732431089456
 10
420.0
 20
90.22670689074492
 10
420.0
 20
93.09638780433207
 10
420.0
 20
96.02985322443764
 10
420.0
 20
99.0
  0
LWPOLYLINE
  5
179
330
17
100
AcDbEntity
  8
RIGHT
100
AcDbPolyline
 90
2
 70
0
 10
420.0
 20
8.0
 10
420.0
 20
60.76990950813399
  0
LWPOLYLINE
  5
17A
330
17
100
AcDbEntity
  8
RIGHT
100
AcDbPolyline
 90
18
 70
0
 10
420.0
 20
60.76990950813396
 10
420.0
 20
61.90656645799973
 10
420.0
 20
63.227236483999114
 10
420.0
 20
64.72553999439029
 10
420.0
 20
66.39423932608298
 10
420.0
 20
68.22527370669162
 10
420.0
 20
70.20979819267733
 10
420.0
 20
72.33822639548502
 10
420.0
 20
74.60027678928442
 10
420.0
 20
76.98502237662136
 10
420.0
 20
79.48094347206668
 10
420.0
 20
82.07598334888677
 10
420.0
 20
84.7576064799311
 10
420.0
 20
87.51285909139952
 10
420.0
 20
90.32843173698016
 10
420.0
 20
93.1907235900891
 10
420.0
 20
96.0859081436434
 10
420.0
 20
99.0
  0
LWPOLYLINE
  5
17B
330
17
100
AcDbEntity
  8
RIGHT
100
AcDbPolyline
 90
2
 70
0
 10
420.0
 20
99.0
 10
400.0
 20
99.0
  0
LWPOLYLINE
  5
17C
330
17
100
AcDbEntity
  8
RIGHT
100
AcDbPolyline
 90
2
 70
0
 10
420.0
 20
99.0
 10
400.0
 20
99.0
  0
LWPOLYLINE
  5
17D
330
17
100
AcDbEntity
  8
RIGHT
100
AcDbPolyline
 90
2
 70
0
 10
420.0
 20
99.0
 10
400.0
 20
99.0
  0
LWPOLYLINE
  5
17E
330
17
100
AcDbEntity
  8
RIGHT
100
AcDbPolyline
 90
2
 70
0
 10
420.0
 20
60.769909508133935
 10
400.0
 20
60.769909508133935
  0
LWPOLYLINE
  5
17F
330
17
100
AcDbEntity
  8
RIGHT
100
AcDbPolyline
 90
2
 70
0
 10
400.0
 20
8.0
 10
420.0
 20
8.0
  0
LWPOLYLINE
  5
180
330
17
100
AcDbEntity
  8
RIGHT
100
AcDbPolyline
 90
44
 70
0
 10
400.0
 20
101.99999999999999
 10
400.0
 20
104.96459606606916
 10
400.0
 20
107.90428544406555
 10
400.0
 20
110.8043201211812
 10
400.0
 20
113.650151026728
 10
400.0
 20
116.42750102280206
 10
400.0
 20
119.12243653069916
 10
400.0
 20
121.7214374337415
 10
400.0
 20
124.2114649058229
 10
400.0
 20
126.58002682538608
 10
400.0
 20
128.81524044665954
 10
400.0
 20
130.90589201374036
 10
400.0
 20
132.8414930184485
 10
400.0
 20
134.6123328197133
 10
400.0
 20
136.20952736050987
 10
400.0
 20
137.62506373793738
 10
400.0
 20
138.85184040283872
 10
400.0
 20
139.8837027872851
 10
400.0
 20
140.71547418118746
 10
400.0
 20
141.34298170313102
 10
400.0
 20
141.76307723514117
 10
400.0
 20
141.97365321635345
 10
400.0
 20
141.97365321635345
 10
400.0
 20
141.76307723514117
 10
400.0
 20
141.34298170313102
 10
400.0
 20
140.71547418118746
 10
400.0
 20
139.88370278728513
 10
400.0
 20
138.85184040283872
 10
400.0
 20
137.62506373793738
 10
400.0
 20
136.2095273605099
 10
400.0
 20
134.6123328197133
 10
400.0
 20
132.8414930184485
 10
400.0
 20
130.9058920137404
 10
400.0
 20
128.81524044665954
 10
400.0
 20
126.58002682538611
 10
400.0
 20
124.21146490582291
 10
400.0
 20
121.72143743374156
 10
400.0
 20
119.12243653069919
 10
400.0
 20
116.42750102280208
 10
400.0
 20
113.65015102672804
 10
400.0
 20
110.80432012118126
 10
400.0
 20
107.9042854440656
 10
400.0
 20
104.96459606606918
 10
400.0
 20
102.00000000000001
  0
LWPOLYLINE
  5
181
330
17
100
AcDbEntity
  8
RIGHT
100
AcDbPolyline
 90
2
 70
0
 10
420.0
 20
102.0
 10
400.0
 20
102.0
  0
LWPOLYLINE
  5
182
330
17
100
AcDbEntity
  8
RIGHT
100
AcDbPolyline
 90
44
 70
0
 10
420.0
 20
101.99999999999999
 10
420.0
 20
104.96459606606916
 10
420.0
 20
107.90428544406555
 10
420.0
 20
110.8043201211812
 10
420.0
 20
113.650151026728
 10
420.0
 20
116.42750102280206
 10
420.0
 20
119.12243653069916
 10
420.0
 20
121.7214374337415
 10
420.0
 20
124.2114649058229
 10
420.0
 20
126.58002682538608
 10
420.0
 20
128.81524044665954
 10
420.0
 20
130.90589201374036
 10
420.0
 20
132.8414930184485
 10
420.0
 20
134.6123328197133
 10
420.0
 20
136.20952736050987
 10
420.0
 20
137.62506373793738
 10
420.0
 20
138.85184040283872
 10
420.0
 20
139.8837027872851
 10
420.0
 20
140.71547418118746
 10
420.0
 20
141.34298170313102
 10
420.0
 20
141.76307723514117
 10
420.0
 20
141.97365321635345
 10
420.0
 20
141.97365321635345
 10
420.0
 20
141.76307723514117
 10
420.0
 20
141.34298170313102
 10
420.0
 20
140.71547418118746
 10
420.0
 20
139.88370278728513
 10
420.0
 20
138.85184040283872
 10
420.0
 20
137.62506373793738
 10
420.0
 20
136.2095273605099
 10
420.0
 20
134.6123328197133
 10
420.0
 20
132.8414930184485
 10
420.0
 20
130.9058920137404
 10
420.0
 20
128.81524044665954
 10
420.0
 20
126.58002682538611
 10
420.0
 20
124.21146490582291
 10
420.0
 20
121.72143743374156
 10
420.0
 20
119.12243653069919
 10
420.0
 20
116.42750102280208
 10
420.0
 20
113.65015102672804
 10
420.0
 20
110.80432012118126
 10
420.0
 20
107.9042854440656
 10
420.0
 20
104.96459606606918
 10
420.0
 20
102.00000000000001
  0
LWPOLYLINE
  5
183
330
17
100
AcDbEntity
  8
RIGHT
100
AcDbPolyline
 90
2
 70
0
 10
420.0
 20
102.0
 10
400.0
 20
102.0
  0
LWPOLYLINE
  5
184
330
17
100
AcDbEntity
  8
RIGHT
100
AcDbPolyline
 90
33
 70
0
 10
400.0
 20
102.0
 10
400.0
 20
104.89909577276791
 10
400.0
 20
107.75480641785599
 10
400.0
 20
110.54184249886617
 10
400.0
 20
113.2355227436145
 10
400.0
 20
115.81199261510731
 10
400.0
 20
118.24843556116389
 10
400.0
 20
120.52327507191336
 10
400.0
 20
122.61636575579728
 10
400.0
 20
124.50917174195749
 10
400.0
 20
126.18493082912431
 10
400.0
 20
127.62880292734451
 10
400.0
 20
128.82800147798764
 10
400.0
 20
129.77190668820904
 10
400.0
 20
130.45215957709416
 10
400.0
 20
130.8627360006361
 10
400.0
 20
131.0
 10
400.0
 20
130.8627360006361
 10
400.0
 20
130.45215957709416
 10
400.0
 20
129.77190668820907
 10
400.0
 20
128.82800147798764
 10
400.0
 20
127.62880292734451
 10
400.0
 20
126.18493082912433
 10
400.0
 20
124.50917174195749
 10
400.0
 20
122.61636575579729
 10
400.0
 20
120.52327507191337
 10
400.0
 20
118.24843556116389
 10
400.0
 20
115.81199261510736
 10
400.0
 20
113.2355227436145
 10
400.0
 20
110.5418424988662
 10
400.0
 20
107.75480641785599
 10
400.0
 20
104.89909577276791
 10
400.0
 20
102.00000000000001
  0
LWPOLYLINE
  5
185
330
17
100
AcDbEntity
  8
RIGHT
100
AcDbPolyline
 90
2
 70
0
 10
420.0
 20
102.0
 10
400.0
 20
102.0
  0
LWPOLYLINE
  5
186
330
17
100
AcDbEntity
  8
RIGHT
100
AcDbPolyline
 90
33
 70
0
 10
420.0
 20
102.0
 10
420.0
 20
104.89909577276791
 10
420.0
 20
107.75480641785599
 10
420.0
 20
110.54184249886617
 10
420.0
 20
113.2355227436145
 10
420.0
 20
115.81199261510731
 10
420.0
 20
118.24843556116389
 10
420.0
 20
120.52327507191336
 10
420.0
 20
122.61636575579728
 10
420.0
 20
124.50917174195749
 10
420.0
 20
126.18493082912431
 10
420.0
 20
127.62880292734451
 10
420.0
 20
128.82800147798764
 10
420.0
 20
129.77190668820904
 10
420.0
 20
130.45215957709416
 10
420.0
 20
130.8627360006361
 10
420.0
 20
131.0
 10
420.0
 20
130.8627360006361
 10
420.0
 20
130.45215957709416
 10
420.0
 20
129.77190668820907
 10
420.0
 20
128.82800147798764
 10
420.0
 20
127.62880292734451
 10
420.0
 20
126.18493082912433
 10
420.0
 20
124.50917174195749
 10
420.0
 20
122.61636575579729
 10
420.0
 20
120.52327507191337
 10
420.0
 20
118.24843556116389
 10
420.0
 20
115.81199261510736
 10
420.0
 20
113.2355227436145
 10
420.0
 20
110.5418424988662
 10
420.0
 20
107.75480641785599
 10
420.0
 20
104.89909577276791
 10
420.0
 20
102.00000000000001
  0
LWPOLYLINE
  5
187
330
17
100
AcDbEntity
  8
RIGHT
100
AcDbPolyline
 90
2
 70
0
 10
420.0
 20
102.0
 10
400.0
 20
102.0
  0
LWPOLYLINE
  5
188
330
17
100
AcDbEntity
  8
RIGHT
100
AcDbPolyline
 90
18
 70
0
 10
540.0
 20
99.0
 10
540.0
 20
96.08590814364341
 10
540.0
 20
93.19072359008912
 10
540.0
 20
90.32843173698016
 10
540.0
 20
87.51285909139952
 10
540.0
 20
84.7576064799311
 10
540.0
 20
82.07598334888677
 10
540.0
 20
79.48094347206668
 10
540.0
 20
76.98502237662137
 10
540.0
 20
74.60027678928442
 10
540.0
 20
72.33822639548504
 10
540.0
 20
70.20979819267733
 10
540.0
 20
68.22527370669164
 10
540.0
 20
66.39423932608298
 10
540.0
 20
64.72553999439029
 10
540.0
 20
63.22723648399912
 10
540.0
 20
61.906566457999745
 10
540.0
 20
60.76990950813397
  0
LWPOLYLINE
  5
189
330
17
100
AcDbEntity
  8
RIGHT
100
AcDbPolyline
 90
2
 70
0
 10
560.0
 20
60.769909508133935
 10
540.0
 20
60.769909508133935
  0
LWPOLYLINE
  5
18A
330
17
100
AcDbEntity
  8
RIGHT
100
AcDbPolyline
 90
18
 70
0
 10
560.0
 20
99.0
 10
560.0
 20
96.08590814364341
 10
560.0
 20
93.19072359008912
 10
560.0
 20
90.32843173698016
 10
560.0
 20
87.51285909139952
 10
560.0
 20
84.7576064799311
 10
560.0
 20
82.07598334888677
 10
560.0
 20
79.48094347206668
 10
560.0
 20
76.98502237662137
 10
560.0
 20
74.60027678928442
 10
560.0
 20
72.33822639548504
 10
560.0
 20
70.20979819267733
 10
560.0
 20
68.22527370669164
 10
560.0
 20
66.39423932608298
 10
560.0
 20
64.72553999439029
 10
560.0
 20
63.22723648399912
 10
560.0
 20
61.906566457999745
 10
560.0
 20
60.76990950813397
  0
LWPOLYLINE
  5
18B
330
17
100
AcDbEntity
  8
RIGHT
100
AcDbPolyline
 90
2
 70
0
 10
560.0
 20
99.0
 10
540.0
 20
99.0
  0
LWPOLYLINE
  5
18C
330
17
100
AcDbEntity
  8
RIGHT
100
AcDbPolyline
 90
33
 70
0
 10
540.0
 20
99.0
 10
540.0
 20
96.02985322443766
 10
540.0
 20
93.09638780433207
 10
540.0
 20
90.22670689074492
 10
540.0
 20
87.44732431089456
 10
540.0
 20
84.78391959909679
 10
540.0
 20
82.26110073598349
 10
540.0
 20
79.90217678812127
 10
540.0
 20
77.72894254867991
 10
540.0
 20
75.76147716891863
 10
540.0
 20
74.0179586409933
 10
540.0
 20
72.5144958461327
 10
540.0
 20
71.26497971993996
 10
540.0
 20
70.28095490994698
 10
540.0
 20
69.5715131112155
 10
540.0
 20
69.14320906548836
 10
540.0
 20
69.0
 10
540.0
 20
69.14320906548836
 10
540.0
 20
69.5715131112155
 10
540.0
 20
70.280954909947
 10
540.0
 20
71.26497971993996
 10
540.0
 20
72.51449584613272
 10
540.0
 20
74.01795864099331
 10
540.0
 20
75.76147716891862
 10
540.0
 20
77.72894254867991
 10
540.0
 20
79.90217678812127
 10
540.0
 20
82.26110073598349
 10
540.0
 20
84.78391959909679
 10
540.0
 20
87.44732431089456
 10
540.0
 20
90.22670689074492
 10
540.0
 20
93.09638780433207
 10
540.0
 20
96.02985322443764
 10
540.0
 20
99.0
  0
LWPOLYLINE
  5
18D
330
17
100
AcDbEntity
  8
RIGHT
100
AcDbPolyline
 90
2
 70
0
 10
540.0
 20
8.0
 10
540.0
 20
60.76990950813399
  0
LWPOLYLINE
  5
18E
330
17
100
AcDbEntity
  8
RIGHT
100
AcDbPolyline
 90
2
 70
0
 10
540.0
 20
8.0
 10
540.0
 20
60.76990950813399
  0
LWPOLYLINE
  5
18F
330
17
100
AcDbEntity
  8
RIGHT
100
AcDbPolyline
 90
18
 70
0
 10
540.0
 20
60.76990950813396
 10
540.0
 20
61.90656645799973
 10
540.0
 20
63.227236483999114
 10
540.0
 20
64.72553999439029
 10
540.0
 20
66.39423932608298
 10
540.0
 20
68.22527370669162
 10
540.0
 20
70.20979819267733
 10
540.0
 20
72.33822639548502
 10
540.0
 20
74.60027678928442
 10
540.0
 20
76.98502237662136
 10
540.0
 20
79.48094347206668
 10
540.0
 20
82.07598334888677
 10
540.0
 20
84.7576064799311
 10
540.0
 20
87.51285909139952
 10
540.0
 20
90.32843173698016
 10
540.0
 20
93.1907235900891
 10
540.0
 20
96.0859081436434
 10
540.0
 20
99.0
  0
LWPOLYLINE
  5
190
330
17
100
AcDbEntity
  8
RIGHT
100
AcDbPolyline
 90
2
 70
0
 10
560.0
 20
8.0
 10
560.0
 20
60.76990950813399
  0
LWPOLYLINE
  5
191
330
17
100
AcDbEntity
  8
RIGHT
100
AcDbPolyline
 90
2
 70
0
 10
540.0
 20
8.0
 10
560.0
 20
8.0
  0
LWPOLYLINE
  5
192
330
17
100
AcDbEntity
  8
RIGHT
100
AcDbPolyline
 90
33
 70
0
 10
560.0
 20
99.0
 10
560.0
 20
96.02985322443766
 10
560.0
 20
93.09638780433207
 10
560.0
 20
90.22670689074492
 10
560.0
 20
87.44732431089456
 10
560.0
 20
84.78391959909679
 10
560.0
 20
82.26110073598349
 10
560.0
 20
79.90217678812127
 10
560.0
 20
77.72894254867991
 10
560.0
 20
75.76147716891863
 10
560.0
 20
74.0179586409933
 10
560.0
 20
72.5144958461327
 10
560.0
 20
71.26497971993996
 10
560.0
 20
70.28095490994698
 10
560.0
 20
69.5715131112155
 10
560.0
 20
69.14320906548836
 10
560.0
 20
69.0
 10
560.0
 20
69.14320906548836
 10
560.0
 20
69.5715131112155
 10
560.0
 20
70.280954909947
 10
560.0
 20
71.26497971993996
 10
560.0
 20
72.51449584613272
 10
560.0
 20
74.01795864099331
 10
560.0
 20
75.76147716891862
 10
560.0
 20
77.72894254867991
 10
560.0
 20
79.90217678812127
 10
560.0
 20
82.26110073598349
 10
560.0
 20
84.78391959909679
 10
560.0
 20
87.44732431089456
 10
560.0
 20
90.22670689074492
 10
560.0
 20
93.09638780433207
 10
560.0
 20
96.02985322443764
 10
560.0
 20
99.0
  0
LWPOLYLINE
  5
193
330
17
100
AcDbEntity
  8
RIGHT
100
AcDbPolyline
 90
2
 70
0
 10
560.0
 20
8.0
 10
560.0
 20
60.76990950813399
  0
LWPOLYLINE
  5
194
330
17
100
AcDbEntity
  8
RIGHT
100
AcDbPolyline
 90
18
 70
0
 10
560.0
 20
60.76990950813396
 10
560.0
 20
61.90656645799973
 10
560.0
 20
63.227236483999114
 10
560.0
 20
64.72553999439029
 10
560.0
 20
66.39423932608298
 10
560.0
 20
68.22527370669162
 10
560.0
 20
70.20979819267733
 10
560.0
 20
72.33822639548502
 10
560.0
 20
74.60027678928442
 10
560.0
 20
76.98502237662136
 10
560.0
 20
79.48094347206668
 10
560.0
 20
82.07598334888677
 10
560.0
 20
84.7576064799311
 10
560.0
 20
87.51285909139952
 10
560.0
 20
90.32843173698016
 10
560.0
 20
93.1907235900891
 10
560.0
 20
96.0859081436434
 10
560.0
 20
99.0
  0
LWPOLYLINE
  5
195
330
17
100
AcDbEntity
  8
RIGHT
100
AcDbPolyline
 90
2
 70
0
 10
560.0
 20
99.0
 10
540.0
 20
99.0
  0
LWPOLYLINE
  5
196
330
17
100
AcDbEntity
  8
RIGHT
100
AcDbPolyline
 90
2
 70
0
 10
560.0
 20
99.0
 10
540.0
 20
99.0
  0
LWPOLYLINE
  5
197
330
17
100
AcDbEntity
  8
RIGHT
100
AcDbPolyline
 90
2
 70
0
 10
560.0
 20
99.0
 10
540.0
 20
99.0
  0
LWPOLYLINE
  5
198
330
17
100
AcDbEntity
  8
RIGHT
100
AcDbPolyline
 90
2
 70
0
 10
560.0
 20
60.769909508133935
 10
540.0
 20
60.769909508133935
  0
LWPOLYLINE
  5
199
330
17
100
AcDbEntity
  8
RIGHT
100
AcDbPolyline
 90
2
 70
0
 10
540.0
 20
8.0
 10
560.0
 20
8.0
  0
LWPOLYLINE
  5
19A
330
17
100
AcDbEntity
  8
RIGHT
100
AcDbPolyline
 90
44
 70
0
 10
540.0
 20
101.99999999999999
 10
540.0
 20
104.96459606606916
 10
540.0
 20
107.90428544406555
 10
540.0
 20
110.8043201211812
 10
540.0
 20
113.650151026728
 10
540.0
 20
116.42750102280206
 10
540.0
 20
119.12243653069916
 10
540.0
 20
121.7214374337415
 10
540.0
 20
124.2114649058229
 10
540.0
 20
126.58002682538608
 10
540.0
 20
128.81524044665954
 10
540.0
 20
130.90589201374036
 10
540.0
 20
132.8414930184485
 10
540.0
 20
134.6123328197133
 10
540.0
 20
136.20952736050987
 10
540.0
 20
137.62506373793738
 10
540.0
 20
138.85184040283872
 10
540.0
 20
139.8837027872851
 10
540.0
 20
140.71547418118746
 10
540.0
 20
141.34298170313102
 10
540.0
 20
141.76307723514117
 10
540.0
 20
141.97365321635345
 10
540.0
 20
141.97365321635345
 10
540.0
 20
141.76307723514117
 10
540.0
 20
141.34298170313102
 10
540.0
 20
140.71547418118746
 10
540.0
 20
139.88370278728513
 10
540.0
 20
138.85184040283872
 10
540.0
 20
137.62506373793738
 10
540.0
 20
136.2095273605099
 10
540.0
 20
134.6123328197133
 10
540.0
 20
132.8414930184485
 10
540.0
 20
130.9058920137404
 10
540.0
 20
128.81524044665954
 10
540.0
 20
126.58002682538611
 10
540.0
 20
124.21146490582291
 10
540.0
 20
121.72143743374156
 10
540.0
 20
119.12243653069919
 10
540.0
 20
116.42750102280208
 10
540.0
 20
113.65015102672804
 10
540.0
 20
110.80432012118126
 10
540.0
 20
107.9042854440656
 10
540.0
 20
104.96459606606918
 10
540.0
 20
102.00000000000001
  0
LWPOLYLINE
  5
19B
330
17
100
AcDbEntity
  8
RIGHT
100
AcDbPolyline
 90
2
 70
0
 10
560.0
 20
102.0
 10
540.0
 20
102.0
  0
LWPOLYLINE
  5
19C
330
17
100
AcDbEntity
  8
RIGHT
100
AcDbPolyline
 90
44
 70
0
 10
560.0
 20
101.99999999999999
 10
560.0
 20
104.96459606606916
 10
560.0
 20
107.90428544406555
 10
560.0
 20
110.8043201211812
 10
560.0
 20
113.650151026728
 10
560.0
 20
116.42750102280206
 10
560.0
 20
119.12243653069916
 10
560.0
 20
121.7214374337415
 10
560.0
 20
124.2114649058229
 10
560.0
 20
126.58002682538608
 10
560.0
 20
128.81524044665954
 10
560.0
 20
130.90589201374036
 10
560.0
 20
132.8414930184485
 10
560.0
 20
134.6123328197133
 10
560.0
 20
136.20952736050987
 10
560.0
 20
137.62506373793738
 10
560.0
 20
138.85184040283872
 10
560.0
 20
139.8837027872851
 10
560.0
 20
140.71547418118746
 10
560.0
 20
141.34298170313102
 10
560.0
 20
141.76307723514117
 10
560.0
 20
141.97365321635345
 10
560.0
 20
141.97365321635345
 10
560.0
 20
141.76307723514117
 10
560.0
 20
141.34298170313102
 10
560.0
 20
140.71547418118746
 10
560.0
 20
139.88370278728513
 10
560.0
 20
138.85184040283872
 10
560.0
 20
137.62506373793738
 10
560.0
 20
136.2095273605099
 10
560.0
 20
134.6123328197133
 10
560.0
 20
132.8414930184485
 10
560.0
 20
130.9058920137404
 10
560.0
 20
128.81524044665954
 10
560.0
 20
126.58002682538611
 10
560.0
 20
124.21146490582291
 10
560.0
 20
121.72143743374156
 10
560.0
 20
119.12243653069919
 10
560.0
 20
116.42750102280208
 10
560.0
 20
113.65015102672804
 10
560.0
 20
110.80432012118126
 10
560.0
 20
107.9042854440656
 10
560.0
 20
104.96459606606918
 10
560.0
 20
102.00000000000001
  0
LWPOLYLINE
  5
19D
330
17
100
AcDbEntity
  8
RIGHT
100
AcDbPolyline
 90
2
 70
0
 10
560.0
 20
102.0
 10
540.0
 20
102.0
  0
LWPOLYLINE
  5
19E
330
17
100
AcDbEntity
  8
RIGHT
100
AcDbPolyline
 90
33
 70
0
 10
540.0
 20
102.0
 10
540.0
 20
104.89909577276791
 10
540.0
 20
107.75480641785599
 10
540.0
 20
110.54184249886617
 10
540.0
 20
113.2355227436145
 10
540.0
 20
115.81199261510731
 10
540.0
 20
118.24843556116389
 10
540.0
 20
120.52327507191336
 10
540.0
 20
122.61636575579728
 10
540.0
 20
124.50917174195749
 10
540.0
 20
126.18493082912431
 10
540.0
 20
127.62880292734451
 10
540.0
 20
128.82800147798764
 10
540.0
 20
129.77190668820904
 10
540.0
 20
130.45215957709416
 10
540.0
 20
130.8627360006361
 10
540.0
 20
131.0
 10
540.0
 20
130.8627360006361
 10
540.0
 20
130.45215957709416
 10
540.0
 20
129.77190668820907
 10
540.0
 20
128.82800147798764
 10
540.0
 20
127.62880292734451
 10
540.0
 20
126.18493082912433
 10
540.0
 20
124.50917174195749
 10
540.0
 20
122.61636575579729
 10
540.0
 20
120.52327507191337
 10
540.0
 20
118.24843556116389
 10
540.0
 20
115.81199261510736
 10
540.0
 20
113.2355227436145
 10
540.0
 20
110.5418424988662
 10
540.0
 20
107.75480641785599
 10
540.0
 20
104.89909577276791
 10
540.0
 20
102.00000000000001
  0
LWPOLYLINE
  5
19F
330
17
100
AcDbEntity
  8
RIGHT
100
AcDbPolyline
 90
2
 70
0
 10
560.0
 20
102.0
 10
540.0
 20
102.0
  0
LWPOLYLINE
  5
1A0
330
17
100
AcDbEntity
  8
RIGHT
100
AcDbPolyline
 90
33
 70
0
 10
560.0
 20
102.0
 10
560.0
 20
104.89909577276791
 10
560.0
 20
107.75480641785599
 10
560.0
 20
110.54184249886617
 10
560.0
 20
113.2355227436145
 10
560.0
 20
115.81199261510731
 10
560.0
 20
118.24843556116389
 10
560.0
 20
120.52327507191336
 10
560.0
 20
122.61636575579728
 10
560.0
 20
124.50917174195749
 10
560.0
 20
126.18493082912431
 10
560.0
 20
127.62880292734451
 10
560.0
 20
128.82800147798764
 10
560.0
 20
129.77190668820904
 10
560.0
 20
130.45215957709416
 10
560.0
 20
130.8627360006361
 10
560.0
 20
131.0
 10
560.0
 20
130.8627360006361
 10
560.0
 20
130.45215957709416
 10
560.0
 20
129.77190668820907
 10
560.0
 20
128.82800147798764
 10
560.0
 20
127.62880292734451
 10
560.0
 20
126.18493082912433
 10
560.0
 20
124.50917174195749
 10
560.0
 20
122.61636575579729
 10
560.0
 20
120.52327507191337
 10
560.0
 20
118.24843556116389
 10
560.0
 20
115.81199261510736
 10
560.0
 20
113.2355227436145
 10
560.0
 20
110.5418424988662
 10
560.0
 20
107.75480641785599
 10
560.0
 20
104.89909577276791
 10
560.0
 20
102.00000000000001
  0
LWPOLYLINE
  5
1A1
330
17
100
AcDbEntity
  8
RIGHT
100
AcDbPolyline
 90
2
 70
0
 10
560.0
 20
102.0
 10
540.0
 20
102.0
  0
LWPOLYLINE
  5
1A2
330
17
100
AcDbEntity
  8
RIGHT
100
AcDbPolyline
 90
2
 70
0
 10
476.0
 20
8.0
 10
476.0
 20
73.0
  0
LWPOLYLINE
  5
1A3
330
17
100
AcDbEntity
  8
RIGHT
100
AcDbPolyline
 90
2
 70
0
 10
476.0
 20
73.0
 10
484.0
 20
73.0
  0
LWPOLYLINE
  5
1A4
330
17
100
AcDbEntity
  8
RIGHT
100
AcDbPolyline
 90
2
 70
0
 10
484.0
 20
8.0
 10
484.0
 20
73.0
  0
LWPOLYLINE
  5
1A5
330
17
100
AcDbEntity
  8
RIGHT
100
AcDbPolyline
 90
2
 70
0
 10
476.0
 20
8.0
 10
484.0
 20
8.0
  0
LWPOLYLINE
  5
1A6
330
17
100
AcDbEntity
  8
RIGHT
100
AcDbPolyline
 90
2
 70
0
 10
476.0
 20
8.0
 10
476.0
 20
73.0
  0
LWPOLYLINE
  5
1A7
330
17
100
AcDbEntity
  8
RIGHT
100
AcDbPolyline
 90
18
 70
0
 10
476.0
 20
54.0
 10
476.0
 20
56.889933329497225
 10
476.0
 20
59.389565149172455
 10
476.0
 20
61.161306330840496
 10
476.0
 20
61.965873410360274
 10
476.0
 20
61.69460514538255
 10
476.0
 20
60.38413781824192
 10
476.0
 20
58.21145730301885
 10
476.0
 20
55.469996142532565
 10
476.0
 20
52.53000385746744
 10
476.0
 20
49.78854269698115
 10
476.0
 20
47.61586218175808
 10
476.0
 20
46.30539485461745
 10
476.0
 20
46.034126589639726
 10
476.0
 20
46.8386936691595
 10
476.0
 20
48.61043485082754
 10
476.0
 20
51.110066670502775
 10
476.0
 20
54.0
  0
LWPOLYLINE
  5
1A8
330
17
100
AcDbEntity
  8
RIGHT
100
AcDbPolyline
 90
2
 70
0
 10
476.0
 20
73.0
 10
484.0
 20
73.0
  0
LWPOLYLINE
  5
1A9
330
17
100
AcDbEntity
  8
RIGHT
100
AcDbPolyline
 90
2
 70
0
 10
484.0
 20
8.0
 10
484.0
 20
73.0
  0
LWPOLYLINE
  5
1AA
330
17
100
AcDbEntity
  8
RIGHT
100
AcDbPolyline
 90
18
 70
0
 10
484.0
 20
54.0
 10
484.0
 20
56.889933329497225
 10
484.0
 20
59.389565149172455
 10
484.0
 20
61.161306330840496
 10
484.0
 20
61.965873410360274
 10
484.0
 20
61.69460514538255
 10
484.0
 20
60.38413781824192
 10
484.0
 20
58.21145730301885
 10
484.0
 20
55.469996142532565
 10
484.0
 20
52.53000385746744
 10
484.0
 20
49.78854269698115
 10
484.0
 20
47.61586218175808
 10
484.0
 20
46.30539485461745
 10
484.0
 20
46.034126589639726
 10
484.0
 20
46.8386936691595
 10
484.0
 20
48.61043485082754
 10
484.0
 20
51.110066670502775
 10
484.0
 20
54.0
  0
LWPOLYLINE
  5
1AB
330
17
100
AcDbEntity
  8
RIGHT
100
AcDbPolyline
 90
2
 70
0
 10
476.0
 20
8.0
 10
484.0
 20
8.0
  0
LWPOLYLINE
  5
1AC
330
17
100
AcDbEntity
  8
RIGHT
100
AcDbPolyline
 90
2
 70
0
 10
476.0
 20
54.0
 10
484.0
 20
54.0
  0
LWPOLYLINE
  5
1AD
330
17
100
AcDbEntity
  8
RIGHT
100
AcDbPolyline
 90
2
 70
0
 10
390.0
 20
23.0
 10
570.0
 20
23.00000000000002
  0
LWPOLYLINE
  5
1AE
330
17
100
AcDbEntity
  8
RIGHT
100
AcDbPolyline
 90
16
 70
0
 10
390.0
 20
23.0
 10
390.0
 20
21.3730534276968
 10
390.0
 20
20.027420698090424
 10
390.0
 20
19.195773934819385
 10
390.0
 20
19.021912418526906
 10
390.0
 20
19.535898384862247
 10
390.0
 20
20.648858990830107
 10
390.0
 20
22.16835323672896
 10
390.0
 20
23.831646763271035
 10
390.0
 20
25.351141009169893
 10
390.0
 20
26.464101615137753
 10
390.0
 20
26.978087581473094
 10
390.0
 20
26.804226065180615
 10
390.0
 20
25.972579301909576
 10
390.0
 20
24.6269465723032
 10
390.0
 20
23.0
  0
LWPOLYLINE
  5
1AF
330
17
100
AcDbEntity
  8
RIGHT
100
AcDbPolyline
 90
16
 70
0
 10
570.0
 20
23.00000000000002
 10
570.0
 20
21.37305342769682
 10
570.0
 20
20.027420698090445
 10
570.0
 20
19.195773934819407
 10
570.0
 20
19.021912418526927
 10
570.0
 20
19.535898384862268
 10
570.0
 20
20.648858990830128
 10
570.0
 20
22.168353236728983
 10
570.0
 20
23.831646763271056
 10
570.0
 20
25.351141009169915
 10
570.0
 20
26.464101615137775
 10
570.0
 20
26.978087581473115
 10
570.0
 20
26.804226065180636
 10
570.0
 20
25.972579301909597
 10
570.0
 20
24.626946572303222
 10
570.0
 20
23.00000000000002
  0
LWPOLYLINE
  5
1B0
330
17
100
AcDbEntity
  8
RIGHT
100
AcDbPolyline
 90
2
 70
0
 10
415.0
 20
8.0
 10
415.0
 20
38.0
  0
LWPOLYLINE
  5
1B1
330
17
100
AcDbEntity
  8
RIGHT
100
AcDbPolyline
 90
2
 70
0
 10
415.0
 20
38.0
 10
435.0
 20
38.0
  0
LWPOLYLINE
  5
1B2
330
17
100
AcDbEntity
  8
RIGHT
100
AcDbPolyline
 90
2
 70
0
 10
435.0
 20
8.0
 10
435.0
 20
38.0
  0
LWPOLYLINE
  5
1B3
330
17
100
AcDbEntity
  8
RIGHT
100
AcDbPolyline
 90
2
 70
0
 10
415.0
 20
8.0
 10
435.0
 20
8.0
  0
LWPOLYLINE
  5
1B4
330
17
100
AcDbEntity
  8
RIGHT
100
AcDbPolyline
 90
2
 70
0
 10
415.0
 20
8.0
 10
415.0
 20
38.0
  0
LWPOLYLINE
  5
1B5
330
17
100
AcDbEntity
  8
RIGHT
100
AcDbPolyline
 90
16
 70
0
 10
415.0
 20
23.0
 10
415.0
 20
24.830314893841102
 10
415.0
 20
26.344151714648273
 10
415.0
 20
27.27975432332819
 10
415.0
 20
27.47534852915723
 10
415.0
 20
26.897114317029974
 10
415.0
 20
25.64503363531613
 10
415.0
 20
23.93560260867992
 10
415.0
 20
22.064397391320085
 10
415.0
 20
20.35496636468387
 10
415.0
 20
19.102885682970026
 10
415.0
 20
18.52465147084277
 10
415.0
 20
18.72024567667181
 10
415.0
 20
19.655848285351723
 10
415.0
 20
21.169685106158898
 10
415.0
 20
23.0
  0
LWPOLYLINE
  5
1B6
330
17
100
AcDbEntity
  8
RIGHT
100
AcDbPolyline
 90
2
 70
0
 10
415.0
 20
38.0
 10
435.0
 20
38.0
  0
LWPOLYLINE
  5
1B7
330
17
100
AcDbEntity
  8
RIGHT
100
AcDbPolyline
 90
2
 70
0
 10
435.0
 20
8.0
 10
435.0
 20
38.0
  0
LWPOLYLINE
  5
1B8
330
17
100
AcDbEntity
  8
RIGHT
100
AcDbPolyline
 90
16
 70
0
 10
435.0
 20
23.000000000000004
 10
435.0
 20
24.830314893841106
 10
435.0
 20
26.344151714648277
 10
435.0
 20
27.279754323328195
 10
435.0
 20
27.475348529157234
 10
435.0
 20
26.897114317029978
 10
435.0
 20
25.645033635316132
 10
435.0
 20
23.935602608679922
 10
435.0
 20
22.06439739132009
 10
435.0
 20
20.354966364683875
 10
435.0
 20
19.10288568297003
 10
435.0
 20
18.524651470842773
 10
435.0
 20
18.720245676671812
 10
435.0
 20
19.655848285351727
 10
435.0
 20
21.1696851061589
 10
435.0
 20
23.000000000000004
  0
LWPOLYLINE
  5
1B9
330
17
100
AcDbEntity
  8
RIGHT
100
AcDbPolyline
 90
2
 70
0
 10
415.0
 20
8.0
 10
435.0
 20
8.0
  0
LWPOLYLINE
  5
1BA
330
17
100
AcDbEntity
  8
RIGHT
100
AcDbPolyline
 90
2
 70
0
 10
415.0
 20
23.0
 10
435.0
 20
23.000000000000004
  0
LWPOLYLINE
  5
1BB
330
17
100
AcDbEntity
  8
RIGHT
100
AcDbPolyline
 90
2
 70
0
 10
505.0
 20
8.0
 10
505.0
 20
38.0
  0
LWPOLYLINE
  5
1BC
330
17
100
AcDbEntity
  8
RIGHT
100
AcDbPolyline
 90
2
 70
0
 10
505.0
 20
38.0
 10
525.0
 20
38.0
  0
LWPOLYLINE
  5
1BD
330
17
100
AcDbEntity
  8
RIGHT
100
AcDbPolyline
 90
2
 70
0
 10
525.0
 20
8.0
 10
525.0
 20
38.0
  0
LWPOLYLINE
  5
1BE
330
17
100
AcDbEntity
  8
RIGHT
100
AcDbPolyline
 90
2
 70
0
 10
505.0
 20
8.0
 10
525.0
 20
8.0
  0
LWPOLYLINE
  5
1BF
330
17
100
AcDbEntity
  8
RIGHT
100
AcDbPolyline
 90
2
 70
0
 10
505.0
 20
8.0
 10
505.0
 20
38.0
  0
LWPOLYLINE
  5
1C0
330
17
100
AcDbEntity
  8
RIGHT
100
AcDbPolyline
 90
16
 70
0
 10
505.0
 20
23.0
 10
505.0
 20
24.830314893841102
 10
505.0
 20
26.344151714648273
 10
505.0
 20
27.27975432332819
 10
505.0
 20
27.47534852915723
 10
505.0
 20
26.897114317029974
 10
505.0
 20
25.64503363531613
 10
505.0
 20
23.93560260867992
 10
505.0
 20
22.064397391320085
 10
505.0
 20
20.35496636468387
 10
505.0
 20
19.102885682970026
 10
505.0
 20
18.52465147084277
 10
505.0
 20
18.72024567667181
 10
505.0
 20
19.655848285351723
 10
505.0
 20
21.169685106158898
 10
505.0
 20
23.0
  0
LWPOLYLINE
  5
1C1
330
17
100
AcDbEntity
  8
RIGHT
100
AcDbPolyline
 90
2
 70
0
 10
505.0
 20
38.0
 10
525.0
 20
38.0
  0
LWPOLYLINE
  5
1C2
330
17
100
AcDbEntity
  8
RIGHT
100
AcDbPolyline
 90
2
 70
0
 10
525.0
 20
8.0
 10
525.0
 20
38.0
  0
LWPOLYLINE
  5
1C3
330
17
100
AcDbEntity
  8
RIGHT
100
AcDbPolyline
 90
16
 70
0
 10
525.0
 20
23.000000000000004
 10
525.0
 20
24.830314893841106
 10
525.0
 20
26.344151714648277
 10
525.0
 20
27.279754323328195
 10
525.0
 20
27.475348529157234
 10
525.0
 20
26.897114317029978
 10
525.0
 20
25.645033635316132
 10
525.0
 20
23.935602608679922
 10
525.0
 20
22.06439739132009
 10
525.0
 20
20.354966364683875
 10
525.0
 20
19.10288568297003
 10
525.0
 20
18.524651470842773
 10
525.0
 20
18.720245676671812
 10
525.0
 20
19.655848285351727
 10
525.0
 20
21.1696851061589
 10
525.0
 20
23.000000000000004
  0
LWPOLYLINE
  5
1C4
330
17
100
AcDbEntity
  8
RIGHT
100
AcDbPolyline
 90
2
 70
0
 10
505.0
 20
8.0
 10
525.0
 20
8.0
  0
LWPOLYLINE
  5
1C5
330
17
100
AcDbEntity
  8
RIGHT
100
AcDbPolyline
 90
2
 70
0
 10
505.0
 20
23.0
 10
525.0
 20
23.000000000000004
  0
DIMENSION
  5
1C6
330
17
100
AcDbEntity
  8
DIMENSIONS
100
AcDbDimension
280
0
  2
*D5
  3
Standard
 10
330.0
 20
-35.0
 30
0.0
 11
480.0
 21
-35.0
 31
0.0
 70
32
 71
5
  1
<>
100
AcDbAlignedDimension
 13
330.0
 23
0.0
 33
0.0
 14
630.0
 24
0.0
 34
0.0
 50
0.0
100
AcDbRotatedDimension
1001
ACAD
1000
DSTYLE
1002
{
1070
140
1040
2.5
1070
41
1040
2.5
1070
176
1070
7
1070
177
1070
7
1070
178
1070
7
1070
271
1070
2
1002
}
  0
DIMENSION
  5
1D6
330
17
100
AcDbEntity
  8
DIMENSIONS
100
AcDbDimension
280
0
  2
*D6
  3
Standard
 10
295.0
 20
0.0
 30
0.0
 11
295.0
 21
71.0
 31
0.0
 70
32
 71
5
  1
<>
100
AcDbAlignedDimension
 13
330.0
 23
0.0
 33
0.0
 14
330.0
 24
142.0
 34
0.0
 50
90.0
100
AcDbRotatedDimension
1001
ACAD
1000
DSTYLE
1002
{
1070
140
1040
2.5
1070
41
1040
2.5
1070
176
1070
7
1070
177
1070
7
1070
178
1070
7
1070
271
1070
2
1002
}
  0
TEXT
  5
1E6
330
17
100
AcDbEntity
  8
NOTES
100
AcDbText
 10
330.0
 20
162.0
 30
0.0
 40
4.0
  1
RIGHT
100
AcDbText
  0
TEXT
  5
1E7
330
17
100
AcDbEntity
  8
NOTES
100
AcDbText
 10
0.0
 20
-392.0
 30
0.0
 40
4.0
  1
Datum: right-handed assembly-local X/Y/Z; plan XY, front XZ, right YZ. Overall dimensions derive from exact BRep.
100
AcDbText
  0
TEXT
  5
1E8
330
17
100
AcDbEntity
  8
NOTES
100
AcDbText
 10
0.0
 20
-401.0
 30
0.0
 40
4.0
  1
Curved drawing edges are sampled; wireframe includes hidden/back edges. STEP is the geometry authority; DXF units mm.
100
AcDbText
  0
TEXT
  5
1E9
330
17
100
AcDbEntity
  8
NOTES
100
AcDbText
 10
0.0
 20
-410.0
 30
0.0
 40
4.0
  1
Source-tagged Pi features and battery/panel/converter/MPPT overall sizes are verified references; other geometry is provisional.
100
AcDbText
  0
TEXT
  5
1EA
330
17
100
AcDbEntity
  8
NOTES
100
AcDbText
 10
0.0
 20
-419.0
 30
0.0
 40
4.0
  1
Default machining allowance +/-0.30 mm; clamp bore +/-0.20 mm; envelope dia +/-0.50 mm: assumptions, not release tolerances.
100
AcDbText
  0
TEXT
  5
1EB
330
17
100
AcDbEntity
  8
NOTES
100
AcDbText
 10
0.0
 20
-428.0
 30
0.0
 40
4.0
  1
Metal parts: deburr/passivate or isolate/anodize per material record; fastener torque, coating, corrosion and loads remain open.
100
AcDbText
  0
TEXT
  5
1EC
330
17
100
AcDbEntity
  8
NOTES
100
AcDbText
 10
0.0
 20
-437.0
 30
0.0
 40
4.0
  1
No pressure containment, rating, calibration, safe working load or fabrication release. See manifest.json part/BOM/feature notes.
100
AcDbText
  0
ENDSEC
  0
SECTION
  2
OBJECTS
  0
DICTIONARY
  5
A
330
0
100
AcDbDictionary
281
1
  3
ACAD_COLOR
350
B
  3
ACAD_GROUP
350
C
  3
ACAD_LAYOUT
350
D
  3
ACAD_MATERIAL
350
E
  3
ACAD_MLEADERSTYLE
350
F
  3
ACAD_MLINESTYLE
350
10
  3
ACAD_PLOTSETTINGS
350
11
  3
ACAD_PLOTSTYLENAME
350
12
  3
ACAD_SCALELIST
350
14
  3
ACAD_TABLESTYLE
350
15
  3
ACAD_VISUALSTYLE
350
16
  3
EZDXF_META
350
2D
  0
DICTIONARY
  5
B
330
A
100
AcDbDictionary
281
1
  0
DICTIONARY
  5
C
330
A
100
AcDbDictionary
281
1
  0
DICTIONARY
  5
D
330
A
100
AcDbDictionary
281
1
  3
Model
350
1A
  3
Layout1
350
1E
  0
DICTIONARY
  5
E
330
A
100
AcDbDictionary
281
1
  3
ByBlock
350
1F
  3
ByLayer
350
20
  3
Global
350
21
  0
DICTIONARY
  5
F
330
A
100
AcDbDictionary
281
1
  3
Standard
350
2C
  0
DICTIONARY
  5
10
330
A
100
AcDbDictionary
281
1
  3
Standard
350
22
  0
DICTIONARY
  5
11
330
A
100
AcDbDictionary
281
1
  0
ACDBDICTIONARYWDFLT
  5
12
330
A
100
AcDbDictionary
281
1
  3
Normal
350
13
100
AcDbDictionaryWithDefault
340
13
  0
ACDBPLACEHOLDER
  5
13
330
12
  0
DICTIONARY
  5
14
330
A
100
AcDbDictionary
281
1
  0
DICTIONARY
  5
15
330
A
100
AcDbDictionary
281
1
  0
DICTIONARY
  5
16
330
A
100
AcDbDictionary
281
1
  0
LAYOUT
  5
1A
330
D
100
AcDbPlotSettings
  1

  4
A3
  6

 40
7.5
 41
20.0
 42
7.5
 43
20.0
 44
420.0
 45
297.0
 46
0.0
 47
0.0
 48
0.0
 49
0.0
140
0.0
141
0.0
142
1.0
143
1.0
 70
1024
 72
1
 73
0
 74
5
  7

 75
16
 76
0
 77
2
 78
300
147
1.0
148
0.0
149
0.0
100
AcDbLayout
  1
Model
 70
1
 71
0
 10
0.0
 20
0.0
 11
420.0
 21
297.0
 12
0.0
 22
0.0
 32
0.0
 14
1e+20
 24
1e+20
 34
1e+20
 15
-1e+20
 25
-1e+20
 35
-1e+20
146
0.0
 13
0.0
 23
0.0
 33
0.0
 16
1.0
 26
0.0
 36
0.0
 17
0.0
 27
1.0
 37
0.0
 76
1
330
17
  0
LAYOUT
  5
1E
330
D
100
AcDbPlotSettings
  1

  4
A3
  6

 40
7.5
 41
20.0
 42
7.5
 43
20.0
 44
420.0
 45
297.0
 46
0.0
 47
0.0
 48
0.0
 49
0.0
140
0.0
141
0.0
142
1.0
143
1.0
 70
0
 72
1
 73
0
 74
5
  7

 75
16
 76
0
 77
2
 78
300
147
1.0
148
0.0
149
0.0
100
AcDbLayout
  1
Layout1
 70
1
 71
1
 10
0.0
 20
0.0
 11
420.0
 21
297.0
 12
0.0
 22
0.0
 32
0.0
 14
1e+20
 24
1e+20
 34
1e+20
 15
-1e+20
 25
-1e+20
 35
-1e+20
146
0.0
 13
0.0
 23
0.0
 33
0.0
 16
1.0
 26
0.0
 36
0.0
 17
0.0
 27
1.0
 37
0.0
 76
1
330
1B
  0
MATERIAL
  5
1F
102
{ACAD_REACTORS
330
E
102
}
330
E
100
AcDbMaterial
  1
ByBlock
  2

 70
0
 40
1.0
 71
1
 41
1.0
 91
-1023410177
 42
1.0
 72
1
  3

 73
1
 74
1
 75
1
 44
0.5
 73
0
 45
1.0
 46
1.0
 77
1
  4

 78
1
 79
1
170
1
 48
1.0
171
1
  6

172
1
173
1
174
1
140
1.0
141
1.0
175
1
  7

176
1
177
1
178
1
143
1.0
179
1
  8

270
1
271
1
272
1
145
1.0
146
1.0
273
1
  9

274
1
275
1
276
1
 42
1.0
 72
1
  3

 73
1
 74
1
 75
1
 94
63
  0
MATERIAL
  5
20
102
{ACAD_REACTORS
330
E
102
}
330
E
100
AcDbMaterial
  1
ByLayer
  2

 70
0
 40
1.0
 71
1
 41
1.0
 91
-1023410177
 42
1.0
 72
1
  3

 73
1
 74
1
 75
1
 44
0.5
 73
0
 45
1.0
 46
1.0
 77
1
  4

 78
1
 79
1
170
1
 48
1.0
171
1
  6

172
1
173
1
174
1
140
1.0
141
1.0
175
1
  7

176
1
177
1
178
1
143
1.0
179
1
  8

270
1
271
1
272
1
145
1.0
146
1.0
273
1
  9

274
1
275
1
276
1
 42
1.0
 72
1
  3

 73
1
 74
1
 75
1
 94
63
  0
MATERIAL
  5
21
102
{ACAD_REACTORS
330
E
102
}
330
E
100
AcDbMaterial
  1
Global
  2

 70
0
 40
1.0
 71
1
 41
1.0
 91
-1023410177
 42
1.0
 72
1
  3

 73
1
 74
1
 75
1
 44
0.5
 73
0
 45
1.0
 46
1.0
 77
1
  4

 78
1
 79
1
170
1
 48
1.0
171
1
  6

172
1
173
1
174
1
140
1.0
141
1.0
175
1
  7

176
1
177
1
178
1
143
1.0
179
1
  8

270
1
271
1
272
1
145
1.0
146
1.0
273
1
  9

274
1
275
1
276
1
 42
1.0
 72
1
  3

 73
1
 74
1
 75
1
 94
63
  0
MLINESTYLE
  5
22
102
{ACAD_REACTORS
330
10
102
}
330
10
100
AcDbMlineStyle
  2
Standard
 70
0
  3

 62
256
 51
90.0
 52
90.0
 71
2
 49
0.5
 62
256
  6
BYLAYER
 49
-0.5
 62
256
  6
BYLAYER
  0
MLEADERSTYLE
  5
2C
102
{ACAD_REACTORS
330
F
102
}
330
F
100
AcDbMLeaderStyle
179
2
170
2
171
1
172
0
 90
2
 40
0.0
 41
0.0
173
1
 91
-1056964608
 92
-2
290
1
 42
2.0
291
1
 43
8.0
  3
Standard
 44
4.0
300

342
29
174
1
175
1
176
0
178
1
 93
-1056964608
 45
4.0
292
0
297
0
 46
4.0
 94
-1056964608
 47
1.0
 49
1.0
140
1.0
294
1
141
0.0
177
0
142
1.0
295
0
296
0
143
3.75
271
0
272
9
273
9
  0
DICTIONARY
  5
2D
330
A
100
AcDbDictionary
280
1
281
1
  3
CREATED_BY_EZDXF
350
2E
  3
WRITTEN_BY_EZDXF
350
1EF
  0
DICTIONARYVAR
  5
2E
330
2D
100
DictionaryVariables
280
0
  1
1.4.3 @ 2026-09-27T12:03:30.850553+00:00
  0
DICTIONARYVAR
  5
1EF
330
2D
100
DictionaryVariables
280
0
  1
1.4.3 @ 2026-09-27T12:03:30.878697+00:00
  0
ENDSEC
  0
EOF
