  0
SECTION
  2
HEADER
  9
$ACADVER
  1
AC1032
  9
$ACADMAINTVER
 90
4
  9
$DWGCODEPAGE
  3
ANSI_1252
  9
$LASTSAVEDBY
  1
ezdxf
  9
$REQUIREDVERSIONS
160
0
  9
$INSBASE
 10
0.0
 20
0.0
 30
0.0
  9
$EXTMIN
 10
1e+20
 20
1e+20
 30
1e+20
  9
$EXTMAX
 10
-1e+20
 20
-1e+20
 30
-1e+20
  9
$LIMMIN
 10
0.0
 20
0.0
  9
$LIMMAX
 10
420.0
 20
297.0
  9
$ORTHOMODE
 70
0
  9
$REGENMODE
 70
1
  9
$FILLMODE
 70
1
  9
$QTEXTMODE
 70
0
  9
$MIRRTEXT
 70
1
  9
$LTSCALE
 40
1.0
  9
$ATTMODE
 70
1
  9
$TEXTSIZE
 40
2.5
  9
$TRACEWID
 40
1.0
  9
$TEXTSTYLE
  7
Standard
  9
$CLAYER
  8
0
  9
$CELTYPE
  6
ByLayer
  9
$CECOLOR
 62
256
  9
$CELTSCALE
 40
1.0
  9
$DISPSILH
 70
0
  9
$DIMSCALE
 40
1.0
  9
$DIMASZ
 40
2.5
  9
$DIMEXO
 40
0.625
  9
$DIMDLI
 40
3.75
  9
$DIMRND
 40
0.0
  9
$DIMDLE
 40
0.0
  9
$DIMEXE
 40
1.25
  9
$DIMTP
 40
0.0
  9
$DIMTM
 40
0.0
  9
$DIMTXT
 40
2.5
  9
$DIMCEN
 40
2.5
  9
$DIMTSZ
 40
0.0
  9
$DIMTOL
 70
0
  9
$DIMLIM
 70
0
  9
$DIMTIH
 70
0
  9
$DIMTOH
 70
0
  9
$DIMSE1
 70
0
  9
$DIMSE2
 70
0
  9
$DIMTAD
 70
1
  9
$DIMZIN
 70
8
  9
$DIMBLK
  1

  9
$DIMASO
 70
1
  9
$DIMSHO
 70
1
  9
$DIMPOST
  1

  9
$DIMAPOST
  1

  9
$DIMALT
 70
0
  9
$DIMALTD
 70
3
  9
$DIMALTF
 40
0.03937007874
  9
$DIMLFAC
 40
1.0
  9
$DIMTOFL
 70
1
  9
$DIMTVP
 40
0.0
  9
$DIMTIX
 70
0
  9
$DIMSOXD
 70
0
  9
$DIMSAH
 70
0
  9
$DIMBLK1
  1

  9
$DIMBLK2
  1

  9
$DIMSTYLE
  2
ISO-25
  9
$DIMCLRD
 70
0
  9
$DIMCLRE
 70
0
  9
$DIMCLRT
 70
0
  9
$DIMTFAC
 40
1.0
  9
$DIMGAP
 40
0.625
  9
$DIMJUST
 70
0
  9
$DIMSD1
 70
0
  9
$DIMSD2
 70
0
  9
$DIMTOLJ
 70
0
  9
$DIMTZIN
 70
8
  9
$DIMALTZ
 70
0
  9
$DIMALTTZ
 70
0
  9
$DIMUPT
 70
0
  9
$DIMDEC
 70
2
  9
$DIMTDEC
 70
2
  9
$DIMALTU
 70
2
  9
$DIMALTTD
 70
3
  9
$DIMTXSTY
  7
Standard
  9
$DIMAUNIT
 70
0
  9
$DIMADEC
 70
0
  9
$DIMALTRND
 40
0.0
  9
$DIMAZIN
 70
0
  9
$DIMDSEP
 70
44
  9
$DIMATFIT
 70
3
  9
$DIMFRAC
 70
0
  9
$DIMLDRBLK
  1

  9
$DIMLUNIT
 70
2
  9
$DIMLWD
 70
-2
  9
$DIMLWE
 70
-2
  9
$DIMTMOVE
 70
0
  9
$DIMFXL
 40
1.0
  9
$DIMFXLON
 70
0
  9
$DIMJOGANG
 40
0.785398163397
  9
$DIMTFILL
 70
0
  9
$DIMTFILLCLR
 70
0
  9
$DIMARCSYM
 70
0
  9
$DIMLTYPE
  6

  9
$DIMLTEX1
  6

  9
$DIMLTEX2
  6

  9
$DIMTXTDIRECTION
 70
0
  9
$LUNITS
 70
2
  9
$LUPREC
 70
4
  9
$SKETCHINC
 40
1.0
  9
$FILLETRAD
 40
10.0
  9
$AUNITS
 70
0
  9
$AUPREC
 70
2
  9
$MENU
  1
.
  9
$ELEVATION
 40
0.0
  9
$PELEVATION
 40
0.0
  9
$THICKNESS
 40
0.0
  9
$LIMCHECK
 70
0
  9
$CHAMFERA
 40
0.0
  9
$CHAMFERB
 40
0.0
  9
$CHAMFERC
 40
0.0
  9
$CHAMFERD
 40
0.0
  9
$SKPOLY
 70
0
  9
$TDCREATE
 40
2461311.585763889
  9
$TDUCREATE
 40
2458532.153996898
  9
$TDUPDATE
 40
2461311.585763889
  9
$TDUUPDATE
 40
2458532.1544311
  9
$TDINDWG
 40
0.0
  9
$TDUSRTIMER
 40
0.0
  9
$USRTIMER
 70
1
  9
$ANGBASE
 50
0.0
  9
$ANGDIR
 70
0
  9
$PDMODE
 70
0
  9
$PDSIZE
 40
0.0
  9
$PLINEWID
 40
0.0
  9
$SPLFRAME
 70
0
  9
$SPLINETYPE
 70
6
  9
$SPLINESEGS
 70
8
  9
$HANDSEED
  5
124
  9
$SURFTAB1
 70
6
  9
$SURFTAB2
 70
6
  9
$SURFTYPE
 70
6
  9
$SURFU
 70
6
  9
$SURFV
 70
6
  9
$UCSBASE
  2

  9
$UCSNAME
  2

  9
$UCSORG
 10
0.0
 20
0.0
 30
0.0
  9
$UCSXDIR
 10
1.0
 20
0.0
 30
0.0
  9
$UCSYDIR
 10
0.0
 20
1.0
 30
0.0
  9
$UCSORTHOREF
  2

  9
$UCSORTHOVIEW
 70
0
  9
$UCSORGTOP
 10
0.0
 20
0.0
 30
0.0
  9
$UCSORGBOTTOM
 10
0.0
 20
0.0
 30
0.0
  9
$UCSORGLEFT
 10
0.0
 20
0.0
 30
0.0
  9
$UCSORGRIGHT
 10
0.0
 20
0.0
 30
0.0
  9
$UCSORGFRONT
 10
0.0
 20
0.0
 30
0.0
  9
$UCSORGBACK
 10
0.0
 20
0.0
 30
0.0
  9
$PUCSBASE
  2

  9
$PUCSNAME
  2

  9
$PUCSORG
 10
0.0
 20
0.0
 30
0.0
  9
$PUCSXDIR
 10
1.0
 20
0.0
 30
0.0
  9
$PUCSYDIR
 10
0.0
 20
1.0
 30
0.0
  9
$PUCSORTHOREF
  2

  9
$PUCSORTHOVIEW
 70
0
  9
$PUCSORGTOP
 10
0.0
 20
0.0
 30
0.0
  9
$PUCSORGBOTTOM
 10
0.0
 20
0.0
 30
0.0
  9
$PUCSORGLEFT
 10
0.0
 20
0.0
 30
0.0
  9
$PUCSORGRIGHT
 10
0.0
 20
0.0
 30
0.0
  9
$PUCSORGFRONT
 10
0.0
 20
0.0
 30
0.0
  9
$PUCSORGBACK
 10
0.0
 20
0.0
 30
0.0
  9
$USERI1
 70
0
  9
$USERI2
 70
0
  9
$USERI3
 70
0
  9
$USERI4
 70
0
  9
$USERI5
 70
0
  9
$USERR1
 40
0.0
  9
$USERR2
 40
0.0
  9
$USERR3
 40
0.0
  9
$USERR4
 40
0.0
  9
$USERR5
 40
0.0
  9
$WORLDVIEW
 70
1
  9
$SHADEDGE
 70
3
  9
$SHADEDIF
 70
70
  9
$TILEMODE
 70
1
  9
$MAXACTVP
 70
64
  9
$PINSBASE
 10
0.0
 20
0.0
 30
0.0
  9
$PLIMCHECK
 70
0
  9
$PEXTMIN
 10
1e+20
 20
1e+20
 30
1e+20
  9
$PEXTMAX
 10
-1e+20
 20
-1e+20
 30
-1e+20
  9
$PLIMMIN
 10
0.0
 20
0.0
  9
$PLIMMAX
 10
420.0
 20
297.0
  9
$UNITMODE
 70
0
  9
$VISRETAIN
 70
1
  9
$PLINEGEN
 70
0
  9
$PSLTSCALE
 70
1
  9
$TREEDEPTH
 70
3020
  9
$CMLSTYLE
  2
Standard
  9
$CMLJUST
 70
0
  9
$CMLSCALE
 40
20.0
  9
$PROXYGRAPHICS
 70
1
  9
$MEASUREMENT
 70
1
  9
$CELWEIGHT
370
-1
  9
$ENDCAPS
280
0
  9
$JOINSTYLE
280
0
  9
$LWDISPLAY
290
0
  9
$INSUNITS
 70
4
  9
$HYPERLINKBASE
  1

  9
$STYLESHEET
  1

  9
$XEDIT
290
1
  9
$CEPSNTYPE
380
0
  9
$PSTYLEMODE
290
1
  9
$FINGERPRINTGUID
  2
{A198C672-66F1-4285-B0F2-31D5D31791AE}
  9
$VERSIONGUID
  2
{17EBEA3C-EFF3-446B-B8D5-41AE813F17FA}
  9
$EXTNAMES
290
1
  9
$PSVPSCALE
 40
0.0
  9
$OLESTARTUP
290
0
  9
$SORTENTS
280
127
  9
$INDEXCTL
280
0
  9
$HIDETEXT
280
1
  9
$XCLIPFRAME
280
1
  9
$HALOGAP
280
0
  9
$OBSCOLOR
 70
257
  9
$OBSLTYPE
280
0
  9
$INTERSECTIONDISPLAY
280
0
  9
$INTERSECTIONCOLOR
 70
257
  9
$DIMASSOC
280
2
  9
$PROJECTNAME
  1

  9
$CAMERADISPLAY
290
0
  9
$LENSLENGTH
 40
50.0
  9
$CAMERAHEIGHT
 40
0.0
  9
$STEPSPERSEC
 40
24.0
  9
$STEPSIZE
 40
100.0
  9
$3DDWFPREC
 40
2.0
  9
$PSOLWIDTH
 40
0.005
  9
$PSOLHEIGHT
 40
0.08
  9
$LOFTANG1
 40
1.570796326795
  9
$LOFTANG2
 40
1.570796326795
  9
$LOFTMAG1
 40
0.0
  9
$LOFTMAG2
 40
0.0
  9
$LOFTPARAM
 70
7
  9
$LOFTNORMALS
280
1
  9
$LATITUDE
 40
37.795
  9
$LONGITUDE
 40
-122.394
  9
$NORTHDIRECTION
 40
0.0
  9
$TIMEZONE
 70
-8000
  9
$LIGHTGLYPHDISPLAY
280
1
  9
$TILEMODELIGHTSYNCH
280
1
  9
$CMATERIAL
347
20
  9
$SOLIDHIST
280
0
  9
$SHOWHIST
280
1
  9
$DWFFRAME
280
2
  9
$DGNFRAME
280
2
  9
$REALWORLDSCALE
290
1
  9
$INTERFERECOLOR
 62
256
  9
$CSHADOW
280
0
  9
$SHADOWPLANELOCATION
 40
0.0
  0
ENDSEC
  0
SECTION
  2
CLASSES
  0
CLASS
  1
ACDBDICTIONARYWDFLT
  2
AcDbDictionaryWithDefault
  3
ObjectDBX Classes
 90
0
 91
0
280
0
281
0
  0
CLASS
  1
SUN
  2
AcDbSun
  3
SCENEOE
 90
1153
 91
0
280
0
281
0
  0
CLASS
  1
VISUALSTYLE
  2
AcDbVisualStyle
  3
ObjectDBX Classes
 90
4095
 91
0
280
0
281
0
  0
CLASS
  1
MATERIAL
  2
AcDbMaterial
  3
ObjectDBX Classes
 90
1153
 91
0
280
0
281
0
  0
CLASS
  1
SCALE
  2
AcDbScale
  3
ObjectDBX Classes
 90
1153
 91
0
280
0
281
0
  0
CLASS
  1
TABLESTYLE
  2
AcDbTableStyle
  3
ObjectDBX Classes
 90
4095
 91
0
280
0
281
0
  0
CLASS
  1
MLEADERSTYLE
  2
AcDbMLeaderStyle
  3
ACDB_MLEADERSTYLE_CLASS
 90
4095
 91
0
280
0
281
0
  0
CLASS
  1
DICTIONARYVAR
  2
AcDbDictionaryVar
  3
ObjectDBX Classes
 90
0
 91
0
280
0
281
0
  0
CLASS
  1
CELLSTYLEMAP
  2
AcDbCellStyleMap
  3
ObjectDBX Classes
 90
1152
 91
0
280
0
281
0
  0
CLASS
  1
MENTALRAYRENDERSETTINGS
  2
AcDbMentalRayRenderSettings
  3
SCENEOE
 90
1024
 91
0
280
0
281
0
  0
CLASS
  1
ACDBDETAILVIEWSTYLE
  2
AcDbDetailViewStyle
  3
ObjectDBX Classes
 90
1025
 91
0
280
0
281
0
  0
CLASS
  1
ACDBSECTIONVIEWSTYLE
  2
AcDbSectionViewStyle
  3
ObjectDBX Classes
 90
1025
 91
0
280
0
281
0
  0
CLASS
  1
RASTERVARIABLES
  2
AcDbRasterVariables
  3
ISM
 90
0
 91
0
280
0
281
0
  0
CLASS
  1
LAYOUT
  2
AcDbLayout
  3
ObjectDBX Classes
 90
0
 91
0
280
0
281
0
  0
CLASS
  1
ACDBPLACEHOLDER
  2
AcDbPlaceHolder
  3
ObjectDBX Classes
 90
0
 91
0
280
0
281
0
  0
ENDSEC
  0
SECTION
  2
TABLES
  0
TABLE
  2
VPORT
  5
8
330
0
100
AcDbSymbolTable
 70
1
  0
VPORT
  5
23
330
8
100
AcDbSymbolTableRecord
100
AcDbViewportTableRecord
  2
*Active
 70
0
 10
0.0
 20
0.0
 11
1.0
 21
1.0
 12
0.0
 22
0.0
 13
0.0
 23
0.0
 14
0.5
 24
0.5
 15
0.5
 25
0.5
 16
0.0
 26
0.0
 36
1.0
 17
0.0
 27
0.0
 37
0.0
 40
1000.0
 41
1.34
 42
50.0
 43
0.0
 44
0.0
 50
0.0
 51
0.0
 71
0
 72
1000
 73
1
 74
3
 75
0
 76
0
 77
0
 78
0
281
0
 65
0
146
0.0
  0
ENDTAB
  0
TABLE
  2
LTYPE
  5
2
330
0
100
AcDbSymbolTable
 70
3
  0
LTYPE
  5
24
330
2
100
AcDbSymbolTableRecord
100
AcDbLinetypeTableRecord
  2
ByBlock
 70
0
  3

 72
65
 73
0
 40
0.0
  0
LTYPE
  5
25
330
2
100
AcDbSymbolTableRecord
100
AcDbLinetypeTableRecord
  2
ByLayer
 70
0
  3

 72
65
 73
0
 40
0.0
  0
LTYPE
  5
26
330
2
100
AcDbSymbolTableRecord
100
AcDbLinetypeTableRecord
  2
Continuous
 70
0
  3

 72
65
 73
0
 40
0.0
  0
ENDTAB
  0
TABLE
  2
LAYER
  5
1
330
0
100
AcDbSymbolTable
 70
7
  0
LAYER
  5
27
330
1
100
AcDbSymbolTableRecord
100
AcDbLayerTableRecord
  2
0
 70
0
 62
7
  6
Continuous
370
-3
390
13
347
21
  0
LAYER
  5
28
330
1
100
AcDbSymbolTableRecord
100
AcDbLayerTableRecord
  2
Defpoints
 70
0
 62
7
  6
Continuous
290
0
370
-3
390
13
347
21
  0
LAYER
  5
2F
330
1
100
AcDbSymbolTableRecord
100
AcDbLayerTableRecord
  2
TOP
 70
0
 62
7
  6
Continuous
370
-3
390
13
347
21
  0
LAYER
  5
30
330
1
100
AcDbSymbolTableRecord
100
AcDbLayerTableRecord
  2
FRONT
 70
0
 62
7
  6
Continuous
370
-3
390
13
347
21
  0
LAYER
  5
31
330
1
100
AcDbSymbolTableRecord
100
AcDbLayerTableRecord
  2
RIGHT
 70
0
 62
7
  6
Continuous
370
-3
390
13
347
21
  0
LAYER
  5
32
330
1
100
AcDbSymbolTableRecord
100
AcDbLayerTableRecord
  2
DIMENSIONS
 70
0
 62
7
  6
Continuous
370
-3
390
13
347
21
  0
LAYER
  5
33
330
1
100
AcDbSymbolTableRecord
100
AcDbLayerTableRecord
  2
NOTES
 70
0
 62
7
  6
Continuous
370
-3
390
13
347
21
  0
ENDTAB
  0
TABLE
  2
STYLE
  5
5
330
0
100
AcDbSymbolTable
 70
1
  0
STYLE
  5
29
330
5
100
AcDbSymbolTableRecord
100
AcDbTextStyleTableRecord
  2
Standard
 70
0
 40
0.0
 41
1.0
 50
0.0
 71
0
 42
2.5
  3
txt
  4

  0
ENDTAB
  0
TABLE
  2
VIEW
  5
7
330
0
100
AcDbSymbolTable
 70
0
  0
ENDTAB
  0
TABLE
  2
UCS
  5
6
330
0
100
AcDbSymbolTable
 70
0
  0
ENDTAB
  0
TABLE
  2
APPID
  5
3
330
0
100
AcDbSymbolTable
 70
3
  0
APPID
  5
2A
330
3
100
AcDbSymbolTableRecord
100
AcDbRegAppTableRecord
  2
ACAD
 70
0
  0
APPID
  5
121
330
3
100
AcDbSymbolTableRecord
100
AcDbRegAppTableRecord
  2
HATCHBACKGROUNDCOLOR
 70
0
  0
APPID
  5
122
330
3
100
AcDbSymbolTableRecord
100
AcDbRegAppTableRecord
  2
EZDXF
 70
0
  0
ENDTAB
  0
TABLE
  2
DIMSTYLE
  5
4
330
0
100
AcDbSymbolTable
 70
1
100
AcDbDimStyleTable
  0
DIMSTYLE
105
2B
330
4
100
AcDbSymbolTableRecord
100
AcDbDimStyleTableRecord
  2
Standard
 70
0
 40
1.0
 41
2.5
 42
0.625
 43
3.75
 44
1.25
 45
0.0
 46
0.0
 47
0.0
 48
0.0
 49
2.5
140
2.5
141
2.5
142
0.0
143
0.03937007874
144
1.0
145
0.0
146
1.0
147
0.625
148
0.0
 69
0
 70
0
 71
0
 72
0
 73
0
 74
0
 75
0
 76
0
 77
1
 78
8
 79
3
170
0
171
3
172
1
173
0
174
0
175
0
176
0
177
0
178
0
179
2
271
2
272
2
273
2
274
3
275
0
276
0
277
2
278
44
279
0
280
0
281
0
282
0
283
0
284
8
285
0
286
0
288
0
289
3
290
0
371
-2
372
-2
  0
ENDTAB
  0
TABLE
  2
BLOCK_RECORD
  5
9
330
0
100
AcDbSymbolTable
 70
9
  0
BLOCK_RECORD
  5
17
330
9
100
AcDbSymbolTableRecord
100
AcDbBlockTableRecord
  2
*Model_Space
340
1A
 70
0
280
1
281
0
  0
BLOCK_RECORD
  5
1B
330
9
100
AcDbSymbolTableRecord
100
AcDbBlockTableRecord
  2
*Paper_Space
340
1E
 70
0
280
1
281
0
  0
BLOCK_RECORD
  5
61
330
9
100
AcDbSymbolTableRecord
100
AcDbBlockTableRecord
  2
*D1
340
0
 70
0
280
1
281
0
  0
BLOCK_RECORD
  5
66
330
9
100
AcDbSymbolTableRecord
100
AcDbBlockTableRecord
  2
_CLOSEDFILLED
340
0
 70
0
280
1
281
0
  0
BLOCK_RECORD
  5
75
330
9
100
AcDbSymbolTableRecord
100
AcDbBlockTableRecord
  2
*D2
340
0
 70
0
280
1
281
0
  0
BLOCK_RECORD
  5
B2
330
9
100
AcDbSymbolTableRecord
100
AcDbBlockTableRecord
  2
*D3
340
0
 70
0
280
1
281
0
  0
BLOCK_RECORD
  5
C2
330
9
100
AcDbSymbolTableRecord
100
AcDbBlockTableRecord
  2
*D4
340
0
 70
0
280
1
281
0
  0
BLOCK_RECORD
  5
FB
330
9
100
AcDbSymbolTableRecord
100
AcDbBlockTableRecord
  2
*D5
340
0
 70
0
280
1
281
0
  0
BLOCK_RECORD
  5
10B
330
9
100
AcDbSymbolTableRecord
100
AcDbBlockTableRecord
  2
*D6
340
0
 70
0
280
1
281
0
  0
ENDTAB
  0
ENDSEC
  0
SECTION
  2
BLOCKS
  0
BLOCK
  5
18
330
17
100
AcDbEntity
  8
0
100
AcDbBlockBegin
  2
*Model_Space
 70
0
 10
0.0
 20
0.0
 30
0.0
  3
*Model_Space
  1

  0
ENDBLK
  5
19
330
17
100
AcDbEntity
  8
0
100
AcDbBlockEnd
  0
BLOCK
  5
1C
330
1B
100
AcDbEntity
  8
0
100
AcDbBlockBegin
  2
*Paper_Space
 70
0
 10
0.0
 20
0.0
 30
0.0
  3
*Paper_Space
  1

  0
ENDBLK
  5
1D
330
1B
100
AcDbEntity
  8
0
100
AcDbBlockEnd
  0
BLOCK
  5
62
330
61
100
AcDbEntity
  8
0
100
AcDbBlockBegin
  2
*D1
 70
1
 10
0.0
 20
0.0
 30
0.0
  3
*D1
  1

  0
LINE
  5
64
330
61
100
AcDbEntity
  8
0
 62
7
100
AcDbLine
 10
0.0
 20
0.0
 30
0.0
 11
0.0
 21
-35.0
 31
0.0
  0
LINE
  5
65
330
61
100
AcDbEntity
  8
0
 62
7
100
AcDbLine
 10
69.0
 20
0.0
 30
0.0
 11
69.0
 21
-35.0
 31
0.0
  0
INSERT
  5
6A
330
61
100
AcDbEntity
  8
DIMENSIONS
 62
7
100
AcDbBlockReference
  2
_CLOSEDFILLED
 10
0.0
 20
-35.0
 30
0.0
 41
2.5
 42
2.5
 50
180.0
  0
INSERT
  5
6C
330
61
100
AcDbEntity
  8
DIMENSIONS
 62
7
100
AcDbBlockReference
  2
_CLOSEDFILLED
 10
69.0
 20
-35.0
 30
0.0
 41
2.5
 42
2.5
  0
LINE
  5
6E
330
61
100
AcDbEntity
  8
0
 62
7
100
AcDbLine
 10
2.5
 20
-35.0
 30
0.0
 11
32.0
 21
-35.0
 31
0.0
  0
LINE
  5
6F
330
61
100
AcDbEntity
  8
0
 62
7
100
AcDbLine
 10
37.0
 20
-35.0
 30
0.0
 11
66.5
 21
-35.0
 31
0.0
  0
MTEXT
  5
70
330
61
100
AcDbEntity
  8
DIMENSIONS
 62
7
100
AcDbMText
 10
34.5
 20
-35.0
 30
0.0
 40
2.5
 71
5
  1
69
  0
POINT
  5
71
330
61
100
AcDbEntity
  8
Defpoints
100
AcDbPoint
 10
0.0
 20
-35.0
 30
0.0
  0
POINT
  5
72
330
61
100
AcDbEntity
  8
Defpoints
100
AcDbPoint
 10
0.0
 20
0.0
 30
0.0
  0
POINT
  5
73
330
61
100
AcDbEntity
  8
Defpoints
100
AcDbPoint
 10
69.0
 20
0.0
 30
0.0
  0
ENDBLK
  5
63
330
61
100
AcDbEntity
  8
0
100
AcDbBlockEnd
  0
BLOCK
  5
67
330
66
100
AcDbEntity
  8
0
100
AcDbBlockBegin
  2
_CLOSEDFILLED
 70
0
 10
0.0
 20
0.0
 30
0.0
  3
_CLOSEDFILLED
  1

  0
SOLID
  5
69
330
66
100
AcDbEntity
  8
0
  6
BYBLOCK
 62
0
100
AcDbTrace
 10
-1.0
 20
0.16439898372402537
 30
0.0
 11
0.0
 21
0.0
 31
0.0
 12
-1.0
 22
-0.16439898372402537
 32
0.0
 13
-1.0
 23
-0.16439898372402537
 33
0.0
  0
ENDBLK
  5
68
330
66
100
AcDbEntity
  8
0
100
AcDbBlockEnd
  0
BLOCK
  5
76
330
75
100
AcDbEntity
  8
0
100
AcDbBlockBegin
  2
*D2
 70
1
 10
0.0
 20
0.0
 30
0.0
  3
*D2
  1

  0
LINE
  5
78
330
75
100
AcDbEntity
  8
0
 62
7
100
AcDbLine
 10
0.0
 20
0.0
 30
0.0
 11
-35.0
 21
0.0
 31
0.0
  0
LINE
  5
79
330
75
100
AcDbEntity
  8
0
 62
7
100
AcDbLine
 10
0.0
 20
149.0
 30
0.0
 11
-35.0
 21
149.0
 31
0.0
  0
INSERT
  5
7A
330
75
100
AcDbEntity
  8
DIMENSIONS
 62
7
100
AcDbBlockReference
  2
_CLOSEDFILLED
 10
-35.0
 20
0.0
 30
0.0
 41
2.5
 42
2.5
 50
270.0
  0
INSERT
  5
7C
330
75
100
AcDbEntity
  8
DIMENSIONS
 62
7
100
AcDbBlockReference
  2
_CLOSEDFILLED
 10
-35.0
 20
149.0
 30
0.0
 41
2.5
 42
2.5
 50
90.0
  0
LINE
  5
7E
330
75
100
AcDbEntity
  8
0
 62
7
100
AcDbLine
 10
-35.0
 20
2.5
 30
0.0
 11
-35.0
 21
70.75
 31
0.0
  0
LINE
  5
7F
330
75
100
AcDbEntity
  8
0
 62
7
100
AcDbLine
 10
-35.0
 20
78.25
 30
0.0
 11
-35.0
 21
146.5
 31
0.0
  0
MTEXT
  5
80
330
75
100
AcDbEntity
  8
DIMENSIONS
 62
7
100
AcDbMText
 10
-35.0
 20
74.5
 30
0.0
 40
2.5
 71
5
  1
149
 50
90.0
  0
POINT
  5
81
330
75
100
AcDbEntity
  8
Defpoints
100
AcDbPoint
 10
-35.0
 20
0.0
 30
0.0
  0
POINT
  5
82
330
75
100
AcDbEntity
  8
Defpoints
100
AcDbPoint
 10
0.0
 20
0.0
 30
0.0
  0
POINT
  5
83
330
75
100
AcDbEntity
  8
Defpoints
100
AcDbPoint
 10
0.0
 20
149.0
 30
0.0
  0
ENDBLK
  5
77
330
75
100
AcDbEntity
  8
0
100
AcDbBlockEnd
  0
BLOCK
  5
B3
330
B2
100
AcDbEntity
  8
0
100
AcDbBlockBegin
  2
*D3
 70
1
 10
0.0
 20
0.0
 30
0.0
  3
*D3
  1

  0
LINE
  5
B5
330
B2
100
AcDbEntity
  8
0
 62
7
100
AcDbLine
 10
0.0
 20
-339.0
 30
0.0
 11
0.0
 21
-374.0
 31
0.0
  0
LINE
  5
B6
330
B2
100
AcDbEntity
  8
0
 62
7
100
AcDbLine
 10
69.0
 20
-339.0
 30
0.0
 11
69.0
 21
-374.0
 31
0.0
  0
INSERT
  5
B7
330
B2
100
AcDbEntity
  8
DIMENSIONS
 62
7
100
AcDbBlockReference
  2
_CLOSEDFILLED
 10
0.0
 20
-374.0
 30
0.0
 41
2.5
 42
2.5
 50
180.0
  0
INSERT
  5
B9
330
B2
100
AcDbEntity
  8
DIMENSIONS
 62
7
100
AcDbBlockReference
  2
_CLOSEDFILLED
 10
69.0
 20
-374.0
 30
0.0
 41
2.5
 42
2.5
  0
LINE
  5
BB
330
B2
100
AcDbEntity
  8
0
 62
7
100
AcDbLine
 10
2.5
 20
-374.0
 30
0.0
 11
32.0
 21
-374.0
 31
0.0
  0
LINE
  5
BC
330
B2
100
AcDbEntity
  8
0
 62
7
100
AcDbLine
 10
37.0
 20
-374.0
 30
0.0
 11
66.5
 21
-374.0
 31
0.0
  0
MTEXT
  5
BD
330
B2
100
AcDbEntity
  8
DIMENSIONS
 62
7
100
AcDbMText
 10
34.5
 20
-374.0
 30
0.0
 40
2.5
 71
5
  1
69
  0
POINT
  5
BE
330
B2
100
AcDbEntity
  8
Defpoints
100
AcDbPoint
 10
0.0
 20
-374.0
 30
0.0
  0
POINT
  5
BF
330
B2
100
AcDbEntity
  8
Defpoints
100
AcDbPoint
 10
0.0
 20
-339.0
 30
0.0
  0
POINT
  5
C0
330
B2
100
AcDbEntity
  8
Defpoints
100
AcDbPoint
 10
69.0
 20
-339.0
 30
0.0
  0
ENDBLK
  5
B4
330
B2
100
AcDbEntity
  8
0
100
AcDbBlockEnd
  0
BLOCK
  5
C3
330
C2
100
AcDbEntity
  8
0
100
AcDbBlockBegin
  2
*D4
 70
1
 10
0.0
 20
0.0
 30
0.0
  3
*D4
  1

  0
LINE
  5
C5
330
C2
100
AcDbEntity
  8
0
 62
7
100
AcDbLine
 10
0.0
 20
-339.0
 30
0.0
 11
-35.0
 21
-339.0
 31
0.0
  0
LINE
  5
C6
330
C2
100
AcDbEntity
  8
0
 62
7
100
AcDbLine
 10
0.0
 20
-150.0
 30
0.0
 11
-35.0
 21
-150.0
 31
0.0
  0
INSERT
  5
C7
330
C2
100
AcDbEntity
  8
DIMENSIONS
 62
7
100
AcDbBlockReference
  2
_CLOSEDFILLED
 10
-35.0
 20
-339.0
 30
0.0
 41
2.5
 42
2.5
 50
270.0
  0
INSERT
  5
C9
330
C2
100
AcDbEntity
  8
DIMENSIONS
 62
7
100
AcDbBlockReference
  2
_CLOSEDFILLED
 10
-35.0
 20
-150.0
 30
0.0
 41
2.5
 42
2.5
 50
90.0
  0
LINE
  5
CB
330
C2
100
AcDbEntity
  8
0
 62
7
100
AcDbLine
 10
-35.0
 20
-336.5
 30
0.0
 11
-35.0
 21
-248.25
 31
0.0
  0
LINE
  5
CC
330
C2
100
AcDbEntity
  8
0
 62
7
100
AcDbLine
 10
-35.0
 20
-240.75
 30
0.0
 11
-35.0
 21
-152.5
 31
0.0
  0
MTEXT
  5
CD
330
C2
100
AcDbEntity
  8
DIMENSIONS
 62
7
100
AcDbMText
 10
-35.0
 20
-244.5
 30
0.0
 40
2.5
 71
5
  1
189
 50
90.0
  0
POINT
  5
CE
330
C2
100
AcDbEntity
  8
Defpoints
100
AcDbPoint
 10
-35.0
 20
-339.0
 30
0.0
  0
POINT
  5
CF
330
C2
100
AcDbEntity
  8
Defpoints
100
AcDbPoint
 10
0.0
 20
-339.0
 30
0.0
  0
POINT
  5
D0
330
C2
100
AcDbEntity
  8
Defpoints
100
AcDbPoint
 10
0.0
 20
-150.0
 30
0.0
  0
ENDBLK
  5
C4
330
C2
100
AcDbEntity
  8
0
100
AcDbBlockEnd
  0
BLOCK
  5
FC
330
FB
100
AcDbEntity
  8
0
100
AcDbBlockBegin
  2
*D5
 70
1
 10
0.0
 20
0.0
 30
0.0
  3
*D5
  1

  0
LINE
  5
FE
330
FB
100
AcDbEntity
  8
0
 62
7
100
AcDbLine
 10
219.0
 20
0.0
 30
0.0
 11
219.0
 21
-35.0
 31
0.0
  0
LINE
  5
FF
330
FB
100
AcDbEntity
  8
0
 62
7
100
AcDbLine
 10
368.0
 20
0.0
 30
0.0
 11
368.0
 21
-35.0
 31
0.0
  0
INSERT
  5
100
330
FB
100
AcDbEntity
  8
DIMENSIONS
 62
7
100
AcDbBlockReference
  2
_CLOSEDFILLED
 10
219.0
 20
-35.0
 30
0.0
 41
2.5
 42
2.5
 50
180.0
  0
INSERT
  5
102
330
FB
100
AcDbEntity
  8
DIMENSIONS
 62
7
100
AcDbBlockReference
  2
_CLOSEDFILLED
 10
368.0
 20
-35.0
 30
0.0
 41
2.5
 42
2.5
  0
LINE
  5
104
330
FB
100
AcDbEntity
  8
0
 62
7
100
AcDbLine
 10
221.5
 20
-35.0
 30
0.0
 11
289.75
 21
-35.0
 31
0.0
  0
LINE
  5
105
330
FB
100
AcDbEntity
  8
0
 62
7
100
AcDbLine
 10
297.25
 20
-35.0
 30
0.0
 11
365.5
 21
-35.0
 31
0.0
  0
MTEXT
  5
106
330
FB
100
AcDbEntity
  8
DIMENSIONS
 62
7
100
AcDbMText
 10
293.5
 20
-35.0
 30
0.0
 40
2.5
 71
5
  1
149
  0
POINT
  5
107
330
FB
100
AcDbEntity
  8
Defpoints
100
AcDbPoint
 10
219.0
 20
-35.0
 30
0.0
  0
POINT
  5
108
330
FB
100
AcDbEntity
  8
Defpoints
100
AcDbPoint
 10
219.0
 20
0.0
 30
0.0
  0
POINT
  5
109
330
FB
100
AcDbEntity
  8
Defpoints
100
AcDbPoint
 10
368.0
 20
0.0
 30
0.0
  0
ENDBLK
  5
FD
330
FB
100
AcDbEntity
  8
0
100
AcDbBlockEnd
  0
BLOCK
  5
10C
330
10B
100
AcDbEntity
  8
0
100
AcDbBlockBegin
  2
*D6
 70
1
 10
0.0
 20
0.0
 30
0.0
  3
*D6
  1

  0
LINE
  5
10E
330
10B
100
AcDbEntity
  8
0
 62
7
100
AcDbLine
 10
219.0
 20
0.0
 30
0.0
 11
184.0
 21
0.0
 31
0.0
  0
LINE
  5
10F
330
10B
100
AcDbEntity
  8
0
 62
7
100
AcDbLine
 10
219.0
 20
189.0
 30
0.0
 11
184.0
 21
189.0
 31
0.0
  0
INSERT
  5
110
330
10B
100
AcDbEntity
  8
DIMENSIONS
 62
7
100
AcDbBlockReference
  2
_CLOSEDFILLED
 10
184.0
 20
0.0
 30
0.0
 41
2.5
 42
2.5
 50
270.0
  0
INSERT
  5
112
330
10B
100
AcDbEntity
  8
DIMENSIONS
 62
7
100
AcDbBlockReference
  2
_CLOSEDFILLED
 10
184.0
 20
189.0
 30
0.0
 41
2.5
 42
2.5
 50
90.0
  0
LINE
  5
114
330
10B
100
AcDbEntity
  8
0
 62
7
100
AcDbLine
 10
184.0
 20
2.5
 30
0.0
 11
184.0
 21
90.75
 31
0.0
  0
LINE
  5
115
330
10B
100
AcDbEntity
  8
0
 62
7
100
AcDbLine
 10
184.0
 20
98.24999999999999
 30
0.0
 11
184.0
 21
186.5
 31
0.0
  0
MTEXT
  5
116
330
10B
100
AcDbEntity
  8
DIMENSIONS
 62
7
100
AcDbMText
 10
184.0
 20
94.5
 30
0.0
 40
2.5
 71
5
  1
189
 50
90.0
  0
POINT
  5
117
330
10B
100
AcDbEntity
  8
Defpoints
100
AcDbPoint
 10
184.0
 20
0.0
 30
0.0
  0
POINT
  5
118
330
10B
100
AcDbEntity
  8
Defpoints
100
AcDbPoint
 10
219.0
 20
0.0
 30
0.0
  0
POINT
  5
119
330
10B
100
AcDbEntity
  8
Defpoints
100
AcDbPoint
 10
219.0
 20
189.0
 30
0.0
  0
ENDBLK
  5
10D
330
10B
100
AcDbEntity
  8
0
100
AcDbBlockEnd
  0
ENDSEC
  0
SECTION
  2
ENTITIES
  0
LWPOLYLINE
  5
34
330
17
100
AcDbEntity
  8
TOP
100
AcDbPolyline
 90
2
 70
0
 10
40.0
 20
74.0
 10
48.0
 20
74.0
  0
LWPOLYLINE
  5
35
330
17
100
AcDbEntity
  8
TOP
100
AcDbPolyline
 90
100
 70
0
 10
40.0
 20
74.0
 10
40.0
 20
78.69337005458577
 10
40.0
 20
83.36784156445745
 10
40.0
 20
88.00459208267036
 10
40.0
 20
92.58495105139986
 10
40.0
 20
97.09047498168805
 10
40.0
 20
101.50302171886423
 10
40.0
 20
105.8048234945987
 10
40.0
 20
109.97855847143468
 10
40.0
 20
114.00742049171421
 10
40.0
 20
117.87518675004338
 10
40.0
 20
121.5662831168039
 10
40.0
 20
125.06584684967629
 10
40.0
 20
128.35978644065747
 10
40.0
 20
131.43483835759
 10
40.0
 20
134.27862045172483
 10
40.0
 20
136.87968181626405
 10
40.0
 20
139.22754889512106
 10
40.0
 20
141.31276765623437
 10
40.0
 20
143.1269416596179
 10
40.0
 20
144.66276586686146
 10
40.0
 20
145.91405605594207
 10
40.0
 20
146.87577372290338
 10
40.0
 20
147.5440463701328
 10
40.0
 20
147.9161830995426
 10
40.0
 20
147.99068544786675
 10
40.0
 20
147.76725342044375
 10
40.0
 20
147.24678669918904
 10
40.0
 20
146.43138101989362
 10
40.0
 20
145.32431973343571
 10
40.0
 20
143.93006058488547
 10
40.0
 20
142.254217763739
 10
40.0
 20
140.30353929755887
 10
40.0
 20
138.08587988004848
 10
40.0
 20
135.6101692429731
 10
40.0
 20
132.88637619928156
 10
40.0
 20
129.9254685022151
 10
40.0
 20
126.73936868203585
 10
40.0
 20
123.34090603820559
 10
40.0
 20
119.74376498032481
 10
40.0
 20
115.96242992584504
 10
40.0
 20
112.01212697643206
 10
40.0
 20
107.90876260782838
 10
40.0
 20
103.6688596200894
 10
40.0
 20
99.3094906060995
 10
40.0
 20
94.84820920626579
 10
40.0
 20
90.30297942620402
 10
40.0
 20
85.69210330202789
 10
40.0
 20
81.0341472045095
 10
40.0
 20
76.34786707885698
 10
40.0
 20
71.65213292114298
 10
40.0
 20
66.96585279549052
 10
40.0
 20
62.3078966979721
 10
40.0
 20
57.697020573795996
 10
40.0
 20
53.15179079373422
 10
40.0
 20
48.69050939390049
 10
40.0
 20
44.33114037991061
 10
40.0
 20
40.09123739217161
 10
40.0
 20
35.98787302356795
 10
40.0
 20
32.03757007415497
 10
40.0
 20
28.25623501967521
 10
40.0
 20
24.659093961794426
 10
40.0
 20
21.26063131796414
 10
40.0
 20
18.074531497784875
 10
40.0
 20
15.113623800718422
 10
40.0
 20
12.389830757026893
 10
40.0
 20
9.914120119951562
 10
40.0
 20
7.6964607024411436
 10
40.0
 20
5.745782236260979
 10
40.0
 20
4.069939415114547
 10
40.0
 20
2.675680266564285
 10
40.0
 20
1.5686189801063932
 10
40.0
 20
0.7532133008109838
 10
40.0
 20
0.2327465795562773
 10
40.0
 20
0.009314552133247389
 10
40.0
 20
0.08381690045740697
 10
40.0
 20
0.4559536298671958
 10
40.0
 20
1.1242262770965965
 10
40.0
 20
2.0859439440579024
 10
40.0
 20
3.337234133138537
 10
40.0
 20
4.8730583403821015
 10
40.0
 20
6.687232343765658
 10
40.0
 20
8.77245110487894
 10
40.0
 20
11.120318183735932
 10
40.0
 20
13.721379548275145
 10
40.0
 20
16.56516164241001
 10
40.0
 20
19.64021355934254
 10
40.0
 20
22.93415315032371
 10
40.0
 20
26.43371688319607
 10
40.0
 20
30.124813249956567
 10
40.0
 20
33.99257950828578
 10
40.0
 20
38.021441528565305
 10
40.0
 20
42.19517650540128
 10
40.0
 20
46.49697828113578
 10
40.0
 20
50.90952501831195
 10
40.0
 20
55.41504894860012
 10
40.0
 20
59.99540791732968
 10
40.0
 20
64.63215843554251
 10
40.0
 20
69.30662994541429
 10
40.0
 20
73.99999999999999
  0
LWPOLYLINE
  5
36
330
17
100
AcDbEntity
  8
TOP
100
AcDbPolyline
 90
100
 70
0
 10
48.0
 20
74.0
 10
48.0
 20
78.69337005458577
 10
48.0
 20
83.36784156445745
 10
48.0
 20
88.00459208267036
 10
48.0
 20
92.58495105139986
 10
48.0
 20
97.09047498168805
 10
48.0
 20
101.50302171886423
 10
48.0
 20
105.8048234945987
 10
48.0
 20
109.97855847143468
 10
48.0
 20
114.00742049171421
 10
48.0
 20
117.87518675004338
 10
48.0
 20
121.5662831168039
 10
48.0
 20
125.06584684967629
 10
48.0
 20
128.35978644065747
 10
48.0
 20
131.43483835759
 10
48.0
 20
134.27862045172483
 10
48.0
 20
136.87968181626405
 10
48.0
 20
139.22754889512106
 10
48.0
 20
141.31276765623437
 10
48.0
 20
143.1269416596179
 10
48.0
 20
144.66276586686146
 10
48.0
 20
145.91405605594207
 10
48.0
 20
146.87577372290338
 10
48.0
 20
147.5440463701328
 10
48.0
 20
147.9161830995426
 10
48.0
 20
147.99068544786675
 10
48.0
 20
147.76725342044375
 10
48.0
 20
147.24678669918904
 10
48.0
 20
146.43138101989362
 10
48.0
 20
145.32431973343571
 10
48.0
 20
143.93006058488547
 10
48.0
 20
142.254217763739
 10
48.0
 20
140.30353929755887
 10
48.0
 20
138.08587988004848
 10
48.0
 20
135.6101692429731
 10
48.0
 20
132.88637619928156
 10
48.0
 20
129.9254685022151
 10
48.0
 20
126.73936868203585
 10
48.0
 20
123.34090603820559
 10
48.0
 20
119.74376498032481
 10
48.0
 20
115.96242992584504
 10
48.0
 20
112.01212697643206
 10
48.0
 20
107.90876260782838
 10
48.0
 20
103.6688596200894
 10
48.0
 20
99.3094906060995
 10
48.0
 20
94.84820920626579
 10
48.0
 20
90.30297942620402
 10
48.0
 20
85.69210330202789
 10
48.0
 20
81.0341472045095
 10
48.0
 20
76.34786707885698
 10
48.0
 20
71.65213292114298
 10
48.0
 20
66.96585279549052
 10
48.0
 20
62.3078966979721
 10
48.0
 20
57.697020573795996
 10
48.0
 20
53.15179079373422
 10
48.0
 20
48.69050939390049
 10
48.0
 20
44.33114037991061
 10
48.0
 20
40.09123739217161
 10
48.0
 20
35.98787302356795
 10
48.0
 20
32.03757007415497
 10
48.0
 20
28.25623501967521
 10
48.0
 20
24.659093961794426
 10
48.0
 20
21.26063131796414
 10
48.0
 20
18.074531497784875
 10
48.0
 20
15.113623800718422
 10
48.0
 20
12.389830757026893
 10
48.0
 20
9.914120119951562
 10
48.0
 20
7.6964607024411436
 10
48.0
 20
5.745782236260979
 10
48.0
 20
4.069939415114547
 10
48.0
 20
2.675680266564285
 10
48.0
 20
1.5686189801063932
 10
48.0
 20
0.7532133008109838
 10
48.0
 20
0.2327465795562773
 10
48.0
 20
0.009314552133247389
 10
48.0
 20
0.08381690045740697
 10
48.0
 20
0.4559536298671958
 10
48.0
 20
1.1242262770965965
 10
48.0
 20
2.0859439440579024
 10
48.0
 20
3.337234133138537
 10
48.0
 20
4.8730583403821015
 10
48.0
 20
6.687232343765658
 10
48.0
 20
8.77245110487894
 10
48.0
 20
11.120318183735932
 10
48.0
 20
13.721379548275145
 10
48.0
 20
16.56516164241001
 10
48.0
 20
19.64021355934254
 10
48.0
 20
22.93415315032371
 10
48.0
 20
26.43371688319607
 10
48.0
 20
30.124813249956567
 10
48.0
 20
33.99257950828578
 10
48.0
 20
38.021441528565305
 10
48.0
 20
42.19517650540128
 10
48.0
 20
46.49697828113578
 10
48.0
 20
50.90952501831195
 10
48.0
 20
55.41504894860012
 10
48.0
 20
59.99540791732968
 10
48.0
 20
64.63215843554251
 10
48.0
 20
69.30662994541429
 10
48.0
 20
73.99999999999999
  0
LWPOLYLINE
  5
37
330
17
100
AcDbEntity
  8
TOP
100
AcDbPolyline
 90
100
 70
0
 10
40.0
 20
74.0
 10
40.0
 20
78.05913085802013
 10
40.0
 20
82.10191702871995
 10
40.0
 20
86.11207963906625
 10
40.0
 20
90.07347117958906
 10
40.0
 20
93.97014052470317
 10
40.0
 20
97.78639716226095
 10
40.0
 20
101.50687437370698
 10
40.0
 20
105.11659111043
 10
40.0
 20
108.60101231715825
 10
40.0
 20
111.94610745949699
 10
40.0
 20
115.13840701993851
 10
40.0
 20
118.16505673485517
 10
40.0
 20
121.01386935408213
 10
40.0
 20
123.67337371467244
 10
40.0
 20
126.13286093122149
 10
40.0
 20
128.38242751676893
 10
40.0
 20
130.41301526064524
 10
40.0
 20
132.21644770268918
 10
40.0
 20
133.78546305696682
 10
40.0
 20
135.11374345242072
 10
40.0
 20
136.19594037270667
 10
40.0
 20
137.02769619278132
 10
40.0
 20
137.60566172552026
 10
40.0
 20
137.92750970771252
 10
40.0
 20
137.991944171128
 10
40.0
 20
137.79870566092433
 10
40.0
 20
137.3485722803797
 10
40.0
 20
136.64335655774585
 10
40.0
 20
135.6858981478363
 10
40.0
 20
134.48005239773877
 10
40.0
 20
133.03067482269321
 10
40.0
 20
131.3436015546455
 10
40.0
 20
129.42562584220408
 10
40.0
 20
127.28447069662536
 10
40.0
 20
124.92875779397326
 10
40.0
 20
122.36797275867252
 10
40.0
 20
119.61242696824722
 10
40.0
 20
116.67321603304266
 10
40.0
 20
113.56217511811874
 10
40.0
 20
110.29183128721733
 10
40.0
 20
106.875353060698
 10
40.0
 20
103.32649739055427
 10
40.0
 20
99.65955426602326
 10
40.0
 20
95.88928917284281
 10
40.0
 20
92.03088363785153
 10
40.0
 20
88.09987409833862
 10
40.0
 20
84.1120893422944
 10
40.0
 20
80.08358677146771
 10
40.0
 20
76.03058774387632
 10
40.0
 20
71.96941225612366
 10
40.0
 20
67.9164132285323
 10
40.0
 20
63.887910657705596
 10
40.0
 20
59.900125901661404
 10
40.0
 20
55.96911636214852
 10
40.0
 20
52.110710827157206
 10
40.0
 20
48.34044573397674
 10
40.0
 20
44.67350260944572
 10
40.0
 20
41.12464693930201
 10
40.0
 20
37.7081687127827
 10
40.0
 20
34.43782488188126
 10
40.0
 20
31.326783966957343
 10
40.0
 20
28.387573031752773
 10
40.0
 20
25.632027241327478
 10
40.0
 20
23.071242206026746
 10
40.0
 20
20.715529303374637
 10
40.0
 20
18.574374157795944
 10
40.0
 20
16.656398445354498
 10
40.0
 20
14.969325177306793
 10
40.0
 20
13.519947602261226
 10
40.0
 20
12.314101852163716
 10
40.0
 20
11.356643442254175
 10
40.0
 20
10.651427719620308
 10
40.0
 20
10.201294339075694
 10
40.0
 20
10.008055828871996
 10
40.0
 20
10.07249029228749
 10
40.0
 20
10.394338274479736
 10
40.0
 20
10.97230380721868
 10
40.0
 20
11.80405962729332
 10
40.0
 20
12.886256547579272
 10
40.0
 20
14.214536943033167
 10
40.0
 20
15.783552297310834
 10
40.0
 20
17.586984739354754
 10
40.0
 20
19.61757248323108
 10
40.0
 20
21.867139068778506
 10
40.0
 20
24.326626285327542
 10
40.0
 20
26.986130645917875
 10
40.0
 20
29.83494326514483
 10
40.0
 20
32.86159298006147
 10
40.0
 20
36.05389254050298
 10
40.0
 20
39.398987682841714
 10
40.0
 20
42.88340888956999
 10
40.0
 20
46.49312562629299
 10
40.0
 20
50.21360283773906
 10
40.0
 20
54.02985947529683
 10
40.0
 20
57.92652882041092
 10
40.0
 20
61.88792036093372
 10
40.0
 20
65.89808297128
 10
40.0
 20
69.94086914197987
 10
40.0
 20
73.99999999999999
  0
LWPOLYLINE
  5
38
330
17
100
AcDbEntity
  8
TOP
100
AcDbPolyline
 90
100
 70
0
 10
48.0
 20
74.0
 10
48.0
 20
78.05913085802013
 10
48.0
 20
82.10191702871995
 10
48.0
 20
86.11207963906625
 10
48.0
 20
90.07347117958906
 10
48.0
 20
93.97014052470317
 10
48.0
 20
97.78639716226095
 10
48.0
 20
101.50687437370698
 10
48.0
 20
105.11659111043
 10
48.0
 20
108.60101231715825
 10
48.0
 20
111.94610745949699
 10
48.0
 20
115.13840701993851
 10
48.0
 20
118.16505673485517
 10
48.0
 20
121.01386935408213
 10
48.0
 20
123.67337371467244
 10
48.0
 20
126.13286093122149
 10
48.0
 20
128.38242751676893
 10
48.0
 20
130.41301526064524
 10
48.0
 20
132.21644770268918
 10
48.0
 20
133.78546305696682
 10
48.0
 20
135.11374345242072
 10
48.0
 20
136.19594037270667
 10
48.0
 20
137.02769619278132
 10
48.0
 20
137.60566172552026
 10
48.0
 20
137.92750970771252
 10
48.0
 20
137.991944171128
 10
48.0
 20
137.79870566092433
 10
48.0
 20
137.3485722803797
 10
48.0
 20
136.64335655774585
 10
48.0
 20
135.6858981478363
 10
48.0
 20
134.48005239773877
 10
48.0
 20
133.03067482269321
 10
48.0
 20
131.3436015546455
 10
48.0
 20
129.42562584220408
 10
48.0
 20
127.28447069662536
 10
48.0
 20
124.92875779397326
 10
48.0
 20
122.36797275867252
 10
48.0
 20
119.61242696824722
 10
48.0
 20
116.67321603304266
 10
48.0
 20
113.56217511811874
 10
48.0
 20
110.29183128721733
 10
48.0
 20
106.875353060698
 10
48.0
 20
103.32649739055427
 10
48.0
 20
99.65955426602326
 10
48.0
 20
95.88928917284281
 10
48.0
 20
92.03088363785153
 10
48.0
 20
88.09987409833862
 10
48.0
 20
84.1120893422944
 10
48.0
 20
80.08358677146771
 10
48.0
 20
76.03058774387632
 10
48.0
 20
71.96941225612366
 10
48.0
 20
67.9164132285323
 10
48.0
 20
63.887910657705596
 10
48.0
 20
59.900125901661404
 10
48.0
 20
55.96911636214852
 10
48.0
 20
52.110710827157206
 10
48.0
 20
48.34044573397674
 10
48.0
 20
44.67350260944572
 10
48.0
 20
41.12464693930201
 10
48.0
 20
37.7081687127827
 10
48.0
 20
34.43782488188126
 10
48.0
 20
31.326783966957343
 10
48.0
 20
28.387573031752773
 10
48.0
 20
25.632027241327478
 10
48.0
 20
23.071242206026746
 10
48.0
 20
20.715529303374637
 10
48.0
 20
18.574374157795944
 10
48.0
 20
16.656398445354498
 10
48.0
 20
14.969325177306793
 10
48.0
 20
13.519947602261226
 10
48.0
 20
12.314101852163716
 10
48.0
 20
11.356643442254175
 10
48.0
 20
10.651427719620308
 10
48.0
 20
10.201294339075694
 10
48.0
 20
10.008055828871996
 10
48.0
 20
10.07249029228749
 10
48.0
 20
10.394338274479736
 10
48.0
 20
10.97230380721868
 10
48.0
 20
11.80405962729332
 10
48.0
 20
12.886256547579272
 10
48.0
 20
14.214536943033167
 10
48.0
 20
15.783552297310834
 10
48.0
 20
17.586984739354754
 10
48.0
 20
19.61757248323108
 10
48.0
 20
21.867139068778506
 10
48.0
 20
24.326626285327542
 10
48.0
 20
26.986130645917875
 10
48.0
 20
29.83494326514483
 10
48.0
 20
32.86159298006147
 10
48.0
 20
36.05389254050298
 10
48.0
 20
39.398987682841714
 10
48.0
 20
42.88340888956999
 10
48.0
 20
46.49312562629299
 10
48.0
 20
50.21360283773906
 10
48.0
 20
54.02985947529683
 10
48.0
 20
57.92652882041092
 10
48.0
 20
61.88792036093372
 10
48.0
 20
65.89808297128
 10
48.0
 20
69.94086914197987
 10
48.0
 20
73.99999999999999
  0
LWPOLYLINE
  5
39
330
17
100
AcDbEntity
  8
TOP
100
AcDbPolyline
 90
2
 70
0
 10
40.0
 20
74.0
 10
48.0
 20
74.0
  0
LWPOLYLINE
  5
3A
330
17
100
AcDbEntity
  8
TOP
100
AcDbPolyline
 90
2
 70
0
 10
5.0
 20
62.0
 10
5.0
 20
86.0
  0
LWPOLYLINE
  5
3B
330
17
100
AcDbEntity
  8
TOP
100
AcDbPolyline
 90
2
 70
0
 10
5.0
 20
62.0
 10
5.0
 20
86.0
  0
LWPOLYLINE
  5
3C
330
17
100
AcDbEntity
  8
TOP
100
AcDbPolyline
 90
2
 70
0
 10
50.0
 20
62.0
 10
50.0
 20
86.0
  0
LWPOLYLINE
  5
3D
330
17
100
AcDbEntity
  8
TOP
100
AcDbPolyline
 90
2
 70
0
 10
50.0
 20
62.0
 10
50.0
 20
86.0
  0
LWPOLYLINE
  5
3E
330
17
100
AcDbEntity
  8
TOP
100
AcDbPolyline
 90
2
 70
0
 10
5.0
 20
62.0
 10
50.0
 20
62.0
  0
LWPOLYLINE
  5
3F
330
17
100
AcDbEntity
  8
TOP
100
AcDbPolyline
 90
2
 70
0
 10
5.0
 20
62.0
 10
50.0
 20
62.0
  0
LWPOLYLINE
  5
40
330
17
100
AcDbEntity
  8
TOP
100
AcDbPolyline
 90
2
 70
0
 10
5.0
 20
86.0
 10
50.0
 20
86.0
  0
LWPOLYLINE
  5
41
330
17
100
AcDbEntity
  8
TOP
100
AcDbPolyline
 90
2
 70
0
 10
5.0
 20
86.0
 10
50.0
 20
86.0
  0
LWPOLYLINE
  5
42
330
17
100
AcDbEntity
  8
TOP
100
AcDbPolyline
 90
2
 70
0
 10
0.0
 20
56.5
 10
0.0
 20
91.5
  0
LWPOLYLINE
  5
43
330
17
100
AcDbEntity
  8
TOP
100
AcDbPolyline
 90
2
 70
0
 10
0.0
 20
56.5
 10
0.0
 20
91.5
  0
LWPOLYLINE
  5
44
330
17
100
AcDbEntity
  8
TOP
100
AcDbPolyline
 90
2
 70
0
 10
40.0
 20
56.5
 10
40.0
 20
91.5
  0
LWPOLYLINE
  5
45
330
17
100
AcDbEntity
  8
TOP
100
AcDbPolyline
 90
2
 70
0
 10
40.0
 20
56.5
 10
40.0
 20
91.5
  0
LWPOLYLINE
  5
46
330
17
100
AcDbEntity
  8
TOP
100
AcDbPolyline
 90
2
 70
0
 10
0.0
 20
56.5
 10
40.0
 20
56.5
  0
LWPOLYLINE
  5
47
330
17
100
AcDbEntity
  8
TOP
100
AcDbPolyline
 90
2
 70
0
 10
0.0
 20
56.5
 10
40.0
 20
56.5
  0
LWPOLYLINE
  5
48
330
17
100
AcDbEntity
  8
TOP
100
AcDbPolyline
 90
2
 70
0
 10
0.0
 20
91.5
 10
40.0
 20
91.5
  0
LWPOLYLINE
  5
49
330
17
100
AcDbEntity
  8
TOP
100
AcDbPolyline
 90
2
 70
0
 10
0.0
 20
91.5
 10
40.0
 20
91.5
  0
LWPOLYLINE
  5
4A
330
17
100
AcDbEntity
  8
TOP
100
AcDbPolyline
 90
2
 70
0
 10
49.0
 20
74.0
 10
61.0
 20
74.0
  0
LWPOLYLINE
  5
4B
330
17
100
AcDbEntity
  8
TOP
100
AcDbPolyline
 90
16
 70
0
 10
49.0
 20
74.0
 10
49.0
 20
76.4404198584548
 10
49.0
 20
78.45886895286436
 10
49.0
 20
79.70633909777092
 10
49.0
 20
79.96713137220964
 10
49.0
 20
79.19615242270663
 10
49.0
 20
77.52671151375483
 10
49.0
 20
75.24747014490656
 10
49.0
 20
72.75252985509344
 10
49.0
 20
70.47328848624517
 10
49.0
 20
68.80384757729337
 10
49.0
 20
68.03286862779036
 10
49.0
 20
68.29366090222908
 10
49.0
 20
69.54113104713564
 10
49.0
 20
71.5595801415452
 10
49.0
 20
74.0
  0
LWPOLYLINE
  5
4C
330
17
100
AcDbEntity
  8
TOP
100
AcDbPolyline
 90
16
 70
0
 10
61.0
 20
74.0
 10
61.0
 20
76.4404198584548
 10
61.0
 20
78.45886895286436
 10
61.0
 20
79.70633909777092
 10
61.0
 20
79.96713137220964
 10
61.0
 20
79.19615242270663
 10
61.0
 20
77.52671151375483
 10
61.0
 20
75.24747014490656
 10
61.0
 20
72.75252985509344
 10
61.0
 20
70.47328848624517
 10
61.0
 20
68.80384757729337
 10
61.0
 20
68.03286862779036
 10
61.0
 20
68.29366090222908
 10
61.0
 20
69.54113104713564
 10
61.0
 20
71.5595801415452
 10
61.0
 20
74.0
  0
LWPOLYLINE
  5
4D
330
17
100
AcDbEntity
  8
TOP
100
AcDbPolyline
 90
2
 70
0
 10
61.0
 20
74.0
 10
61.0
 20
144.0
  0
LWPOLYLINE
  5
4E
330
17
100
AcDbEntity
  8
TOP
100
AcDbPolyline
 90
2
 70
0
 10
61.0
 20
74.0
 10
61.0
 20
144.0
  0
LWPOLYLINE
  5
4F
330
17
100
AcDbEntity
  8
TOP
100
AcDbPolyline
 90
16
 70
0
 10
61.0
 20
79.0
 10
61.0
 20
77.88147423154155
 10
61.0
 20
76.95635172993717
 10
61.0
 20
76.38459458018833
 10
61.0
 20
76.26506478773724
 10
61.0
 20
76.61843013959279
 10
61.0
 20
77.3835905561957
 10
61.0
 20
78.42824285025117
 10
61.0
 20
79.57175714974883
 10
61.0
 20
80.6164094438043
 10
61.0
 20
81.38156986040721
 10
61.0
 20
81.73493521226276
 10
61.0
 20
81.61540541981168
 10
61.0
 20
81.04364827006283
 10
61.0
 20
80.11852576845845
 10
61.0
 20
79.0
  0
LWPOLYLINE
  5
50
330
17
100
AcDbEntity
  8
TOP
100
AcDbPolyline
 90
2
 70
0
 10
61.0
 20
74.0
 10
67.0
 20
74.0
  0
LWPOLYLINE
  5
51
330
17
100
AcDbEntity
  8
TOP
100
AcDbPolyline
 90
2
 70
0
 10
61.0
 20
74.0
 10
67.0
 20
74.0
  0
LWPOLYLINE
  5
52
330
17
100
AcDbEntity
  8
TOP
100
AcDbPolyline
 90
2
 70
0
 10
61.0
 20
144.0
 10
67.0
 20
144.0
  0
LWPOLYLINE
  5
53
330
17
100
AcDbEntity
  8
TOP
100
AcDbPolyline
 90
2
 70
0
 10
67.0
 20
74.0
 10
67.0
 20
144.0
  0
LWPOLYLINE
  5
54
330
17
100
AcDbEntity
  8
TOP
100
AcDbPolyline
 90
2
 70
0
 10
61.0
 20
144.0
 10
67.0
 20
144.0
  0
LWPOLYLINE
  5
55
330
17
100
AcDbEntity
  8
TOP
100
AcDbPolyline
 90
2
 70
0
 10
67.0
 20
74.0
 10
67.0
 20
144.0
  0
LWPOLYLINE
  5
56
330
17
100
AcDbEntity
  8
TOP
100
AcDbPolyline
 90
2
 70
0
 10
61.0
 20
79.0
 10
67.0
 20
79.0
  0
LWPOLYLINE
  5
57
330
17
100
AcDbEntity
  8
TOP
100
AcDbPolyline
 90
16
 70
0
 10
67.0
 20
79.0
 10
67.0
 20
77.88147423154155
 10
67.0
 20
76.95635172993717
 10
67.0
 20
76.38459458018833
 10
67.0
 20
76.26506478773724
 10
67.0
 20
76.61843013959279
 10
67.0
 20
77.3835905561957
 10
67.0
 20
78.42824285025117
 10
67.0
 20
79.57175714974883
 10
67.0
 20
80.6164094438043
 10
67.0
 20
81.38156986040721
 10
67.0
 20
81.73493521226276
 10
67.0
 20
81.61540541981168
 10
67.0
 20
81.04364827006283
 10
67.0
 20
80.11852576845845
 10
67.0
 20
79.0
  0
LWPOLYLINE
  5
58
330
17
100
AcDbEntity
  8
TOP
100
AcDbPolyline
 90
2
 70
0
 10
61.0
 20
144.0
 10
61.0
 20
149.0
  0
LWPOLYLINE
  5
59
330
17
100
AcDbEntity
  8
TOP
100
AcDbPolyline
 90
2
 70
0
 10
61.0
 20
144.0
 10
61.0
 20
149.0
  0
LWPOLYLINE
  5
5A
330
17
100
AcDbEntity
  8
TOP
100
AcDbPolyline
 90
2
 70
0
 10
69.0
 20
144.0
 10
69.0
 20
149.0
  0
LWPOLYLINE
  5
5B
330
17
100
AcDbEntity
  8
TOP
100
AcDbPolyline
 90
2
 70
0
 10
69.0
 20
144.0
 10
69.0
 20
149.0
  0
LWPOLYLINE
  5
5C
330
17
100
AcDbEntity
  8
TOP
100
AcDbPolyline
 90
2
 70
0
 10
61.0
 20
144.0
 10
69.0
 20
144.0
  0
LWPOLYLINE
  5
5D
330
17
100
AcDbEntity
  8
TOP
100
AcDbPolyline
 90
2
 70
0
 10
61.0
 20
144.0
 10
69.0
 20
144.0
  0
LWPOLYLINE
  5
5E
330
17
100
AcDbEntity
  8
TOP
100
AcDbPolyline
 90
2
 70
0
 10
61.0
 20
149.0
 10
69.0
 20
149.0
  0
LWPOLYLINE
  5
5F
330
17
100
AcDbEntity
  8
TOP
100
AcDbPolyline
 90
2
 70
0
 10
61.0
 20
149.0
 10
69.0
 20
149.0
  0
DIMENSION
  5
60
330
17
100
AcDbEntity
  8
DIMENSIONS
100
AcDbDimension
280
0
  2
*D1
  3
Standard
 10
0.0
 20
-35.0
 30
0.0
 11
34.5
 21
-35.0
 31
0.0
 70
32
 71
5
  1
<>
100
AcDbAlignedDimension
 13
0.0
 23
0.0
 33
0.0
 14
69.0
 24
0.0
 34
0.0
 50
0.0
100
AcDbRotatedDimension
1001
ACAD
1000
DSTYLE
1002
{
1070
140
1040
2.5
1070
41
1040
2.5
1070
176
1070
7
1070
177
1070
7
1070
178
1070
7
1070
271
1070
2
1002
}
  0
DIMENSION
  5
74
330
17
100
AcDbEntity
  8
DIMENSIONS
100
AcDbDimension
280
0
  2
*D2
  3
Standard
 10
-35.0
 20
0.0
 30
0.0
 11
-35.0
 21
74.5
 31
0.0
 70
32
 71
5
  1
<>
100
AcDbAlignedDimension
 13
0.0
 23
0.0
 33
0.0
 14
0.0
 24
149.0
 34
0.0
 50
90.0
100
AcDbRotatedDimension
1001
ACAD
1000
DSTYLE
1002
{
1070
140
1040
2.5
1070
41
1040
2.5
1070
176
1070
7
1070
177
1070
7
1070
178
1070
7
1070
271
1070
2
1002
}
  0
TEXT
  5
84
330
17
100
AcDbEntity
  8
NOTES
100
AcDbText
 10
0.0
 20
169.0
 30
0.0
 40
4.0
  1
TOP
100
AcDbText
  0
LWPOLYLINE
  5
85
330
17
100
AcDbEntity
  8
FRONT
100
AcDbPolyline
 90
2
 70
0
 10
40.0
 20
-339.0
 10
48.0
 20
-339.0
  0
LWPOLYLINE
  5
86
330
17
100
AcDbEntity
  8
FRONT
100
AcDbPolyline
 90
100
 70
0
 10
40.0
 20
-339.0
 10
40.0
 20
-338.8510140589194
 10
40.0
 20
-338.40465614947885
 10
40.0
 20
-337.6627235974403
 10
40.0
 20
-336.62820390333036
 10
40.0
 20
-335.30526271283
 10
40.0
 20
-333.69922704318935
 10
40.0
 20
-331.81656383320995
 10
40.0
 20
-329.6648539031641
 10
40.0
 20
-327.2527614295074
 10
40.0
 20
-324.5899990572983
 10
40.0
 20
-321.68728879080436
 10
40.0
 20
-318.5563188197752
 10
40.0
 20
-315.2096964552278
 10
40.0
 20
-311.66089736425465
 10
40.0
 20
-307.92421130826864
 10
40.0
 20
-304.01468460317716
 10
40.0
 20
-299.94805953317854
 10
40.0
 20
-295.7407109621396
 10
40.0
 20
-291.40958039779855
 10
40.0
 20
-286.97210777429234
 10
40.0
 20
-282.44616122769764
 10
40.0
 20
-277.84996514735286
 10
40.0
 20
-273.2020267926748
 10
40.0
 20
-268.5210617709569
 10
40.0
 20
-263.8259186762242
 10
40.0
 20
-259.13550319259764
 10
40.0
 20
-254.4687019677769
 10
40.0
 20
-249.8443065631759
 10
40.0
 20
-245.28093778693744
 10
40.0
 20
-240.7969707145108
 10
40.0
 20
-236.41046069870848
 10
40.0
 20
-232.13907066717272
 10
40.0
 20
-228.0
 10
40.0
 20
-224.00991527390784
 10
40.0
 20
-220.18488315181264
 10
40.0
 20
-216.5403056880489
 10
40.0
 20
-213.09085830973223
 10
40.0
 20
-209.85043072399415
 10
40.0
 20
-206.83207098903375
 10
40.0
 20
-204.04793297419238
 10
40.0
 20
-201.5092274206117
 10
40.0
 20
-199.22617679953566
 10
40.0
 20
-197.20797415002687
 10
40.0
 20
-195.46274606184278
 10
40.0
 20
-193.9975199525272
 10
40.0
 20
-192.81819577047986
 10
40.0
 20
-191.92952223794683
 10
40.0
 20
-191.33507772959175
 10
40.0
 20
-191.0372558636443
 10
40.0
 20
-191.0372558636443
 10
40.0
 20
-191.33507772959172
 10
40.0
 20
-191.92952223794683
 10
40.0
 20
-192.81819577047986
 10
40.0
 20
-193.99751995252717
 10
40.0
 20
-195.46274606184278
 10
40.0
 20
-197.20797415002684
 10
40.0
 20
-199.22617679953566
 10
40.0
 20
-201.5092274206117
 10
40.0
 20
-204.04793297419238
 10
40.0
 20
-206.83207098903372
 10
40.0
 20
-209.85043072399415
 10
40.0
 20
-213.09085830973223
 10
40.0
 20
-216.54030568804893
 10
40.0
 20
-220.18488315181267
 10
40.0
 20
-224.0099152739079
 10
40.0
 20
-227.99999999999997
 10
40.0
 20
-232.13907066717272
 10
40.0
 20
-236.41046069870848
 10
40.0
 20
-240.7969707145108
 10
40.0
 20
-245.28093778693744
 10
40.0
 20
-249.84430656317585
 10
40.0
 20
-254.4687019677769
 10
40.0
 20
-259.13550319259764
 10
40.0
 20
-263.8259186762242
 10
40.0
 20
-268.5210617709569
 10
40.0
 20
-273.2020267926748
 10
40.0
 20
-277.8499651473528
 10
40.0
 20
-282.4461612276976
 10
40.0
 20
-286.97210777429234
 10
40.0
 20
-291.4095803977985
 10
40.0
 20
-295.74071096213964
 10
40.0
 20
-299.94805953317854
 10
40.0
 20
-304.01468460317716
 10
40.0
 20
-307.92421130826864
 10
40.0
 20
-311.6608973642547
 10
40.0
 20
-315.2096964552278
 10
40.0
 20
-318.5563188197752
 10
40.0
 20
-321.68728879080436
 10
40.0
 20
-324.5899990572983
 10
40.0
 20
-327.2527614295074
 10
40.0
 20
-329.6648539031641
 10
40.0
 20
-331.81656383320995
 10
40.0
 20
-333.69922704318935
 10
40.0
 20
-335.30526271283
 10
40.0
 20
-336.62820390333036
 10
40.0
 20
-337.6627235974403
 10
40.0
 20
-338.40465614947885
 10
40.0
 20
-338.8510140589194
 10
40.0
 20
-339.0
  0
LWPOLYLINE
  5
87
330
17
100
AcDbEntity
  8
FRONT
100
AcDbPolyline
 90
100
 70
0
 10
48.0
 20
-339.0
 10
48.0
 20
-338.8510140589194
 10
48.0
 20
-338.40465614947885
 10
48.0
 20
-337.6627235974403
 10
48.0
 20
-336.62820390333036
 10
48.0
 20
-335.30526271283
 10
48.0
 20
-333.69922704318935
 10
48.0
 20
-331.81656383320995
 10
48.0
 20
-329.6648539031641
 10
48.0
 20
-327.2527614295074
 10
48.0
 20
-324.5899990572983
 10
48.0
 20
-321.68728879080436
 10
48.0
 20
-318.5563188197752
 10
48.0
 20
-315.2096964552278
 10
48.0
 20
-311.66089736425465
 10
48.0
 20
-307.92421130826864
 10
48.0
 20
-304.01468460317716
 10
48.0
 20
-299.94805953317854
 10
48.0
 20
-295.7407109621396
 10
48.0
 20
-291.40958039779855
 10
48.0
 20
-286.97210777429234
 10
48.0
 20
-282.44616122769764
 10
48.0
 20
-277.84996514735286
 10
48.0
 20
-273.2020267926748
 10
48.0
 20
-268.5210617709569
 10
48.0
 20
-263.8259186762242
 10
48.0
 20
-259.13550319259764
 10
48.0
 20
-254.4687019677769
 10
48.0
 20
-249.8443065631759
 10
48.0
 20
-245.28093778693744
 10
48.0
 20
-240.7969707145108
 10
48.0
 20
-236.41046069870848
 10
48.0
 20
-232.13907066717272
 10
48.0
 20
-228.0
 10
48.0
 20
-224.00991527390784
 10
48.0
 20
-220.18488315181264
 10
48.0
 20
-216.5403056880489
 10
48.0
 20
-213.09085830973223
 10
48.0
 20
-209.85043072399415
 10
48.0
 20
-206.83207098903375
 10
48.0
 20
-204.04793297419238
 10
48.0
 20
-201.5092274206117
 10
48.0
 20
-199.22617679953566
 10
48.0
 20
-197.20797415002687
 10
48.0
 20
-195.46274606184278
 10
48.0
 20
-193.9975199525272
 10
48.0
 20
-192.81819577047986
 10
48.0
 20
-191.92952223794683
 10
48.0
 20
-191.33507772959175
 10
48.0
 20
-191.0372558636443
 10
48.0
 20
-191.0372558636443
 10
48.0
 20
-191.33507772959172
 10
48.0
 20
-191.92952223794683
 10
48.0
 20
-192.81819577047986
 10
48.0
 20
-193.99751995252717
 10
48.0
 20
-195.46274606184278
 10
48.0
 20
-197.20797415002684
 10
48.0
 20
-199.22617679953566
 10
48.0
 20
-201.5092274206117
 10
48.0
 20
-204.04793297419238
 10
48.0
 20
-206.83207098903372
 10
48.0
 20
-209.85043072399415
 10
48.0
 20
-213.09085830973223
 10
48.0
 20
-216.54030568804893
 10
48.0
 20
-220.18488315181267
 10
48.0
 20
-224.0099152739079
 10
48.0
 20
-227.99999999999997
 10
48.0
 20
-232.13907066717272
 10
48.0
 20
-236.41046069870848
 10
48.0
 20
-240.7969707145108
 10
48.0
 20
-245.28093778693744
 10
48.0
 20
-249.84430656317585
 10
48.0
 20
-254.4687019677769
 10
48.0
 20
-259.13550319259764
 10
48.0
 20
-263.8259186762242
 10
48.0
 20
-268.5210617709569
 10
48.0
 20
-273.2020267926748
 10
48.0
 20
-277.8499651473528
 10
48.0
 20
-282.4461612276976
 10
48.0
 20
-286.97210777429234
 10
48.0
 20
-291.4095803977985
 10
48.0
 20
-295.74071096213964
 10
48.0
 20
-299.94805953317854
 10
48.0
 20
-304.01468460317716
 10
48.0
 20
-307.92421130826864
 10
48.0
 20
-311.6608973642547
 10
48.0
 20
-315.2096964552278
 10
48.0
 20
-318.5563188197752
 10
48.0
 20
-321.68728879080436
 10
48.0
 20
-324.5899990572983
 10
48.0
 20
-327.2527614295074
 10
48.0
 20
-329.6648539031641
 10
48.0
 20
-331.81656383320995
 10
48.0
 20
-333.69922704318935
 10
48.0
 20
-335.30526271283
 10
48.0
 20
-336.62820390333036
 10
48.0
 20
-337.6627235974403
 10
48.0
 20
-338.40465614947885
 10
48.0
 20
-338.8510140589194
 10
48.0
 20
-339.0
  0
LWPOLYLINE
  5
88
330
17
100
AcDbEntity
  8
FRONT
100
AcDbPolyline
 90
100
 70
0
 10
40.0
 20
-329.0
 10
40.0
 20
-328.8711472942006
 10
40.0
 20
-328.4851080211709
 10
40.0
 20
-327.84343662481325
 10
40.0
 20
-326.9487168893668
 10
40.0
 20
-325.8045515354205
 10
40.0
 20
-324.4155477130287
 10
40.0
 20
-322.78729845034377
 10
40.0
 20
-320.92636013246624
 10
40.0
 20
-318.8402261011956
 10
40.0
 20
-316.53729648198777
 10
40.0
 20
-314.0268443596146
 10
40.0
 20
-311.3189784387245
 10
40.0
 20
-308.4246023396565
 10
40.0
 20
-305.35537069340944
 10
40.0
 20
-302.12364221255666
 10
40.0
 20
-298.7424299270722
 10
40.0
 20
-295.22534878545173
 10
40.0
 20
-291.58656083212077
 10
40.0
 20
-287.84071818187977
 10
40.0
 20
-284.0029040210096
 10
40.0
 20
-280.0885718726033
 10
40.0
 20
-276.1134833706835
 10
40.0
 20
-272.0936447936647
 10
40.0
 20
-268.0452426127195
 10
40.0
 20
-263.9845783145723
 10
40.0
 20
-259.92800276116554
 10
40.0
 20
-255.89185035050974
 10
40.0
 20
-251.89237324382782
 10
40.0
 20
-247.94567592383777
 10
40.0
 20
-244.067650347685
 10
40.0
 20
-240.27391195563976
 10
40.0
 20
-236.57973679323047
 10
40.0
 20
-233.0
 10
40.0
 20
-229.54911591256894
 10
40.0
 20
-226.24098002318934
 10
40.0
 20
-223.08891302750175
 10
40.0
 20
-220.10560718679542
 10
40.0
 20
-217.3030752207517
 10
40.0
 20
-214.6926019364616
 10
40.0
 20
-212.28469878849072
 10
40.0
 20
-210.08906155296148
 10
40.0
 20
-208.1145312860849
 10
40.0
 20
-206.36905872434755
 10
40.0
 20
-204.85967226970186
 10
40.0
 20
-203.59244968867216
 10
40.0
 20
-202.57249363933394
 10
40.0
 20
-201.80391112471077
 10
40.0
 20
-201.28979695532257
 10
40.0
 20
-201.03222128747615
 10
40.0
 20
-201.03222128747615
 10
40.0
 20
-201.28979695532257
 10
40.0
 20
-201.80391112471077
 10
40.0
 20
-202.57249363933394
 10
40.0
 20
-203.59244968867216
 10
40.0
 20
-204.85967226970186
 10
40.0
 20
-206.36905872434755
 10
40.0
 20
-208.1145312860849
 10
40.0
 20
-210.08906155296145
 10
40.0
 20
-212.2846987884907
 10
40.0
 20
-214.6926019364616
 10
40.0
 20
-217.30307522075168
 10
40.0
 20
-220.10560718679545
 10
40.0
 20
-223.08891302750175
 10
40.0
 20
-226.24098002318934
 10
40.0
 20
-229.54911591256894
 10
40.0
 20
-232.99999999999997
 10
40.0
 20
-236.57973679323047
 10
40.0
 20
-240.27391195563976
 10
40.0
 20
-244.067650347685
 10
40.0
 20
-247.9456759238377
 10
40.0
 20
-251.89237324382776
 10
40.0
 20
-255.89185035050974
 10
40.0
 20
-259.92800276116554
 10
40.0
 20
-263.98457831457233
 10
40.0
 20
-268.0452426127195
 10
40.0
 20
-272.0936447936647
 10
40.0
 20
-276.1134833706835
 10
40.0
 20
-280.0885718726033
 10
40.0
 20
-284.0029040210096
 10
40.0
 20
-287.84071818187977
 10
40.0
 20
-291.58656083212077
 10
40.0
 20
-295.22534878545173
 10
40.0
 20
-298.7424299270722
 10
40.0
 20
-302.12364221255666
 10
40.0
 20
-305.35537069340944
 10
40.0
 20
-308.4246023396565
 10
40.0
 20
-311.31897843872446
 10
40.0
 20
-314.0268443596146
 10
40.0
 20
-316.5372964819877
 10
40.0
 20
-318.8402261011956
 10
40.0
 20
-320.92636013246624
 10
40.0
 20
-322.78729845034377
 10
40.0
 20
-324.4155477130287
 10
40.0
 20
-325.8045515354205
 10
40.0
 20
-326.9487168893668
 10
40.0
 20
-327.8434366248132
 10
40.0
 20
-328.4851080211709
 10
40.0
 20
-328.8711472942006
 10
40.0
 20
-329.0
  0
LWPOLYLINE
  5
89
330
17
100
AcDbEntity
  8
FRONT
100
AcDbPolyline
 90
100
 70
0
 10
48.0
 20
-329.0
 10
48.0
 20
-328.8711472942006
 10
48.0
 20
-328.4851080211709
 10
48.0
 20
-327.84343662481325
 10
48.0
 20
-326.9487168893668
 10
48.0
 20
-325.8045515354205
 10
48.0
 20
-324.4155477130287
 10
48.0
 20
-322.78729845034377
 10
48.0
 20
-320.92636013246624
 10
48.0
 20
-318.8402261011956
 10
48.0
 20
-316.53729648198777
 10
48.0
 20
-314.0268443596146
 10
48.0
 20
-311.3189784387245
 10
48.0
 20
-308.4246023396565
 10
48.0
 20
-305.35537069340944
 10
48.0
 20
-302.12364221255666
 10
48.0
 20
-298.7424299270722
 10
48.0
 20
-295.22534878545173
 10
48.0
 20
-291.58656083212077
 10
48.0
 20
-287.84071818187977
 10
48.0
 20
-284.0029040210096
 10
48.0
 20
-280.0885718726033
 10
48.0
 20
-276.1134833706835
 10
48.0
 20
-272.0936447936647
 10
48.0
 20
-268.0452426127195
 10
48.0
 20
-263.9845783145723
 10
48.0
 20
-259.92800276116554
 10
48.0
 20
-255.89185035050974
 10
48.0
 20
-251.89237324382782
 10
48.0
 20
-247.94567592383777
 10
48.0
 20
-244.067650347685
 10
48.0
 20
-240.27391195563976
 10
48.0
 20
-236.57973679323047
 10
48.0
 20
-233.0
 10
48.0
 20
-229.54911591256894
 10
48.0
 20
-226.24098002318934
 10
48.0
 20
-223.08891302750175
 10
48.0
 20
-220.10560718679542
 10
48.0
 20
-217.3030752207517
 10
48.0
 20
-214.6926019364616
 10
48.0
 20
-212.28469878849072
 10
48.0
 20
-210.08906155296148
 10
48.0
 20
-208.1145312860849
 10
48.0
 20
-206.36905872434755
 10
48.0
 20
-204.85967226970186
 10
48.0
 20
-203.59244968867216
 10
48.0
 20
-202.57249363933394
 10
48.0
 20
-201.80391112471077
 10
48.0
 20
-201.28979695532257
 10
48.0
 20
-201.03222128747615
 10
48.0
 20
-201.03222128747615
 10
48.0
 20
-201.28979695532257
 10
48.0
 20
-201.80391112471077
 10
48.0
 20
-202.57249363933394
 10
48.0
 20
-203.59244968867216
 10
48.0
 20
-204.85967226970186
 10
48.0
 20
-206.36905872434755
 10
48.0
 20
-208.1145312860849
 10
48.0
 20
-210.08906155296145
 10
48.0
 20
-212.2846987884907
 10
48.0
 20
-214.6926019364616
 10
48.0
 20
-217.30307522075168
 10
48.0
 20
-220.10560718679545
 10
48.0
 20
-223.08891302750175
 10
48.0
 20
-226.24098002318934
 10
48.0
 20
-229.54911591256894
 10
48.0
 20
-232.99999999999997
 10
48.0
 20
-236.57973679323047
 10
48.0
 20
-240.27391195563976
 10
48.0
 20
-244.067650347685
 10
48.0
 20
-247.9456759238377
 10
48.0
 20
-251.89237324382776
 10
48.0
 20
-255.89185035050974
 10
48.0
 20
-259.92800276116554
 10
48.0
 20
-263.98457831457233
 10
48.0
 20
-268.0452426127195
 10
48.0
 20
-272.0936447936647
 10
48.0
 20
-276.1134833706835
 10
48.0
 20
-280.0885718726033
 10
48.0
 20
-284.0029040210096
 10
48.0
 20
-287.84071818187977
 10
48.0
 20
-291.58656083212077
 10
48.0
 20
-295.22534878545173
 10
48.0
 20
-298.7424299270722
 10
48.0
 20
-302.12364221255666
 10
48.0
 20
-305.35537069340944
 10
48.0
 20
-308.4246023396565
 10
48.0
 20
-311.31897843872446
 10
48.0
 20
-314.0268443596146
 10
48.0
 20
-316.5372964819877
 10
48.0
 20
-318.8402261011956
 10
48.0
 20
-320.92636013246624
 10
48.0
 20
-322.78729845034377
 10
48.0
 20
-324.4155477130287
 10
48.0
 20
-325.8045515354205
 10
48.0
 20
-326.9487168893668
 10
48.0
 20
-327.8434366248132
 10
48.0
 20
-328.4851080211709
 10
48.0
 20
-328.8711472942006
 10
48.0
 20
-329.0
  0
LWPOLYLINE
  5
8A
330
17
100
AcDbEntity
  8
FRONT
100
AcDbPolyline
 90
2
 70
0
 10
40.0
 20
-329.0
 10
48.0
 20
-329.0
  0
LWPOLYLINE
  5
8B
330
17
100
AcDbEntity
  8
FRONT
100
AcDbPolyline
 90
2
 70
0
 10
5.0
 20
-188.0
 10
5.0
 20
-182.0
  0
LWPOLYLINE
  5
8C
330
17
100
AcDbEntity
  8
FRONT
100
AcDbPolyline
 90
2
 70
0
 10
5.0
 20
-188.0
 10
5.0
 20
-182.0
  0
LWPOLYLINE
  5
8D
330
17
100
AcDbEntity
  8
FRONT
100
AcDbPolyline
 90
2
 70
0
 10
50.0
 20
-188.0
 10
50.0
 20
-182.0
  0
LWPOLYLINE
  5
8E
330
17
100
AcDbEntity
  8
FRONT
100
AcDbPolyline
 90
2
 70
0
 10
50.0
 20
-188.0
 10
50.0
 20
-182.0
  0
LWPOLYLINE
  5
8F
330
17
100
AcDbEntity
  8
FRONT
100
AcDbPolyline
 90
2
 70
0
 10
5.0
 20
-188.0
 10
50.0
 20
-188.0
  0
LWPOLYLINE
  5
90
330
17
100
AcDbEntity
  8
FRONT
100
AcDbPolyline
 90
2
 70
0
 10
5.0
 20
-182.0
 10
50.0
 20
-182.0
  0
LWPOLYLINE
  5
91
330
17
100
AcDbEntity
  8
FRONT
100
AcDbPolyline
 90
2
 70
0
 10
5.0
 20
-188.0
 10
50.0
 20
-188.0
  0
LWPOLYLINE
  5
92
330
17
100
AcDbEntity
  8
FRONT
100
AcDbPolyline
 90
2
 70
0
 10
5.0
 20
-182.0
 10
50.0
 20
-182.0
  0
LWPOLYLINE
  5
93
330
17
100
AcDbEntity
  8
FRONT
100
AcDbPolyline
 90
2
 70
0
 10
0.0
 20
-180.0
 10
0.0
 20
-150.0
  0
LWPOLYLINE
  5
94
330
17
100
AcDbEntity
  8
FRONT
100
AcDbPolyline
 90
2
 70
0
 10
0.0
 20
-180.0
 10
0.0
 20
-150.0
  0
LWPOLYLINE
  5
95
330
17
100
AcDbEntity
  8
FRONT
100
AcDbPolyline
 90
2
 70
0
 10
40.0
 20
-180.0
 10
40.0
 20
-150.0
  0
LWPOLYLINE
  5
96
330
17
100
AcDbEntity
  8
FRONT
100
AcDbPolyline
 90
2
 70
0
 10
40.0
 20
-180.0
 10
40.0
 20
-150.0
  0
LWPOLYLINE
  5
97
330
17
100
AcDbEntity
  8
FRONT
100
AcDbPolyline
 90
2
 70
0
 10
0.0
 20
-180.0
 10
40.0
 20
-180.0
  0
LWPOLYLINE
  5
98
330
17
100
AcDbEntity
  8
FRONT
100
AcDbPolyline
 90
2
 70
0
 10
0.0
 20
-150.0
 10
40.0
 20
-150.0
  0
LWPOLYLINE
  5
99
330
17
100
AcDbEntity
  8
FRONT
100
AcDbPolyline
 90
2
 70
0
 10
0.0
 20
-180.0
 10
40.0
 20
-180.0
  0
LWPOLYLINE
  5
9A
330
17
100
AcDbEntity
  8
FRONT
100
AcDbPolyline
 90
2
 70
0
 10
0.0
 20
-150.0
 10
40.0
 20
-150.0
  0
LWPOLYLINE
  5
9B
330
17
100
AcDbEntity
  8
FRONT
100
AcDbPolyline
 90
2
 70
0
 10
49.0
 20
-201.0
 10
61.0
 20
-201.0
  0
LWPOLYLINE
  5
9C
330
17
100
AcDbEntity
  8
FRONT
100
AcDbPolyline
 90
16
 70
0
 10
49.0
 20
-201.0
 10
49.0
 20
-200.48127274585562
 10
49.0
 20
-199.01478363815315
 10
49.0
 20
-196.8541019662497
 10
49.0
 20
-194.37282922039407
 10
49.0
 20
-192.0
 10
49.0
 20
-190.1458980337503
 10
49.0
 20
-189.13111439559717
 10
49.0
 20
-189.13111439559717
 10
49.0
 20
-190.1458980337503
 10
49.0
 20
-192.0
 10
49.0
 20
-194.37282922039407
 10
49.0
 20
-196.8541019662497
 10
49.0
 20
-199.01478363815315
 10
49.0
 20
-200.48127274585562
 10
49.0
 20
-201.0
  0
LWPOLYLINE
  5
9D
330
17
100
AcDbEntity
  8
FRONT
100
AcDbPolyline
 90
16
 70
0
 10
61.0
 20
-201.0
 10
61.0
 20
-200.48127274585562
 10
61.0
 20
-199.01478363815315
 10
61.0
 20
-196.8541019662497
 10
61.0
 20
-194.37282922039407
 10
61.0
 20
-192.0
 10
61.0
 20
-190.1458980337503
 10
61.0
 20
-189.13111439559717
 10
61.0
 20
-189.13111439559717
 10
61.0
 20
-190.1458980337503
 10
61.0
 20
-192.0
 10
61.0
 20
-194.37282922039407
 10
61.0
 20
-196.8541019662497
 10
61.0
 20
-199.01478363815315
 10
61.0
 20
-200.48127274585562
 10
61.0
 20
-201.0
  0
LWPOLYLINE
  5
9E
330
17
100
AcDbEntity
  8
FRONT
100
AcDbPolyline
 90
2
 70
0
 10
61.0
 20
-199.0
 10
61.0
 20
-191.0
  0
LWPOLYLINE
  5
9F
330
17
100
AcDbEntity
  8
FRONT
100
AcDbPolyline
 90
2
 70
0
 10
61.0
 20
-199.0
 10
61.0
 20
-191.0
  0
LWPOLYLINE
  5
A0
330
17
100
AcDbEntity
  8
FRONT
100
AcDbPolyline
 90
16
 70
0
 10
61.0
 20
-197.75
 10
61.0
 20
-197.51225000851716
 10
61.0
 20
-196.84010916748687
 10
61.0
 20
-195.8497967345311
 10
61.0
 20
-194.71254672601395
 10
61.0
 20
-193.625
 10
61.0
 20
-192.7752032654689
 10
61.0
 20
-192.31009409798205
 10
61.0
 20
-192.31009409798205
 10
61.0
 20
-192.7752032654689
 10
61.0
 20
-193.625
 10
61.0
 20
-194.71254672601395
 10
61.0
 20
-195.8497967345311
 10
61.0
 20
-196.84010916748687
 10
61.0
 20
-197.51225000851716
 10
61.0
 20
-197.75
  0
LWPOLYLINE
  5
A1
330
17
100
AcDbEntity
  8
FRONT
100
AcDbPolyline
 90
2
 70
0
 10
61.0
 20
-199.0
 10
67.0
 20
-199.0
  0
LWPOLYLINE
  5
A2
330
17
100
AcDbEntity
  8
FRONT
100
AcDbPolyline
 90
2
 70
0
 10
67.0
 20
-199.0
 10
67.0
 20
-191.0
  0
LWPOLYLINE
  5
A3
330
17
100
AcDbEntity
  8
FRONT
100
AcDbPolyline
 90
2
 70
0
 10
61.0
 20
-191.0
 10
67.0
 20
-191.0
  0
LWPOLYLINE
  5
A4
330
17
100
AcDbEntity
  8
FRONT
100
AcDbPolyline
 90
2
 70
0
 10
61.0
 20
-191.0
 10
67.0
 20
-191.0
  0
LWPOLYLINE
  5
A5
330
17
100
AcDbEntity
  8
FRONT
100
AcDbPolyline
 90
2
 70
0
 10
61.0
 20
-199.0
 10
67.0
 20
-199.0
  0
LWPOLYLINE
  5
A6
330
17
100
AcDbEntity
  8
FRONT
100
AcDbPolyline
 90
2
 70
0
 10
67.0
 20
-199.0
 10
67.0
 20
-191.0
  0
LWPOLYLINE
  5
A7
330
17
100
AcDbEntity
  8
FRONT
100
AcDbPolyline
 90
2
 70
0
 10
61.0
 20
-197.75
 10
67.0
 20
-197.75
  0
LWPOLYLINE
  5
A8
330
17
100
AcDbEntity
  8
FRONT
100
AcDbPolyline
 90
16
 70
0
 10
67.0
 20
-197.75
 10
67.0
 20
-197.51225000851716
 10
67.0
 20
-196.84010916748687
 10
67.0
 20
-195.8497967345311
 10
67.0
 20
-194.71254672601395
 10
67.0
 20
-193.625
 10
67.0
 20
-192.7752032654689
 10
67.0
 20
-192.31009409798205
 10
67.0
 20
-192.31009409798205
 10
67.0
 20
-192.7752032654689
 10
67.0
 20
-193.625
 10
67.0
 20
-194.71254672601395
 10
67.0
 20
-195.8497967345311
 10
67.0
 20
-196.84010916748687
 10
67.0
 20
-197.51225000851716
 10
67.0
 20
-197.75
  0
LWPOLYLINE
  5
A9
330
17
100
AcDbEntity
  8
FRONT
100
AcDbPolyline
 90
2
 70
0
 10
61.0
 20
-229.0
 10
61.0
 20
-195.0
  0
LWPOLYLINE
  5
AA
330
17
100
AcDbEntity
  8
FRONT
100
AcDbPolyline
 90
2
 70
0
 10
61.0
 20
-229.0
 10
61.0
 20
-195.0
  0
LWPOLYLINE
  5
AB
330
17
100
AcDbEntity
  8
FRONT
100
AcDbPolyline
 90
2
 70
0
 10
69.0
 20
-229.0
 10
69.0
 20
-195.0
  0
LWPOLYLINE
  5
AC
330
17
100
AcDbEntity
  8
FRONT
100
AcDbPolyline
 90
2
 70
0
 10
69.0
 20
-229.0
 10
69.0
 20
-195.0
  0
LWPOLYLINE
  5
AD
330
17
100
AcDbEntity
  8
FRONT
100
AcDbPolyline
 90
2
 70
0
 10
61.0
 20
-229.0
 10
69.0
 20
-229.0
  0
LWPOLYLINE
  5
AE
330
17
100
AcDbEntity
  8
FRONT
100
AcDbPolyline
 90
2
 70
0
 10
61.0
 20
-195.0
 10
69.0
 20
-195.0
  0
LWPOLYLINE
  5
AF
330
17
100
AcDbEntity
  8
FRONT
100
AcDbPolyline
 90
2
 70
0
 10
61.0
 20
-229.0
 10
69.0
 20
-229.0
  0
LWPOLYLINE
  5
B0
330
17
100
AcDbEntity
  8
FRONT
100
AcDbPolyline
 90
2
 70
0
 10
61.0
 20
-195.0
 10
69.0
 20
-195.0
  0
DIMENSION
  5
B1
330
17
100
AcDbEntity
  8
DIMENSIONS
100
AcDbDimension
280
0
  2
*D3
  3
Standard
 10
0.0
 20
-374.0
 30
0.0
 11
34.5
 21
-374.0
 31
0.0
 70
32
 71
5
  1
<>
100
AcDbAlignedDimension
 13
0.0
 23
-339.0
 33
0.0
 14
69.0
 24
-339.0
 34
0.0
 50
0.0
100
AcDbRotatedDimension
1001
ACAD
1000
DSTYLE
1002
{
1070
140
1040
2.5
1070
41
1040
2.5
1070
176
1070
7
1070
177
1070
7
1070
178
1070
7
1070
271
1070
2
1002
}
  0
DIMENSION
  5
C1
330
17
100
AcDbEntity
  8
DIMENSIONS
100
AcDbDimension
280
0
  2
*D4
  3
Standard
 10
-35.0
 20
-339.0
 30
0.0
 11
-35.0
 21
-244.5
 31
0.0
 70
32
 71
5
  1
<>
100
AcDbAlignedDimension
 13
0.0
 23
-339.0
 33
0.0
 14
0.0
 24
-150.0
 34
0.0
 50
90.0
100
AcDbRotatedDimension
1001
ACAD
1000
DSTYLE
1002
{
1070
140
1040
2.5
1070
41
1040
2.5
1070
176
1070
7
1070
177
1070
7
1070
178
1070
7
1070
271
1070
2
1002
}
  0
TEXT
  5
D1
330
17
100
AcDbEntity
  8
NOTES
100
AcDbText
 10
0.0
 20
-130.0
 30
0.0
 40
4.0
  1
FRONT
100
AcDbText
  0
LWPOLYLINE
  5
D2
330
17
100
AcDbEntity
  8
RIGHT
100
AcDbPolyline
 90
100
 70
0
 10
293.0
 20
0.0
 10
297.6933700545858
 20
0.14898594108055363
 10
302.3678415644574
 20
0.5953438505211466
 10
307.00459208267034
 20
1.3372764025597093
 10
311.58495105139986
 20
2.371796096669641
 10
316.09047498168803
 20
3.6947372871700424
 10
320.50302171886426
 20
5.300772956810633
 10
324.8048234945987
 20
7.183436166790031
 10
328.97855847143467
 20
9.335146096835913
 10
333.00742049171424
 20
11.747238570492591
 10
336.8751867500434
 20
14.410000942701664
 10
340.5662831168039
 20
17.312711209195626
 10
344.0658468496763
 20
20.443681180224807
 10
347.35978644065744
 20
23.79030354477222
 10
350.43483835759
 20
27.339102635745334
 10
353.2786204517248
 20
31.07578869173134
 10
355.87968181626405
 20
34.98531539682283
 10
358.22754889512106
 20
39.05194046682148
 10
360.31276765623437
 20
43.25928903786041
 10
362.1269416596179
 20
47.59041960220148
 10
363.6627658668615
 20
52.02789222570766
 10
364.91405605594207
 20
56.553838772302385
 10
365.8757737229034
 20
61.15003485264715
 10
366.54404637013283
 20
65.79797320732519
 10
366.9161830995426
 20
70.47893822904308
 10
366.9906854478668
 20
75.1740813237758
 10
366.76725342044375
 20
79.86449680740235
 10
366.24678669918904
 20
84.53129803222309
 10
365.4313810198936
 20
89.1556934368241
 10
364.3243197334357
 20
93.71906221306257
 10
362.9300605848855
 20
98.20302928548921
 10
361.254217763739
 20
102.58953930129152
 10
359.30353929755887
 20
106.86092933282728
 10
357.0858798800485
 20
111.0
 10
354.6101692429731
 20
114.99008472609216
 10
351.8863761992816
 20
118.81511684818736
 10
348.9254685022151
 20
122.4596943119511
 10
345.73936868203583
 20
125.90914169026777
 10
342.3409060382056
 20
129.14956927600585
 10
338.74376498032484
 20
132.16792901096625
 10
334.9624299258451
 20
134.95206702580762
 10
331.01212697643206
 20
137.4907725793883
 10
326.9087626078284
 20
139.77382320046434
 10
322.6688596200894
 20
141.79202584997313
 10
318.30949060609953
 20
143.53725393815722
 10
313.8482092062658
 20
145.0024800474728
 10
309.30297942620405
 20
146.18180422952014
 10
304.6921033020279
 20
147.07047776205317
 10
300.0341472045095
 20
147.66492227040825
 10
295.347867078857
 20
147.9627441363557
 10
290.652132921143
 20
147.9627441363557
 10
285.9658527954905
 20
147.66492227040828
 10
281.30789669797207
 20
147.07047776205317
 10
276.697020573796
 20
146.18180422952014
 10
272.1517907937342
 20
145.00248004747283
 10
267.69050939390047
 20
143.53725393815722
 10
263.3311403799106
 20
141.79202584997316
 10
259.0912373921716
 20
139.77382320046434
 10
254.98787302356794
 20
137.4907725793883
 10
251.03757007415498
 20
134.95206702580762
 10
247.25623501967522
 20
132.16792901096628
 10
243.65909396179444
 20
129.14956927600585
 10
240.26063131796414
 20
125.90914169026777
 10
237.07453149778488
 20
122.45969431195107
 10
234.11362380071841
 20
118.81511684818733
 10
231.38983075702689
 20
114.9900847260921
 10
228.91412011995158
 20
111.00000000000003
 10
226.69646070244113
 20
106.86092933282728
 10
224.745782236261
 20
102.58953930129152
 10
223.06993941511456
 20
98.20302928548922
 10
221.67568026656429
 20
93.71906221306256
 10
220.5686189801064
 20
89.15569343682417
 10
219.75321330081098
 20
84.5312980322231
 10
219.23274657955628
 20
79.86449680740238
 10
219.00931455213325
 20
75.17408132377577
 10
219.0838169004574
 20
70.47893822904307
 10
219.4559536298672
 20
65.7979732073252
 10
220.1242262770966
 20
61.15003485264718
 10
221.0859439440579
 20
56.55383877230243
 10
222.33723413313854
 20
52.02789222570766
 10
223.8730583403821
 20
47.59041960220149
 10
225.68723234376566
 20
43.25928903786037
 10
227.77245110487894
 20
39.05194046682146
 10
230.12031818373595
 20
34.98531539682283
 10
232.72137954827514
 20
31.075788691731354
 10
235.56516164241
 20
27.339102635745313
 10
238.64021355934256
 20
23.790303544772208
 10
241.9341531503237
 20
20.443681180224814
 10
245.43371688319607
 20
17.31271120919564
 10
249.12481324995656
 20
14.410000942701686
 10
252.9925795082858
 20
11.747238570492591
 10
257.02144152856533
 20
9.335146096835913
 10
261.19517650540126
 20
7.183436166790045
 10
265.4969782811358
 20
5.3007729568106186
 10
269.90952501831197
 20
3.6947372871700424
 10
274.41504894860014
 20
2.371796096669641
 10
278.99540791732966
 20
1.337276402559695
 10
283.6321584355425
 20
0.5953438505211466
 10
288.3066299454143
 20
0.14898594108055363
 10
293.0
 20
0.0
  0
LWPOLYLINE
  5
D3
330
17
100
AcDbEntity
  8
RIGHT
100
AcDbPolyline
 90
100
 70
0
 10
293.0
 20
0.0
 10
297.6933700545858
 20
0.14898594108055363
 10
302.3678415644574
 20
0.5953438505211466
 10
307.00459208267034
 20
1.3372764025597093
 10
311.58495105139986
 20
2.371796096669641
 10
316.09047498168803
 20
3.6947372871700424
 10
320.50302171886426
 20
5.300772956810633
 10
324.8048234945987
 20
7.183436166790031
 10
328.97855847143467
 20
9.335146096835913
 10
333.00742049171424
 20
11.747238570492591
 10
336.8751867500434
 20
14.410000942701664
 10
340.5662831168039
 20
17.312711209195626
 10
344.0658468496763
 20
20.443681180224807
 10
347.35978644065744
 20
23.79030354477222
 10
350.43483835759
 20
27.339102635745334
 10
353.2786204517248
 20
31.07578869173134
 10
355.87968181626405
 20
34.98531539682283
 10
358.22754889512106
 20
39.05194046682148
 10
360.31276765623437
 20
43.25928903786041
 10
362.1269416596179
 20
47.59041960220148
 10
363.6627658668615
 20
52.02789222570766
 10
364.91405605594207
 20
56.553838772302385
 10
365.8757737229034
 20
61.15003485264715
 10
366.54404637013283
 20
65.79797320732519
 10
366.9161830995426
 20
70.47893822904308
 10
366.9906854478668
 20
75.1740813237758
 10
366.76725342044375
 20
79.86449680740235
 10
366.24678669918904
 20
84.53129803222309
 10
365.4313810198936
 20
89.1556934368241
 10
364.3243197334357
 20
93.71906221306257
 10
362.9300605848855
 20
98.20302928548921
 10
361.254217763739
 20
102.58953930129152
 10
359.30353929755887
 20
106.86092933282728
 10
357.0858798800485
 20
111.0
 10
354.6101692429731
 20
114.99008472609216
 10
351.8863761992816
 20
118.81511684818736
 10
348.9254685022151
 20
122.4596943119511
 10
345.73936868203583
 20
125.90914169026777
 10
342.3409060382056
 20
129.14956927600585
 10
338.74376498032484
 20
132.16792901096625
 10
334.9624299258451
 20
134.95206702580762
 10
331.01212697643206
 20
137.4907725793883
 10
326.9087626078284
 20
139.77382320046434
 10
322.6688596200894
 20
141.79202584997313
 10
318.30949060609953
 20
143.53725393815722
 10
313.8482092062658
 20
145.0024800474728
 10
309.30297942620405
 20
146.18180422952014
 10
304.6921033020279
 20
147.07047776205317
 10
300.0341472045095
 20
147.66492227040825
 10
295.347867078857
 20
147.9627441363557
 10
290.652132921143
 20
147.9627441363557
 10
285.9658527954905
 20
147.66492227040828
 10
281.30789669797207
 20
147.07047776205317
 10
276.697020573796
 20
146.18180422952014
 10
272.1517907937342
 20
145.00248004747283
 10
267.69050939390047
 20
143.53725393815722
 10
263.3311403799106
 20
141.79202584997316
 10
259.0912373921716
 20
139.77382320046434
 10
254.98787302356794
 20
137.4907725793883
 10
251.03757007415498
 20
134.95206702580762
 10
247.25623501967522
 20
132.16792901096628
 10
243.65909396179444
 20
129.14956927600585
 10
240.26063131796414
 20
125.90914169026777
 10
237.07453149778488
 20
122.45969431195107
 10
234.11362380071841
 20
118.81511684818733
 10
231.38983075702689
 20
114.9900847260921
 10
228.91412011995158
 20
111.00000000000003
 10
226.69646070244113
 20
106.86092933282728
 10
224.745782236261
 20
102.58953930129152
 10
223.06993941511456
 20
98.20302928548922
 10
221.67568026656429
 20
93.71906221306256
 10
220.5686189801064
 20
89.15569343682417
 10
219.75321330081098
 20
84.5312980322231
 10
219.23274657955628
 20
79.86449680740238
 10
219.00931455213325
 20
75.17408132377577
 10
219.0838169004574
 20
70.47893822904307
 10
219.4559536298672
 20
65.7979732073252
 10
220.1242262770966
 20
61.15003485264718
 10
221.0859439440579
 20
56.55383877230243
 10
222.33723413313854
 20
52.02789222570766
 10
223.8730583403821
 20
47.59041960220149
 10
225.68723234376566
 20
43.25928903786037
 10
227.77245110487894
 20
39.05194046682146
 10
230.12031818373595
 20
34.98531539682283
 10
232.72137954827514
 20
31.075788691731354
 10
235.56516164241
 20
27.339102635745313
 10
238.64021355934256
 20
23.790303544772208
 10
241.9341531503237
 20
20.443681180224814
 10
245.43371688319607
 20
17.31271120919564
 10
249.12481324995656
 20
14.410000942701686
 10
252.9925795082858
 20
11.747238570492591
 10
257.02144152856533
 20
9.335146096835913
 10
261.19517650540126
 20
7.183436166790045
 10
265.4969782811358
 20
5.3007729568106186
 10
269.90952501831197
 20
3.6947372871700424
 10
274.41504894860014
 20
2.371796096669641
 10
278.99540791732966
 20
1.337276402559695
 10
283.6321584355425
 20
0.5953438505211466
 10
288.3066299454143
 20
0.14898594108055363
 10
293.0
 20
0.0
  0
LWPOLYLINE
  5
D4
330
17
100
AcDbEntity
  8
RIGHT
100
AcDbPolyline
 90
100
 70
0
 10
293.0
 20
10.0
 10
297.0591308580201
 20
10.128852705799396
 10
301.10191702872
 20
10.514891978829098
 10
305.1120796390662
 20
11.15656337518677
 10
309.0734711795891
 20
12.0512831106332
 10
312.9701405247032
 20
13.195448464579492
 10
316.786397162261
 20
14.584452286971349
 10
320.506874373707
 20
16.212701549656238
 10
324.11659111043
 20
18.073639867533764
 10
327.6010123171583
 20
20.159773898804403
 10
330.946107459497
 20
22.462703518012248
 10
334.13840701993854
 20
24.973155640385407
 10
337.16505673485517
 20
27.681021561275507
 10
340.01386935408215
 20
30.57539766034354
 10
342.67337371467244
 20
33.64462930659056
 10
345.1328609312215
 20
36.87635778744332
 10
347.3824275167689
 20
40.25757007292785
 10
349.41301526064524
 20
43.7746512145483
 10
351.21644770268915
 20
47.41343916787926
 10
352.7854630569668
 20
51.159281818120206
 10
354.11374345242075
 20
54.9970959789904
 10
355.1959403727067
 20
58.91142812739665
 10
356.0276961927813
 20
62.886516629316446
 10
356.60566172552024
 20
66.90635520633529
 10
356.9275097077125
 20
70.95475738728048
 10
356.991944171128
 20
75.01542168542771
 10
356.7987056609243
 20
79.07199723883447
 10
356.3485722803797
 20
83.10814964949024
 10
355.64335655774585
 20
87.1076267561722
 10
354.68589814783627
 20
91.05432407616223
 10
353.48005239773875
 20
94.93234965231498
 10
352.0306748226932
 20
98.72608804436024
 10
350.3436015546455
 20
102.42026320676953
 10
348.4256258422041
 20
106.0
 10
346.28447069662536
 20
109.45088408743106
 10
343.92875779397326
 20
112.75901997681066
 10
341.3679727586725
 20
115.91108697249825
 10
338.61242696824723
 20
118.89439281320458
 10
335.67321603304265
 20
121.69692477924829
 10
332.5621751181187
 20
124.30739806353839
 10
329.29183128721735
 20
126.71530121150928
 10
325.875353060698
 20
128.91093844703852
 10
322.32649739055427
 20
130.8854687139151
 10
318.6595542660233
 20
132.63094127565245
 10
314.88928917284284
 20
134.14032773029814
 10
311.0308836378515
 20
135.40755031132784
 10
307.0998740983386
 20
136.42750636066606
 10
303.1120893422944
 20
137.19608887528923
 10
299.0835867714677
 20
137.71020304467743
 10
295.0305877438763
 20
137.96777871252385
 10
290.96941225612363
 20
137.96777871252385
 10
286.9164132285323
 20
137.71020304467743
 10
282.8879106577056
 20
137.19608887528923
 10
278.9001259016614
 20
136.42750636066606
 10
274.9691163621485
 20
135.40755031132784
 10
271.1107108271572
 20
134.14032773029814
 10
267.34044573397676
 20
132.63094127565245
 10
263.67350260944573
 20
130.8854687139151
 10
260.124646939302
 20
128.91093844703855
 10
256.7081687127827
 20
126.71530121150931
 10
253.43782488188126
 20
124.30739806353839
 10
250.32678396695735
 20
121.69692477924832
 10
247.38757303175277
 20
118.89439281320455
 10
244.63202724132748
 20
115.91108697249825
 10
242.07124220602674
 20
112.75901997681066
 10
239.71552930337464
 20
109.45088408743106
 10
237.57437415779594
 20
106.00000000000003
 10
235.6563984453545
 20
102.42026320676953
 10
233.96932517730679
 20
98.72608804436024
 10
232.51994760226123
 20
94.932349652315
 10
231.31410185216373
 20
91.05432407616227
 10
230.35664344225418
 20
87.10762675617225
 10
229.6514277196203
 20
83.10814964949026
 10
229.2012943390757
 20
79.07199723883448
 10
229.008055828872
 20
75.01542168542768
 10
229.07249029228748
 20
70.9547573872805
 10
229.39433827447974
 20
66.9063552063353
 10
229.97230380721868
 20
62.886516629316475
 10
230.80405962729333
 20
58.911428127396704
 10
231.88625654757928
 20
54.997095978990416
 10
233.21453694303318
 20
51.159281818120206
 10
234.78355229731085
 20
47.41343916787925
 10
236.58698473935476
 20
43.7746512145483
 10
238.61757248323107
 20
40.25757007292785
 10
240.8671390687785
 20
36.87635778744333
 10
243.32662628532754
 20
33.64462930659059
 10
245.98613064591788
 20
30.575397660343533
 10
248.83494326514483
 20
27.681021561275514
 10
251.86159298006146
 20
24.97315564038542
 10
255.05389254050297
 20
22.46270351801227
 10
258.3989876828417
 20
20.15977389880443
 10
261.88340888957
 20
18.073639867533764
 10
265.493125626293
 20
16.212701549656252
 10
269.2136028377391
 20
14.584452286971349
 10
273.0298594752968
 20
13.195448464579492
 10
276.9265288204109
 20
12.0512831106332
 10
280.8879203609337
 20
11.156563375186778
 10
284.89808297128
 20
10.514891978829105
 10
288.9408691419799
 20
10.128852705799396
 10
293.0
 20
10.0
  0
LWPOLYLINE
  5
D5
330
17
100
AcDbEntity
  8
RIGHT
100
AcDbPolyline
 90
100
 70
0
 10
293.0
 20
10.0
 10
297.0591308580201
 20
10.128852705799396
 10
301.10191702872
 20
10.514891978829098
 10
305.1120796390662
 20
11.15656337518677
 10
309.0734711795891
 20
12.0512831106332
 10
312.9701405247032
 20
13.195448464579492
 10
316.786397162261
 20
14.584452286971349
 10
320.506874373707
 20
16.212701549656238
 10
324.11659111043
 20
18.073639867533764
 10
327.6010123171583
 20
20.159773898804403
 10
330.946107459497
 20
22.462703518012248
 10
334.13840701993854
 20
24.973155640385407
 10
337.16505673485517
 20
27.681021561275507
 10
340.01386935408215
 20
30.57539766034354
 10
342.67337371467244
 20
33.64462930659056
 10
345.1328609312215
 20
36.87635778744332
 10
347.3824275167689
 20
40.25757007292785
 10
349.41301526064524
 20
43.7746512145483
 10
351.21644770268915
 20
47.41343916787926
 10
352.7854630569668
 20
51.159281818120206
 10
354.11374345242075
 20
54.9970959789904
 10
355.1959403727067
 20
58.91142812739665
 10
356.0276961927813
 20
62.886516629316446
 10
356.60566172552024
 20
66.90635520633529
 10
356.9275097077125
 20
70.95475738728048
 10
356.991944171128
 20
75.01542168542771
 10
356.7987056609243
 20
79.07199723883447
 10
356.3485722803797
 20
83.10814964949024
 10
355.64335655774585
 20
87.1076267561722
 10
354.68589814783627
 20
91.05432407616223
 10
353.48005239773875
 20
94.93234965231498
 10
352.0306748226932
 20
98.72608804436024
 10
350.3436015546455
 20
102.42026320676953
 10
348.4256258422041
 20
106.0
 10
346.28447069662536
 20
109.45088408743106
 10
343.92875779397326
 20
112.75901997681066
 10
341.3679727586725
 20
115.91108697249825
 10
338.61242696824723
 20
118.89439281320458
 10
335.67321603304265
 20
121.69692477924829
 10
332.5621751181187
 20
124.30739806353839
 10
329.29183128721735
 20
126.71530121150928
 10
325.875353060698
 20
128.91093844703852
 10
322.32649739055427
 20
130.8854687139151
 10
318.6595542660233
 20
132.63094127565245
 10
314.88928917284284
 20
134.14032773029814
 10
311.0308836378515
 20
135.40755031132784
 10
307.0998740983386
 20
136.42750636066606
 10
303.1120893422944
 20
137.19608887528923
 10
299.0835867714677
 20
137.71020304467743
 10
295.0305877438763
 20
137.96777871252385
 10
290.96941225612363
 20
137.96777871252385
 10
286.9164132285323
 20
137.71020304467743
 10
282.8879106577056
 20
137.19608887528923
 10
278.9001259016614
 20
136.42750636066606
 10
274.9691163621485
 20
135.40755031132784
 10
271.1107108271572
 20
134.14032773029814
 10
267.34044573397676
 20
132.63094127565245
 10
263.67350260944573
 20
130.8854687139151
 10
260.124646939302
 20
128.91093844703855
 10
256.7081687127827
 20
126.71530121150931
 10
253.43782488188126
 20
124.30739806353839
 10
250.32678396695735
 20
121.69692477924832
 10
247.38757303175277
 20
118.89439281320455
 10
244.63202724132748
 20
115.91108697249825
 10
242.07124220602674
 20
112.75901997681066
 10
239.71552930337464
 20
109.45088408743106
 10
237.57437415779594
 20
106.00000000000003
 10
235.6563984453545
 20
102.42026320676953
 10
233.96932517730679
 20
98.72608804436024
 10
232.51994760226123
 20
94.932349652315
 10
231.31410185216373
 20
91.05432407616227
 10
230.35664344225418
 20
87.10762675617225
 10
229.6514277196203
 20
83.10814964949026
 10
229.2012943390757
 20
79.07199723883448
 10
229.008055828872
 20
75.01542168542768
 10
229.07249029228748
 20
70.9547573872805
 10
229.39433827447974
 20
66.9063552063353
 10
229.97230380721868
 20
62.886516629316475
 10
230.80405962729333
 20
58.911428127396704
 10
231.88625654757928
 20
54.997095978990416
 10
233.21453694303318
 20
51.159281818120206
 10
234.78355229731085
 20
47.41343916787925
 10
236.58698473935476
 20
43.7746512145483
 10
238.61757248323107
 20
40.25757007292785
 10
240.8671390687785
 20
36.87635778744333
 10
243.32662628532754
 20
33.64462930659059
 10
245.98613064591788
 20
30.575397660343533
 10
248.83494326514483
 20
27.681021561275514
 10
251.86159298006146
 20
24.97315564038542
 10
255.05389254050297
 20
22.46270351801227
 10
258.3989876828417
 20
20.15977389880443
 10
261.88340888957
 20
18.073639867533764
 10
265.493125626293
 20
16.212701549656252
 10
269.2136028377391
 20
14.584452286971349
 10
273.0298594752968
 20
13.195448464579492
 10
276.9265288204109
 20
12.0512831106332
 10
280.8879203609337
 20
11.156563375186778
 10
284.89808297128
 20
10.514891978829105
 10
288.9408691419799
 20
10.128852705799396
 10
293.0
 20
10.0
  0
LWPOLYLINE
  5
D6
330
17
100
AcDbEntity
  8
RIGHT
100
AcDbPolyline
 90
2
 70
0
 10
281.0
 20
151.0
 10
281.0
 20
157.0
  0
LWPOLYLINE
  5
D7
330
17
100
AcDbEntity
  8
RIGHT
100
AcDbPolyline
 90
2
 70
0
 10
281.0
 20
157.0
 10
305.0
 20
157.0
  0
LWPOLYLINE
  5
D8
330
17
100
AcDbEntity
  8
RIGHT
100
AcDbPolyline
 90
2
 70
0
 10
305.0
 20
151.0
 10
305.0
 20
157.0
  0
LWPOLYLINE
  5
D9
330
17
100
AcDbEntity
  8
RIGHT
100
AcDbPolyline
 90
2
 70
0
 10
281.0
 20
151.0
 10
305.0
 20
151.0
  0
LWPOLYLINE
  5
DA
330
17
100
AcDbEntity
  8
RIGHT
100
AcDbPolyline
 90
2
 70
0
 10
281.0
 20
151.0
 10
281.0
 20
157.0
  0
LWPOLYLINE
  5
DB
330
17
100
AcDbEntity
  8
RIGHT
100
AcDbPolyline
 90
2
 70
0
 10
281.0
 20
157.0
 10
305.0
 20
157.0
  0
LWPOLYLINE
  5
DC
330
17
100
AcDbEntity
  8
RIGHT
100
AcDbPolyline
 90
2
 70
0
 10
305.0
 20
151.0
 10
305.0
 20
157.0
  0
LWPOLYLINE
  5
DD
330
17
100
AcDbEntity
  8
RIGHT
100
AcDbPolyline
 90
2
 70
0
 10
281.0
 20
151.0
 10
305.0
 20
151.0
  0
LWPOLYLINE
  5
DE
330
17
100
AcDbEntity
  8
RIGHT
100
AcDbPolyline
 90
2
 70
0
 10
275.5
 20
159.0
 10
275.5
 20
189.0
  0
LWPOLYLINE
  5
DF
330
17
100
AcDbEntity
  8
RIGHT
100
AcDbPolyline
 90
2
 70
0
 10
275.5
 20
189.0
 10
310.5
 20
189.0
  0
LWPOLYLINE
  5
E0
330
17
100
AcDbEntity
  8
RIGHT
100
AcDbPolyline
 90
2
 70
0
 10
310.5
 20
159.0
 10
310.5
 20
189.0
  0
LWPOLYLINE
  5
E1
330
17
100
AcDbEntity
  8
RIGHT
100
AcDbPolyline
 90
2
 70
0
 10
275.5
 20
159.0
 10
310.5
 20
159.0
  0
LWPOLYLINE
  5
E2
330
17
100
AcDbEntity
  8
RIGHT
100
AcDbPolyline
 90
2
 70
0
 10
275.5
 20
159.0
 10
275.5
 20
189.0
  0
LWPOLYLINE
  5
E3
330
17
100
AcDbEntity
  8
RIGHT
100
AcDbPolyline
 90
2
 70
0
 10
275.5
 20
189.0
 10
310.5
 20
189.0
  0
LWPOLYLINE
  5
E4
330
17
100
AcDbEntity
  8
RIGHT
100
AcDbPolyline
 90
2
 70
0
 10
310.5
 20
159.0
 10
310.5
 20
189.0
  0
LWPOLYLINE
  5
E5
330
17
100
AcDbEntity
  8
RIGHT
100
AcDbPolyline
 90
2
 70
0
 10
275.5
 20
159.0
 10
310.5
 20
159.0
  0
LWPOLYLINE
  5
E6
330
17
100
AcDbEntity
  8
RIGHT
100
AcDbPolyline
 90
16
 70
0
 10
293.0
 20
138.0
 10
295.4404198584548
 20
138.51872725414438
 10
297.45886895286435
 20
139.98521636184685
 10
298.7063390977709
 20
142.1458980337503
 10
298.9671313722096
 20
144.62717077960593
 10
298.19615242270663
 20
147.0
 10
296.52671151375483
 20
148.8541019662497
 10
294.2474701449066
 20
149.86888560440283
 10
291.7525298550934
 20
149.86888560440283
 10
289.47328848624517
 20
148.8541019662497
 10
287.80384757729337
 20
147.0
 10
287.0328686277904
 20
144.62717077960593
 10
287.2936609022291
 20
142.1458980337503
 10
288.54113104713565
 20
139.98521636184685
 10
290.5595801415452
 20
138.51872725414438
 10
293.0
 20
138.0
  0
LWPOLYLINE
  5
E7
330
17
100
AcDbEntity
  8
RIGHT
100
AcDbPolyline
 90
16
 70
0
 10
293.0
 20
138.0
 10
295.4404198584548
 20
138.51872725414438
 10
297.45886895286435
 20
139.98521636184685
 10
298.7063390977709
 20
142.1458980337503
 10
298.9671313722096
 20
144.62717077960593
 10
298.19615242270663
 20
147.0
 10
296.52671151375483
 20
148.8541019662497
 10
294.2474701449066
 20
149.86888560440283
 10
291.7525298550934
 20
149.86888560440283
 10
289.47328848624517
 20
148.8541019662497
 10
287.80384757729337
 20
147.0
 10
287.0328686277904
 20
144.62717077960593
 10
287.2936609022291
 20
142.1458980337503
 10
288.54113104713565
 20
139.98521636184685
 10
290.5595801415452
 20
138.51872725414438
 10
293.0
 20
138.0
  0
LWPOLYLINE
  5
E8
330
17
100
AcDbEntity
  8
RIGHT
100
AcDbPolyline
 90
2
 70
0
 10
293.0
 20
140.0
 10
293.0
 20
148.0
  0
LWPOLYLINE
  5
E9
330
17
100
AcDbEntity
  8
RIGHT
100
AcDbPolyline
 90
2
 70
0
 10
293.0
 20
148.0
 10
363.0
 20
148.0
  0
LWPOLYLINE
  5
EA
330
17
100
AcDbEntity
  8
RIGHT
100
AcDbPolyline
 90
2
 70
0
 10
293.0
 20
140.0
 10
363.0
 20
140.0
  0
LWPOLYLINE
  5
EB
330
17
100
AcDbEntity
  8
RIGHT
100
AcDbPolyline
 90
2
 70
0
 10
363.0
 20
140.0
 10
363.0
 20
148.0
  0
LWPOLYLINE
  5
EC
330
17
100
AcDbEntity
  8
RIGHT
100
AcDbPolyline
 90
16
 70
0
 10
298.0
 20
141.25
 10
296.8814742315416
 20
141.48774999148284
 10
295.9563517299372
 20
142.15989083251313
 10
295.3845945801883
 20
143.1502032654689
 10
295.26506478773723
 20
144.28745327398605
 10
295.61843013959276
 20
145.375
 10
296.3835905561957
 20
146.2247967345311
 10
297.4282428502512
 20
146.68990590201795
 10
298.5717571497488
 20
146.68990590201795
 10
299.6164094438043
 20
146.2247967345311
 10
300.38156986040724
 20
145.375
 10
300.73493521226277
 20
144.28745327398605
 10
300.6154054198117
 20
143.1502032654689
 10
300.0436482700628
 20
142.15989083251313
 10
299.1185257684584
 20
141.48774999148284
 10
298.0
 20
141.25
  0
LWPOLYLINE
  5
ED
330
17
100
AcDbEntity
  8
RIGHT
100
AcDbPolyline
 90
2
 70
0
 10
293.0
 20
140.0
 10
293.0
 20
148.0
  0
LWPOLYLINE
  5
EE
330
17
100
AcDbEntity
  8
RIGHT
100
AcDbPolyline
 90
2
 70
0
 10
293.0
 20
148.0
 10
363.0
 20
148.0
  0
LWPOLYLINE
  5
EF
330
17
100
AcDbEntity
  8
RIGHT
100
AcDbPolyline
 90
2
 70
0
 10
293.0
 20
140.0
 10
363.0
 20
140.0
  0
LWPOLYLINE
  5
F0
330
17
100
AcDbEntity
  8
RIGHT
100
AcDbPolyline
 90
2
 70
0
 10
363.0
 20
140.0
 10
363.0
 20
148.0
  0
LWPOLYLINE
  5
F1
330
17
100
AcDbEntity
  8
RIGHT
100
AcDbPolyline
 90
16
 70
0
 10
298.0
 20
141.25
 10
296.8814742315416
 20
141.48774999148284
 10
295.9563517299372
 20
142.15989083251313
 10
295.3845945801883
 20
143.1502032654689
 10
295.26506478773723
 20
144.28745327398605
 10
295.61843013959276
 20
145.375
 10
296.3835905561957
 20
146.2247967345311
 10
297.4282428502512
 20
146.68990590201795
 10
298.5717571497488
 20
146.68990590201795
 10
299.6164094438043
 20
146.2247967345311
 10
300.38156986040724
 20
145.375
 10
300.73493521226277
 20
144.28745327398605
 10
300.6154054198117
 20
143.1502032654689
 10
300.0436482700628
 20
142.15989083251313
 10
299.1185257684584
 20
141.48774999148284
 10
298.0
 20
141.25
  0
LWPOLYLINE
  5
F2
330
17
100
AcDbEntity
  8
RIGHT
100
AcDbPolyline
 90
2
 70
0
 10
363.0
 20
110.0
 10
363.0
 20
144.0
  0
LWPOLYLINE
  5
F3
330
17
100
AcDbEntity
  8
RIGHT
100
AcDbPolyline
 90
2
 70
0
 10
363.0
 20
144.0
 10
368.0
 20
144.0
  0
LWPOLYLINE
  5
F4
330
17
100
AcDbEntity
  8
RIGHT
100
AcDbPolyline
 90
2
 70
0
 10
368.0
 20
110.0
 10
368.0
 20
144.0
  0
LWPOLYLINE
  5
F5
330
17
100
AcDbEntity
  8
RIGHT
100
AcDbPolyline
 90
2
 70
0
 10
363.0
 20
110.0
 10
368.0
 20
110.0
  0
LWPOLYLINE
  5
F6
330
17
100
AcDbEntity
  8
RIGHT
100
AcDbPolyline
 90
2
 70
0
 10
363.0
 20
110.0
 10
363.0
 20
144.0
  0
LWPOLYLINE
  5
F7
330
17
100
AcDbEntity
  8
RIGHT
100
AcDbPolyline
 90
2
 70
0
 10
363.0
 20
144.0
 10
368.0
 20
144.0
  0
LWPOLYLINE
  5
F8
330
17
100
AcDbEntity
  8
RIGHT
100
AcDbPolyline
 90
2
 70
0
 10
368.0
 20
110.0
 10
368.0
 20
144.0
  0
LWPOLYLINE
  5
F9
330
17
100
AcDbEntity
  8
RIGHT
100
AcDbPolyline
 90
2
 70
0
 10
363.0
 20
110.0
 10
368.0
 20
110.0
  0
DIMENSION
  5
FA
330
17
100
AcDbEntity
  8
DIMENSIONS
100
AcDbDimension
280
0
  2
*D5
  3
Standard
 10
219.0
 20
-35.0
 30
0.0
 11
293.5
 21
-35.0
 31
0.0
 70
32
 71
5
  1
<>
100
AcDbAlignedDimension
 13
219.0
 23
0.0
 33
0.0
 14
368.0
 24
0.0
 34
0.0
 50
0.0
100
AcDbRotatedDimension
1001
ACAD
1000
DSTYLE
1002
{
1070
140
1040
2.5
1070
41
1040
2.5
1070
176
1070
7
1070
177
1070
7
1070
178
1070
7
1070
271
1070
2
1002
}
  0
DIMENSION
  5
10A
330
17
100
AcDbEntity
  8
DIMENSIONS
100
AcDbDimension
280
0
  2
*D6
  3
Standard
 10
184.0
 20
0.0
 30
0.0
 11
184.0
 21
94.5
 31
0.0
 70
32
 71
5
  1
<>
100
AcDbAlignedDimension
 13
219.0
 23
0.0
 33
0.0
 14
219.0
 24
189.0
 34
0.0
 50
90.0
100
AcDbRotatedDimension
1001
ACAD
1000
DSTYLE
1002
{
1070
140
1040
2.5
1070
41
1040
2.5
1070
176
1070
7
1070
177
1070
7
1070
178
1070
7
1070
271
1070
2
1002
}
  0
TEXT
  5
11A
330
17
100
AcDbEntity
  8
NOTES
100
AcDbText
 10
219.0
 20
209.0
 30
0.0
 40
4.0
  1
RIGHT
100
AcDbText
  0
TEXT
  5
11B
330
17
100
AcDbEntity
  8
NOTES
100
AcDbText
 10
0.0
 20
-439.0
 30
0.0
 40
4.0
  1
Datum: right-handed assembly-local X/Y/Z; plan XY, front XZ, right YZ. Overall dimensions derive from exact BRep.
100
AcDbText
  0
TEXT
  5
11C
330
17
100
AcDbEntity
  8
NOTES
100
AcDbText
 10
0.0
 20
-448.0
 30
0.0
 40
4.0
  1
Curved drawing edges are sampled; wireframe includes hidden/back edges. STEP is the geometry authority; DXF units mm.
100
AcDbText
  0
TEXT
  5
11D
330
17
100
AcDbEntity
  8
NOTES
100
AcDbText
 10
0.0
 20
-457.0
 30
0.0
 40
4.0
  1
Source-tagged Pi features and battery/panel/converter/MPPT overall sizes are verified references; other geometry is provisional.
100
AcDbText
  0
TEXT
  5
11E
330
17
100
AcDbEntity
  8
NOTES
100
AcDbText
 10
0.0
 20
-466.0
 30
0.0
 40
4.0
  1
Default machining allowance +/-0.30 mm; clamp bore +/-0.20 mm; envelope dia +/-0.50 mm: assumptions, not release tolerances.
100
AcDbText
  0
TEXT
  5
11F
330
17
100
AcDbEntity
  8
NOTES
100
AcDbText
 10
0.0
 20
-475.0
 30
0.0
 40
4.0
  1
Metal parts: deburr/passivate or isolate/anodize per material record; fastener torque, coating, corrosion and loads remain open.
100
AcDbText
  0
TEXT
  5
120
330
17
100
AcDbEntity
  8
NOTES
100
AcDbText
 10
0.0
 20
-484.0
 30
0.0
 40
4.0
  1
No pressure containment, rating, calibration, safe working load or fabrication release. See manifest.json part/BOM/feature notes.
100
AcDbText
  0
ENDSEC
  0
SECTION
  2
OBJECTS
  0
DICTIONARY
  5
A
330
0
100
AcDbDictionary
281
1
  3
ACAD_COLOR
350
B
  3
ACAD_GROUP
350
C
  3
ACAD_LAYOUT
350
D
  3
ACAD_MATERIAL
350
E
  3
ACAD_MLEADERSTYLE
350
F
  3
ACAD_MLINESTYLE
350
10
  3
ACAD_PLOTSETTINGS
350
11
  3
ACAD_PLOTSTYLENAME
350
12
  3
ACAD_SCALELIST
350
14
  3
ACAD_TABLESTYLE
350
15
  3
ACAD_VISUALSTYLE
350
16
  3
EZDXF_META
350
2D
  0
DICTIONARY
  5
B
330
A
100
AcDbDictionary
281
1
  0
DICTIONARY
  5
C
330
A
100
AcDbDictionary
281
1
  0
DICTIONARY
  5
D
330
A
100
AcDbDictionary
281
1
  3
Model
350
1A
  3
Layout1
350
1E
  0
DICTIONARY
  5
E
330
A
100
AcDbDictionary
281
1
  3
ByBlock
350
1F
  3
ByLayer
350
20
  3
Global
350
21
  0
DICTIONARY
  5
F
330
A
100
AcDbDictionary
281
1
  3
Standard
350
2C
  0
DICTIONARY
  5
10
330
A
100
AcDbDictionary
281
1
  3
Standard
350
22
  0
DICTIONARY
  5
11
330
A
100
AcDbDictionary
281
1
  0
ACDBDICTIONARYWDFLT
  5
12
330
A
100
AcDbDictionary
281
1
  3
Normal
350
13
100
AcDbDictionaryWithDefault
340
13
  0
ACDBPLACEHOLDER
  5
13
330
12
  0
DICTIONARY
  5
14
330
A
100
AcDbDictionary
281
1
  0
DICTIONARY
  5
15
330
A
100
AcDbDictionary
281
1
  0
DICTIONARY
  5
16
330
A
100
AcDbDictionary
281
1
  0
LAYOUT
  5
1A
330
D
100
AcDbPlotSettings
  1

  4
A3
  6

 40
7.5
 41
20.0
 42
7.5
 43
20.0
 44
420.0
 45
297.0
 46
0.0
 47
0.0
 48
0.0
 49
0.0
140
0.0
141
0.0
142
1.0
143
1.0
 70
1024
 72
1
 73
0
 74
5
  7

 75
16
 76
0
 77
2
 78
300
147
1.0
148
0.0
149
0.0
100
AcDbLayout
  1
Model
 70
1
 71
0
 10
0.0
 20
0.0
 11
420.0
 21
297.0
 12
0.0
 22
0.0
 32
0.0
 14
1e+20
 24
1e+20
 34
1e+20
 15
-1e+20
 25
-1e+20
 35
-1e+20
146
0.0
 13
0.0
 23
0.0
 33
0.0
 16
1.0
 26
0.0
 36
0.0
 17
0.0
 27
1.0
 37
0.0
 76
1
330
17
  0
LAYOUT
  5
1E
330
D
100
AcDbPlotSettings
  1

  4
A3
  6

 40
7.5
 41
20.0
 42
7.5
 43
20.0
 44
420.0
 45
297.0
 46
0.0
 47
0.0
 48
0.0
 49
0.0
140
0.0
141
0.0
142
1.0
143
1.0
 70
0
 72
1
 73
0
 74
5
  7

 75
16
 76
0
 77
2
 78
300
147
1.0
148
0.0
149
0.0
100
AcDbLayout
  1
Layout1
 70
1
 71
1
 10
0.0
 20
0.0
 11
420.0
 21
297.0
 12
0.0
 22
0.0
 32
0.0
 14
1e+20
 24
1e+20
 34
1e+20
 15
-1e+20
 25
-1e+20
 35
-1e+20
146
0.0
 13
0.0
 23
0.0
 33
0.0
 16
1.0
 26
0.0
 36
0.0
 17
0.0
 27
1.0
 37
0.0
 76
1
330
1B
  0
MATERIAL
  5
1F
102
{ACAD_REACTORS
330
E
102
}
330
E
100
AcDbMaterial
  1
ByBlock
  2

 70
0
 40
1.0
 71
1
 41
1.0
 91
-1023410177
 42
1.0
 72
1
  3

 73
1
 74
1
 75
1
 44
0.5
 73
0
 45
1.0
 46
1.0
 77
1
  4

 78
1
 79
1
170
1
 48
1.0
171
1
  6

172
1
173
1
174
1
140
1.0
141
1.0
175
1
  7

176
1
177
1
178
1
143
1.0
179
1
  8

270
1
271
1
272
1
145
1.0
146
1.0
273
1
  9

274
1
275
1
276
1
 42
1.0
 72
1
  3

 73
1
 74
1
 75
1
 94
63
  0
MATERIAL
  5
20
102
{ACAD_REACTORS
330
E
102
}
330
E
100
AcDbMaterial
  1
ByLayer
  2

 70
0
 40
1.0
 71
1
 41
1.0
 91
-1023410177
 42
1.0
 72
1
  3

 73
1
 74
1
 75
1
 44
0.5
 73
0
 45
1.0
 46
1.0
 77
1
  4

 78
1
 79
1
170
1
 48
1.0
171
1
  6

172
1
173
1
174
1
140
1.0
141
1.0
175
1
  7

176
1
177
1
178
1
143
1.0
179
1
  8

270
1
271
1
272
1
145
1.0
146
1.0
273
1
  9

274
1
275
1
276
1
 42
1.0
 72
1
  3

 73
1
 74
1
 75
1
 94
63
  0
MATERIAL
  5
21
102
{ACAD_REACTORS
330
E
102
}
330
E
100
AcDbMaterial
  1
Global
  2

 70
0
 40
1.0
 71
1
 41
1.0
 91
-1023410177
 42
1.0
 72
1
  3

 73
1
 74
1
 75
1
 44
0.5
 73
0
 45
1.0
 46
1.0
 77
1
  4

 78
1
 79
1
170
1
 48
1.0
171
1
  6

172
1
173
1
174
1
140
1.0
141
1.0
175
1
  7

176
1
177
1
178
1
143
1.0
179
1
  8

270
1
271
1
272
1
145
1.0
146
1.0
273
1
  9

274
1
275
1
276
1
 42
1.0
 72
1
  3

 73
1
 74
1
 75
1
 94
63
  0
MLINESTYLE
  5
22
102
{ACAD_REACTORS
330
10
102
}
330
10
100
AcDbMlineStyle
  2
Standard
 70
0
  3

 62
256
 51
90.0
 52
90.0
 71
2
 49
0.5
 62
256
  6
BYLAYER
 49
-0.5
 62
256
  6
BYLAYER
  0
MLEADERSTYLE
  5
2C
102
{ACAD_REACTORS
330
F
102
}
330
F
100
AcDbMLeaderStyle
179
2
170
2
171
1
172
0
 90
2
 40
0.0
 41
0.0
173
1
 91
-1056964608
 92
-2
290
1
 42
2.0
291
1
 43
8.0
  3
Standard
 44
4.0
300

342
29
174
1
175
1
176
0
178
1
 93
-1056964608
 45
4.0
292
0
297
0
 46
4.0
 94
-1056964608
 47
1.0
 49
1.0
140
1.0
294
1
141
0.0
177
0
142
1.0
295
0
296
0
143
3.75
271
0
272
9
273
9
  0
DICTIONARY
  5
2D
330
A
100
AcDbDictionary
280
1
281
1
  3
CREATED_BY_EZDXF
350
2E
  3
WRITTEN_BY_EZDXF
350
123
  0
DICTIONARYVAR
  5
2E
330
2D
100
DictionaryVariables
280
0
  1
1.4.3 @ 2026-09-27T12:03:30.058190+00:00
  0
DICTIONARYVAR
  5
123
330
2D
100
DictionaryVariables
280
0
  1
1.4.3 @ 2026-09-27T12:03:30.076525+00:00
  0
ENDSEC
  0
EOF
