  0
SECTION
  2
HEADER
  9
$ACADVER
  1
AC1032
  9
$ACADMAINTVER
 90
4
  9
$DWGCODEPAGE
  3
ANSI_1252
  9
$LASTSAVEDBY
  1
ezdxf
  9
$REQUIREDVERSIONS
160
0
  9
$INSBASE
 10
0.0
 20
0.0
 30
0.0
  9
$EXTMIN
 10
1e+20
 20
1e+20
 30
1e+20
  9
$EXTMAX
 10
-1e+20
 20
-1e+20
 30
-1e+20
  9
$LIMMIN
 10
0.0
 20
0.0
  9
$LIMMAX
 10
420.0
 20
297.0
  9
$ORTHOMODE
 70
0
  9
$REGENMODE
 70
1
  9
$FILLMODE
 70
1
  9
$QTEXTMODE
 70
0
  9
$MIRRTEXT
 70
1
  9
$LTSCALE
 40
1.0
  9
$ATTMODE
 70
1
  9
$TEXTSIZE
 40
2.5
  9
$TRACEWID
 40
1.0
  9
$TEXTSTYLE
  7
Standard
  9
$CLAYER
  8
0
  9
$CELTYPE
  6
ByLayer
  9
$CECOLOR
 62
256
  9
$CELTSCALE
 40
1.0
  9
$DISPSILH
 70
0
  9
$DIMSCALE
 40
1.0
  9
$DIMASZ
 40
2.5
  9
$DIMEXO
 40
0.625
  9
$DIMDLI
 40
3.75
  9
$DIMRND
 40
0.0
  9
$DIMDLE
 40
0.0
  9
$DIMEXE
 40
1.25
  9
$DIMTP
 40
0.0
  9
$DIMTM
 40
0.0
  9
$DIMTXT
 40
2.5
  9
$DIMCEN
 40
2.5
  9
$DIMTSZ
 40
0.0
  9
$DIMTOL
 70
0
  9
$DIMLIM
 70
0
  9
$DIMTIH
 70
0
  9
$DIMTOH
 70
0
  9
$DIMSE1
 70
0
  9
$DIMSE2
 70
0
  9
$DIMTAD
 70
1
  9
$DIMZIN
 70
8
  9
$DIMBLK
  1

  9
$DIMASO
 70
1
  9
$DIMSHO
 70
1
  9
$DIMPOST
  1

  9
$DIMAPOST
  1

  9
$DIMALT
 70
0
  9
$DIMALTD
 70
3
  9
$DIMALTF
 40
0.03937007874
  9
$DIMLFAC
 40
1.0
  9
$DIMTOFL
 70
1
  9
$DIMTVP
 40
0.0
  9
$DIMTIX
 70
0
  9
$DIMSOXD
 70
0
  9
$DIMSAH
 70
0
  9
$DIMBLK1
  1

  9
$DIMBLK2
  1

  9
$DIMSTYLE
  2
ISO-25
  9
$DIMCLRD
 70
0
  9
$DIMCLRE
 70
0
  9
$DIMCLRT
 70
0
  9
$DIMTFAC
 40
1.0
  9
$DIMGAP
 40
0.625
  9
$DIMJUST
 70
0
  9
$DIMSD1
 70
0
  9
$DIMSD2
 70
0
  9
$DIMTOLJ
 70
0
  9
$DIMTZIN
 70
8
  9
$DIMALTZ
 70
0
  9
$DIMALTTZ
 70
0
  9
$DIMUPT
 70
0
  9
$DIMDEC
 70
2
  9
$DIMTDEC
 70
2
  9
$DIMALTU
 70
2
  9
$DIMALTTD
 70
3
  9
$DIMTXSTY
  7
Standard
  9
$DIMAUNIT
 70
0
  9
$DIMADEC
 70
0
  9
$DIMALTRND
 40
0.0
  9
$DIMAZIN
 70
0
  9
$DIMDSEP
 70
44
  9
$DIMATFIT
 70
3
  9
$DIMFRAC
 70
0
  9
$DIMLDRBLK
  1

  9
$DIMLUNIT
 70
2
  9
$DIMLWD
 70
-2
  9
$DIMLWE
 70
-2
  9
$DIMTMOVE
 70
0
  9
$DIMFXL
 40
1.0
  9
$DIMFXLON
 70
0
  9
$DIMJOGANG
 40
0.785398163397
  9
$DIMTFILL
 70
0
  9
$DIMTFILLCLR
 70
0
  9
$DIMARCSYM
 70
0
  9
$DIMLTYPE
  6

  9
$DIMLTEX1
  6

  9
$DIMLTEX2
  6

  9
$DIMTXTDIRECTION
 70
0
  9
$LUNITS
 70
2
  9
$LUPREC
 70
4
  9
$SKETCHINC
 40
1.0
  9
$FILLETRAD
 40
10.0
  9
$AUNITS
 70
0
  9
$AUPREC
 70
2
  9
$MENU
  1
.
  9
$ELEVATION
 40
0.0
  9
$PELEVATION
 40
0.0
  9
$THICKNESS
 40
0.0
  9
$LIMCHECK
 70
0
  9
$CHAMFERA
 40
0.0
  9
$CHAMFERB
 40
0.0
  9
$CHAMFERC
 40
0.0
  9
$CHAMFERD
 40
0.0
  9
$SKPOLY
 70
0
  9
$TDCREATE
 40
2461311.6022453704
  9
$TDUCREATE
 40
2458532.153996898
  9
$TDUPDATE
 40
2461311.6022453704
  9
$TDUUPDATE
 40
2458532.1544311
  9
$TDINDWG
 40
0.0
  9
$TDUSRTIMER
 40
0.0
  9
$USRTIMER
 70
1
  9
$ANGBASE
 50
0.0
  9
$ANGDIR
 70
0
  9
$PDMODE
 70
0
  9
$PDSIZE
 40
0.0
  9
$PLINEWID
 40
0.0
  9
$SPLFRAME
 70
0
  9
$SPLINETYPE
 70
6
  9
$SPLINESEGS
 70
8
  9
$HANDSEED
  5
D7
  9
$SURFTAB1
 70
6
  9
$SURFTAB2
 70
6
  9
$SURFTYPE
 70
6
  9
$SURFU
 70
6
  9
$SURFV
 70
6
  9
$UCSBASE
  2

  9
$UCSNAME
  2

  9
$UCSORG
 10
0.0
 20
0.0
 30
0.0
  9
$UCSXDIR
 10
1.0
 20
0.0
 30
0.0
  9
$UCSYDIR
 10
0.0
 20
1.0
 30
0.0
  9
$UCSORTHOREF
  2

  9
$UCSORTHOVIEW
 70
0
  9
$UCSORGTOP
 10
0.0
 20
0.0
 30
0.0
  9
$UCSORGBOTTOM
 10
0.0
 20
0.0
 30
0.0
  9
$UCSORGLEFT
 10
0.0
 20
0.0
 30
0.0
  9
$UCSORGRIGHT
 10
0.0
 20
0.0
 30
0.0
  9
$UCSORGFRONT
 10
0.0
 20
0.0
 30
0.0
  9
$UCSORGBACK
 10
0.0
 20
0.0
 30
0.0
  9
$PUCSBASE
  2

  9
$PUCSNAME
  2

  9
$PUCSORG
 10
0.0
 20
0.0
 30
0.0
  9
$PUCSXDIR
 10
1.0
 20
0.0
 30
0.0
  9
$PUCSYDIR
 10
0.0
 20
1.0
 30
0.0
  9
$PUCSORTHOREF
  2

  9
$PUCSORTHOVIEW
 70
0
  9
$PUCSORGTOP
 10
0.0
 20
0.0
 30
0.0
  9
$PUCSORGBOTTOM
 10
0.0
 20
0.0
 30
0.0
  9
$PUCSORGLEFT
 10
0.0
 20
0.0
 30
0.0
  9
$PUCSORGRIGHT
 10
0.0
 20
0.0
 30
0.0
  9
$PUCSORGFRONT
 10
0.0
 20
0.0
 30
0.0
  9
$PUCSORGBACK
 10
0.0
 20
0.0
 30
0.0
  9
$USERI1
 70
0
  9
$USERI2
 70
0
  9
$USERI3
 70
0
  9
$USERI4
 70
0
  9
$USERI5
 70
0
  9
$USERR1
 40
0.0
  9
$USERR2
 40
0.0
  9
$USERR3
 40
0.0
  9
$USERR4
 40
0.0
  9
$USERR5
 40
0.0
  9
$WORLDVIEW
 70
1
  9
$SHADEDGE
 70
3
  9
$SHADEDIF
 70
70
  9
$TILEMODE
 70
1
  9
$MAXACTVP
 70
64
  9
$PINSBASE
 10
0.0
 20
0.0
 30
0.0
  9
$PLIMCHECK
 70
0
  9
$PEXTMIN
 10
1e+20
 20
1e+20
 30
1e+20
  9
$PEXTMAX
 10
-1e+20
 20
-1e+20
 30
-1e+20
  9
$PLIMMIN
 10
0.0
 20
0.0
  9
$PLIMMAX
 10
420.0
 20
297.0
  9
$UNITMODE
 70
0
  9
$VISRETAIN
 70
1
  9
$PLINEGEN
 70
0
  9
$PSLTSCALE
 70
1
  9
$TREEDEPTH
 70
3020
  9
$CMLSTYLE
  2
Standard
  9
$CMLJUST
 70
0
  9
$CMLSCALE
 40
20.0
  9
$PROXYGRAPHICS
 70
1
  9
$MEASUREMENT
 70
1
  9
$CELWEIGHT
370
-1
  9
$ENDCAPS
280
0
  9
$JOINSTYLE
280
0
  9
$LWDISPLAY
290
0
  9
$INSUNITS
 70
4
  9
$HYPERLINKBASE
  1

  9
$STYLESHEET
  1

  9
$XEDIT
290
1
  9
$CEPSNTYPE
380
0
  9
$PSTYLEMODE
290
1
  9
$FINGERPRINTGUID
  2
{759A7760-5E86-47DC-BD72-6C8B307FAD15}
  9
$VERSIONGUID
  2
{EEF34052-5959-490E-BFED-2E629F0FCD80}
  9
$EXTNAMES
290
1
  9
$PSVPSCALE
 40
0.0
  9
$OLESTARTUP
290
0
  9
$SORTENTS
280
127
  9
$INDEXCTL
280
0
  9
$HIDETEXT
280
1
  9
$XCLIPFRAME
280
1
  9
$HALOGAP
280
0
  9
$OBSCOLOR
 70
257
  9
$OBSLTYPE
280
0
  9
$INTERSECTIONDISPLAY
280
0
  9
$INTERSECTIONCOLOR
 70
257
  9
$DIMASSOC
280
2
  9
$PROJECTNAME
  1

  9
$CAMERADISPLAY
290
0
  9
$LENSLENGTH
 40
50.0
  9
$CAMERAHEIGHT
 40
0.0
  9
$STEPSPERSEC
 40
24.0
  9
$STEPSIZE
 40
100.0
  9
$3DDWFPREC
 40
2.0
  9
$PSOLWIDTH
 40
0.005
  9
$PSOLHEIGHT
 40
0.08
  9
$LOFTANG1
 40
1.570796326795
  9
$LOFTANG2
 40
1.570796326795
  9
$LOFTMAG1
 40
0.0
  9
$LOFTMAG2
 40
0.0
  9
$LOFTPARAM
 70
7
  9
$LOFTNORMALS
280
1
  9
$LATITUDE
 40
37.795
  9
$LONGITUDE
 40
-122.394
  9
$NORTHDIRECTION
 40
0.0
  9
$TIMEZONE
 70
-8000
  9
$LIGHTGLYPHDISPLAY
280
1
  9
$TILEMODELIGHTSYNCH
280
1
  9
$CMATERIAL
347
20
  9
$SOLIDHIST
280
0
  9
$SHOWHIST
280
1
  9
$DWFFRAME
280
2
  9
$DGNFRAME
280
2
  9
$REALWORLDSCALE
290
1
  9
$INTERFERECOLOR
 62
256
  9
$CSHADOW
280
0
  9
$SHADOWPLANELOCATION
 40
0.0
  0
ENDSEC
  0
SECTION
  2
CLASSES
  0
CLASS
  1
ACDBDICTIONARYWDFLT
  2
AcDbDictionaryWithDefault
  3
ObjectDBX Classes
 90
0
 91
0
280
0
281
0
  0
CLASS
  1
SUN
  2
AcDbSun
  3
SCENEOE
 90
1153
 91
0
280
0
281
0
  0
CLASS
  1
VISUALSTYLE
  2
AcDbVisualStyle
  3
ObjectDBX Classes
 90
4095
 91
0
280
0
281
0
  0
CLASS
  1
MATERIAL
  2
AcDbMaterial
  3
ObjectDBX Classes
 90
1153
 91
0
280
0
281
0
  0
CLASS
  1
SCALE
  2
AcDbScale
  3
ObjectDBX Classes
 90
1153
 91
0
280
0
281
0
  0
CLASS
  1
TABLESTYLE
  2
AcDbTableStyle
  3
ObjectDBX Classes
 90
4095
 91
0
280
0
281
0
  0
CLASS
  1
MLEADERSTYLE
  2
AcDbMLeaderStyle
  3
ACDB_MLEADERSTYLE_CLASS
 90
4095
 91
0
280
0
281
0
  0
CLASS
  1
DICTIONARYVAR
  2
AcDbDictionaryVar
  3
ObjectDBX Classes
 90
0
 91
0
280
0
281
0
  0
CLASS
  1
CELLSTYLEMAP
  2
AcDbCellStyleMap
  3
ObjectDBX Classes
 90
1152
 91
0
280
0
281
0
  0
CLASS
  1
MENTALRAYRENDERSETTINGS
  2
AcDbMentalRayRenderSettings
  3
SCENEOE
 90
1024
 91
0
280
0
281
0
  0
CLASS
  1
ACDBDETAILVIEWSTYLE
  2
AcDbDetailViewStyle
  3
ObjectDBX Classes
 90
1025
 91
0
280
0
281
0
  0
CLASS
  1
ACDBSECTIONVIEWSTYLE
  2
AcDbSectionViewStyle
  3
ObjectDBX Classes
 90
1025
 91
0
280
0
281
0
  0
CLASS
  1
RASTERVARIABLES
  2
AcDbRasterVariables
  3
ISM
 90
0
 91
0
280
0
281
0
  0
CLASS
  1
LAYOUT
  2
AcDbLayout
  3
ObjectDBX Classes
 90
0
 91
0
280
0
281
0
  0
CLASS
  1
ACDBPLACEHOLDER
  2
AcDbPlaceHolder
  3
ObjectDBX Classes
 90
0
 91
0
280
0
281
0
  0
ENDSEC
  0
SECTION
  2
TABLES
  0
TABLE
  2
VPORT
  5
8
330
0
100
AcDbSymbolTable
 70
1
  0
VPORT
  5
23
330
8
100
AcDbSymbolTableRecord
100
AcDbViewportTableRecord
  2
*Active
 70
0
 10
0.0
 20
0.0
 11
1.0
 21
1.0
 12
0.0
 22
0.0
 13
0.0
 23
0.0
 14
0.5
 24
0.5
 15
0.5
 25
0.5
 16
0.0
 26
0.0
 36
1.0
 17
0.0
 27
0.0
 37
0.0
 40
1000.0
 41
1.34
 42
50.0
 43
0.0
 44
0.0
 50
0.0
 51
0.0
 71
0
 72
1000
 73
1
 74
3
 75
0
 76
0
 77
0
 78
0
281
0
 65
0
146
0.0
  0
ENDTAB
  0
TABLE
  2
LTYPE
  5
2
330
0
100
AcDbSymbolTable
 70
3
  0
LTYPE
  5
24
330
2
100
AcDbSymbolTableRecord
100
AcDbLinetypeTableRecord
  2
ByBlock
 70
0
  3

 72
65
 73
0
 40
0.0
  0
LTYPE
  5
25
330
2
100
AcDbSymbolTableRecord
100
AcDbLinetypeTableRecord
  2
ByLayer
 70
0
  3

 72
65
 73
0
 40
0.0
  0
LTYPE
  5
26
330
2
100
AcDbSymbolTableRecord
100
AcDbLinetypeTableRecord
  2
Continuous
 70
0
  3

 72
65
 73
0
 40
0.0
  0
ENDTAB
  0
TABLE
  2
LAYER
  5
1
330
0
100
AcDbSymbolTable
 70
7
  0
LAYER
  5
27
330
1
100
AcDbSymbolTableRecord
100
AcDbLayerTableRecord
  2
0
 70
0
 62
7
  6
Continuous
370
-3
390
13
347
21
  0
LAYER
  5
28
330
1
100
AcDbSymbolTableRecord
100
AcDbLayerTableRecord
  2
Defpoints
 70
0
 62
7
  6
Continuous
290
0
370
-3
390
13
347
21
  0
LAYER
  5
2F
330
1
100
AcDbSymbolTableRecord
100
AcDbLayerTableRecord
  2
XY_AFT
 70
0
 62
7
  6
Continuous
370
-3
390
13
347
21
  0
LAYER
  5
30
330
1
100
AcDbSymbolTableRecord
100
AcDbLayerTableRecord
  2
XZ_SIDE
 70
0
 62
7
  6
Continuous
370
-3
390
13
347
21
  0
LAYER
  5
31
330
1
100
AcDbSymbolTableRecord
100
AcDbLayerTableRecord
  2
YZ_SIDE
 70
0
 62
7
  6
Continuous
370
-3
390
13
347
21
  0
LAYER
  5
32
330
1
100
AcDbSymbolTableRecord
100
AcDbLayerTableRecord
  2
DIMENSIONS
 70
0
 62
7
  6
Continuous
370
-3
390
13
347
21
  0
LAYER
  5
33
330
1
100
AcDbSymbolTableRecord
100
AcDbLayerTableRecord
  2
NOTES
 70
0
 62
7
  6
Continuous
370
-3
390
13
347
21
  0
ENDTAB
  0
TABLE
  2
STYLE
  5
5
330
0
100
AcDbSymbolTable
 70
1
  0
STYLE
  5
29
330
5
100
AcDbSymbolTableRecord
100
AcDbTextStyleTableRecord
  2
Standard
 70
0
 40
0.0
 41
1.0
 50
0.0
 71
0
 42
2.5
  3
txt
  4

  0
ENDTAB
  0
TABLE
  2
VIEW
  5
7
330
0
100
AcDbSymbolTable
 70
0
  0
ENDTAB
  0
TABLE
  2
UCS
  5
6
330
0
100
AcDbSymbolTable
 70
0
  0
ENDTAB
  0
TABLE
  2
APPID
  5
3
330
0
100
AcDbSymbolTable
 70
3
  0
APPID
  5
2A
330
3
100
AcDbSymbolTableRecord
100
AcDbRegAppTableRecord
  2
ACAD
 70
0
  0
APPID
  5
D4
330
3
100
AcDbSymbolTableRecord
100
AcDbRegAppTableRecord
  2
HATCHBACKGROUNDCOLOR
 70
0
  0
APPID
  5
D5
330
3
100
AcDbSymbolTableRecord
100
AcDbRegAppTableRecord
  2
EZDXF
 70
0
  0
ENDTAB
  0
TABLE
  2
DIMSTYLE
  5
4
330
0
100
AcDbSymbolTable
 70
1
100
AcDbDimStyleTable
  0
DIMSTYLE
105
2B
330
4
100
AcDbSymbolTableRecord
100
AcDbDimStyleTableRecord
  2
Standard
 70
0
 40
1.0
 41
2.5
 42
0.625
 43
3.75
 44
1.25
 45
0.0
 46
0.0
 47
0.0
 48
0.0
 49
2.5
140
2.5
141
2.5
142
0.0
143
0.03937007874
144
1.0
145
0.0
146
1.0
147
0.625
148
0.0
 69
0
 70
0
 71
0
 72
0
 73
0
 74
0
 75
0
 76
0
 77
1
 78
8
 79
3
170
0
171
3
172
1
173
0
174
0
175
0
176
0
177
0
178
0
179
2
271
2
272
2
273
2
274
3
275
0
276
0
277
2
278
44
279
0
280
0
281
0
282
0
283
0
284
8
285
0
286
0
288
0
289
3
290
0
371
-2
372
-2
  0
ENDTAB
  0
TABLE
  2
BLOCK_RECORD
  5
9
330
0
100
AcDbSymbolTable
 70
9
  0
BLOCK_RECORD
  5
17
330
9
100
AcDbSymbolTableRecord
100
AcDbBlockTableRecord
  2
*Model_Space
340
1A
 70
0
280
1
281
0
  0
BLOCK_RECORD
  5
1B
330
9
100
AcDbSymbolTableRecord
100
AcDbBlockTableRecord
  2
*Paper_Space
340
1E
 70
0
280
1
281
0
  0
BLOCK_RECORD
  5
43
330
9
100
AcDbSymbolTableRecord
100
AcDbBlockTableRecord
  2
*D1
340
0
 70
0
280
1
281
0
  0
BLOCK_RECORD
  5
48
330
9
100
AcDbSymbolTableRecord
100
AcDbBlockTableRecord
  2
_CLOSEDFILLED
340
0
 70
0
280
1
281
0
  0
BLOCK_RECORD
  5
57
330
9
100
AcDbSymbolTableRecord
100
AcDbBlockTableRecord
  2
*D2
340
0
 70
0
280
1
281
0
  0
BLOCK_RECORD
  5
7C
330
9
100
AcDbSymbolTableRecord
100
AcDbBlockTableRecord
  2
*D3
340
0
 70
0
280
1
281
0
  0
BLOCK_RECORD
  5
8C
330
9
100
AcDbSymbolTableRecord
100
AcDbBlockTableRecord
  2
*D4
340
0
 70
0
280
1
281
0
  0
BLOCK_RECORD
  5
B0
330
9
100
AcDbSymbolTableRecord
100
AcDbBlockTableRecord
  2
*D5
340
0
 70
0
280
1
281
0
  0
BLOCK_RECORD
  5
C0
330
9
100
AcDbSymbolTableRecord
100
AcDbBlockTableRecord
  2
*D6
340
0
 70
0
280
1
281
0
  0
ENDTAB
  0
ENDSEC
  0
SECTION
  2
BLOCKS
  0
BLOCK
  5
18
330
17
100
AcDbEntity
  8
0
100
AcDbBlockBegin
  2
*Model_Space
 70
0
 10
0.0
 20
0.0
 30
0.0
  3
*Model_Space
  1

  0
ENDBLK
  5
19
330
17
100
AcDbEntity
  8
0
100
AcDbBlockEnd
  0
BLOCK
  5
1C
330
1B
100
AcDbEntity
  8
0
100
AcDbBlockBegin
  2
*Paper_Space
 70
0
 10
0.0
 20
0.0
 30
0.0
  3
*Paper_Space
  1

  0
ENDBLK
  5
1D
330
1B
100
AcDbEntity
  8
0
100
AcDbBlockEnd
  0
BLOCK
  5
44
330
43
100
AcDbEntity
  8
0
100
AcDbBlockBegin
  2
*D1
 70
1
 10
0.0
 20
0.0
 30
0.0
  3
*D1
  1

  0
LINE
  5
46
330
43
100
AcDbEntity
  8
0
100
AcDbLine
 10
0.0
 20
0.0
 30
0.0
 11
0.0
 21
-25.0
 31
0.0
  0
LINE
  5
47
330
43
100
AcDbEntity
  8
0
100
AcDbLine
 10
114.3
 20
0.0
 30
0.0
 11
114.3
 21
-25.0
 31
0.0
  0
INSERT
  5
4C
330
43
100
AcDbEntity
  8
DIMENSIONS
100
AcDbBlockReference
  2
_CLOSEDFILLED
 10
0.0
 20
-25.0
 30
0.0
 41
3.0
 42
3.0
 50
180.0
  0
INSERT
  5
4E
330
43
100
AcDbEntity
  8
DIMENSIONS
100
AcDbBlockReference
  2
_CLOSEDFILLED
 10
114.3
 20
-25.0
 30
0.0
 41
3.0
 42
3.0
  0
LINE
  5
50
330
43
100
AcDbEntity
  8
0
100
AcDbLine
 10
3.0
 20
-25.0
 30
0.0
 11
49.65
 21
-25.0
 31
0.0
  0
LINE
  5
51
330
43
100
AcDbEntity
  8
0
100
AcDbLine
 10
64.65
 20
-25.0
 30
0.0
 11
111.3
 21
-25.0
 31
0.0
  0
MTEXT
  5
52
330
43
100
AcDbEntity
  8
DIMENSIONS
100
AcDbMText
 10
57.15
 20
-25.0
 30
0.0
 40
3.0
 71
5
  1
114,3
  0
POINT
  5
53
330
43
100
AcDbEntity
  8
Defpoints
100
AcDbPoint
 10
0.0
 20
-25.0
 30
0.0
  0
POINT
  5
54
330
43
100
AcDbEntity
  8
Defpoints
100
AcDbPoint
 10
0.0
 20
0.0
 30
0.0
  0
POINT
  5
55
330
43
100
AcDbEntity
  8
Defpoints
100
AcDbPoint
 10
114.3
 20
0.0
 30
0.0
  0
ENDBLK
  5
45
330
43
100
AcDbEntity
  8
0
100
AcDbBlockEnd
  0
BLOCK
  5
49
330
48
100
AcDbEntity
  8
0
100
AcDbBlockBegin
  2
_CLOSEDFILLED
 70
0
 10
0.0
 20
0.0
 30
0.0
  3
_CLOSEDFILLED
  1

  0
SOLID
  5
4B
330
48
100
AcDbEntity
  8
0
  6
BYBLOCK
 62
0
100
AcDbTrace
 10
-1.0
 20
0.16439898372402537
 30
0.0
 11
0.0
 21
0.0
 31
0.0
 12
-1.0
 22
-0.16439898372402537
 32
0.0
 13
-1.0
 23
-0.16439898372402537
 33
0.0
  0
ENDBLK
  5
4A
330
48
100
AcDbEntity
  8
0
100
AcDbBlockEnd
  0
BLOCK
  5
58
330
57
100
AcDbEntity
  8
0
100
AcDbBlockBegin
  2
*D2
 70
1
 10
0.0
 20
0.0
 30
0.0
  3
*D2
  1

  0
LINE
  5
5A
330
57
100
AcDbEntity
  8
0
100
AcDbLine
 10
0.0
 20
0.0
 30
0.0
 11
-25.0
 21
0.0
 31
0.0
  0
LINE
  5
5B
330
57
100
AcDbEntity
  8
0
100
AcDbLine
 10
0.0
 20
114.3
 30
0.0
 11
-25.0
 21
114.3
 31
0.0
  0
INSERT
  5
5C
330
57
100
AcDbEntity
  8
DIMENSIONS
100
AcDbBlockReference
  2
_CLOSEDFILLED
 10
-25.0
 20
0.0
 30
0.0
 41
3.0
 42
3.0
 50
270.0
  0
INSERT
  5
5E
330
57
100
AcDbEntity
  8
DIMENSIONS
100
AcDbBlockReference
  2
_CLOSEDFILLED
 10
-25.0
 20
114.3
 30
0.0
 41
3.0
 42
3.0
 50
90.0
  0
LINE
  5
60
330
57
100
AcDbEntity
  8
0
100
AcDbLine
 10
-25.0
 20
3.0
 30
0.0
 11
-25.0
 21
49.65
 31
0.0
  0
LINE
  5
61
330
57
100
AcDbEntity
  8
0
100
AcDbLine
 10
-25.0
 20
64.65
 30
0.0
 11
-25.0
 21
111.3
 31
0.0
  0
MTEXT
  5
62
330
57
100
AcDbEntity
  8
DIMENSIONS
100
AcDbMText
 10
-25.0
 20
57.15
 30
0.0
 40
3.0
 71
5
  1
114,3
 50
90.0
  0
POINT
  5
63
330
57
100
AcDbEntity
  8
Defpoints
100
AcDbPoint
 10
-25.0
 20
0.0
 30
0.0
  0
POINT
  5
64
330
57
100
AcDbEntity
  8
Defpoints
100
AcDbPoint
 10
0.0
 20
0.0
 30
0.0
  0
POINT
  5
65
330
57
100
AcDbEntity
  8
Defpoints
100
AcDbPoint
 10
0.0
 20
114.3
 30
0.0
  0
ENDBLK
  5
59
330
57
100
AcDbEntity
  8
0
100
AcDbBlockEnd
  0
BLOCK
  5
7D
330
7C
100
AcDbEntity
  8
0
100
AcDbBlockBegin
  2
*D3
 70
1
 10
0.0
 20
0.0
 30
0.0
  3
*D3
  1

  0
LINE
  5
7F
330
7C
100
AcDbEntity
  8
0
100
AcDbLine
 10
0.0
 20
-224.3
 30
0.0
 11
0.0
 21
-249.3
 31
0.0
  0
LINE
  5
80
330
7C
100
AcDbEntity
  8
0
100
AcDbLine
 10
114.3
 20
-224.3
 30
0.0
 11
114.3
 21
-249.3
 31
0.0
  0
INSERT
  5
81
330
7C
100
AcDbEntity
  8
DIMENSIONS
100
AcDbBlockReference
  2
_CLOSEDFILLED
 10
0.0
 20
-249.3
 30
0.0
 41
3.0
 42
3.0
 50
180.0
  0
INSERT
  5
83
330
7C
100
AcDbEntity
  8
DIMENSIONS
100
AcDbBlockReference
  2
_CLOSEDFILLED
 10
114.3
 20
-249.3
 30
0.0
 41
3.0
 42
3.0
  0
LINE
  5
85
330
7C
100
AcDbEntity
  8
0
100
AcDbLine
 10
3.0
 20
-249.3
 30
0.0
 11
49.65
 21
-249.3
 31
0.0
  0
LINE
  5
86
330
7C
100
AcDbEntity
  8
0
100
AcDbLine
 10
64.65
 20
-249.3
 30
0.0
 11
111.3
 21
-249.3
 31
0.0
  0
MTEXT
  5
87
330
7C
100
AcDbEntity
  8
DIMENSIONS
100
AcDbMText
 10
57.15
 20
-249.3
 30
0.0
 40
3.0
 71
5
  1
114,3
  0
POINT
  5
88
330
7C
100
AcDbEntity
  8
Defpoints
100
AcDbPoint
 10
0.0
 20
-249.3
 30
0.0
  0
POINT
  5
89
330
7C
100
AcDbEntity
  8
Defpoints
100
AcDbPoint
 10
0.0
 20
-224.3
 30
0.0
  0
POINT
  5
8A
330
7C
100
AcDbEntity
  8
Defpoints
100
AcDbPoint
 10
114.3
 20
-224.3
 30
0.0
  0
ENDBLK
  5
7E
330
7C
100
AcDbEntity
  8
0
100
AcDbBlockEnd
  0
BLOCK
  5
8D
330
8C
100
AcDbEntity
  8
0
100
AcDbBlockBegin
  2
*D4
 70
1
 10
0.0
 20
0.0
 30
0.0
  3
*D4
  1

  0
LINE
  5
8F
330
8C
100
AcDbEntity
  8
0
100
AcDbLine
 10
0.0
 20
-224.3
 30
0.0
 11
-25.0
 21
-224.3
 31
0.0
  0
LINE
  5
90
330
8C
100
AcDbEntity
  8
0
100
AcDbLine
 10
0.0
 20
-214.3
 30
0.0
 11
-25.0
 21
-214.3
 31
0.0
  0
INSERT
  5
91
330
8C
100
AcDbEntity
  8
DIMENSIONS
100
AcDbBlockReference
  2
_CLOSEDFILLED
 10
-25.0
 20
-224.3
 30
0.0
 41
3.0
 42
3.0
 50
270.0
  0
INSERT
  5
93
330
8C
100
AcDbEntity
  8
DIMENSIONS
100
AcDbBlockReference
  2
_CLOSEDFILLED
 10
-25.0
 20
-214.3
 30
0.0
 41
3.0
 42
3.0
 50
90.0
  0
LINE
  5
95
330
8C
100
AcDbEntity
  8
0
100
AcDbLine
 10
-25.0
 20
-221.3
 30
0.0
 11
-25.0
 21
-217.3
 31
0.0
  0
MTEXT
  5
96
330
8C
100
AcDbEntity
  8
DIMENSIONS
100
AcDbMText
 10
-27.125
 20
-219.3
 30
0.0
 40
3.0
 71
5
  1
10
 50
90.0
  0
POINT
  5
97
330
8C
100
AcDbEntity
  8
Defpoints
100
AcDbPoint
 10
-25.0
 20
-224.3
 30
0.0
  0
POINT
  5
98
330
8C
100
AcDbEntity
  8
Defpoints
100
AcDbPoint
 10
0.0
 20
-224.3
 30
0.0
  0
POINT
  5
99
330
8C
100
AcDbEntity
  8
Defpoints
100
AcDbPoint
 10
0.0
 20
-214.3
 30
0.0
  0
ENDBLK
  5
8E
330
8C
100
AcDbEntity
  8
0
100
AcDbBlockEnd
  0
BLOCK
  5
B1
330
B0
100
AcDbEntity
  8
0
100
AcDbBlockBegin
  2
*D5
 70
1
 10
0.0
 20
0.0
 30
0.0
  3
*D5
  1

  0
LINE
  5
B3
330
B0
100
AcDbEntity
  8
0
100
AcDbLine
 10
214.3
 20
0.0
 30
0.0
 11
214.3
 21
-25.0
 31
0.0
  0
LINE
  5
B4
330
B0
100
AcDbEntity
  8
0
100
AcDbLine
 10
328.6
 20
0.0
 30
0.0
 11
328.6
 21
-25.0
 31
0.0
  0
INSERT
  5
B5
330
B0
100
AcDbEntity
  8
DIMENSIONS
100
AcDbBlockReference
  2
_CLOSEDFILLED
 10
214.3
 20
-25.0
 30
0.0
 41
3.0
 42
3.0
 50
180.0
  0
INSERT
  5
B7
330
B0
100
AcDbEntity
  8
DIMENSIONS
100
AcDbBlockReference
  2
_CLOSEDFILLED
 10
328.6
 20
-25.0
 30
0.0
 41
3.0
 42
3.0
  0
LINE
  5
B9
330
B0
100
AcDbEntity
  8
0
100
AcDbLine
 10
217.3
 20
-25.0
 30
0.0
 11
263.95000000000005
 21
-25.0
 31
0.0
  0
LINE
  5
BA
330
B0
100
AcDbEntity
  8
0
100
AcDbLine
 10
278.95000000000005
 20
-25.0
 30
0.0
 11
325.6
 21
-25.0
 31
0.0
  0
MTEXT
  5
BB
330
B0
100
AcDbEntity
  8
DIMENSIONS
100
AcDbMText
 10
271.45000000000005
 20
-25.0
 30
0.0
 40
3.0
 71
5
  1
114,3
  0
POINT
  5
BC
330
B0
100
AcDbEntity
  8
Defpoints
100
AcDbPoint
 10
214.3
 20
-25.0
 30
0.0
  0
POINT
  5
BD
330
B0
100
AcDbEntity
  8
Defpoints
100
AcDbPoint
 10
214.3
 20
0.0
 30
0.0
  0
POINT
  5
BE
330
B0
100
AcDbEntity
  8
Defpoints
100
AcDbPoint
 10
328.6
 20
0.0
 30
0.0
  0
ENDBLK
  5
B2
330
B0
100
AcDbEntity
  8
0
100
AcDbBlockEnd
  0
BLOCK
  5
C1
330
C0
100
AcDbEntity
  8
0
100
AcDbBlockBegin
  2
*D6
 70
1
 10
0.0
 20
0.0
 30
0.0
  3
*D6
  1

  0
LINE
  5
C3
330
C0
100
AcDbEntity
  8
0
100
AcDbLine
 10
214.3
 20
0.0
 30
0.0
 11
189.3
 21
0.0
 31
0.0
  0
LINE
  5
C4
330
C0
100
AcDbEntity
  8
0
100
AcDbLine
 10
214.3
 20
10.000000000000012
 30
0.0
 11
189.3
 21
10.000000000000012
 31
0.0
  0
INSERT
  5
C5
330
C0
100
AcDbEntity
  8
DIMENSIONS
100
AcDbBlockReference
  2
_CLOSEDFILLED
 10
189.3
 20
0.0
 30
0.0
 41
3.0
 42
3.0
 50
270.0
  0
INSERT
  5
C7
330
C0
100
AcDbEntity
  8
DIMENSIONS
100
AcDbBlockReference
  2
_CLOSEDFILLED
 10
189.3
 20
10.000000000000012
 30
0.0
 41
3.0
 42
3.0
 50
90.0
  0
LINE
  5
C9
330
C0
100
AcDbEntity
  8
0
100
AcDbLine
 10
189.3
 20
3.0
 30
0.0
 11
189.3
 21
7.000000000000012
 31
0.0
  0
MTEXT
  5
CA
330
C0
100
AcDbEntity
  8
DIMENSIONS
100
AcDbMText
 10
187.175
 20
5.000000000000006
 30
0.0
 40
3.0
 71
5
  1
10
 50
90.0
  0
POINT
  5
CB
330
C0
100
AcDbEntity
  8
Defpoints
100
AcDbPoint
 10
189.3
 20
0.0
 30
0.0
  0
POINT
  5
CC
330
C0
100
AcDbEntity
  8
Defpoints
100
AcDbPoint
 10
214.3
 20
0.0
 30
0.0
  0
POINT
  5
CD
330
C0
100
AcDbEntity
  8
Defpoints
100
AcDbPoint
 10
214.3
 20
10.000000000000012
 30
0.0
  0
ENDBLK
  5
C2
330
C0
100
AcDbEntity
  8
0
100
AcDbBlockEnd
  0
ENDSEC
  0
SECTION
  2
ENTITIES
  0
LWPOLYLINE
  5
34
330
17
100
AcDbEntity
  8
XY_AFT
100
AcDbPolyline
 90
91
 70
0
 10
114.3
 20
57.15
 10
114.16078547234895
 20
53.163417525523236
 10
113.74382012858075
 20
49.19625728013226
 10
113.051135381937
 20
45.26784686976505
 10
112.08610592287492
 20
41.39732511505849
 10
110.85343327791466
 20
37.60354880893803
 10
109.35912290427464
 20
33.90500084821802
 10
107.61045493188767
 20
30.31970018678634
 10
105.61594869533974
 20
26.86511404907234
 10
103.38532122852824
 20
23.558072831485163
 10
100.92943992424959
 20
20.41468810641428
 10
98.26026958935391
 20
17.450274128268305
 10
95.39081415340874
 20
14.679273223966916
 10
92.33505331486137
 20
12.115185431375842
 10
89.10787443335317
 20
9.770502728479364
 10
85.72500000000001
 20
7.656648173719333
 10
82.20291103899578
 20
5.783920254002609
 10
78.55876681371939
 20
4.161442711508101
 10
74.81032122852824
 20
2.7971200937319765
 10
70.97583633352102
 20
1.697599243326799
 10
67.07399335366507
 20
0.8682369153523126
 10
63.12380167574639
 20
0.3130736797031801
 10
59.14450623654793
 20
0.0348142358586756
 10
55.15549376345207
 20
0.0348142358586756
 10
51.17619832425361
 20
0.313073679703173
 10
47.22600664633493
 20
0.8682369153523126
 10
43.324163666478995
 20
1.697599243326799
 10
39.48967877147176
 20
2.7971200937319693
 10
35.741233186280624
 20
4.161442711508101
 10
32.09708896100422
 20
5.783920254002609
 10
28.57500000000001
 20
7.656648173719326
 10
25.192125566646826
 20
9.770502728479364
 10
21.964946685138628
 20
12.115185431375835
 10
18.90918584659127
 20
14.67927322396691
 10
16.039730410646094
 20
17.45027412826829
 10
13.370560075750397
 20
20.41468810641429
 10
10.914678771471756
 20
23.558072831485156
 10
8.684051304660258
 20
26.865114049072332
 10
6.689545068112338
 20
30.319700186786324
 10
4.940877095725355
 20
33.90500084821802
 10
3.446566722085336
 20
37.60354880893802
 10
2.21389407712509
 20
41.397325115058464
 10
1.2488646180630028
 20
45.26784686976505
 10
0.5561798714192534
 20
49.196257280132265
 10
0.13921452765104902
 20
53.16341752552322
 10
0.0
 20
57.14999999999999
 10
0.13921452765104902
 20
61.136582474476754
 10
0.5561798714192605
 20
65.10374271986774
 10
1.2488646180630028
 20
69.03215313023493
 10
2.213894077125076
 20
72.90267488494149
 10
3.446566722085336
 20
76.69645119106195
 10
4.940877095725362
 20
80.39499915178197
 10
6.6895450681123165
 20
83.98029981321363
 10
8.684051304660265
 20
87.43488595092768
 10
10.914678771471756
 20
90.74192716851483
 10
13.370560075750404
 20
93.88531189358571
 10
16.039730410646094
 20
96.84972587173169
 10
18.909185846591235
 20
99.62072677603307
 10
21.964946685138642
 20
102.18481456862418
 10
25.192125566646833
 20
104.52949727152064
 10
28.574999999999974
 20
106.64335182628065
 10
32.097088961004204
 20
108.51607974599739
 10
35.74123318628061
 20
110.1385572884919
 10
39.489678771471745
 20
111.50287990626802
 10
43.32416366647898
 20
112.6024007566732
 10
47.22600664633488
 20
113.43176308464768
 10
51.17619832425356
 20
113.98692632029682
 10
55.15549376345208
 20
114.26518576414132
 10
59.1445062365479
 20
114.26518576414132
 10
63.12380167574642
 20
113.98692632029682
 10
67.07399335366509
 20
113.43176308464768
 10
70.97583633352099
 20
112.6024007566732
 10
74.81032122852824
 20
111.50287990626802
 10
78.55876681371936
 20
110.1385572884919
 10
82.20291103899578
 20
108.51607974599739
 10
85.72500000000005
 20
106.64335182628064
 10
89.10787443335315
 20
104.52949727152065
 10
92.33505331486134
 20
102.18481456862418
 10
95.39081415340877
 20
99.62072677603307
 10
98.2602695893539
 20
96.8497258717317
 10
100.92943992424958
 20
93.88531189358574
 10
103.38532122852826
 20
90.7419271685148
 10
105.61594869533971
 20
87.43488595092771
 10
107.61045493188767
 20
83.98029981321366
 10
109.35912290427464
 20
80.39499915178197
 10
110.85343327791466
 20
76.69645119106195
 10
112.08610592287492
 20
72.90267488494149
 10
113.051135381937
 20
69.03215313023492
 10
113.74382012858074
 20
65.10374271986777
 10
114.16078547234895
 20
61.136582474476775
 10
114.3
 20
57.15000000000001
  0
LWPOLYLINE
  5
35
330
17
100
AcDbEntity
  8
XY_AFT
100
AcDbPolyline
 90
91
 70
0
 10
114.3
 20
57.15
 10
114.16078547234895
 20
53.163417525523236
 10
113.74382012858075
 20
49.19625728013226
 10
113.051135381937
 20
45.26784686976505
 10
112.08610592287492
 20
41.39732511505849
 10
110.85343327791466
 20
37.60354880893803
 10
109.35912290427464
 20
33.90500084821802
 10
107.61045493188767
 20
30.31970018678634
 10
105.61594869533974
 20
26.86511404907234
 10
103.38532122852824
 20
23.558072831485163
 10
100.92943992424959
 20
20.41468810641428
 10
98.26026958935391
 20
17.450274128268305
 10
95.39081415340874
 20
14.679273223966916
 10
92.33505331486137
 20
12.115185431375842
 10
89.10787443335317
 20
9.770502728479364
 10
85.72500000000001
 20
7.656648173719333
 10
82.20291103899578
 20
5.783920254002609
 10
78.55876681371939
 20
4.161442711508101
 10
74.81032122852824
 20
2.7971200937319765
 10
70.97583633352102
 20
1.697599243326799
 10
67.07399335366507
 20
0.8682369153523126
 10
63.12380167574639
 20
0.3130736797031801
 10
59.14450623654793
 20
0.0348142358586756
 10
55.15549376345207
 20
0.0348142358586756
 10
51.17619832425361
 20
0.313073679703173
 10
47.22600664633493
 20
0.8682369153523126
 10
43.324163666478995
 20
1.697599243326799
 10
39.48967877147176
 20
2.7971200937319693
 10
35.741233186280624
 20
4.161442711508101
 10
32.09708896100422
 20
5.783920254002609
 10
28.57500000000001
 20
7.656648173719326
 10
25.192125566646826
 20
9.770502728479364
 10
21.964946685138628
 20
12.115185431375835
 10
18.90918584659127
 20
14.67927322396691
 10
16.039730410646094
 20
17.45027412826829
 10
13.370560075750397
 20
20.41468810641429
 10
10.914678771471756
 20
23.558072831485156
 10
8.684051304660258
 20
26.865114049072332
 10
6.689545068112338
 20
30.319700186786324
 10
4.940877095725355
 20
33.90500084821802
 10
3.446566722085336
 20
37.60354880893802
 10
2.21389407712509
 20
41.397325115058464
 10
1.2488646180630028
 20
45.26784686976505
 10
0.5561798714192534
 20
49.196257280132265
 10
0.13921452765104902
 20
53.16341752552322
 10
0.0
 20
57.14999999999999
 10
0.13921452765104902
 20
61.13658247447676
 10
0.5561798714192605
 20
65.10374271986774
 10
1.2488646180630028
 20
69.03215313023493
 10
2.213894077125076
 20
72.90267488494149
 10
3.446566722085336
 20
76.69645119106195
 10
4.940877095725362
 20
80.39499915178197
 10
6.6895450681123165
 20
83.98029981321363
 10
8.684051304660265
 20
87.43488595092768
 10
10.914678771471756
 20
90.74192716851483
 10
13.370560075750404
 20
93.88531189358571
 10
16.039730410646094
 20
96.84972587173169
 10
18.909185846591235
 20
99.62072677603307
 10
21.964946685138642
 20
102.18481456862418
 10
25.192125566646833
 20
104.52949727152064
 10
28.574999999999974
 20
106.64335182628065
 10
32.097088961004204
 20
108.51607974599739
 10
35.74123318628061
 20
110.1385572884919
 10
39.489678771471745
 20
111.50287990626802
 10
43.32416366647898
 20
112.6024007566732
 10
47.22600664633488
 20
113.43176308464768
 10
51.17619832425356
 20
113.98692632029682
 10
55.15549376345208
 20
114.26518576414132
 10
59.1445062365479
 20
114.26518576414132
 10
63.12380167574642
 20
113.98692632029682
 10
67.07399335366509
 20
113.43176308464768
 10
70.97583633352099
 20
112.6024007566732
 10
74.81032122852824
 20
111.50287990626802
 10
78.55876681371936
 20
110.1385572884919
 10
82.20291103899578
 20
108.51607974599739
 10
85.72500000000005
 20
106.64335182628064
 10
89.10787443335315
 20
104.52949727152065
 10
92.33505331486134
 20
102.18481456862418
 10
95.39081415340877
 20
99.62072677603307
 10
98.2602695893539
 20
96.8497258717317
 10
100.92943992424958
 20
93.88531189358574
 10
103.38532122852826
 20
90.7419271685148
 10
105.61594869533971
 20
87.43488595092771
 10
107.61045493188767
 20
83.98029981321366
 10
109.35912290427464
 20
80.39499915178197
 10
110.85343327791466
 20
76.69645119106195
 10
112.08610592287492
 20
72.90267488494149
 10
113.051135381937
 20
69.03215313023492
 10
113.74382012858074
 20
65.10374271986777
 10
114.16078547234895
 20
61.13658247447678
 10
114.3
 20
57.15000000000001
  0
LWPOLYLINE
  5
36
330
17
100
AcDbEntity
  8
XY_AFT
100
AcDbPolyline
 90
12
 70
0
 10
35.620418
 20
65.802476
 10
34.81081101743902
 20
63.04520783097645
 10
32.63903456630962
 20
61.16335282369195
 10
29.79461232480625
 20
60.75438664640724
 10
27.180628256879046
 20
61.94815317079328
 10
25.627003834566064
 20
64.36563996010871
 10
25.62700383456606
 20
67.23931203989129
 10
27.180628256879046
 20
69.6567988292067
 10
29.794612324806245
 20
70.85056535359276
 10
32.63903456630962
 20
70.44159917630805
 10
34.81081101743902
 20
68.55974416902355
 10
35.620418
 20
65.802476
  0
LWPOLYLINE
  5
37
330
17
100
AcDbEntity
  8
XY_AFT
100
AcDbPolyline
 90
12
 70
0
 10
62.25
 20
85.15
 10
61.44039301743902
 20
82.39273183097646
 10
59.26861656630962
 20
80.51087682369196
 10
56.424194324806244
 20
80.10191064640725
 10
53.810210256879046
 20
81.29567717079328
 10
52.25658583456606
 20
83.7131639601087
 10
52.25658583456606
 20
86.58683603989128
 10
53.810210256879046
 20
89.00432282920671
 10
56.424194324806244
 20
90.19808935359276
 10
59.26861656630962
 20
89.78912317630804
 10
61.44039301743902
 20
87.90726816902355
 10
62.25
 20
85.15
  0
LWPOLYLINE
  5
38
330
17
100
AcDbEntity
  8
XY_AFT
100
AcDbPolyline
 90
12
 70
0
 10
88.879582
 20
65.802476
 10
88.06997501743902
 20
63.04520783097645
 10
85.89819856630962
 20
61.16335282369195
 10
83.05377632480625
 20
60.75438664640724
 10
80.43979225687904
 20
61.94815317079328
 10
78.88616783456607
 20
64.36563996010871
 10
78.88616783456607
 20
67.23931203989129
 10
80.43979225687904
 20
69.6567988292067
 10
83.05377632480625
 20
70.85056535359276
 10
85.89819856630962
 20
70.44159917630805
 10
88.06997501743902
 20
68.55974416902355
 10
88.879582
 20
65.802476
  0
LWPOLYLINE
  5
39
330
17
100
AcDbEntity
  8
XY_AFT
100
AcDbPolyline
 90
12
 70
0
 10
45.792013
 20
34.497524
 10
44.98240601743902
 20
31.74025583097645
 10
42.81062956630962
 20
29.858400823691955
 10
39.96620732480625
 20
29.44943464640724
 10
37.35222325687904
 20
30.643201170793283
 10
35.798598834566064
 20
33.06068796010871
 10
35.798598834566064
 20
35.93436003989129
 10
37.35222325687904
 20
38.351846829206714
 10
39.96620732480625
 20
39.545613353592756
 10
42.810629566309615
 20
39.136647176308045
 10
44.98240601743902
 20
37.254792169023546
 10
45.792013
 20
34.497524
  0
LWPOLYLINE
  5
3A
330
17
100
AcDbEntity
  8
XY_AFT
100
AcDbPolyline
 90
12
 70
0
 10
78.707987
 20
34.497524
 10
77.89838001743902
 20
31.74025583097645
 10
75.72660356630962
 20
29.858400823691955
 10
72.88218132480624
 20
29.44943464640724
 10
70.26819725687905
 20
30.643201170793283
 10
68.71457283456607
 20
33.06068796010871
 10
68.71457283456606
 20
35.93436003989129
 10
70.26819725687905
 20
38.351846829206714
 10
72.88218132480624
 20
39.545613353592756
 10
75.72660356630962
 20
39.136647176308045
 10
77.89838001743902
 20
37.254792169023546
 10
78.707987
 20
34.497524
  0
LWPOLYLINE
  5
3B
330
17
100
AcDbEntity
  8
XY_AFT
100
AcDbPolyline
 90
71
 70
0
 10
101.15
 20
57.15
 10
100.97286893579052
 20
53.20587040824893
 10
100.4429018983397
 20
49.293496628859984
 10
99.56436587061754
 20
45.4443787950663
 10
98.34433430814843
 20
41.68950774042092
 10
96.79263018770644
 20
38.059115478827444
 10
94.92174691848211
 20
34.582431794140135
 10
92.7467477524977
 20
31.28744889913118
 10
90.28514450415888
 20
28.20069605865265
 10
87.55675655542206
 20
25.347025991594776
 10
84.58355128178428
 20
22.74941477140669
 10
81.38946718389252
 20
20.428776836262685
 10
78.00022114881195
 20
18.40379659830353
 10
74.44310139277263
 20
16.69077800773617
 10
70.74674775249768
 20
15.303513283013245
 10
66.94092109407785
 20
14.25317186399976
 10
63.05626369597685
 20
13.54821048221087
 10
59.12405253542267
 20
13.194305072182154
 10
55.175947464577355
 20
13.194305072182154
 10
51.24373630402317
 20
13.54821048221087
 10
47.359078905922175
 20
14.25317186399976
 10
43.55325224750233
 20
15.303513283013238
 10
39.85689860722737
 20
16.690778007736164
 10
36.29977885118808
 20
18.403796598303515
 10
32.910532816107505
 20
20.42877683626267
 10
29.71644871821574
 20
22.74941477140667
 10
26.743243444577953
 20
25.34702599159477
 10
24.01485549584112
 20
28.20069605865264
 10
21.553252247502314
 20
31.287448899131174
 10
19.37825308151789
 20
34.58243179414012
 10
17.507369812293568
 20
38.05911547882742
 10
15.955665691851571
 20
41.68950774042089
 10
14.735634129382461
 20
45.44437879506627
 10
13.857098101660299
 20
49.29349662885996
 10
13.327131064209482
 20
53.2058704082489
 10
13.149999999999999
 20
57.14999999999997
 10
13.327131064209482
 20
61.09412959175105
 10
13.857098101660291
 20
65.00650337113998
 10
14.735634129382447
 20
68.85562120493368
 10
15.95566569185155
 20
72.61049225957905
 10
17.507369812293547
 20
76.24088452117253
 10
19.378253081517876
 20
79.71756820585985
 10
21.553252247502293
 20
83.01255110086879
 10
24.014855495841104
 20
86.09930394134733
 10
26.743243444577935
 20
88.9529740084052
 10
29.71644871821572
 20
91.5505852285933
 10
32.91053281610745
 20
93.87122316373728
 10
36.299778851188016
 20
95.89620340169645
 10
39.856898607227315
 20
97.60922199226381
 10
43.553252247502265
 20
98.99648671698674
 10
47.35907890592212
 20
100.04682813600023
 10
51.24373630402311
 20
100.75178951778912
 10
55.175947464577334
 20
101.10569492781784
 10
59.12405253542261
 20
101.10569492781784
 10
63.05626369597683
 20
100.75178951778912
 10
66.94092109407782
 20
100.04682813600024
 10
70.74674775249767
 20
98.99648671698677
 10
74.44310139277263
 20
97.60922199226383
 10
78.00022114881193
 20
95.89620340169648
 10
81.38946718389249
 20
93.87122316373731
 10
84.58355128178424
 20
91.55058522859335
 10
87.55675655542204
 20
88.95297400840523
 10
90.28514450415884
 20
86.09930394134739
 10
92.74674775249768
 20
83.01255110086882
 10
94.92174691848209
 20
79.71756820585992
 10
96.79263018770642
 20
76.2408845211726
 10
98.34433430814842
 20
72.61049225957912
 10
99.56436587061754
 20
68.85562120493371
 10
100.4429018983397
 20
65.00650337114006
 10
100.97286893579052
 20
61.094129591751084
 10
101.15
 20
57.15000000000005
  0
LWPOLYLINE
  5
3C
330
17
100
AcDbEntity
  8
XY_AFT
100
AcDbPolyline
 90
12
 70
0
 10
35.620418
 20
65.802476
 10
34.81081101743902
 20
63.04520783097645
 10
32.63903456630962
 20
61.16335282369195
 10
29.79461232480625
 20
60.75438664640724
 10
27.180628256879046
 20
61.94815317079328
 10
25.627003834566064
 20
64.36563996010871
 10
25.62700383456606
 20
67.23931203989129
 10
27.180628256879046
 20
69.6567988292067
 10
29.794612324806245
 20
70.85056535359276
 10
32.63903456630962
 20
70.44159917630805
 10
34.81081101743902
 20
68.55974416902355
 10
35.620418
 20
65.802476
  0
LWPOLYLINE
  5
3D
330
17
100
AcDbEntity
  8
XY_AFT
100
AcDbPolyline
 90
12
 70
0
 10
62.25
 20
85.15
 10
61.44039301743902
 20
82.39273183097646
 10
59.26861656630962
 20
80.51087682369196
 10
56.424194324806244
 20
80.10191064640725
 10
53.810210256879046
 20
81.29567717079328
 10
52.25658583456606
 20
83.7131639601087
 10
52.25658583456606
 20
86.58683603989128
 10
53.810210256879046
 20
89.00432282920671
 10
56.424194324806244
 20
90.19808935359276
 10
59.26861656630962
 20
89.78912317630804
 10
61.44039301743902
 20
87.90726816902355
 10
62.25
 20
85.15
  0
LWPOLYLINE
  5
3E
330
17
100
AcDbEntity
  8
XY_AFT
100
AcDbPolyline
 90
12
 70
0
 10
88.879582
 20
65.802476
 10
88.06997501743902
 20
63.04520783097645
 10
85.89819856630962
 20
61.16335282369195
 10
83.05377632480625
 20
60.75438664640724
 10
80.43979225687904
 20
61.94815317079328
 10
78.88616783456607
 20
64.36563996010871
 10
78.88616783456607
 20
67.23931203989129
 10
80.43979225687904
 20
69.6567988292067
 10
83.05377632480625
 20
70.85056535359276
 10
85.89819856630962
 20
70.44159917630805
 10
88.06997501743902
 20
68.55974416902355
 10
88.879582
 20
65.802476
  0
LWPOLYLINE
  5
3F
330
17
100
AcDbEntity
  8
XY_AFT
100
AcDbPolyline
 90
12
 70
0
 10
45.792013
 20
34.497524
 10
44.98240601743902
 20
31.74025583097645
 10
42.81062956630962
 20
29.858400823691955
 10
39.96620732480625
 20
29.44943464640724
 10
37.35222325687904
 20
30.643201170793283
 10
35.798598834566064
 20
33.06068796010871
 10
35.798598834566064
 20
35.93436003989129
 10
37.35222325687904
 20
38.351846829206714
 10
39.96620732480625
 20
39.545613353592756
 10
42.810629566309615
 20
39.136647176308045
 10
44.98240601743902
 20
37.254792169023546
 10
45.792013
 20
34.497524
  0
LWPOLYLINE
  5
40
330
17
100
AcDbEntity
  8
XY_AFT
100
AcDbPolyline
 90
12
 70
0
 10
78.707987
 20
34.497524
 10
77.89838001743902
 20
31.74025583097645
 10
75.72660356630962
 20
29.858400823691955
 10
72.88218132480624
 20
29.44943464640724
 10
70.26819725687905
 20
30.643201170793283
 10
68.71457283456607
 20
33.06068796010871
 10
68.71457283456606
 20
35.93436003989129
 10
70.26819725687905
 20
38.351846829206714
 10
72.88218132480624
 20
39.545613353592756
 10
75.72660356630962
 20
39.136647176308045
 10
77.89838001743902
 20
37.254792169023546
 10
78.707987
 20
34.497524
  0
LWPOLYLINE
  5
41
330
17
100
AcDbEntity
  8
XY_AFT
100
AcDbPolyline
 90
71
 70
0
 10
101.15
 20
57.15
 10
100.97286893579052
 20
53.20587040824893
 10
100.4429018983397
 20
49.29349662885999
 10
99.56436587061754
 20
45.4443787950663
 10
98.34433430814843
 20
41.68950774042092
 10
96.79263018770644
 20
38.059115478827444
 10
94.92174691848211
 20
34.582431794140135
 10
92.7467477524977
 20
31.28744889913118
 10
90.28514450415888
 20
28.20069605865265
 10
87.55675655542206
 20
25.347025991594776
 10
84.58355128178428
 20
22.74941477140669
 10
81.38946718389252
 20
20.428776836262685
 10
78.00022114881195
 20
18.40379659830353
 10
74.44310139277263
 20
16.69077800773617
 10
70.74674775249768
 20
15.303513283013245
 10
66.94092109407785
 20
14.25317186399976
 10
63.05626369597685
 20
13.54821048221087
 10
59.12405253542267
 20
13.194305072182154
 10
55.175947464577355
 20
13.194305072182154
 10
51.24373630402317
 20
13.54821048221087
 10
47.359078905922175
 20
14.25317186399976
 10
43.55325224750233
 20
15.303513283013238
 10
39.85689860722737
 20
16.690778007736164
 10
36.29977885118808
 20
18.403796598303515
 10
32.910532816107505
 20
20.42877683626267
 10
29.71644871821574
 20
22.74941477140667
 10
26.743243444577953
 20
25.34702599159477
 10
24.01485549584112
 20
28.20069605865264
 10
21.553252247502314
 20
31.287448899131174
 10
19.37825308151789
 20
34.58243179414012
 10
17.507369812293568
 20
38.05911547882742
 10
15.955665691851571
 20
41.68950774042089
 10
14.735634129382461
 20
45.44437879506627
 10
13.857098101660299
 20
49.29349662885996
 10
13.327131064209482
 20
53.2058704082489
 10
13.149999999999999
 20
57.14999999999998
 10
13.327131064209482
 20
61.09412959175105
 10
13.857098101660291
 20
65.00650337113998
 10
14.735634129382447
 20
68.85562120493368
 10
15.95566569185155
 20
72.61049225957905
 10
17.507369812293547
 20
76.24088452117253
 10
19.378253081517876
 20
79.71756820585985
 10
21.553252247502293
 20
83.01255110086879
 10
24.014855495841104
 20
86.09930394134733
 10
26.743243444577935
 20
88.9529740084052
 10
29.71644871821572
 20
91.5505852285933
 10
32.91053281610745
 20
93.87122316373728
 10
36.299778851188016
 20
95.89620340169645
 10
39.856898607227315
 20
97.60922199226381
 10
43.553252247502265
 20
98.99648671698674
 10
47.35907890592212
 20
100.04682813600023
 10
51.24373630402311
 20
100.75178951778912
 10
55.175947464577334
 20
101.10569492781784
 10
59.12405253542261
 20
101.10569492781784
 10
63.05626369597683
 20
100.75178951778912
 10
66.94092109407782
 20
100.04682813600024
 10
70.74674775249767
 20
98.99648671698677
 10
74.44310139277263
 20
97.60922199226383
 10
78.00022114881193
 20
95.89620340169648
 10
81.38946718389249
 20
93.87122316373731
 10
84.58355128178424
 20
91.55058522859335
 10
87.55675655542204
 20
88.95297400840523
 10
90.28514450415884
 20
86.09930394134739
 10
92.74674775249768
 20
83.01255110086882
 10
94.92174691848209
 20
79.71756820585992
 10
96.79263018770642
 20
76.2408845211726
 10
98.34433430814842
 20
72.61049225957912
 10
99.56436587061754
 20
68.85562120493371
 10
100.4429018983397
 20
65.00650337114006
 10
100.97286893579052
 20
61.094129591751084
 10
101.15
 20
57.15000000000005
  0
DIMENSION
  5
42
330
17
100
AcDbEntity
  8
DIMENSIONS
100
AcDbDimension
280
0
  2
*D1
  3
Standard
 10
0.0
 20
-25.0
 30
0.0
 11
57.15
 21
-25.0
 31
0.0
 70
32
 71
5
  1
<>
100
AcDbAlignedDimension
 13
0.0
 23
0.0
 33
0.0
 14
114.3
 24
0.0
 34
0.0
 50
0.0
100
AcDbRotatedDimension
1001
ACAD
1000
DSTYLE
1002
{
1070
140
1040
3.0
1070
41
1040
3.0
1070
271
1070
3
1002
}
  0
DIMENSION
  5
56
330
17
100
AcDbEntity
  8
DIMENSIONS
100
AcDbDimension
280
0
  2
*D2
  3
Standard
 10
-25.0
 20
0.0
 30
0.0
 11
-25.0
 21
57.15
 31
0.0
 70
32
 71
5
  1
<>
100
AcDbAlignedDimension
 13
0.0
 23
0.0
 33
0.0
 14
0.0
 24
114.3
 34
0.0
 50
90.0
100
AcDbRotatedDimension
1001
ACAD
1000
DSTYLE
1002
{
1070
140
1040
3.0
1070
41
1040
3.0
1070
271
1070
3
1002
}
  0
LWPOLYLINE
  5
66
330
17
100
AcDbEntity
  8
XZ_SIDE
100
AcDbPolyline
 90
91
 70
0
 10
114.3
 20
-224.3
 10
114.16078547234895
 20
-224.3
 10
113.74382012858075
 20
-224.3
 10
113.051135381937
 20
-224.3
 10
112.08610592287492
 20
-224.3
 10
110.85343327791466
 20
-224.3
 10
109.35912290427464
 20
-224.3
 10
107.61045493188767
 20
-224.3
 10
105.61594869533974
 20
-224.3
 10
103.38532122852824
 20
-224.3
 10
100.92943992424959
 20
-224.3
 10
98.26026958935391
 20
-224.3
 10
95.39081415340874
 20
-224.3
 10
92.33505331486137
 20
-224.3
 10
89.10787443335317
 20
-224.3
 10
85.72500000000001
 20
-224.3
 10
82.20291103899578
 20
-224.3
 10
78.55876681371939
 20
-224.3
 10
74.81032122852824
 20
-224.3
 10
70.97583633352102
 20
-224.3
 10
67.07399335366507
 20
-224.3
 10
63.12380167574639
 20
-224.3
 10
59.14450623654793
 20
-224.3
 10
55.15549376345207
 20
-224.3
 10
51.17619832425361
 20
-224.3
 10
47.22600664633493
 20
-224.3
 10
43.324163666478995
 20
-224.3
 10
39.48967877147176
 20
-224.3
 10
35.741233186280624
 20
-224.3
 10
32.09708896100422
 20
-224.3
 10
28.57500000000001
 20
-224.3
 10
25.192125566646826
 20
-224.3
 10
21.964946685138628
 20
-224.3
 10
18.90918584659127
 20
-224.3
 10
16.039730410646094
 20
-224.3
 10
13.370560075750397
 20
-224.3
 10
10.914678771471756
 20
-224.3
 10
8.684051304660258
 20
-224.3
 10
6.689545068112338
 20
-224.3
 10
4.940877095725355
 20
-224.3
 10
3.446566722085336
 20
-224.3
 10
2.21389407712509
 20
-224.3
 10
1.2488646180630028
 20
-224.3
 10
0.5561798714192534
 20
-224.3
 10
0.13921452765104902
 20
-224.3
 10
0.0
 20
-224.3
 10
0.13921452765104902
 20
-224.3
 10
0.5561798714192605
 20
-224.3
 10
1.2488646180630028
 20
-224.3
 10
2.213894077125076
 20
-224.3
 10
3.446566722085336
 20
-224.3
 10
4.940877095725362
 20
-224.3
 10
6.6895450681123165
 20
-224.3
 10
8.684051304660265
 20
-224.3
 10
10.914678771471756
 20
-224.3
 10
13.370560075750404
 20
-224.3
 10
16.039730410646094
 20
-224.3
 10
18.909185846591235
 20
-224.3
 10
21.964946685138642
 20
-224.3
 10
25.192125566646833
 20
-224.3
 10
28.574999999999974
 20
-224.3
 10
32.097088961004204
 20
-224.3
 10
35.74123318628061
 20
-224.3
 10
39.489678771471745
 20
-224.3
 10
43.32416366647898
 20
-224.3
 10
47.22600664633488
 20
-224.3
 10
51.17619832425356
 20
-224.3
 10
55.15549376345208
 20
-224.3
 10
59.1445062365479
 20
-224.3
 10
63.12380167574642
 20
-224.3
 10
67.07399335366509
 20
-224.3
 10
70.97583633352099
 20
-224.3
 10
74.81032122852824
 20
-224.3
 10
78.55876681371936
 20
-224.3
 10
82.20291103899578
 20
-224.3
 10
85.72500000000005
 20
-224.3
 10
89.10787443335315
 20
-224.3
 10
92.33505331486134
 20
-224.3
 10
95.39081415340877
 20
-224.3
 10
98.2602695893539
 20
-224.3
 10
100.92943992424958
 20
-224.3
 10
103.38532122852826
 20
-224.3
 10
105.61594869533971
 20
-224.3
 10
107.61045493188767
 20
-224.3
 10
109.35912290427464
 20
-224.3
 10
110.85343327791466
 20
-224.3
 10
112.08610592287492
 20
-224.3
 10
113.051135381937
 20
-224.3
 10
113.74382012858074
 20
-224.3
 10
114.16078547234895
 20
-224.3
 10
114.3
 20
-224.3
  0
LWPOLYLINE
  5
67
330
17
100
AcDbEntity
  8
XZ_SIDE
100
AcDbPolyline
 90
2
 70
0
 10
114.3
 20
-218.3
 10
114.3
 20
-224.3
  0
LWPOLYLINE
  5
68
330
17
100
AcDbEntity
  8
XZ_SIDE
100
AcDbPolyline
 90
91
 70
0
 10
114.3
 20
-218.3
 10
114.16078547234895
 20
-218.3
 10
113.74382012858075
 20
-218.3
 10
113.051135381937
 20
-218.3
 10
112.08610592287492
 20
-218.3
 10
110.85343327791466
 20
-218.3
 10
109.35912290427464
 20
-218.3
 10
107.61045493188767
 20
-218.3
 10
105.61594869533974
 20
-218.3
 10
103.38532122852824
 20
-218.3
 10
100.92943992424959
 20
-218.3
 10
98.26026958935391
 20
-218.3
 10
95.39081415340874
 20
-218.3
 10
92.33505331486137
 20
-218.3
 10
89.10787443335317
 20
-218.3
 10
85.72500000000001
 20
-218.3
 10
82.20291103899578
 20
-218.3
 10
78.55876681371939
 20
-218.3
 10
74.81032122852824
 20
-218.3
 10
70.97583633352102
 20
-218.3
 10
67.07399335366507
 20
-218.3
 10
63.12380167574639
 20
-218.3
 10
59.14450623654793
 20
-218.3
 10
55.15549376345207
 20
-218.3
 10
51.17619832425361
 20
-218.3
 10
47.22600664633493
 20
-218.3
 10
43.324163666478995
 20
-218.3
 10
39.48967877147176
 20
-218.3
 10
35.741233186280624
 20
-218.3
 10
32.09708896100422
 20
-218.3
 10
28.57500000000001
 20
-218.3
 10
25.192125566646826
 20
-218.3
 10
21.964946685138628
 20
-218.3
 10
18.90918584659127
 20
-218.3
 10
16.039730410646094
 20
-218.3
 10
13.370560075750397
 20
-218.3
 10
10.914678771471756
 20
-218.3
 10
8.684051304660258
 20
-218.3
 10
6.689545068112338
 20
-218.3
 10
4.940877095725355
 20
-218.3
 10
3.446566722085336
 20
-218.3
 10
2.21389407712509
 20
-218.3
 10
1.2488646180630028
 20
-218.3
 10
0.5561798714192534
 20
-218.3
 10
0.13921452765104902
 20
-218.3
 10
0.0
 20
-218.3
 10
0.13921452765104902
 20
-218.3
 10
0.5561798714192605
 20
-218.3
 10
1.2488646180630028
 20
-218.3
 10
2.213894077125076
 20
-218.3
 10
3.446566722085336
 20
-218.3
 10
4.940877095725362
 20
-218.3
 10
6.6895450681123165
 20
-218.3
 10
8.684051304660265
 20
-218.3
 10
10.914678771471756
 20
-218.3
 10
13.370560075750404
 20
-218.3
 10
16.039730410646094
 20
-218.3
 10
18.909185846591235
 20
-218.3
 10
21.964946685138642
 20
-218.3
 10
25.192125566646833
 20
-218.3
 10
28.574999999999974
 20
-218.3
 10
32.097088961004204
 20
-218.3
 10
35.74123318628061
 20
-218.3
 10
39.489678771471745
 20
-218.3
 10
43.32416366647898
 20
-218.3
 10
47.22600664633488
 20
-218.3
 10
51.17619832425356
 20
-218.3
 10
55.15549376345208
 20
-218.3
 10
59.1445062365479
 20
-218.3
 10
63.12380167574642
 20
-218.3
 10
67.07399335366509
 20
-218.3
 10
70.97583633352099
 20
-218.3
 10
74.81032122852824
 20
-218.3
 10
78.55876681371936
 20
-218.3
 10
82.20291103899578
 20
-218.3
 10
85.72500000000005
 20
-218.3
 10
89.10787443335315
 20
-218.3
 10
92.33505331486134
 20
-218.3
 10
95.39081415340877
 20
-218.3
 10
98.2602695893539
 20
-218.3
 10
100.92943992424958
 20
-218.3
 10
103.38532122852826
 20
-218.3
 10
105.61594869533971
 20
-218.3
 10
107.61045493188767
 20
-218.3
 10
109.35912290427464
 20
-218.3
 10
110.85343327791466
 20
-218.3
 10
112.08610592287492
 20
-218.3
 10
113.051135381937
 20
-218.3
 10
113.74382012858074
 20
-218.3
 10
114.16078547234895
 20
-218.3
 10
114.3
 20
-218.3
  0
LWPOLYLINE
  5
69
330
17
100
AcDbEntity
  8
XZ_SIDE
100
AcDbPolyline
 90
12
 70
0
 10
35.620418
 20
-224.3
 10
34.81081101743902
 20
-224.3
 10
32.63903456630962
 20
-224.3
 10
29.79461232480625
 20
-224.3
 10
27.180628256879046
 20
-224.3
 10
25.627003834566064
 20
-224.3
 10
25.62700383456606
 20
-224.3
 10
27.180628256879046
 20
-224.3
 10
29.794612324806245
 20
-224.3
 10
32.63903456630962
 20
-224.3
 10
34.81081101743902
 20
-224.3
 10
35.620418
 20
-224.3
  0
LWPOLYLINE
  5
6A
330
17
100
AcDbEntity
  8
XZ_SIDE
100
AcDbPolyline
 90
12
 70
0
 10
62.25
 20
-224.3
 10
61.44039301743902
 20
-224.3
 10
59.26861656630962
 20
-224.3
 10
56.424194324806244
 20
-224.3
 10
53.810210256879046
 20
-224.3
 10
52.25658583456606
 20
-224.3
 10
52.25658583456606
 20
-224.3
 10
53.810210256879046
 20
-224.3
 10
56.424194324806244
 20
-224.3
 10
59.26861656630962
 20
-224.3
 10
61.44039301743902
 20
-224.3
 10
62.25
 20
-224.3
  0
LWPOLYLINE
  5
6B
330
17
100
AcDbEntity
  8
XZ_SIDE
100
AcDbPolyline
 90
12
 70
0
 10
88.879582
 20
-224.3
 10
88.06997501743902
 20
-224.3
 10
85.89819856630962
 20
-224.3
 10
83.05377632480625
 20
-224.3
 10
80.43979225687904
 20
-224.3
 10
78.88616783456607
 20
-224.3
 10
78.88616783456607
 20
-224.3
 10
80.43979225687904
 20
-224.3
 10
83.05377632480625
 20
-224.3
 10
85.89819856630962
 20
-224.3
 10
88.06997501743902
 20
-224.3
 10
88.879582
 20
-224.3
  0
LWPOLYLINE
  5
6C
330
17
100
AcDbEntity
  8
XZ_SIDE
100
AcDbPolyline
 90
12
 70
0
 10
45.792013
 20
-224.3
 10
44.98240601743902
 20
-224.3
 10
42.81062956630962
 20
-224.3
 10
39.96620732480625
 20
-224.3
 10
37.35222325687904
 20
-224.3
 10
35.798598834566064
 20
-224.3
 10
35.798598834566064
 20
-224.3
 10
37.35222325687904
 20
-224.3
 10
39.96620732480625
 20
-224.3
 10
42.810629566309615
 20
-224.3
 10
44.98240601743902
 20
-224.3
 10
45.792013
 20
-224.3
  0
LWPOLYLINE
  5
6D
330
17
100
AcDbEntity
  8
XZ_SIDE
100
AcDbPolyline
 90
12
 70
0
 10
78.707987
 20
-224.3
 10
77.89838001743902
 20
-224.3
 10
75.72660356630962
 20
-224.3
 10
72.88218132480624
 20
-224.3
 10
70.26819725687905
 20
-224.3
 10
68.71457283456607
 20
-224.3
 10
68.71457283456606
 20
-224.3
 10
70.26819725687905
 20
-224.3
 10
72.88218132480624
 20
-224.3
 10
75.72660356630962
 20
-224.3
 10
77.89838001743902
 20
-224.3
 10
78.707987
 20
-224.3
  0
LWPOLYLINE
  5
6E
330
17
100
AcDbEntity
  8
XZ_SIDE
100
AcDbPolyline
 90
71
 70
0
 10
101.15
 20
-218.3
 10
100.97286893579052
 20
-218.3
 10
100.4429018983397
 20
-218.3
 10
99.56436587061754
 20
-218.3
 10
98.34433430814843
 20
-218.3
 10
96.79263018770644
 20
-218.3
 10
94.92174691848211
 20
-218.3
 10
92.7467477524977
 20
-218.3
 10
90.28514450415888
 20
-218.3
 10
87.55675655542206
 20
-218.3
 10
84.58355128178428
 20
-218.3
 10
81.38946718389252
 20
-218.3
 10
78.00022114881195
 20
-218.3
 10
74.44310139277263
 20
-218.3
 10
70.74674775249768
 20
-218.3
 10
66.94092109407785
 20
-218.3
 10
63.05626369597685
 20
-218.3
 10
59.12405253542267
 20
-218.3
 10
55.175947464577355
 20
-218.3
 10
51.24373630402317
 20
-218.3
 10
47.359078905922175
 20
-218.3
 10
43.55325224750233
 20
-218.3
 10
39.85689860722737
 20
-218.3
 10
36.29977885118808
 20
-218.3
 10
32.910532816107505
 20
-218.3
 10
29.71644871821574
 20
-218.3
 10
26.743243444577953
 20
-218.3
 10
24.01485549584112
 20
-218.3
 10
21.553252247502314
 20
-218.3
 10
19.37825308151789
 20
-218.3
 10
17.507369812293568
 20
-218.3
 10
15.955665691851571
 20
-218.3
 10
14.735634129382461
 20
-218.3
 10
13.857098101660299
 20
-218.3
 10
13.327131064209482
 20
-218.3
 10
13.149999999999999
 20
-218.3
 10
13.327131064209482
 20
-218.3
 10
13.857098101660291
 20
-218.3
 10
14.735634129382447
 20
-218.3
 10
15.95566569185155
 20
-218.3
 10
17.507369812293547
 20
-218.3
 10
19.378253081517876
 20
-218.3
 10
21.553252247502293
 20
-218.3
 10
24.014855495841104
 20
-218.3
 10
26.743243444577935
 20
-218.3
 10
29.71644871821572
 20
-218.3
 10
32.91053281610745
 20
-218.3
 10
36.299778851188016
 20
-218.3
 10
39.856898607227315
 20
-218.3
 10
43.553252247502265
 20
-218.3
 10
47.35907890592212
 20
-218.3
 10
51.24373630402311
 20
-218.3
 10
55.175947464577334
 20
-218.3
 10
59.12405253542261
 20
-218.3
 10
63.05626369597683
 20
-218.3
 10
66.94092109407782
 20
-218.3
 10
70.74674775249767
 20
-218.3
 10
74.44310139277263
 20
-218.3
 10
78.00022114881193
 20
-218.3
 10
81.38946718389249
 20
-218.3
 10
84.58355128178424
 20
-218.3
 10
87.55675655542204
 20
-218.3
 10
90.28514450415884
 20
-218.3
 10
92.74674775249768
 20
-218.3
 10
94.92174691848209
 20
-218.3
 10
96.79263018770642
 20
-218.3
 10
98.34433430814842
 20
-218.3
 10
99.56436587061754
 20
-218.3
 10
100.4429018983397
 20
-218.3
 10
100.97286893579052
 20
-218.3
 10
101.15
 20
-218.3
  0
LWPOLYLINE
  5
6F
330
17
100
AcDbEntity
  8
XZ_SIDE
100
AcDbPolyline
 90
2
 70
0
 10
35.620418
 20
-214.3
 10
35.620418
 20
-224.3
  0
LWPOLYLINE
  5
70
330
17
100
AcDbEntity
  8
XZ_SIDE
100
AcDbPolyline
 90
12
 70
0
 10
35.620418
 20
-214.3
 10
34.81081101743902
 20
-214.3
 10
32.63903456630962
 20
-214.3
 10
29.79461232480625
 20
-214.3
 10
27.180628256879046
 20
-214.3
 10
25.627003834566064
 20
-214.3
 10
25.62700383456606
 20
-214.3
 10
27.180628256879046
 20
-214.3
 10
29.794612324806245
 20
-214.3
 10
32.63903456630962
 20
-214.3
 10
34.81081101743902
 20
-214.3
 10
35.620418
 20
-214.3
  0
LWPOLYLINE
  5
71
330
17
100
AcDbEntity
  8
XZ_SIDE
100
AcDbPolyline
 90
2
 70
0
 10
62.25
 20
-214.3
 10
62.25
 20
-224.3
  0
LWPOLYLINE
  5
72
330
17
100
AcDbEntity
  8
XZ_SIDE
100
AcDbPolyline
 90
12
 70
0
 10
62.25
 20
-214.3
 10
61.44039301743902
 20
-214.3
 10
59.26861656630962
 20
-214.3
 10
56.424194324806244
 20
-214.3
 10
53.810210256879046
 20
-214.3
 10
52.25658583456606
 20
-214.3
 10
52.25658583456606
 20
-214.3
 10
53.810210256879046
 20
-214.3
 10
56.424194324806244
 20
-214.3
 10
59.26861656630962
 20
-214.3
 10
61.44039301743902
 20
-214.3
 10
62.25
 20
-214.3
  0
LWPOLYLINE
  5
73
330
17
100
AcDbEntity
  8
XZ_SIDE
100
AcDbPolyline
 90
2
 70
0
 10
88.879582
 20
-214.3
 10
88.879582
 20
-224.3
  0
LWPOLYLINE
  5
74
330
17
100
AcDbEntity
  8
XZ_SIDE
100
AcDbPolyline
 90
12
 70
0
 10
88.879582
 20
-214.3
 10
88.06997501743902
 20
-214.3
 10
85.89819856630962
 20
-214.3
 10
83.05377632480625
 20
-214.3
 10
80.43979225687904
 20
-214.3
 10
78.88616783456607
 20
-214.3
 10
78.88616783456607
 20
-214.3
 10
80.43979225687904
 20
-214.3
 10
83.05377632480625
 20
-214.3
 10
85.89819856630962
 20
-214.3
 10
88.06997501743902
 20
-214.3
 10
88.879582
 20
-214.3
  0
LWPOLYLINE
  5
75
330
17
100
AcDbEntity
  8
XZ_SIDE
100
AcDbPolyline
 90
2
 70
0
 10
45.792013
 20
-214.3
 10
45.792013
 20
-224.3
  0
LWPOLYLINE
  5
76
330
17
100
AcDbEntity
  8
XZ_SIDE
100
AcDbPolyline
 90
12
 70
0
 10
45.792013
 20
-214.3
 10
44.98240601743902
 20
-214.3
 10
42.81062956630962
 20
-214.3
 10
39.96620732480625
 20
-214.3
 10
37.35222325687904
 20
-214.3
 10
35.798598834566064
 20
-214.3
 10
35.798598834566064
 20
-214.3
 10
37.35222325687904
 20
-214.3
 10
39.96620732480625
 20
-214.3
 10
42.810629566309615
 20
-214.3
 10
44.98240601743902
 20
-214.3
 10
45.792013
 20
-214.3
  0
LWPOLYLINE
  5
77
330
17
100
AcDbEntity
  8
XZ_SIDE
100
AcDbPolyline
 90
2
 70
0
 10
78.707987
 20
-214.3
 10
78.707987
 20
-224.3
  0
LWPOLYLINE
  5
78
330
17
100
AcDbEntity
  8
XZ_SIDE
100
AcDbPolyline
 90
12
 70
0
 10
78.707987
 20
-214.3
 10
77.89838001743902
 20
-214.3
 10
75.72660356630962
 20
-214.3
 10
72.88218132480624
 20
-214.3
 10
70.26819725687905
 20
-214.3
 10
68.71457283456607
 20
-214.3
 10
68.71457283456606
 20
-214.3
 10
70.26819725687905
 20
-214.3
 10
72.88218132480624
 20
-214.3
 10
75.72660356630962
 20
-214.3
 10
77.89838001743902
 20
-214.3
 10
78.707987
 20
-214.3
  0
LWPOLYLINE
  5
79
330
17
100
AcDbEntity
  8
XZ_SIDE
100
AcDbPolyline
 90
2
 70
0
 10
101.15
 20
-214.3
 10
101.15
 20
-218.3
  0
LWPOLYLINE
  5
7A
330
17
100
AcDbEntity
  8
XZ_SIDE
100
AcDbPolyline
 90
71
 70
0
 10
101.15
 20
-214.3
 10
100.97286893579052
 20
-214.3
 10
100.4429018983397
 20
-214.3
 10
99.56436587061754
 20
-214.3
 10
98.34433430814843
 20
-214.3
 10
96.79263018770644
 20
-214.3
 10
94.92174691848211
 20
-214.3
 10
92.7467477524977
 20
-214.3
 10
90.28514450415888
 20
-214.3
 10
87.55675655542206
 20
-214.3
 10
84.58355128178428
 20
-214.3
 10
81.38946718389252
 20
-214.3
 10
78.00022114881195
 20
-214.3
 10
74.44310139277263
 20
-214.3
 10
70.74674775249768
 20
-214.3
 10
66.94092109407785
 20
-214.3
 10
63.05626369597685
 20
-214.3
 10
59.12405253542267
 20
-214.3
 10
55.175947464577355
 20
-214.3
 10
51.24373630402317
 20
-214.3
 10
47.359078905922175
 20
-214.3
 10
43.55325224750233
 20
-214.3
 10
39.85689860722737
 20
-214.3
 10
36.29977885118808
 20
-214.3
 10
32.910532816107505
 20
-214.3
 10
29.71644871821574
 20
-214.3
 10
26.743243444577953
 20
-214.3
 10
24.01485549584112
 20
-214.3
 10
21.553252247502314
 20
-214.3
 10
19.37825308151789
 20
-214.3
 10
17.507369812293568
 20
-214.3
 10
15.955665691851571
 20
-214.3
 10
14.735634129382461
 20
-214.3
 10
13.857098101660299
 20
-214.3
 10
13.327131064209482
 20
-214.3
 10
13.149999999999999
 20
-214.3
 10
13.327131064209482
 20
-214.3
 10
13.857098101660291
 20
-214.3
 10
14.735634129382447
 20
-214.3
 10
15.95566569185155
 20
-214.3
 10
17.507369812293547
 20
-214.3
 10
19.378253081517876
 20
-214.3
 10
21.553252247502293
 20
-214.3
 10
24.014855495841104
 20
-214.3
 10
26.743243444577935
 20
-214.3
 10
29.71644871821572
 20
-214.3
 10
32.91053281610745
 20
-214.3
 10
36.299778851188016
 20
-214.3
 10
39.856898607227315
 20
-214.3
 10
43.553252247502265
 20
-214.3
 10
47.35907890592212
 20
-214.3
 10
51.24373630402311
 20
-214.3
 10
55.175947464577334
 20
-214.3
 10
59.12405253542261
 20
-214.3
 10
63.05626369597683
 20
-214.3
 10
66.94092109407782
 20
-214.3
 10
70.74674775249767
 20
-214.3
 10
74.44310139277263
 20
-214.3
 10
78.00022114881193
 20
-214.3
 10
81.38946718389249
 20
-214.3
 10
84.58355128178424
 20
-214.3
 10
87.55675655542204
 20
-214.3
 10
90.28514450415884
 20
-214.3
 10
92.74674775249768
 20
-214.3
 10
94.92174691848209
 20
-214.3
 10
96.79263018770642
 20
-214.3
 10
98.34433430814842
 20
-214.3
 10
99.56436587061754
 20
-214.3
 10
100.4429018983397
 20
-214.3
 10
100.97286893579052
 20
-214.3
 10
101.15
 20
-214.3
  0
DIMENSION
  5
7B
330
17
100
AcDbEntity
  8
DIMENSIONS
100
AcDbDimension
280
0
  2
*D3
  3
Standard
 10
0.0
 20
-249.3
 30
0.0
 11
57.15
 21
-249.3
 31
0.0
 70
32
 71
5
  1
<>
100
AcDbAlignedDimension
 13
0.0
 23
-224.3
 33
0.0
 14
114.3
 24
-224.3
 34
0.0
 50
0.0
100
AcDbRotatedDimension
1001
ACAD
1000
DSTYLE
1002
{
1070
140
1040
3.0
1070
41
1040
3.0
1070
271
1070
3
1002
}
  0
DIMENSION
  5
8B
330
17
100
AcDbEntity
  8
DIMENSIONS
100
AcDbDimension
280
0
  2
*D4
  3
Standard
 10
-25.0
 20
-224.3
 30
0.0
 11
-27.125
 21
-219.3
 31
0.0
 70
32
 71
5
  1
<>
100
AcDbAlignedDimension
 13
0.0
 23
-224.3
 33
0.0
 14
0.0
 24
-214.3
 34
0.0
 50
90.0
100
AcDbRotatedDimension
1001
ACAD
1000
DSTYLE
1002
{
1070
140
1040
3.0
1070
41
1040
3.0
1070
271
1070
3
1002
}
  0
LWPOLYLINE
  5
9A
330
17
100
AcDbEntity
  8
YZ_SIDE
100
AcDbPolyline
 90
91
 70
0
 10
271.45
 20
7.105427357601002e-15
 10
267.46341752552325
 20
7.105427357601002e-15
 10
263.4962572801323
 20
8.881784197001252e-15
 10
259.56784686976505
 20
8.881784197001252e-15
 10
255.6973251150585
 20
8.881784197001252e-15
 10
251.90354880893804
 20
8.881784197001252e-15
 10
248.20500084821805
 20
1.0658141036401503e-14
 10
244.61970018678636
 20
1.0658141036401503e-14
 10
241.16511404907234
 20
1.0658141036401503e-14
 10
237.85807283148517
 20
1.0658141036401503e-14
 10
234.7146881064143
 20
1.2434497875801753e-14
 10
231.7502741282683
 20
1.2434497875801753e-14
 10
228.9792732239669
 20
1.2434497875801753e-14
 10
226.41518543137585
 20
1.2434497875801753e-14
 10
224.07050272847937
 20
1.2434497875801753e-14
 10
221.95664817371934
 20
1.2434497875801753e-14
 10
220.08392025400263
 20
1.4210854715202004e-14
 10
218.4614427115081
 20
1.4210854715202004e-14
 10
217.09712009373197
 20
1.4210854715202004e-14
 10
215.99759924332682
 20
1.4210854715202004e-14
 10
215.16823691535234
 20
1.4210854715202004e-14
 10
214.61307367970318
 20
1.4210854715202004e-14
 10
214.3348142358587
 20
1.4210854715202004e-14
 10
214.3348142358587
 20
1.4210854715202004e-14
 10
214.61307367970318
 20
1.4210854715202004e-14
 10
215.16823691535234
 20
1.4210854715202004e-14
 10
215.99759924332682
 20
1.4210854715202004e-14
 10
217.09712009373197
 20
1.4210854715202004e-14
 10
218.4614427115081
 20
1.4210854715202004e-14
 10
220.08392025400263
 20
1.4210854715202004e-14
 10
221.95664817371934
 20
1.2434497875801753e-14
 10
224.07050272847937
 20
1.2434497875801753e-14
 10
226.41518543137585
 20
1.2434497875801753e-14
 10
228.9792732239669
 20
1.2434497875801753e-14
 10
231.7502741282683
 20
1.2434497875801753e-14
 10
234.71468810641431
 20
1.2434497875801753e-14
 10
237.85807283148517
 20
1.0658141036401503e-14
 10
241.16511404907234
 20
1.0658141036401503e-14
 10
244.61970018678633
 20
1.0658141036401503e-14
 10
248.20500084821805
 20
1.0658141036401503e-14
 10
251.90354880893804
 20
8.881784197001252e-15
 10
255.69732511505848
 20
8.881784197001252e-15
 10
259.56784686976505
 20
8.881784197001252e-15
 10
263.4962572801323
 20
8.881784197001252e-15
 10
267.46341752552325
 20
7.105427357601002e-15
 10
271.45
 20
7.105427357601002e-15
 10
275.4365824744768
 20
7.105427357601002e-15
 10
279.40374271986775
 20
5.329070518200751e-15
 10
283.33215313023493
 20
5.329070518200751e-15
 10
287.20267488494153
 20
5.329070518200751e-15
 10
290.99645119106196
 20
5.329070518200751e-15
 10
294.694999151782
 20
3.552713678800501e-15
 10
298.2802998132137
 20
3.552713678800501e-15
 10
301.7348859509277
 20
3.552713678800501e-15
 10
305.04192716851486
 20
3.552713678800501e-15
 10
308.1853118935857
 20
1.7763568394002505e-15
 10
311.1497258717317
 20
1.7763568394002505e-15
 10
313.92072677603306
 20
1.7763568394002505e-15
 10
316.4848145686242
 20
1.7763568394002505e-15
 10
318.82949727152067
 20
1.7763568394002505e-15
 10
320.94335182628066
 20
1.7763568394002505e-15
 10
322.8160797459974
 20
0.0
 10
324.4385572884919
 20
0.0
 10
325.802879906268
 20
0.0
 10
326.9024007566732
 20
0.0
 10
327.7317630846477
 20
0.0
 10
328.28692632029686
 20
0.0
 10
328.56518576414135
 20
0.0
 10
328.56518576414135
 20
0.0
 10
328.28692632029686
 20
0.0
 10
327.7317630846477
 20
0.0
 10
326.9024007566732
 20
0.0
 10
325.802879906268
 20
0.0
 10
324.4385572884919
 20
0.0
 10
322.8160797459974
 20
0.0
 10
320.94335182628066
 20
1.7763568394002505e-15
 10
318.82949727152067
 20
1.7763568394002505e-15
 10
316.4848145686242
 20
1.7763568394002505e-15
 10
313.92072677603306
 20
1.7763568394002505e-15
 10
311.14972587173173
 20
1.7763568394002505e-15
 10
308.1853118935858
 20
1.7763568394002505e-15
 10
305.0419271685148
 20
3.552713678800501e-15
 10
301.7348859509277
 20
3.552713678800501e-15
 10
298.2802998132137
 20
3.552713678800501e-15
 10
294.694999151782
 20
3.552713678800501e-15
 10
290.99645119106196
 20
5.329070518200751e-15
 10
287.20267488494153
 20
5.329070518200751e-15
 10
283.33215313023493
 20
5.329070518200751e-15
 10
279.40374271986775
 20
5.329070518200751e-15
 10
275.4365824744768
 20
7.105427357601002e-15
 10
271.45000000000005
 20
7.105427357601002e-15
  0
LWPOLYLINE
  5
9B
330
17
100
AcDbEntity
  8
YZ_SIDE
100
AcDbPolyline
 90
2
 70
0
 10
271.45000000000005
 20
6.000000000000007
 10
271.45000000000005
 20
7.105427357601002e-15
  0
LWPOLYLINE
  5
9C
330
17
100
AcDbEntity
  8
YZ_SIDE
100
AcDbPolyline
 90
91
 70
0
 10
271.45
 20
6.000000000000007
 10
267.46341752552325
 20
6.000000000000008
 10
263.4962572801323
 20
6.000000000000008
 10
259.56784686976505
 20
6.000000000000009
 10
255.6973251150585
 20
6.000000000000009
 10
251.90354880893804
 20
6.00000000000001
 10
248.20500084821805
 20
6.00000000000001
 10
244.61970018678636
 20
6.000000000000011
 10
241.16511404907234
 20
6.000000000000011
 10
237.85807283148517
 20
6.0000000000000115
 10
234.7146881064143
 20
6.0000000000000115
 10
231.7502741282683
 20
6.0000000000000115
 10
228.9792732239669
 20
6.000000000000012
 10
226.41518543137585
 20
6.000000000000012
 10
224.07050272847937
 20
6.000000000000013
 10
221.95664817371934
 20
6.000000000000013
 10
220.08392025400263
 20
6.000000000000013
 10
218.4614427115081
 20
6.000000000000013
 10
217.09712009373197
 20
6.000000000000013
 10
215.99759924332682
 20
6.000000000000014
 10
215.16823691535234
 20
6.000000000000014
 10
214.61307367970318
 20
6.000000000000014
 10
214.3348142358587
 20
6.000000000000014
 10
214.3348142358587
 20
6.000000000000014
 10
214.61307367970318
 20
6.000000000000014
 10
215.16823691535234
 20
6.000000000000014
 10
215.99759924332682
 20
6.000000000000014
 10
217.09712009373197
 20
6.000000000000013
 10
218.4614427115081
 20
6.000000000000013
 10
220.08392025400263
 20
6.000000000000013
 10
221.95664817371934
 20
6.000000000000013
 10
224.07050272847937
 20
6.000000000000013
 10
226.41518543137585
 20
6.000000000000012
 10
228.9792732239669
 20
6.000000000000012
 10
231.7502741282683
 20
6.0000000000000115
 10
234.71468810641431
 20
6.0000000000000115
 10
237.85807283148517
 20
6.0000000000000115
 10
241.16511404907234
 20
6.000000000000011
 10
244.61970018678633
 20
6.000000000000011
 10
248.20500084821805
 20
6.00000000000001
 10
251.90354880893804
 20
6.00000000000001
 10
255.69732511505848
 20
6.000000000000009
 10
259.56784686976505
 20
6.000000000000009
 10
263.4962572801323
 20
6.000000000000008
 10
267.46341752552325
 20
6.000000000000008
 10
271.45
 20
6.000000000000007
 10
275.4365824744768
 20
6.000000000000006
 10
279.40374271986775
 20
6.000000000000006
 10
283.33215313023493
 20
6.000000000000005
 10
287.20267488494153
 20
6.000000000000005
 10
290.99645119106196
 20
6.000000000000004
 10
294.694999151782
 20
6.000000000000004
 10
298.2802998132137
 20
6.0000000000000036
 10
301.7348859509277
 20
6.0000000000000036
 10
305.04192716851486
 20
6.000000000000003
 10
308.1853118935857
 20
6.000000000000003
 10
311.1497258717317
 20
6.000000000000003
 10
313.92072677603306
 20
6.000000000000002
 10
316.4848145686242
 20
6.000000000000002
 10
318.82949727152067
 20
6.000000000000001
 10
320.94335182628066
 20
6.000000000000001
 10
322.8160797459974
 20
6.000000000000001
 10
324.4385572884919
 20
6.000000000000001
 10
325.802879906268
 20
6.000000000000001
 10
326.9024007566732
 20
6.0
 10
327.7317630846477
 20
6.0
 10
328.28692632029686
 20
6.0
 10
328.56518576414135
 20
6.0
 10
328.56518576414135
 20
6.0
 10
328.28692632029686
 20
6.0
 10
327.7317630846477
 20
6.0
 10
326.9024007566732
 20
6.0
 10
325.802879906268
 20
6.000000000000001
 10
324.4385572884919
 20
6.000000000000001
 10
322.8160797459974
 20
6.000000000000001
 10
320.94335182628066
 20
6.000000000000001
 10
318.82949727152067
 20
6.000000000000001
 10
316.4848145686242
 20
6.000000000000002
 10
313.92072677603306
 20
6.000000000000002
 10
311.14972587173173
 20
6.000000000000003
 10
308.1853118935858
 20
6.000000000000003
 10
305.0419271685148
 20
6.000000000000003
 10
301.7348859509277
 20
6.0000000000000036
 10
298.2802998132137
 20
6.0000000000000036
 10
294.694999151782
 20
6.000000000000004
 10
290.99645119106196
 20
6.000000000000004
 10
287.20267488494153
 20
6.000000000000005
 10
283.33215313023493
 20
6.000000000000005
 10
279.40374271986775
 20
6.000000000000006
 10
275.4365824744768
 20
6.000000000000006
 10
271.45000000000005
 20
6.000000000000007
  0
LWPOLYLINE
  5
9D
330
17
100
AcDbEntity
  8
YZ_SIDE
100
AcDbPolyline
 90
12
 70
0
 10
280.102476
 20
7.105427357601002e-15
 10
277.34520783097645
 20
7.105427357601002e-15
 10
275.46335282369193
 20
7.105427357601002e-15
 10
275.05438664640724
 20
7.105427357601002e-15
 10
276.2481531707933
 20
7.105427357601002e-15
 10
278.6656399601087
 20
7.105427357601002e-15
 10
281.5393120398913
 20
7.105427357601002e-15
 10
283.9567988292067
 20
7.105427357601002e-15
 10
285.15056535359275
 20
7.105427357601002e-15
 10
284.74159917630806
 20
7.105427357601002e-15
 10
282.85974416902354
 20
7.105427357601002e-15
 10
280.102476
 20
7.105427357601002e-15
  0
LWPOLYLINE
  5
9E
330
17
100
AcDbEntity
  8
YZ_SIDE
100
AcDbPolyline
 90
12
 70
0
 10
299.45000000000005
 20
3.552713678800501e-15
 10
296.69273183097647
 20
3.552713678800501e-15
 10
294.81087682369196
 20
3.552713678800501e-15
 10
294.40191064640726
 20
3.552713678800501e-15
 10
295.5956771707933
 20
3.552713678800501e-15
 10
298.0131639601087
 20
3.552713678800501e-15
 10
300.8868360398913
 20
3.552713678800501e-15
 10
303.30432282920674
 20
3.552713678800501e-15
 10
304.4980893535928
 20
3.552713678800501e-15
 10
304.089123176308
 20
3.552713678800501e-15
 10
302.20726816902356
 20
3.552713678800501e-15
 10
299.45000000000005
 20
3.552713678800501e-15
  0
LWPOLYLINE
  5
9F
330
17
100
AcDbEntity
  8
YZ_SIDE
100
AcDbPolyline
 90
12
 70
0
 10
280.102476
 20
7.105427357601002e-15
 10
277.34520783097645
 20
7.105427357601002e-15
 10
275.46335282369193
 20
7.105427357601002e-15
 10
275.05438664640724
 20
7.105427357601002e-15
 10
276.2481531707933
 20
7.105427357601002e-15
 10
278.6656399601087
 20
7.105427357601002e-15
 10
281.5393120398913
 20
7.105427357601002e-15
 10
283.9567988292067
 20
7.105427357601002e-15
 10
285.15056535359275
 20
7.105427357601002e-15
 10
284.74159917630806
 20
7.105427357601002e-15
 10
282.85974416902354
 20
7.105427357601002e-15
 10
280.102476
 20
7.105427357601002e-15
  0
LWPOLYLINE
  5
A0
330
17
100
AcDbEntity
  8
YZ_SIDE
100
AcDbPolyline
 90
12
 70
0
 10
248.797524
 20
1.0658141036401503e-14
 10
246.04025583097646
 20
1.0658141036401503e-14
 10
244.15840082369198
 20
1.0658141036401503e-14
 10
243.74943464640725
 20
1.0658141036401503e-14
 10
244.9432011707933
 20
1.0658141036401503e-14
 10
247.36068796010872
 20
1.0658141036401503e-14
 10
250.2343600398913
 20
1.0658141036401503e-14
 10
252.65184682920673
 20
1.0658141036401503e-14
 10
253.84561335359277
 20
1.0658141036401503e-14
 10
253.43664717630804
 20
1.0658141036401503e-14
 10
251.55479216902356
 20
1.0658141036401503e-14
 10
248.797524
 20
1.0658141036401503e-14
  0
LWPOLYLINE
  5
A1
330
17
100
AcDbEntity
  8
YZ_SIDE
100
AcDbPolyline
 90
12
 70
0
 10
248.797524
 20
1.0658141036401503e-14
 10
246.04025583097646
 20
1.0658141036401503e-14
 10
244.15840082369198
 20
1.0658141036401503e-14
 10
243.74943464640725
 20
1.0658141036401503e-14
 10
244.9432011707933
 20
1.0658141036401503e-14
 10
247.36068796010872
 20
1.0658141036401503e-14
 10
250.2343600398913
 20
1.0658141036401503e-14
 10
252.65184682920673
 20
1.0658141036401503e-14
 10
253.84561335359277
 20
1.0658141036401503e-14
 10
253.43664717630804
 20
1.0658141036401503e-14
 10
251.55479216902356
 20
1.0658141036401503e-14
 10
248.797524
 20
1.0658141036401503e-14
  0
LWPOLYLINE
  5
A2
330
17
100
AcDbEntity
  8
YZ_SIDE
100
AcDbPolyline
 90
71
 70
0
 10
271.45
 20
6.000000000000007
 10
267.50587040824894
 20
6.000000000000008
 10
263.59349662886
 20
6.000000000000008
 10
259.7443787950663
 20
6.000000000000009
 10
255.98950774042095
 20
6.000000000000009
 10
252.35911547882745
 20
6.00000000000001
 10
248.88243179414013
 20
6.00000000000001
 10
245.5874488991312
 20
6.000000000000011
 10
242.50069605865266
 20
6.000000000000011
 10
239.64702599159477
 20
6.000000000000011
 10
237.0494147714067
 20
6.0000000000000115
 10
234.72877683626268
 20
6.0000000000000115
 10
232.70379659830354
 20
6.0000000000000115
 10
230.9907780077362
 20
6.000000000000012
 10
229.60351328301326
 20
6.000000000000012
 10
228.55317186399978
 20
6.000000000000012
 10
227.84821048221087
 20
6.000000000000012
 10
227.49430507218216
 20
6.000000000000012
 10
227.49430507218216
 20
6.000000000000012
 10
227.84821048221087
 20
6.000000000000012
 10
228.55317186399978
 20
6.000000000000012
 10
229.60351328301326
 20
6.000000000000012
 10
230.99077800773617
 20
6.000000000000012
 10
232.70379659830354
 20
6.0000000000000115
 10
234.72877683626268
 20
6.0000000000000115
 10
237.04941477140667
 20
6.0000000000000115
 10
239.64702599159477
 20
6.000000000000011
 10
242.50069605865264
 20
6.000000000000011
 10
245.58744889913118
 20
6.000000000000011
 10
248.88243179414013
 20
6.00000000000001
 10
252.35911547882745
 20
6.00000000000001
 10
255.9895077404209
 20
6.000000000000009
 10
259.74437879506627
 20
6.000000000000009
 10
263.59349662885995
 20
6.000000000000008
 10
267.50587040824894
 20
6.000000000000008
 10
271.45
 20
6.000000000000007
 10
275.39412959175104
 20
6.000000000000006
 10
279.30650337114
 20
6.000000000000006
 10
283.1556212049337
 20
6.000000000000005
 10
286.9104922595791
 20
6.000000000000005
 10
290.54088452117253
 20
6.000000000000004
 10
294.01756820585985
 20
6.000000000000004
 10
297.3125511008688
 20
6.0000000000000036
 10
300.39930394134734
 20
6.0000000000000036
 10
303.2529740084052
 20
6.0000000000000036
 10
305.85058522859333
 20
6.000000000000003
 10
308.1712231637373
 20
6.000000000000003
 10
310.1962034016965
 20
6.000000000000003
 10
311.90922199226384
 20
6.000000000000002
 10
313.29648671698675
 20
6.000000000000002
 10
314.3468281360002
 20
6.000000000000002
 10
315.05178951778913
 20
6.000000000000002
 10
315.4056949278179
 20
6.000000000000002
 10
315.4056949278179
 20
6.000000000000002
 10
315.05178951778913
 20
6.000000000000002
 10
314.3468281360002
 20
6.000000000000002
 10
313.2964867169868
 20
6.000000000000002
 10
311.90922199226384
 20
6.000000000000002
 10
310.1962034016965
 20
6.000000000000003
 10
308.1712231637373
 20
6.000000000000003
 10
305.85058522859333
 20
6.000000000000003
 10
303.25297400840526
 20
6.0000000000000036
 10
300.3993039413474
 20
6.0000000000000036
 10
297.31255110086886
 20
6.0000000000000036
 10
294.0175682058599
 20
6.000000000000004
 10
290.54088452117264
 20
6.000000000000004
 10
286.91049225957914
 20
6.000000000000005
 10
283.1556212049337
 20
6.000000000000005
 10
279.3065033711401
 20
6.000000000000006
 10
275.3941295917511
 20
6.000000000000006
 10
271.45000000000005
 20
6.000000000000007
  0
LWPOLYLINE
  5
A3
330
17
100
AcDbEntity
  8
YZ_SIDE
100
AcDbPolyline
 90
2
 70
0
 10
280.102476
 20
10.000000000000007
 10
280.102476
 20
7.105427357601002e-15
  0
LWPOLYLINE
  5
A4
330
17
100
AcDbEntity
  8
YZ_SIDE
100
AcDbPolyline
 90
12
 70
0
 10
280.102476
 20
10.000000000000007
 10
277.34520783097645
 20
10.000000000000007
 10
275.46335282369193
 20
10.000000000000007
 10
275.05438664640724
 20
10.000000000000007
 10
276.2481531707933
 20
10.000000000000007
 10
278.6656399601087
 20
10.000000000000007
 10
281.5393120398913
 20
10.000000000000007
 10
283.9567988292067
 20
10.000000000000005
 10
285.15056535359275
 20
10.000000000000005
 10
284.74159917630806
 20
10.000000000000005
 10
282.85974416902354
 20
10.000000000000005
 10
280.102476
 20
10.000000000000007
  0
LWPOLYLINE
  5
A5
330
17
100
AcDbEntity
  8
YZ_SIDE
100
AcDbPolyline
 90
2
 70
0
 10
299.45000000000005
 20
10.000000000000004
 10
299.45000000000005
 20
3.552713678800501e-15
  0
LWPOLYLINE
  5
A6
330
17
100
AcDbEntity
  8
YZ_SIDE
100
AcDbPolyline
 90
12
 70
0
 10
299.45000000000005
 20
10.000000000000004
 10
296.69273183097647
 20
10.000000000000004
 10
294.81087682369196
 20
10.000000000000004
 10
294.40191064640726
 20
10.000000000000004
 10
295.5956771707933
 20
10.000000000000004
 10
298.0131639601087
 20
10.000000000000004
 10
300.8868360398913
 20
10.000000000000004
 10
303.30432282920674
 20
10.000000000000004
 10
304.4980893535928
 20
10.000000000000004
 10
304.089123176308
 20
10.000000000000004
 10
302.20726816902356
 20
10.000000000000004
 10
299.45000000000005
 20
10.000000000000004
  0
LWPOLYLINE
  5
A7
330
17
100
AcDbEntity
  8
YZ_SIDE
100
AcDbPolyline
 90
2
 70
0
 10
280.102476
 20
10.000000000000007
 10
280.102476
 20
7.105427357601002e-15
  0
LWPOLYLINE
  5
A8
330
17
100
AcDbEntity
  8
YZ_SIDE
100
AcDbPolyline
 90
12
 70
0
 10
280.102476
 20
10.000000000000007
 10
277.34520783097645
 20
10.000000000000007
 10
275.46335282369193
 20
10.000000000000007
 10
275.05438664640724
 20
10.000000000000007
 10
276.2481531707933
 20
10.000000000000007
 10
278.6656399601087
 20
10.000000000000007
 10
281.5393120398913
 20
10.000000000000007
 10
283.9567988292067
 20
10.000000000000005
 10
285.15056535359275
 20
10.000000000000005
 10
284.74159917630806
 20
10.000000000000005
 10
282.85974416902354
 20
10.000000000000005
 10
280.102476
 20
10.000000000000007
  0
LWPOLYLINE
  5
A9
330
17
100
AcDbEntity
  8
YZ_SIDE
100
AcDbPolyline
 90
2
 70
0
 10
248.797524
 20
10.00000000000001
 10
248.797524
 20
1.0658141036401503e-14
  0
LWPOLYLINE
  5
AA
330
17
100
AcDbEntity
  8
YZ_SIDE
100
AcDbPolyline
 90
12
 70
0
 10
248.797524
 20
10.00000000000001
 10
246.04025583097646
 20
10.00000000000001
 10
244.15840082369198
 20
10.00000000000001
 10
243.74943464640725
 20
10.00000000000001
 10
244.9432011707933
 20
10.00000000000001
 10
247.36068796010872
 20
10.00000000000001
 10
250.2343600398913
 20
10.00000000000001
 10
252.65184682920673
 20
10.000000000000009
 10
253.84561335359277
 20
10.000000000000009
 10
253.43664717630804
 20
10.000000000000009
 10
251.55479216902356
 20
10.000000000000009
 10
248.797524
 20
10.00000000000001
  0
LWPOLYLINE
  5
AB
330
17
100
AcDbEntity
  8
YZ_SIDE
100
AcDbPolyline
 90
2
 70
0
 10
248.797524
 20
10.00000000000001
 10
248.797524
 20
1.0658141036401503e-14
  0
LWPOLYLINE
  5
AC
330
17
100
AcDbEntity
  8
YZ_SIDE
100
AcDbPolyline
 90
12
 70
0
 10
248.797524
 20
10.00000000000001
 10
246.04025583097646
 20
10.00000000000001
 10
244.15840082369198
 20
10.00000000000001
 10
243.74943464640725
 20
10.00000000000001
 10
244.9432011707933
 20
10.00000000000001
 10
247.36068796010872
 20
10.00000000000001
 10
250.2343600398913
 20
10.00000000000001
 10
252.65184682920673
 20
10.000000000000009
 10
253.84561335359277
 20
10.000000000000009
 10
253.43664717630804
 20
10.000000000000009
 10
251.55479216902356
 20
10.000000000000009
 10
248.797524
 20
10.00000000000001
  0
LWPOLYLINE
  5
AD
330
17
100
AcDbEntity
  8
YZ_SIDE
100
AcDbPolyline
 90
2
 70
0
 10
271.45000000000005
 20
10.000000000000007
 10
271.45000000000005
 20
6.000000000000007
  0
LWPOLYLINE
  5
AE
330
17
100
AcDbEntity
  8
YZ_SIDE
100
AcDbPolyline
 90
71
 70
0
 10
271.45
 20
10.000000000000007
 10
267.50587040824894
 20
10.000000000000007
 10
263.59349662886
 20
10.000000000000007
 10
259.7443787950663
 20
10.000000000000009
 10
255.98950774042095
 20
10.000000000000009
 10
252.35911547882745
 20
10.000000000000009
 10
248.88243179414013
 20
10.00000000000001
 10
245.5874488991312
 20
10.00000000000001
 10
242.50069605865266
 20
10.00000000000001
 10
239.64702599159477
 20
10.00000000000001
 10
237.0494147714067
 20
10.00000000000001
 10
234.72877683626268
 20
10.00000000000001
 10
232.70379659830354
 20
10.000000000000012
 10
230.9907780077362
 20
10.000000000000012
 10
229.60351328301326
 20
10.000000000000012
 10
228.55317186399978
 20
10.000000000000012
 10
227.84821048221087
 20
10.000000000000012
 10
227.49430507218216
 20
10.000000000000012
 10
227.49430507218216
 20
10.000000000000012
 10
227.84821048221087
 20
10.000000000000012
 10
228.55317186399978
 20
10.000000000000012
 10
229.60351328301326
 20
10.000000000000012
 10
230.99077800773617
 20
10.000000000000012
 10
232.70379659830354
 20
10.000000000000012
 10
234.72877683626268
 20
10.00000000000001
 10
237.04941477140667
 20
10.00000000000001
 10
239.64702599159477
 20
10.00000000000001
 10
242.50069605865264
 20
10.00000000000001
 10
245.58744889913118
 20
10.00000000000001
 10
248.88243179414013
 20
10.00000000000001
 10
252.35911547882745
 20
10.000000000000009
 10
255.9895077404209
 20
10.000000000000009
 10
259.74437879506627
 20
10.000000000000009
 10
263.59349662885995
 20
10.000000000000007
 10
267.50587040824894
 20
10.000000000000007
 10
271.45
 20
10.000000000000007
 10
275.39412959175104
 20
10.000000000000007
 10
279.30650337114
 20
10.000000000000007
 10
283.1556212049337
 20
10.000000000000005
 10
286.9104922595791
 20
10.000000000000005
 10
290.54088452117253
 20
10.000000000000005
 10
294.01756820585985
 20
10.000000000000004
 10
297.3125511008688
 20
10.000000000000004
 10
300.39930394134734
 20
10.000000000000004
 10
303.2529740084052
 20
10.000000000000004
 10
305.85058522859333
 20
10.000000000000004
 10
308.1712231637373
 20
10.000000000000004
 10
310.1962034016965
 20
10.000000000000002
 10
311.90922199226384
 20
10.000000000000002
 10
313.29648671698675
 20
10.000000000000002
 10
314.3468281360002
 20
10.000000000000002
 10
315.05178951778913
 20
10.000000000000002
 10
315.4056949278179
 20
10.000000000000002
 10
315.4056949278179
 20
10.000000000000002
 10
315.05178951778913
 20
10.000000000000002
 10
314.3468281360002
 20
10.000000000000002
 10
313.2964867169868
 20
10.000000000000002
 10
311.90922199226384
 20
10.000000000000002
 10
310.1962034016965
 20
10.000000000000002
 10
308.1712231637373
 20
10.000000000000004
 10
305.85058522859333
 20
10.000000000000004
 10
303.25297400840526
 20
10.000000000000004
 10
300.3993039413474
 20
10.000000000000004
 10
297.31255110086886
 20
10.000000000000004
 10
294.0175682058599
 20
10.000000000000004
 10
290.54088452117264
 20
10.000000000000005
 10
286.91049225957914
 20
10.000000000000005
 10
283.1556212049337
 20
10.000000000000005
 10
279.3065033711401
 20
10.000000000000007
 10
275.3941295917511
 20
10.000000000000007
 10
271.45000000000005
 20
10.000000000000007
  0
DIMENSION
  5
AF
330
17
100
AcDbEntity
  8
DIMENSIONS
100
AcDbDimension
280
0
  2
*D5
  3
Standard
 10
214.3
 20
-25.0
 30
0.0
 11
271.45000000000005
 21
-25.0
 31
0.0
 70
32
 71
5
  1
<>
100
AcDbAlignedDimension
 13
214.3
 23
0.0
 33
0.0
 14
328.6
 24
0.0
 34
0.0
 50
0.0
100
AcDbRotatedDimension
1001
ACAD
1000
DSTYLE
1002
{
1070
140
1040
3.0
1070
41
1040
3.0
1070
271
1070
3
1002
}
  0
DIMENSION
  5
BF
330
17
100
AcDbEntity
  8
DIMENSIONS
100
AcDbDimension
280
0
  2
*D6
  3
Standard
 10
189.3
 20
0.0
 30
0.0
 11
187.175
 21
5.000000000000006
 31
0.0
 70
32
 71
5
  1
<>
100
AcDbAlignedDimension
 13
214.3
 23
0.0
 33
0.0
 14
214.3
 24
10.000000000000012
 34
0.0
 50
90.0
100
AcDbRotatedDimension
1001
ACAD
1000
DSTYLE
1002
{
1070
140
1040
3.0
1070
41
1040
3.0
1070
271
1070
3
1002
}
  0
TEXT
  5
CE
330
17
100
AcDbEntity
  8
NOTES
100
AcDbText
 10
0.0
 20
-294.3
 30
0.0
 40
3.0
  1
V3_AFT_CAP_5_M10_AL6061 / Poseidon Trident by Intrface / HW-CAND-3.0 / mm
100
AcDbText
  0
TEXT
  5
CF
330
17
100
AcDbEntity
  8
NOTES
100
AcDbText
 10
0.0
 20
-301.3
 30
0.0
 40
3.0
  1
NON-ADOPTED DIGITAL CANDIDATE; NO BUILD OR PRESSURE RELEASE
100
AcDbText
  0
TEXT
  5
D0
330
17
100
AcDbEntity
  8
NOTES
100
AcDbText
 10
0.0
 20
-308.3
 30
0.0
 40
3.0
  1
Three orthographic wireframe projections; sampled curves. STEP is exact. Do not scale a render.
100
AcDbText
  0
TEXT
  5
D1
330
17
100
AcDbEntity
  8
NOTES
100
AcDbText
 10
0.0
 20
-315.3
 30
0.0
 40
3.0
  1
cad/v3_proxy.py:aft_cap
100
AcDbText
  0
TEXT
  5
D2
330
17
100
AcDbEntity
  8
NOTES
100
AcDbText
 10
0.0
 20
-322.3
 30
0.0
 40
3.0
  1
Dimension origins use modeled bounds; vendor BRep details keep source authority and revision conflicts.
100
AcDbText
  0
TEXT
  5
D3
330
17
100
AcDbEntity
  8
NOTES
100
AcDbText
 10
0.0
 20
-329.3
 30
0.0
 40
3.0
  1
All physical gates unperformed. Dome material is POLYCARBONATE, not acrylic.
100
AcDbText
  0
ENDSEC
  0
SECTION
  2
OBJECTS
  0
DICTIONARY
  5
A
330
0
100
AcDbDictionary
281
1
  3
ACAD_COLOR
350
B
  3
ACAD_GROUP
350
C
  3
ACAD_LAYOUT
350
D
  3
ACAD_MATERIAL
350
E
  3
ACAD_MLEADERSTYLE
350
F
  3
ACAD_MLINESTYLE
350
10
  3
ACAD_PLOTSETTINGS
350
11
  3
ACAD_PLOTSTYLENAME
350
12
  3
ACAD_SCALELIST
350
14
  3
ACAD_TABLESTYLE
350
15
  3
ACAD_VISUALSTYLE
350
16
  3
EZDXF_META
350
2D
  0
DICTIONARY
  5
B
330
A
100
AcDbDictionary
281
1
  0
DICTIONARY
  5
C
330
A
100
AcDbDictionary
281
1
  0
DICTIONARY
  5
D
330
A
100
AcDbDictionary
281
1
  3
Model
350
1A
  3
Layout1
350
1E
  0
DICTIONARY
  5
E
330
A
100
AcDbDictionary
281
1
  3
ByBlock
350
1F
  3
ByLayer
350
20
  3
Global
350
21
  0
DICTIONARY
  5
F
330
A
100
AcDbDictionary
281
1
  3
Standard
350
2C
  0
DICTIONARY
  5
10
330
A
100
AcDbDictionary
281
1
  3
Standard
350
22
  0
DICTIONARY
  5
11
330
A
100
AcDbDictionary
281
1
  0
ACDBDICTIONARYWDFLT
  5
12
330
A
100
AcDbDictionary
281
1
  3
Normal
350
13
100
AcDbDictionaryWithDefault
340
13
  0
ACDBPLACEHOLDER
  5
13
330
12
  0
DICTIONARY
  5
14
330
A
100
AcDbDictionary
281
1
  0
DICTIONARY
  5
15
330
A
100
AcDbDictionary
281
1
  0
DICTIONARY
  5
16
330
A
100
AcDbDictionary
281
1
  0
LAYOUT
  5
1A
330
D
100
AcDbPlotSettings
  1

  4
A3
  6

 40
7.5
 41
20.0
 42
7.5
 43
20.0
 44
420.0
 45
297.0
 46
0.0
 47
0.0
 48
0.0
 49
0.0
140
0.0
141
0.0
142
1.0
143
1.0
 70
1024
 72
1
 73
0
 74
5
  7

 75
16
 76
0
 77
2
 78
300
147
1.0
148
0.0
149
0.0
100
AcDbLayout
  1
Model
 70
1
 71
0
 10
0.0
 20
0.0
 11
420.0
 21
297.0
 12
0.0
 22
0.0
 32
0.0
 14
1e+20
 24
1e+20
 34
1e+20
 15
-1e+20
 25
-1e+20
 35
-1e+20
146
0.0
 13
0.0
 23
0.0
 33
0.0
 16
1.0
 26
0.0
 36
0.0
 17
0.0
 27
1.0
 37
0.0
 76
1
330
17
  0
LAYOUT
  5
1E
330
D
100
AcDbPlotSettings
  1

  4
A3
  6

 40
7.5
 41
20.0
 42
7.5
 43
20.0
 44
420.0
 45
297.0
 46
0.0
 47
0.0
 48
0.0
 49
0.0
140
0.0
141
0.0
142
1.0
143
1.0
 70
0
 72
1
 73
0
 74
5
  7

 75
16
 76
0
 77
2
 78
300
147
1.0
148
0.0
149
0.0
100
AcDbLayout
  1
Layout1
 70
1
 71
1
 10
0.0
 20
0.0
 11
420.0
 21
297.0
 12
0.0
 22
0.0
 32
0.0
 14
1e+20
 24
1e+20
 34
1e+20
 15
-1e+20
 25
-1e+20
 35
-1e+20
146
0.0
 13
0.0
 23
0.0
 33
0.0
 16
1.0
 26
0.0
 36
0.0
 17
0.0
 27
1.0
 37
0.0
 76
1
330
1B
  0
MATERIAL
  5
1F
102
{ACAD_REACTORS
330
E
102
}
330
E
100
AcDbMaterial
  1
ByBlock
  2

 70
0
 40
1.0
 71
1
 41
1.0
 91
-1023410177
 42
1.0
 72
1
  3

 73
1
 74
1
 75
1
 44
0.5
 73
0
 45
1.0
 46
1.0
 77
1
  4

 78
1
 79
1
170
1
 48
1.0
171
1
  6

172
1
173
1
174
1
140
1.0
141
1.0
175
1
  7

176
1
177
1
178
1
143
1.0
179
1
  8

270
1
271
1
272
1
145
1.0
146
1.0
273
1
  9

274
1
275
1
276
1
 42
1.0
 72
1
  3

 73
1
 74
1
 75
1
 94
63
  0
MATERIAL
  5
20
102
{ACAD_REACTORS
330
E
102
}
330
E
100
AcDbMaterial
  1
ByLayer
  2

 70
0
 40
1.0
 71
1
 41
1.0
 91
-1023410177
 42
1.0
 72
1
  3

 73
1
 74
1
 75
1
 44
0.5
 73
0
 45
1.0
 46
1.0
 77
1
  4

 78
1
 79
1
170
1
 48
1.0
171
1
  6

172
1
173
1
174
1
140
1.0
141
1.0
175
1
  7

176
1
177
1
178
1
143
1.0
179
1
  8

270
1
271
1
272
1
145
1.0
146
1.0
273
1
  9

274
1
275
1
276
1
 42
1.0
 72
1
  3

 73
1
 74
1
 75
1
 94
63
  0
MATERIAL
  5
21
102
{ACAD_REACTORS
330
E
102
}
330
E
100
AcDbMaterial
  1
Global
  2

 70
0
 40
1.0
 71
1
 41
1.0
 91
-1023410177
 42
1.0
 72
1
  3

 73
1
 74
1
 75
1
 44
0.5
 73
0
 45
1.0
 46
1.0
 77
1
  4

 78
1
 79
1
170
1
 48
1.0
171
1
  6

172
1
173
1
174
1
140
1.0
141
1.0
175
1
  7

176
1
177
1
178
1
143
1.0
179
1
  8

270
1
271
1
272
1
145
1.0
146
1.0
273
1
  9

274
1
275
1
276
1
 42
1.0
 72
1
  3

 73
1
 74
1
 75
1
 94
63
  0
MLINESTYLE
  5
22
102
{ACAD_REACTORS
330
10
102
}
330
10
100
AcDbMlineStyle
  2
Standard
 70
0
  3

 62
256
 51
90.0
 52
90.0
 71
2
 49
0.5
 62
256
  6
BYLAYER
 49
-0.5
 62
256
  6
BYLAYER
  0
MLEADERSTYLE
  5
2C
102
{ACAD_REACTORS
330
F
102
}
330
F
100
AcDbMLeaderStyle
179
2
170
2
171
1
172
0
 90
2
 40
0.0
 41
0.0
173
1
 91
-1056964608
 92
-2
290
1
 42
2.0
291
1
 43
8.0
  3
Standard
 44
4.0
300

342
29
174
1
175
1
176
0
178
1
 93
-1056964608
 45
4.0
292
0
297
0
 46
4.0
 94
-1056964608
 47
1.0
 49
1.0
140
1.0
294
1
141
0.0
177
0
142
1.0
295
0
296
0
143
3.75
271
0
272
9
273
9
  0
DICTIONARY
  5
2D
330
A
100
AcDbDictionary
280
1
281
1
  3
CREATED_BY_EZDXF
350
2E
  3
WRITTEN_BY_EZDXF
350
D6
  0
DICTIONARYVAR
  5
2E
330
2D
100
DictionaryVariables
280
0
  1
1.4.3 @ 2026-09-27T12:27:14.815156+00:00
  0
DICTIONARYVAR
  5
D6
330
2D
100
DictionaryVariables
280
0
  1
1.4.3 @ 2026-09-27T12:27:14.831185+00:00
  0
ENDSEC
  0
EOF
