  0
SECTION
  2
HEADER
  9
$ACADVER
  1
AC1032
  9
$ACADMAINTVER
 90
4
  9
$DWGCODEPAGE
  3
ANSI_1252
  9
$LASTSAVEDBY
  1
ezdxf
  9
$REQUIREDVERSIONS
160
0
  9
$INSBASE
 10
0.0
 20
0.0
 30
0.0
  9
$EXTMIN
 10
1e+20
 20
1e+20
 30
1e+20
  9
$EXTMAX
 10
-1e+20
 20
-1e+20
 30
-1e+20
  9
$LIMMIN
 10
0.0
 20
0.0
  9
$LIMMAX
 10
420.0
 20
297.0
  9
$ORTHOMODE
 70
0
  9
$REGENMODE
 70
1
  9
$FILLMODE
 70
1
  9
$QTEXTMODE
 70
0
  9
$MIRRTEXT
 70
1
  9
$LTSCALE
 40
1.0
  9
$ATTMODE
 70
1
  9
$TEXTSIZE
 40
2.5
  9
$TRACEWID
 40
1.0
  9
$TEXTSTYLE
  7
Standard
  9
$CLAYER
  8
0
  9
$CELTYPE
  6
ByLayer
  9
$CECOLOR
 62
256
  9
$CELTSCALE
 40
1.0
  9
$DISPSILH
 70
0
  9
$DIMSCALE
 40
1.0
  9
$DIMASZ
 40
2.5
  9
$DIMEXO
 40
0.625
  9
$DIMDLI
 40
3.75
  9
$DIMRND
 40
0.0
  9
$DIMDLE
 40
0.0
  9
$DIMEXE
 40
1.25
  9
$DIMTP
 40
0.0
  9
$DIMTM
 40
0.0
  9
$DIMTXT
 40
2.5
  9
$DIMCEN
 40
2.5
  9
$DIMTSZ
 40
0.0
  9
$DIMTOL
 70
0
  9
$DIMLIM
 70
0
  9
$DIMTIH
 70
0
  9
$DIMTOH
 70
0
  9
$DIMSE1
 70
0
  9
$DIMSE2
 70
0
  9
$DIMTAD
 70
1
  9
$DIMZIN
 70
8
  9
$DIMBLK
  1

  9
$DIMASO
 70
1
  9
$DIMSHO
 70
1
  9
$DIMPOST
  1

  9
$DIMAPOST
  1

  9
$DIMALT
 70
0
  9
$DIMALTD
 70
3
  9
$DIMALTF
 40
0.03937007874
  9
$DIMLFAC
 40
1.0
  9
$DIMTOFL
 70
1
  9
$DIMTVP
 40
0.0
  9
$DIMTIX
 70
0
  9
$DIMSOXD
 70
0
  9
$DIMSAH
 70
0
  9
$DIMBLK1
  1

  9
$DIMBLK2
  1

  9
$DIMSTYLE
  2
ISO-25
  9
$DIMCLRD
 70
0
  9
$DIMCLRE
 70
0
  9
$DIMCLRT
 70
0
  9
$DIMTFAC
 40
1.0
  9
$DIMGAP
 40
0.625
  9
$DIMJUST
 70
0
  9
$DIMSD1
 70
0
  9
$DIMSD2
 70
0
  9
$DIMTOLJ
 70
0
  9
$DIMTZIN
 70
8
  9
$DIMALTZ
 70
0
  9
$DIMALTTZ
 70
0
  9
$DIMUPT
 70
0
  9
$DIMDEC
 70
2
  9
$DIMTDEC
 70
2
  9
$DIMALTU
 70
2
  9
$DIMALTTD
 70
3
  9
$DIMTXSTY
  7
Standard
  9
$DIMAUNIT
 70
0
  9
$DIMADEC
 70
0
  9
$DIMALTRND
 40
0.0
  9
$DIMAZIN
 70
0
  9
$DIMDSEP
 70
44
  9
$DIMATFIT
 70
3
  9
$DIMFRAC
 70
0
  9
$DIMLDRBLK
  1

  9
$DIMLUNIT
 70
2
  9
$DIMLWD
 70
-2
  9
$DIMLWE
 70
-2
  9
$DIMTMOVE
 70
0
  9
$DIMFXL
 40
1.0
  9
$DIMFXLON
 70
0
  9
$DIMJOGANG
 40
0.785398163397
  9
$DIMTFILL
 70
0
  9
$DIMTFILLCLR
 70
0
  9
$DIMARCSYM
 70
0
  9
$DIMLTYPE
  6

  9
$DIMLTEX1
  6

  9
$DIMLTEX2
  6

  9
$DIMTXTDIRECTION
 70
0
  9
$LUNITS
 70
2
  9
$LUPREC
 70
4
  9
$SKETCHINC
 40
1.0
  9
$FILLETRAD
 40
10.0
  9
$AUNITS
 70
0
  9
$AUPREC
 70
2
  9
$MENU
  1
.
  9
$ELEVATION
 40
0.0
  9
$PELEVATION
 40
0.0
  9
$THICKNESS
 40
0.0
  9
$LIMCHECK
 70
0
  9
$CHAMFERA
 40
0.0
  9
$CHAMFERB
 40
0.0
  9
$CHAMFERC
 40
0.0
  9
$CHAMFERD
 40
0.0
  9
$SKPOLY
 70
0
  9
$TDCREATE
 40
2461311.6022453704
  9
$TDUCREATE
 40
2458532.153996898
  9
$TDUPDATE
 40
2461311.6022453704
  9
$TDUUPDATE
 40
2458532.1544311
  9
$TDINDWG
 40
0.0
  9
$TDUSRTIMER
 40
0.0
  9
$USRTIMER
 70
1
  9
$ANGBASE
 50
0.0
  9
$ANGDIR
 70
0
  9
$PDMODE
 70
0
  9
$PDSIZE
 40
0.0
  9
$PLINEWID
 40
0.0
  9
$SPLFRAME
 70
0
  9
$SPLINETYPE
 70
6
  9
$SPLINESEGS
 70
8
  9
$HANDSEED
  5
D7
  9
$SURFTAB1
 70
6
  9
$SURFTAB2
 70
6
  9
$SURFTYPE
 70
6
  9
$SURFU
 70
6
  9
$SURFV
 70
6
  9
$UCSBASE
  2

  9
$UCSNAME
  2

  9
$UCSORG
 10
0.0
 20
0.0
 30
0.0
  9
$UCSXDIR
 10
1.0
 20
0.0
 30
0.0
  9
$UCSYDIR
 10
0.0
 20
1.0
 30
0.0
  9
$UCSORTHOREF
  2

  9
$UCSORTHOVIEW
 70
0
  9
$UCSORGTOP
 10
0.0
 20
0.0
 30
0.0
  9
$UCSORGBOTTOM
 10
0.0
 20
0.0
 30
0.0
  9
$UCSORGLEFT
 10
0.0
 20
0.0
 30
0.0
  9
$UCSORGRIGHT
 10
0.0
 20
0.0
 30
0.0
  9
$UCSORGFRONT
 10
0.0
 20
0.0
 30
0.0
  9
$UCSORGBACK
 10
0.0
 20
0.0
 30
0.0
  9
$PUCSBASE
  2

  9
$PUCSNAME
  2

  9
$PUCSORG
 10
0.0
 20
0.0
 30
0.0
  9
$PUCSXDIR
 10
1.0
 20
0.0
 30
0.0
  9
$PUCSYDIR
 10
0.0
 20
1.0
 30
0.0
  9
$PUCSORTHOREF
  2

  9
$PUCSORTHOVIEW
 70
0
  9
$PUCSORGTOP
 10
0.0
 20
0.0
 30
0.0
  9
$PUCSORGBOTTOM
 10
0.0
 20
0.0
 30
0.0
  9
$PUCSORGLEFT
 10
0.0
 20
0.0
 30
0.0
  9
$PUCSORGRIGHT
 10
0.0
 20
0.0
 30
0.0
  9
$PUCSORGFRONT
 10
0.0
 20
0.0
 30
0.0
  9
$PUCSORGBACK
 10
0.0
 20
0.0
 30
0.0
  9
$USERI1
 70
0
  9
$USERI2
 70
0
  9
$USERI3
 70
0
  9
$USERI4
 70
0
  9
$USERI5
 70
0
  9
$USERR1
 40
0.0
  9
$USERR2
 40
0.0
  9
$USERR3
 40
0.0
  9
$USERR4
 40
0.0
  9
$USERR5
 40
0.0
  9
$WORLDVIEW
 70
1
  9
$SHADEDGE
 70
3
  9
$SHADEDIF
 70
70
  9
$TILEMODE
 70
1
  9
$MAXACTVP
 70
64
  9
$PINSBASE
 10
0.0
 20
0.0
 30
0.0
  9
$PLIMCHECK
 70
0
  9
$PEXTMIN
 10
1e+20
 20
1e+20
 30
1e+20
  9
$PEXTMAX
 10
-1e+20
 20
-1e+20
 30
-1e+20
  9
$PLIMMIN
 10
0.0
 20
0.0
  9
$PLIMMAX
 10
420.0
 20
297.0
  9
$UNITMODE
 70
0
  9
$VISRETAIN
 70
1
  9
$PLINEGEN
 70
0
  9
$PSLTSCALE
 70
1
  9
$TREEDEPTH
 70
3020
  9
$CMLSTYLE
  2
Standard
  9
$CMLJUST
 70
0
  9
$CMLSCALE
 40
20.0
  9
$PROXYGRAPHICS
 70
1
  9
$MEASUREMENT
 70
1
  9
$CELWEIGHT
370
-1
  9
$ENDCAPS
280
0
  9
$JOINSTYLE
280
0
  9
$LWDISPLAY
290
0
  9
$INSUNITS
 70
4
  9
$HYPERLINKBASE
  1

  9
$STYLESHEET
  1

  9
$XEDIT
290
1
  9
$CEPSNTYPE
380
0
  9
$PSTYLEMODE
290
1
  9
$FINGERPRINTGUID
  2
{E6264462-672D-45F4-9375-63F2C41283C4}
  9
$VERSIONGUID
  2
{27A7A700-737A-4BF4-8EB4-F10428A72924}
  9
$EXTNAMES
290
1
  9
$PSVPSCALE
 40
0.0
  9
$OLESTARTUP
290
0
  9
$SORTENTS
280
127
  9
$INDEXCTL
280
0
  9
$HIDETEXT
280
1
  9
$XCLIPFRAME
280
1
  9
$HALOGAP
280
0
  9
$OBSCOLOR
 70
257
  9
$OBSLTYPE
280
0
  9
$INTERSECTIONDISPLAY
280
0
  9
$INTERSECTIONCOLOR
 70
257
  9
$DIMASSOC
280
2
  9
$PROJECTNAME
  1

  9
$CAMERADISPLAY
290
0
  9
$LENSLENGTH
 40
50.0
  9
$CAMERAHEIGHT
 40
0.0
  9
$STEPSPERSEC
 40
24.0
  9
$STEPSIZE
 40
100.0
  9
$3DDWFPREC
 40
2.0
  9
$PSOLWIDTH
 40
0.005
  9
$PSOLHEIGHT
 40
0.08
  9
$LOFTANG1
 40
1.570796326795
  9
$LOFTANG2
 40
1.570796326795
  9
$LOFTMAG1
 40
0.0
  9
$LOFTMAG2
 40
0.0
  9
$LOFTPARAM
 70
7
  9
$LOFTNORMALS
280
1
  9
$LATITUDE
 40
37.795
  9
$LONGITUDE
 40
-122.394
  9
$NORTHDIRECTION
 40
0.0
  9
$TIMEZONE
 70
-8000
  9
$LIGHTGLYPHDISPLAY
280
1
  9
$TILEMODELIGHTSYNCH
280
1
  9
$CMATERIAL
347
20
  9
$SOLIDHIST
280
0
  9
$SHOWHIST
280
1
  9
$DWFFRAME
280
2
  9
$DGNFRAME
280
2
  9
$REALWORLDSCALE
290
1
  9
$INTERFERECOLOR
 62
256
  9
$CSHADOW
280
0
  9
$SHADOWPLANELOCATION
 40
0.0
  0
ENDSEC
  0
SECTION
  2
CLASSES
  0
CLASS
  1
ACDBDICTIONARYWDFLT
  2
AcDbDictionaryWithDefault
  3
ObjectDBX Classes
 90
0
 91
0
280
0
281
0
  0
CLASS
  1
SUN
  2
AcDbSun
  3
SCENEOE
 90
1153
 91
0
280
0
281
0
  0
CLASS
  1
VISUALSTYLE
  2
AcDbVisualStyle
  3
ObjectDBX Classes
 90
4095
 91
0
280
0
281
0
  0
CLASS
  1
MATERIAL
  2
AcDbMaterial
  3
ObjectDBX Classes
 90
1153
 91
0
280
0
281
0
  0
CLASS
  1
SCALE
  2
AcDbScale
  3
ObjectDBX Classes
 90
1153
 91
0
280
0
281
0
  0
CLASS
  1
TABLESTYLE
  2
AcDbTableStyle
  3
ObjectDBX Classes
 90
4095
 91
0
280
0
281
0
  0
CLASS
  1
MLEADERSTYLE
  2
AcDbMLeaderStyle
  3
ACDB_MLEADERSTYLE_CLASS
 90
4095
 91
0
280
0
281
0
  0
CLASS
  1
DICTIONARYVAR
  2
AcDbDictionaryVar
  3
ObjectDBX Classes
 90
0
 91
0
280
0
281
0
  0
CLASS
  1
CELLSTYLEMAP
  2
AcDbCellStyleMap
  3
ObjectDBX Classes
 90
1152
 91
0
280
0
281
0
  0
CLASS
  1
MENTALRAYRENDERSETTINGS
  2
AcDbMentalRayRenderSettings
  3
SCENEOE
 90
1024
 91
0
280
0
281
0
  0
CLASS
  1
ACDBDETAILVIEWSTYLE
  2
AcDbDetailViewStyle
  3
ObjectDBX Classes
 90
1025
 91
0
280
0
281
0
  0
CLASS
  1
ACDBSECTIONVIEWSTYLE
  2
AcDbSectionViewStyle
  3
ObjectDBX Classes
 90
1025
 91
0
280
0
281
0
  0
CLASS
  1
RASTERVARIABLES
  2
AcDbRasterVariables
  3
ISM
 90
0
 91
0
280
0
281
0
  0
CLASS
  1
LAYOUT
  2
AcDbLayout
  3
ObjectDBX Classes
 90
0
 91
0
280
0
281
0
  0
CLASS
  1
ACDBPLACEHOLDER
  2
AcDbPlaceHolder
  3
ObjectDBX Classes
 90
0
 91
0
280
0
281
0
  0
ENDSEC
  0
SECTION
  2
TABLES
  0
TABLE
  2
VPORT
  5
8
330
0
100
AcDbSymbolTable
 70
1
  0
VPORT
  5
23
330
8
100
AcDbSymbolTableRecord
100
AcDbViewportTableRecord
  2
*Active
 70
0
 10
0.0
 20
0.0
 11
1.0
 21
1.0
 12
0.0
 22
0.0
 13
0.0
 23
0.0
 14
0.5
 24
0.5
 15
0.5
 25
0.5
 16
0.0
 26
0.0
 36
1.0
 17
0.0
 27
0.0
 37
0.0
 40
1000.0
 41
1.34
 42
50.0
 43
0.0
 44
0.0
 50
0.0
 51
0.0
 71
0
 72
1000
 73
1
 74
3
 75
0
 76
0
 77
0
 78
0
281
0
 65
0
146
0.0
  0
ENDTAB
  0
TABLE
  2
LTYPE
  5
2
330
0
100
AcDbSymbolTable
 70
3
  0
LTYPE
  5
24
330
2
100
AcDbSymbolTableRecord
100
AcDbLinetypeTableRecord
  2
ByBlock
 70
0
  3

 72
65
 73
0
 40
0.0
  0
LTYPE
  5
25
330
2
100
AcDbSymbolTableRecord
100
AcDbLinetypeTableRecord
  2
ByLayer
 70
0
  3

 72
65
 73
0
 40
0.0
  0
LTYPE
  5
26
330
2
100
AcDbSymbolTableRecord
100
AcDbLinetypeTableRecord
  2
Continuous
 70
0
  3

 72
65
 73
0
 40
0.0
  0
ENDTAB
  0
TABLE
  2
LAYER
  5
1
330
0
100
AcDbSymbolTable
 70
7
  0
LAYER
  5
27
330
1
100
AcDbSymbolTableRecord
100
AcDbLayerTableRecord
  2
0
 70
0
 62
7
  6
Continuous
370
-3
390
13
347
21
  0
LAYER
  5
28
330
1
100
AcDbSymbolTableRecord
100
AcDbLayerTableRecord
  2
Defpoints
 70
0
 62
7
  6
Continuous
290
0
370
-3
390
13
347
21
  0
LAYER
  5
2F
330
1
100
AcDbSymbolTableRecord
100
AcDbLayerTableRecord
  2
XY_AFT
 70
0
 62
7
  6
Continuous
370
-3
390
13
347
21
  0
LAYER
  5
30
330
1
100
AcDbSymbolTableRecord
100
AcDbLayerTableRecord
  2
XZ_SIDE
 70
0
 62
7
  6
Continuous
370
-3
390
13
347
21
  0
LAYER
  5
31
330
1
100
AcDbSymbolTableRecord
100
AcDbLayerTableRecord
  2
YZ_SIDE
 70
0
 62
7
  6
Continuous
370
-3
390
13
347
21
  0
LAYER
  5
32
330
1
100
AcDbSymbolTableRecord
100
AcDbLayerTableRecord
  2
DIMENSIONS
 70
0
 62
7
  6
Continuous
370
-3
390
13
347
21
  0
LAYER
  5
33
330
1
100
AcDbSymbolTableRecord
100
AcDbLayerTableRecord
  2
NOTES
 70
0
 62
7
  6
Continuous
370
-3
390
13
347
21
  0
ENDTAB
  0
TABLE
  2
STYLE
  5
5
330
0
100
AcDbSymbolTable
 70
1
  0
STYLE
  5
29
330
5
100
AcDbSymbolTableRecord
100
AcDbTextStyleTableRecord
  2
Standard
 70
0
 40
0.0
 41
1.0
 50
0.0
 71
0
 42
2.5
  3
txt
  4

  0
ENDTAB
  0
TABLE
  2
VIEW
  5
7
330
0
100
AcDbSymbolTable
 70
0
  0
ENDTAB
  0
TABLE
  2
UCS
  5
6
330
0
100
AcDbSymbolTable
 70
0
  0
ENDTAB
  0
TABLE
  2
APPID
  5
3
330
0
100
AcDbSymbolTable
 70
3
  0
APPID
  5
2A
330
3
100
AcDbSymbolTableRecord
100
AcDbRegAppTableRecord
  2
ACAD
 70
0
  0
APPID
  5
D4
330
3
100
AcDbSymbolTableRecord
100
AcDbRegAppTableRecord
  2
HATCHBACKGROUNDCOLOR
 70
0
  0
APPID
  5
D5
330
3
100
AcDbSymbolTableRecord
100
AcDbRegAppTableRecord
  2
EZDXF
 70
0
  0
ENDTAB
  0
TABLE
  2
DIMSTYLE
  5
4
330
0
100
AcDbSymbolTable
 70
1
100
AcDbDimStyleTable
  0
DIMSTYLE
105
2B
330
4
100
AcDbSymbolTableRecord
100
AcDbDimStyleTableRecord
  2
Standard
 70
0
 40
1.0
 41
2.5
 42
0.625
 43
3.75
 44
1.25
 45
0.0
 46
0.0
 47
0.0
 48
0.0
 49
2.5
140
2.5
141
2.5
142
0.0
143
0.03937007874
144
1.0
145
0.0
146
1.0
147
0.625
148
0.0
 69
0
 70
0
 71
0
 72
0
 73
0
 74
0
 75
0
 76
0
 77
1
 78
8
 79
3
170
0
171
3
172
1
173
0
174
0
175
0
176
0
177
0
178
0
179
2
271
2
272
2
273
2
274
3
275
0
276
0
277
2
278
44
279
0
280
0
281
0
282
0
283
0
284
8
285
0
286
0
288
0
289
3
290
0
371
-2
372
-2
  0
ENDTAB
  0
TABLE
  2
BLOCK_RECORD
  5
9
330
0
100
AcDbSymbolTable
 70
9
  0
BLOCK_RECORD
  5
17
330
9
100
AcDbSymbolTableRecord
100
AcDbBlockTableRecord
  2
*Model_Space
340
1A
 70
0
280
1
281
0
  0
BLOCK_RECORD
  5
1B
330
9
100
AcDbSymbolTableRecord
100
AcDbBlockTableRecord
  2
*Paper_Space
340
1E
 70
0
280
1
281
0
  0
BLOCK_RECORD
  5
45
330
9
100
AcDbSymbolTableRecord
100
AcDbBlockTableRecord
  2
*D1
340
0
 70
0
280
1
281
0
  0
BLOCK_RECORD
  5
4A
330
9
100
AcDbSymbolTableRecord
100
AcDbBlockTableRecord
  2
_CLOSEDFILLED
340
0
 70
0
280
1
281
0
  0
BLOCK_RECORD
  5
59
330
9
100
AcDbSymbolTableRecord
100
AcDbBlockTableRecord
  2
*D2
340
0
 70
0
280
1
281
0
  0
BLOCK_RECORD
  5
7D
330
9
100
AcDbSymbolTableRecord
100
AcDbBlockTableRecord
  2
*D3
340
0
 70
0
280
1
281
0
  0
BLOCK_RECORD
  5
8D
330
9
100
AcDbSymbolTableRecord
100
AcDbBlockTableRecord
  2
*D4
340
0
 70
0
280
1
281
0
  0
BLOCK_RECORD
  5
B0
330
9
100
AcDbSymbolTableRecord
100
AcDbBlockTableRecord
  2
*D5
340
0
 70
0
280
1
281
0
  0
BLOCK_RECORD
  5
C0
330
9
100
AcDbSymbolTableRecord
100
AcDbBlockTableRecord
  2
*D6
340
0
 70
0
280
1
281
0
  0
ENDTAB
  0
ENDSEC
  0
SECTION
  2
BLOCKS
  0
BLOCK
  5
18
330
17
100
AcDbEntity
  8
0
100
AcDbBlockBegin
  2
*Model_Space
 70
0
 10
0.0
 20
0.0
 30
0.0
  3
*Model_Space
  1

  0
ENDBLK
  5
19
330
17
100
AcDbEntity
  8
0
100
AcDbBlockEnd
  0
BLOCK
  5
1C
330
1B
100
AcDbEntity
  8
0
100
AcDbBlockBegin
  2
*Paper_Space
 70
0
 10
0.0
 20
0.0
 30
0.0
  3
*Paper_Space
  1

  0
ENDBLK
  5
1D
330
1B
100
AcDbEntity
  8
0
100
AcDbBlockEnd
  0
BLOCK
  5
46
330
45
100
AcDbEntity
  8
0
100
AcDbBlockBegin
  2
*D1
 70
1
 10
0.0
 20
0.0
 30
0.0
  3
*D1
  1

  0
LINE
  5
48
330
45
100
AcDbEntity
  8
0
100
AcDbLine
 10
0.0
 20
0.0
 30
0.0
 11
0.0
 21
-25.0
 31
0.0
  0
LINE
  5
49
330
45
100
AcDbEntity
  8
0
100
AcDbLine
 10
168.0
 20
0.0
 30
0.0
 11
168.0
 21
-25.0
 31
0.0
  0
INSERT
  5
4E
330
45
100
AcDbEntity
  8
DIMENSIONS
100
AcDbBlockReference
  2
_CLOSEDFILLED
 10
0.0
 20
-25.0
 30
0.0
 41
3.0
 42
3.0
 50
180.0
  0
INSERT
  5
50
330
45
100
AcDbEntity
  8
DIMENSIONS
100
AcDbBlockReference
  2
_CLOSEDFILLED
 10
168.0
 20
-25.0
 30
0.0
 41
3.0
 42
3.0
  0
LINE
  5
52
330
45
100
AcDbEntity
  8
0
100
AcDbLine
 10
3.0
 20
-25.0
 30
0.0
 11
79.5
 21
-25.0
 31
0.0
  0
LINE
  5
53
330
45
100
AcDbEntity
  8
0
100
AcDbLine
 10
88.5
 20
-25.0
 30
0.0
 11
165.0
 21
-25.0
 31
0.0
  0
MTEXT
  5
54
330
45
100
AcDbEntity
  8
DIMENSIONS
100
AcDbMText
 10
84.0
 20
-25.0
 30
0.0
 40
3.0
 71
5
  1
168
  0
POINT
  5
55
330
45
100
AcDbEntity
  8
Defpoints
100
AcDbPoint
 10
0.0
 20
-25.0
 30
0.0
  0
POINT
  5
56
330
45
100
AcDbEntity
  8
Defpoints
100
AcDbPoint
 10
0.0
 20
0.0
 30
0.0
  0
POINT
  5
57
330
45
100
AcDbEntity
  8
Defpoints
100
AcDbPoint
 10
168.0
 20
0.0
 30
0.0
  0
ENDBLK
  5
47
330
45
100
AcDbEntity
  8
0
100
AcDbBlockEnd
  0
BLOCK
  5
4B
330
4A
100
AcDbEntity
  8
0
100
AcDbBlockBegin
  2
_CLOSEDFILLED
 70
0
 10
0.0
 20
0.0
 30
0.0
  3
_CLOSEDFILLED
  1

  0
SOLID
  5
4D
330
4A
100
AcDbEntity
  8
0
  6
BYBLOCK
 62
0
100
AcDbTrace
 10
-1.0
 20
0.16439898372402537
 30
0.0
 11
0.0
 21
0.0
 31
0.0
 12
-1.0
 22
-0.16439898372402537
 32
0.0
 13
-1.0
 23
-0.16439898372402537
 33
0.0
  0
ENDBLK
  5
4C
330
4A
100
AcDbEntity
  8
0
100
AcDbBlockEnd
  0
BLOCK
  5
5A
330
59
100
AcDbEntity
  8
0
100
AcDbBlockBegin
  2
*D2
 70
1
 10
0.0
 20
0.0
 30
0.0
  3
*D2
  1

  0
LINE
  5
5C
330
59
100
AcDbEntity
  8
0
100
AcDbLine
 10
0.0
 20
0.0
 30
0.0
 11
-25.0
 21
0.0
 31
0.0
  0
LINE
  5
5D
330
59
100
AcDbEntity
  8
0
100
AcDbLine
 10
0.0
 20
124.0
 30
0.0
 11
-25.0
 21
124.0
 31
0.0
  0
INSERT
  5
5E
330
59
100
AcDbEntity
  8
DIMENSIONS
100
AcDbBlockReference
  2
_CLOSEDFILLED
 10
-25.0
 20
0.0
 30
0.0
 41
3.0
 42
3.0
 50
270.0
  0
INSERT
  5
60
330
59
100
AcDbEntity
  8
DIMENSIONS
100
AcDbBlockReference
  2
_CLOSEDFILLED
 10
-25.0
 20
124.0
 30
0.0
 41
3.0
 42
3.0
 50
90.0
  0
LINE
  5
62
330
59
100
AcDbEntity
  8
0
100
AcDbLine
 10
-25.0
 20
3.0
 30
0.0
 11
-25.0
 21
57.5
 31
0.0
  0
LINE
  5
63
330
59
100
AcDbEntity
  8
0
100
AcDbLine
 10
-25.0
 20
66.5
 30
0.0
 11
-25.0
 21
121.0
 31
0.0
  0
MTEXT
  5
64
330
59
100
AcDbEntity
  8
DIMENSIONS
100
AcDbMText
 10
-25.0
 20
62.0
 30
0.0
 40
3.0
 71
5
  1
124
 50
90.0
  0
POINT
  5
65
330
59
100
AcDbEntity
  8
Defpoints
100
AcDbPoint
 10
-25.0
 20
0.0
 30
0.0
  0
POINT
  5
66
330
59
100
AcDbEntity
  8
Defpoints
100
AcDbPoint
 10
0.0
 20
0.0
 30
0.0
  0
POINT
  5
67
330
59
100
AcDbEntity
  8
Defpoints
100
AcDbPoint
 10
0.0
 20
124.0
 30
0.0
  0
ENDBLK
  5
5B
330
59
100
AcDbEntity
  8
0
100
AcDbBlockEnd
  0
BLOCK
  5
7E
330
7D
100
AcDbEntity
  8
0
100
AcDbBlockBegin
  2
*D3
 70
1
 10
0.0
 20
0.0
 30
0.0
  3
*D3
  1

  0
LINE
  5
80
330
7D
100
AcDbEntity
  8
0
100
AcDbLine
 10
0.0
 20
-234.0
 30
0.0
 11
0.0
 21
-259.0
 31
0.0
  0
LINE
  5
81
330
7D
100
AcDbEntity
  8
0
100
AcDbLine
 10
168.0
 20
-234.0
 30
0.0
 11
168.0
 21
-259.0
 31
0.0
  0
INSERT
  5
82
330
7D
100
AcDbEntity
  8
DIMENSIONS
100
AcDbBlockReference
  2
_CLOSEDFILLED
 10
0.0
 20
-259.0
 30
0.0
 41
3.0
 42
3.0
 50
180.0
  0
INSERT
  5
84
330
7D
100
AcDbEntity
  8
DIMENSIONS
100
AcDbBlockReference
  2
_CLOSEDFILLED
 10
168.0
 20
-259.0
 30
0.0
 41
3.0
 42
3.0
  0
LINE
  5
86
330
7D
100
AcDbEntity
  8
0
100
AcDbLine
 10
3.0
 20
-259.0
 30
0.0
 11
79.5
 21
-259.0
 31
0.0
  0
LINE
  5
87
330
7D
100
AcDbEntity
  8
0
100
AcDbLine
 10
88.5
 20
-259.0
 30
0.0
 11
165.0
 21
-259.0
 31
0.0
  0
MTEXT
  5
88
330
7D
100
AcDbEntity
  8
DIMENSIONS
100
AcDbMText
 10
84.0
 20
-259.0
 30
0.0
 40
3.0
 71
5
  1
168
  0
POINT
  5
89
330
7D
100
AcDbEntity
  8
Defpoints
100
AcDbPoint
 10
0.0
 20
-259.0
 30
0.0
  0
POINT
  5
8A
330
7D
100
AcDbEntity
  8
Defpoints
100
AcDbPoint
 10
0.0
 20
-234.0
 30
0.0
  0
POINT
  5
8B
330
7D
100
AcDbEntity
  8
Defpoints
100
AcDbPoint
 10
168.0
 20
-234.0
 30
0.0
  0
ENDBLK
  5
7F
330
7D
100
AcDbEntity
  8
0
100
AcDbBlockEnd
  0
BLOCK
  5
8E
330
8D
100
AcDbEntity
  8
0
100
AcDbBlockBegin
  2
*D4
 70
1
 10
0.0
 20
0.0
 30
0.0
  3
*D4
  1

  0
LINE
  5
90
330
8D
100
AcDbEntity
  8
0
100
AcDbLine
 10
0.0
 20
-234.0
 30
0.0
 11
-25.0
 21
-234.0
 31
0.0
  0
LINE
  5
91
330
8D
100
AcDbEntity
  8
0
100
AcDbLine
 10
0.0
 20
-224.0
 30
0.0
 11
-25.0
 21
-224.0
 31
0.0
  0
INSERT
  5
92
330
8D
100
AcDbEntity
  8
DIMENSIONS
100
AcDbBlockReference
  2
_CLOSEDFILLED
 10
-25.0
 20
-234.0
 30
0.0
 41
3.0
 42
3.0
 50
270.0
  0
INSERT
  5
94
330
8D
100
AcDbEntity
  8
DIMENSIONS
100
AcDbBlockReference
  2
_CLOSEDFILLED
 10
-25.0
 20
-224.0
 30
0.0
 41
3.0
 42
3.0
 50
90.0
  0
LINE
  5
96
330
8D
100
AcDbEntity
  8
0
100
AcDbLine
 10
-25.0
 20
-231.0
 30
0.0
 11
-25.0
 21
-227.0
 31
0.0
  0
MTEXT
  5
97
330
8D
100
AcDbEntity
  8
DIMENSIONS
100
AcDbMText
 10
-27.125
 20
-229.0
 30
0.0
 40
3.0
 71
5
  1
10
 50
90.0
  0
POINT
  5
98
330
8D
100
AcDbEntity
  8
Defpoints
100
AcDbPoint
 10
-25.0
 20
-234.0
 30
0.0
  0
POINT
  5
99
330
8D
100
AcDbEntity
  8
Defpoints
100
AcDbPoint
 10
0.0
 20
-234.0
 30
0.0
  0
POINT
  5
9A
330
8D
100
AcDbEntity
  8
Defpoints
100
AcDbPoint
 10
0.0
 20
-224.0
 30
0.0
  0
ENDBLK
  5
8F
330
8D
100
AcDbEntity
  8
0
100
AcDbBlockEnd
  0
BLOCK
  5
B1
330
B0
100
AcDbEntity
  8
0
100
AcDbBlockBegin
  2
*D5
 70
1
 10
0.0
 20
0.0
 30
0.0
  3
*D5
  1

  0
LINE
  5
B3
330
B0
100
AcDbEntity
  8
0
100
AcDbLine
 10
268.0
 20
0.0
 30
0.0
 11
268.0
 21
-25.0
 31
0.0
  0
LINE
  5
B4
330
B0
100
AcDbEntity
  8
0
100
AcDbLine
 10
392.0
 20
0.0
 30
0.0
 11
392.0
 21
-25.0
 31
0.0
  0
INSERT
  5
B5
330
B0
100
AcDbEntity
  8
DIMENSIONS
100
AcDbBlockReference
  2
_CLOSEDFILLED
 10
268.0
 20
-25.0
 30
0.0
 41
3.0
 42
3.0
 50
180.0
  0
INSERT
  5
B7
330
B0
100
AcDbEntity
  8
DIMENSIONS
100
AcDbBlockReference
  2
_CLOSEDFILLED
 10
392.0
 20
-25.0
 30
0.0
 41
3.0
 42
3.0
  0
LINE
  5
B9
330
B0
100
AcDbEntity
  8
0
100
AcDbLine
 10
271.0
 20
-25.0
 30
0.0
 11
325.5
 21
-25.0
 31
0.0
  0
LINE
  5
BA
330
B0
100
AcDbEntity
  8
0
100
AcDbLine
 10
334.5
 20
-25.0
 30
0.0
 11
389.0
 21
-25.0
 31
0.0
  0
MTEXT
  5
BB
330
B0
100
AcDbEntity
  8
DIMENSIONS
100
AcDbMText
 10
330.0
 20
-25.0
 30
0.0
 40
3.0
 71
5
  1
124
  0
POINT
  5
BC
330
B0
100
AcDbEntity
  8
Defpoints
100
AcDbPoint
 10
268.0
 20
-25.0
 30
0.0
  0
POINT
  5
BD
330
B0
100
AcDbEntity
  8
Defpoints
100
AcDbPoint
 10
268.0
 20
0.0
 30
0.0
  0
POINT
  5
BE
330
B0
100
AcDbEntity
  8
Defpoints
100
AcDbPoint
 10
392.0
 20
0.0
 30
0.0
  0
ENDBLK
  5
B2
330
B0
100
AcDbEntity
  8
0
100
AcDbBlockEnd
  0
BLOCK
  5
C1
330
C0
100
AcDbEntity
  8
0
100
AcDbBlockBegin
  2
*D6
 70
1
 10
0.0
 20
0.0
 30
0.0
  3
*D6
  1

  0
LINE
  5
C3
330
C0
100
AcDbEntity
  8
0
100
AcDbLine
 10
268.0
 20
0.0
 30
0.0
 11
243.0
 21
0.0
 31
0.0
  0
LINE
  5
C4
330
C0
100
AcDbEntity
  8
0
100
AcDbLine
 10
268.0
 20
10.0
 30
0.0
 11
243.0
 21
10.0
 31
0.0
  0
INSERT
  5
C5
330
C0
100
AcDbEntity
  8
DIMENSIONS
100
AcDbBlockReference
  2
_CLOSEDFILLED
 10
243.0
 20
0.0
 30
0.0
 41
3.0
 42
3.0
 50
270.0
  0
INSERT
  5
C7
330
C0
100
AcDbEntity
  8
DIMENSIONS
100
AcDbBlockReference
  2
_CLOSEDFILLED
 10
243.0
 20
10.0
 30
0.0
 41
3.0
 42
3.0
 50
90.0
  0
LINE
  5
C9
330
C0
100
AcDbEntity
  8
0
100
AcDbLine
 10
243.0
 20
3.0
 30
0.0
 11
243.0
 21
7.0
 31
0.0
  0
MTEXT
  5
CA
330
C0
100
AcDbEntity
  8
DIMENSIONS
100
AcDbMText
 10
240.875
 20
5.0
 30
0.0
 40
3.0
 71
5
  1
10
 50
90.0
  0
POINT
  5
CB
330
C0
100
AcDbEntity
  8
Defpoints
100
AcDbPoint
 10
243.0
 20
0.0
 30
0.0
  0
POINT
  5
CC
330
C0
100
AcDbEntity
  8
Defpoints
100
AcDbPoint
 10
268.0
 20
0.0
 30
0.0
  0
POINT
  5
CD
330
C0
100
AcDbEntity
  8
Defpoints
100
AcDbPoint
 10
268.0
 20
10.0
 30
0.0
  0
ENDBLK
  5
C2
330
C0
100
AcDbEntity
  8
0
100
AcDbBlockEnd
  0
ENDSEC
  0
SECTION
  2
ENTITIES
  0
LWPOLYLINE
  5
34
330
17
100
AcDbEntity
  8
XY_AFT
100
AcDbPolyline
 90
2
 70
0
 10
123.70899448216628
 20
68.0
 10
147.0
 20
68.0
  0
LWPOLYLINE
  5
35
330
17
100
AcDbEntity
  8
XY_AFT
100
AcDbPolyline
 90
96
 70
0
 10
123.70899448216616
 20
67.99999999999882
 10
123.19794335628364
 20
71.94040889305359
 10
122.43554133181127
 20
75.83999074894678
 10
121.42491973021882
 20
79.68272928755772
 10
120.17022935517326
 20
83.45284169443619
 10
118.67662344444574
 20
87.13484344364419
 10
116.95023650464239
 20
90.7136118954733
 10
114.99815911568854
 20
94.1744484078307
 10
112.82840880854882
 20
97.50313870619101
 10
110.44989713579352
 20
100.68601126416402
 10
107.87239307025848
 20
103.70999345489882
 10
105.10648288212627
 20
106.56266524270013
 10
102.16352665922145
 20
109.23231019433634
 10
99.05561164909788
 20
111.70796360052623
 10
95.79550261455142
 20
113.97945750996107
 10
92.39658940645604
 20
116.03746249089907
 10
88.87283196925152
 20
117.87352594881025
 10
85.23870300495494
 20
119.48010684269383
 10
81.5091285311851
 20
120.8506066574823
 10
77.69942657733849
 20
121.97939650532305
 10
73.82524427070314
 20
122.8618402444274
 10
69.90249357090819
 20
123.4943135205342
 10
65.94728591666
 20
123.87421865278088
 10
61.97586605318169
 20
123.99999530284346
 10
58.00454531213932
 20
123.87112688352502
 10
54.04963461808533
 20
123.48814268047175
 10
50.127377496574255
 20
122.85261567830219
 10
46.25388335909815
 20
121.96715610007794
 10
42.44506133885233
 20
120.83540068665081
 10
38.716554949080134
 20
119.46199775991778
 10
35.08367783236612
 20
117.8525881313314
 10
31.56135086476708
 20
116.0137819340785
 10
28.16404087310564
 20
113.95313147408089
 10
24.905701217124957
 20
111.67910021132423
 10
21.799714480544772
 20
109.20102799891416
 10
18.85883750639662
 20
106.5290927226292
 10
16.095149002387835
 20
103.67426849852347
 10
13.51999993148894
 20
100.6482806002695
 10
11.14396689149838
 20
97.46355730136202
 10
8.976808675063886
 20
94.13317882997603
 10
7.027426188575639
 20
90.67082364613023
 10
5.303825894551871
 20
87.09071226180542
 10
3.813086927665296
 20
83.40754883475837
 10
2.5613320194709317
 20
79.63646077591613
 10
1.553702351252575
 20
75.79293661839391
 10
0.7943364382717135
 20
71.8927624033192
 10
0.28635313214520863
 20
67.95195684373779
 10
0.03183881116395071
 20
63.98670553289427
 10
0.03183881116395071
 20
60.01329446710569
 10
0.28635313214522284
 20
56.04804315626212
 10
0.7943364382717206
 20
52.10723759668073
 10
1.5537023512525892
 20
48.20706338160602
 10
2.56133201947096
 20
44.363539224083766
 10
3.81308692766531
 20
40.592451165241584
 10
5.303825894551885
 20
36.90928773819455
 10
7.027426188575653
 20
33.32917635386973
 10
8.976808675063907
 20
29.86682117002394
 10
11.143966891498415
 20
26.536442698637934
 10
13.519999931488982
 20
23.35171939973044
 10
16.095149002387906
 20
20.32573150147646
 10
18.858837506396625
 20
17.47090727737079
 10
21.799714480544786
 20
14.798972001085836
 10
24.905701217125035
 20
12.32089978867571
 10
28.164040873105655
 20
10.046868525919102
 10
31.561350864767114
 20
7.986218065921484
 10
35.08367783236611
 20
6.1474118686686126
 10
38.71655494908016
 20
4.538002240082214
 10
42.44506133885233
 20
3.1645993133491785
 10
46.25388335909817
 20
2.0328438999220566
 10
50.12737749657427
 20
1.147384321697814
 10
54.04963461808531
 20
0.5118573195282394
 10
58.00454531213933
 20
0.12887311647498478
 10
61.97586605318173
 20
4.697156541055847e-06
 10
65.94728591666001
 20
0.12578134721911738
 10
69.90249357090823
 20
0.5056864794658082
 10
73.82524427070315
 20
1.1381597555726088
 10
77.69942657733854
 20
2.020603494676969
 10
81.50912853118511
 20
3.149393342517712
 10
85.23870300495494
 20
4.519893157306171
 10
88.87283196925154
 20
6.126474051189753
 10
92.39658940645604
 20
7.962537509100926
 10
95.7955026145514
 20
10.020542490038927
 10
99.0556116490979
 20
12.292036399473766
 10
102.16352665922147
 20
14.767689805663686
 10
105.10648288212627
 20
17.437334757299872
 10
107.8723930702585
 20
20.2900065451012
 10
110.44989713579356
 20
23.31398873583602
 10
112.82840880854883
 20
26.496861293809033
 10
114.99815911568855
 20
29.82555159216932
 10
116.95023650464242
 20
33.286388104526736
 10
118.67662344444575
 20
36.86515655635583
 10
120.17022935517326
 20
40.54715830556381
 10
121.42491973021882
 20
44.31727071244231
 10
122.43554133181127
 20
48.16000925105327
 10
123.19794335628364
 20
52.05959110694638
 10
123.70899448216616
 20
56.00000000000118
  0
LWPOLYLINE
  5
36
330
17
100
AcDbEntity
  8
XY_AFT
100
AcDbPolyline
 90
2
 70
0
 10
123.70899448216628
 20
56.0
 10
147.0
 20
56.0
  0
LWPOLYLINE
  5
37
330
17
100
AcDbEntity
  8
XY_AFT
100
AcDbPolyline
 90
2
 70
0
 10
147.0
 20
56.0
 10
147.0
 20
57.417424305044655
  0
LWPOLYLINE
  5
38
330
17
100
AcDbEntity
  8
XY_AFT
100
AcDbPolyline
 90
16
 70
0
 10
146.9999999999998
 20
66.5825756949554
 10
149.26775187310176
 20
69.82383147211637
 10
152.53548392882158
 20
72.05326296533566
 10
156.38059367895693
 20
72.98254687262713
 10
160.3058087278186
 20
72.49150268813187
 10
163.8034969874346
 20
70.64363515784696
 10
166.42131666959668
 20
67.67792146926848
 10
167.8207158084512
 20
63.97790530428892
 10
167.8207158084512
 20
60.02209469571109
 10
166.42131666959668
 20
56.32207853073153
 10
163.80349698743464
 20
53.35636484215304
 10
160.3058087278186
 20
51.508497311868126
 10
156.38059367895693
 20
51.017453127372875
 10
152.53548392882158
 20
51.94673703466434
 10
149.26775187310176
 20
54.176168527883625
 10
146.9999999999998
 20
57.417424305044605
  0
LWPOLYLINE
  5
39
330
17
100
AcDbEntity
  8
XY_AFT
100
AcDbPolyline
 90
2
 70
0
 10
147.0
 20
66.58257569495535
 10
147.0
 20
68.0
  0
LWPOLYLINE
  5
3A
330
17
100
AcDbEntity
  8
XY_AFT
100
AcDbPolyline
 90
90
 70
0
 10
118.6
 20
62.0
 10
118.45901082353323
 20
65.9925050817948
 10
118.03674569511811
 20
69.9651197041012
 10
117.33530831838384
 20
73.89805250069946
 10
116.35819321905791
 20
77.77170979822945
 10
115.11026833541479
 20
81.56679323088576
 10
113.59775076645226
 20
85.2643958839054
 10
111.82817579861697
 20
88.84609648686606
 10
109.81035936538632
 20
92.29405118752882
 10
107.55435412673143
 20
95.59108244901236
 10
105.07139938727079
 20
98.7207646274177
 10
102.37386510261992
 20
101.66750580355978
 10
99.4751902528949
 20
104.41662546112468
 10
96.38981589038929
 20
106.95442762426332
 10
93.13311319497802
 20
109.26826909025425
 10
89.72130689567253
 20
111.34662241730368
 10
86.17139443983689
 20
113.17913335368061
 10
82.50106131276003
 20
114.75667242207808
 10
78.7285929294577
 20
116.07138040220998
 10
74.87278353765461
 20
117.11670748505111
 10
70.95284258578762
 20
117.88744590365629
 10
66.98829902249986
 20
118.37975587799336
 10
62.99890400440108
 20
118.59118474453412
 10
59.00453249679875
 20
118.52067917530066
 10
55.02508425762082
 20
118.16859042549235
 10
51.08038469782248
 20
117.53667258355014
 10
47.190086112186265
 20
116.62807383237617
 10
43.37356977257783
 20
115.44732076524485
 10
39.64984937142454
 20
114.00029583454298
 10
36.03747629645606
 20
112.29420804568772
 10
32.55444720862407
 20
110.33755704222435
 10
29.218114383642394
 20
108.14009076102957
 10
26.045099263822515
 20
105.71275686858041
 10
23.051209650883827
 20
103.06764822023042
 10
20.25136095228077
 20
100.21794261421267
 10
17.659501873393133
 20
97.17783714051183
 10
15.288544925777472
 20
93.96247745167591
 10
13.15030209768404
 20
90.58788230793718
 10
11.255426007325504
 20
87.07086377255445
 10
9.613356832068888
 20
83.42894345495962
 10
8.232275277946727
 20
79.68026521898078
 10
7.119061823791128
 20
75.84350479102527
 10
6.2792624430343835
 20
71.93777671855037
 10
5.717060973948222
 20
67.98253914234895
 10
5.435258275972032
 20
63.99749685707126
 10
5.435258275972032
 20
60.00250314292875
 10
5.717060973948222
 20
56.017460857651
 10
6.2792624430343835
 20
52.062223281449654
 10
7.119061823791128
 20
48.15649520897472
 10
8.23227527794672
 20
44.319734781019235
 10
9.613356832068881
 20
40.57105654504039
 10
11.255426007325497
 20
36.92913622744556
 10
13.150302097684033
 20
33.41211769206283
 10
15.28854492577748
 20
30.037522548324084
 10
17.659501873393154
 20
26.822162859488145
 10
20.251360952280777
 20
23.78205738578732
 10
23.051209650883813
 20
20.93235177976959
 10
26.04509926382253
 20
18.28724313141958
 10
29.21811438364243
 20
15.859909238970403
 10
32.554447208624055
 20
13.662442957775653
 10
36.03747629645608
 20
11.705791954312275
 10
39.64984937142454
 20
9.999704165457018
 10
43.37356977257785
 20
8.55267923475514
 10
47.190086112186236
 20
7.37192616762384
 10
51.08038469782247
 20
6.463327416449857
 10
55.02508425762081
 20
5.831409574507646
 10
59.004532496798774
 20
5.479320824699343
 10
62.99890400440105
 20
5.408815255465875
 10
66.98829902249989
 20
5.620244122006639
 10
70.95284258578765
 20
6.112554096343715
 10
74.87278353765467
 20
6.883292514948906
 10
78.72859292945772
 20
7.928619597790025
 10
82.50106131276004
 20
9.243327577921924
 10
86.1713944398369
 20
10.820866646319402
 10
89.72130689567251
 20
12.653377582696308
 10
93.13311319497802
 20
14.731730909745743
 10
96.38981589038929
 20
17.04557237573669
 10
99.47519025289488
 20
19.58337453887529
 10
102.3738651026199
 20
22.332494196440194
 10
105.07139938727073
 20
25.279235372582257
 10
107.55435412673141
 20
28.40891755098759
 10
109.81035936538633
 20
31.705948812471185
 10
111.82817579861697
 20
35.153903513133955
 10
113.59775076645226
 20
38.735604116094585
 10
115.11026833541479
 20
42.43320676911422
 10
116.35819321905791
 20
46.228290201770534
 10
117.33530831838384
 20
50.10194749930054
 10
118.03674569511811
 20
54.03488029589876
 10
118.45901082353323
 20
58.007494918205175
 10
118.6
 20
61.999999999999986
  0
LWPOLYLINE
  5
3B
330
17
100
AcDbEntity
  8
XY_AFT
100
AcDbPolyline
 90
12
 70
0
 10
163.5
 20
62.0
 10
162.46814796340266
 20
65.51416531346139
 10
159.70019758451227
 20
67.91260796980437
 10
156.07495355122364
 20
68.43383937222606
 10
152.74340522935563
 20
66.91237223330268
 10
150.76329567150577
 20
63.831261619469295
 10
150.76329567150577
 20
60.168738380530705
 10
152.74340522935563
 20
57.087627766697324
 10
156.07495355122364
 20
55.56616062777394
 10
159.70019758451227
 20
56.08739203019563
 10
162.46814796340266
 20
58.48583468653862
 10
163.5
 20
62.00000000000001
  0
LWPOLYLINE
  5
3C
330
17
100
AcDbEntity
  8
XY_AFT
100
AcDbPolyline
 90
2
 70
0
 10
123.70899448216628
 20
68.0
 10
147.0
 20
68.0
  0
LWPOLYLINE
  5
3D
330
17
100
AcDbEntity
  8
XY_AFT
100
AcDbPolyline
 90
2
 70
0
 10
147.0
 20
66.58257569495535
 10
147.0
 20
68.0
  0
LWPOLYLINE
  5
3E
330
17
100
AcDbEntity
  8
XY_AFT
100
AcDbPolyline
 90
2
 70
0
 10
147.0
 20
56.0
 10
147.0
 20
57.417424305044655
  0
LWPOLYLINE
  5
3F
330
17
100
AcDbEntity
  8
XY_AFT
100
AcDbPolyline
 90
2
 70
0
 10
123.70899448216628
 20
56.0
 10
147.0
 20
56.0
  0
LWPOLYLINE
  5
40
330
17
100
AcDbEntity
  8
XY_AFT
100
AcDbPolyline
 90
96
 70
0
 10
123.70899448216616
 20
67.99999999999882
 10
123.19794335628364
 20
71.94040889305359
 10
122.43554133181127
 20
75.83999074894678
 10
121.42491973021882
 20
79.68272928755772
 10
120.17022935517326
 20
83.45284169443619
 10
118.67662344444574
 20
87.13484344364419
 10
116.95023650464239
 20
90.7136118954733
 10
114.99815911568854
 20
94.1744484078307
 10
112.82840880854882
 20
97.50313870619101
 10
110.44989713579352
 20
100.68601126416402
 10
107.87239307025848
 20
103.70999345489882
 10
105.10648288212627
 20
106.56266524270013
 10
102.16352665922145
 20
109.23231019433634
 10
99.05561164909788
 20
111.70796360052623
 10
95.79550261455142
 20
113.97945750996107
 10
92.39658940645604
 20
116.03746249089907
 10
88.87283196925152
 20
117.87352594881025
 10
85.23870300495494
 20
119.48010684269383
 10
81.5091285311851
 20
120.8506066574823
 10
77.69942657733849
 20
121.97939650532305
 10
73.82524427070314
 20
122.8618402444274
 10
69.90249357090819
 20
123.4943135205342
 10
65.94728591666
 20
123.87421865278088
 10
61.97586605318169
 20
123.99999530284346
 10
58.00454531213932
 20
123.87112688352502
 10
54.04963461808533
 20
123.48814268047175
 10
50.127377496574255
 20
122.85261567830219
 10
46.25388335909815
 20
121.96715610007794
 10
42.44506133885233
 20
120.83540068665081
 10
38.716554949080134
 20
119.46199775991778
 10
35.08367783236612
 20
117.8525881313314
 10
31.56135086476708
 20
116.0137819340785
 10
28.16404087310564
 20
113.95313147408089
 10
24.905701217124957
 20
111.67910021132423
 10
21.799714480544772
 20
109.20102799891416
 10
18.85883750639662
 20
106.5290927226292
 10
16.095149002387835
 20
103.67426849852347
 10
13.51999993148894
 20
100.6482806002695
 10
11.14396689149838
 20
97.46355730136202
 10
8.976808675063886
 20
94.13317882997603
 10
7.027426188575639
 20
90.67082364613023
 10
5.303825894551871
 20
87.09071226180542
 10
3.813086927665296
 20
83.40754883475837
 10
2.5613320194709317
 20
79.63646077591613
 10
1.553702351252575
 20
75.79293661839391
 10
0.7943364382717135
 20
71.8927624033192
 10
0.28635313214520863
 20
67.95195684373779
 10
0.03183881116395071
 20
63.98670553289427
 10
0.03183881116395071
 20
60.01329446710569
 10
0.28635313214522284
 20
56.04804315626212
 10
0.7943364382717206
 20
52.10723759668073
 10
1.5537023512525892
 20
48.20706338160602
 10
2.56133201947096
 20
44.363539224083766
 10
3.81308692766531
 20
40.592451165241584
 10
5.303825894551885
 20
36.90928773819455
 10
7.027426188575653
 20
33.32917635386973
 10
8.976808675063907
 20
29.86682117002394
 10
11.143966891498415
 20
26.536442698637934
 10
13.519999931488982
 20
23.35171939973044
 10
16.095149002387906
 20
20.32573150147646
 10
18.858837506396625
 20
17.47090727737079
 10
21.799714480544786
 20
14.798972001085836
 10
24.905701217125035
 20
12.32089978867571
 10
28.164040873105655
 20
10.046868525919102
 10
31.561350864767114
 20
7.986218065921484
 10
35.08367783236611
 20
6.1474118686686126
 10
38.71655494908016
 20
4.538002240082214
 10
42.44506133885233
 20
3.1645993133491785
 10
46.25388335909817
 20
2.0328438999220566
 10
50.12737749657427
 20
1.147384321697814
 10
54.04963461808531
 20
0.5118573195282394
 10
58.00454531213933
 20
0.12887311647498478
 10
61.97586605318173
 20
4.697156541055847e-06
 10
65.94728591666001
 20
0.12578134721911738
 10
69.90249357090823
 20
0.5056864794658082
 10
73.82524427070315
 20
1.1381597555726088
 10
77.69942657733854
 20
2.020603494676969
 10
81.50912853118511
 20
3.149393342517712
 10
85.23870300495494
 20
4.519893157306171
 10
88.87283196925154
 20
6.126474051189753
 10
92.39658940645604
 20
7.962537509100926
 10
95.7955026145514
 20
10.020542490038927
 10
99.0556116490979
 20
12.292036399473766
 10
102.16352665922147
 20
14.767689805663686
 10
105.10648288212627
 20
17.437334757299872
 10
107.8723930702585
 20
20.2900065451012
 10
110.44989713579356
 20
23.31398873583602
 10
112.82840880854883
 20
26.496861293809033
 10
114.99815911568855
 20
29.82555159216932
 10
116.95023650464242
 20
33.286388104526736
 10
118.67662344444575
 20
36.86515655635583
 10
120.17022935517326
 20
40.54715830556381
 10
121.42491973021882
 20
44.31727071244231
 10
122.43554133181127
 20
48.16000925105327
 10
123.19794335628364
 20
52.05959110694638
 10
123.70899448216616
 20
56.00000000000118
  0
LWPOLYLINE
  5
41
330
17
100
AcDbEntity
  8
XY_AFT
100
AcDbPolyline
 90
90
 70
0
 10
118.6
 20
62.0
 10
118.45901082353323
 20
65.9925050817948
 10
118.03674569511811
 20
69.9651197041012
 10
117.33530831838384
 20
73.89805250069946
 10
116.35819321905791
 20
77.77170979822945
 10
115.11026833541479
 20
81.56679323088576
 10
113.59775076645226
 20
85.2643958839054
 10
111.82817579861697
 20
88.84609648686606
 10
109.81035936538632
 20
92.29405118752882
 10
107.55435412673143
 20
95.59108244901236
 10
105.07139938727079
 20
98.7207646274177
 10
102.37386510261992
 20
101.66750580355978
 10
99.4751902528949
 20
104.41662546112468
 10
96.38981589038929
 20
106.95442762426332
 10
93.13311319497802
 20
109.26826909025425
 10
89.72130689567253
 20
111.34662241730368
 10
86.17139443983689
 20
113.17913335368061
 10
82.50106131276003
 20
114.75667242207808
 10
78.7285929294577
 20
116.07138040220998
 10
74.87278353765461
 20
117.11670748505111
 10
70.95284258578762
 20
117.88744590365629
 10
66.98829902249986
 20
118.37975587799336
 10
62.99890400440108
 20
118.59118474453412
 10
59.00453249679875
 20
118.52067917530066
 10
55.02508425762082
 20
118.16859042549235
 10
51.08038469782248
 20
117.53667258355014
 10
47.190086112186265
 20
116.62807383237617
 10
43.37356977257783
 20
115.44732076524485
 10
39.64984937142454
 20
114.00029583454298
 10
36.03747629645606
 20
112.29420804568772
 10
32.55444720862407
 20
110.33755704222435
 10
29.218114383642394
 20
108.14009076102957
 10
26.045099263822515
 20
105.71275686858041
 10
23.051209650883827
 20
103.06764822023042
 10
20.25136095228077
 20
100.21794261421267
 10
17.659501873393133
 20
97.17783714051183
 10
15.288544925777472
 20
93.96247745167591
 10
13.15030209768404
 20
90.58788230793718
 10
11.255426007325504
 20
87.07086377255445
 10
9.613356832068888
 20
83.42894345495962
 10
8.232275277946727
 20
79.68026521898078
 10
7.119061823791128
 20
75.84350479102527
 10
6.2792624430343835
 20
71.93777671855037
 10
5.717060973948222
 20
67.98253914234895
 10
5.435258275972032
 20
63.99749685707126
 10
5.435258275972032
 20
60.00250314292875
 10
5.717060973948222
 20
56.017460857651
 10
6.2792624430343835
 20
52.062223281449654
 10
7.119061823791128
 20
48.15649520897472
 10
8.23227527794672
 20
44.319734781019235
 10
9.613356832068881
 20
40.57105654504039
 10
11.255426007325497
 20
36.92913622744556
 10
13.150302097684033
 20
33.41211769206283
 10
15.28854492577748
 20
30.037522548324084
 10
17.659501873393154
 20
26.822162859488145
 10
20.251360952280777
 20
23.78205738578732
 10
23.051209650883813
 20
20.93235177976959
 10
26.04509926382253
 20
18.28724313141958
 10
29.21811438364243
 20
15.859909238970403
 10
32.554447208624055
 20
13.662442957775653
 10
36.03747629645608
 20
11.705791954312275
 10
39.64984937142454
 20
9.999704165457018
 10
43.37356977257785
 20
8.55267923475514
 10
47.190086112186236
 20
7.37192616762384
 10
51.08038469782247
 20
6.463327416449857
 10
55.02508425762081
 20
5.831409574507646
 10
59.004532496798774
 20
5.479320824699343
 10
62.99890400440105
 20
5.408815255465875
 10
66.98829902249989
 20
5.620244122006639
 10
70.95284258578765
 20
6.112554096343715
 10
74.87278353765467
 20
6.883292514948906
 10
78.72859292945772
 20
7.928619597790025
 10
82.50106131276004
 20
9.243327577921924
 10
86.1713944398369
 20
10.820866646319402
 10
89.72130689567251
 20
12.653377582696308
 10
93.13311319497802
 20
14.731730909745743
 10
96.38981589038929
 20
17.04557237573669
 10
99.47519025289488
 20
19.58337453887529
 10
102.3738651026199
 20
22.332494196440194
 10
105.07139938727073
 20
25.279235372582257
 10
107.55435412673141
 20
28.40891755098759
 10
109.81035936538633
 20
31.705948812471185
 10
111.82817579861697
 20
35.153903513133955
 10
113.59775076645226
 20
38.735604116094585
 10
115.11026833541479
 20
42.43320676911422
 10
116.35819321905791
 20
46.228290201770534
 10
117.33530831838384
 20
50.10194749930054
 10
118.03674569511811
 20
54.03488029589876
 10
118.45901082353323
 20
58.007494918205175
 10
118.6
 20
61.999999999999986
  0
LWPOLYLINE
  5
42
330
17
100
AcDbEntity
  8
XY_AFT
100
AcDbPolyline
 90
16
 70
0
 10
146.99999999999977
 20
57.41742430504461
 10
149.26775187310176
 20
54.17616852788363
 10
152.53548392882158
 20
51.94673703466434
 10
156.38059367895693
 20
51.017453127372875
 10
160.3058087278186
 20
51.508497311868126
 10
163.8034969874346
 20
53.356364842153035
 10
166.42131666959665
 20
56.322078530731524
 10
167.8207158084512
 20
60.02209469571108
 10
167.8207158084512
 20
63.9779053042889
 10
166.42131666959668
 20
67.67792146926847
 10
163.80349698743464
 20
70.64363515784696
 10
160.30580872781863
 20
72.49150268813187
 10
156.38059367895693
 20
72.98254687262713
 10
152.53548392882158
 20
72.05326296533566
 10
149.26775187310176
 20
69.82383147211638
 10
146.9999999999998
 20
66.5825756949554
  0
LWPOLYLINE
  5
43
330
17
100
AcDbEntity
  8
XY_AFT
100
AcDbPolyline
 90
12
 70
0
 10
163.5
 20
62.0
 10
162.46814796340266
 20
65.51416531346139
 10
159.70019758451227
 20
67.91260796980437
 10
156.07495355122364
 20
68.43383937222606
 10
152.74340522935563
 20
66.91237223330268
 10
150.76329567150577
 20
63.831261619469295
 10
150.76329567150577
 20
60.168738380530705
 10
152.74340522935563
 20
57.087627766697324
 10
156.07495355122364
 20
55.56616062777394
 10
159.70019758451227
 20
56.08739203019563
 10
162.46814796340266
 20
58.48583468653862
 10
163.5
 20
62.00000000000001
  0
DIMENSION
  5
44
330
17
100
AcDbEntity
  8
DIMENSIONS
100
AcDbDimension
280
0
  2
*D1
  3
Standard
 10
0.0
 20
-25.0
 30
0.0
 11
84.0
 21
-25.0
 31
0.0
 70
32
 71
5
  1
<>
100
AcDbAlignedDimension
 13
0.0
 23
0.0
 33
0.0
 14
168.0
 24
0.0
 34
0.0
 50
0.0
100
AcDbRotatedDimension
1001
ACAD
1000
DSTYLE
1002
{
1070
140
1040
3.0
1070
41
1040
3.0
1070
271
1070
3
1002
}
  0
DIMENSION
  5
58
330
17
100
AcDbEntity
  8
DIMENSIONS
100
AcDbDimension
280
0
  2
*D2
  3
Standard
 10
-25.0
 20
0.0
 30
0.0
 11
-25.0
 21
62.0
 31
0.0
 70
32
 71
5
  1
<>
100
AcDbAlignedDimension
 13
0.0
 23
0.0
 33
0.0
 14
0.0
 24
124.0
 34
0.0
 50
90.0
100
AcDbRotatedDimension
1001
ACAD
1000
DSTYLE
1002
{
1070
140
1040
3.0
1070
41
1040
3.0
1070
271
1070
3
1002
}
  0
LWPOLYLINE
  5
68
330
17
100
AcDbEntity
  8
XZ_SIDE
100
AcDbPolyline
 90
2
 70
0
 10
123.70899448216628
 20
-234.0
 10
147.0
 20
-234.0
  0
LWPOLYLINE
  5
69
330
17
100
AcDbEntity
  8
XZ_SIDE
100
AcDbPolyline
 90
96
 70
0
 10
123.70899448216616
 20
-234.0
 10
123.19794335628364
 20
-234.0
 10
122.43554133181127
 20
-234.0
 10
121.42491973021882
 20
-234.0
 10
120.17022935517326
 20
-234.0
 10
118.67662344444574
 20
-234.0
 10
116.95023650464239
 20
-234.0
 10
114.99815911568854
 20
-234.0
 10
112.82840880854882
 20
-234.0
 10
110.44989713579352
 20
-234.0
 10
107.87239307025848
 20
-234.0
 10
105.10648288212627
 20
-234.0
 10
102.16352665922145
 20
-234.0
 10
99.05561164909788
 20
-234.0
 10
95.79550261455142
 20
-234.0
 10
92.39658940645604
 20
-234.0
 10
88.87283196925152
 20
-234.0
 10
85.23870300495494
 20
-234.0
 10
81.5091285311851
 20
-234.0
 10
77.69942657733849
 20
-234.0
 10
73.82524427070314
 20
-234.0
 10
69.90249357090819
 20
-234.0
 10
65.94728591666
 20
-234.0
 10
61.97586605318169
 20
-234.0
 10
58.00454531213932
 20
-234.0
 10
54.04963461808533
 20
-234.0
 10
50.127377496574255
 20
-234.0
 10
46.25388335909815
 20
-234.0
 10
42.44506133885233
 20
-234.0
 10
38.716554949080134
 20
-234.0
 10
35.08367783236612
 20
-234.0
 10
31.56135086476708
 20
-234.0
 10
28.16404087310564
 20
-234.0
 10
24.905701217124957
 20
-234.0
 10
21.799714480544772
 20
-234.0
 10
18.85883750639662
 20
-234.0
 10
16.095149002387835
 20
-234.0
 10
13.51999993148894
 20
-234.0
 10
11.14396689149838
 20
-234.0
 10
8.976808675063886
 20
-234.0
 10
7.027426188575639
 20
-234.0
 10
5.303825894551871
 20
-234.0
 10
3.813086927665296
 20
-234.0
 10
2.5613320194709317
 20
-234.0
 10
1.553702351252575
 20
-234.0
 10
0.7943364382717135
 20
-234.0
 10
0.28635313214520863
 20
-234.0
 10
0.03183881116395071
 20
-234.0
 10
0.03183881116395071
 20
-234.0
 10
0.28635313214522284
 20
-234.0
 10
0.7943364382717206
 20
-234.0
 10
1.5537023512525892
 20
-234.0
 10
2.56133201947096
 20
-234.0
 10
3.81308692766531
 20
-234.0
 10
5.303825894551885
 20
-234.0
 10
7.027426188575653
 20
-234.0
 10
8.976808675063907
 20
-234.0
 10
11.143966891498415
 20
-234.0
 10
13.519999931488982
 20
-234.0
 10
16.095149002387906
 20
-234.0
 10
18.858837506396625
 20
-234.0
 10
21.799714480544786
 20
-234.0
 10
24.905701217125035
 20
-234.0
 10
28.164040873105655
 20
-234.0
 10
31.561350864767114
 20
-234.0
 10
35.08367783236611
 20
-234.0
 10
38.71655494908016
 20
-234.0
 10
42.44506133885233
 20
-234.0
 10
46.25388335909817
 20
-234.0
 10
50.12737749657427
 20
-234.0
 10
54.04963461808531
 20
-234.0
 10
58.00454531213933
 20
-234.0
 10
61.97586605318173
 20
-234.0
 10
65.94728591666001
 20
-234.0
 10
69.90249357090823
 20
-234.0
 10
73.82524427070315
 20
-234.0
 10
77.69942657733854
 20
-234.0
 10
81.50912853118511
 20
-234.0
 10
85.23870300495494
 20
-234.0
 10
88.87283196925154
 20
-234.0
 10
92.39658940645604
 20
-234.0
 10
95.7955026145514
 20
-234.0
 10
99.0556116490979
 20
-234.0
 10
102.16352665922147
 20
-234.0
 10
105.10648288212627
 20
-234.0
 10
107.8723930702585
 20
-234.0
 10
110.44989713579356
 20
-234.0
 10
112.82840880854883
 20
-234.0
 10
114.99815911568855
 20
-234.0
 10
116.95023650464242
 20
-234.0
 10
118.67662344444575
 20
-234.0
 10
120.17022935517326
 20
-234.0
 10
121.42491973021882
 20
-234.0
 10
122.43554133181127
 20
-234.0
 10
123.19794335628364
 20
-234.0
 10
123.70899448216616
 20
-234.0
  0
LWPOLYLINE
  5
6A
330
17
100
AcDbEntity
  8
XZ_SIDE
100
AcDbPolyline
 90
2
 70
0
 10
123.70899448216628
 20
-234.0
 10
147.0
 20
-234.0
  0
LWPOLYLINE
  5
6B
330
17
100
AcDbEntity
  8
XZ_SIDE
100
AcDbPolyline
 90
16
 70
0
 10
146.9999999999998
 20
-234.0
 10
149.26775187310176
 20
-234.0
 10
152.53548392882158
 20
-234.0
 10
156.38059367895693
 20
-234.0
 10
160.3058087278186
 20
-234.0
 10
163.8034969874346
 20
-234.0
 10
166.42131666959668
 20
-234.0
 10
167.8207158084512
 20
-234.0
 10
167.8207158084512
 20
-234.0
 10
166.42131666959668
 20
-234.0
 10
163.80349698743464
 20
-234.0
 10
160.3058087278186
 20
-234.0
 10
156.38059367895693
 20
-234.0
 10
152.53548392882158
 20
-234.0
 10
149.26775187310176
 20
-234.0
 10
146.9999999999998
 20
-234.0
  0
LWPOLYLINE
  5
6C
330
17
100
AcDbEntity
  8
XZ_SIDE
100
AcDbPolyline
 90
90
 70
0
 10
118.6
 20
-234.0
 10
118.45901082353323
 20
-234.0
 10
118.03674569511811
 20
-234.0
 10
117.33530831838384
 20
-234.0
 10
116.35819321905791
 20
-234.0
 10
115.11026833541479
 20
-234.0
 10
113.59775076645226
 20
-234.0
 10
111.82817579861697
 20
-234.0
 10
109.81035936538632
 20
-234.0
 10
107.55435412673143
 20
-234.0
 10
105.07139938727079
 20
-234.0
 10
102.37386510261992
 20
-234.0
 10
99.4751902528949
 20
-234.0
 10
96.38981589038929
 20
-234.0
 10
93.13311319497802
 20
-234.0
 10
89.72130689567253
 20
-234.0
 10
86.17139443983689
 20
-234.0
 10
82.50106131276003
 20
-234.0
 10
78.7285929294577
 20
-234.0
 10
74.87278353765461
 20
-234.0
 10
70.95284258578762
 20
-234.0
 10
66.98829902249986
 20
-234.0
 10
62.99890400440108
 20
-234.0
 10
59.00453249679875
 20
-234.0
 10
55.02508425762082
 20
-234.0
 10
51.08038469782248
 20
-234.0
 10
47.190086112186265
 20
-234.0
 10
43.37356977257783
 20
-234.0
 10
39.64984937142454
 20
-234.0
 10
36.03747629645606
 20
-234.0
 10
32.55444720862407
 20
-234.0
 10
29.218114383642394
 20
-234.0
 10
26.045099263822515
 20
-234.0
 10
23.051209650883827
 20
-234.0
 10
20.25136095228077
 20
-234.0
 10
17.659501873393133
 20
-234.0
 10
15.288544925777472
 20
-234.0
 10
13.15030209768404
 20
-234.0
 10
11.255426007325504
 20
-234.0
 10
9.613356832068888
 20
-234.0
 10
8.232275277946727
 20
-234.0
 10
7.119061823791128
 20
-234.0
 10
6.2792624430343835
 20
-234.0
 10
5.717060973948222
 20
-234.0
 10
5.435258275972032
 20
-234.0
 10
5.435258275972032
 20
-234.0
 10
5.717060973948222
 20
-234.0
 10
6.2792624430343835
 20
-234.0
 10
7.119061823791128
 20
-234.0
 10
8.23227527794672
 20
-234.0
 10
9.613356832068881
 20
-234.0
 10
11.255426007325497
 20
-234.0
 10
13.150302097684033
 20
-234.0
 10
15.28854492577748
 20
-234.0
 10
17.659501873393154
 20
-234.0
 10
20.251360952280777
 20
-234.0
 10
23.051209650883813
 20
-234.0
 10
26.04509926382253
 20
-234.0
 10
29.21811438364243
 20
-234.0
 10
32.554447208624055
 20
-234.0
 10
36.03747629645608
 20
-234.0
 10
39.64984937142454
 20
-234.0
 10
43.37356977257785
 20
-234.0
 10
47.190086112186236
 20
-234.0
 10
51.08038469782247
 20
-234.0
 10
55.02508425762081
 20
-234.0
 10
59.004532496798774
 20
-234.0
 10
62.99890400440105
 20
-234.0
 10
66.98829902249989
 20
-234.0
 10
70.95284258578765
 20
-234.0
 10
74.87278353765467
 20
-234.0
 10
78.72859292945772
 20
-234.0
 10
82.50106131276004
 20
-234.0
 10
86.1713944398369
 20
-234.0
 10
89.72130689567251
 20
-234.0
 10
93.13311319497802
 20
-234.0
 10
96.38981589038929
 20
-234.0
 10
99.47519025289488
 20
-234.0
 10
102.3738651026199
 20
-234.0
 10
105.07139938727073
 20
-234.0
 10
107.55435412673141
 20
-234.0
 10
109.81035936538633
 20
-234.0
 10
111.82817579861697
 20
-234.0
 10
113.59775076645226
 20
-234.0
 10
115.11026833541479
 20
-234.0
 10
116.35819321905791
 20
-234.0
 10
117.33530831838384
 20
-234.0
 10
118.03674569511811
 20
-234.0
 10
118.45901082353323
 20
-234.0
 10
118.6
 20
-234.0
  0
LWPOLYLINE
  5
6D
330
17
100
AcDbEntity
  8
XZ_SIDE
100
AcDbPolyline
 90
12
 70
0
 10
163.5
 20
-234.0
 10
162.46814796340266
 20
-234.0
 10
159.70019758451227
 20
-234.0
 10
156.07495355122364
 20
-234.0
 10
152.74340522935563
 20
-234.0
 10
150.76329567150577
 20
-234.0
 10
150.76329567150577
 20
-234.0
 10
152.74340522935563
 20
-234.0
 10
156.07495355122364
 20
-234.0
 10
159.70019758451227
 20
-234.0
 10
162.46814796340266
 20
-234.0
 10
163.5
 20
-234.0
  0
LWPOLYLINE
  5
6E
330
17
100
AcDbEntity
  8
XZ_SIDE
100
AcDbPolyline
 90
2
 70
0
 10
147.0
 20
-234.0
 10
147.0
 20
-224.0
  0
LWPOLYLINE
  5
6F
330
17
100
AcDbEntity
  8
XZ_SIDE
100
AcDbPolyline
 90
2
 70
0
 10
123.70899448216628
 20
-224.0
 10
147.0
 20
-224.0
  0
LWPOLYLINE
  5
70
330
17
100
AcDbEntity
  8
XZ_SIDE
100
AcDbPolyline
 90
2
 70
0
 10
123.70899448216605
 20
-234.0
 10
123.70899448216605
 20
-224.0
  0
LWPOLYLINE
  5
71
330
17
100
AcDbEntity
  8
XZ_SIDE
100
AcDbPolyline
 90
2
 70
0
 10
147.0
 20
-234.0
 10
147.0
 20
-224.0
  0
LWPOLYLINE
  5
72
330
17
100
AcDbEntity
  8
XZ_SIDE
100
AcDbPolyline
 90
2
 70
0
 10
147.0
 20
-234.0
 10
147.0
 20
-224.0
  0
LWPOLYLINE
  5
73
330
17
100
AcDbEntity
  8
XZ_SIDE
100
AcDbPolyline
 90
2
 70
0
 10
147.0
 20
-234.0
 10
147.0
 20
-224.0
  0
LWPOLYLINE
  5
74
330
17
100
AcDbEntity
  8
XZ_SIDE
100
AcDbPolyline
 90
2
 70
0
 10
123.70899448216628
 20
-224.0
 10
147.0
 20
-224.0
  0
LWPOLYLINE
  5
75
330
17
100
AcDbEntity
  8
XZ_SIDE
100
AcDbPolyline
 90
2
 70
0
 10
123.70899448216605
 20
-234.0
 10
123.70899448216605
 20
-224.0
  0
LWPOLYLINE
  5
76
330
17
100
AcDbEntity
  8
XZ_SIDE
100
AcDbPolyline
 90
96
 70
0
 10
123.70899448216616
 20
-224.0
 10
123.19794335628364
 20
-224.0
 10
122.43554133181127
 20
-224.0
 10
121.42491973021882
 20
-224.0
 10
120.17022935517326
 20
-224.0
 10
118.67662344444574
 20
-224.0
 10
116.95023650464239
 20
-224.0
 10
114.99815911568854
 20
-224.0
 10
112.82840880854882
 20
-224.0
 10
110.44989713579352
 20
-224.0
 10
107.87239307025848
 20
-224.0
 10
105.10648288212627
 20
-224.0
 10
102.16352665922145
 20
-224.0
 10
99.05561164909788
 20
-224.0
 10
95.79550261455142
 20
-224.0
 10
92.39658940645604
 20
-224.0
 10
88.87283196925152
 20
-224.0
 10
85.23870300495494
 20
-224.0
 10
81.5091285311851
 20
-224.0
 10
77.69942657733849
 20
-224.0
 10
73.82524427070314
 20
-224.0
 10
69.90249357090819
 20
-224.0
 10
65.94728591666
 20
-224.0
 10
61.97586605318169
 20
-224.0
 10
58.00454531213932
 20
-224.0
 10
54.04963461808533
 20
-224.0
 10
50.127377496574255
 20
-224.0
 10
46.25388335909815
 20
-224.0
 10
42.44506133885233
 20
-224.0
 10
38.716554949080134
 20
-224.0
 10
35.08367783236612
 20
-224.0
 10
31.56135086476708
 20
-224.0
 10
28.16404087310564
 20
-224.0
 10
24.905701217124957
 20
-224.0
 10
21.799714480544772
 20
-224.0
 10
18.85883750639662
 20
-224.0
 10
16.095149002387835
 20
-224.0
 10
13.51999993148894
 20
-224.0
 10
11.14396689149838
 20
-224.0
 10
8.976808675063886
 20
-224.0
 10
7.027426188575639
 20
-224.0
 10
5.303825894551871
 20
-224.0
 10
3.813086927665296
 20
-224.0
 10
2.5613320194709317
 20
-224.0
 10
1.553702351252575
 20
-224.0
 10
0.7943364382717135
 20
-224.0
 10
0.28635313214520863
 20
-224.0
 10
0.03183881116395071
 20
-224.0
 10
0.03183881116395071
 20
-224.0
 10
0.28635313214522284
 20
-224.0
 10
0.7943364382717206
 20
-224.0
 10
1.5537023512525892
 20
-224.0
 10
2.56133201947096
 20
-224.0
 10
3.81308692766531
 20
-224.0
 10
5.303825894551885
 20
-224.0
 10
7.027426188575653
 20
-224.0
 10
8.976808675063907
 20
-224.0
 10
11.143966891498415
 20
-224.0
 10
13.519999931488982
 20
-224.0
 10
16.095149002387906
 20
-224.0
 10
18.858837506396625
 20
-224.0
 10
21.799714480544786
 20
-224.0
 10
24.905701217125035
 20
-224.0
 10
28.164040873105655
 20
-224.0
 10
31.561350864767114
 20
-224.0
 10
35.08367783236611
 20
-224.0
 10
38.71655494908016
 20
-224.0
 10
42.44506133885233
 20
-224.0
 10
46.25388335909817
 20
-224.0
 10
50.12737749657427
 20
-224.0
 10
54.04963461808531
 20
-224.0
 10
58.00454531213933
 20
-224.0
 10
61.97586605318173
 20
-224.0
 10
65.94728591666001
 20
-224.0
 10
69.90249357090823
 20
-224.0
 10
73.82524427070315
 20
-224.0
 10
77.69942657733854
 20
-224.0
 10
81.50912853118511
 20
-224.0
 10
85.23870300495494
 20
-224.0
 10
88.87283196925154
 20
-224.0
 10
92.39658940645604
 20
-224.0
 10
95.7955026145514
 20
-224.0
 10
99.0556116490979
 20
-224.0
 10
102.16352665922147
 20
-224.0
 10
105.10648288212627
 20
-224.0
 10
107.8723930702585
 20
-224.0
 10
110.44989713579356
 20
-224.0
 10
112.82840880854883
 20
-224.0
 10
114.99815911568855
 20
-224.0
 10
116.95023650464242
 20
-224.0
 10
118.67662344444575
 20
-224.0
 10
120.17022935517326
 20
-224.0
 10
121.42491973021882
 20
-224.0
 10
122.43554133181127
 20
-224.0
 10
123.19794335628364
 20
-224.0
 10
123.70899448216616
 20
-224.0
  0
LWPOLYLINE
  5
77
330
17
100
AcDbEntity
  8
XZ_SIDE
100
AcDbPolyline
 90
90
 70
0
 10
118.6
 20
-224.0
 10
118.45901082353323
 20
-224.0
 10
118.03674569511811
 20
-224.0
 10
117.33530831838384
 20
-224.0
 10
116.35819321905791
 20
-224.0
 10
115.11026833541479
 20
-224.0
 10
113.59775076645226
 20
-224.0
 10
111.82817579861697
 20
-224.0
 10
109.81035936538632
 20
-224.0
 10
107.55435412673143
 20
-224.0
 10
105.07139938727079
 20
-224.0
 10
102.37386510261992
 20
-224.0
 10
99.4751902528949
 20
-224.0
 10
96.38981589038929
 20
-224.0
 10
93.13311319497802
 20
-224.0
 10
89.72130689567253
 20
-224.0
 10
86.17139443983689
 20
-224.0
 10
82.50106131276003
 20
-224.0
 10
78.7285929294577
 20
-224.0
 10
74.87278353765461
 20
-224.0
 10
70.95284258578762
 20
-224.0
 10
66.98829902249986
 20
-224.0
 10
62.99890400440108
 20
-224.0
 10
59.00453249679875
 20
-224.0
 10
55.02508425762082
 20
-224.0
 10
51.08038469782248
 20
-224.0
 10
47.190086112186265
 20
-224.0
 10
43.37356977257783
 20
-224.0
 10
39.64984937142454
 20
-224.0
 10
36.03747629645606
 20
-224.0
 10
32.55444720862407
 20
-224.0
 10
29.218114383642394
 20
-224.0
 10
26.045099263822515
 20
-224.0
 10
23.051209650883827
 20
-224.0
 10
20.25136095228077
 20
-224.0
 10
17.659501873393133
 20
-224.0
 10
15.288544925777472
 20
-224.0
 10
13.15030209768404
 20
-224.0
 10
11.255426007325504
 20
-224.0
 10
9.613356832068888
 20
-224.0
 10
8.232275277946727
 20
-224.0
 10
7.119061823791128
 20
-224.0
 10
6.2792624430343835
 20
-224.0
 10
5.717060973948222
 20
-224.0
 10
5.435258275972032
 20
-224.0
 10
5.435258275972032
 20
-224.0
 10
5.717060973948222
 20
-224.0
 10
6.2792624430343835
 20
-224.0
 10
7.119061823791128
 20
-224.0
 10
8.23227527794672
 20
-224.0
 10
9.613356832068881
 20
-224.0
 10
11.255426007325497
 20
-224.0
 10
13.150302097684033
 20
-224.0
 10
15.28854492577748
 20
-224.0
 10
17.659501873393154
 20
-224.0
 10
20.251360952280777
 20
-224.0
 10
23.051209650883813
 20
-224.0
 10
26.04509926382253
 20
-224.0
 10
29.21811438364243
 20
-224.0
 10
32.554447208624055
 20
-224.0
 10
36.03747629645608
 20
-224.0
 10
39.64984937142454
 20
-224.0
 10
43.37356977257785
 20
-224.0
 10
47.190086112186236
 20
-224.0
 10
51.08038469782247
 20
-224.0
 10
55.02508425762081
 20
-224.0
 10
59.004532496798774
 20
-224.0
 10
62.99890400440105
 20
-224.0
 10
66.98829902249989
 20
-224.0
 10
70.95284258578765
 20
-224.0
 10
74.87278353765467
 20
-224.0
 10
78.72859292945772
 20
-224.0
 10
82.50106131276004
 20
-224.0
 10
86.1713944398369
 20
-224.0
 10
89.72130689567251
 20
-224.0
 10
93.13311319497802
 20
-224.0
 10
96.38981589038929
 20
-224.0
 10
99.47519025289488
 20
-224.0
 10
102.3738651026199
 20
-224.0
 10
105.07139938727073
 20
-224.0
 10
107.55435412673141
 20
-224.0
 10
109.81035936538633
 20
-224.0
 10
111.82817579861697
 20
-224.0
 10
113.59775076645226
 20
-224.0
 10
115.11026833541479
 20
-224.0
 10
116.35819321905791
 20
-224.0
 10
117.33530831838384
 20
-224.0
 10
118.03674569511811
 20
-224.0
 10
118.45901082353323
 20
-224.0
 10
118.6
 20
-224.0
  0
LWPOLYLINE
  5
78
330
17
100
AcDbEntity
  8
XZ_SIDE
100
AcDbPolyline
 90
2
 70
0
 10
118.6
 20
-234.0
 10
118.6
 20
-224.0
  0
LWPOLYLINE
  5
79
330
17
100
AcDbEntity
  8
XZ_SIDE
100
AcDbPolyline
 90
16
 70
0
 10
146.99999999999977
 20
-224.0
 10
149.26775187310176
 20
-224.0
 10
152.53548392882158
 20
-224.0
 10
156.38059367895693
 20
-224.0
 10
160.3058087278186
 20
-224.0
 10
163.8034969874346
 20
-224.0
 10
166.42131666959665
 20
-224.0
 10
167.8207158084512
 20
-224.0
 10
167.8207158084512
 20
-224.0
 10
166.42131666959668
 20
-224.0
 10
163.80349698743464
 20
-224.0
 10
160.30580872781863
 20
-224.0
 10
156.38059367895693
 20
-224.0
 10
152.53548392882158
 20
-224.0
 10
149.26775187310176
 20
-224.0
 10
146.9999999999998
 20
-224.0
  0
LWPOLYLINE
  5
7A
330
17
100
AcDbEntity
  8
XZ_SIDE
100
AcDbPolyline
 90
12
 70
0
 10
163.5
 20
-224.0
 10
162.46814796340266
 20
-224.0
 10
159.70019758451227
 20
-224.0
 10
156.07495355122364
 20
-224.0
 10
152.74340522935563
 20
-224.0
 10
150.76329567150577
 20
-224.0
 10
150.76329567150577
 20
-224.0
 10
152.74340522935563
 20
-224.0
 10
156.07495355122364
 20
-224.0
 10
159.70019758451227
 20
-224.0
 10
162.46814796340266
 20
-224.0
 10
163.5
 20
-224.0
  0
LWPOLYLINE
  5
7B
330
17
100
AcDbEntity
  8
XZ_SIDE
100
AcDbPolyline
 90
2
 70
0
 10
163.5
 20
-234.0
 10
163.5
 20
-224.0
  0
DIMENSION
  5
7C
330
17
100
AcDbEntity
  8
DIMENSIONS
100
AcDbDimension
280
0
  2
*D3
  3
Standard
 10
0.0
 20
-259.0
 30
0.0
 11
84.0
 21
-259.0
 31
0.0
 70
32
 71
5
  1
<>
100
AcDbAlignedDimension
 13
0.0
 23
-234.0
 33
0.0
 14
168.0
 24
-234.0
 34
0.0
 50
0.0
100
AcDbRotatedDimension
1001
ACAD
1000
DSTYLE
1002
{
1070
140
1040
3.0
1070
41
1040
3.0
1070
271
1070
3
1002
}
  0
DIMENSION
  5
8C
330
17
100
AcDbEntity
  8
DIMENSIONS
100
AcDbDimension
280
0
  2
*D4
  3
Standard
 10
-25.0
 20
-234.0
 30
0.0
 11
-27.125
 21
-229.0
 31
0.0
 70
32
 71
5
  1
<>
100
AcDbAlignedDimension
 13
0.0
 23
-234.0
 33
0.0
 14
0.0
 24
-224.0
 34
0.0
 50
90.0
100
AcDbRotatedDimension
1001
ACAD
1000
DSTYLE
1002
{
1070
140
1040
3.0
1070
41
1040
3.0
1070
271
1070
3
1002
}
  0
LWPOLYLINE
  5
9B
330
17
100
AcDbEntity
  8
YZ_SIDE
100
AcDbPolyline
 90
96
 70
0
 10
335.9999999999988
 20
0.0
 10
339.9404088930536
 20
0.0
 10
343.8399907489468
 20
0.0
 10
347.6827292875577
 20
0.0
 10
351.4528416944362
 20
0.0
 10
355.1348434436442
 20
0.0
 10
358.7136118954733
 20
0.0
 10
362.1744484078307
 20
0.0
 10
365.503138706191
 20
0.0
 10
368.686011264164
 20
0.0
 10
371.70999345489884
 20
0.0
 10
374.5626652427001
 20
0.0
 10
377.2323101943363
 20
0.0
 10
379.7079636005262
 20
0.0
 10
381.9794575099611
 20
0.0
 10
384.0374624908991
 20
0.0
 10
385.87352594881025
 20
0.0
 10
387.48010684269383
 20
0.0
 10
388.85060665748233
 20
0.0
 10
389.97939650532305
 20
0.0
 10
390.8618402444274
 20
0.0
 10
391.4943135205342
 20
0.0
 10
391.8742186527809
 20
0.0
 10
391.99999530284344
 20
0.0
 10
391.871126883525
 20
0.0
 10
391.48814268047175
 20
0.0
 10
390.8526156783022
 20
0.0
 10
389.96715610007794
 20
0.0
 10
388.8354006866508
 20
0.0
 10
387.4619977599178
 20
0.0
 10
385.8525881313314
 20
0.0
 10
384.0137819340785
 20
0.0
 10
381.9531314740809
 20
0.0
 10
379.6791002113242
 20
0.0
 10
377.2010279989141
 20
0.0
 10
374.52909272262923
 20
0.0
 10
371.6742684985235
 20
0.0
 10
368.6482806002695
 20
0.0
 10
365.463557301362
 20
0.0
 10
362.13317882997603
 20
0.0
 10
358.6708236461302
 20
0.0
 10
355.09071226180544
 20
0.0
 10
351.40754883475836
 20
0.0
 10
347.63646077591613
 20
0.0
 10
343.7929366183939
 20
0.0
 10
339.8927624033192
 20
0.0
 10
335.9519568437378
 20
0.0
 10
331.9867055328943
 20
0.0
 10
328.0132944671057
 20
0.0
 10
324.0480431562621
 20
0.0
 10
320.10723759668076
 20
0.0
 10
316.207063381606
 20
0.0
 10
312.36353922408375
 20
0.0
 10
308.5924511652416
 20
0.0
 10
304.90928773819456
 20
0.0
 10
301.32917635386974
 20
0.0
 10
297.86682117002397
 20
0.0
 10
294.5364426986379
 20
0.0
 10
291.3517193997304
 20
0.0
 10
288.32573150147647
 20
0.0
 10
285.47090727737077
 20
0.0
 10
282.7989720010858
 20
0.0
 10
280.3208997886757
 20
0.0
 10
278.0468685259191
 20
0.0
 10
275.9862180659215
 20
0.0
 10
274.1474118686686
 20
0.0
 10
272.5380022400822
 20
0.0
 10
271.1645993133492
 20
0.0
 10
270.03284389992206
 20
0.0
 10
269.1473843216978
 20
0.0
 10
268.51185731952825
 20
0.0
 10
268.128873116475
 20
0.0
 10
268.00000469715656
 20
0.0
 10
268.1257813472191
 20
0.0
 10
268.5056864794658
 20
0.0
 10
269.1381597555726
 20
0.0
 10
270.02060349467695
 20
0.0
 10
271.1493933425177
 20
0.0
 10
272.51989315730617
 20
0.0
 10
274.12647405118975
 20
0.0
 10
275.9625375091009
 20
0.0
 10
278.0205424900389
 20
0.0
 10
280.2920363994738
 20
0.0
 10
282.7676898056637
 20
0.0
 10
285.4373347572999
 20
0.0
 10
288.2900065451012
 20
0.0
 10
291.313988735836
 20
0.0
 10
294.49686129380905
 20
0.0
 10
297.8255515921693
 20
0.0
 10
301.28638810452674
 20
0.0
 10
304.8651565563558
 20
0.0
 10
308.5471583055638
 20
0.0
 10
312.31727071244234
 20
0.0
 10
316.1600092510533
 20
0.0
 10
320.05959110694636
 20
0.0
 10
324.0000000000012
 20
0.0
  0
LWPOLYLINE
  5
9C
330
17
100
AcDbEntity
  8
YZ_SIDE
100
AcDbPolyline
 90
2
 70
0
 10
324.0
 20
0.0
 10
325.4174243050447
 20
0.0
  0
LWPOLYLINE
  5
9D
330
17
100
AcDbEntity
  8
YZ_SIDE
100
AcDbPolyline
 90
16
 70
0
 10
334.5825756949554
 20
0.0
 10
337.82383147211635
 20
0.0
 10
340.05326296533565
 20
0.0
 10
340.98254687262715
 20
0.0
 10
340.49150268813185
 20
0.0
 10
338.643635157847
 20
0.0
 10
335.6779214692685
 20
0.0
 10
331.9779053042889
 20
0.0
 10
328.0220946957111
 20
0.0
 10
324.3220785307315
 20
0.0
 10
321.356364842153
 20
0.0
 10
319.50849731186815
 20
0.0
 10
319.01745312737285
 20
0.0
 10
319.94673703466435
 20
0.0
 10
322.17616852788365
 20
0.0
 10
325.4174243050446
 20
0.0
  0
LWPOLYLINE
  5
9E
330
17
100
AcDbEntity
  8
YZ_SIDE
100
AcDbPolyline
 90
2
 70
0
 10
334.5825756949554
 20
0.0
 10
336.0
 20
0.0
  0
LWPOLYLINE
  5
9F
330
17
100
AcDbEntity
  8
YZ_SIDE
100
AcDbPolyline
 90
90
 70
0
 10
330.0
 20
0.0
 10
333.9925050817948
 20
0.0
 10
337.9651197041012
 20
0.0
 10
341.89805250069946
 20
0.0
 10
345.77170979822944
 20
0.0
 10
349.56679323088576
 20
0.0
 10
353.2643958839054
 20
0.0
 10
356.84609648686603
 20
0.0
 10
360.2940511875288
 20
0.0
 10
363.59108244901233
 20
0.0
 10
366.7207646274177
 20
0.0
 10
369.6675058035598
 20
0.0
 10
372.4166254611247
 20
0.0
 10
374.9544276242633
 20
0.0
 10
377.26826909025425
 20
0.0
 10
379.3466224173037
 20
0.0
 10
381.17913335368064
 20
0.0
 10
382.75667242207805
 20
0.0
 10
384.07138040220997
 20
0.0
 10
385.1167074850511
 20
0.0
 10
385.88744590365627
 20
0.0
 10
386.3797558779934
 20
0.0
 10
386.59118474453413
 20
0.0
 10
386.52067917530064
 20
0.0
 10
386.16859042549237
 20
0.0
 10
385.53667258355017
 20
0.0
 10
384.6280738323762
 20
0.0
 10
383.44732076524485
 20
0.0
 10
382.00029583454295
 20
0.0
 10
380.2942080456877
 20
0.0
 10
378.3375570422244
 20
0.0
 10
376.14009076102957
 20
0.0
 10
373.7127568685804
 20
0.0
 10
371.0676482202304
 20
0.0
 10
368.2179426142127
 20
0.0
 10
365.1778371405118
 20
0.0
 10
361.9624774516759
 20
0.0
 10
358.5878823079372
 20
0.0
 10
355.07086377255445
 20
0.0
 10
351.4289434549596
 20
0.0
 10
347.68026521898076
 20
0.0
 10
343.8435047910253
 20
0.0
 10
339.93777671855037
 20
0.0
 10
335.98253914234897
 20
0.0
 10
331.99749685707127
 20
0.0
 10
328.00250314292873
 20
0.0
 10
324.01746085765103
 20
0.0
 10
320.06222328144963
 20
0.0
 10
316.1564952089747
 20
0.0
 10
312.31973478101924
 20
0.0
 10
308.5710565450404
 20
0.0
 10
304.92913622744555
 20
0.0
 10
301.41211769206285
 20
0.0
 10
298.0375225483241
 20
0.0
 10
294.8221628594881
 20
0.0
 10
291.7820573857873
 20
0.0
 10
288.9323517797696
 20
0.0
 10
286.2872431314196
 20
0.0
 10
283.85990923897043
 20
0.0
 10
281.6624429577756
 20
0.0
 10
279.7057919543123
 20
0.0
 10
277.99970416545705
 20
0.0
 10
276.55267923475515
 20
0.0
 10
275.3719261676238
 20
0.0
 10
274.46332741644983
 20
0.0
 10
273.83140957450763
 20
0.0
 10
273.47932082469936
 20
0.0
 10
273.40881525546587
 20
0.0
 10
273.6202441220066
 20
0.0
 10
274.11255409634373
 20
0.0
 10
274.8832925149489
 20
0.0
 10
275.92861959779003
 20
0.0
 10
277.24332757792195
 20
0.0
 10
278.8208666463194
 20
0.0
 10
280.6533775826963
 20
0.0
 10
282.73173090974575
 20
0.0
 10
285.0455723757367
 20
0.0
 10
287.5833745388753
 20
0.0
 10
290.33249419644017
 20
0.0
 10
293.27923537258226
 20
0.0
 10
296.4089175509876
 20
0.0
 10
299.7059488124712
 20
0.0
 10
303.15390351313397
 20
0.0
 10
306.7356041160946
 20
0.0
 10
310.43320676911424
 20
0.0
 10
314.2282902017705
 20
0.0
 10
318.10194749930054
 20
0.0
 10
322.03488029589874
 20
0.0
 10
326.00749491820517
 20
0.0
 10
330.0
 20
0.0
  0
LWPOLYLINE
  5
A0
330
17
100
AcDbEntity
  8
YZ_SIDE
100
AcDbPolyline
 90
12
 70
0
 10
330.0
 20
0.0
 10
333.5141653134614
 20
0.0
 10
335.91260796980436
 20
0.0
 10
336.4338393722261
 20
0.0
 10
334.9123722333027
 20
0.0
 10
331.8312616194693
 20
0.0
 10
328.1687383805307
 20
0.0
 10
325.0876277666973
 20
0.0
 10
323.5661606277739
 20
0.0
 10
324.08739203019564
 20
0.0
 10
326.4858346865386
 20
0.0
 10
330.0
 20
0.0
  0
LWPOLYLINE
  5
A1
330
17
100
AcDbEntity
  8
YZ_SIDE
100
AcDbPolyline
 90
2
 70
0
 10
336.0
 20
0.0
 10
336.0
 20
10.0
  0
LWPOLYLINE
  5
A2
330
17
100
AcDbEntity
  8
YZ_SIDE
100
AcDbPolyline
 90
2
 70
0
 10
336.0
 20
0.0
 10
336.0
 20
10.0
  0
LWPOLYLINE
  5
A3
330
17
100
AcDbEntity
  8
YZ_SIDE
100
AcDbPolyline
 90
2
 70
0
 10
334.5825756949554
 20
10.0
 10
336.0
 20
10.0
  0
LWPOLYLINE
  5
A4
330
17
100
AcDbEntity
  8
YZ_SIDE
100
AcDbPolyline
 90
2
 70
0
 10
334.58257569495584
 20
0.0
 10
334.58257569495584
 20
10.0
  0
LWPOLYLINE
  5
A5
330
17
100
AcDbEntity
  8
YZ_SIDE
100
AcDbPolyline
 90
2
 70
0
 10
324.0
 20
10.0
 10
325.4174243050447
 20
10.0
  0
LWPOLYLINE
  5
A6
330
17
100
AcDbEntity
  8
YZ_SIDE
100
AcDbPolyline
 90
2
 70
0
 10
325.41742430504416
 20
0.0
 10
325.41742430504416
 20
10.0
  0
LWPOLYLINE
  5
A7
330
17
100
AcDbEntity
  8
YZ_SIDE
100
AcDbPolyline
 90
2
 70
0
 10
324.0
 20
0.0
 10
324.0
 20
10.0
  0
LWPOLYLINE
  5
A8
330
17
100
AcDbEntity
  8
YZ_SIDE
100
AcDbPolyline
 90
2
 70
0
 10
324.0
 20
0.0
 10
324.0
 20
10.0
  0
LWPOLYLINE
  5
A9
330
17
100
AcDbEntity
  8
YZ_SIDE
100
AcDbPolyline
 90
96
 70
0
 10
335.9999999999988
 20
10.0
 10
339.9404088930536
 20
10.0
 10
343.8399907489468
 20
10.0
 10
347.6827292875577
 20
10.0
 10
351.4528416944362
 20
10.0
 10
355.1348434436442
 20
10.0
 10
358.7136118954733
 20
10.0
 10
362.1744484078307
 20
10.0
 10
365.503138706191
 20
10.0
 10
368.686011264164
 20
10.0
 10
371.70999345489884
 20
10.0
 10
374.5626652427001
 20
10.0
 10
377.2323101943363
 20
10.0
 10
379.7079636005262
 20
10.0
 10
381.9794575099611
 20
10.0
 10
384.0374624908991
 20
10.0
 10
385.87352594881025
 20
10.0
 10
387.48010684269383
 20
10.0
 10
388.85060665748233
 20
10.0
 10
389.97939650532305
 20
10.0
 10
390.8618402444274
 20
10.0
 10
391.4943135205342
 20
10.0
 10
391.8742186527809
 20
10.0
 10
391.99999530284344
 20
10.0
 10
391.871126883525
 20
10.0
 10
391.48814268047175
 20
10.0
 10
390.8526156783022
 20
10.0
 10
389.96715610007794
 20
10.0
 10
388.8354006866508
 20
10.0
 10
387.4619977599178
 20
10.0
 10
385.8525881313314
 20
10.0
 10
384.0137819340785
 20
10.0
 10
381.9531314740809
 20
10.0
 10
379.6791002113242
 20
10.0
 10
377.2010279989141
 20
10.0
 10
374.52909272262923
 20
10.0
 10
371.6742684985235
 20
10.0
 10
368.6482806002695
 20
10.0
 10
365.463557301362
 20
10.0
 10
362.13317882997603
 20
10.0
 10
358.6708236461302
 20
10.0
 10
355.09071226180544
 20
10.0
 10
351.40754883475836
 20
10.0
 10
347.63646077591613
 20
10.0
 10
343.7929366183939
 20
10.0
 10
339.8927624033192
 20
10.0
 10
335.9519568437378
 20
10.0
 10
331.9867055328943
 20
10.0
 10
328.0132944671057
 20
10.0
 10
324.0480431562621
 20
10.0
 10
320.10723759668076
 20
10.0
 10
316.207063381606
 20
10.0
 10
312.36353922408375
 20
10.0
 10
308.5924511652416
 20
10.0
 10
304.90928773819456
 20
10.0
 10
301.32917635386974
 20
10.0
 10
297.86682117002397
 20
10.0
 10
294.5364426986379
 20
10.0
 10
291.3517193997304
 20
10.0
 10
288.32573150147647
 20
10.0
 10
285.47090727737077
 20
10.0
 10
282.7989720010858
 20
10.0
 10
280.3208997886757
 20
10.0
 10
278.0468685259191
 20
10.0
 10
275.9862180659215
 20
10.0
 10
274.1474118686686
 20
10.0
 10
272.5380022400822
 20
10.0
 10
271.1645993133492
 20
10.0
 10
270.03284389992206
 20
10.0
 10
269.1473843216978
 20
10.0
 10
268.51185731952825
 20
10.0
 10
268.128873116475
 20
10.0
 10
268.00000469715656
 20
10.0
 10
268.1257813472191
 20
10.0
 10
268.5056864794658
 20
10.0
 10
269.1381597555726
 20
10.0
 10
270.02060349467695
 20
10.0
 10
271.1493933425177
 20
10.0
 10
272.51989315730617
 20
10.0
 10
274.12647405118975
 20
10.0
 10
275.9625375091009
 20
10.0
 10
278.0205424900389
 20
10.0
 10
280.2920363994738
 20
10.0
 10
282.7676898056637
 20
10.0
 10
285.4373347572999
 20
10.0
 10
288.2900065451012
 20
10.0
 10
291.313988735836
 20
10.0
 10
294.49686129380905
 20
10.0
 10
297.8255515921693
 20
10.0
 10
301.28638810452674
 20
10.0
 10
304.8651565563558
 20
10.0
 10
308.5471583055638
 20
10.0
 10
312.31727071244234
 20
10.0
 10
316.1600092510533
 20
10.0
 10
320.05959110694636
 20
10.0
 10
324.0000000000012
 20
10.0
  0
LWPOLYLINE
  5
AA
330
17
100
AcDbEntity
  8
YZ_SIDE
100
AcDbPolyline
 90
90
 70
0
 10
330.0
 20
10.0
 10
333.9925050817948
 20
10.0
 10
337.9651197041012
 20
10.0
 10
341.89805250069946
 20
10.0
 10
345.77170979822944
 20
10.0
 10
349.56679323088576
 20
10.0
 10
353.2643958839054
 20
10.0
 10
356.84609648686603
 20
10.0
 10
360.2940511875288
 20
10.0
 10
363.59108244901233
 20
10.0
 10
366.7207646274177
 20
10.0
 10
369.6675058035598
 20
10.0
 10
372.4166254611247
 20
10.0
 10
374.9544276242633
 20
10.0
 10
377.26826909025425
 20
10.0
 10
379.3466224173037
 20
10.0
 10
381.17913335368064
 20
10.0
 10
382.75667242207805
 20
10.0
 10
384.07138040220997
 20
10.0
 10
385.1167074850511
 20
10.0
 10
385.88744590365627
 20
10.0
 10
386.3797558779934
 20
10.0
 10
386.59118474453413
 20
10.0
 10
386.52067917530064
 20
10.0
 10
386.16859042549237
 20
10.0
 10
385.53667258355017
 20
10.0
 10
384.6280738323762
 20
10.0
 10
383.44732076524485
 20
10.0
 10
382.00029583454295
 20
10.0
 10
380.2942080456877
 20
10.0
 10
378.3375570422244
 20
10.0
 10
376.14009076102957
 20
10.0
 10
373.7127568685804
 20
10.0
 10
371.0676482202304
 20
10.0
 10
368.2179426142127
 20
10.0
 10
365.1778371405118
 20
10.0
 10
361.9624774516759
 20
10.0
 10
358.5878823079372
 20
10.0
 10
355.07086377255445
 20
10.0
 10
351.4289434549596
 20
10.0
 10
347.68026521898076
 20
10.0
 10
343.8435047910253
 20
10.0
 10
339.93777671855037
 20
10.0
 10
335.98253914234897
 20
10.0
 10
331.99749685707127
 20
10.0
 10
328.00250314292873
 20
10.0
 10
324.01746085765103
 20
10.0
 10
320.06222328144963
 20
10.0
 10
316.1564952089747
 20
10.0
 10
312.31973478101924
 20
10.0
 10
308.5710565450404
 20
10.0
 10
304.92913622744555
 20
10.0
 10
301.41211769206285
 20
10.0
 10
298.0375225483241
 20
10.0
 10
294.8221628594881
 20
10.0
 10
291.7820573857873
 20
10.0
 10
288.9323517797696
 20
10.0
 10
286.2872431314196
 20
10.0
 10
283.85990923897043
 20
10.0
 10
281.6624429577756
 20
10.0
 10
279.7057919543123
 20
10.0
 10
277.99970416545705
 20
10.0
 10
276.55267923475515
 20
10.0
 10
275.3719261676238
 20
10.0
 10
274.46332741644983
 20
10.0
 10
273.83140957450763
 20
10.0
 10
273.47932082469936
 20
10.0
 10
273.40881525546587
 20
10.0
 10
273.6202441220066
 20
10.0
 10
274.11255409634373
 20
10.0
 10
274.8832925149489
 20
10.0
 10
275.92861959779003
 20
10.0
 10
277.24332757792195
 20
10.0
 10
278.8208666463194
 20
10.0
 10
280.6533775826963
 20
10.0
 10
282.73173090974575
 20
10.0
 10
285.0455723757367
 20
10.0
 10
287.5833745388753
 20
10.0
 10
290.33249419644017
 20
10.0
 10
293.27923537258226
 20
10.0
 10
296.4089175509876
 20
10.0
 10
299.7059488124712
 20
10.0
 10
303.15390351313397
 20
10.0
 10
306.7356041160946
 20
10.0
 10
310.43320676911424
 20
10.0
 10
314.2282902017705
 20
10.0
 10
318.10194749930054
 20
10.0
 10
322.03488029589874
 20
10.0
 10
326.00749491820517
 20
10.0
 10
330.0
 20
10.0
  0
LWPOLYLINE
  5
AB
330
17
100
AcDbEntity
  8
YZ_SIDE
100
AcDbPolyline
 90
2
 70
0
 10
330.0
 20
0.0
 10
330.0
 20
10.0
  0
LWPOLYLINE
  5
AC
330
17
100
AcDbEntity
  8
YZ_SIDE
100
AcDbPolyline
 90
16
 70
0
 10
325.4174243050446
 20
10.0
 10
322.17616852788365
 20
10.0
 10
319.94673703466435
 20
10.0
 10
319.01745312737285
 20
10.0
 10
319.50849731186815
 20
10.0
 10
321.356364842153
 20
10.0
 10
324.3220785307315
 20
10.0
 10
328.0220946957111
 20
10.0
 10
331.9779053042889
 20
10.0
 10
335.6779214692685
 20
10.0
 10
338.643635157847
 20
10.0
 10
340.49150268813185
 20
10.0
 10
340.98254687262715
 20
10.0
 10
340.05326296533565
 20
10.0
 10
337.82383147211635
 20
10.0
 10
334.5825756949554
 20
10.0
  0
LWPOLYLINE
  5
AD
330
17
100
AcDbEntity
  8
YZ_SIDE
100
AcDbPolyline
 90
12
 70
0
 10
330.0
 20
10.0
 10
333.5141653134614
 20
10.0
 10
335.91260796980436
 20
10.0
 10
336.4338393722261
 20
10.0
 10
334.9123722333027
 20
10.0
 10
331.8312616194693
 20
10.0
 10
328.1687383805307
 20
10.0
 10
325.0876277666973
 20
10.0
 10
323.5661606277739
 20
10.0
 10
324.08739203019564
 20
10.0
 10
326.4858346865386
 20
10.0
 10
330.0
 20
10.0
  0
LWPOLYLINE
  5
AE
330
17
100
AcDbEntity
  8
YZ_SIDE
100
AcDbPolyline
 90
2
 70
0
 10
330.0
 20
0.0
 10
330.0
 20
10.0
  0
DIMENSION
  5
AF
330
17
100
AcDbEntity
  8
DIMENSIONS
100
AcDbDimension
280
0
  2
*D5
  3
Standard
 10
268.0
 20
-25.0
 30
0.0
 11
330.0
 21
-25.0
 31
0.0
 70
32
 71
5
  1
<>
100
AcDbAlignedDimension
 13
268.0
 23
0.0
 33
0.0
 14
392.0
 24
0.0
 34
0.0
 50
0.0
100
AcDbRotatedDimension
1001
ACAD
1000
DSTYLE
1002
{
1070
140
1040
3.0
1070
41
1040
3.0
1070
271
1070
3
1002
}
  0
DIMENSION
  5
BF
330
17
100
AcDbEntity
  8
DIMENSIONS
100
AcDbDimension
280
0
  2
*D6
  3
Standard
 10
243.0
 20
0.0
 30
0.0
 11
240.875
 21
5.0
 31
0.0
 70
32
 71
5
  1
<>
100
AcDbAlignedDimension
 13
268.0
 23
0.0
 33
0.0
 14
268.0
 24
10.0
 34
0.0
 50
90.0
100
AcDbRotatedDimension
1001
ACAD
1000
DSTYLE
1002
{
1070
140
1040
3.0
1070
41
1040
3.0
1070
271
1070
3
1002
}
  0
TEXT
  5
CE
330
17
100
AcDbEntity
  8
NOTES
100
AcDbText
 10
0.0
 20
-304.0
 30
0.0
 40
3.0
  1
V3_AS1_NONMETAL_STANDOFF_BRACKET / Poseidon Trident by Intrface / HW-CAND-3.0 / mm
100
AcDbText
  0
TEXT
  5
CF
330
17
100
AcDbEntity
  8
NOTES
100
AcDbText
 10
0.0
 20
-311.0
 30
0.0
 40
3.0
  1
NON-ADOPTED DIGITAL CANDIDATE; NO BUILD OR PRESSURE RELEASE
100
AcDbText
  0
TEXT
  5
D0
330
17
100
AcDbEntity
  8
NOTES
100
AcDbText
 10
0.0
 20
-318.0
 30
0.0
 40
3.0
  1
Three orthographic wireframe projections; sampled curves. STEP is exact. Do not scale a render.
100
AcDbText
  0
TEXT
  5
D1
330
17
100
AcDbEntity
  8
NOTES
100
AcDbText
 10
0.0
 20
-325.0
 30
0.0
 40
3.0
  1
sources/design-inputs.json: allocations; all dimensions hash traced
100
AcDbText
  0
TEXT
  5
D2
330
17
100
AcDbEntity
  8
NOTES
100
AcDbText
 10
0.0
 20
-332.0
 30
0.0
 40
3.0
  1
Dimension origins use modeled bounds; vendor BRep details keep source authority and revision conflicts.
100
AcDbText
  0
TEXT
  5
D3
330
17
100
AcDbEntity
  8
NOTES
100
AcDbText
 10
0.0
 20
-339.0
 30
0.0
 40
3.0
  1
All physical gates unperformed. Dome material is POLYCARBONATE, not acrylic.
100
AcDbText
  0
ENDSEC
  0
SECTION
  2
OBJECTS
  0
DICTIONARY
  5
A
330
0
100
AcDbDictionary
281
1
  3
ACAD_COLOR
350
B
  3
ACAD_GROUP
350
C
  3
ACAD_LAYOUT
350
D
  3
ACAD_MATERIAL
350
E
  3
ACAD_MLEADERSTYLE
350
F
  3
ACAD_MLINESTYLE
350
10
  3
ACAD_PLOTSETTINGS
350
11
  3
ACAD_PLOTSTYLENAME
350
12
  3
ACAD_SCALELIST
350
14
  3
ACAD_TABLESTYLE
350
15
  3
ACAD_VISUALSTYLE
350
16
  3
EZDXF_META
350
2D
  0
DICTIONARY
  5
B
330
A
100
AcDbDictionary
281
1
  0
DICTIONARY
  5
C
330
A
100
AcDbDictionary
281
1
  0
DICTIONARY
  5
D
330
A
100
AcDbDictionary
281
1
  3
Model
350
1A
  3
Layout1
350
1E
  0
DICTIONARY
  5
E
330
A
100
AcDbDictionary
281
1
  3
ByBlock
350
1F
  3
ByLayer
350
20
  3
Global
350
21
  0
DICTIONARY
  5
F
330
A
100
AcDbDictionary
281
1
  3
Standard
350
2C
  0
DICTIONARY
  5
10
330
A
100
AcDbDictionary
281
1
  3
Standard
350
22
  0
DICTIONARY
  5
11
330
A
100
AcDbDictionary
281
1
  0
ACDBDICTIONARYWDFLT
  5
12
330
A
100
AcDbDictionary
281
1
  3
Normal
350
13
100
AcDbDictionaryWithDefault
340
13
  0
ACDBPLACEHOLDER
  5
13
330
12
  0
DICTIONARY
  5
14
330
A
100
AcDbDictionary
281
1
  0
DICTIONARY
  5
15
330
A
100
AcDbDictionary
281
1
  0
DICTIONARY
  5
16
330
A
100
AcDbDictionary
281
1
  0
LAYOUT
  5
1A
330
D
100
AcDbPlotSettings
  1

  4
A3
  6

 40
7.5
 41
20.0
 42
7.5
 43
20.0
 44
420.0
 45
297.0
 46
0.0
 47
0.0
 48
0.0
 49
0.0
140
0.0
141
0.0
142
1.0
143
1.0
 70
1024
 72
1
 73
0
 74
5
  7

 75
16
 76
0
 77
2
 78
300
147
1.0
148
0.0
149
0.0
100
AcDbLayout
  1
Model
 70
1
 71
0
 10
0.0
 20
0.0
 11
420.0
 21
297.0
 12
0.0
 22
0.0
 32
0.0
 14
1e+20
 24
1e+20
 34
1e+20
 15
-1e+20
 25
-1e+20
 35
-1e+20
146
0.0
 13
0.0
 23
0.0
 33
0.0
 16
1.0
 26
0.0
 36
0.0
 17
0.0
 27
1.0
 37
0.0
 76
1
330
17
  0
LAYOUT
  5
1E
330
D
100
AcDbPlotSettings
  1

  4
A3
  6

 40
7.5
 41
20.0
 42
7.5
 43
20.0
 44
420.0
 45
297.0
 46
0.0
 47
0.0
 48
0.0
 49
0.0
140
0.0
141
0.0
142
1.0
143
1.0
 70
0
 72
1
 73
0
 74
5
  7

 75
16
 76
0
 77
2
 78
300
147
1.0
148
0.0
149
0.0
100
AcDbLayout
  1
Layout1
 70
1
 71
1
 10
0.0
 20
0.0
 11
420.0
 21
297.0
 12
0.0
 22
0.0
 32
0.0
 14
1e+20
 24
1e+20
 34
1e+20
 15
-1e+20
 25
-1e+20
 35
-1e+20
146
0.0
 13
0.0
 23
0.0
 33
0.0
 16
1.0
 26
0.0
 36
0.0
 17
0.0
 27
1.0
 37
0.0
 76
1
330
1B
  0
MATERIAL
  5
1F
102
{ACAD_REACTORS
330
E
102
}
330
E
100
AcDbMaterial
  1
ByBlock
  2

 70
0
 40
1.0
 71
1
 41
1.0
 91
-1023410177
 42
1.0
 72
1
  3

 73
1
 74
1
 75
1
 44
0.5
 73
0
 45
1.0
 46
1.0
 77
1
  4

 78
1
 79
1
170
1
 48
1.0
171
1
  6

172
1
173
1
174
1
140
1.0
141
1.0
175
1
  7

176
1
177
1
178
1
143
1.0
179
1
  8

270
1
271
1
272
1
145
1.0
146
1.0
273
1
  9

274
1
275
1
276
1
 42
1.0
 72
1
  3

 73
1
 74
1
 75
1
 94
63
  0
MATERIAL
  5
20
102
{ACAD_REACTORS
330
E
102
}
330
E
100
AcDbMaterial
  1
ByLayer
  2

 70
0
 40
1.0
 71
1
 41
1.0
 91
-1023410177
 42
1.0
 72
1
  3

 73
1
 74
1
 75
1
 44
0.5
 73
0
 45
1.0
 46
1.0
 77
1
  4

 78
1
 79
1
170
1
 48
1.0
171
1
  6

172
1
173
1
174
1
140
1.0
141
1.0
175
1
  7

176
1
177
1
178
1
143
1.0
179
1
  8

270
1
271
1
272
1
145
1.0
146
1.0
273
1
  9

274
1
275
1
276
1
 42
1.0
 72
1
  3

 73
1
 74
1
 75
1
 94
63
  0
MATERIAL
  5
21
102
{ACAD_REACTORS
330
E
102
}
330
E
100
AcDbMaterial
  1
Global
  2

 70
0
 40
1.0
 71
1
 41
1.0
 91
-1023410177
 42
1.0
 72
1
  3

 73
1
 74
1
 75
1
 44
0.5
 73
0
 45
1.0
 46
1.0
 77
1
  4

 78
1
 79
1
170
1
 48
1.0
171
1
  6

172
1
173
1
174
1
140
1.0
141
1.0
175
1
  7

176
1
177
1
178
1
143
1.0
179
1
  8

270
1
271
1
272
1
145
1.0
146
1.0
273
1
  9

274
1
275
1
276
1
 42
1.0
 72
1
  3

 73
1
 74
1
 75
1
 94
63
  0
MLINESTYLE
  5
22
102
{ACAD_REACTORS
330
10
102
}
330
10
100
AcDbMlineStyle
  2
Standard
 70
0
  3

 62
256
 51
90.0
 52
90.0
 71
2
 49
0.5
 62
256
  6
BYLAYER
 49
-0.5
 62
256
  6
BYLAYER
  0
MLEADERSTYLE
  5
2C
102
{ACAD_REACTORS
330
F
102
}
330
F
100
AcDbMLeaderStyle
179
2
170
2
171
1
172
0
 90
2
 40
0.0
 41
0.0
173
1
 91
-1056964608
 92
-2
290
1
 42
2.0
291
1
 43
8.0
  3
Standard
 44
4.0
300

342
29
174
1
175
1
176
0
178
1
 93
-1056964608
 45
4.0
292
0
297
0
 46
4.0
 94
-1056964608
 47
1.0
 49
1.0
140
1.0
294
1
141
0.0
177
0
142
1.0
295
0
296
0
143
3.75
271
0
272
9
273
9
  0
DICTIONARY
  5
2D
330
A
100
AcDbDictionary
280
1
281
1
  3
CREATED_BY_EZDXF
350
2E
  3
WRITTEN_BY_EZDXF
350
D6
  0
DICTIONARYVAR
  5
2E
330
2D
100
DictionaryVariables
280
0
  1
1.4.3 @ 2026-09-27T12:27:14.863258+00:00
  0
DICTIONARYVAR
  5
D6
330
2D
100
DictionaryVariables
280
0
  1
1.4.3 @ 2026-09-27T12:27:14.879125+00:00
  0
ENDSEC
  0
EOF
