  0
SECTION
  2
HEADER
  9
$ACADVER
  1
AC1032
  9
$ACADMAINTVER
 90
4
  9
$DWGCODEPAGE
  3
ANSI_1252
  9
$LASTSAVEDBY
  1
ezdxf
  9
$REQUIREDVERSIONS
160
0
  9
$INSBASE
 10
0.0
 20
0.0
 30
0.0
  9
$EXTMIN
 10
1e+20
 20
1e+20
 30
1e+20
  9
$EXTMAX
 10
-1e+20
 20
-1e+20
 30
-1e+20
  9
$LIMMIN
 10
0.0
 20
0.0
  9
$LIMMAX
 10
420.0
 20
297.0
  9
$ORTHOMODE
 70
0
  9
$REGENMODE
 70
1
  9
$FILLMODE
 70
1
  9
$QTEXTMODE
 70
0
  9
$MIRRTEXT
 70
1
  9
$LTSCALE
 40
1.0
  9
$ATTMODE
 70
1
  9
$TEXTSIZE
 40
2.5
  9
$TRACEWID
 40
1.0
  9
$TEXTSTYLE
  7
Standard
  9
$CLAYER
  8
0
  9
$CELTYPE
  6
ByLayer
  9
$CECOLOR
 62
256
  9
$CELTSCALE
 40
1.0
  9
$DISPSILH
 70
0
  9
$DIMSCALE
 40
1.0
  9
$DIMASZ
 40
2.5
  9
$DIMEXO
 40
0.625
  9
$DIMDLI
 40
3.75
  9
$DIMRND
 40
0.0
  9
$DIMDLE
 40
0.0
  9
$DIMEXE
 40
1.25
  9
$DIMTP
 40
0.0
  9
$DIMTM
 40
0.0
  9
$DIMTXT
 40
2.5
  9
$DIMCEN
 40
2.5
  9
$DIMTSZ
 40
0.0
  9
$DIMTOL
 70
0
  9
$DIMLIM
 70
0
  9
$DIMTIH
 70
0
  9
$DIMTOH
 70
0
  9
$DIMSE1
 70
0
  9
$DIMSE2
 70
0
  9
$DIMTAD
 70
1
  9
$DIMZIN
 70
8
  9
$DIMBLK
  1

  9
$DIMASO
 70
1
  9
$DIMSHO
 70
1
  9
$DIMPOST
  1

  9
$DIMAPOST
  1

  9
$DIMALT
 70
0
  9
$DIMALTD
 70
3
  9
$DIMALTF
 40
0.03937007874
  9
$DIMLFAC
 40
1.0
  9
$DIMTOFL
 70
1
  9
$DIMTVP
 40
0.0
  9
$DIMTIX
 70
0
  9
$DIMSOXD
 70
0
  9
$DIMSAH
 70
0
  9
$DIMBLK1
  1

  9
$DIMBLK2
  1

  9
$DIMSTYLE
  2
ISO-25
  9
$DIMCLRD
 70
0
  9
$DIMCLRE
 70
0
  9
$DIMCLRT
 70
0
  9
$DIMTFAC
 40
1.0
  9
$DIMGAP
 40
0.625
  9
$DIMJUST
 70
0
  9
$DIMSD1
 70
0
  9
$DIMSD2
 70
0
  9
$DIMTOLJ
 70
0
  9
$DIMTZIN
 70
8
  9
$DIMALTZ
 70
0
  9
$DIMALTTZ
 70
0
  9
$DIMUPT
 70
0
  9
$DIMDEC
 70
2
  9
$DIMTDEC
 70
2
  9
$DIMALTU
 70
2
  9
$DIMALTTD
 70
3
  9
$DIMTXSTY
  7
Standard
  9
$DIMAUNIT
 70
0
  9
$DIMADEC
 70
0
  9
$DIMALTRND
 40
0.0
  9
$DIMAZIN
 70
0
  9
$DIMDSEP
 70
44
  9
$DIMATFIT
 70
3
  9
$DIMFRAC
 70
0
  9
$DIMLDRBLK
  1

  9
$DIMLUNIT
 70
2
  9
$DIMLWD
 70
-2
  9
$DIMLWE
 70
-2
  9
$DIMTMOVE
 70
0
  9
$DIMFXL
 40
1.0
  9
$DIMFXLON
 70
0
  9
$DIMJOGANG
 40
0.785398163397
  9
$DIMTFILL
 70
0
  9
$DIMTFILLCLR
 70
0
  9
$DIMARCSYM
 70
0
  9
$DIMLTYPE
  6

  9
$DIMLTEX1
  6

  9
$DIMLTEX2
  6

  9
$DIMTXTDIRECTION
 70
0
  9
$LUNITS
 70
2
  9
$LUPREC
 70
4
  9
$SKETCHINC
 40
1.0
  9
$FILLETRAD
 40
10.0
  9
$AUNITS
 70
0
  9
$AUPREC
 70
2
  9
$MENU
  1
.
  9
$ELEVATION
 40
0.0
  9
$PELEVATION
 40
0.0
  9
$THICKNESS
 40
0.0
  9
$LIMCHECK
 70
0
  9
$CHAMFERA
 40
0.0
  9
$CHAMFERB
 40
0.0
  9
$CHAMFERC
 40
0.0
  9
$CHAMFERD
 40
0.0
  9
$SKPOLY
 70
0
  9
$TDCREATE
 40
2461311.6022453704
  9
$TDUCREATE
 40
2458532.153996898
  9
$TDUPDATE
 40
2461311.6022453704
  9
$TDUUPDATE
 40
2458532.1544311
  9
$TDINDWG
 40
0.0
  9
$TDUSRTIMER
 40
0.0
  9
$USRTIMER
 70
1
  9
$ANGBASE
 50
0.0
  9
$ANGDIR
 70
0
  9
$PDMODE
 70
0
  9
$PDSIZE
 40
0.0
  9
$PLINEWID
 40
0.0
  9
$SPLFRAME
 70
0
  9
$SPLINETYPE
 70
6
  9
$SPLINESEGS
 70
8
  9
$HANDSEED
  5
152
  9
$SURFTAB1
 70
6
  9
$SURFTAB2
 70
6
  9
$SURFTYPE
 70
6
  9
$SURFU
 70
6
  9
$SURFV
 70
6
  9
$UCSBASE
  2

  9
$UCSNAME
  2

  9
$UCSORG
 10
0.0
 20
0.0
 30
0.0
  9
$UCSXDIR
 10
1.0
 20
0.0
 30
0.0
  9
$UCSYDIR
 10
0.0
 20
1.0
 30
0.0
  9
$UCSORTHOREF
  2

  9
$UCSORTHOVIEW
 70
0
  9
$UCSORGTOP
 10
0.0
 20
0.0
 30
0.0
  9
$UCSORGBOTTOM
 10
0.0
 20
0.0
 30
0.0
  9
$UCSORGLEFT
 10
0.0
 20
0.0
 30
0.0
  9
$UCSORGRIGHT
 10
0.0
 20
0.0
 30
0.0
  9
$UCSORGFRONT
 10
0.0
 20
0.0
 30
0.0
  9
$UCSORGBACK
 10
0.0
 20
0.0
 30
0.0
  9
$PUCSBASE
  2

  9
$PUCSNAME
  2

  9
$PUCSORG
 10
0.0
 20
0.0
 30
0.0
  9
$PUCSXDIR
 10
1.0
 20
0.0
 30
0.0
  9
$PUCSYDIR
 10
0.0
 20
1.0
 30
0.0
  9
$PUCSORTHOREF
  2

  9
$PUCSORTHOVIEW
 70
0
  9
$PUCSORGTOP
 10
0.0
 20
0.0
 30
0.0
  9
$PUCSORGBOTTOM
 10
0.0
 20
0.0
 30
0.0
  9
$PUCSORGLEFT
 10
0.0
 20
0.0
 30
0.0
  9
$PUCSORGRIGHT
 10
0.0
 20
0.0
 30
0.0
  9
$PUCSORGFRONT
 10
0.0
 20
0.0
 30
0.0
  9
$PUCSORGBACK
 10
0.0
 20
0.0
 30
0.0
  9
$USERI1
 70
0
  9
$USERI2
 70
0
  9
$USERI3
 70
0
  9
$USERI4
 70
0
  9
$USERI5
 70
0
  9
$USERR1
 40
0.0
  9
$USERR2
 40
0.0
  9
$USERR3
 40
0.0
  9
$USERR4
 40
0.0
  9
$USERR5
 40
0.0
  9
$WORLDVIEW
 70
1
  9
$SHADEDGE
 70
3
  9
$SHADEDIF
 70
70
  9
$TILEMODE
 70
1
  9
$MAXACTVP
 70
64
  9
$PINSBASE
 10
0.0
 20
0.0
 30
0.0
  9
$PLIMCHECK
 70
0
  9
$PEXTMIN
 10
1e+20
 20
1e+20
 30
1e+20
  9
$PEXTMAX
 10
-1e+20
 20
-1e+20
 30
-1e+20
  9
$PLIMMIN
 10
0.0
 20
0.0
  9
$PLIMMAX
 10
420.0
 20
297.0
  9
$UNITMODE
 70
0
  9
$VISRETAIN
 70
1
  9
$PLINEGEN
 70
0
  9
$PSLTSCALE
 70
1
  9
$TREEDEPTH
 70
3020
  9
$CMLSTYLE
  2
Standard
  9
$CMLJUST
 70
0
  9
$CMLSCALE
 40
20.0
  9
$PROXYGRAPHICS
 70
1
  9
$MEASUREMENT
 70
1
  9
$CELWEIGHT
370
-1
  9
$ENDCAPS
280
0
  9
$JOINSTYLE
280
0
  9
$LWDISPLAY
290
0
  9
$INSUNITS
 70
4
  9
$HYPERLINKBASE
  1

  9
$STYLESHEET
  1

  9
$XEDIT
290
1
  9
$CEPSNTYPE
380
0
  9
$PSTYLEMODE
290
1
  9
$FINGERPRINTGUID
  2
{1D7D1F52-85A7-454F-9D4C-EA464C4BB227}
  9
$VERSIONGUID
  2
{76DF28F4-2FE1-48B4-870E-09FC16B9DCE0}
  9
$EXTNAMES
290
1
  9
$PSVPSCALE
 40
0.0
  9
$OLESTARTUP
290
0
  9
$SORTENTS
280
127
  9
$INDEXCTL
280
0
  9
$HIDETEXT
280
1
  9
$XCLIPFRAME
280
1
  9
$HALOGAP
280
0
  9
$OBSCOLOR
 70
257
  9
$OBSLTYPE
280
0
  9
$INTERSECTIONDISPLAY
280
0
  9
$INTERSECTIONCOLOR
 70
257
  9
$DIMASSOC
280
2
  9
$PROJECTNAME
  1

  9
$CAMERADISPLAY
290
0
  9
$LENSLENGTH
 40
50.0
  9
$CAMERAHEIGHT
 40
0.0
  9
$STEPSPERSEC
 40
24.0
  9
$STEPSIZE
 40
100.0
  9
$3DDWFPREC
 40
2.0
  9
$PSOLWIDTH
 40
0.005
  9
$PSOLHEIGHT
 40
0.08
  9
$LOFTANG1
 40
1.570796326795
  9
$LOFTANG2
 40
1.570796326795
  9
$LOFTMAG1
 40
0.0
  9
$LOFTMAG2
 40
0.0
  9
$LOFTPARAM
 70
7
  9
$LOFTNORMALS
280
1
  9
$LATITUDE
 40
37.795
  9
$LONGITUDE
 40
-122.394
  9
$NORTHDIRECTION
 40
0.0
  9
$TIMEZONE
 70
-8000
  9
$LIGHTGLYPHDISPLAY
280
1
  9
$TILEMODELIGHTSYNCH
280
1
  9
$CMATERIAL
347
20
  9
$SOLIDHIST
280
0
  9
$SHOWHIST
280
1
  9
$DWFFRAME
280
2
  9
$DGNFRAME
280
2
  9
$REALWORLDSCALE
290
1
  9
$INTERFERECOLOR
 62
256
  9
$CSHADOW
280
0
  9
$SHADOWPLANELOCATION
 40
0.0
  0
ENDSEC
  0
SECTION
  2
CLASSES
  0
CLASS
  1
ACDBDICTIONARYWDFLT
  2
AcDbDictionaryWithDefault
  3
ObjectDBX Classes
 90
0
 91
0
280
0
281
0
  0
CLASS
  1
SUN
  2
AcDbSun
  3
SCENEOE
 90
1153
 91
0
280
0
281
0
  0
CLASS
  1
VISUALSTYLE
  2
AcDbVisualStyle
  3
ObjectDBX Classes
 90
4095
 91
0
280
0
281
0
  0
CLASS
  1
MATERIAL
  2
AcDbMaterial
  3
ObjectDBX Classes
 90
1153
 91
0
280
0
281
0
  0
CLASS
  1
SCALE
  2
AcDbScale
  3
ObjectDBX Classes
 90
1153
 91
0
280
0
281
0
  0
CLASS
  1
TABLESTYLE
  2
AcDbTableStyle
  3
ObjectDBX Classes
 90
4095
 91
0
280
0
281
0
  0
CLASS
  1
MLEADERSTYLE
  2
AcDbMLeaderStyle
  3
ACDB_MLEADERSTYLE_CLASS
 90
4095
 91
0
280
0
281
0
  0
CLASS
  1
DICTIONARYVAR
  2
AcDbDictionaryVar
  3
ObjectDBX Classes
 90
0
 91
0
280
0
281
0
  0
CLASS
  1
CELLSTYLEMAP
  2
AcDbCellStyleMap
  3
ObjectDBX Classes
 90
1152
 91
0
280
0
281
0
  0
CLASS
  1
MENTALRAYRENDERSETTINGS
  2
AcDbMentalRayRenderSettings
  3
SCENEOE
 90
1024
 91
0
280
0
281
0
  0
CLASS
  1
ACDBDETAILVIEWSTYLE
  2
AcDbDetailViewStyle
  3
ObjectDBX Classes
 90
1025
 91
0
280
0
281
0
  0
CLASS
  1
ACDBSECTIONVIEWSTYLE
  2
AcDbSectionViewStyle
  3
ObjectDBX Classes
 90
1025
 91
0
280
0
281
0
  0
CLASS
  1
RASTERVARIABLES
  2
AcDbRasterVariables
  3
ISM
 90
0
 91
0
280
0
281
0
  0
CLASS
  1
LAYOUT
  2
AcDbLayout
  3
ObjectDBX Classes
 90
0
 91
0
280
0
281
0
  0
CLASS
  1
ACDBPLACEHOLDER
  2
AcDbPlaceHolder
  3
ObjectDBX Classes
 90
0
 91
0
280
0
281
0
  0
ENDSEC
  0
SECTION
  2
TABLES
  0
TABLE
  2
VPORT
  5
8
330
0
100
AcDbSymbolTable
 70
1
  0
VPORT
  5
23
330
8
100
AcDbSymbolTableRecord
100
AcDbViewportTableRecord
  2
*Active
 70
0
 10
0.0
 20
0.0
 11
1.0
 21
1.0
 12
0.0
 22
0.0
 13
0.0
 23
0.0
 14
0.5
 24
0.5
 15
0.5
 25
0.5
 16
0.0
 26
0.0
 36
1.0
 17
0.0
 27
0.0
 37
0.0
 40
1000.0
 41
1.34
 42
50.0
 43
0.0
 44
0.0
 50
0.0
 51
0.0
 71
0
 72
1000
 73
1
 74
3
 75
0
 76
0
 77
0
 78
0
281
0
 65
0
146
0.0
  0
ENDTAB
  0
TABLE
  2
LTYPE
  5
2
330
0
100
AcDbSymbolTable
 70
3
  0
LTYPE
  5
24
330
2
100
AcDbSymbolTableRecord
100
AcDbLinetypeTableRecord
  2
ByBlock
 70
0
  3

 72
65
 73
0
 40
0.0
  0
LTYPE
  5
25
330
2
100
AcDbSymbolTableRecord
100
AcDbLinetypeTableRecord
  2
ByLayer
 70
0
  3

 72
65
 73
0
 40
0.0
  0
LTYPE
  5
26
330
2
100
AcDbSymbolTableRecord
100
AcDbLinetypeTableRecord
  2
Continuous
 70
0
  3

 72
65
 73
0
 40
0.0
  0
ENDTAB
  0
TABLE
  2
LAYER
  5
1
330
0
100
AcDbSymbolTable
 70
7
  0
LAYER
  5
27
330
1
100
AcDbSymbolTableRecord
100
AcDbLayerTableRecord
  2
0
 70
0
 62
7
  6
Continuous
370
-3
390
13
347
21
  0
LAYER
  5
28
330
1
100
AcDbSymbolTableRecord
100
AcDbLayerTableRecord
  2
Defpoints
 70
0
 62
7
  6
Continuous
290
0
370
-3
390
13
347
21
  0
LAYER
  5
2F
330
1
100
AcDbSymbolTableRecord
100
AcDbLayerTableRecord
  2
XY_AFT
 70
0
 62
7
  6
Continuous
370
-3
390
13
347
21
  0
LAYER
  5
30
330
1
100
AcDbSymbolTableRecord
100
AcDbLayerTableRecord
  2
XZ_SIDE
 70
0
 62
7
  6
Continuous
370
-3
390
13
347
21
  0
LAYER
  5
31
330
1
100
AcDbSymbolTableRecord
100
AcDbLayerTableRecord
  2
YZ_SIDE
 70
0
 62
7
  6
Continuous
370
-3
390
13
347
21
  0
LAYER
  5
32
330
1
100
AcDbSymbolTableRecord
100
AcDbLayerTableRecord
  2
DIMENSIONS
 70
0
 62
7
  6
Continuous
370
-3
390
13
347
21
  0
LAYER
  5
33
330
1
100
AcDbSymbolTableRecord
100
AcDbLayerTableRecord
  2
NOTES
 70
0
 62
7
  6
Continuous
370
-3
390
13
347
21
  0
ENDTAB
  0
TABLE
  2
STYLE
  5
5
330
0
100
AcDbSymbolTable
 70
1
  0
STYLE
  5
29
330
5
100
AcDbSymbolTableRecord
100
AcDbTextStyleTableRecord
  2
Standard
 70
0
 40
0.0
 41
1.0
 50
0.0
 71
0
 42
2.5
  3
txt
  4

  0
ENDTAB
  0
TABLE
  2
VIEW
  5
7
330
0
100
AcDbSymbolTable
 70
0
  0
ENDTAB
  0
TABLE
  2
UCS
  5
6
330
0
100
AcDbSymbolTable
 70
0
  0
ENDTAB
  0
TABLE
  2
APPID
  5
3
330
0
100
AcDbSymbolTable
 70
3
  0
APPID
  5
2A
330
3
100
AcDbSymbolTableRecord
100
AcDbRegAppTableRecord
  2
ACAD
 70
0
  0
APPID
  5
14F
330
3
100
AcDbSymbolTableRecord
100
AcDbRegAppTableRecord
  2
HATCHBACKGROUNDCOLOR
 70
0
  0
APPID
  5
150
330
3
100
AcDbSymbolTableRecord
100
AcDbRegAppTableRecord
  2
EZDXF
 70
0
  0
ENDTAB
  0
TABLE
  2
DIMSTYLE
  5
4
330
0
100
AcDbSymbolTable
 70
1
100
AcDbDimStyleTable
  0
DIMSTYLE
105
2B
330
4
100
AcDbSymbolTableRecord
100
AcDbDimStyleTableRecord
  2
Standard
 70
0
 40
1.0
 41
2.5
 42
0.625
 43
3.75
 44
1.25
 45
0.0
 46
0.0
 47
0.0
 48
0.0
 49
2.5
140
2.5
141
2.5
142
0.0
143
0.03937007874
144
1.0
145
0.0
146
1.0
147
0.625
148
0.0
 69
0
 70
0
 71
0
 72
0
 73
0
 74
0
 75
0
 76
0
 77
1
 78
8
 79
3
170
0
171
3
172
1
173
0
174
0
175
0
176
0
177
0
178
0
179
2
271
2
272
2
273
2
274
3
275
0
276
0
277
2
278
44
279
0
280
0
281
0
282
0
283
0
284
8
285
0
286
0
288
0
289
3
290
0
371
-2
372
-2
  0
ENDTAB
  0
TABLE
  2
BLOCK_RECORD
  5
9
330
0
100
AcDbSymbolTable
 70
9
  0
BLOCK_RECORD
  5
17
330
9
100
AcDbSymbolTableRecord
100
AcDbBlockTableRecord
  2
*Model_Space
340
1A
 70
0
280
1
281
0
  0
BLOCK_RECORD
  5
1B
330
9
100
AcDbSymbolTableRecord
100
AcDbBlockTableRecord
  2
*Paper_Space
340
1E
 70
0
280
1
281
0
  0
BLOCK_RECORD
  5
6A
330
9
100
AcDbSymbolTableRecord
100
AcDbBlockTableRecord
  2
*D1
340
0
 70
0
280
1
281
0
  0
BLOCK_RECORD
  5
6F
330
9
100
AcDbSymbolTableRecord
100
AcDbBlockTableRecord
  2
_CLOSEDFILLED
340
0
 70
0
280
1
281
0
  0
BLOCK_RECORD
  5
7E
330
9
100
AcDbSymbolTableRecord
100
AcDbBlockTableRecord
  2
*D2
340
0
 70
0
280
1
281
0
  0
BLOCK_RECORD
  5
CE
330
9
100
AcDbSymbolTableRecord
100
AcDbBlockTableRecord
  2
*D3
340
0
 70
0
280
1
281
0
  0
BLOCK_RECORD
  5
DE
330
9
100
AcDbSymbolTableRecord
100
AcDbBlockTableRecord
  2
*D4
340
0
 70
0
280
1
281
0
  0
BLOCK_RECORD
  5
12A
330
9
100
AcDbSymbolTableRecord
100
AcDbBlockTableRecord
  2
*D5
340
0
 70
0
280
1
281
0
  0
BLOCK_RECORD
  5
13A
330
9
100
AcDbSymbolTableRecord
100
AcDbBlockTableRecord
  2
*D6
340
0
 70
0
280
1
281
0
  0
ENDTAB
  0
ENDSEC
  0
SECTION
  2
BLOCKS
  0
BLOCK
  5
18
330
17
100
AcDbEntity
  8
0
100
AcDbBlockBegin
  2
*Model_Space
 70
0
 10
0.0
 20
0.0
 30
0.0
  3
*Model_Space
  1

  0
ENDBLK
  5
19
330
17
100
AcDbEntity
  8
0
100
AcDbBlockEnd
  0
BLOCK
  5
1C
330
1B
100
AcDbEntity
  8
0
100
AcDbBlockBegin
  2
*Paper_Space
 70
0
 10
0.0
 20
0.0
 30
0.0
  3
*Paper_Space
  1

  0
ENDBLK
  5
1D
330
1B
100
AcDbEntity
  8
0
100
AcDbBlockEnd
  0
BLOCK
  5
6B
330
6A
100
AcDbEntity
  8
0
100
AcDbBlockBegin
  2
*D1
 70
1
 10
0.0
 20
0.0
 30
0.0
  3
*D1
  1

  0
LINE
  5
6D
330
6A
100
AcDbEntity
  8
0
100
AcDbLine
 10
0.0
 20
0.0
 30
0.0
 11
0.0
 21
-25.0
 31
0.0
  0
LINE
  5
6E
330
6A
100
AcDbEntity
  8
0
100
AcDbLine
 10
203.0
 20
0.0
 30
0.0
 11
203.0
 21
-25.0
 31
0.0
  0
INSERT
  5
73
330
6A
100
AcDbEntity
  8
DIMENSIONS
100
AcDbBlockReference
  2
_CLOSEDFILLED
 10
0.0
 20
-25.0
 30
0.0
 41
3.0
 42
3.0
 50
180.0
  0
INSERT
  5
75
330
6A
100
AcDbEntity
  8
DIMENSIONS
100
AcDbBlockReference
  2
_CLOSEDFILLED
 10
203.0
 20
-25.0
 30
0.0
 41
3.0
 42
3.0
  0
LINE
  5
77
330
6A
100
AcDbEntity
  8
0
100
AcDbLine
 10
3.0
 20
-25.0
 30
0.0
 11
97.0
 21
-25.0
 31
0.0
  0
LINE
  5
78
330
6A
100
AcDbEntity
  8
0
100
AcDbLine
 10
106.0
 20
-25.0
 30
0.0
 11
200.0
 21
-25.0
 31
0.0
  0
MTEXT
  5
79
330
6A
100
AcDbEntity
  8
DIMENSIONS
100
AcDbMText
 10
101.5
 20
-25.0
 30
0.0
 40
3.0
 71
5
  1
203
  0
POINT
  5
7A
330
6A
100
AcDbEntity
  8
Defpoints
100
AcDbPoint
 10
0.0
 20
-25.0
 30
0.0
  0
POINT
  5
7B
330
6A
100
AcDbEntity
  8
Defpoints
100
AcDbPoint
 10
0.0
 20
0.0
 30
0.0
  0
POINT
  5
7C
330
6A
100
AcDbEntity
  8
Defpoints
100
AcDbPoint
 10
203.0
 20
0.0
 30
0.0
  0
ENDBLK
  5
6C
330
6A
100
AcDbEntity
  8
0
100
AcDbBlockEnd
  0
BLOCK
  5
70
330
6F
100
AcDbEntity
  8
0
100
AcDbBlockBegin
  2
_CLOSEDFILLED
 70
0
 10
0.0
 20
0.0
 30
0.0
  3
_CLOSEDFILLED
  1

  0
SOLID
  5
72
330
6F
100
AcDbEntity
  8
0
  6
BYBLOCK
 62
0
100
AcDbTrace
 10
-1.0
 20
0.16439898372402537
 30
0.0
 11
0.0
 21
0.0
 31
0.0
 12
-1.0
 22
-0.16439898372402537
 32
0.0
 13
-1.0
 23
-0.16439898372402537
 33
0.0
  0
ENDBLK
  5
71
330
6F
100
AcDbEntity
  8
0
100
AcDbBlockEnd
  0
BLOCK
  5
7F
330
7E
100
AcDbEntity
  8
0
100
AcDbBlockBegin
  2
*D2
 70
1
 10
0.0
 20
0.0
 30
0.0
  3
*D2
  1

  0
LINE
  5
81
330
7E
100
AcDbEntity
  8
0
100
AcDbLine
 10
0.0
 20
0.0
 30
0.0
 11
-25.0
 21
0.0
 31
0.0
  0
LINE
  5
82
330
7E
100
AcDbEntity
  8
0
100
AcDbLine
 10
0.0
 20
124.0
 30
0.0
 11
-25.0
 21
124.0
 31
0.0
  0
INSERT
  5
83
330
7E
100
AcDbEntity
  8
DIMENSIONS
100
AcDbBlockReference
  2
_CLOSEDFILLED
 10
-25.0
 20
0.0
 30
0.0
 41
3.0
 42
3.0
 50
270.0
  0
INSERT
  5
85
330
7E
100
AcDbEntity
  8
DIMENSIONS
100
AcDbBlockReference
  2
_CLOSEDFILLED
 10
-25.0
 20
124.0
 30
0.0
 41
3.0
 42
3.0
 50
90.0
  0
LINE
  5
87
330
7E
100
AcDbEntity
  8
0
100
AcDbLine
 10
-25.0
 20
3.0
 30
0.0
 11
-25.0
 21
57.5
 31
0.0
  0
LINE
  5
88
330
7E
100
AcDbEntity
  8
0
100
AcDbLine
 10
-25.0
 20
66.5
 30
0.0
 11
-25.0
 21
121.0
 31
0.0
  0
MTEXT
  5
89
330
7E
100
AcDbEntity
  8
DIMENSIONS
100
AcDbMText
 10
-25.0
 20
62.0
 30
0.0
 40
3.0
 71
5
  1
124
 50
90.0
  0
POINT
  5
8A
330
7E
100
AcDbEntity
  8
Defpoints
100
AcDbPoint
 10
-25.0
 20
0.0
 30
0.0
  0
POINT
  5
8B
330
7E
100
AcDbEntity
  8
Defpoints
100
AcDbPoint
 10
0.0
 20
0.0
 30
0.0
  0
POINT
  5
8C
330
7E
100
AcDbEntity
  8
Defpoints
100
AcDbPoint
 10
0.0
 20
124.0
 30
0.0
  0
ENDBLK
  5
80
330
7E
100
AcDbEntity
  8
0
100
AcDbBlockEnd
  0
BLOCK
  5
CF
330
CE
100
AcDbEntity
  8
0
100
AcDbBlockBegin
  2
*D3
 70
1
 10
0.0
 20
0.0
 30
0.0
  3
*D3
  1

  0
LINE
  5
D1
330
CE
100
AcDbEntity
  8
0
100
AcDbLine
 10
0.0
 20
-249.0
 30
0.0
 11
0.0
 21
-274.0
 31
0.0
  0
LINE
  5
D2
330
CE
100
AcDbEntity
  8
0
100
AcDbLine
 10
203.0
 20
-249.0
 30
0.0
 11
203.0
 21
-274.0
 31
0.0
  0
INSERT
  5
D3
330
CE
100
AcDbEntity
  8
DIMENSIONS
100
AcDbBlockReference
  2
_CLOSEDFILLED
 10
0.0
 20
-274.0
 30
0.0
 41
3.0
 42
3.0
 50
180.0
  0
INSERT
  5
D5
330
CE
100
AcDbEntity
  8
DIMENSIONS
100
AcDbBlockReference
  2
_CLOSEDFILLED
 10
203.0
 20
-274.0
 30
0.0
 41
3.0
 42
3.0
  0
LINE
  5
D7
330
CE
100
AcDbEntity
  8
0
100
AcDbLine
 10
3.0
 20
-274.0
 30
0.0
 11
97.0
 21
-274.0
 31
0.0
  0
LINE
  5
D8
330
CE
100
AcDbEntity
  8
0
100
AcDbLine
 10
106.0
 20
-274.0
 30
0.0
 11
200.0
 21
-274.0
 31
0.0
  0
MTEXT
  5
D9
330
CE
100
AcDbEntity
  8
DIMENSIONS
100
AcDbMText
 10
101.5
 20
-274.0
 30
0.0
 40
3.0
 71
5
  1
203
  0
POINT
  5
DA
330
CE
100
AcDbEntity
  8
Defpoints
100
AcDbPoint
 10
0.0
 20
-274.0
 30
0.0
  0
POINT
  5
DB
330
CE
100
AcDbEntity
  8
Defpoints
100
AcDbPoint
 10
0.0
 20
-249.0
 30
0.0
  0
POINT
  5
DC
330
CE
100
AcDbEntity
  8
Defpoints
100
AcDbPoint
 10
203.0
 20
-249.0
 30
0.0
  0
ENDBLK
  5
D0
330
CE
100
AcDbEntity
  8
0
100
AcDbBlockEnd
  0
BLOCK
  5
DF
330
DE
100
AcDbEntity
  8
0
100
AcDbBlockBegin
  2
*D4
 70
1
 10
0.0
 20
0.0
 30
0.0
  3
*D4
  1

  0
LINE
  5
E1
330
DE
100
AcDbEntity
  8
0
100
AcDbLine
 10
0.0
 20
-249.0
 30
0.0
 11
-25.0
 21
-249.0
 31
0.0
  0
LINE
  5
E2
330
DE
100
AcDbEntity
  8
0
100
AcDbLine
 10
0.0
 20
-224.0
 30
0.0
 11
-25.0
 21
-224.0
 31
0.0
  0
INSERT
  5
E3
330
DE
100
AcDbEntity
  8
DIMENSIONS
100
AcDbBlockReference
  2
_CLOSEDFILLED
 10
-25.0
 20
-249.0
 30
0.0
 41
3.0
 42
3.0
 50
270.0
  0
INSERT
  5
E5
330
DE
100
AcDbEntity
  8
DIMENSIONS
100
AcDbBlockReference
  2
_CLOSEDFILLED
 10
-25.0
 20
-224.0
 30
0.0
 41
3.0
 42
3.0
 50
90.0
  0
LINE
  5
E7
330
DE
100
AcDbEntity
  8
0
100
AcDbLine
 10
-25.0
 20
-246.0
 30
0.0
 11
-25.0
 21
-239.5
 31
0.0
  0
LINE
  5
E8
330
DE
100
AcDbEntity
  8
0
100
AcDbLine
 10
-25.0
 20
-233.5
 30
0.0
 11
-25.0
 21
-227.0
 31
0.0
  0
MTEXT
  5
E9
330
DE
100
AcDbEntity
  8
DIMENSIONS
100
AcDbMText
 10
-25.0
 20
-236.5
 30
0.0
 40
3.0
 71
5
  1
25
 50
90.0
  0
POINT
  5
EA
330
DE
100
AcDbEntity
  8
Defpoints
100
AcDbPoint
 10
-25.0
 20
-249.0
 30
0.0
  0
POINT
  5
EB
330
DE
100
AcDbEntity
  8
Defpoints
100
AcDbPoint
 10
0.0
 20
-249.0
 30
0.0
  0
POINT
  5
EC
330
DE
100
AcDbEntity
  8
Defpoints
100
AcDbPoint
 10
0.0
 20
-224.0
 30
0.0
  0
ENDBLK
  5
E0
330
DE
100
AcDbEntity
  8
0
100
AcDbBlockEnd
  0
BLOCK
  5
12B
330
12A
100
AcDbEntity
  8
0
100
AcDbBlockBegin
  2
*D5
 70
1
 10
0.0
 20
0.0
 30
0.0
  3
*D5
  1

  0
LINE
  5
12D
330
12A
100
AcDbEntity
  8
0
100
AcDbLine
 10
303.0
 20
0.0
 30
0.0
 11
303.0
 21
-25.0
 31
0.0
  0
LINE
  5
12E
330
12A
100
AcDbEntity
  8
0
100
AcDbLine
 10
427.0
 20
0.0
 30
0.0
 11
427.0
 21
-25.0
 31
0.0
  0
INSERT
  5
12F
330
12A
100
AcDbEntity
  8
DIMENSIONS
100
AcDbBlockReference
  2
_CLOSEDFILLED
 10
303.0
 20
-25.0
 30
0.0
 41
3.0
 42
3.0
 50
180.0
  0
INSERT
  5
131
330
12A
100
AcDbEntity
  8
DIMENSIONS
100
AcDbBlockReference
  2
_CLOSEDFILLED
 10
427.0
 20
-25.0
 30
0.0
 41
3.0
 42
3.0
  0
LINE
  5
133
330
12A
100
AcDbEntity
  8
0
100
AcDbLine
 10
306.0
 20
-25.0
 30
0.0
 11
360.5
 21
-25.0
 31
0.0
  0
LINE
  5
134
330
12A
100
AcDbEntity
  8
0
100
AcDbLine
 10
369.5
 20
-25.0
 30
0.0
 11
424.0
 21
-25.0
 31
0.0
  0
MTEXT
  5
135
330
12A
100
AcDbEntity
  8
DIMENSIONS
100
AcDbMText
 10
365.0
 20
-25.0
 30
0.0
 40
3.0
 71
5
  1
124
  0
POINT
  5
136
330
12A
100
AcDbEntity
  8
Defpoints
100
AcDbPoint
 10
303.0
 20
-25.0
 30
0.0
  0
POINT
  5
137
330
12A
100
AcDbEntity
  8
Defpoints
100
AcDbPoint
 10
303.0
 20
0.0
 30
0.0
  0
POINT
  5
138
330
12A
100
AcDbEntity
  8
Defpoints
100
AcDbPoint
 10
427.0
 20
0.0
 30
0.0
  0
ENDBLK
  5
12C
330
12A
100
AcDbEntity
  8
0
100
AcDbBlockEnd
  0
BLOCK
  5
13B
330
13A
100
AcDbEntity
  8
0
100
AcDbBlockBegin
  2
*D6
 70
1
 10
0.0
 20
0.0
 30
0.0
  3
*D6
  1

  0
LINE
  5
13D
330
13A
100
AcDbEntity
  8
0
100
AcDbLine
 10
303.0
 20
0.0
 30
0.0
 11
278.0
 21
0.0
 31
0.0
  0
LINE
  5
13E
330
13A
100
AcDbEntity
  8
0
100
AcDbLine
 10
303.0
 20
25.0
 30
0.0
 11
278.0
 21
25.0
 31
0.0
  0
INSERT
  5
13F
330
13A
100
AcDbEntity
  8
DIMENSIONS
100
AcDbBlockReference
  2
_CLOSEDFILLED
 10
278.0
 20
0.0
 30
0.0
 41
3.0
 42
3.0
 50
270.0
  0
INSERT
  5
141
330
13A
100
AcDbEntity
  8
DIMENSIONS
100
AcDbBlockReference
  2
_CLOSEDFILLED
 10
278.0
 20
25.0
 30
0.0
 41
3.0
 42
3.0
 50
90.0
  0
LINE
  5
143
330
13A
100
AcDbEntity
  8
0
100
AcDbLine
 10
278.0
 20
3.0
 30
0.0
 11
278.0
 21
9.5
 31
0.0
  0
LINE
  5
144
330
13A
100
AcDbEntity
  8
0
100
AcDbLine
 10
278.0
 20
15.5
 30
0.0
 11
278.0
 21
22.0
 31
0.0
  0
MTEXT
  5
145
330
13A
100
AcDbEntity
  8
DIMENSIONS
100
AcDbMText
 10
278.0
 20
12.5
 30
0.0
 40
3.0
 71
5
  1
25
 50
90.0
  0
POINT
  5
146
330
13A
100
AcDbEntity
  8
Defpoints
100
AcDbPoint
 10
278.0
 20
0.0
 30
0.0
  0
POINT
  5
147
330
13A
100
AcDbEntity
  8
Defpoints
100
AcDbPoint
 10
303.0
 20
0.0
 30
0.0
  0
POINT
  5
148
330
13A
100
AcDbEntity
  8
Defpoints
100
AcDbPoint
 10
303.0
 20
25.0
 30
0.0
  0
ENDBLK
  5
13C
330
13A
100
AcDbEntity
  8
0
100
AcDbBlockEnd
  0
ENDSEC
  0
SECTION
  2
ENTITIES
  0
LWPOLYLINE
  5
34
330
17
100
AcDbEntity
  8
XY_AFT
100
AcDbPolyline
 90
2
 70
0
 10
16.0
 20
50.0
 10
16.0
 20
74.0
  0
LWPOLYLINE
  5
35
330
17
100
AcDbEntity
  8
XY_AFT
100
AcDbPolyline
 90
2
 70
0
 10
16.0
 20
50.0
 10
16.0
 20
74.0
  0
LWPOLYLINE
  5
36
330
17
100
AcDbEntity
  8
XY_AFT
100
AcDbPolyline
 90
2
 70
0
 10
16.0
 20
56.0
 10
16.0
 20
68.0
  0
LWPOLYLINE
  5
37
330
17
100
AcDbEntity
  8
XY_AFT
100
AcDbPolyline
 90
2
 70
0
 10
16.0
 20
68.0
 10
16.0
 20
56.0
  0
LWPOLYLINE
  5
38
330
17
100
AcDbEntity
  8
XY_AFT
100
AcDbPolyline
 90
2
 70
0
 10
53.48999599679678
 20
50.0
 10
66.0
 20
50.0
  0
LWPOLYLINE
  5
39
330
17
100
AcDbEntity
  8
XY_AFT
100
AcDbPolyline
 90
12
 70
0
 10
53.48999599679679
 20
50.0
 10
52.87197186865008
 20
50.0
 10
51.34021140373683
 20
50.0
 10
49.012607839296706
 20
50.0
 10
46.06830714854689
 20
50.0
 10
42.73391991962477
 20
50.0
 10
39.26608008037525
 20
50.0
 10
35.93169285145312
 20
50.0
 10
32.98739216070331
 20
50.0
 10
30.659788596263184
 20
50.0
 10
29.12802813134992
 20
50.0
 10
28.51000400320322
 20
50.0
  0
LWPOLYLINE
  5
3A
330
17
100
AcDbEntity
  8
XY_AFT
100
AcDbPolyline
 90
2
 70
0
 10
16.0
 20
50.0
 10
28.51000400320322
 20
50.0
  0
LWPOLYLINE
  5
3B
330
17
100
AcDbEntity
  8
XY_AFT
100
AcDbPolyline
 90
2
 70
0
 10
16.0
 20
50.0
 10
66.0
 20
50.0
  0
LWPOLYLINE
  5
3C
330
17
100
AcDbEntity
  8
XY_AFT
100
AcDbPolyline
 90
2
 70
0
 10
16.0
 20
74.0
 10
66.0
 20
74.0
  0
LWPOLYLINE
  5
3D
330
17
100
AcDbEntity
  8
XY_AFT
100
AcDbPolyline
 90
2
 70
0
 10
66.0
 20
50.0
 10
66.0
 20
74.0
  0
LWPOLYLINE
  5
3E
330
17
100
AcDbEntity
  8
XY_AFT
100
AcDbPolyline
 90
12
 70
0
 10
25.0
 20
62.0
 10
24.365014131324727
 20
64.16256326982239
 10
22.661660052007548
 20
65.63852798141808
 10
20.430740646906855
 20
65.95928576752374
 10
18.380557064218863
 20
65.02299829741703
 10
17.162028105542007
 20
63.12693022736572
 10
17.162028105542007
 20
60.87306977263428
 10
18.380557064218863
 20
58.97700170258297
 10
20.430740646906855
 20
58.04071423247627
 10
22.661660052007548
 20
58.36147201858193
 10
24.365014131324727
 20
59.83743673017761
 10
25.0
 20
62.0
  0
LWPOLYLINE
  5
3F
330
17
100
AcDbEntity
  8
XY_AFT
100
AcDbPolyline
 90
12
 70
0
 10
65.0
 20
62.0
 10
64.36501413132473
 20
64.16256326982239
 10
62.66166005200755
 20
65.63852798141808
 10
60.430740646906855
 20
65.95928576752374
 10
58.38055706421886
 20
65.02299829741703
 10
57.16202810554201
 20
63.12693022736572
 10
57.16202810554201
 20
60.87306977263428
 10
58.38055706421886
 20
58.97700170258297
 10
60.430740646906855
 20
58.04071423247627
 10
62.66166005200755
 20
58.36147201858193
 10
64.36501413132473
 20
59.83743673017761
 10
65.0
 20
62.0
  0
LWPOLYLINE
  5
40
330
17
100
AcDbEntity
  8
XY_AFT
100
AcDbPolyline
 90
2
 70
0
 10
53.48999599679678
 20
74.0
 10
66.0
 20
74.0
  0
LWPOLYLINE
  5
41
330
17
100
AcDbEntity
  8
XY_AFT
100
AcDbPolyline
 90
12
 70
0
 10
53.48999599679679
 20
74.0
 10
52.87197186865008
 20
74.0
 10
51.34021140373683
 20
74.0
 10
49.012607839296706
 20
74.0
 10
46.06830714854689
 20
74.0
 10
42.73391991962477
 20
74.0
 10
39.26608008037525
 20
74.0
 10
35.93169285145312
 20
74.0
 10
32.98739216070331
 20
74.0
 10
30.659788596263184
 20
74.0
 10
29.12802813134992
 20
74.0
 10
28.51000400320322
 20
74.0
  0
LWPOLYLINE
  5
42
330
17
100
AcDbEntity
  8
XY_AFT
100
AcDbPolyline
 90
2
 70
0
 10
16.0
 20
74.0
 10
28.51000400320322
 20
74.0
  0
LWPOLYLINE
  5
43
330
17
100
AcDbEntity
  8
XY_AFT
100
AcDbPolyline
 90
2
 70
0
 10
28.510004003203207
 20
50.0
 10
28.510004003203207
 20
74.0
  0
LWPOLYLINE
  5
44
330
17
100
AcDbEntity
  8
XY_AFT
100
AcDbPolyline
 90
12
 70
0
 10
25.0
 20
62.0
 10
24.365014131324727
 20
64.16256326982239
 10
22.661660052007548
 20
65.63852798141808
 10
20.430740646906855
 20
65.95928576752374
 10
18.380557064218863
 20
65.02299829741703
 10
17.162028105542007
 20
63.12693022736572
 10
17.162028105542007
 20
60.87306977263428
 10
18.380557064218863
 20
58.97700170258297
 10
20.430740646906855
 20
58.04071423247627
 10
22.661660052007548
 20
58.36147201858193
 10
24.365014131324727
 20
59.83743673017761
 10
25.0
 20
62.0
  0
LWPOLYLINE
  5
45
330
17
100
AcDbEntity
  8
XY_AFT
100
AcDbPolyline
 90
2
 70
0
 10
15.708203932499472
 20
68.0
 10
16.0
 20
68.0
  0
LWPOLYLINE
  5
46
330
17
100
AcDbEntity
  8
XY_AFT
100
AcDbPolyline
 90
2
 70
0
 10
15.708203932499472
 20
68.0
 10
16.0
 20
68.0
  0
LWPOLYLINE
  5
47
330
17
100
AcDbEntity
  8
XY_AFT
100
AcDbPolyline
 90
12
 70
0
 10
15.708203932499444
 20
67.99999999999991
 10
12.52587348050244
 20
70.28059274445312
 10
8.676311503095974
 20
70.99417732519056
 10
4.88800389875226
 20
70.00571596194389
 10
1.8778448712889428
 20
67.50226374527566
 10
0.21547284100844877
 20
63.95757058440812
 10
0.21547284100844877
 20
60.04242941559187
 10
1.8778448712889428
 20
56.49773625472434
 10
4.88800389875226
 20
53.994284038056094
 10
8.676311503095974
 20
53.00582267480944
 10
12.525873480502469
 20
53.7194072555469
 10
15.708203932499458
 20
56.00000000000009
  0
LWPOLYLINE
  5
48
330
17
100
AcDbEntity
  8
XY_AFT
100
AcDbPolyline
 90
2
 70
0
 10
15.708203932499487
 20
56.0
 10
16.0
 20
56.0
  0
LWPOLYLINE
  5
49
330
17
100
AcDbEntity
  8
XY_AFT
100
AcDbPolyline
 90
12
 70
0
 10
13.0
 20
62.0
 10
12.365014131324727
 20
64.16256326982239
 10
10.661660052007534
 20
65.63852798141808
 10
8.430740646906855
 20
65.95928576752374
 10
6.380557064218863
 20
65.02299829741703
 10
5.162028105542021
 20
63.12693022736572
 10
5.162028105542021
 20
60.87306977263428
 10
6.380557064218863
 20
58.97700170258297
 10
8.430740646906855
 20
58.04071423247627
 10
10.661660052007534
 20
58.36147201858193
 10
12.365014131324727
 20
59.83743673017761
 10
13.0
 20
62.0
  0
LWPOLYLINE
  5
4A
330
17
100
AcDbEntity
  8
XY_AFT
100
AcDbPolyline
 90
2
 70
0
 10
15.708203932499487
 20
56.0
 10
16.0
 20
56.0
  0
LWPOLYLINE
  5
4B
330
17
100
AcDbEntity
  8
XY_AFT
100
AcDbPolyline
 90
12
 70
0
 10
15.708203932499444
 20
67.99999999999991
 10
12.52587348050244
 20
70.28059274445312
 10
8.676311503095974
 20
70.99417732519056
 10
4.88800389875226
 20
70.00571596194389
 10
1.8778448712889428
 20
67.50226374527566
 10
0.21547284100844877
 20
63.95757058440812
 10
0.21547284100844877
 20
60.04242941559187
 10
1.8778448712889428
 20
56.49773625472434
 10
4.88800389875226
 20
53.994284038056094
 10
8.676311503095974
 20
53.00582267480944
 10
12.525873480502469
 20
53.7194072555469
 10
15.708203932499458
 20
56.00000000000009
  0
LWPOLYLINE
  5
4C
330
17
100
AcDbEntity
  8
XY_AFT
100
AcDbPolyline
 90
12
 70
0
 10
13.0
 20
62.0
 10
12.365014131324727
 20
64.16256326982239
 10
10.661660052007534
 20
65.63852798141808
 10
8.430740646906855
 20
65.95928576752374
 10
6.380557064218863
 20
65.02299829741703
 10
5.162028105542021
 20
63.12693022736572
 10
5.162028105542021
 20
60.87306977263428
 10
6.380557064218863
 20
58.97700170258297
 10
8.430740646906855
 20
58.04071423247627
 10
10.661660052007534
 20
58.36147201858193
 10
12.365014131324727
 20
59.83743673017761
 10
13.0
 20
62.0
  0
LWPOLYLINE
  5
4D
330
17
100
AcDbEntity
  8
XY_AFT
100
AcDbPolyline
 90
2
 70
0
 10
66.0
 20
50.0
 10
66.0
 20
53.0
  0
LWPOLYLINE
  5
4E
330
17
100
AcDbEntity
  8
XY_AFT
100
AcDbPolyline
 90
2
 70
0
 10
66.0
 20
71.0
 10
66.0
 20
53.0
  0
LWPOLYLINE
  5
4F
330
17
100
AcDbEntity
  8
XY_AFT
100
AcDbPolyline
 90
2
 70
0
 10
66.0
 20
71.0
 10
66.0
 20
74.0
  0
LWPOLYLINE
  5
50
330
17
100
AcDbEntity
  8
XY_AFT
100
AcDbPolyline
 90
2
 70
0
 10
66.0
 20
71.0
 10
60.5
 20
71.0
  0
LWPOLYLINE
  5
51
330
17
100
AcDbEntity
  8
XY_AFT
100
AcDbPolyline
 90
2
 70
0
 10
60.5
 20
65.96862696659689
 10
60.5
 20
71.0
  0
LWPOLYLINE
  5
52
330
17
100
AcDbEntity
  8
XY_AFT
100
AcDbPolyline
 90
12
 70
0
 10
60.5
 20
65.96862696659689
 10
59.486129234645375
 20
65.70245800864839
 10
58.57622163690971
 20
65.18202741135511
 10
57.832763964755415
 20
64.44307509034171
 10
57.3068122372012
 20
63.53634766531317
 10
57.03448552653683
 20
62.524113499877686
 10
57.03448552653683
 20
61.475886500122314
 10
57.3068122372012
 20
60.46365233468683
 10
57.832763964755415
 20
59.556924909658285
 10
58.57622163690969
 20
58.81797258864489
 10
59.486129234645375
 20
58.29754199135161
 10
60.5
 20
58.03137303340311
  0
LWPOLYLINE
  5
53
330
17
100
AcDbEntity
  8
XY_AFT
100
AcDbPolyline
 90
2
 70
0
 10
60.5
 20
53.0
 10
60.5
 20
58.03137303340311
  0
LWPOLYLINE
  5
54
330
17
100
AcDbEntity
  8
XY_AFT
100
AcDbPolyline
 90
2
 70
0
 10
66.0
 20
53.0
 10
60.5
 20
53.0
  0
LWPOLYLINE
  5
55
330
17
100
AcDbEntity
  8
XY_AFT
100
AcDbPolyline
 90
2
 70
0
 10
53.48999599679679
 20
50.0
 10
53.48999599679679
 20
74.0
  0
LWPOLYLINE
  5
56
330
17
100
AcDbEntity
  8
XY_AFT
100
AcDbPolyline
 90
12
 70
0
 10
65.0
 20
62.0
 10
64.95254311045016
 20
62.61433131129134
 10
64.81129851998354
 20
63.21408549598919
 10
64.57961774306474
 20
63.78503132004344
 10
64.26299820421434
 20
64.31362112699854
 10
63.86895279267458
 20
64.78731230281157
 10
63.406831593232
 20
65.19486489257689
 10
62.887600023246875
 20
65.52660830717538
 10
62.323578640353006
 20
65.77467079131429
 10
61.72815079478627
 20
65.93316620803802
 10
61.11544506329763
 20
65.99833370760373
 10
60.5
 20
65.96862696659689
  0
LWPOLYLINE
  5
57
330
17
100
AcDbEntity
  8
XY_AFT
100
AcDbPolyline
 90
12
 70
0
 10
60.5
 20
58.03137303340311
 10
61.11544506329763
 20
58.001666292396266
 10
61.72815079478627
 20
58.06683379196199
 10
62.323578640353006
 20
58.22532920868571
 10
62.887600023246875
 20
58.47339169282462
 10
63.406831593232
 20
58.80513510742311
 10
63.86895279267458
 20
59.21268769718843
 10
64.26299820421434
 20
59.686378873001466
 10
64.57961774306476
 20
60.21496867995656
 10
64.81129851998354
 20
60.78591450401081
 10
64.95254311045016
 20
61.38566868870866
 10
65.0
 20
62.0
  0
LWPOLYLINE
  5
58
330
17
100
AcDbEntity
  8
XY_AFT
100
AcDbPolyline
 90
2
 70
0
 10
66.0
 20
53.0
 10
85.12012884767897
 20
53.0
  0
LWPOLYLINE
  5
59
330
17
100
AcDbEntity
  8
XY_AFT
100
AcDbPolyline
 90
2
 70
0
 10
85.12012884767897
 20
53.0
 10
79.65670370774
 20
53.0
  0
LWPOLYLINE
  5
5A
330
17
100
AcDbEntity
  8
XY_AFT
100
AcDbPolyline
 90
2
 70
0
 10
60.5
 20
53.0
 10
79.65670370774
 20
53.0
  0
LWPOLYLINE
  5
5B
330
17
100
AcDbEntity
  8
XY_AFT
100
AcDbPolyline
 90
2
 70
0
 10
66.0
 20
71.0
 10
85.12012884767897
 20
71.0
  0
LWPOLYLINE
  5
5C
330
17
100
AcDbEntity
  8
XY_AFT
100
AcDbPolyline
 90
12
 70
0
 10
85.12012884767897
 20
71.00000000000001
 10
84.8824086129699
 20
69.3740041306148
 10
84.69199152082362
 20
67.74179249964698
 10
84.54903807932035
 20
66.10474094553808
 10
84.45366878805486
 20
64.46422938644088
 10
84.405964036564
 20
62.82164065704659
 10
84.405964036564
 20
61.17835934295337
 10
84.45366878805487
 20
59.53577061355905
 10
84.54903807932035
 20
57.895259054461874
 10
84.69199152082363
 20
56.25820750035299
 10
84.8824086129699
 20
54.62599586938518
 10
85.12012884767898
 20
52.99999999999996
  0
LWPOLYLINE
  5
5D
330
17
100
AcDbEntity
  8
XY_AFT
100
AcDbPolyline
 90
2
 70
0
 10
85.12012884767897
 20
71.0
 10
79.65670370774
 20
71.0
  0
LWPOLYLINE
  5
5E
330
17
100
AcDbEntity
  8
XY_AFT
100
AcDbPolyline
 90
2
 70
0
 10
60.5
 20
71.0
 10
79.65670370774
 20
71.0
  0
LWPOLYLINE
  5
5F
330
17
100
AcDbEntity
  8
XY_AFT
100
AcDbPolyline
 90
2
 70
0
 10
60.5
 20
65.96862696659689
 10
60.5
 20
71.0
  0
LWPOLYLINE
  5
60
330
17
100
AcDbEntity
  8
XY_AFT
100
AcDbPolyline
 90
2
 70
0
 10
60.5
 20
53.0
 10
60.5
 20
58.03137303340311
  0
LWPOLYLINE
  5
61
330
17
100
AcDbEntity
  8
XY_AFT
100
AcDbPolyline
 90
12
 70
0
 10
79.65670370774
 20
71.0
 10
79.43986872718278
 20
69.37226136768835
 10
79.26621792990917
 20
67.73935112382335
 10
79.13587313125166
 20
66.10241474834137
 10
79.04892576755967
 20
64.46260054549398
 10
79.00543683205743
 20
62.82105883831689
 10
79.00543683205743
 20
61.178941161683134
 10
79.04892576755967
 20
59.53739945450603
 10
79.13587313125166
 20
57.897585251658604
 10
79.26621792990917
 20
56.26064887617666
 10
79.43986872718277
 20
54.627738632311654
 10
79.65670370774
 20
53.000000000000014
  0
LWPOLYLINE
  5
62
330
17
100
AcDbEntity
  8
XY_AFT
100
AcDbPolyline
 90
12
 70
0
 10
85.12012884767897
 20
71.00000000000001
 10
84.8824086129699
 20
69.3740041306148
 10
84.69199152082362
 20
67.74179249964698
 10
84.54903807932035
 20
66.10474094553808
 10
84.45366878805486
 20
64.46422938644088
 10
84.405964036564
 20
62.82164065704659
 10
84.405964036564
 20
61.17835934295337
 10
84.45366878805487
 20
59.53577061355905
 10
84.54903807932035
 20
57.895259054461874
 10
84.69199152082363
 20
56.25820750035299
 10
84.8824086129699
 20
54.62599586938518
 10
85.12012884767898
 20
52.99999999999996
  0
LWPOLYLINE
  5
63
330
17
100
AcDbEntity
  8
XY_AFT
100
AcDbPolyline
 90
48
 70
0
 10
79.65670370774
 20
53.000000000000014
 10
80.35458303053927
 20
49.11072536562881
 10
81.29879085932353
 20
45.273804164090166
 10
82.48549202706073
 20
41.5048211355737
 10
83.90986641146786
 20
37.819085070172505
 10
85.56612851330013
 20
34.231566626904495
 10
87.44755095579193
 20
30.75683752614826
 10
89.54649180979928
 20
27.409011362481294
 10
91.85442563365562
 20
24.20168627832566
 10
94.36197810166328
 20
21.147889731248092
 10
97.0589640805675
 20
18.26002557925824
 10
99.93442899935465
 20
15.54982369903258
 10
102.97669334433915
 20
13.0282923417043
 10
106.17340009881056
 20
10.705673419738986
 10
109.51156493454991
 20
8.59140090651195
 10
112.97762895134991
 20
6.694062517558045
 10
116.55751375032126
 20
5.0213648291373545
 10
120.23667861728977
 20
3.5801019757969073
 10
124.00017958401766
 20
2.3761280540725807
 10
127.8327301273556
 20
1.414333344420882
 10
131.71876325977794
 20
0.698624447962402
 10
135.6424947591035
 20
0.23190841871698353
 10
139.58798728057624
 20
0.016080955781880846
 10
143.53921509089662
 20
0.05201870341404913
 10
147.4801291612681
 20
0.33957569029156787
 10
151.39472235506477
 20
0.877583922417486
 10
155.26709444534188
 20
1.6638581272576332
 10
159.08151669810303
 20
2.6952046298427774
 10
162.82249575899974
 20
3.9674343247824453
 10
166.47483658397033
 20
5.475379691500741
 10
170.02370415820707
 20
7.212915783582034
 10
173.4546837527628
 20
9.172985106972448
 10
176.75383947404782
 20
11.34762628598714
 10
179.90777086840137
 20
13.728006400688436
 10
182.90366735182266
 20
16.304456864287168
 10
185.72936024377944
 20
19.066512694841528
 10
188.3733721937441
 20
22.00295502173951
 10
190.82496379969777
 20
25.101856654313792
 10
193.0741772292475
 20
28.35063052749844
 10
195.1118766661779
 20
31.736080827752104
 10
196.92978541815125
 20
35.24445659158543
 10
198.5205195348335
 20
38.861507558986524
 10
199.877617799896
 20
42.57254205488094
 10
200.99556797507225
 20
46.36248666352333
 10
201.86982918967195
 20
50.21594745343687
 10
202.4968503846111
 20
54.11727250421784
 10
202.8740847360423
 20
58.05061548123551
 10
203.0
 20
61.999999999999986
  0
LWPOLYLINE
  5
64
330
17
100
AcDbEntity
  8
XY_AFT
100
AcDbPolyline
 90
44
 70
0
 10
85.12012884767897
 20
53.0
 10
85.87805621320324
 20
49.14965707985899
 10
86.90095616611241
 20
45.36108608535074
 10
88.18391160028612
 20
41.652498773716474
 10
89.72075531628371
 20
38.04172241859705
 10
91.50409966722881
 20
34.54611411387485
 10
93.52537207141613
 20
31.182477337681327
 10
95.7748562209299
 20
27.966981177649892
 10
98.24173878818351
 20
24.915082605699794
 10
100.91416140586051
 20
22.041452175978712
 10
103.7792776703883
 20
19.359903503135172
 10
106.8233148949272
 20
16.88332685992134
 10
110.03164031502678
 20
14.623627213323672
 10
113.38883142869713
 20
12.591666997083408
 10
116.87875013276884
 20
10.797213895700935
 10
120.4846202991656
 20
9.248893890927818
 10
124.18910841817913
 20
7.954149796452789
 10
127.97440692109193
 20
6.919205480106754
 10
131.8223197816132
 20
6.149035945571789
 10
135.7143499846408
 20
5.64734341741169
 10
139.63178844188377
 20
5.4165395443842
 10
143.55580392692613
 20
5.457733806584045
 10
147.46753359741192
 20
5.770728182143877
 10
151.3481736692084
 20
6.3540180991304425
 10
155.17906980667544
 20
7.204799668060112
 10
158.94180679453203
 20
8.31898316026713
 10
162.61829706026478
 20
9.691212667333346
 10
166.19086762154964
 20
11.314891847076403
 10
169.64234504072826
 20
13.182215632334675
 10
172.95613797795951
 20
15.284207750123578
 10
176.11631694621323
 20
17.610763870808753
 10
179.10769088471955
 20
20.150700179875592
 10
181.9158801827849
 20
22.891807138810535
 10
184.52738580294707
 20
25.82090817666365
 10
186.9296541711916
 20
28.923923030160566
 10
189.111137522302
 20
32.18593542788663
 10
191.06134941026116
 20
35.59126479318356
 10
192.77091511686424
 20
39.12354162108046
 10
194.23161671622796
 20
42.76578616692121
 10
195.43643257856954
 20
46.50049006842946
 10
196.3795711233597
 20
50.309700508851705
 10
197.05649865959805
 20
54.175106516604664
 10
197.46396117938082
 20
58.07812698658212
 10
197.6
 20
61.999999999999986
  0
LWPOLYLINE
  5
65
330
17
100
AcDbEntity
  8
XY_AFT
100
AcDbPolyline
 90
44
 70
0
 10
197.6
 20
62.0
 10
197.46396117938082
 20
65.92187301341785
 10
197.05649865959805
 20
69.8248934833953
 10
196.3795711233597
 20
73.6902994911483
 10
195.43643257856954
 20
77.49950993157053
 10
194.231616716228
 20
81.23421383307875
 10
192.77091511686424
 20
84.87645837891954
 10
191.06134941026116
 20
88.40873520681643
 10
189.11113752230202
 20
91.81406457211335
 10
186.9296541711916
 20
95.07607696983945
 10
184.52738580294707
 20
98.17909182333635
 10
181.91588018278492
 20
101.10819286118945
 10
179.10769088471952
 20
103.84929982012441
 10
176.11631694621323
 20
106.38923612919126
 10
172.95613797795951
 20
108.71579224987642
 10
169.64234504072823
 20
110.81778436766535
 10
166.19086762154967
 20
112.68510815292358
 10
162.61829706026478
 20
114.30878733266665
 10
158.94180679453206
 20
115.68101683973288
 10
155.17906980667547
 20
116.79520033193988
 10
151.34817366920836
 20
117.64598190086956
 10
147.46753359741192
 20
118.22927181785612
 10
143.55580392692616
 20
118.54226619341595
 10
139.63178844188377
 20
118.5834604556158
 10
135.7143499846408
 20
118.35265658258831
 10
131.8223197816132
 20
117.8509640544282
 10
127.97440692109195
 20
117.08079451989326
 10
124.18910841817917
 20
116.04585020354722
 10
120.48462029916558
 20
114.75110610907217
 10
116.87875013276886
 20
113.20278610429907
 10
113.38883142869715
 20
111.4083330029166
 10
110.03164031502676
 20
109.37637278667631
 10
106.82331489492721
 20
107.11667314007866
 10
103.7792776703883
 20
104.64009649686484
 10
100.91416140586051
 20
101.95854782402131
 10
98.24173878818351
 20
99.08491739430019
 10
95.7748562209299
 20
96.03301882235013
 10
93.52537207141614
 20
92.81752266231868
 10
91.50409966722881
 20
89.45388588612516
 10
89.72075531628371
 20
85.95827758140297
 10
88.18391160028614
 20
82.34750122628354
 10
86.90095616611241
 20
78.63891391464927
 10
85.87805621320325
 20
74.85034292014105
 10
85.12012884767897
 20
71.00000000000001
  0
LWPOLYLINE
  5
66
330
17
100
AcDbEntity
  8
XY_AFT
100
AcDbPolyline
 90
48
 70
0
 10
203.0
 20
62.0
 10
202.8740847360423
 20
65.94938451876449
 10
202.49685038461107
 20
69.88272749578218
 10
201.86982918967195
 20
73.78405254656315
 10
200.99556797507225
 20
77.63751333647664
 10
199.877617799896
 20
81.42745794511904
 10
198.5205195348335
 20
85.13849244101347
 10
196.92978541815125
 20
88.75554340841458
 10
195.1118766661779
 20
92.26391917224787
 10
193.07417722924754
 20
95.64936947250155
 10
190.82496379969777
 20
98.89814334568621
 10
188.3733721937441
 20
101.99704497826049
 10
185.7293602437794
 20
104.93348730515848
 10
182.90366735182266
 20
107.69554313571282
 10
179.9077708684014
 20
110.27199359931154
 10
176.75383947404785
 20
112.65237371401282
 10
173.45468375276283
 20
114.82701489302752
 10
170.0237041582071
 20
116.78708421641795
 10
166.47483658397036
 20
118.52462030849924
 10
162.82249575899976
 20
120.03256567521754
 10
159.081516698103
 20
121.30479537015722
 10
155.26709444534185
 20
122.33614187274237
 10
151.39472235506474
 20
123.12241607758251
 10
147.4801291612681
 20
123.66042430970843
 10
143.53921509089665
 20
123.94798129658595
 10
139.58798728057624
 20
123.98391904421811
 10
135.64249475910353
 20
123.76809158128302
 10
131.71876325977797
 20
123.3013755520376
 10
127.83273012735563
 20
122.58566665557913
 10
124.00017958401766
 20
121.62387194592742
 10
120.23667861728975
 20
120.41989802420309
 10
116.5575137503213
 20
118.97863517086267
 10
112.97762895134996
 20
117.30593748244198
 10
109.51156493454991
 20
115.40859909348805
 10
106.17340009881057
 20
113.29432658026103
 10
102.9766933443392
 20
110.97170765829573
 10
99.93442899935465
 20
108.45017630096743
 10
97.05896408056752
 20
105.73997442074177
 10
94.36197810166331
 20
102.85211026875194
 10
91.85442563365564
 20
99.79831372167436
 10
89.54649180979928
 20
96.5909886375187
 10
87.44755095579194
 20
93.24316247385175
 10
85.56612851330014
 20
89.76843337309552
 10
83.90986641146786
 20
86.18091492982751
 10
82.48549202706073
 20
82.49517886442632
 10
81.29879085932353
 20
78.72619583590985
 10
80.35458303053927
 20
74.8892746343712
 10
79.65670370774
 20
71.0
  0
LWPOLYLINE
  5
67
330
17
100
AcDbEntity
  8
XY_AFT
100
AcDbPolyline
 90
96
 70
0
 10
203.0
 20
62.0
 10
202.86444488756402
 20
66.09761622819336
 10
202.45837229827248
 20
70.17731462320828
 10
201.78355788423818
 20
74.22125570199178
 10
200.8429524371956
 20
78.21175633913683
 10
199.64066898543936
 20
82.13136709069038
 10
198.18196480859785
 20
85.96294849613204
 10
196.47321844888734
 20
89.689746024874
 10
194.5219018193696
 20
93.29546333956031
 10
192.33654753117725
 20
96.76433355580372
 10
189.92671158257642
 20
100.08118818675939
 10
187.30293157301753
 20
103.23152347105858
 10
184.4766806248943
 20
106.20156379406662
 10
181.46031721449845
 20
108.97832192514075
 10
178.26703113154755
 20
111.54965580748532
 10
174.91078580359047
 20
113.90432165227676
 10
171.4062572374915
 20
116.03202310489118
 10
167.76876984498656
 20
117.92345626824346
 10
164.01422943292968
 20
119.57035038636184
 10
160.15905365124675
 20
120.96550401029953
 10
156.22010020272955
 20
122.10281648823849
 10
152.21459312859082
 20
122.9773146420877
 10
148.16004749211436
 20
123.58517451392557
 10
144.07419278973978
 20
123.92373808719489
 10
139.9748954244858
 20
123.99152490953307
 10
135.8800805807154
 20
123.78823856641353
 10
131.8076538418658
 20
123.31476797729104
 10
127.77542289388771
 20
122.57318350858316
 10
123.80101965676566
 20
121.5667279204846
 10
119.90182318461814
 20
120.299802187202
 10
116.0948836715159
 20
118.77794625261356
 10
112.39684789532136
 20
117.00781480550393
 10
108.82388642556467
 20
114.99714818030341
 10
105.3916229136575
 20
112.75473851057492
 10
102.11506577464073
 20
110.29039128325098
 10
99.00854255920406
 20
107.61488246173417
 10
96.08563730295248
 20
104.73991136535108
 10
93.35913112687476
 20
101.67804951120564
 10
90.84094634875326
 20
98.44268564213334
 10
88.54209434990202
 20
95.04796718113563
 10
86.4726274251977
 20
91.5087383682986
 10
84.64159482695192
 20
87.840475350708
 10
83.05700319483344
 20
84.05921850919603
 10
81.72578154486982
 20
80.18150231783682
 10
80.65375097062363
 20
76.22428304289862
 10
79.84559918903122
 20
72.2048645974055
 10
79.3048600422093
 20
68.14082287552868
 10
79.03389804486258
 20
64.04992889767313
 10
79.03389804486258
 20
59.95007110232692
 10
79.3048600422093
 20
55.8591771244713
 10
79.84559918903122
 20
51.79513540259453
 10
80.65375097062363
 20
47.77571695710142
 10
81.72578154486982
 20
43.8184976821632
 10
83.05700319483341
 20
39.94078149080401
 10
84.64159482695192
 20
36.15952464929201
 10
86.47262742519769
 20
32.49126163170144
 10
88.54209434990199
 20
28.95203281886443
 10
90.84094634875323
 20
25.557314357866694
 10
93.35913112687474
 20
22.32195048879438
 10
96.08563730295248
 20
19.26008863464893
 10
99.00854255920403
 20
16.38511753826586
 10
102.1150657746407
 20
13.709608716749045
 10
105.39162291365749
 20
11.245261489425076
 10
108.82388642556461
 20
9.002851819696609
 10
112.39684789532137
 20
6.992185194496059
 10
116.09488367151587
 20
5.222053747386447
 10
119.90182318461811
 20
3.7001978127980095
 10
123.80101965676558
 20
2.433272079515426
 10
127.77542289388765
 20
1.4268164914168509
 10
131.80765384186583
 20
0.6852320227089521
 10
135.88008058071537
 20
0.21176143358646726
 10
139.97489542448577
 20
0.008475090466923518
 10
144.07419278973978
 20
0.07626191280510142
 10
148.1600474921143
 20
0.4148254860744274
 10
152.21459312859076
 20
1.0226853579122874
 10
156.22010020272953
 20
1.8971835117615115
 10
160.15905365124672
 20
3.034495989700474
 10
164.01422943292968
 20
4.429649613638162
 10
167.76876984498654
 20
6.07654373175653
 10
171.40625723749153
 20
7.967976895108819
 10
174.9107858035904
 20
10.095678347723187
 10
178.26703113154755
 20
12.450344192514656
 10
181.46031721449845
 20
15.021678074859253
 10
184.47668062489427
 20
17.79843620593335
 10
187.30293157301753
 20
20.76847652894139
 10
189.9267115825764
 20
23.91881181324058
 10
192.33654753117725
 20
27.235666444196283
 10
194.52190181936956
 20
30.704536660439643
 10
196.4732184488873
 20
34.31025397512596
 10
198.18196480859785
 20
38.03705150386793
 10
199.64066898543933
 20
41.86863290930961
 10
200.8429524371956
 20
45.78824366086312
 10
201.78355788423818
 20
49.77874429800823
 10
202.45837229827248
 20
53.822685376791746
 10
202.86444488756402
 20
57.902383771806605
 10
203.0
 20
61.999999999999986
  0
LWPOLYLINE
  5
68
330
17
100
AcDbEntity
  8
XY_AFT
100
AcDbPolyline
 90
90
 70
0
 10
197.6
 20
62.0
 10
197.45901082353322
 20
65.9925050817948
 10
197.0367456951181
 20
69.9651197041012
 10
196.33530831838385
 20
73.89805250069946
 10
195.3581932190579
 20
77.77170979822945
 10
194.1102683354148
 20
81.56679323088576
 10
192.59775076645226
 20
85.2643958839054
 10
190.82817579861697
 20
88.84609648686606
 10
188.81035936538632
 20
92.29405118752882
 10
186.55435412673143
 20
95.59108244901236
 10
184.0713993872708
 20
98.7207646274177
 10
181.3738651026199
 20
101.66750580355978
 10
178.4751902528949
 20
104.41662546112468
 10
175.3898158903893
 20
106.95442762426332
 10
172.13311319497802
 20
109.26826909025425
 10
168.7213068956725
 20
111.34662241730368
 10
165.1713944398369
 20
113.17913335368061
 10
161.50106131276002
 20
114.75667242207808
 10
157.7285929294577
 20
116.07138040220998
 10
153.8727835376546
 20
117.11670748505111
 10
149.9528425857876
 20
117.88744590365629
 10
145.98829902249986
 20
118.37975587799336
 10
141.99890400440108
 20
118.59118474453412
 10
138.00453249679876
 20
118.52067917530066
 10
134.02508425762082
 20
118.16859042549235
 10
130.08038469782247
 20
117.53667258355014
 10
126.19008611218626
 20
116.62807383237617
 10
122.37356977257784
 20
115.44732076524485
 10
118.64984937142454
 20
114.00029583454298
 10
115.03747629645606
 20
112.29420804568772
 10
111.55444720862407
 20
110.33755704222435
 10
108.21811438364239
 20
108.14009076102957
 10
105.04509926382252
 20
105.71275686858041
 10
102.05120965088383
 20
103.06764822023042
 10
99.25136095228078
 20
100.21794261421267
 10
96.65950187339314
 20
97.17783714051183
 10
94.28854492577747
 20
93.96247745167591
 10
92.15030209768403
 20
90.58788230793718
 10
90.2554260073255
 20
87.07086377255445
 10
88.61335683206889
 20
83.42894345495962
 10
87.23227527794673
 20
79.68026521898078
 10
86.11906182379113
 20
75.84350479102527
 10
85.27926244303438
 20
71.93777671855037
 10
84.71706097394822
 20
67.98253914234895
 10
84.43525827597203
 20
63.99749685707126
 10
84.43525827597203
 20
60.00250314292875
 10
84.71706097394822
 20
56.017460857651
 10
85.27926244303438
 20
52.062223281449654
 10
86.11906182379113
 20
48.15649520897472
 10
87.23227527794671
 20
44.319734781019235
 10
88.61335683206889
 20
40.57105654504039
 10
90.2554260073255
 20
36.92913622744556
 10
92.15030209768403
 20
33.41211769206283
 10
94.28854492577747
 20
30.037522548324084
 10
96.65950187339315
 20
26.822162859488145
 10
99.25136095228078
 20
23.78205738578732
 10
102.0512096508838
 20
20.93235177976959
 10
105.04509926382252
 20
18.28724313141958
 10
108.21811438364243
 20
15.859909238970403
 10
111.55444720862405
 20
13.662442957775653
 10
115.03747629645608
 20
11.705791954312275
 10
118.64984937142454
 20
9.999704165457018
 10
122.37356977257785
 20
8.55267923475514
 10
126.19008611218624
 20
7.37192616762384
 10
130.08038469782247
 20
6.463327416449857
 10
134.02508425762082
 20
5.831409574507646
 10
138.0045324967988
 20
5.479320824699343
 10
141.99890400440106
 20
5.408815255465875
 10
145.9882990224999
 20
5.620244122006639
 10
149.95284258578764
 20
6.112554096343715
 10
153.87278353765467
 20
6.883292514948906
 10
157.72859292945773
 20
7.928619597790025
 10
161.50106131276004
 20
9.243327577921924
 10
165.17139443983692
 20
10.820866646319402
 10
168.7213068956725
 20
12.653377582696308
 10
172.13311319497802
 20
14.731730909745743
 10
175.3898158903893
 20
17.04557237573669
 10
178.4751902528949
 20
19.58337453887529
 10
181.3738651026199
 20
22.332494196440194
 10
184.07139938727073
 20
25.279235372582257
 10
186.55435412673143
 20
28.40891755098759
 10
188.81035936538632
 20
31.705948812471185
 10
190.82817579861697
 20
35.153903513133955
 10
192.59775076645226
 20
38.735604116094585
 10
194.1102683354148
 20
42.43320676911422
 10
195.3581932190579
 20
46.228290201770534
 10
196.33530831838385
 20
50.10194749930054
 10
197.0367456951181
 20
54.03488029589876
 10
197.45901082353322
 20
58.007494918205175
 10
197.6
 20
61.999999999999986
  0
DIMENSION
  5
69
330
17
100
AcDbEntity
  8
DIMENSIONS
100
AcDbDimension
280
0
  2
*D1
  3
Standard
 10
0.0
 20
-25.0
 30
0.0
 11
101.5
 21
-25.0
 31
0.0
 70
32
 71
5
  1
<>
100
AcDbAlignedDimension
 13
0.0
 23
0.0
 33
0.0
 14
203.0
 24
0.0
 34
0.0
 50
0.0
100
AcDbRotatedDimension
1001
ACAD
1000
DSTYLE
1002
{
1070
140
1040
3.0
1070
41
1040
3.0
1070
271
1070
3
1002
}
  0
DIMENSION
  5
7D
330
17
100
AcDbEntity
  8
DIMENSIONS
100
AcDbDimension
280
0
  2
*D2
  3
Standard
 10
-25.0
 20
0.0
 30
0.0
 11
-25.0
 21
62.0
 31
0.0
 70
32
 71
5
  1
<>
100
AcDbAlignedDimension
 13
0.0
 23
0.0
 33
0.0
 14
0.0
 24
124.0
 34
0.0
 50
90.0
100
AcDbRotatedDimension
1001
ACAD
1000
DSTYLE
1002
{
1070
140
1040
3.0
1070
41
1040
3.0
1070
271
1070
3
1002
}
  0
LWPOLYLINE
  5
8D
330
17
100
AcDbEntity
  8
XZ_SIDE
100
AcDbPolyline
 90
2
 70
0
 10
16.0
 20
-249.0
 10
16.0
 20
-229.5
  0
LWPOLYLINE
  5
8E
330
17
100
AcDbEntity
  8
XZ_SIDE
100
AcDbPolyline
 90
2
 70
0
 10
16.0
 20
-249.0
 10
16.0
 20
-229.5
  0
LWPOLYLINE
  5
8F
330
17
100
AcDbEntity
  8
XZ_SIDE
100
AcDbPolyline
 90
2
 70
0
 10
16.0
 20
-244.0
 10
16.0
 20
-238.0
  0
LWPOLYLINE
  5
90
330
17
100
AcDbEntity
  8
XZ_SIDE
100
AcDbPolyline
 90
2
 70
0
 10
16.0
 20
-244.0
 10
16.0
 20
-238.0
  0
LWPOLYLINE
  5
91
330
17
100
AcDbEntity
  8
XZ_SIDE
100
AcDbPolyline
 90
2
 70
0
 10
66.0
 20
-249.0
 10
66.0
 20
-229.5
  0
LWPOLYLINE
  5
92
330
17
100
AcDbEntity
  8
XZ_SIDE
100
AcDbPolyline
 90
2
 70
0
 10
53.48999599679678
 20
-229.5
 10
66.0
 20
-229.5
  0
LWPOLYLINE
  5
93
330
17
100
AcDbEntity
  8
XZ_SIDE
100
AcDbPolyline
 90
12
 70
0
 10
53.48999599679679
 20
-229.50000000000023
 10
52.87197186865008
 20
-232.912324622265
 10
51.34021140373683
 20
-236.02353387733206
 10
49.012607839296706
 20
-238.59417091851302
 10
46.06830714854689
 20
-240.4263844958932
 10
42.73391991962477
 20
-241.37915674480004
 10
39.26608008037525
 20
-241.37915674480004
 10
35.93169285145312
 20
-240.42638449589322
 10
32.98739216070331
 20
-238.59417091851304
 10
30.659788596263184
 20
-236.02353387733206
 10
29.12802813134992
 20
-232.91232462226503
 10
28.51000400320322
 20
-229.50000000000023
  0
LWPOLYLINE
  5
94
330
17
100
AcDbEntity
  8
XZ_SIDE
100
AcDbPolyline
 90
2
 70
0
 10
16.0
 20
-229.5
 10
28.51000400320322
 20
-229.5
  0
LWPOLYLINE
  5
95
330
17
100
AcDbEntity
  8
XZ_SIDE
100
AcDbPolyline
 90
2
 70
0
 10
16.0
 20
-249.0
 10
66.0
 20
-249.0
  0
LWPOLYLINE
  5
96
330
17
100
AcDbEntity
  8
XZ_SIDE
100
AcDbPolyline
 90
2
 70
0
 10
16.0
 20
-249.0
 10
66.0
 20
-249.0
  0
LWPOLYLINE
  5
97
330
17
100
AcDbEntity
  8
XZ_SIDE
100
AcDbPolyline
 90
12
 70
0
 10
25.0
 20
-249.0
 10
24.365014131324727
 20
-249.0
 10
22.661660052007548
 20
-249.0
 10
20.430740646906855
 20
-249.0
 10
18.380557064218863
 20
-249.0
 10
17.162028105542007
 20
-249.0
 10
17.162028105542007
 20
-249.0
 10
18.380557064218863
 20
-249.0
 10
20.430740646906855
 20
-249.0
 10
22.661660052007548
 20
-249.0
 10
24.365014131324727
 20
-249.0
 10
25.0
 20
-249.0
  0
LWPOLYLINE
  5
98
330
17
100
AcDbEntity
  8
XZ_SIDE
100
AcDbPolyline
 90
12
 70
0
 10
65.0
 20
-249.0
 10
64.36501413132473
 20
-249.0
 10
62.66166005200755
 20
-249.0
 10
60.430740646906855
 20
-249.0
 10
58.38055706421886
 20
-249.0
 10
57.16202810554201
 20
-249.0
 10
57.16202810554201
 20
-249.0
 10
58.38055706421886
 20
-249.0
 10
60.430740646906855
 20
-249.0
 10
62.66166005200755
 20
-249.0
 10
64.36501413132473
 20
-249.0
 10
65.0
 20
-249.0
  0
LWPOLYLINE
  5
99
330
17
100
AcDbEntity
  8
XZ_SIDE
100
AcDbPolyline
 90
2
 70
0
 10
66.0
 20
-249.0
 10
66.0
 20
-229.5
  0
LWPOLYLINE
  5
9A
330
17
100
AcDbEntity
  8
XZ_SIDE
100
AcDbPolyline
 90
2
 70
0
 10
53.48999599679678
 20
-229.5
 10
66.0
 20
-229.5
  0
LWPOLYLINE
  5
9B
330
17
100
AcDbEntity
  8
XZ_SIDE
100
AcDbPolyline
 90
12
 70
0
 10
53.48999599679679
 20
-229.50000000000023
 10
52.87197186865008
 20
-232.912324622265
 10
51.34021140373683
 20
-236.02353387733206
 10
49.012607839296706
 20
-238.59417091851302
 10
46.06830714854689
 20
-240.4263844958932
 10
42.73391991962477
 20
-241.37915674480004
 10
39.26608008037525
 20
-241.37915674480004
 10
35.93169285145312
 20
-240.42638449589322
 10
32.98739216070331
 20
-238.59417091851304
 10
30.659788596263184
 20
-236.02353387733206
 10
29.12802813134992
 20
-232.91232462226503
 10
28.51000400320322
 20
-229.50000000000023
  0
LWPOLYLINE
  5
9C
330
17
100
AcDbEntity
  8
XZ_SIDE
100
AcDbPolyline
 90
2
 70
0
 10
16.0
 20
-229.5
 10
28.51000400320322
 20
-229.5
  0
LWPOLYLINE
  5
9D
330
17
100
AcDbEntity
  8
XZ_SIDE
100
AcDbPolyline
 90
12
 70
0
 10
25.0
 20
-229.5
 10
24.365014131324727
 20
-229.5
 10
22.661660052007548
 20
-229.5
 10
20.430740646906855
 20
-229.5
 10
18.380557064218863
 20
-229.5
 10
17.162028105542007
 20
-229.5
 10
17.162028105542007
 20
-229.5
 10
18.380557064218863
 20
-229.5
 10
20.430740646906855
 20
-229.5
 10
22.661660052007548
 20
-229.5
 10
24.365014131324727
 20
-229.5
 10
25.0
 20
-229.5
  0
LWPOLYLINE
  5
9E
330
17
100
AcDbEntity
  8
XZ_SIDE
100
AcDbPolyline
 90
2
 70
0
 10
15.708203932499472
 20
-244.0
 10
16.0
 20
-244.0
  0
LWPOLYLINE
  5
9F
330
17
100
AcDbEntity
  8
XZ_SIDE
100
AcDbPolyline
 90
2
 70
0
 10
15.708203932499472
 20
-238.0
 10
16.0
 20
-238.0
  0
LWPOLYLINE
  5
A0
330
17
100
AcDbEntity
  8
XZ_SIDE
100
AcDbPolyline
 90
2
 70
0
 10
15.708203932499373
 20
-244.0
 10
15.708203932499373
 20
-238.0
  0
LWPOLYLINE
  5
A1
330
17
100
AcDbEntity
  8
XZ_SIDE
100
AcDbPolyline
 90
12
 70
0
 10
15.708203932499444
 20
-244.0
 10
12.52587348050244
 20
-244.0
 10
8.676311503095974
 20
-244.0
 10
4.88800389875226
 20
-244.0
 10
1.8778448712889428
 20
-244.0
 10
0.21547284100844877
 20
-244.0
 10
0.21547284100844877
 20
-244.0
 10
1.8778448712889428
 20
-244.0
 10
4.88800389875226
 20
-244.0
 10
8.676311503095974
 20
-244.0
 10
12.525873480502469
 20
-244.0
 10
15.708203932499458
 20
-244.0
  0
LWPOLYLINE
  5
A2
330
17
100
AcDbEntity
  8
XZ_SIDE
100
AcDbPolyline
 90
2
 70
0
 10
15.708203932499487
 20
-244.0
 10
16.0
 20
-244.0
  0
LWPOLYLINE
  5
A3
330
17
100
AcDbEntity
  8
XZ_SIDE
100
AcDbPolyline
 90
12
 70
0
 10
13.0
 20
-244.0
 10
12.365014131324727
 20
-244.0
 10
10.661660052007534
 20
-244.0
 10
8.430740646906855
 20
-244.0
 10
6.380557064218863
 20
-244.0
 10
5.162028105542021
 20
-244.0
 10
5.162028105542021
 20
-244.0
 10
6.380557064218863
 20
-244.0
 10
8.430740646906855
 20
-244.0
 10
10.661660052007534
 20
-244.0
 10
12.365014131324727
 20
-244.0
 10
13.0
 20
-244.0
  0
LWPOLYLINE
  5
A4
330
17
100
AcDbEntity
  8
XZ_SIDE
100
AcDbPolyline
 90
2
 70
0
 10
15.708203932499487
 20
-238.0
 10
16.0
 20
-238.0
  0
LWPOLYLINE
  5
A5
330
17
100
AcDbEntity
  8
XZ_SIDE
100
AcDbPolyline
 90
2
 70
0
 10
15.708203932499373
 20
-244.0
 10
15.708203932499373
 20
-238.0
  0
LWPOLYLINE
  5
A6
330
17
100
AcDbEntity
  8
XZ_SIDE
100
AcDbPolyline
 90
12
 70
0
 10
15.708203932499444
 20
-238.0
 10
12.52587348050244
 20
-238.0
 10
8.676311503095974
 20
-238.0
 10
4.88800389875226
 20
-238.0
 10
1.8778448712889428
 20
-238.0
 10
0.21547284100844877
 20
-238.0
 10
0.21547284100844877
 20
-238.0
 10
1.8778448712889428
 20
-238.0
 10
4.88800389875226
 20
-238.0
 10
8.676311503095974
 20
-238.0
 10
12.525873480502469
 20
-238.0
 10
15.708203932499458
 20
-238.0
  0
LWPOLYLINE
  5
A7
330
17
100
AcDbEntity
  8
XZ_SIDE
100
AcDbPolyline
 90
12
 70
0
 10
13.0
 20
-238.0
 10
12.365014131324727
 20
-238.0
 10
10.661660052007534
 20
-238.0
 10
8.430740646906855
 20
-238.0
 10
6.380557064218863
 20
-238.0
 10
5.162028105542021
 20
-238.0
 10
5.162028105542021
 20
-238.0
 10
6.380557064218863
 20
-238.0
 10
8.430740646906855
 20
-238.0
 10
10.661660052007534
 20
-238.0
 10
12.365014131324727
 20
-238.0
 10
13.0
 20
-238.0
  0
LWPOLYLINE
  5
A8
330
17
100
AcDbEntity
  8
XZ_SIDE
100
AcDbPolyline
 90
2
 70
0
 10
66.0
 20
-239.0
 10
66.0
 20
-229.5
  0
LWPOLYLINE
  5
A9
330
17
100
AcDbEntity
  8
XZ_SIDE
100
AcDbPolyline
 90
2
 70
0
 10
66.0
 20
-239.0
 10
66.0
 20
-229.5
  0
LWPOLYLINE
  5
AA
330
17
100
AcDbEntity
  8
XZ_SIDE
100
AcDbPolyline
 90
2
 70
0
 10
66.0
 20
-229.5
 10
60.5
 20
-229.5
  0
LWPOLYLINE
  5
AB
330
17
100
AcDbEntity
  8
XZ_SIDE
100
AcDbPolyline
 90
12
 70
0
 10
60.5
 20
-229.5
 10
59.486129234645375
 20
-229.5
 10
58.57622163690971
 20
-229.5
 10
57.832763964755415
 20
-229.5
 10
57.3068122372012
 20
-229.5
 10
57.03448552653683
 20
-229.5
 10
57.03448552653683
 20
-229.5
 10
57.3068122372012
 20
-229.5
 10
57.832763964755415
 20
-229.5
 10
58.57622163690969
 20
-229.5
 10
59.486129234645375
 20
-229.5
 10
60.5
 20
-229.5
  0
LWPOLYLINE
  5
AC
330
17
100
AcDbEntity
  8
XZ_SIDE
100
AcDbPolyline
 90
2
 70
0
 10
66.0
 20
-229.5
 10
60.5
 20
-229.5
  0
LWPOLYLINE
  5
AD
330
17
100
AcDbEntity
  8
XZ_SIDE
100
AcDbPolyline
 90
2
 70
0
 10
25.0
 20
-249.0
 10
25.0
 20
-229.5
  0
LWPOLYLINE
  5
AE
330
17
100
AcDbEntity
  8
XZ_SIDE
100
AcDbPolyline
 90
12
 70
0
 10
65.0
 20
-229.0
 10
64.95254311045016
 20
-229.0
 10
64.81129851998354
 20
-229.0
 10
64.57961774306474
 20
-229.0
 10
64.26299820421434
 20
-229.0
 10
63.86895279267458
 20
-229.0
 10
63.406831593232
 20
-229.0
 10
62.887600023246875
 20
-229.0
 10
62.323578640353006
 20
-229.0
 10
61.72815079478627
 20
-229.0
 10
61.11544506329763
 20
-229.0
 10
60.5
 20
-229.0
  0
LWPOLYLINE
  5
AF
330
17
100
AcDbEntity
  8
XZ_SIDE
100
AcDbPolyline
 90
2
 70
0
 10
60.5
 20
-229.5
 10
60.5
 20
-229.0
  0
LWPOLYLINE
  5
B0
330
17
100
AcDbEntity
  8
XZ_SIDE
100
AcDbPolyline
 90
2
 70
0
 10
60.5
 20
-229.5
 10
60.5
 20
-229.0
  0
LWPOLYLINE
  5
B1
330
17
100
AcDbEntity
  8
XZ_SIDE
100
AcDbPolyline
 90
12
 70
0
 10
60.5
 20
-229.0
 10
61.11544506329763
 20
-229.0
 10
61.72815079478627
 20
-229.0
 10
62.323578640353006
 20
-229.0
 10
62.887600023246875
 20
-229.0
 10
63.406831593232
 20
-229.0
 10
63.86895279267458
 20
-229.0
 10
64.26299820421434
 20
-229.0
 10
64.57961774306476
 20
-229.0
 10
64.81129851998354
 20
-229.0
 10
64.95254311045016
 20
-229.0
 10
65.0
 20
-229.0
  0
LWPOLYLINE
  5
B2
330
17
100
AcDbEntity
  8
XZ_SIDE
100
AcDbPolyline
 90
2
 70
0
 10
65.0
 20
-249.0
 10
65.0
 20
-229.0
  0
LWPOLYLINE
  5
B3
330
17
100
AcDbEntity
  8
XZ_SIDE
100
AcDbPolyline
 90
2
 70
0
 10
13.0
 20
-244.0
 10
13.0
 20
-238.0
  0
LWPOLYLINE
  5
B4
330
17
100
AcDbEntity
  8
XZ_SIDE
100
AcDbPolyline
 90
2
 70
0
 10
66.0
 20
-239.0
 10
85.12012884767897
 20
-239.0
  0
LWPOLYLINE
  5
B5
330
17
100
AcDbEntity
  8
XZ_SIDE
100
AcDbPolyline
 90
2
 70
0
 10
85.12012884767897
 20
-239.0
 10
85.12012884767897
 20
-234.0
  0
LWPOLYLINE
  5
B6
330
17
100
AcDbEntity
  8
XZ_SIDE
100
AcDbPolyline
 90
2
 70
0
 10
85.12012884767897
 20
-234.0
 10
79.65670370774
 20
-234.0
  0
LWPOLYLINE
  5
B7
330
17
100
AcDbEntity
  8
XZ_SIDE
100
AcDbPolyline
 90
2
 70
0
 10
79.65670370774
 20
-234.0
 10
79.65670370774
 20
-229.0
  0
LWPOLYLINE
  5
B8
330
17
100
AcDbEntity
  8
XZ_SIDE
100
AcDbPolyline
 90
2
 70
0
 10
60.5
 20
-229.0
 10
79.65670370774
 20
-229.0
  0
LWPOLYLINE
  5
B9
330
17
100
AcDbEntity
  8
XZ_SIDE
100
AcDbPolyline
 90
2
 70
0
 10
60.5
 20
-229.5
 10
60.5
 20
-229.0
  0
LWPOLYLINE
  5
BA
330
17
100
AcDbEntity
  8
XZ_SIDE
100
AcDbPolyline
 90
2
 70
0
 10
66.0
 20
-239.0
 10
85.12012884767897
 20
-239.0
  0
LWPOLYLINE
  5
BB
330
17
100
AcDbEntity
  8
XZ_SIDE
100
AcDbPolyline
 90
12
 70
0
 10
85.12012884767897
 20
-239.0
 10
84.8824086129699
 20
-239.0
 10
84.69199152082362
 20
-239.0
 10
84.54903807932035
 20
-239.0
 10
84.45366878805486
 20
-239.0
 10
84.405964036564
 20
-239.0
 10
84.405964036564
 20
-239.0
 10
84.45366878805487
 20
-239.0
 10
84.54903807932035
 20
-239.0
 10
84.69199152082363
 20
-239.0
 10
84.8824086129699
 20
-239.0
 10
85.12012884767898
 20
-239.0
  0
LWPOLYLINE
  5
BC
330
17
100
AcDbEntity
  8
XZ_SIDE
100
AcDbPolyline
 90
2
 70
0
 10
85.12012884767897
 20
-239.0
 10
85.12012884767897
 20
-234.0
  0
LWPOLYLINE
  5
BD
330
17
100
AcDbEntity
  8
XZ_SIDE
100
AcDbPolyline
 90
2
 70
0
 10
85.12012884767897
 20
-234.0
 10
79.65670370774
 20
-234.0
  0
LWPOLYLINE
  5
BE
330
17
100
AcDbEntity
  8
XZ_SIDE
100
AcDbPolyline
 90
2
 70
0
 10
79.65670370774
 20
-234.0
 10
79.65670370774
 20
-229.0
  0
LWPOLYLINE
  5
BF
330
17
100
AcDbEntity
  8
XZ_SIDE
100
AcDbPolyline
 90
2
 70
0
 10
60.5
 20
-229.0
 10
79.65670370774
 20
-229.0
  0
LWPOLYLINE
  5
C0
330
17
100
AcDbEntity
  8
XZ_SIDE
100
AcDbPolyline
 90
2
 70
0
 10
60.5
 20
-229.5
 10
60.5
 20
-229.0
  0
LWPOLYLINE
  5
C1
330
17
100
AcDbEntity
  8
XZ_SIDE
100
AcDbPolyline
 90
12
 70
0
 10
79.65670370774
 20
-229.0
 10
79.43986872718278
 20
-229.0
 10
79.26621792990917
 20
-229.0
 10
79.13587313125166
 20
-229.0
 10
79.04892576755967
 20
-229.0
 10
79.00543683205743
 20
-229.0
 10
79.00543683205743
 20
-229.0
 10
79.04892576755967
 20
-229.0
 10
79.13587313125166
 20
-229.0
 10
79.26621792990917
 20
-229.0
 10
79.43986872718277
 20
-229.0
 10
79.65670370774
 20
-229.0
  0
LWPOLYLINE
  5
C2
330
17
100
AcDbEntity
  8
XZ_SIDE
100
AcDbPolyline
 90
2
 70
0
 10
85.12012884767897
 20
-234.0
 10
85.12012884767897
 20
-229.0
  0
LWPOLYLINE
  5
C3
330
17
100
AcDbEntity
  8
XZ_SIDE
100
AcDbPolyline
 90
12
 70
0
 10
85.12012884767897
 20
-229.0
 10
84.8824086129699
 20
-229.0
 10
84.69199152082362
 20
-229.0
 10
84.54903807932035
 20
-229.0
 10
84.45366878805486
 20
-229.0
 10
84.405964036564
 20
-229.0
 10
84.405964036564
 20
-229.0
 10
84.45366878805487
 20
-229.0
 10
84.54903807932035
 20
-229.0
 10
84.69199152082363
 20
-229.0
 10
84.8824086129699
 20
-229.0
 10
85.12012884767898
 20
-229.0
  0
LWPOLYLINE
  5
C4
330
17
100
AcDbEntity
  8
XZ_SIDE
100
AcDbPolyline
 90
2
 70
0
 10
85.12012884767897
 20
-234.0
 10
85.12012884767897
 20
-229.0
  0
LWPOLYLINE
  5
C5
330
17
100
AcDbEntity
  8
XZ_SIDE
100
AcDbPolyline
 90
48
 70
0
 10
79.65670370774
 20
-234.0
 10
80.35458303053927
 20
-234.0
 10
81.29879085932353
 20
-234.0
 10
82.48549202706073
 20
-234.0
 10
83.90986641146786
 20
-234.0
 10
85.56612851330013
 20
-234.0
 10
87.44755095579193
 20
-234.0
 10
89.54649180979928
 20
-234.0
 10
91.85442563365562
 20
-234.0
 10
94.36197810166328
 20
-234.0
 10
97.0589640805675
 20
-234.0
 10
99.93442899935465
 20
-234.0
 10
102.97669334433915
 20
-234.0
 10
106.17340009881056
 20
-234.0
 10
109.51156493454991
 20
-234.0
 10
112.97762895134991
 20
-234.0
 10
116.55751375032126
 20
-234.0
 10
120.23667861728977
 20
-234.0
 10
124.00017958401766
 20
-234.0
 10
127.8327301273556
 20
-234.0
 10
131.71876325977794
 20
-234.0
 10
135.6424947591035
 20
-234.0
 10
139.58798728057624
 20
-234.0
 10
143.53921509089662
 20
-234.0
 10
147.4801291612681
 20
-234.0
 10
151.39472235506477
 20
-234.0
 10
155.26709444534188
 20
-234.0
 10
159.08151669810303
 20
-234.0
 10
162.82249575899974
 20
-234.0
 10
166.47483658397033
 20
-234.0
 10
170.02370415820707
 20
-234.0
 10
173.4546837527628
 20
-234.0
 10
176.75383947404782
 20
-234.0
 10
179.90777086840137
 20
-234.0
 10
182.90366735182266
 20
-234.0
 10
185.72936024377944
 20
-234.0
 10
188.3733721937441
 20
-234.0
 10
190.82496379969777
 20
-234.0
 10
193.0741772292475
 20
-234.0
 10
195.1118766661779
 20
-234.0
 10
196.92978541815125
 20
-234.0
 10
198.5205195348335
 20
-234.0
 10
199.877617799896
 20
-234.0
 10
200.99556797507225
 20
-234.0
 10
201.86982918967195
 20
-234.0
 10
202.4968503846111
 20
-234.0
 10
202.8740847360423
 20
-234.0
 10
203.0
 20
-234.0
  0
LWPOLYLINE
  5
C6
330
17
100
AcDbEntity
  8
XZ_SIDE
100
AcDbPolyline
 90
44
 70
0
 10
85.12012884767897
 20
-234.0
 10
85.87805621320324
 20
-234.0
 10
86.90095616611241
 20
-234.0
 10
88.18391160028612
 20
-234.0
 10
89.72075531628371
 20
-234.0
 10
91.50409966722881
 20
-234.0
 10
93.52537207141613
 20
-234.0
 10
95.7748562209299
 20
-234.0
 10
98.24173878818351
 20
-234.0
 10
100.91416140586051
 20
-234.0
 10
103.7792776703883
 20
-234.0
 10
106.8233148949272
 20
-234.0
 10
110.03164031502678
 20
-234.0
 10
113.38883142869713
 20
-234.0
 10
116.87875013276884
 20
-234.0
 10
120.4846202991656
 20
-234.0
 10
124.18910841817913
 20
-234.0
 10
127.97440692109193
 20
-234.0
 10
131.8223197816132
 20
-234.0
 10
135.7143499846408
 20
-234.0
 10
139.63178844188377
 20
-234.0
 10
143.55580392692613
 20
-234.0
 10
147.46753359741192
 20
-234.0
 10
151.3481736692084
 20
-234.0
 10
155.17906980667544
 20
-234.0
 10
158.94180679453203
 20
-234.0
 10
162.61829706026478
 20
-234.0
 10
166.19086762154964
 20
-234.0
 10
169.64234504072826
 20
-234.0
 10
172.95613797795951
 20
-234.0
 10
176.11631694621323
 20
-234.0
 10
179.10769088471955
 20
-234.0
 10
181.9158801827849
 20
-234.0
 10
184.52738580294707
 20
-234.0
 10
186.9296541711916
 20
-234.0
 10
189.111137522302
 20
-234.0
 10
191.06134941026116
 20
-234.0
 10
192.77091511686424
 20
-234.0
 10
194.23161671622796
 20
-234.0
 10
195.43643257856954
 20
-234.0
 10
196.3795711233597
 20
-234.0
 10
197.05649865959805
 20
-234.0
 10
197.46396117938082
 20
-234.0
 10
197.6
 20
-234.0
  0
LWPOLYLINE
  5
C7
330
17
100
AcDbEntity
  8
XZ_SIDE
100
AcDbPolyline
 90
44
 70
0
 10
197.6
 20
-234.0
 10
197.46396117938082
 20
-234.0
 10
197.05649865959805
 20
-234.0
 10
196.3795711233597
 20
-234.0
 10
195.43643257856954
 20
-234.0
 10
194.231616716228
 20
-234.0
 10
192.77091511686424
 20
-234.0
 10
191.06134941026116
 20
-234.0
 10
189.11113752230202
 20
-234.0
 10
186.9296541711916
 20
-234.0
 10
184.52738580294707
 20
-234.0
 10
181.91588018278492
 20
-234.0
 10
179.10769088471952
 20
-234.0
 10
176.11631694621323
 20
-234.0
 10
172.95613797795951
 20
-234.0
 10
169.64234504072823
 20
-234.0
 10
166.19086762154967
 20
-234.0
 10
162.61829706026478
 20
-234.0
 10
158.94180679453206
 20
-234.0
 10
155.17906980667547
 20
-234.0
 10
151.34817366920836
 20
-234.0
 10
147.46753359741192
 20
-234.0
 10
143.55580392692616
 20
-234.0
 10
139.63178844188377
 20
-234.0
 10
135.7143499846408
 20
-234.0
 10
131.8223197816132
 20
-234.0
 10
127.97440692109195
 20
-234.0
 10
124.18910841817917
 20
-234.0
 10
120.48462029916558
 20
-234.0
 10
116.87875013276886
 20
-234.0
 10
113.38883142869715
 20
-234.0
 10
110.03164031502676
 20
-234.0
 10
106.82331489492721
 20
-234.0
 10
103.7792776703883
 20
-234.0
 10
100.91416140586051
 20
-234.0
 10
98.24173878818351
 20
-234.0
 10
95.7748562209299
 20
-234.0
 10
93.52537207141614
 20
-234.0
 10
91.50409966722881
 20
-234.0
 10
89.72075531628371
 20
-234.0
 10
88.18391160028614
 20
-234.0
 10
86.90095616611241
 20
-234.0
 10
85.87805621320325
 20
-234.0
 10
85.12012884767897
 20
-234.0
  0
LWPOLYLINE
  5
C8
330
17
100
AcDbEntity
  8
XZ_SIDE
100
AcDbPolyline
 90
48
 70
0
 10
203.0
 20
-234.0
 10
202.8740847360423
 20
-234.0
 10
202.49685038461107
 20
-234.0
 10
201.86982918967195
 20
-234.0
 10
200.99556797507225
 20
-234.0
 10
199.877617799896
 20
-234.0
 10
198.5205195348335
 20
-234.0
 10
196.92978541815125
 20
-234.0
 10
195.1118766661779
 20
-234.0
 10
193.07417722924754
 20
-234.0
 10
190.82496379969777
 20
-234.0
 10
188.3733721937441
 20
-234.0
 10
185.7293602437794
 20
-234.0
 10
182.90366735182266
 20
-234.0
 10
179.9077708684014
 20
-234.0
 10
176.75383947404785
 20
-234.0
 10
173.45468375276283
 20
-234.0
 10
170.0237041582071
 20
-234.0
 10
166.47483658397036
 20
-234.0
 10
162.82249575899976
 20
-234.0
 10
159.081516698103
 20
-234.0
 10
155.26709444534185
 20
-234.0
 10
151.39472235506474
 20
-234.0
 10
147.4801291612681
 20
-234.0
 10
143.53921509089665
 20
-234.0
 10
139.58798728057624
 20
-234.0
 10
135.64249475910353
 20
-234.0
 10
131.71876325977797
 20
-234.0
 10
127.83273012735563
 20
-234.0
 10
124.00017958401766
 20
-234.0
 10
120.23667861728975
 20
-234.0
 10
116.5575137503213
 20
-234.0
 10
112.97762895134996
 20
-234.0
 10
109.51156493454991
 20
-234.0
 10
106.17340009881057
 20
-234.0
 10
102.9766933443392
 20
-234.0
 10
99.93442899935465
 20
-234.0
 10
97.05896408056752
 20
-234.0
 10
94.36197810166331
 20
-234.0
 10
91.85442563365564
 20
-234.0
 10
89.54649180979928
 20
-234.0
 10
87.44755095579194
 20
-234.0
 10
85.56612851330014
 20
-234.0
 10
83.90986641146786
 20
-234.0
 10
82.48549202706073
 20
-234.0
 10
81.29879085932353
 20
-234.0
 10
80.35458303053927
 20
-234.0
 10
79.65670370774
 20
-234.0
  0
LWPOLYLINE
  5
C9
330
17
100
AcDbEntity
  8
XZ_SIDE
100
AcDbPolyline
 90
2
 70
0
 10
203.0
 20
-234.0
 10
203.0
 20
-224.0
  0
LWPOLYLINE
  5
CA
330
17
100
AcDbEntity
  8
XZ_SIDE
100
AcDbPolyline
 90
96
 70
0
 10
203.0
 20
-224.0
 10
202.86444488756402
 20
-224.0
 10
202.45837229827248
 20
-224.0
 10
201.78355788423818
 20
-224.0
 10
200.8429524371956
 20
-224.0
 10
199.64066898543936
 20
-224.0
 10
198.18196480859785
 20
-224.0
 10
196.47321844888734
 20
-224.0
 10
194.5219018193696
 20
-224.0
 10
192.33654753117725
 20
-224.0
 10
189.92671158257642
 20
-224.0
 10
187.30293157301753
 20
-224.0
 10
184.4766806248943
 20
-224.0
 10
181.46031721449845
 20
-224.0
 10
178.26703113154755
 20
-224.0
 10
174.91078580359047
 20
-224.0
 10
171.4062572374915
 20
-224.0
 10
167.76876984498656
 20
-224.0
 10
164.01422943292968
 20
-224.0
 10
160.15905365124675
 20
-224.0
 10
156.22010020272955
 20
-224.0
 10
152.21459312859082
 20
-224.0
 10
148.16004749211436
 20
-224.0
 10
144.07419278973978
 20
-224.0
 10
139.9748954244858
 20
-224.0
 10
135.8800805807154
 20
-224.0
 10
131.8076538418658
 20
-224.0
 10
127.77542289388771
 20
-224.0
 10
123.80101965676566
 20
-224.0
 10
119.90182318461814
 20
-224.0
 10
116.0948836715159
 20
-224.0
 10
112.39684789532136
 20
-224.0
 10
108.82388642556467
 20
-224.0
 10
105.3916229136575
 20
-224.0
 10
102.11506577464073
 20
-224.0
 10
99.00854255920406
 20
-224.0
 10
96.08563730295248
 20
-224.0
 10
93.35913112687476
 20
-224.0
 10
90.84094634875326
 20
-224.0
 10
88.54209434990202
 20
-224.0
 10
86.4726274251977
 20
-224.0
 10
84.64159482695192
 20
-224.0
 10
83.05700319483344
 20
-224.0
 10
81.72578154486982
 20
-224.0
 10
80.65375097062363
 20
-224.0
 10
79.84559918903122
 20
-224.0
 10
79.3048600422093
 20
-224.0
 10
79.03389804486258
 20
-224.0
 10
79.03389804486258
 20
-224.0
 10
79.3048600422093
 20
-224.0
 10
79.84559918903122
 20
-224.0
 10
80.65375097062363
 20
-224.0
 10
81.72578154486982
 20
-224.0
 10
83.05700319483341
 20
-224.0
 10
84.64159482695192
 20
-224.0
 10
86.47262742519769
 20
-224.0
 10
88.54209434990199
 20
-224.0
 10
90.84094634875323
 20
-224.0
 10
93.35913112687474
 20
-224.0
 10
96.08563730295248
 20
-224.0
 10
99.00854255920403
 20
-224.0
 10
102.1150657746407
 20
-224.0
 10
105.39162291365749
 20
-224.0
 10
108.82388642556461
 20
-224.0
 10
112.39684789532137
 20
-224.0
 10
116.09488367151587
 20
-224.0
 10
119.90182318461811
 20
-224.0
 10
123.80101965676558
 20
-224.0
 10
127.77542289388765
 20
-224.0
 10
131.80765384186583
 20
-224.0
 10
135.88008058071537
 20
-224.0
 10
139.97489542448577
 20
-224.0
 10
144.07419278973978
 20
-224.0
 10
148.1600474921143
 20
-224.0
 10
152.21459312859076
 20
-224.0
 10
156.22010020272953
 20
-224.0
 10
160.15905365124672
 20
-224.0
 10
164.01422943292968
 20
-224.0
 10
167.76876984498654
 20
-224.0
 10
171.40625723749153
 20
-224.0
 10
174.9107858035904
 20
-224.0
 10
178.26703113154755
 20
-224.0
 10
181.46031721449845
 20
-224.0
 10
184.47668062489427
 20
-224.0
 10
187.30293157301753
 20
-224.0
 10
189.9267115825764
 20
-224.0
 10
192.33654753117725
 20
-224.0
 10
194.52190181936956
 20
-224.0
 10
196.4732184488873
 20
-224.0
 10
198.18196480859785
 20
-224.0
 10
199.64066898543933
 20
-224.0
 10
200.8429524371956
 20
-224.0
 10
201.78355788423818
 20
-224.0
 10
202.45837229827248
 20
-224.0
 10
202.86444488756402
 20
-224.0
 10
203.0
 20
-224.0
  0
LWPOLYLINE
  5
CB
330
17
100
AcDbEntity
  8
XZ_SIDE
100
AcDbPolyline
 90
2
 70
0
 10
197.6
 20
-234.0
 10
197.6
 20
-224.0
  0
LWPOLYLINE
  5
CC
330
17
100
AcDbEntity
  8
XZ_SIDE
100
AcDbPolyline
 90
90
 70
0
 10
197.6
 20
-224.0
 10
197.45901082353322
 20
-224.0
 10
197.0367456951181
 20
-224.0
 10
196.33530831838385
 20
-224.0
 10
195.3581932190579
 20
-224.0
 10
194.1102683354148
 20
-224.0
 10
192.59775076645226
 20
-224.0
 10
190.82817579861697
 20
-224.0
 10
188.81035936538632
 20
-224.0
 10
186.55435412673143
 20
-224.0
 10
184.0713993872708
 20
-224.0
 10
181.3738651026199
 20
-224.0
 10
178.4751902528949
 20
-224.0
 10
175.3898158903893
 20
-224.0
 10
172.13311319497802
 20
-224.0
 10
168.7213068956725
 20
-224.0
 10
165.1713944398369
 20
-224.0
 10
161.50106131276002
 20
-224.0
 10
157.7285929294577
 20
-224.0
 10
153.8727835376546
 20
-224.0
 10
149.9528425857876
 20
-224.0
 10
145.98829902249986
 20
-224.0
 10
141.99890400440108
 20
-224.0
 10
138.00453249679876
 20
-224.0
 10
134.02508425762082
 20
-224.0
 10
130.08038469782247
 20
-224.0
 10
126.19008611218626
 20
-224.0
 10
122.37356977257784
 20
-224.0
 10
118.64984937142454
 20
-224.0
 10
115.03747629645606
 20
-224.0
 10
111.55444720862407
 20
-224.0
 10
108.21811438364239
 20
-224.0
 10
105.04509926382252
 20
-224.0
 10
102.05120965088383
 20
-224.0
 10
99.25136095228078
 20
-224.0
 10
96.65950187339314
 20
-224.0
 10
94.28854492577747
 20
-224.0
 10
92.15030209768403
 20
-224.0
 10
90.2554260073255
 20
-224.0
 10
88.61335683206889
 20
-224.0
 10
87.23227527794673
 20
-224.0
 10
86.11906182379113
 20
-224.0
 10
85.27926244303438
 20
-224.0
 10
84.71706097394822
 20
-224.0
 10
84.43525827597203
 20
-224.0
 10
84.43525827597203
 20
-224.0
 10
84.71706097394822
 20
-224.0
 10
85.27926244303438
 20
-224.0
 10
86.11906182379113
 20
-224.0
 10
87.23227527794671
 20
-224.0
 10
88.61335683206889
 20
-224.0
 10
90.2554260073255
 20
-224.0
 10
92.15030209768403
 20
-224.0
 10
94.28854492577747
 20
-224.0
 10
96.65950187339315
 20
-224.0
 10
99.25136095228078
 20
-224.0
 10
102.0512096508838
 20
-224.0
 10
105.04509926382252
 20
-224.0
 10
108.21811438364243
 20
-224.0
 10
111.55444720862405
 20
-224.0
 10
115.03747629645608
 20
-224.0
 10
118.64984937142454
 20
-224.0
 10
122.37356977257785
 20
-224.0
 10
126.19008611218624
 20
-224.0
 10
130.08038469782247
 20
-224.0
 10
134.02508425762082
 20
-224.0
 10
138.0045324967988
 20
-224.0
 10
141.99890400440106
 20
-224.0
 10
145.9882990224999
 20
-224.0
 10
149.95284258578764
 20
-224.0
 10
153.87278353765467
 20
-224.0
 10
157.72859292945773
 20
-224.0
 10
161.50106131276004
 20
-224.0
 10
165.17139443983692
 20
-224.0
 10
168.7213068956725
 20
-224.0
 10
172.13311319497802
 20
-224.0
 10
175.3898158903893
 20
-224.0
 10
178.4751902528949
 20
-224.0
 10
181.3738651026199
 20
-224.0
 10
184.07139938727073
 20
-224.0
 10
186.55435412673143
 20
-224.0
 10
188.81035936538632
 20
-224.0
 10
190.82817579861697
 20
-224.0
 10
192.59775076645226
 20
-224.0
 10
194.1102683354148
 20
-224.0
 10
195.3581932190579
 20
-224.0
 10
196.33530831838385
 20
-224.0
 10
197.0367456951181
 20
-224.0
 10
197.45901082353322
 20
-224.0
 10
197.6
 20
-224.0
  0
DIMENSION
  5
CD
330
17
100
AcDbEntity
  8
DIMENSIONS
100
AcDbDimension
280
0
  2
*D3
  3
Standard
 10
0.0
 20
-274.0
 30
0.0
 11
101.5
 21
-274.0
 31
0.0
 70
32
 71
5
  1
<>
100
AcDbAlignedDimension
 13
0.0
 23
-249.0
 33
0.0
 14
203.0
 24
-249.0
 34
0.0
 50
0.0
100
AcDbRotatedDimension
1001
ACAD
1000
DSTYLE
1002
{
1070
140
1040
3.0
1070
41
1040
3.0
1070
271
1070
3
1002
}
  0
DIMENSION
  5
DD
330
17
100
AcDbEntity
  8
DIMENSIONS
100
AcDbDimension
280
0
  2
*D4
  3
Standard
 10
-25.0
 20
-249.0
 30
0.0
 11
-25.0
 21
-236.5
 31
0.0
 70
32
 71
5
  1
<>
100
AcDbAlignedDimension
 13
0.0
 23
-249.0
 33
0.0
 14
0.0
 24
-224.0
 34
0.0
 50
90.0
100
AcDbRotatedDimension
1001
ACAD
1000
DSTYLE
1002
{
1070
140
1040
3.0
1070
41
1040
3.0
1070
271
1070
3
1002
}
  0
LWPOLYLINE
  5
ED
330
17
100
AcDbEntity
  8
YZ_SIDE
100
AcDbPolyline
 90
2
 70
0
 10
353.0
 20
0.0
 10
353.0
 20
19.5
  0
LWPOLYLINE
  5
EE
330
17
100
AcDbEntity
  8
YZ_SIDE
100
AcDbPolyline
 90
2
 70
0
 10
353.0
 20
0.0
 10
377.0
 20
0.0
  0
LWPOLYLINE
  5
EF
330
17
100
AcDbEntity
  8
YZ_SIDE
100
AcDbPolyline
 90
2
 70
0
 10
377.0
 20
0.0
 10
377.0
 20
19.5
  0
LWPOLYLINE
  5
F0
330
17
100
AcDbEntity
  8
YZ_SIDE
100
AcDbPolyline
 90
2
 70
0
 10
353.0
 20
19.5
 10
377.0
 20
19.5
  0
LWPOLYLINE
  5
F1
330
17
100
AcDbEntity
  8
YZ_SIDE
100
AcDbPolyline
 90
2
 70
0
 10
371.0
 20
5.0
 10
371.0
 20
11.0
  0
LWPOLYLINE
  5
F2
330
17
100
AcDbEntity
  8
YZ_SIDE
100
AcDbPolyline
 90
2
 70
0
 10
359.0
 20
5.0
 10
371.0
 20
5.0
  0
LWPOLYLINE
  5
F3
330
17
100
AcDbEntity
  8
YZ_SIDE
100
AcDbPolyline
 90
2
 70
0
 10
359.0
 20
5.0
 10
359.0
 20
11.0
  0
LWPOLYLINE
  5
F4
330
17
100
AcDbEntity
  8
YZ_SIDE
100
AcDbPolyline
 90
2
 70
0
 10
371.0
 20
11.0
 10
359.0
 20
11.0
  0
LWPOLYLINE
  5
F5
330
17
100
AcDbEntity
  8
YZ_SIDE
100
AcDbPolyline
 90
2
 70
0
 10
353.0
 20
0.0
 10
353.0
 20
19.5
  0
LWPOLYLINE
  5
F6
330
17
100
AcDbEntity
  8
YZ_SIDE
100
AcDbPolyline
 90
12
 70
0
 10
353.0
 20
19.499999999999787
 10
353.0
 20
16.087675377734996
 10
353.0
 20
12.976466122667958
 10
353.0
 20
10.405829081486985
 10
353.0
 20
8.573615504106812
 10
353.0
 20
7.620843255199958
 10
353.0
 20
7.620843255199958
 10
353.0
 20
8.573615504106797
 10
353.0
 20
10.40582908148697
 10
353.0
 20
12.976466122667958
 10
353.0
 20
16.087675377734982
 10
353.0
 20
19.49999999999976
  0
LWPOLYLINE
  5
F7
330
17
100
AcDbEntity
  8
YZ_SIDE
100
AcDbPolyline
 90
2
 70
0
 10
353.0
 20
0.0
 10
377.0
 20
0.0
  0
LWPOLYLINE
  5
F8
330
17
100
AcDbEntity
  8
YZ_SIDE
100
AcDbPolyline
 90
12
 70
0
 10
365.0
 20
0.0
 10
367.1625632698224
 20
0.0
 10
368.63852798141806
 20
0.0
 10
368.95928576752374
 20
0.0
 10
368.022998297417
 20
0.0
 10
366.12693022736573
 20
0.0
 10
363.87306977263427
 20
0.0
 10
361.977001702583
 20
0.0
 10
361.04071423247626
 20
0.0
 10
361.36147201858194
 20
0.0
 10
362.8374367301776
 20
0.0
 10
365.0
 20
0.0
  0
LWPOLYLINE
  5
F9
330
17
100
AcDbEntity
  8
YZ_SIDE
100
AcDbPolyline
 90
12
 70
0
 10
365.0
 20
0.0
 10
367.1625632698224
 20
0.0
 10
368.63852798141806
 20
0.0
 10
368.95928576752374
 20
0.0
 10
368.022998297417
 20
0.0
 10
366.12693022736573
 20
0.0
 10
363.87306977263427
 20
0.0
 10
361.977001702583
 20
0.0
 10
361.04071423247626
 20
0.0
 10
361.36147201858194
 20
0.0
 10
362.8374367301776
 20
0.0
 10
365.0
 20
0.0
  0
LWPOLYLINE
  5
FA
330
17
100
AcDbEntity
  8
YZ_SIDE
100
AcDbPolyline
 90
2
 70
0
 10
377.0
 20
0.0
 10
377.0
 20
19.5
  0
LWPOLYLINE
  5
FB
330
17
100
AcDbEntity
  8
YZ_SIDE
100
AcDbPolyline
 90
12
 70
0
 10
377.0
 20
19.499999999999787
 10
377.0
 20
16.087675377734996
 10
377.0
 20
12.976466122667958
 10
377.0
 20
10.405829081486985
 10
377.0
 20
8.573615504106812
 10
377.0
 20
7.620843255199958
 10
377.0
 20
7.620843255199958
 10
377.0
 20
8.573615504106797
 10
377.0
 20
10.40582908148697
 10
377.0
 20
12.976466122667958
 10
377.0
 20
16.087675377734982
 10
377.0
 20
19.49999999999976
  0
LWPOLYLINE
  5
FC
330
17
100
AcDbEntity
  8
YZ_SIDE
100
AcDbPolyline
 90
2
 70
0
 10
353.0
 20
19.5
 10
377.0
 20
19.5
  0
LWPOLYLINE
  5
FD
330
17
100
AcDbEntity
  8
YZ_SIDE
100
AcDbPolyline
 90
12
 70
0
 10
365.0
 20
19.5
 10
367.1625632698224
 20
19.5
 10
368.63852798141806
 20
19.5
 10
368.95928576752374
 20
19.5
 10
368.022998297417
 20
19.5
 10
366.12693022736573
 20
19.5
 10
363.87306977263427
 20
19.5
 10
361.977001702583
 20
19.5
 10
361.04071423247626
 20
19.5
 10
361.36147201858194
 20
19.5
 10
362.8374367301776
 20
19.5
 10
365.0
 20
19.5
  0
LWPOLYLINE
  5
FE
330
17
100
AcDbEntity
  8
YZ_SIDE
100
AcDbPolyline
 90
2
 70
0
 10
371.0
 20
5.0
 10
371.0
 20
11.0
  0
LWPOLYLINE
  5
FF
330
17
100
AcDbEntity
  8
YZ_SIDE
100
AcDbPolyline
 90
12
 70
0
 10
370.9999999999999
 20
5.0
 10
373.2805927444531
 20
5.0
 10
373.99417732519055
 20
5.0
 10
373.0057159619439
 20
5.0
 10
370.5022637452756
 20
5.0
 10
366.95757058440813
 20
5.0
 10
363.04242941559187
 20
5.0
 10
359.4977362547243
 20
5.0
 10
356.9942840380561
 20
5.0
 10
356.00582267480945
 20
5.0
 10
356.7194072555469
 20
5.0
 10
359.0000000000001
 20
5.0
  0
LWPOLYLINE
  5
100
330
17
100
AcDbEntity
  8
YZ_SIDE
100
AcDbPolyline
 90
12
 70
0
 10
365.0
 20
5.0
 10
367.1625632698224
 20
5.0
 10
368.63852798141806
 20
5.0
 10
368.95928576752374
 20
5.0
 10
368.022998297417
 20
5.0
 10
366.12693022736573
 20
5.0
 10
363.87306977263427
 20
5.0
 10
361.977001702583
 20
5.0
 10
361.04071423247626
 20
5.0
 10
361.36147201858194
 20
5.0
 10
362.8374367301776
 20
5.0
 10
365.0
 20
5.0
  0
LWPOLYLINE
  5
101
330
17
100
AcDbEntity
  8
YZ_SIDE
100
AcDbPolyline
 90
2
 70
0
 10
359.0
 20
5.0
 10
359.0
 20
11.0
  0
LWPOLYLINE
  5
102
330
17
100
AcDbEntity
  8
YZ_SIDE
100
AcDbPolyline
 90
12
 70
0
 10
370.9999999999999
 20
11.0
 10
373.2805927444531
 20
11.0
 10
373.99417732519055
 20
11.0
 10
373.0057159619439
 20
11.0
 10
370.5022637452756
 20
11.0
 10
366.95757058440813
 20
11.0
 10
363.04242941559187
 20
11.0
 10
359.4977362547243
 20
11.0
 10
356.9942840380561
 20
11.0
 10
356.00582267480945
 20
11.0
 10
356.7194072555469
 20
11.0
 10
359.0000000000001
 20
11.0
  0
LWPOLYLINE
  5
103
330
17
100
AcDbEntity
  8
YZ_SIDE
100
AcDbPolyline
 90
12
 70
0
 10
365.0
 20
11.0
 10
367.1625632698224
 20
11.0
 10
368.63852798141806
 20
11.0
 10
368.95928576752374
 20
11.0
 10
368.022998297417
 20
11.0
 10
366.12693022736573
 20
11.0
 10
363.87306977263427
 20
11.0
 10
361.977001702583
 20
11.0
 10
361.04071423247626
 20
11.0
 10
361.36147201858194
 20
11.0
 10
362.8374367301776
 20
11.0
 10
365.0
 20
11.0
  0
LWPOLYLINE
  5
104
330
17
100
AcDbEntity
  8
YZ_SIDE
100
AcDbPolyline
 90
2
 70
0
 10
353.0
 20
19.5
 10
356.0
 20
19.5
  0
LWPOLYLINE
  5
105
330
17
100
AcDbEntity
  8
YZ_SIDE
100
AcDbPolyline
 90
2
 70
0
 10
356.0
 20
10.0
 10
356.0
 20
19.5
  0
LWPOLYLINE
  5
106
330
17
100
AcDbEntity
  8
YZ_SIDE
100
AcDbPolyline
 90
2
 70
0
 10
374.0
 20
10.0
 10
356.0
 20
10.0
  0
LWPOLYLINE
  5
107
330
17
100
AcDbEntity
  8
YZ_SIDE
100
AcDbPolyline
 90
2
 70
0
 10
374.0
 20
10.0
 10
374.0
 20
19.5
  0
LWPOLYLINE
  5
108
330
17
100
AcDbEntity
  8
YZ_SIDE
100
AcDbPolyline
 90
2
 70
0
 10
374.0
 20
19.5
 10
377.0
 20
19.5
  0
LWPOLYLINE
  5
109
330
17
100
AcDbEntity
  8
YZ_SIDE
100
AcDbPolyline
 90
2
 70
0
 10
368.9686269665969
 20
19.5
 10
374.0
 20
19.5
  0
LWPOLYLINE
  5
10A
330
17
100
AcDbEntity
  8
YZ_SIDE
100
AcDbPolyline
 90
12
 70
0
 10
368.9686269665969
 20
19.5
 10
368.70245800864836
 20
19.5
 10
368.1820274113551
 20
19.5
 10
367.4430750903417
 20
19.5
 10
366.5363476653132
 20
19.5
 10
365.52411349987767
 20
19.5
 10
364.47588650012233
 20
19.5
 10
363.4636523346868
 20
19.5
 10
362.5569249096583
 20
19.5
 10
361.8179725886449
 20
19.5
 10
361.29754199135164
 20
19.5
 10
361.0313730334031
 20
19.5
  0
LWPOLYLINE
  5
10B
330
17
100
AcDbEntity
  8
YZ_SIDE
100
AcDbPolyline
 90
2
 70
0
 10
356.0
 20
19.5
 10
361.0313730334031
 20
19.5
  0
LWPOLYLINE
  5
10C
330
17
100
AcDbEntity
  8
YZ_SIDE
100
AcDbPolyline
 90
2
 70
0
 10
353.0
 20
19.5
 10
377.0
 20
19.5
  0
LWPOLYLINE
  5
10D
330
17
100
AcDbEntity
  8
YZ_SIDE
100
AcDbPolyline
 90
2
 70
0
 10
365.0
 20
0.0
 10
365.0
 20
19.5
  0
LWPOLYLINE
  5
10E
330
17
100
AcDbEntity
  8
YZ_SIDE
100
AcDbPolyline
 90
12
 70
0
 10
365.0
 20
20.0
 10
365.6143313112913
 20
20.0
 10
366.2140854959892
 20
20.0
 10
366.78503132004346
 20
20.0
 10
367.31362112699856
 20
20.0
 10
367.7873123028116
 20
20.0
 10
368.1948648925769
 20
20.0
 10
368.52660830717537
 20
20.0
 10
368.7746707913143
 20
20.0
 10
368.933166208038
 20
20.0
 10
368.9983337076037
 20
20.0
 10
368.9686269665969
 20
20.0
  0
LWPOLYLINE
  5
10F
330
17
100
AcDbEntity
  8
YZ_SIDE
100
AcDbPolyline
 90
2
 70
0
 10
368.9686269665969
 20
19.5
 10
368.9686269665969
 20
20.0
  0
LWPOLYLINE
  5
110
330
17
100
AcDbEntity
  8
YZ_SIDE
100
AcDbPolyline
 90
2
 70
0
 10
361.0313730334031
 20
19.5
 10
361.0313730334031
 20
20.0
  0
LWPOLYLINE
  5
111
330
17
100
AcDbEntity
  8
YZ_SIDE
100
AcDbPolyline
 90
12
 70
0
 10
361.0313730334031
 20
20.0
 10
361.0016662923963
 20
20.0
 10
361.066833791962
 20
20.0
 10
361.2253292086857
 20
20.0
 10
361.47339169282463
 20
20.0
 10
361.8051351074231
 20
20.0
 10
362.2126876971884
 20
20.0
 10
362.68637887300144
 20
20.0
 10
363.21496867995654
 20
20.0
 10
363.7859145040108
 20
20.0
 10
364.3856686887087
 20
20.0
 10
365.0
 20
20.0
  0
LWPOLYLINE
  5
112
330
17
100
AcDbEntity
  8
YZ_SIDE
100
AcDbPolyline
 90
2
 70
0
 10
365.0
 20
0.0
 10
365.0
 20
20.0
  0
LWPOLYLINE
  5
113
330
17
100
AcDbEntity
  8
YZ_SIDE
100
AcDbPolyline
 90
2
 70
0
 10
365.0
 20
5.0
 10
365.0
 20
11.0
  0
LWPOLYLINE
  5
114
330
17
100
AcDbEntity
  8
YZ_SIDE
100
AcDbPolyline
 90
2
 70
0
 10
356.0
 20
10.0
 10
356.0
 20
15.0
  0
LWPOLYLINE
  5
115
330
17
100
AcDbEntity
  8
YZ_SIDE
100
AcDbPolyline
 90
2
 70
0
 10
356.0
 20
15.0
 10
356.0
 20
20.0
  0
LWPOLYLINE
  5
116
330
17
100
AcDbEntity
  8
YZ_SIDE
100
AcDbPolyline
 90
2
 70
0
 10
356.0
 20
19.5
 10
356.0
 20
20.0
  0
LWPOLYLINE
  5
117
330
17
100
AcDbEntity
  8
YZ_SIDE
100
AcDbPolyline
 90
12
 70
0
 10
374.0
 20
10.0
 10
372.3740041306148
 20
10.0
 10
370.741792499647
 20
10.0
 10
369.1047409455381
 20
10.0
 10
367.4642293864409
 20
10.0
 10
365.8216406570466
 20
10.0
 10
364.1783593429534
 20
10.0
 10
362.53577061355907
 20
10.0
 10
360.89525905446186
 20
10.0
 10
359.25820750035297
 20
10.0
 10
357.6259958693852
 20
10.0
 10
355.99999999999994
 20
10.0
  0
LWPOLYLINE
  5
118
330
17
100
AcDbEntity
  8
YZ_SIDE
100
AcDbPolyline
 90
2
 70
0
 10
374.0
 20
10.0
 10
374.0
 20
15.0
  0
LWPOLYLINE
  5
119
330
17
100
AcDbEntity
  8
YZ_SIDE
100
AcDbPolyline
 90
2
 70
0
 10
374.0
 20
15.0
 10
374.0
 20
20.0
  0
LWPOLYLINE
  5
11A
330
17
100
AcDbEntity
  8
YZ_SIDE
100
AcDbPolyline
 90
2
 70
0
 10
374.0
 20
19.5
 10
374.0
 20
20.0
  0
LWPOLYLINE
  5
11B
330
17
100
AcDbEntity
  8
YZ_SIDE
100
AcDbPolyline
 90
2
 70
0
 10
368.9686269665969
 20
20.0
 10
374.0
 20
20.0
  0
LWPOLYLINE
  5
11C
330
17
100
AcDbEntity
  8
YZ_SIDE
100
AcDbPolyline
 90
2
 70
0
 10
356.0
 20
20.0
 10
361.0313730334031
 20
20.0
  0
LWPOLYLINE
  5
11D
330
17
100
AcDbEntity
  8
YZ_SIDE
100
AcDbPolyline
 90
12
 70
0
 10
374.0
 20
20.0
 10
372.37226136768834
 20
20.0
 10
370.7393511238233
 20
20.0
 10
369.1024147483414
 20
20.0
 10
367.46260054549396
 20
20.0
 10
365.8210588383169
 20
20.0
 10
364.17894116168316
 20
20.0
 10
362.53739945450604
 20
20.0
 10
360.8975852516586
 20
20.0
 10
359.2606488761767
 20
20.0
 10
357.62773863231166
 20
20.0
 10
356.0
 20
20.0
  0
LWPOLYLINE
  5
11E
330
17
100
AcDbEntity
  8
YZ_SIDE
100
AcDbPolyline
 90
2
 70
0
 10
374.0
 20
15.0
 10
374.0
 20
20.0
  0
LWPOLYLINE
  5
11F
330
17
100
AcDbEntity
  8
YZ_SIDE
100
AcDbPolyline
 90
12
 70
0
 10
374.0
 20
20.0
 10
372.3740041306148
 20
20.0
 10
370.741792499647
 20
20.0
 10
369.1047409455381
 20
20.0
 10
367.4642293864409
 20
20.0
 10
365.8216406570466
 20
20.0
 10
364.1783593429534
 20
20.0
 10
362.53577061355907
 20
20.0
 10
360.89525905446186
 20
20.0
 10
359.25820750035297
 20
20.0
 10
357.6259958693852
 20
20.0
 10
355.99999999999994
 20
20.0
  0
LWPOLYLINE
  5
120
330
17
100
AcDbEntity
  8
YZ_SIDE
100
AcDbPolyline
 90
2
 70
0
 10
356.0
 20
15.0
 10
356.0
 20
20.0
  0
LWPOLYLINE
  5
121
330
17
100
AcDbEntity
  8
YZ_SIDE
100
AcDbPolyline
 90
48
 70
0
 10
356.0
 20
15.0
 10
352.1107253656288
 20
15.0
 10
348.27380416409017
 20
15.0
 10
344.5048211355737
 20
15.0
 10
340.8190850701725
 20
15.0
 10
337.2315666269045
 20
15.0
 10
333.7568375261483
 20
15.0
 10
330.4090113624813
 20
15.0
 10
327.20168627832567
 20
15.0
 10
324.1478897312481
 20
15.0
 10
321.26002557925824
 20
15.0
 10
318.5498236990326
 20
15.0
 10
316.0282923417043
 20
15.0
 10
313.705673419739
 20
15.0
 10
311.5914009065119
 20
15.0
 10
309.69406251755805
 20
15.0
 10
308.0213648291374
 20
15.0
 10
306.5801019757969
 20
15.0
 10
305.3761280540726
 20
15.0
 10
304.41433334442087
 20
15.0
 10
303.6986244479624
 20
15.0
 10
303.231908418717
 20
15.0
 10
303.0160809557819
 20
15.0
 10
303.05201870341403
 20
15.0
 10
303.33957569029155
 20
15.0
 10
303.8775839224175
 20
15.0
 10
304.66385812725764
 20
15.0
 10
305.6952046298428
 20
15.0
 10
306.96743432478246
 20
15.0
 10
308.47537969150073
 20
15.0
 10
310.21291578358205
 20
15.0
 10
312.1729851069724
 20
15.0
 10
314.34762628598713
 20
15.0
 10
316.72800640068846
 20
15.0
 10
319.30445686428715
 20
15.0
 10
322.06651269484155
 20
15.0
 10
325.0029550217395
 20
15.0
 10
328.1018566543138
 20
15.0
 10
331.3506305274984
 20
15.0
 10
334.7360808277521
 20
15.0
 10
338.24445659158545
 20
15.0
 10
341.86150755898655
 20
15.0
 10
345.57254205488096
 20
15.0
 10
349.3624866635233
 20
15.0
 10
353.21594745343685
 20
15.0
 10
357.11727250421785
 20
15.0
 10
361.0506154812355
 20
15.0
 10
365.0
 20
15.0
  0
LWPOLYLINE
  5
122
330
17
100
AcDbEntity
  8
YZ_SIDE
100
AcDbPolyline
 90
44
 70
0
 10
356.0
 20
15.0
 10
352.14965707985897
 20
15.0
 10
348.36108608535073
 20
15.0
 10
344.6524987737165
 20
15.0
 10
341.04172241859703
 20
15.0
 10
337.54611411387486
 20
15.0
 10
334.18247733768135
 20
15.0
 10
330.96698117764987
 20
15.0
 10
327.9150826056998
 20
15.0
 10
325.0414521759787
 20
15.0
 10
322.3599035031352
 20
15.0
 10
319.88332685992134
 20
15.0
 10
317.6236272133237
 20
15.0
 10
315.5916669970834
 20
15.0
 10
313.7972138957009
 20
15.0
 10
312.24889389092783
 20
15.0
 10
310.9541497964528
 20
15.0
 10
309.91920548010677
 20
15.0
 10
309.14903594557177
 20
15.0
 10
308.64734341741166
 20
15.0
 10
308.4165395443842
 20
15.0
 10
308.45773380658403
 20
15.0
 10
308.7707281821439
 20
15.0
 10
309.3540180991304
 20
15.0
 10
310.2047996680601
 20
15.0
 10
311.3189831602671
 20
15.0
 10
312.69121266733333
 20
15.0
 10
314.3148918470764
 20
15.0
 10
316.18221563233465
 20
15.0
 10
318.2842077501236
 20
15.0
 10
320.61076387080874
 20
15.0
 10
323.15070017987557
 20
15.0
 10
325.8918071388105
 20
15.0
 10
328.82090817666364
 20
15.0
 10
331.92392303016055
 20
15.0
 10
335.18593542788665
 20
15.0
 10
338.59126479318354
 20
15.0
 10
342.12354162108045
 20
15.0
 10
345.7657861669212
 20
15.0
 10
349.5004900684295
 20
15.0
 10
353.30970050885173
 20
15.0
 10
357.17510651660467
 20
15.0
 10
361.0781269865821
 20
15.0
 10
365.0
 20
15.0
  0
LWPOLYLINE
  5
123
330
17
100
AcDbEntity
  8
YZ_SIDE
100
AcDbPolyline
 90
44
 70
0
 10
365.0
 20
15.0
 10
368.92187301341784
 20
15.0
 10
372.8248934833953
 20
15.0
 10
376.69029949114827
 20
15.0
 10
380.4995099315705
 20
15.0
 10
384.23421383307874
 20
15.0
 10
387.87645837891955
 20
15.0
 10
391.40873520681646
 20
15.0
 10
394.81406457211335
 20
15.0
 10
398.07607696983945
 20
15.0
 10
401.17909182333636
 20
15.0
 10
404.1081928611894
 20
15.0
 10
406.84929982012443
 20
15.0
 10
409.38923612919126
 20
15.0
 10
411.7157922498764
 20
15.0
 10
413.81778436766535
 20
15.0
 10
415.6851081529236
 20
15.0
 10
417.30878733266667
 20
15.0
 10
418.6810168397329
 20
15.0
 10
419.7952003319399
 20
15.0
 10
420.6459819008696
 20
15.0
 10
421.2292718178561
 20
15.0
 10
421.54226619341597
 20
15.0
 10
421.5834604556158
 20
15.0
 10
421.35265658258834
 20
15.0
 10
420.85096405442823
 20
15.0
 10
420.0807945198933
 20
15.0
 10
419.0458502035472
 20
15.0
 10
417.75110610907217
 20
15.0
 10
416.2027861042991
 20
15.0
 10
414.4083330029166
 20
15.0
 10
412.3763727866763
 20
15.0
 10
410.11667314007866
 20
15.0
 10
407.6400964968648
 20
15.0
 10
404.9585478240213
 20
15.0
 10
402.0849173943002
 20
15.0
 10
399.03301882235013
 20
15.0
 10
395.81752266231865
 20
15.0
 10
392.45388588612514
 20
15.0
 10
388.95827758140297
 20
15.0
 10
385.34750122628355
 20
15.0
 10
381.63891391464927
 20
15.0
 10
377.85034292014103
 20
15.0
 10
374.0
 20
15.0
  0
LWPOLYLINE
  5
124
330
17
100
AcDbEntity
  8
YZ_SIDE
100
AcDbPolyline
 90
48
 70
0
 10
365.0
 20
15.0
 10
368.9493845187645
 20
15.0
 10
372.8827274957822
 20
15.0
 10
376.78405254656315
 20
15.0
 10
380.6375133364767
 20
15.0
 10
384.42745794511904
 20
15.0
 10
388.13849244101345
 20
15.0
 10
391.7555434084146
 20
15.0
 10
395.2639191722479
 20
15.0
 10
398.6493694725016
 20
15.0
 10
401.8981433456862
 20
15.0
 10
404.9970449782605
 20
15.0
 10
407.93348730515845
 20
15.0
 10
410.6955431357128
 20
15.0
 10
413.27199359931154
 20
15.0
 10
415.6523737140128
 20
15.0
 10
417.8270148930275
 20
15.0
 10
419.78708421641795
 20
15.0
 10
421.52462030849927
 20
15.0
 10
423.03256567521754
 20
15.0
 10
424.3047953701572
 20
15.0
 10
425.33614187274236
 20
15.0
 10
426.1224160775825
 20
15.0
 10
426.66042430970845
 20
15.0
 10
426.94798129658597
 20
15.0
 10
426.9839190442181
 20
15.0
 10
426.768091581283
 20
15.0
 10
426.3013755520376
 20
15.0
 10
425.58566665557913
 20
15.0
 10
424.6238719459274
 20
15.0
 10
423.4198980242031
 20
15.0
 10
421.9786351708627
 20
15.0
 10
420.305937482442
 20
15.0
 10
418.4085990934881
 20
15.0
 10
416.29432658026104
 20
15.0
 10
413.9717076582957
 20
15.0
 10
411.4501763009674
 20
15.0
 10
408.73997442074176
 20
15.0
 10
405.85211026875197
 20
15.0
 10
402.7983137216744
 20
15.0
 10
399.5909886375187
 20
15.0
 10
396.2431624738517
 20
15.0
 10
392.7684333730955
 20
15.0
 10
389.1809149298275
 20
15.0
 10
385.4951788644263
 20
15.0
 10
381.72619583590983
 20
15.0
 10
377.8892746343712
 20
15.0
 10
374.0
 20
15.0
  0
LWPOLYLINE
  5
125
330
17
100
AcDbEntity
  8
YZ_SIDE
100
AcDbPolyline
 90
2
 70
0
 10
365.0
 20
15.0
 10
365.0
 20
25.0
  0
LWPOLYLINE
  5
126
330
17
100
AcDbEntity
  8
YZ_SIDE
100
AcDbPolyline
 90
96
 70
0
 10
365.0
 20
25.0
 10
369.0976162281934
 20
25.0
 10
373.1773146232083
 20
25.0
 10
377.22125570199177
 20
25.0
 10
381.21175633913685
 20
25.0
 10
385.1313670906904
 20
25.0
 10
388.96294849613207
 20
25.0
 10
392.689746024874
 20
25.0
 10
396.29546333956034
 20
25.0
 10
399.7643335558037
 20
25.0
 10
403.0811881867594
 20
25.0
 10
406.2315234710586
 20
25.0
 10
409.2015637940666
 20
25.0
 10
411.97832192514073
 20
25.0
 10
414.54965580748535
 20
25.0
 10
416.90432165227674
 20
25.0
 10
419.0320231048912
 20
25.0
 10
420.92345626824346
 20
25.0
 10
422.57035038636184
 20
25.0
 10
423.9655040102995
 20
25.0
 10
425.1028164882385
 20
25.0
 10
425.9773146420877
 20
25.0
 10
426.58517451392555
 20
25.0
 10
426.9237380871949
 20
25.0
 10
426.99152490953304
 20
25.0
 10
426.7882385664135
 20
25.0
 10
426.314767977291
 20
25.0
 10
425.57318350858316
 20
25.0
 10
424.5667279204846
 20
25.0
 10
423.299802187202
 20
25.0
 10
421.77794625261356
 20
25.0
 10
420.0078148055039
 20
25.0
 10
417.9971481803034
 20
25.0
 10
415.75473851057495
 20
25.0
 10
413.290391283251
 20
25.0
 10
410.61488246173417
 20
25.0
 10
407.7399113653511
 20
25.0
 10
404.67804951120564
 20
25.0
 10
401.44268564213337
 20
25.0
 10
398.0479671811356
 20
25.0
 10
394.5087383682986
 20
25.0
 10
390.840475350708
 20
25.0
 10
387.05921850919606
 20
25.0
 10
383.1815023178368
 20
25.0
 10
379.2242830428986
 20
25.0
 10
375.2048645974055
 20
25.0
 10
371.14082287552867
 20
25.0
 10
367.0499288976731
 20
25.0
 10
362.95007110232694
 20
25.0
 10
358.85917712447133
 20
25.0
 10
354.79513540259455
 20
25.0
 10
350.7757169571014
 20
25.0
 10
346.8184976821632
 20
25.0
 10
342.940781490804
 20
25.0
 10
339.159524649292
 20
25.0
 10
335.49126163170143
 20
25.0
 10
331.95203281886444
 20
25.0
 10
328.5573143578667
 20
25.0
 10
325.32195048879436
 20
25.0
 10
322.2600886346489
 20
25.0
 10
319.38511753826583
 20
25.0
 10
316.709608716749
 20
25.0
 10
314.24526148942505
 20
25.0
 10
312.0028518196966
 20
25.0
 10
309.9921851944961
 20
25.0
 10
308.22205374738644
 20
25.0
 10
306.700197812798
 20
25.0
 10
305.4332720795154
 20
25.0
 10
304.42681649141684
 20
25.0
 10
303.68523202270893
 20
25.0
 10
303.21176143358645
 20
25.0
 10
303.0084750904669
 20
25.0
 10
303.0762619128051
 20
25.0
 10
303.41482548607445
 20
25.0
 10
304.0226853579123
 20
25.0
 10
304.8971835117615
 20
25.0
 10
306.0344959897005
 20
25.0
 10
307.42964961363816
 20
25.0
 10
309.07654373175654
 20
25.0
 10
310.9679768951088
 20
25.0
 10
313.0956783477232
 20
25.0
 10
315.45034419251465
 20
25.0
 10
318.02167807485927
 20
25.0
 10
320.79843620593334
 20
25.0
 10
323.7684765289414
 20
25.0
 10
326.9188118132406
 20
25.0
 10
330.2356664441963
 20
25.0
 10
333.70453666043966
 20
25.0
 10
337.310253975126
 20
25.0
 10
341.03705150386793
 20
25.0
 10
344.8686329093096
 20
25.0
 10
348.78824366086315
 20
25.0
 10
352.77874429800823
 20
25.0
 10
356.82268537679175
 20
25.0
 10
360.9023837718066
 20
25.0
 10
365.0
 20
25.0
  0
LWPOLYLINE
  5
127
330
17
100
AcDbEntity
  8
YZ_SIDE
100
AcDbPolyline
 90
2
 70
0
 10
365.0
 20
15.0
 10
365.0
 20
25.0
  0
LWPOLYLINE
  5
128
330
17
100
AcDbEntity
  8
YZ_SIDE
100
AcDbPolyline
 90
90
 70
0
 10
365.0
 20
25.0
 10
368.9925050817948
 20
25.0
 10
372.9651197041012
 20
25.0
 10
376.89805250069946
 20
25.0
 10
380.77170979822944
 20
25.0
 10
384.56679323088576
 20
25.0
 10
388.2643958839054
 20
25.0
 10
391.84609648686603
 20
25.0
 10
395.2940511875288
 20
25.0
 10
398.59108244901233
 20
25.0
 10
401.7207646274177
 20
25.0
 10
404.6675058035598
 20
25.0
 10
407.4166254611247
 20
25.0
 10
409.9544276242633
 20
25.0
 10
412.26826909025425
 20
25.0
 10
414.3466224173037
 20
25.0
 10
416.17913335368064
 20
25.0
 10
417.75667242207805
 20
25.0
 10
419.07138040220997
 20
25.0
 10
420.1167074850511
 20
25.0
 10
420.88744590365627
 20
25.0
 10
421.3797558779934
 20
25.0
 10
421.59118474453413
 20
25.0
 10
421.52067917530064
 20
25.0
 10
421.16859042549237
 20
25.0
 10
420.53667258355017
 20
25.0
 10
419.6280738323762
 20
25.0
 10
418.44732076524485
 20
25.0
 10
417.00029583454295
 20
25.0
 10
415.2942080456877
 20
25.0
 10
413.3375570422244
 20
25.0
 10
411.14009076102957
 20
25.0
 10
408.7127568685804
 20
25.0
 10
406.0676482202304
 20
25.0
 10
403.2179426142127
 20
25.0
 10
400.1778371405118
 20
25.0
 10
396.9624774516759
 20
25.0
 10
393.5878823079372
 20
25.0
 10
390.07086377255445
 20
25.0
 10
386.4289434549596
 20
25.0
 10
382.68026521898076
 20
25.0
 10
378.8435047910253
 20
25.0
 10
374.93777671855037
 20
25.0
 10
370.98253914234897
 20
25.0
 10
366.99749685707127
 20
25.0
 10
363.00250314292873
 20
25.0
 10
359.01746085765103
 20
25.0
 10
355.06222328144963
 20
25.0
 10
351.1564952089747
 20
25.0
 10
347.31973478101924
 20
25.0
 10
343.5710565450404
 20
25.0
 10
339.92913622744555
 20
25.0
 10
336.41211769206285
 20
25.0
 10
333.0375225483241
 20
25.0
 10
329.8221628594881
 20
25.0
 10
326.7820573857873
 20
25.0
 10
323.9323517797696
 20
25.0
 10
321.2872431314196
 20
25.0
 10
318.85990923897043
 20
25.0
 10
316.6624429577756
 20
25.0
 10
314.7057919543123
 20
25.0
 10
312.99970416545705
 20
25.0
 10
311.55267923475515
 20
25.0
 10
310.3719261676238
 20
25.0
 10
309.46332741644983
 20
25.0
 10
308.83140957450763
 20
25.0
 10
308.47932082469936
 20
25.0
 10
308.40881525546587
 20
25.0
 10
308.6202441220066
 20
25.0
 10
309.11255409634373
 20
25.0
 10
309.8832925149489
 20
25.0
 10
310.92861959779003
 20
25.0
 10
312.24332757792195
 20
25.0
 10
313.8208666463194
 20
25.0
 10
315.6533775826963
 20
25.0
 10
317.73173090974575
 20
25.0
 10
320.0455723757367
 20
25.0
 10
322.5833745388753
 20
25.0
 10
325.33249419644017
 20
25.0
 10
328.27923537258226
 20
25.0
 10
331.4089175509876
 20
25.0
 10
334.7059488124712
 20
25.0
 10
338.15390351313397
 20
25.0
 10
341.7356041160946
 20
25.0
 10
345.43320676911424
 20
25.0
 10
349.2282902017705
 20
25.0
 10
353.10194749930054
 20
25.0
 10
357.03488029589874
 20
25.0
 10
361.00749491820517
 20
25.0
 10
365.0
 20
25.0
  0
DIMENSION
  5
129
330
17
100
AcDbEntity
  8
DIMENSIONS
100
AcDbDimension
280
0
  2
*D5
  3
Standard
 10
303.0
 20
-25.0
 30
0.0
 11
365.0
 21
-25.0
 31
0.0
 70
32
 71
5
  1
<>
100
AcDbAlignedDimension
 13
303.0
 23
0.0
 33
0.0
 14
427.0
 24
0.0
 34
0.0
 50
0.0
100
AcDbRotatedDimension
1001
ACAD
1000
DSTYLE
1002
{
1070
140
1040
3.0
1070
41
1040
3.0
1070
271
1070
3
1002
}
  0
DIMENSION
  5
139
330
17
100
AcDbEntity
  8
DIMENSIONS
100
AcDbDimension
280
0
  2
*D6
  3
Standard
 10
278.0
 20
0.0
 30
0.0
 11
278.0
 21
12.5
 31
0.0
 70
32
 71
5
  1
<>
100
AcDbAlignedDimension
 13
303.0
 23
0.0
 33
0.0
 14
303.0
 24
25.0
 34
0.0
 50
90.0
100
AcDbRotatedDimension
1001
ACAD
1000
DSTYLE
1002
{
1070
140
1040
3.0
1070
41
1040
3.0
1070
271
1070
3
1002
}
  0
TEXT
  5
149
330
17
100
AcDbEntity
  8
NOTES
100
AcDbText
 10
0.0
 20
-319.0
 30
0.0
 40
3.0
  1
V3_LONGLINE_FIXED_JAW_SADDLE_LANYARD_LUG / Poseidon Trident by Intrface / HW-CAND-3.0 / mm
100
AcDbText
  0
TEXT
  5
14A
330
17
100
AcDbEntity
  8
NOTES
100
AcDbText
 10
0.0
 20
-326.0
 30
0.0
 40
3.0
  1
NON-ADOPTED DIGITAL CANDIDATE; NO BUILD OR PRESSURE RELEASE
100
AcDbText
  0
TEXT
  5
14B
330
17
100
AcDbEntity
  8
NOTES
100
AcDbText
 10
0.0
 20
-333.0
 30
0.0
 40
3.0
  1
Three orthographic wireframe projections; sampled curves. STEP is exact. Do not scale a render.
100
AcDbText
  0
TEXT
  5
14C
330
17
100
AcDbEntity
  8
NOTES
100
AcDbText
 10
0.0
 20
-340.0
 30
0.0
 40
3.0
  1
sources/design-inputs.json: allocations; all dimensions hash traced
100
AcDbText
  0
TEXT
  5
14D
330
17
100
AcDbEntity
  8
NOTES
100
AcDbText
 10
0.0
 20
-347.0
 30
0.0
 40
3.0
  1
Dimension origins use modeled bounds; vendor BRep details keep source authority and revision conflicts.
100
AcDbText
  0
TEXT
  5
14E
330
17
100
AcDbEntity
  8
NOTES
100
AcDbText
 10
0.0
 20
-354.0
 30
0.0
 40
3.0
  1
All physical gates unperformed. Dome material is POLYCARBONATE, not acrylic.
100
AcDbText
  0
ENDSEC
  0
SECTION
  2
OBJECTS
  0
DICTIONARY
  5
A
330
0
100
AcDbDictionary
281
1
  3
ACAD_COLOR
350
B
  3
ACAD_GROUP
350
C
  3
ACAD_LAYOUT
350
D
  3
ACAD_MATERIAL
350
E
  3
ACAD_MLEADERSTYLE
350
F
  3
ACAD_MLINESTYLE
350
10
  3
ACAD_PLOTSETTINGS
350
11
  3
ACAD_PLOTSTYLENAME
350
12
  3
ACAD_SCALELIST
350
14
  3
ACAD_TABLESTYLE
350
15
  3
ACAD_VISUALSTYLE
350
16
  3
EZDXF_META
350
2D
  0
DICTIONARY
  5
B
330
A
100
AcDbDictionary
281
1
  0
DICTIONARY
  5
C
330
A
100
AcDbDictionary
281
1
  0
DICTIONARY
  5
D
330
A
100
AcDbDictionary
281
1
  3
Model
350
1A
  3
Layout1
350
1E
  0
DICTIONARY
  5
E
330
A
100
AcDbDictionary
281
1
  3
ByBlock
350
1F
  3
ByLayer
350
20
  3
Global
350
21
  0
DICTIONARY
  5
F
330
A
100
AcDbDictionary
281
1
  3
Standard
350
2C
  0
DICTIONARY
  5
10
330
A
100
AcDbDictionary
281
1
  3
Standard
350
22
  0
DICTIONARY
  5
11
330
A
100
AcDbDictionary
281
1
  0
ACDBDICTIONARYWDFLT
  5
12
330
A
100
AcDbDictionary
281
1
  3
Normal
350
13
100
AcDbDictionaryWithDefault
340
13
  0
ACDBPLACEHOLDER
  5
13
330
12
  0
DICTIONARY
  5
14
330
A
100
AcDbDictionary
281
1
  0
DICTIONARY
  5
15
330
A
100
AcDbDictionary
281
1
  0
DICTIONARY
  5
16
330
A
100
AcDbDictionary
281
1
  0
LAYOUT
  5
1A
330
D
100
AcDbPlotSettings
  1

  4
A3
  6

 40
7.5
 41
20.0
 42
7.5
 43
20.0
 44
420.0
 45
297.0
 46
0.0
 47
0.0
 48
0.0
 49
0.0
140
0.0
141
0.0
142
1.0
143
1.0
 70
1024
 72
1
 73
0
 74
5
  7

 75
16
 76
0
 77
2
 78
300
147
1.0
148
0.0
149
0.0
100
AcDbLayout
  1
Model
 70
1
 71
0
 10
0.0
 20
0.0
 11
420.0
 21
297.0
 12
0.0
 22
0.0
 32
0.0
 14
1e+20
 24
1e+20
 34
1e+20
 15
-1e+20
 25
-1e+20
 35
-1e+20
146
0.0
 13
0.0
 23
0.0
 33
0.0
 16
1.0
 26
0.0
 36
0.0
 17
0.0
 27
1.0
 37
0.0
 76
1
330
17
  0
LAYOUT
  5
1E
330
D
100
AcDbPlotSettings
  1

  4
A3
  6

 40
7.5
 41
20.0
 42
7.5
 43
20.0
 44
420.0
 45
297.0
 46
0.0
 47
0.0
 48
0.0
 49
0.0
140
0.0
141
0.0
142
1.0
143
1.0
 70
0
 72
1
 73
0
 74
5
  7

 75
16
 76
0
 77
2
 78
300
147
1.0
148
0.0
149
0.0
100
AcDbLayout
  1
Layout1
 70
1
 71
1
 10
0.0
 20
0.0
 11
420.0
 21
297.0
 12
0.0
 22
0.0
 32
0.0
 14
1e+20
 24
1e+20
 34
1e+20
 15
-1e+20
 25
-1e+20
 35
-1e+20
146
0.0
 13
0.0
 23
0.0
 33
0.0
 16
1.0
 26
0.0
 36
0.0
 17
0.0
 27
1.0
 37
0.0
 76
1
330
1B
  0
MATERIAL
  5
1F
102
{ACAD_REACTORS
330
E
102
}
330
E
100
AcDbMaterial
  1
ByBlock
  2

 70
0
 40
1.0
 71
1
 41
1.0
 91
-1023410177
 42
1.0
 72
1
  3

 73
1
 74
1
 75
1
 44
0.5
 73
0
 45
1.0
 46
1.0
 77
1
  4

 78
1
 79
1
170
1
 48
1.0
171
1
  6

172
1
173
1
174
1
140
1.0
141
1.0
175
1
  7

176
1
177
1
178
1
143
1.0
179
1
  8

270
1
271
1
272
1
145
1.0
146
1.0
273
1
  9

274
1
275
1
276
1
 42
1.0
 72
1
  3

 73
1
 74
1
 75
1
 94
63
  0
MATERIAL
  5
20
102
{ACAD_REACTORS
330
E
102
}
330
E
100
AcDbMaterial
  1
ByLayer
  2

 70
0
 40
1.0
 71
1
 41
1.0
 91
-1023410177
 42
1.0
 72
1
  3

 73
1
 74
1
 75
1
 44
0.5
 73
0
 45
1.0
 46
1.0
 77
1
  4

 78
1
 79
1
170
1
 48
1.0
171
1
  6

172
1
173
1
174
1
140
1.0
141
1.0
175
1
  7

176
1
177
1
178
1
143
1.0
179
1
  8

270
1
271
1
272
1
145
1.0
146
1.0
273
1
  9

274
1
275
1
276
1
 42
1.0
 72
1
  3

 73
1
 74
1
 75
1
 94
63
  0
MATERIAL
  5
21
102
{ACAD_REACTORS
330
E
102
}
330
E
100
AcDbMaterial
  1
Global
  2

 70
0
 40
1.0
 71
1
 41
1.0
 91
-1023410177
 42
1.0
 72
1
  3

 73
1
 74
1
 75
1
 44
0.5
 73
0
 45
1.0
 46
1.0
 77
1
  4

 78
1
 79
1
170
1
 48
1.0
171
1
  6

172
1
173
1
174
1
140
1.0
141
1.0
175
1
  7

176
1
177
1
178
1
143
1.0
179
1
  8

270
1
271
1
272
1
145
1.0
146
1.0
273
1
  9

274
1
275
1
276
1
 42
1.0
 72
1
  3

 73
1
 74
1
 75
1
 94
63
  0
MLINESTYLE
  5
22
102
{ACAD_REACTORS
330
10
102
}
330
10
100
AcDbMlineStyle
  2
Standard
 70
0
  3

 62
256
 51
90.0
 52
90.0
 71
2
 49
0.5
 62
256
  6
BYLAYER
 49
-0.5
 62
256
  6
BYLAYER
  0
MLEADERSTYLE
  5
2C
102
{ACAD_REACTORS
330
F
102
}
330
F
100
AcDbMLeaderStyle
179
2
170
2
171
1
172
0
 90
2
 40
0.0
 41
0.0
173
1
 91
-1056964608
 92
-2
290
1
 42
2.0
291
1
 43
8.0
  3
Standard
 44
4.0
300

342
29
174
1
175
1
176
0
178
1
 93
-1056964608
 45
4.0
292
0
297
0
 46
4.0
 94
-1056964608
 47
1.0
 49
1.0
140
1.0
294
1
141
0.0
177
0
142
1.0
295
0
296
0
143
3.75
271
0
272
9
273
9
  0
DICTIONARY
  5
2D
330
A
100
AcDbDictionary
280
1
281
1
  3
CREATED_BY_EZDXF
350
2E
  3
WRITTEN_BY_EZDXF
350
151
  0
DICTIONARYVAR
  5
2E
330
2D
100
DictionaryVariables
280
0
  1
1.4.3 @ 2026-09-27T12:27:14.890538+00:00
  0
DICTIONARYVAR
  5
151
330
2D
100
DictionaryVariables
280
0
  1
1.4.3 @ 2026-09-27T12:27:14.910139+00:00
  0
ENDSEC
  0
EOF
