  0
SECTION
  2
HEADER
  9
$ACADVER
  1
AC1032
  9
$ACADMAINTVER
 90
4
  9
$DWGCODEPAGE
  3
ANSI_1252
  9
$LASTSAVEDBY
  1
ezdxf
  9
$REQUIREDVERSIONS
160
0
  9
$INSBASE
 10
0.0
 20
0.0
 30
0.0
  9
$EXTMIN
 10
1e+20
 20
1e+20
 30
1e+20
  9
$EXTMAX
 10
-1e+20
 20
-1e+20
 30
-1e+20
  9
$LIMMIN
 10
0.0
 20
0.0
  9
$LIMMAX
 10
420.0
 20
297.0
  9
$ORTHOMODE
 70
0
  9
$REGENMODE
 70
1
  9
$FILLMODE
 70
1
  9
$QTEXTMODE
 70
0
  9
$MIRRTEXT
 70
1
  9
$LTSCALE
 40
1.0
  9
$ATTMODE
 70
1
  9
$TEXTSIZE
 40
2.5
  9
$TRACEWID
 40
1.0
  9
$TEXTSTYLE
  7
Standard
  9
$CLAYER
  8
0
  9
$CELTYPE
  6
ByLayer
  9
$CECOLOR
 62
256
  9
$CELTSCALE
 40
1.0
  9
$DISPSILH
 70
0
  9
$DIMSCALE
 40
1.0
  9
$DIMASZ
 40
2.5
  9
$DIMEXO
 40
0.625
  9
$DIMDLI
 40
3.75
  9
$DIMRND
 40
0.0
  9
$DIMDLE
 40
0.0
  9
$DIMEXE
 40
1.25
  9
$DIMTP
 40
0.0
  9
$DIMTM
 40
0.0
  9
$DIMTXT
 40
2.5
  9
$DIMCEN
 40
2.5
  9
$DIMTSZ
 40
0.0
  9
$DIMTOL
 70
0
  9
$DIMLIM
 70
0
  9
$DIMTIH
 70
0
  9
$DIMTOH
 70
0
  9
$DIMSE1
 70
0
  9
$DIMSE2
 70
0
  9
$DIMTAD
 70
1
  9
$DIMZIN
 70
8
  9
$DIMBLK
  1

  9
$DIMASO
 70
1
  9
$DIMSHO
 70
1
  9
$DIMPOST
  1

  9
$DIMAPOST
  1

  9
$DIMALT
 70
0
  9
$DIMALTD
 70
3
  9
$DIMALTF
 40
0.03937007874
  9
$DIMLFAC
 40
1.0
  9
$DIMTOFL
 70
1
  9
$DIMTVP
 40
0.0
  9
$DIMTIX
 70
0
  9
$DIMSOXD
 70
0
  9
$DIMSAH
 70
0
  9
$DIMBLK1
  1

  9
$DIMBLK2
  1

  9
$DIMSTYLE
  2
ISO-25
  9
$DIMCLRD
 70
0
  9
$DIMCLRE
 70
0
  9
$DIMCLRT
 70
0
  9
$DIMTFAC
 40
1.0
  9
$DIMGAP
 40
0.625
  9
$DIMJUST
 70
0
  9
$DIMSD1
 70
0
  9
$DIMSD2
 70
0
  9
$DIMTOLJ
 70
0
  9
$DIMTZIN
 70
8
  9
$DIMALTZ
 70
0
  9
$DIMALTTZ
 70
0
  9
$DIMUPT
 70
0
  9
$DIMDEC
 70
2
  9
$DIMTDEC
 70
2
  9
$DIMALTU
 70
2
  9
$DIMALTTD
 70
3
  9
$DIMTXSTY
  7
Standard
  9
$DIMAUNIT
 70
0
  9
$DIMADEC
 70
0
  9
$DIMALTRND
 40
0.0
  9
$DIMAZIN
 70
0
  9
$DIMDSEP
 70
44
  9
$DIMATFIT
 70
3
  9
$DIMFRAC
 70
0
  9
$DIMLDRBLK
  1

  9
$DIMLUNIT
 70
2
  9
$DIMLWD
 70
-2
  9
$DIMLWE
 70
-2
  9
$DIMTMOVE
 70
0
  9
$DIMFXL
 40
1.0
  9
$DIMFXLON
 70
0
  9
$DIMJOGANG
 40
0.785398163397
  9
$DIMTFILL
 70
0
  9
$DIMTFILLCLR
 70
0
  9
$DIMARCSYM
 70
0
  9
$DIMLTYPE
  6

  9
$DIMLTEX1
  6

  9
$DIMLTEX2
  6

  9
$DIMTXTDIRECTION
 70
0
  9
$LUNITS
 70
2
  9
$LUPREC
 70
4
  9
$SKETCHINC
 40
1.0
  9
$FILLETRAD
 40
10.0
  9
$AUNITS
 70
0
  9
$AUPREC
 70
2
  9
$MENU
  1
.
  9
$ELEVATION
 40
0.0
  9
$PELEVATION
 40
0.0
  9
$THICKNESS
 40
0.0
  9
$LIMCHECK
 70
0
  9
$CHAMFERA
 40
0.0
  9
$CHAMFERB
 40
0.0
  9
$CHAMFERC
 40
0.0
  9
$CHAMFERD
 40
0.0
  9
$SKPOLY
 70
0
  9
$TDCREATE
 40
2461311.6022453704
  9
$TDUCREATE
 40
2458532.153996898
  9
$TDUPDATE
 40
2461311.6022453704
  9
$TDUUPDATE
 40
2458532.1544311
  9
$TDINDWG
 40
0.0
  9
$TDUSRTIMER
 40
0.0
  9
$USRTIMER
 70
1
  9
$ANGBASE
 50
0.0
  9
$ANGDIR
 70
0
  9
$PDMODE
 70
0
  9
$PDSIZE
 40
0.0
  9
$PLINEWID
 40
0.0
  9
$SPLFRAME
 70
0
  9
$SPLINETYPE
 70
6
  9
$SPLINESEGS
 70
8
  9
$HANDSEED
  5
12D
  9
$SURFTAB1
 70
6
  9
$SURFTAB2
 70
6
  9
$SURFTYPE
 70
6
  9
$SURFU
 70
6
  9
$SURFV
 70
6
  9
$UCSBASE
  2

  9
$UCSNAME
  2

  9
$UCSORG
 10
0.0
 20
0.0
 30
0.0
  9
$UCSXDIR
 10
1.0
 20
0.0
 30
0.0
  9
$UCSYDIR
 10
0.0
 20
1.0
 30
0.0
  9
$UCSORTHOREF
  2

  9
$UCSORTHOVIEW
 70
0
  9
$UCSORGTOP
 10
0.0
 20
0.0
 30
0.0
  9
$UCSORGBOTTOM
 10
0.0
 20
0.0
 30
0.0
  9
$UCSORGLEFT
 10
0.0
 20
0.0
 30
0.0
  9
$UCSORGRIGHT
 10
0.0
 20
0.0
 30
0.0
  9
$UCSORGFRONT
 10
0.0
 20
0.0
 30
0.0
  9
$UCSORGBACK
 10
0.0
 20
0.0
 30
0.0
  9
$PUCSBASE
  2

  9
$PUCSNAME
  2

  9
$PUCSORG
 10
0.0
 20
0.0
 30
0.0
  9
$PUCSXDIR
 10
1.0
 20
0.0
 30
0.0
  9
$PUCSYDIR
 10
0.0
 20
1.0
 30
0.0
  9
$PUCSORTHOREF
  2

  9
$PUCSORTHOVIEW
 70
0
  9
$PUCSORGTOP
 10
0.0
 20
0.0
 30
0.0
  9
$PUCSORGBOTTOM
 10
0.0
 20
0.0
 30
0.0
  9
$PUCSORGLEFT
 10
0.0
 20
0.0
 30
0.0
  9
$PUCSORGRIGHT
 10
0.0
 20
0.0
 30
0.0
  9
$PUCSORGFRONT
 10
0.0
 20
0.0
 30
0.0
  9
$PUCSORGBACK
 10
0.0
 20
0.0
 30
0.0
  9
$USERI1
 70
0
  9
$USERI2
 70
0
  9
$USERI3
 70
0
  9
$USERI4
 70
0
  9
$USERI5
 70
0
  9
$USERR1
 40
0.0
  9
$USERR2
 40
0.0
  9
$USERR3
 40
0.0
  9
$USERR4
 40
0.0
  9
$USERR5
 40
0.0
  9
$WORLDVIEW
 70
1
  9
$SHADEDGE
 70
3
  9
$SHADEDIF
 70
70
  9
$TILEMODE
 70
1
  9
$MAXACTVP
 70
64
  9
$PINSBASE
 10
0.0
 20
0.0
 30
0.0
  9
$PLIMCHECK
 70
0
  9
$PEXTMIN
 10
1e+20
 20
1e+20
 30
1e+20
  9
$PEXTMAX
 10
-1e+20
 20
-1e+20
 30
-1e+20
  9
$PLIMMIN
 10
0.0
 20
0.0
  9
$PLIMMAX
 10
420.0
 20
297.0
  9
$UNITMODE
 70
0
  9
$VISRETAIN
 70
1
  9
$PLINEGEN
 70
0
  9
$PSLTSCALE
 70
1
  9
$TREEDEPTH
 70
3020
  9
$CMLSTYLE
  2
Standard
  9
$CMLJUST
 70
0
  9
$CMLSCALE
 40
20.0
  9
$PROXYGRAPHICS
 70
1
  9
$MEASUREMENT
 70
1
  9
$CELWEIGHT
370
-1
  9
$ENDCAPS
280
0
  9
$JOINSTYLE
280
0
  9
$LWDISPLAY
290
0
  9
$INSUNITS
 70
4
  9
$HYPERLINKBASE
  1

  9
$STYLESHEET
  1

  9
$XEDIT
290
1
  9
$CEPSNTYPE
380
0
  9
$PSTYLEMODE
290
1
  9
$FINGERPRINTGUID
  2
{3AE814D0-36A5-4CC4-8B34-E21E872FBC42}
  9
$VERSIONGUID
  2
{DBE210D1-216C-40B1-803B-6F69EBD94CD7}
  9
$EXTNAMES
290
1
  9
$PSVPSCALE
 40
0.0
  9
$OLESTARTUP
290
0
  9
$SORTENTS
280
127
  9
$INDEXCTL
280
0
  9
$HIDETEXT
280
1
  9
$XCLIPFRAME
280
1
  9
$HALOGAP
280
0
  9
$OBSCOLOR
 70
257
  9
$OBSLTYPE
280
0
  9
$INTERSECTIONDISPLAY
280
0
  9
$INTERSECTIONCOLOR
 70
257
  9
$DIMASSOC
280
2
  9
$PROJECTNAME
  1

  9
$CAMERADISPLAY
290
0
  9
$LENSLENGTH
 40
50.0
  9
$CAMERAHEIGHT
 40
0.0
  9
$STEPSPERSEC
 40
24.0
  9
$STEPSIZE
 40
100.0
  9
$3DDWFPREC
 40
2.0
  9
$PSOLWIDTH
 40
0.005
  9
$PSOLHEIGHT
 40
0.08
  9
$LOFTANG1
 40
1.570796326795
  9
$LOFTANG2
 40
1.570796326795
  9
$LOFTMAG1
 40
0.0
  9
$LOFTMAG2
 40
0.0
  9
$LOFTPARAM
 70
7
  9
$LOFTNORMALS
280
1
  9
$LATITUDE
 40
37.795
  9
$LONGITUDE
 40
-122.394
  9
$NORTHDIRECTION
 40
0.0
  9
$TIMEZONE
 70
-8000
  9
$LIGHTGLYPHDISPLAY
280
1
  9
$TILEMODELIGHTSYNCH
280
1
  9
$CMATERIAL
347
20
  9
$SOLIDHIST
280
0
  9
$SHOWHIST
280
1
  9
$DWFFRAME
280
2
  9
$DGNFRAME
280
2
  9
$REALWORLDSCALE
290
1
  9
$INTERFERECOLOR
 62
256
  9
$CSHADOW
280
0
  9
$SHADOWPLANELOCATION
 40
0.0
  0
ENDSEC
  0
SECTION
  2
CLASSES
  0
CLASS
  1
ACDBDICTIONARYWDFLT
  2
AcDbDictionaryWithDefault
  3
ObjectDBX Classes
 90
0
 91
0
280
0
281
0
  0
CLASS
  1
SUN
  2
AcDbSun
  3
SCENEOE
 90
1153
 91
0
280
0
281
0
  0
CLASS
  1
VISUALSTYLE
  2
AcDbVisualStyle
  3
ObjectDBX Classes
 90
4095
 91
0
280
0
281
0
  0
CLASS
  1
MATERIAL
  2
AcDbMaterial
  3
ObjectDBX Classes
 90
1153
 91
0
280
0
281
0
  0
CLASS
  1
SCALE
  2
AcDbScale
  3
ObjectDBX Classes
 90
1153
 91
0
280
0
281
0
  0
CLASS
  1
TABLESTYLE
  2
AcDbTableStyle
  3
ObjectDBX Classes
 90
4095
 91
0
280
0
281
0
  0
CLASS
  1
MLEADERSTYLE
  2
AcDbMLeaderStyle
  3
ACDB_MLEADERSTYLE_CLASS
 90
4095
 91
0
280
0
281
0
  0
CLASS
  1
DICTIONARYVAR
  2
AcDbDictionaryVar
  3
ObjectDBX Classes
 90
0
 91
0
280
0
281
0
  0
CLASS
  1
CELLSTYLEMAP
  2
AcDbCellStyleMap
  3
ObjectDBX Classes
 90
1152
 91
0
280
0
281
0
  0
CLASS
  1
MENTALRAYRENDERSETTINGS
  2
AcDbMentalRayRenderSettings
  3
SCENEOE
 90
1024
 91
0
280
0
281
0
  0
CLASS
  1
ACDBDETAILVIEWSTYLE
  2
AcDbDetailViewStyle
  3
ObjectDBX Classes
 90
1025
 91
0
280
0
281
0
  0
CLASS
  1
ACDBSECTIONVIEWSTYLE
  2
AcDbSectionViewStyle
  3
ObjectDBX Classes
 90
1025
 91
0
280
0
281
0
  0
CLASS
  1
RASTERVARIABLES
  2
AcDbRasterVariables
  3
ISM
 90
0
 91
0
280
0
281
0
  0
CLASS
  1
LAYOUT
  2
AcDbLayout
  3
ObjectDBX Classes
 90
0
 91
0
280
0
281
0
  0
CLASS
  1
ACDBPLACEHOLDER
  2
AcDbPlaceHolder
  3
ObjectDBX Classes
 90
0
 91
0
280
0
281
0
  0
ENDSEC
  0
SECTION
  2
TABLES
  0
TABLE
  2
VPORT
  5
8
330
0
100
AcDbSymbolTable
 70
1
  0
VPORT
  5
23
330
8
100
AcDbSymbolTableRecord
100
AcDbViewportTableRecord
  2
*Active
 70
0
 10
0.0
 20
0.0
 11
1.0
 21
1.0
 12
0.0
 22
0.0
 13
0.0
 23
0.0
 14
0.5
 24
0.5
 15
0.5
 25
0.5
 16
0.0
 26
0.0
 36
1.0
 17
0.0
 27
0.0
 37
0.0
 40
1000.0
 41
1.34
 42
50.0
 43
0.0
 44
0.0
 50
0.0
 51
0.0
 71
0
 72
1000
 73
1
 74
3
 75
0
 76
0
 77
0
 78
0
281
0
 65
0
146
0.0
  0
ENDTAB
  0
TABLE
  2
LTYPE
  5
2
330
0
100
AcDbSymbolTable
 70
3
  0
LTYPE
  5
24
330
2
100
AcDbSymbolTableRecord
100
AcDbLinetypeTableRecord
  2
ByBlock
 70
0
  3

 72
65
 73
0
 40
0.0
  0
LTYPE
  5
25
330
2
100
AcDbSymbolTableRecord
100
AcDbLinetypeTableRecord
  2
ByLayer
 70
0
  3

 72
65
 73
0
 40
0.0
  0
LTYPE
  5
26
330
2
100
AcDbSymbolTableRecord
100
AcDbLinetypeTableRecord
  2
Continuous
 70
0
  3

 72
65
 73
0
 40
0.0
  0
ENDTAB
  0
TABLE
  2
LAYER
  5
1
330
0
100
AcDbSymbolTable
 70
7
  0
LAYER
  5
27
330
1
100
AcDbSymbolTableRecord
100
AcDbLayerTableRecord
  2
0
 70
0
 62
7
  6
Continuous
370
-3
390
13
347
21
  0
LAYER
  5
28
330
1
100
AcDbSymbolTableRecord
100
AcDbLayerTableRecord
  2
Defpoints
 70
0
 62
7
  6
Continuous
290
0
370
-3
390
13
347
21
  0
LAYER
  5
2F
330
1
100
AcDbSymbolTableRecord
100
AcDbLayerTableRecord
  2
XY_AFT
 70
0
 62
7
  6
Continuous
370
-3
390
13
347
21
  0
LAYER
  5
30
330
1
100
AcDbSymbolTableRecord
100
AcDbLayerTableRecord
  2
XZ_SIDE
 70
0
 62
7
  6
Continuous
370
-3
390
13
347
21
  0
LAYER
  5
31
330
1
100
AcDbSymbolTableRecord
100
AcDbLayerTableRecord
  2
YZ_SIDE
 70
0
 62
7
  6
Continuous
370
-3
390
13
347
21
  0
LAYER
  5
32
330
1
100
AcDbSymbolTableRecord
100
AcDbLayerTableRecord
  2
DIMENSIONS
 70
0
 62
7
  6
Continuous
370
-3
390
13
347
21
  0
LAYER
  5
33
330
1
100
AcDbSymbolTableRecord
100
AcDbLayerTableRecord
  2
NOTES
 70
0
 62
7
  6
Continuous
370
-3
390
13
347
21
  0
ENDTAB
  0
TABLE
  2
STYLE
  5
5
330
0
100
AcDbSymbolTable
 70
1
  0
STYLE
  5
29
330
5
100
AcDbSymbolTableRecord
100
AcDbTextStyleTableRecord
  2
Standard
 70
0
 40
0.0
 41
1.0
 50
0.0
 71
0
 42
2.5
  3
txt
  4

  0
ENDTAB
  0
TABLE
  2
VIEW
  5
7
330
0
100
AcDbSymbolTable
 70
0
  0
ENDTAB
  0
TABLE
  2
UCS
  5
6
330
0
100
AcDbSymbolTable
 70
0
  0
ENDTAB
  0
TABLE
  2
APPID
  5
3
330
0
100
AcDbSymbolTable
 70
3
  0
APPID
  5
2A
330
3
100
AcDbSymbolTableRecord
100
AcDbRegAppTableRecord
  2
ACAD
 70
0
  0
APPID
  5
12A
330
3
100
AcDbSymbolTableRecord
100
AcDbRegAppTableRecord
  2
HATCHBACKGROUNDCOLOR
 70
0
  0
APPID
  5
12B
330
3
100
AcDbSymbolTableRecord
100
AcDbRegAppTableRecord
  2
EZDXF
 70
0
  0
ENDTAB
  0
TABLE
  2
DIMSTYLE
  5
4
330
0
100
AcDbSymbolTable
 70
1
100
AcDbDimStyleTable
  0
DIMSTYLE
105
2B
330
4
100
AcDbSymbolTableRecord
100
AcDbDimStyleTableRecord
  2
Standard
 70
0
 40
1.0
 41
2.5
 42
0.625
 43
3.75
 44
1.25
 45
0.0
 46
0.0
 47
0.0
 48
0.0
 49
2.5
140
2.5
141
2.5
142
0.0
143
0.03937007874
144
1.0
145
0.0
146
1.0
147
0.625
148
0.0
 69
0
 70
0
 71
0
 72
0
 73
0
 74
0
 75
0
 76
0
 77
1
 78
8
 79
3
170
0
171
3
172
1
173
0
174
0
175
0
176
0
177
0
178
0
179
2
271
2
272
2
273
2
274
3
275
0
276
0
277
2
278
44
279
0
280
0
281
0
282
0
283
0
284
8
285
0
286
0
288
0
289
3
290
0
371
-2
372
-2
  0
ENDTAB
  0
TABLE
  2
BLOCK_RECORD
  5
9
330
0
100
AcDbSymbolTable
 70
9
  0
BLOCK_RECORD
  5
17
330
9
100
AcDbSymbolTableRecord
100
AcDbBlockTableRecord
  2
*Model_Space
340
1A
 70
0
280
1
281
0
  0
BLOCK_RECORD
  5
1B
330
9
100
AcDbSymbolTableRecord
100
AcDbBlockTableRecord
  2
*Paper_Space
340
1E
 70
0
280
1
281
0
  0
BLOCK_RECORD
  5
60
330
9
100
AcDbSymbolTableRecord
100
AcDbBlockTableRecord
  2
*D1
340
0
 70
0
280
1
281
0
  0
BLOCK_RECORD
  5
65
330
9
100
AcDbSymbolTableRecord
100
AcDbBlockTableRecord
  2
_CLOSEDFILLED
340
0
 70
0
280
1
281
0
  0
BLOCK_RECORD
  5
74
330
9
100
AcDbSymbolTableRecord
100
AcDbBlockTableRecord
  2
*D2
340
0
 70
0
280
1
281
0
  0
BLOCK_RECORD
  5
B2
330
9
100
AcDbSymbolTableRecord
100
AcDbBlockTableRecord
  2
*D3
340
0
 70
0
280
1
281
0
  0
BLOCK_RECORD
  5
C2
330
9
100
AcDbSymbolTableRecord
100
AcDbBlockTableRecord
  2
*D4
340
0
 70
0
280
1
281
0
  0
BLOCK_RECORD
  5
105
330
9
100
AcDbSymbolTableRecord
100
AcDbBlockTableRecord
  2
*D5
340
0
 70
0
280
1
281
0
  0
BLOCK_RECORD
  5
115
330
9
100
AcDbSymbolTableRecord
100
AcDbBlockTableRecord
  2
*D6
340
0
 70
0
280
1
281
0
  0
ENDTAB
  0
ENDSEC
  0
SECTION
  2
BLOCKS
  0
BLOCK
  5
18
330
17
100
AcDbEntity
  8
0
100
AcDbBlockBegin
  2
*Model_Space
 70
0
 10
0.0
 20
0.0
 30
0.0
  3
*Model_Space
  1

  0
ENDBLK
  5
19
330
17
100
AcDbEntity
  8
0
100
AcDbBlockEnd
  0
BLOCK
  5
1C
330
1B
100
AcDbEntity
  8
0
100
AcDbBlockBegin
  2
*Paper_Space
 70
0
 10
0.0
 20
0.0
 30
0.0
  3
*Paper_Space
  1

  0
ENDBLK
  5
1D
330
1B
100
AcDbEntity
  8
0
100
AcDbBlockEnd
  0
BLOCK
  5
61
330
60
100
AcDbEntity
  8
0
100
AcDbBlockBegin
  2
*D1
 70
1
 10
0.0
 20
0.0
 30
0.0
  3
*D1
  1

  0
LINE
  5
63
330
60
100
AcDbEntity
  8
0
100
AcDbLine
 10
0.0
 20
0.0
 30
0.0
 11
0.0
 21
-25.0
 31
0.0
  0
LINE
  5
64
330
60
100
AcDbEntity
  8
0
100
AcDbLine
 10
124.0
 20
0.0
 30
0.0
 11
124.0
 21
-25.0
 31
0.0
  0
INSERT
  5
69
330
60
100
AcDbEntity
  8
DIMENSIONS
100
AcDbBlockReference
  2
_CLOSEDFILLED
 10
0.0
 20
-25.0
 30
0.0
 41
3.0
 42
3.0
 50
180.0
  0
INSERT
  5
6B
330
60
100
AcDbEntity
  8
DIMENSIONS
100
AcDbBlockReference
  2
_CLOSEDFILLED
 10
124.0
 20
-25.0
 30
0.0
 41
3.0
 42
3.0
  0
LINE
  5
6D
330
60
100
AcDbEntity
  8
0
100
AcDbLine
 10
3.0
 20
-25.0
 30
0.0
 11
57.5
 21
-25.0
 31
0.0
  0
LINE
  5
6E
330
60
100
AcDbEntity
  8
0
100
AcDbLine
 10
66.5
 20
-25.0
 30
0.0
 11
121.0
 21
-25.0
 31
0.0
  0
MTEXT
  5
6F
330
60
100
AcDbEntity
  8
DIMENSIONS
100
AcDbMText
 10
62.0
 20
-25.0
 30
0.0
 40
3.0
 71
5
  1
124
  0
POINT
  5
70
330
60
100
AcDbEntity
  8
Defpoints
100
AcDbPoint
 10
0.0
 20
-25.0
 30
0.0
  0
POINT
  5
71
330
60
100
AcDbEntity
  8
Defpoints
100
AcDbPoint
 10
0.0
 20
0.0
 30
0.0
  0
POINT
  5
72
330
60
100
AcDbEntity
  8
Defpoints
100
AcDbPoint
 10
124.0
 20
0.0
 30
0.0
  0
ENDBLK
  5
62
330
60
100
AcDbEntity
  8
0
100
AcDbBlockEnd
  0
BLOCK
  5
66
330
65
100
AcDbEntity
  8
0
100
AcDbBlockBegin
  2
_CLOSEDFILLED
 70
0
 10
0.0
 20
0.0
 30
0.0
  3
_CLOSEDFILLED
  1

  0
SOLID
  5
68
330
65
100
AcDbEntity
  8
0
  6
BYBLOCK
 62
0
100
AcDbTrace
 10
-1.0
 20
0.16439898372402537
 30
0.0
 11
0.0
 21
0.0
 31
0.0
 12
-1.0
 22
-0.16439898372402537
 32
0.0
 13
-1.0
 23
-0.16439898372402537
 33
0.0
  0
ENDBLK
  5
67
330
65
100
AcDbEntity
  8
0
100
AcDbBlockEnd
  0
BLOCK
  5
75
330
74
100
AcDbEntity
  8
0
100
AcDbBlockBegin
  2
*D2
 70
1
 10
0.0
 20
0.0
 30
0.0
  3
*D2
  1

  0
LINE
  5
77
330
74
100
AcDbEntity
  8
0
100
AcDbLine
 10
0.0
 20
0.0
 30
0.0
 11
-25.0
 21
0.0
 31
0.0
  0
LINE
  5
78
330
74
100
AcDbEntity
  8
0
100
AcDbLine
 10
0.0
 20
197.0
 30
0.0
 11
-25.0
 21
197.0
 31
0.0
  0
INSERT
  5
79
330
74
100
AcDbEntity
  8
DIMENSIONS
100
AcDbBlockReference
  2
_CLOSEDFILLED
 10
-25.0
 20
0.0
 30
0.0
 41
3.0
 42
3.0
 50
270.0
  0
INSERT
  5
7B
330
74
100
AcDbEntity
  8
DIMENSIONS
100
AcDbBlockReference
  2
_CLOSEDFILLED
 10
-25.0
 20
197.0
 30
0.0
 41
3.0
 42
3.0
 50
90.0
  0
LINE
  5
7D
330
74
100
AcDbEntity
  8
0
100
AcDbLine
 10
-25.0
 20
3.0
 30
0.0
 11
-25.0
 21
94.0
 31
0.0
  0
LINE
  5
7E
330
74
100
AcDbEntity
  8
0
100
AcDbLine
 10
-25.0
 20
103.0
 30
0.0
 11
-25.0
 21
194.0
 31
0.0
  0
MTEXT
  5
7F
330
74
100
AcDbEntity
  8
DIMENSIONS
100
AcDbMText
 10
-25.0
 20
98.5
 30
0.0
 40
3.0
 71
5
  1
197
 50
90.0
  0
POINT
  5
80
330
74
100
AcDbEntity
  8
Defpoints
100
AcDbPoint
 10
-25.0
 20
0.0
 30
0.0
  0
POINT
  5
81
330
74
100
AcDbEntity
  8
Defpoints
100
AcDbPoint
 10
0.0
 20
0.0
 30
0.0
  0
POINT
  5
82
330
74
100
AcDbEntity
  8
Defpoints
100
AcDbPoint
 10
0.0
 20
197.0
 30
0.0
  0
ENDBLK
  5
76
330
74
100
AcDbEntity
  8
0
100
AcDbBlockEnd
  0
BLOCK
  5
B3
330
B2
100
AcDbEntity
  8
0
100
AcDbBlockBegin
  2
*D3
 70
1
 10
0.0
 20
0.0
 30
0.0
  3
*D3
  1

  0
LINE
  5
B5
330
B2
100
AcDbEntity
  8
0
100
AcDbLine
 10
0.0
 20
-423.00000009999997
 30
0.0
 11
0.0
 21
-448.00000009999997
 31
0.0
  0
LINE
  5
B6
330
B2
100
AcDbEntity
  8
0
100
AcDbLine
 10
124.0
 20
-423.00000009999997
 30
0.0
 11
124.0
 21
-448.00000009999997
 31
0.0
  0
INSERT
  5
B7
330
B2
100
AcDbEntity
  8
DIMENSIONS
100
AcDbBlockReference
  2
_CLOSEDFILLED
 10
0.0
 20
-448.00000009999997
 30
0.0
 41
3.0
 42
3.0
 50
180.0
  0
INSERT
  5
B9
330
B2
100
AcDbEntity
  8
DIMENSIONS
100
AcDbBlockReference
  2
_CLOSEDFILLED
 10
124.0
 20
-448.00000009999997
 30
0.0
 41
3.0
 42
3.0
  0
LINE
  5
BB
330
B2
100
AcDbEntity
  8
0
100
AcDbLine
 10
3.0
 20
-448.00000009999997
 30
0.0
 11
57.5
 21
-448.00000009999997
 31
0.0
  0
LINE
  5
BC
330
B2
100
AcDbEntity
  8
0
100
AcDbLine
 10
66.5
 20
-448.00000009999997
 30
0.0
 11
121.0
 21
-448.00000009999997
 31
0.0
  0
MTEXT
  5
BD
330
B2
100
AcDbEntity
  8
DIMENSIONS
100
AcDbMText
 10
62.0
 20
-448.00000009999997
 30
0.0
 40
3.0
 71
5
  1
124
  0
POINT
  5
BE
330
B2
100
AcDbEntity
  8
Defpoints
100
AcDbPoint
 10
0.0
 20
-448.00000009999997
 30
0.0
  0
POINT
  5
BF
330
B2
100
AcDbEntity
  8
Defpoints
100
AcDbPoint
 10
0.0
 20
-423.00000009999997
 30
0.0
  0
POINT
  5
C0
330
B2
100
AcDbEntity
  8
Defpoints
100
AcDbPoint
 10
124.0
 20
-423.00000009999997
 30
0.0
  0
ENDBLK
  5
B4
330
B2
100
AcDbEntity
  8
0
100
AcDbBlockEnd
  0
BLOCK
  5
C3
330
C2
100
AcDbEntity
  8
0
100
AcDbBlockBegin
  2
*D4
 70
1
 10
0.0
 20
0.0
 30
0.0
  3
*D4
  1

  0
LINE
  5
C5
330
C2
100
AcDbEntity
  8
0
100
AcDbLine
 10
0.0
 20
-423.00000009999997
 30
0.0
 11
-25.0
 21
-423.00000009999997
 31
0.0
  0
LINE
  5
C6
330
C2
100
AcDbEntity
  8
0
100
AcDbLine
 10
0.0
 20
-297.0
 30
0.0
 11
-25.0
 21
-297.0
 31
0.0
  0
INSERT
  5
C7
330
C2
100
AcDbEntity
  8
DIMENSIONS
100
AcDbBlockReference
  2
_CLOSEDFILLED
 10
-25.0
 20
-423.00000009999997
 30
0.0
 41
3.0
 42
3.0
 50
270.0
  0
INSERT
  5
C9
330
C2
100
AcDbEntity
  8
DIMENSIONS
100
AcDbBlockReference
  2
_CLOSEDFILLED
 10
-25.0
 20
-297.0
 30
0.0
 41
3.0
 42
3.0
 50
90.0
  0
LINE
  5
CB
330
C2
100
AcDbEntity
  8
0
100
AcDbLine
 10
-25.0
 20
-420.00000009999997
 30
0.0
 11
-25.0
 21
-364.50000005
 31
0.0
  0
LINE
  5
CC
330
C2
100
AcDbEntity
  8
0
100
AcDbLine
 10
-25.0
 20
-355.50000005
 30
0.0
 11
-25.0
 21
-300.0
 31
0.0
  0
MTEXT
  5
CD
330
C2
100
AcDbEntity
  8
DIMENSIONS
100
AcDbMText
 10
-25.0
 20
-360.00000005
 30
0.0
 40
3.0
 71
5
  1
126
 50
90.0
  0
POINT
  5
CE
330
C2
100
AcDbEntity
  8
Defpoints
100
AcDbPoint
 10
-25.0
 20
-423.00000009999997
 30
0.0
  0
POINT
  5
CF
330
C2
100
AcDbEntity
  8
Defpoints
100
AcDbPoint
 10
0.0
 20
-423.00000009999997
 30
0.0
  0
POINT
  5
D0
330
C2
100
AcDbEntity
  8
Defpoints
100
AcDbPoint
 10
0.0
 20
-297.0
 30
0.0
  0
ENDBLK
  5
C4
330
C2
100
AcDbEntity
  8
0
100
AcDbBlockEnd
  0
BLOCK
  5
106
330
105
100
AcDbEntity
  8
0
100
AcDbBlockBegin
  2
*D5
 70
1
 10
0.0
 20
0.0
 30
0.0
  3
*D5
  1

  0
LINE
  5
108
330
105
100
AcDbEntity
  8
0
100
AcDbLine
 10
224.0
 20
0.0
 30
0.0
 11
224.0
 21
-25.0
 31
0.0
  0
LINE
  5
109
330
105
100
AcDbEntity
  8
0
100
AcDbLine
 10
421.0
 20
0.0
 30
0.0
 11
421.0
 21
-25.0
 31
0.0
  0
INSERT
  5
10A
330
105
100
AcDbEntity
  8
DIMENSIONS
100
AcDbBlockReference
  2
_CLOSEDFILLED
 10
224.0
 20
-25.0
 30
0.0
 41
3.0
 42
3.0
 50
180.0
  0
INSERT
  5
10C
330
105
100
AcDbEntity
  8
DIMENSIONS
100
AcDbBlockReference
  2
_CLOSEDFILLED
 10
421.0
 20
-25.0
 30
0.0
 41
3.0
 42
3.0
  0
LINE
  5
10E
330
105
100
AcDbEntity
  8
0
100
AcDbLine
 10
227.0
 20
-25.0
 30
0.0
 11
318.0
 21
-25.0
 31
0.0
  0
LINE
  5
10F
330
105
100
AcDbEntity
  8
0
100
AcDbLine
 10
327.0
 20
-25.0
 30
0.0
 11
418.0
 21
-25.0
 31
0.0
  0
MTEXT
  5
110
330
105
100
AcDbEntity
  8
DIMENSIONS
100
AcDbMText
 10
322.5
 20
-25.0
 30
0.0
 40
3.0
 71
5
  1
197
  0
POINT
  5
111
330
105
100
AcDbEntity
  8
Defpoints
100
AcDbPoint
 10
224.0
 20
-25.0
 30
0.0
  0
POINT
  5
112
330
105
100
AcDbEntity
  8
Defpoints
100
AcDbPoint
 10
224.0
 20
0.0
 30
0.0
  0
POINT
  5
113
330
105
100
AcDbEntity
  8
Defpoints
100
AcDbPoint
 10
421.0
 20
0.0
 30
0.0
  0
ENDBLK
  5
107
330
105
100
AcDbEntity
  8
0
100
AcDbBlockEnd
  0
BLOCK
  5
116
330
115
100
AcDbEntity
  8
0
100
AcDbBlockBegin
  2
*D6
 70
1
 10
0.0
 20
0.0
 30
0.0
  3
*D6
  1

  0
LINE
  5
118
330
115
100
AcDbEntity
  8
0
100
AcDbLine
 10
224.0
 20
0.0
 30
0.0
 11
199.0
 21
0.0
 31
0.0
  0
LINE
  5
119
330
115
100
AcDbEntity
  8
0
100
AcDbLine
 10
224.0
 20
126.0000001
 30
0.0
 11
199.0
 21
126.0000001
 31
0.0
  0
INSERT
  5
11A
330
115
100
AcDbEntity
  8
DIMENSIONS
100
AcDbBlockReference
  2
_CLOSEDFILLED
 10
199.0
 20
0.0
 30
0.0
 41
3.0
 42
3.0
 50
270.0
  0
INSERT
  5
11C
330
115
100
AcDbEntity
  8
DIMENSIONS
100
AcDbBlockReference
  2
_CLOSEDFILLED
 10
199.0
 20
126.0000001
 30
0.0
 41
3.0
 42
3.0
 50
90.0
  0
LINE
  5
11E
330
115
100
AcDbEntity
  8
0
100
AcDbLine
 10
199.0
 20
3.0
 30
0.0
 11
199.0
 21
58.50000005
 31
0.0
  0
LINE
  5
11F
330
115
100
AcDbEntity
  8
0
100
AcDbLine
 10
199.0
 20
67.50000005
 30
0.0
 11
199.0
 21
123.0000001
 31
0.0
  0
MTEXT
  5
120
330
115
100
AcDbEntity
  8
DIMENSIONS
100
AcDbMText
 10
199.0
 20
63.00000005
 30
0.0
 40
3.0
 71
5
  1
126
 50
90.0
  0
POINT
  5
121
330
115
100
AcDbEntity
  8
Defpoints
100
AcDbPoint
 10
199.0
 20
0.0
 30
0.0
  0
POINT
  5
122
330
115
100
AcDbEntity
  8
Defpoints
100
AcDbPoint
 10
224.0
 20
0.0
 30
0.0
  0
POINT
  5
123
330
115
100
AcDbEntity
  8
Defpoints
100
AcDbPoint
 10
224.0
 20
126.0000001
 30
0.0
  0
ENDBLK
  5
117
330
115
100
AcDbEntity
  8
0
100
AcDbBlockEnd
  0
ENDSEC
  0
SECTION
  2
ENTITIES
  0
LWPOLYLINE
  5
34
330
17
100
AcDbEntity
  8
XY_AFT
100
AcDbPolyline
 90
2
 70
0
 10
50.0
 20
167.0
 10
50.0
 20
197.0
  0
LWPOLYLINE
  5
35
330
17
100
AcDbEntity
  8
XY_AFT
100
AcDbPolyline
 90
2
 70
0
 10
50.0
 20
167.0
 10
50.0
 20
197.0
  0
LWPOLYLINE
  5
36
330
17
100
AcDbEntity
  8
XY_AFT
100
AcDbPolyline
 90
2
 70
0
 10
50.0
 20
167.0
 10
56.0
 20
167.0
  0
LWPOLYLINE
  5
37
330
17
100
AcDbEntity
  8
XY_AFT
100
AcDbPolyline
 90
2
 70
0
 10
50.0
 20
167.0
 10
74.0
 20
167.0
  0
LWPOLYLINE
  5
38
330
17
100
AcDbEntity
  8
XY_AFT
100
AcDbPolyline
 90
2
 70
0
 10
56.0
 20
167.0
 10
68.0
 20
167.0
  0
LWPOLYLINE
  5
39
330
17
100
AcDbEntity
  8
XY_AFT
100
AcDbPolyline
 90
2
 70
0
 10
68.0
 20
167.0
 10
74.0
 20
167.0
  0
LWPOLYLINE
  5
3A
330
17
100
AcDbEntity
  8
XY_AFT
100
AcDbPolyline
 90
12
 70
0
 10
66.2
 20
167.0
 10
65.53326483789095
 20
167.0
 10
63.74474305460792
 20
167.0
 10
61.4022776792522
 20
167.0
 10
59.2495849174298
 20
167.0
 10
57.97012951081911
 20
167.0
 10
57.97012951081911
 20
167.0
 10
59.2495849174298
 20
167.0
 10
61.4022776792522
 20
167.0
 10
63.74474305460792
 20
167.0
 10
65.53326483789095
 20
167.0
 10
66.2
 20
167.0
  0
LWPOLYLINE
  5
3B
330
17
100
AcDbEntity
  8
XY_AFT
100
AcDbPolyline
 90
2
 70
0
 10
50.0
 20
197.0
 10
74.0
 20
197.0
  0
LWPOLYLINE
  5
3C
330
17
100
AcDbEntity
  8
XY_AFT
100
AcDbPolyline
 90
2
 70
0
 10
74.0
 20
167.0
 10
74.0
 20
197.0
  0
LWPOLYLINE
  5
3D
330
17
100
AcDbEntity
  8
XY_AFT
100
AcDbPolyline
 90
2
 70
0
 10
50.0
 20
197.0
 10
74.0
 20
197.0
  0
LWPOLYLINE
  5
3E
330
17
100
AcDbEntity
  8
XY_AFT
100
AcDbPolyline
 90
12
 70
0
 10
66.2
 20
197.0
 10
65.53326483789095
 20
197.0
 10
63.74474305460792
 20
197.0
 10
61.4022776792522
 20
197.0
 10
59.2495849174298
 20
197.0
 10
57.97012951081911
 20
197.0
 10
57.97012951081911
 20
197.0
 10
59.2495849174298
 20
197.0
 10
61.4022776792522
 20
197.0
 10
63.74474305460792
 20
197.0
 10
65.53326483789095
 20
197.0
 10
66.2
 20
197.0
  0
LWPOLYLINE
  5
3F
330
17
100
AcDbEntity
  8
XY_AFT
100
AcDbPolyline
 90
2
 70
0
 10
74.0
 20
167.0
 10
74.0
 20
197.0
  0
LWPOLYLINE
  5
40
330
17
100
AcDbEntity
  8
XY_AFT
100
AcDbPolyline
 90
2
 70
0
 10
68.0
 20
167.0
 10
68.0
 20
173.0
  0
LWPOLYLINE
  5
41
330
17
100
AcDbEntity
  8
XY_AFT
100
AcDbPolyline
 90
2
 70
0
 10
68.0
 20
173.0
 10
56.0
 20
173.0
  0
LWPOLYLINE
  5
42
330
17
100
AcDbEntity
  8
XY_AFT
100
AcDbPolyline
 90
2
 70
0
 10
56.0
 20
167.0
 10
56.0
 20
173.0
  0
LWPOLYLINE
  5
43
330
17
100
AcDbEntity
  8
XY_AFT
100
AcDbPolyline
 90
2
 70
0
 10
56.0
 20
119.43746599563738
 10
56.0
 20
113.0
  0
LWPOLYLINE
  5
44
330
17
100
AcDbEntity
  8
XY_AFT
100
AcDbPolyline
 90
2
 70
0
 10
56.0
 20
119.43746599563738
 10
56.0
 20
118.28108030235383
  0
LWPOLYLINE
  5
45
330
17
100
AcDbEntity
  8
XY_AFT
100
AcDbPolyline
 90
2
 70
0
 10
56.0
 20
123.0
 10
56.0
 20
118.28108030235383
  0
LWPOLYLINE
  5
46
330
17
100
AcDbEntity
  8
XY_AFT
100
AcDbPolyline
 90
2
 70
0
 10
56.0
 20
123.0
 10
56.0
 20
167.0
  0
LWPOLYLINE
  5
47
330
17
100
AcDbEntity
  8
XY_AFT
100
AcDbPolyline
 90
2
 70
0
 10
56.0
 20
113.0
 10
56.0
 20
173.0
  0
LWPOLYLINE
  5
48
330
17
100
AcDbEntity
  8
XY_AFT
100
AcDbPolyline
 90
2
 70
0
 10
68.0
 20
123.0
 10
68.0
 20
167.0
  0
LWPOLYLINE
  5
49
330
17
100
AcDbEntity
  8
XY_AFT
100
AcDbPolyline
 90
2
 70
0
 10
68.0
 20
123.0
 10
56.0
 20
123.0
  0
LWPOLYLINE
  5
4A
330
17
100
AcDbEntity
  8
XY_AFT
100
AcDbPolyline
 90
2
 70
0
 10
68.0
 20
113.0
 10
68.0
 20
173.0
  0
LWPOLYLINE
  5
4B
330
17
100
AcDbEntity
  8
XY_AFT
100
AcDbPolyline
 90
2
 70
0
 10
68.0
 20
119.43746599563738
 10
68.0
 20
113.0
  0
LWPOLYLINE
  5
4C
330
17
100
AcDbEntity
  8
XY_AFT
100
AcDbPolyline
 90
2
 70
0
 10
68.0
 20
119.43746599563738
 10
68.0
 20
118.28108030235383
  0
LWPOLYLINE
  5
4D
330
17
100
AcDbEntity
  8
XY_AFT
100
AcDbPolyline
 90
2
 70
0
 10
68.0
 20
123.0
 10
68.0
 20
118.28108030235383
  0
LWPOLYLINE
  5
4E
330
17
100
AcDbEntity
  8
XY_AFT
100
AcDbPolyline
 90
2
 70
0
 10
66.2
 20
167.0
 10
66.2
 20
197.0
  0
LWPOLYLINE
  5
4F
330
17
100
AcDbEntity
  8
XY_AFT
100
AcDbPolyline
 90
2
 70
0
 10
56.0
 20
173.0
 10
68.0
 20
173.0
  0
LWPOLYLINE
  5
50
330
17
100
AcDbEntity
  8
XY_AFT
100
AcDbPolyline
 90
2
 70
0
 10
56.0
 20
113.0
 10
68.0
 20
113.0
  0
LWPOLYLINE
  5
51
330
17
100
AcDbEntity
  8
XY_AFT
100
AcDbPolyline
 90
2
 70
0
 10
56.0
 20
113.0
 10
68.0
 20
113.0
  0
LWPOLYLINE
  5
52
330
17
100
AcDbEntity
  8
XY_AFT
100
AcDbPolyline
 90
12
 70
0
 10
66.2
 20
113.0
 10
65.62399438650269
 20
113.0
 10
63.924515384576054
 20
113.0
 10
61.40724763762918
 20
113.0
 10
59.17172500923899
 20
113.0
 10
57.97345035469734
 20
113.0
 10
57.92078076499033
 20
113.0
 10
59.060553433048796
 20
113.0
 10
61.284418681866136
 20
113.0
 10
63.828203592393976
 20
113.0
 10
65.60499205062959
 20
113.0
 10
66.2
 20
113.0
  0
LWPOLYLINE
  5
53
330
17
100
AcDbEntity
  8
XY_AFT
100
AcDbPolyline
 90
12
 70
0
 10
68.00000000000001
 20
119.43746599563738
 10
66.91202371621651
 20
119.54072056388699
 10
65.82228833655935
 20
119.62336862655812
 10
64.73118411749323
 20
119.68538058569392
 10
63.63910180569204
 20
119.72673423354709
 10
62.54643249810471
 20
119.74741476053292
 10
61.4535675018953
 20
119.74741476053292
 10
60.360898194307964
 20
119.72673423354709
 10
59.268815882506786
 20
119.68538058569392
 10
58.177711663440654
 20
119.62336862655812
 10
57.087976283783505
 20
119.54072056388699
 10
56.0
 20
119.43746599563738
  0
LWPOLYLINE
  5
54
330
17
100
AcDbEntity
  8
XY_AFT
100
AcDbPolyline
 90
12
 70
0
 10
68.00000000000001
 20
119.43746599563738
 10
66.91202371621651
 20
119.54072056388699
 10
65.82228833655935
 20
119.62336862655812
 10
64.73118411749323
 20
119.68538058569392
 10
63.63910180569204
 20
119.72673423354709
 10
62.54643249810471
 20
119.74741476053292
 10
61.4535675018953
 20
119.74741476053292
 10
60.360898194307964
 20
119.72673423354709
 10
59.268815882506786
 20
119.68538058569392
 10
58.177711663440654
 20
119.62336862655812
 10
57.087976283783505
 20
119.54072056388699
 10
56.0
 20
119.43746599563738
  0
LWPOLYLINE
  5
55
330
17
100
AcDbEntity
  8
XY_AFT
100
AcDbPolyline
 90
12
 70
0
 10
68.0
 20
118.28108030235383
 10
66.91214467282752
 20
118.38644194053401
 10
65.82245772533606
 20
118.47077843396546
 10
64.7313454755165
 20
118.5340583356031
 10
63.6392147728206
 20
118.57625804989728
 10
62.54647284645662
 20
118.59736184159192
 10
61.453527153543384
 20
118.59736184159192
 10
60.360785227179406
 20
118.57625804989728
 10
59.268654524483495
 20
118.5340583356031
 10
58.17754227466394
 20
118.47077843396546
 10
57.087855327172484
 20
118.38644194053401
 10
56.0
 20
118.28108030235383
  0
LWPOLYLINE
  5
56
330
17
100
AcDbEntity
  8
XY_AFT
100
AcDbPolyline
 90
12
 70
0
 10
68.0
 20
118.28108030235383
 10
66.91214467282752
 20
118.38644194053401
 10
65.82245772533606
 20
118.47077843396546
 10
64.7313454755165
 20
118.5340583356031
 10
63.6392147728206
 20
118.57625804989728
 10
62.54647284645662
 20
118.59736184159192
 10
61.453527153543384
 20
118.59736184159192
 10
60.360785227179406
 20
118.57625804989728
 10
59.268654524483495
 20
118.5340583356031
 10
58.17754227466394
 20
118.47077843396546
 10
57.087855327172484
 20
118.38644194053401
 10
56.0
 20
118.28108030235383
  0
LWPOLYLINE
  5
57
330
17
100
AcDbEntity
  8
XY_AFT
100
AcDbPolyline
 90
96
 70
0
 10
124.0
 20
62.0
 10
123.86444488756402
 20
66.09761622819336
 10
123.45837229827247
 20
70.17731462320828
 10
122.78355788423818
 20
74.22125570199178
 10
121.84295243719562
 20
78.21175633913683
 10
120.64066898543936
 20
82.13136709069038
 10
119.18196480859785
 20
85.96294849613204
 10
117.47321844888734
 20
89.689746024874
 10
115.52190181936957
 20
93.29546333956031
 10
113.33654753117725
 20
96.76433355580372
 10
110.92671158257642
 20
100.08118818675939
 10
108.30293157301755
 20
103.23152347105858
 10
105.4766806248943
 20
106.20156379406662
 10
102.46031721449845
 20
108.97832192514075
 10
99.26703113154755
 20
111.54965580748532
 10
95.91078580359047
 20
113.90432165227676
 10
92.4062572374915
 20
116.03202310489118
 10
88.76876984498658
 20
117.92345626824346
 10
85.01422943292968
 20
119.57035038636184
 10
81.15905365124675
 20
120.96550401029953
 10
77.22010020272957
 20
122.10281648823849
 10
73.21459312859082
 20
122.9773146420877
 10
69.16004749211434
 20
123.58517451392557
 10
65.07419278973978
 20
123.92373808719489
 10
60.97489542448579
 20
123.99152490953307
 10
56.880080580715415
 20
123.78823856641353
 10
52.8076538418658
 20
123.31476797729104
 10
48.77542289388771
 20
122.57318350858316
 10
44.80101965676566
 20
121.5667279204846
 10
40.90182318461813
 20
120.299802187202
 10
37.0948836715159
 20
118.77794625261356
 10
33.39684789532136
 20
117.00781480550393
 10
29.82388642556466
 20
114.99714818030341
 10
26.3916229136575
 20
112.75473851057492
 10
23.115065774640726
 20
110.29039128325098
 10
20.00854255920406
 20
107.61488246173417
 10
17.085637302952485
 20
104.73991136535108
 10
14.359131126874757
 20
101.67804951120564
 10
11.840946348753263
 20
98.44268564213334
 10
9.542094349902008
 20
95.04796718113563
 10
7.4726274251977
 20
91.5087383682986
 10
5.641594826951923
 20
87.840475350708
 10
4.057003194833435
 20
84.05921850919603
 10
2.7257815448698253
 20
80.18150231783682
 10
1.6537509706236406
 20
76.22428304289862
 10
0.8455991890312191
 20
72.2048645974055
 10
0.30486004220929175
 20
68.14082287552868
 10
0.033898044862581855
 20
64.04992889767313
 10
0.033898044862581855
 20
59.95007110232692
 10
0.30486004220929175
 20
55.8591771244713
 10
0.845599189031212
 20
51.79513540259453
 10
1.6537509706236335
 20
47.77571695710142
 10
2.725781544869818
 20
43.8184976821632
 10
4.05700319483342
 20
39.94078149080401
 10
5.641594826951916
 20
36.15952464929201
 10
7.472627425197679
 20
32.49126163170144
 10
9.54209434990198
 20
28.95203281886443
 10
11.840946348753235
 20
25.557314357866694
 10
14.359131126874743
 20
22.32195048879438
 10
17.085637302952478
 20
19.26008863464893
 10
20.00854255920403
 20
16.38511753826586
 10
23.11506577464069
 20
13.709608716749045
 10
26.391622913657486
 20
11.245261489425076
 10
29.823886425564616
 20
9.002851819696609
 10
33.39684789532137
 20
6.992185194496059
 10
37.09488367151587
 20
5.222053747386447
 10
40.90182318461812
 20
3.7001978127980095
 10
44.801019656765575
 20
2.433272079515426
 10
48.77542289388765
 20
1.4268164914168509
 10
52.807653841865815
 20
0.6852320227089521
 10
56.88008058071537
 20
0.21176143358646726
 10
60.97489542448576
 20
0.008475090466923518
 10
65.07419278973978
 20
0.07626191280510142
 10
69.16004749211429
 20
0.4148254860744274
 10
73.21459312859078
 20
1.0226853579122874
 10
77.22010020272953
 20
1.8971835117615115
 10
81.15905365124672
 20
3.034495989700474
 10
85.01422943292968
 20
4.429649613638162
 10
88.76876984498652
 20
6.07654373175653
 10
92.40625723749153
 20
7.967976895108819
 10
95.9107858035904
 20
10.095678347723187
 10
99.26703113154755
 20
12.450344192514656
 10
102.46031721449845
 20
15.021678074859253
 10
105.47668062489427
 20
17.79843620593335
 10
108.30293157301752
 20
20.76847652894139
 10
110.92671158257639
 20
23.91881181324058
 10
113.33654753117725
 20
27.235666444196283
 10
115.52190181936956
 20
30.704536660439643
 10
117.47321844888731
 20
34.31025397512596
 10
119.18196480859784
 20
38.03705150386793
 10
120.64066898543935
 20
41.86863290930961
 10
121.8429524371956
 20
45.78824366086312
 10
122.78355788423818
 20
49.77874429800823
 10
123.45837229827248
 20
53.822685376791746
 10
123.86444488756402
 20
57.902383771806605
 10
124.0
 20
61.999999999999986
  0
LWPOLYLINE
  5
58
330
17
100
AcDbEntity
  8
XY_AFT
100
AcDbPolyline
 90
22
 70
0
 10
118.6
 20
62.0
 10
118.46240464915451
 20
65.94421871035784
 10
118.05028758886442
 20
69.86926052469931
 10
117.36565254321106
 20
73.75604178558528
 10
116.41182822595084
 20
77.58566485940264
 10
115.19345215622086
 20
81.33951001716028
 10
113.71644811079761
 20
84.9993259641055
 10
111.98799732253732
 20
88.54731857800331
 10
110.01650356503116
 20
91.96623742463092
 10
107.81155229323505
 20
95.23945962984642
 10
105.38386403873348
 20
98.35107070044413
 10
102.74524228623036
 20
101.28594190084266
 10
99.90851608469339
 20
104.02980380939866
 10
96.8874776721774
 20
106.56931569671363
 10
93.69681541759716
 20
108.89213038861399
 10
90.35204240548796
 20
110.98695429843963
 10
86.86942101097702
 20
112.84360233676185
 10
83.26588383168409
 20
114.45304743155842
 10
79.55895136098269
 20
115.8074644180772
 10
75.76664680289633
 20
116.90026808499485
 10
71.90740844280255
 20
117.72614519188892
 10
68.0
 20
118.28108030235383
  0
LWPOLYLINE
  5
59
330
17
100
AcDbEntity
  8
XY_AFT
100
AcDbPolyline
 90
2
 70
0
 10
56.0
 20
123.0
 10
68.0
 20
123.0
  0
LWPOLYLINE
  5
5A
330
17
100
AcDbEntity
  8
XY_AFT
100
AcDbPolyline
 90
67
 70
0
 10
56.0
 20
118.28108030235383
 10
52.08990139783713
 20
117.72566684836897
 10
48.228052657640774
 20
116.89893866368716
 10
44.43325618250807
 20
115.80492088694686
 10
40.72398791435105
 20
114.44894002485961
 10
37.11830737902511
 20
112.83759801874322
 10
33.63376975888609
 20
110.97874010127367
 10
30.287340420873072
 20
108.88141659995364
 10
27.095312316259523
 20
106.55583887326706
 10
24.073226654232542
 20
104.01332959405602
 10
21.2357972355218
 20
101.26626762217805
 10
18.596838814479227
 20
98.32802773484549
 10
16.169199838397084
 20
95.21291550808539
 10
13.964699891540157
 20
91.9360976663659
 10
11.994072148462074
 20
88.51352823950037
 10
10.266911116786659
 20
84.96187088635307
 10
8.791625923881625
 20
81.29841776353322
 10
7.575399374860865
 20
77.54100533408652
 10
6.6241529812517825
 20
73.7079275260908
 10
5.942518130594543
 20
69.8178466639656
 10
5.53381353734153
 20
65.88970260614933
 10
5.400029084843176
 20
61.942620531530984
 10
5.541816137089441
 20
57.99581782360161
 10
5.958484367376819
 20
54.06851050568356
 10
6.648005119341292
 20
50.179819682782636
 10
7.607021283993241
 20
46.34867844557412
 10
8.830863644665335
 20
42.593739689784904
 10
10.313573610293886
 20
38.93328529977684
 10
12.047932226350788
 20
35.385137138494294
 10
14.02549532217894
 20
31.96657027714408
 10
16.236634623607337
 20
28.694228887071453
 10
18.670584630678192
 20
25.58404520333457
 10
21.31549503225044
 20
22.65116195452321
 10
24.158488402284952
 20
19.909858636493055
 10
27.185722896902853
 20
17.373481988970212
 10
30.38245964695964
 20
15.054381013518793
 10
33.73313451801778
 20
12.963846849252924
 10
37.22143388833517
 20
11.112057799024186
 10
40.83037407592502
 20
9.508029773738414
 10
44.54238402797682
 20
8.159572396076186
 10
48.33939087004251
 20
7.073250977337807
 10
52.20290789847058
 20
6.254354552537919
 10
56.114124587673814
 20
5.706870129379247
 10
60.05399817400772
 20
5.4334632764809
 10
64.0033463703592
 20
5.435465145372504
 10
67.94294076004114
 20
5.712865989440871
 10
71.85360041528118
 20
6.2643152113839164
 10
75.71628528449766
 20
7.087127938940647
 10
79.5121888936845
 20
8.177298096881891
 10
83.22282991056298
 20
9.52951791161707
 10
86.83014212569776
 20
11.137203753454038
 10
90.3165624124805
 20
12.99252819069222
 10
93.66511623772566
 20
15.086458099485569
 10
96.85950030654773
 20
17.40879864392754
 10
99.88416193914244
 20
19.9482429122298
 10
102.72437479300531
 20
22.692426967328117
 10
105.36631056191496
 20
25.62799004388755
 10
107.79710630259592
 20
28.74063959862233
 10
110.00492706126367
 20
32.015220897215954
 10
111.97902349513879
 20
35.43579079904004
 10
113.70978420838489
 20
38.98569538043199
 10
115.18878254765934
 20
42.64765101860222
 10
116.40881762944093
 20
46.403828541393914
 10
117.36394939938165
 20
50.235940033189735
 10
118.04952755298815
 20
54.12532787432885
 10
118.46221417682418
 20
58.05305558052364
 10
118.6
 20
61.999999999999936
  0
LWPOLYLINE
  5
5B
330
17
100
AcDbEntity
  8
XY_AFT
100
AcDbPolyline
 90
12
 70
0
 10
66.2
 20
123.0
 10
65.56723689147772
 20
123.0
 10
63.804059874657376
 20
123.0
 10
61.40022705743618
 20
123.0
 10
59.2173724082113
 20
123.0
 10
57.969155534451986
 20
123.0
 10
57.952623035742256
 20
123.0
 10
59.18548194176922
 20
123.0
 10
61.366778363930734
 20
123.0
 10
63.77632472759834
 20
123.0
 10
65.56073910669252
 20
123.0
 10
66.2
 20
123.0
  0
LWPOLYLINE
  5
5C
330
17
100
AcDbEntity
  8
XY_AFT
100
AcDbPolyline
 90
12
 70
0
 10
66.2
 20
113.0
 10
66.2
 20
113.8606476219015
 10
66.2
 20
114.73208789422794
 10
66.2
 20
115.61396100889802
 10
66.2
 20
116.50590285022483
 10
66.2
 20
117.40754514525528
 10
66.2
 20
118.31851561582585
 10
66.2
 20
119.2384381322722
 10
66.2
 20
120.16693286872894
 10
66.2
 20
121.10361645995548
 10
66.2
 20
122.04810215962348
 10
66.2
 20
122.99999999999999
  0
LWPOLYLINE
  5
5D
330
17
100
AcDbEntity
  8
XY_AFT
100
AcDbPolyline
 90
90
 70
0
 10
118.6
 20
62.0
 10
118.45901082353323
 20
65.9925050817948
 10
118.03674569511811
 20
69.9651197041012
 10
117.33530831838384
 20
73.89805250069946
 10
116.35819321905791
 20
77.77170979822945
 10
115.11026833541479
 20
81.56679323088576
 10
113.59775076645226
 20
85.2643958839054
 10
111.82817579861697
 20
88.84609648686606
 10
109.81035936538632
 20
92.29405118752882
 10
107.55435412673143
 20
95.59108244901236
 10
105.07139938727079
 20
98.7207646274177
 10
102.37386510261992
 20
101.66750580355978
 10
99.4751902528949
 20
104.41662546112468
 10
96.38981589038929
 20
106.95442762426332
 10
93.13311319497802
 20
109.26826909025425
 10
89.72130689567253
 20
111.34662241730368
 10
86.17139443983689
 20
113.17913335368061
 10
82.50106131276003
 20
114.75667242207808
 10
78.7285929294577
 20
116.07138040220998
 10
74.87278353765461
 20
117.11670748505111
 10
70.95284258578762
 20
117.88744590365629
 10
66.98829902249986
 20
118.37975587799336
 10
62.99890400440108
 20
118.59118474453412
 10
59.00453249679875
 20
118.52067917530066
 10
55.02508425762082
 20
118.16859042549235
 10
51.08038469782248
 20
117.53667258355014
 10
47.190086112186265
 20
116.62807383237617
 10
43.37356977257783
 20
115.44732076524485
 10
39.64984937142454
 20
114.00029583454298
 10
36.03747629645606
 20
112.29420804568772
 10
32.55444720862407
 20
110.33755704222435
 10
29.218114383642394
 20
108.14009076102957
 10
26.045099263822515
 20
105.71275686858041
 10
23.051209650883827
 20
103.06764822023042
 10
20.25136095228077
 20
100.21794261421267
 10
17.659501873393133
 20
97.17783714051183
 10
15.288544925777472
 20
93.96247745167591
 10
13.15030209768404
 20
90.58788230793718
 10
11.255426007325504
 20
87.07086377255445
 10
9.613356832068888
 20
83.42894345495962
 10
8.232275277946727
 20
79.68026521898078
 10
7.119061823791128
 20
75.84350479102527
 10
6.2792624430343835
 20
71.93777671855037
 10
5.717060973948222
 20
67.98253914234895
 10
5.435258275972032
 20
63.99749685707126
 10
5.435258275972032
 20
60.00250314292875
 10
5.717060973948222
 20
56.017460857651
 10
6.2792624430343835
 20
52.062223281449654
 10
7.119061823791128
 20
48.15649520897472
 10
8.23227527794672
 20
44.319734781019235
 10
9.613356832068881
 20
40.57105654504039
 10
11.255426007325497
 20
36.92913622744556
 10
13.150302097684033
 20
33.41211769206283
 10
15.28854492577748
 20
30.037522548324084
 10
17.659501873393154
 20
26.822162859488145
 10
20.251360952280777
 20
23.78205738578732
 10
23.051209650883813
 20
20.93235177976959
 10
26.04509926382253
 20
18.28724313141958
 10
29.21811438364243
 20
15.859909238970403
 10
32.554447208624055
 20
13.662442957775653
 10
36.03747629645608
 20
11.705791954312275
 10
39.64984937142454
 20
9.999704165457018
 10
43.37356977257785
 20
8.55267923475514
 10
47.190086112186236
 20
7.37192616762384
 10
51.08038469782247
 20
6.463327416449857
 10
55.02508425762081
 20
5.831409574507646
 10
59.004532496798774
 20
5.479320824699343
 10
62.99890400440105
 20
5.408815255465875
 10
66.98829902249989
 20
5.620244122006639
 10
70.95284258578765
 20
6.112554096343715
 10
74.87278353765467
 20
6.883292514948906
 10
78.72859292945772
 20
7.928619597790025
 10
82.50106131276004
 20
9.243327577921924
 10
86.1713944398369
 20
10.820866646319402
 10
89.72130689567251
 20
12.653377582696308
 10
93.13311319497802
 20
14.731730909745743
 10
96.38981589038929
 20
17.04557237573669
 10
99.47519025289488
 20
19.58337453887529
 10
102.3738651026199
 20
22.332494196440194
 10
105.07139938727073
 20
25.279235372582257
 10
107.55435412673141
 20
28.40891755098759
 10
109.81035936538633
 20
31.705948812471185
 10
111.82817579861697
 20
35.153903513133955
 10
113.59775076645226
 20
38.735604116094585
 10
115.11026833541479
 20
42.43320676911422
 10
116.35819321905791
 20
46.228290201770534
 10
117.33530831838384
 20
50.10194749930054
 10
118.03674569511811
 20
54.03488029589876
 10
118.45901082353323
 20
58.007494918205175
 10
118.6
 20
61.999999999999986
  0
LWPOLYLINE
  5
5E
330
17
100
AcDbEntity
  8
XY_AFT
100
AcDbPolyline
 90
96
 70
0
 10
124.0
 20
62.0
 10
123.86444488756402
 20
66.09761622819336
 10
123.45837229827247
 20
70.17731462320828
 10
122.78355788423818
 20
74.22125570199178
 10
121.84295243719562
 20
78.21175633913683
 10
120.64066898543936
 20
82.13136709069038
 10
119.18196480859785
 20
85.96294849613204
 10
117.47321844888734
 20
89.689746024874
 10
115.52190181936957
 20
93.29546333956031
 10
113.33654753117725
 20
96.76433355580372
 10
110.92671158257642
 20
100.08118818675939
 10
108.30293157301755
 20
103.23152347105858
 10
105.4766806248943
 20
106.20156379406662
 10
102.46031721449845
 20
108.97832192514075
 10
99.26703113154755
 20
111.54965580748532
 10
95.91078580359047
 20
113.90432165227676
 10
92.4062572374915
 20
116.03202310489118
 10
88.76876984498658
 20
117.92345626824346
 10
85.01422943292968
 20
119.57035038636184
 10
81.15905365124675
 20
120.96550401029953
 10
77.22010020272957
 20
122.10281648823849
 10
73.21459312859082
 20
122.9773146420877
 10
69.16004749211434
 20
123.58517451392557
 10
65.07419278973978
 20
123.92373808719489
 10
60.97489542448579
 20
123.99152490953307
 10
56.880080580715415
 20
123.78823856641353
 10
52.8076538418658
 20
123.31476797729104
 10
48.77542289388771
 20
122.57318350858316
 10
44.80101965676566
 20
121.5667279204846
 10
40.90182318461813
 20
120.299802187202
 10
37.0948836715159
 20
118.77794625261356
 10
33.39684789532136
 20
117.00781480550393
 10
29.82388642556466
 20
114.99714818030341
 10
26.3916229136575
 20
112.75473851057492
 10
23.115065774640726
 20
110.29039128325098
 10
20.00854255920406
 20
107.61488246173417
 10
17.085637302952485
 20
104.73991136535108
 10
14.359131126874757
 20
101.67804951120564
 10
11.840946348753263
 20
98.44268564213334
 10
9.542094349902008
 20
95.04796718113563
 10
7.4726274251977
 20
91.5087383682986
 10
5.641594826951923
 20
87.840475350708
 10
4.057003194833435
 20
84.05921850919603
 10
2.7257815448698253
 20
80.18150231783682
 10
1.6537509706236406
 20
76.22428304289862
 10
0.8455991890312191
 20
72.2048645974055
 10
0.30486004220929175
 20
68.14082287552868
 10
0.033898044862581855
 20
64.04992889767313
 10
0.033898044862581855
 20
59.95007110232692
 10
0.30486004220929175
 20
55.8591771244713
 10
0.845599189031212
 20
51.79513540259453
 10
1.6537509706236335
 20
47.77571695710142
 10
2.725781544869818
 20
43.8184976821632
 10
4.05700319483342
 20
39.94078149080401
 10
5.641594826951916
 20
36.15952464929201
 10
7.472627425197679
 20
32.49126163170144
 10
9.54209434990198
 20
28.95203281886443
 10
11.840946348753235
 20
25.557314357866694
 10
14.359131126874743
 20
22.32195048879438
 10
17.085637302952478
 20
19.26008863464893
 10
20.00854255920403
 20
16.38511753826586
 10
23.11506577464069
 20
13.709608716749045
 10
26.391622913657486
 20
11.245261489425076
 10
29.823886425564616
 20
9.002851819696609
 10
33.39684789532137
 20
6.992185194496059
 10
37.09488367151587
 20
5.222053747386447
 10
40.90182318461812
 20
3.7001978127980095
 10
44.801019656765575
 20
2.433272079515426
 10
48.77542289388765
 20
1.4268164914168509
 10
52.807653841865815
 20
0.6852320227089521
 10
56.88008058071537
 20
0.21176143358646726
 10
60.97489542448576
 20
0.008475090466923518
 10
65.07419278973978
 20
0.07626191280510142
 10
69.16004749211429
 20
0.4148254860744274
 10
73.21459312859078
 20
1.0226853579122874
 10
77.22010020272953
 20
1.8971835117615115
 10
81.15905365124672
 20
3.034495989700474
 10
85.01422943292968
 20
4.429649613638162
 10
88.76876984498652
 20
6.07654373175653
 10
92.40625723749153
 20
7.967976895108819
 10
95.9107858035904
 20
10.095678347723187
 10
99.26703113154755
 20
12.450344192514656
 10
102.46031721449845
 20
15.021678074859253
 10
105.47668062489427
 20
17.79843620593335
 10
108.30293157301752
 20
20.76847652894139
 10
110.92671158257639
 20
23.91881181324058
 10
113.33654753117725
 20
27.235666444196283
 10
115.52190181936956
 20
30.704536660439643
 10
117.47321844888731
 20
34.31025397512596
 10
119.18196480859784
 20
38.03705150386793
 10
120.64066898543935
 20
41.86863290930961
 10
121.8429524371956
 20
45.78824366086312
 10
122.78355788423818
 20
49.77874429800823
 10
123.45837229827248
 20
53.822685376791746
 10
123.86444488756402
 20
57.902383771806605
 10
124.0
 20
61.999999999999986
  0
DIMENSION
  5
5F
330
17
100
AcDbEntity
  8
DIMENSIONS
100
AcDbDimension
280
0
  2
*D1
  3
Standard
 10
0.0
 20
-25.0
 30
0.0
 11
62.0
 21
-25.0
 31
0.0
 70
32
 71
5
  1
<>
100
AcDbAlignedDimension
 13
0.0
 23
0.0
 33
0.0
 14
124.0
 24
0.0
 34
0.0
 50
0.0
100
AcDbRotatedDimension
1001
ACAD
1000
DSTYLE
1002
{
1070
140
1040
3.0
1070
41
1040
3.0
1070
271
1070
3
1002
}
  0
DIMENSION
  5
73
330
17
100
AcDbEntity
  8
DIMENSIONS
100
AcDbDimension
280
0
  2
*D2
  3
Standard
 10
-25.0
 20
0.0
 30
0.0
 11
-25.0
 21
98.5
 31
0.0
 70
32
 71
5
  1
<>
100
AcDbAlignedDimension
 13
0.0
 23
0.0
 33
0.0
 14
0.0
 24
197.0
 34
0.0
 50
90.0
100
AcDbRotatedDimension
1001
ACAD
1000
DSTYLE
1002
{
1070
140
1040
3.0
1070
41
1040
3.0
1070
271
1070
3
1002
}
  0
LWPOLYLINE
  5
83
330
17
100
AcDbEntity
  8
XZ_SIDE
100
AcDbPolyline
 90
2
 70
0
 10
50.0
 20
-416.79999999999995
 10
50.0
 20
-398.79999999999995
  0
LWPOLYLINE
  5
84
330
17
100
AcDbEntity
  8
XZ_SIDE
100
AcDbPolyline
 90
2
 70
0
 10
50.0
 20
-416.79999999999995
 10
50.0
 20
-398.79999999999995
  0
LWPOLYLINE
  5
85
330
17
100
AcDbEntity
  8
XZ_SIDE
100
AcDbPolyline
 90
2
 70
0
 10
50.0
 20
-416.79999999999995
 10
56.0
 20
-416.79999999999995
  0
LWPOLYLINE
  5
86
330
17
100
AcDbEntity
  8
XZ_SIDE
100
AcDbPolyline
 90
2
 70
0
 10
56.0
 20
-413.0
 10
56.0
 20
-416.79999999999995
  0
LWPOLYLINE
  5
87
330
17
100
AcDbEntity
  8
XZ_SIDE
100
AcDbPolyline
 90
2
 70
0
 10
50.0
 20
-398.79999999999995
 10
74.0
 20
-398.79999999999995
  0
LWPOLYLINE
  5
88
330
17
100
AcDbEntity
  8
XZ_SIDE
100
AcDbPolyline
 90
2
 70
0
 10
56.0
 20
-413.0
 10
68.0
 20
-413.0
  0
LWPOLYLINE
  5
89
330
17
100
AcDbEntity
  8
XZ_SIDE
100
AcDbPolyline
 90
2
 70
0
 10
74.0
 20
-416.79999999999995
 10
74.0
 20
-398.79999999999995
  0
LWPOLYLINE
  5
8A
330
17
100
AcDbEntity
  8
XZ_SIDE
100
AcDbPolyline
 90
2
 70
0
 10
68.0
 20
-413.0
 10
68.0
 20
-416.79999999999995
  0
LWPOLYLINE
  5
8B
330
17
100
AcDbEntity
  8
XZ_SIDE
100
AcDbPolyline
 90
2
 70
0
 10
68.0
 20
-416.79999999999995
 10
74.0
 20
-416.79999999999995
  0
LWPOLYLINE
  5
8C
330
17
100
AcDbEntity
  8
XZ_SIDE
100
AcDbPolyline
 90
12
 70
0
 10
66.2
 20
-407.79999999999995
 10
65.53326483789095
 20
-410.07069143331347
 10
63.74474305460792
 20
-411.6204543804889
 10
61.4022776792522
 20
-411.95725005589986
 10
59.2495849174298
 20
-410.97414821228784
 10
57.97012951081911
 20
-408.983276738734
 10
57.97012951081911
 20
-406.616723261266
 10
59.2495849174298
 20
-404.62585178771207
 10
61.4022776792522
 20
-403.64274994410005
 10
63.74474305460792
 20
-403.979545619511
 10
65.53326483789095
 20
-405.52930856668644
 10
66.2
 20
-407.79999999999995
  0
LWPOLYLINE
  5
8D
330
17
100
AcDbEntity
  8
XZ_SIDE
100
AcDbPolyline
 90
2
 70
0
 10
50.0
 20
-398.79999999999995
 10
74.0
 20
-398.79999999999995
  0
LWPOLYLINE
  5
8E
330
17
100
AcDbEntity
  8
XZ_SIDE
100
AcDbPolyline
 90
2
 70
0
 10
50.0
 20
-416.79999999999995
 10
74.0
 20
-416.79999999999995
  0
LWPOLYLINE
  5
8F
330
17
100
AcDbEntity
  8
XZ_SIDE
100
AcDbPolyline
 90
2
 70
0
 10
74.0
 20
-416.79999999999995
 10
74.0
 20
-398.79999999999995
  0
LWPOLYLINE
  5
90
330
17
100
AcDbEntity
  8
XZ_SIDE
100
AcDbPolyline
 90
12
 70
0
 10
66.2
 20
-407.79999999999995
 10
65.53326483789095
 20
-410.07069143331347
 10
63.74474305460792
 20
-411.6204543804889
 10
61.4022776792522
 20
-411.95725005589986
 10
59.2495849174298
 20
-410.97414821228784
 10
57.97012951081911
 20
-408.983276738734
 10
57.97012951081911
 20
-406.616723261266
 10
59.2495849174298
 20
-404.62585178771207
 10
61.4022776792522
 20
-403.64274994410005
 10
63.74474305460792
 20
-403.979545619511
 10
65.53326483789095
 20
-405.52930856668644
 10
66.2
 20
-407.79999999999995
  0
LWPOLYLINE
  5
91
330
17
100
AcDbEntity
  8
XZ_SIDE
100
AcDbPolyline
 90
2
 70
0
 10
68.0
 20
-416.79999999999995
 10
56.0
 20
-416.79999999999995
  0
LWPOLYLINE
  5
92
330
17
100
AcDbEntity
  8
XZ_SIDE
100
AcDbPolyline
 90
2
 70
0
 10
56.0
 20
-423.0
 10
56.0
 20
-330.9
  0
LWPOLYLINE
  5
93
330
17
100
AcDbEntity
  8
XZ_SIDE
100
AcDbPolyline
 90
2
 70
0
 10
56.0
 20
-330.9
 10
56.0
 20
-317.0
  0
LWPOLYLINE
  5
94
330
17
100
AcDbEntity
  8
XZ_SIDE
100
AcDbPolyline
 90
2
 70
0
 10
56.0
 20
-317.0
 10
56.0
 20
-307.0
  0
LWPOLYLINE
  5
95
330
17
100
AcDbEntity
  8
XZ_SIDE
100
AcDbPolyline
 90
2
 70
0
 10
56.0
 20
-413.0
 10
56.0
 20
-307.0
  0
LWPOLYLINE
  5
96
330
17
100
AcDbEntity
  8
XZ_SIDE
100
AcDbPolyline
 90
2
 70
0
 10
56.0
 20
-423.0
 10
56.0
 20
-416.79999999999995
  0
LWPOLYLINE
  5
97
330
17
100
AcDbEntity
  8
XZ_SIDE
100
AcDbPolyline
 90
2
 70
0
 10
68.0
 20
-413.0
 10
56.0
 20
-413.0
  0
LWPOLYLINE
  5
98
330
17
100
AcDbEntity
  8
XZ_SIDE
100
AcDbPolyline
 90
2
 70
0
 10
68.0
 20
-330.9
 10
68.0
 20
-423.0
  0
LWPOLYLINE
  5
99
330
17
100
AcDbEntity
  8
XZ_SIDE
100
AcDbPolyline
 90
2
 70
0
 10
68.0
 20
-330.9
 10
68.0
 20
-317.0
  0
LWPOLYLINE
  5
9A
330
17
100
AcDbEntity
  8
XZ_SIDE
100
AcDbPolyline
 90
2
 70
0
 10
68.0
 20
-317.0
 10
68.0
 20
-307.0
  0
LWPOLYLINE
  5
9B
330
17
100
AcDbEntity
  8
XZ_SIDE
100
AcDbPolyline
 90
2
 70
0
 10
68.0
 20
-413.0
 10
68.0
 20
-307.0
  0
LWPOLYLINE
  5
9C
330
17
100
AcDbEntity
  8
XZ_SIDE
100
AcDbPolyline
 90
2
 70
0
 10
68.0
 20
-423.0
 10
68.0
 20
-416.79999999999995
  0
LWPOLYLINE
  5
9D
330
17
100
AcDbEntity
  8
XZ_SIDE
100
AcDbPolyline
 90
2
 70
0
 10
56.0
 20
-423.0
 10
68.0
 20
-423.0
  0
LWPOLYLINE
  5
9E
330
17
100
AcDbEntity
  8
XZ_SIDE
100
AcDbPolyline
 90
2
 70
0
 10
56.0
 20
-330.9
 10
68.0
 20
-330.9
  0
LWPOLYLINE
  5
9F
330
17
100
AcDbEntity
  8
XZ_SIDE
100
AcDbPolyline
 90
2
 70
0
 10
56.0
 20
-423.0
 10
68.0
 20
-423.0
  0
LWPOLYLINE
  5
A0
330
17
100
AcDbEntity
  8
XZ_SIDE
100
AcDbPolyline
 90
12
 70
0
 10
66.2
 20
-399.8832508250016
 10
65.62399438650269
 20
-397.33754676493885
 10
63.924515384576054
 20
-395.37157829647225
 10
61.40724763762918
 20
-394.8471656550055
 10
59.17172500923899
 20
-396.142450464794
 10
57.97345035469734
 20
-398.4567838185385
 10
57.92078076499033
 20
-401.0665975833404
 10
59.060553433048796
 20
-403.40695009865306
 10
61.284418681866136
 20
-404.7253357882964
 10
63.828203592393976
 20
-404.31258210907276
 10
65.60499205062959
 20
-402.4222389531988
 10
66.2
 20
-399.8832508250016
  0
LWPOLYLINE
  5
A1
330
17
100
AcDbEntity
  8
XZ_SIDE
100
AcDbPolyline
 90
12
 70
0
 10
68.00000000000001
 20
-330.9
 10
66.91202371621651
 20
-330.9
 10
65.82228833655935
 20
-330.9
 10
64.73118411749323
 20
-330.9
 10
63.63910180569204
 20
-330.9
 10
62.54643249810471
 20
-330.9
 10
61.4535675018953
 20
-330.9
 10
60.360898194307964
 20
-330.9
 10
59.268815882506786
 20
-330.9
 10
58.177711663440654
 20
-330.9
 10
57.087976283783505
 20
-330.9
 10
56.0
 20
-330.9
  0
LWPOLYLINE
  5
A2
330
17
100
AcDbEntity
  8
XZ_SIDE
100
AcDbPolyline
 90
12
 70
0
 10
68.00000000000001
 20
-317.0
 10
66.91202371621651
 20
-317.0
 10
65.82228833655935
 20
-317.0
 10
64.73118411749323
 20
-317.0
 10
63.63910180569204
 20
-317.0
 10
62.54643249810471
 20
-317.0
 10
61.4535675018953
 20
-317.0
 10
60.360898194307964
 20
-317.0
 10
59.268815882506786
 20
-317.0
 10
58.177711663440654
 20
-317.0
 10
57.087976283783505
 20
-317.0
 10
56.0
 20
-317.0
  0
LWPOLYLINE
  5
A3
330
17
100
AcDbEntity
  8
XZ_SIDE
100
AcDbPolyline
 90
12
 70
0
 10
68.0
 20
-317.0
 10
66.91214467282752
 20
-317.0
 10
65.82245772533606
 20
-317.0
 10
64.7313454755165
 20
-317.0
 10
63.6392147728206
 20
-317.0
 10
62.54647284645662
 20
-317.0
 10
61.453527153543384
 20
-317.0
 10
60.360785227179406
 20
-317.0
 10
59.268654524483495
 20
-317.0
 10
58.17754227466394
 20
-317.0
 10
57.087855327172484
 20
-317.0
 10
56.0
 20
-317.0
  0
LWPOLYLINE
  5
A4
330
17
100
AcDbEntity
  8
XZ_SIDE
100
AcDbPolyline
 90
2
 70
0
 10
68.0
 20
-307.0
 10
68.0
 20
-302.0
  0
LWPOLYLINE
  5
A5
330
17
100
AcDbEntity
  8
XZ_SIDE
100
AcDbPolyline
 90
12
 70
0
 10
68.0
 20
-302.0
 10
66.91214467282752
 20
-302.0
 10
65.82245772533606
 20
-302.0
 10
64.7313454755165
 20
-302.0
 10
63.6392147728206
 20
-302.0
 10
62.54647284645662
 20
-302.0
 10
61.453527153543384
 20
-302.0
 10
60.360785227179406
 20
-302.0
 10
59.268654524483495
 20
-302.0
 10
58.17754227466394
 20
-302.0
 10
57.087855327172484
 20
-302.0
 10
56.0
 20
-302.0
  0
LWPOLYLINE
  5
A6
330
17
100
AcDbEntity
  8
XZ_SIDE
100
AcDbPolyline
 90
2
 70
0
 10
56.0
 20
-307.0
 10
56.0
 20
-302.0
  0
LWPOLYLINE
  5
A7
330
17
100
AcDbEntity
  8
XZ_SIDE
100
AcDbPolyline
 90
96
 70
0
 10
124.0
 20
-307.0
 10
123.86444488756402
 20
-307.0
 10
123.45837229827247
 20
-307.0
 10
122.78355788423818
 20
-307.0
 10
121.84295243719562
 20
-307.0
 10
120.64066898543936
 20
-307.0
 10
119.18196480859785
 20
-307.0
 10
117.47321844888734
 20
-307.0
 10
115.52190181936957
 20
-307.0
 10
113.33654753117725
 20
-307.0
 10
110.92671158257642
 20
-307.0
 10
108.30293157301755
 20
-307.0
 10
105.4766806248943
 20
-307.0
 10
102.46031721449845
 20
-307.0
 10
99.26703113154755
 20
-307.0
 10
95.91078580359047
 20
-307.0
 10
92.4062572374915
 20
-307.0
 10
88.76876984498658
 20
-307.0
 10
85.01422943292968
 20
-307.0
 10
81.15905365124675
 20
-307.0
 10
77.22010020272957
 20
-307.0
 10
73.21459312859082
 20
-307.0
 10
69.16004749211434
 20
-307.0
 10
65.07419278973978
 20
-307.0
 10
60.97489542448579
 20
-307.0
 10
56.880080580715415
 20
-307.0
 10
52.8076538418658
 20
-307.0
 10
48.77542289388771
 20
-307.0
 10
44.80101965676566
 20
-307.0
 10
40.90182318461813
 20
-307.0
 10
37.0948836715159
 20
-307.0
 10
33.39684789532136
 20
-307.0
 10
29.82388642556466
 20
-307.0
 10
26.3916229136575
 20
-307.0
 10
23.115065774640726
 20
-307.0
 10
20.00854255920406
 20
-307.0
 10
17.085637302952485
 20
-307.0
 10
14.359131126874757
 20
-307.0
 10
11.840946348753263
 20
-307.0
 10
9.542094349902008
 20
-307.0
 10
7.4726274251977
 20
-307.0
 10
5.641594826951923
 20
-307.0
 10
4.057003194833435
 20
-307.0
 10
2.7257815448698253
 20
-307.0
 10
1.6537509706236406
 20
-307.0
 10
0.8455991890312191
 20
-307.0
 10
0.30486004220929175
 20
-307.0
 10
0.033898044862581855
 20
-307.0
 10
0.033898044862581855
 20
-307.0
 10
0.30486004220929175
 20
-307.0
 10
0.845599189031212
 20
-307.0
 10
1.6537509706236335
 20
-307.0
 10
2.725781544869818
 20
-307.0
 10
4.05700319483342
 20
-307.0
 10
5.641594826951916
 20
-307.0
 10
7.472627425197679
 20
-307.0
 10
9.54209434990198
 20
-307.0
 10
11.840946348753235
 20
-307.0
 10
14.359131126874743
 20
-307.0
 10
17.085637302952478
 20
-307.0
 10
20.00854255920403
 20
-307.0
 10
23.11506577464069
 20
-307.0
 10
26.391622913657486
 20
-307.0
 10
29.823886425564616
 20
-307.0
 10
33.39684789532137
 20
-307.0
 10
37.09488367151587
 20
-307.0
 10
40.90182318461812
 20
-307.0
 10
44.801019656765575
 20
-307.0
 10
48.77542289388765
 20
-307.0
 10
52.807653841865815
 20
-307.0
 10
56.88008058071537
 20
-307.0
 10
60.97489542448576
 20
-307.0
 10
65.07419278973978
 20
-307.0
 10
69.16004749211429
 20
-307.0
 10
73.21459312859078
 20
-307.0
 10
77.22010020272953
 20
-307.0
 10
81.15905365124672
 20
-307.0
 10
85.01422943292968
 20
-307.0
 10
88.76876984498652
 20
-307.0
 10
92.40625723749153
 20
-307.0
 10
95.9107858035904
 20
-307.0
 10
99.26703113154755
 20
-307.0
 10
102.46031721449845
 20
-307.0
 10
105.47668062489427
 20
-307.0
 10
108.30293157301752
 20
-307.0
 10
110.92671158257639
 20
-307.0
 10
113.33654753117725
 20
-307.0
 10
115.52190181936956
 20
-307.0
 10
117.47321844888731
 20
-307.0
 10
119.18196480859784
 20
-307.0
 10
120.64066898543935
 20
-307.0
 10
121.8429524371956
 20
-307.0
 10
122.78355788423818
 20
-307.0
 10
123.45837229827248
 20
-307.0
 10
123.86444488756402
 20
-307.0
 10
124.0
 20
-307.0
  0
LWPOLYLINE
  5
A8
330
17
100
AcDbEntity
  8
XZ_SIDE
100
AcDbPolyline
 90
22
 70
0
 10
118.6
 20
-307.0
 10
118.46240464915451
 20
-307.0
 10
118.05028758886442
 20
-307.0
 10
117.36565254321106
 20
-307.0
 10
116.41182822595084
 20
-307.0
 10
115.19345215622086
 20
-307.0
 10
113.71644811079761
 20
-307.0
 10
111.98799732253732
 20
-307.0
 10
110.01650356503116
 20
-307.0
 10
107.81155229323505
 20
-307.0
 10
105.38386403873348
 20
-307.0
 10
102.74524228623036
 20
-307.0
 10
99.90851608469339
 20
-307.0
 10
96.8874776721774
 20
-307.0
 10
93.69681541759716
 20
-307.0
 10
90.35204240548796
 20
-307.0
 10
86.86942101097702
 20
-307.0
 10
83.26588383168409
 20
-307.0
 10
79.55895136098269
 20
-307.0
 10
75.76664680289633
 20
-307.0
 10
71.90740844280255
 20
-307.0
 10
68.0
 20
-307.0
  0
LWPOLYLINE
  5
A9
330
17
100
AcDbEntity
  8
XZ_SIDE
100
AcDbPolyline
 90
2
 70
0
 10
56.0
 20
-307.0
 10
68.0
 20
-307.0
  0
LWPOLYLINE
  5
AA
330
17
100
AcDbEntity
  8
XZ_SIDE
100
AcDbPolyline
 90
67
 70
0
 10
56.0
 20
-307.0
 10
52.08990139783713
 20
-307.0
 10
48.228052657640774
 20
-307.0
 10
44.43325618250807
 20
-307.0
 10
40.72398791435105
 20
-307.0
 10
37.11830737902511
 20
-307.0
 10
33.63376975888609
 20
-307.0
 10
30.287340420873072
 20
-307.0
 10
27.095312316259523
 20
-307.0
 10
24.073226654232542
 20
-307.0
 10
21.2357972355218
 20
-307.0
 10
18.596838814479227
 20
-307.0
 10
16.169199838397084
 20
-307.0
 10
13.964699891540157
 20
-307.0
 10
11.994072148462074
 20
-307.0
 10
10.266911116786659
 20
-307.0
 10
8.791625923881625
 20
-307.0
 10
7.575399374860865
 20
-307.0
 10
6.6241529812517825
 20
-307.0
 10
5.942518130594543
 20
-307.0
 10
5.53381353734153
 20
-307.0
 10
5.400029084843176
 20
-307.0
 10
5.541816137089441
 20
-307.0
 10
5.958484367376819
 20
-307.0
 10
6.648005119341292
 20
-307.0
 10
7.607021283993241
 20
-307.0
 10
8.830863644665335
 20
-307.0
 10
10.313573610293886
 20
-307.0
 10
12.047932226350788
 20
-307.0
 10
14.02549532217894
 20
-307.0
 10
16.236634623607337
 20
-307.0
 10
18.670584630678192
 20
-307.0
 10
21.31549503225044
 20
-307.0
 10
24.158488402284952
 20
-307.0
 10
27.185722896902853
 20
-307.0
 10
30.38245964695964
 20
-307.0
 10
33.73313451801778
 20
-307.0
 10
37.22143388833517
 20
-307.0
 10
40.83037407592502
 20
-307.0
 10
44.54238402797682
 20
-307.0
 10
48.33939087004251
 20
-307.0
 10
52.20290789847058
 20
-307.0
 10
56.114124587673814
 20
-307.0
 10
60.05399817400772
 20
-307.0
 10
64.0033463703592
 20
-307.0
 10
67.94294076004114
 20
-307.0
 10
71.85360041528118
 20
-307.0
 10
75.71628528449766
 20
-307.0
 10
79.5121888936845
 20
-307.0
 10
83.22282991056298
 20
-307.0
 10
86.83014212569776
 20
-307.0
 10
90.3165624124805
 20
-307.0
 10
93.66511623772566
 20
-307.0
 10
96.85950030654773
 20
-307.0
 10
99.88416193914244
 20
-307.0
 10
102.72437479300531
 20
-307.0
 10
105.36631056191496
 20
-307.0
 10
107.79710630259592
 20
-307.0
 10
110.00492706126367
 20
-307.0
 10
111.97902349513879
 20
-307.0
 10
113.70978420838489
 20
-307.0
 10
115.18878254765934
 20
-307.0
 10
116.40881762944093
 20
-307.0
 10
117.36394939938165
 20
-307.0
 10
118.04952755298815
 20
-307.0
 10
118.46221417682418
 20
-307.0
 10
118.6
 20
-307.0
  0
LWPOLYLINE
  5
AB
330
17
100
AcDbEntity
  8
XZ_SIDE
100
AcDbPolyline
 90
12
 70
0
 10
66.2
 20
-404.82127178203496
 10
65.56723689147772
 20
-402.45670009571654
 10
63.804059874657376
 20
-400.76632278845955
 10
61.40022705743618
 20
-400.37446182272095
 10
59.2173724082113
 20
-401.4612215176335
 10
57.969155534451986
 20
-403.56458058363194
 10
57.952623035742256
 20
-406.0125741295957
 10
59.18548194176922
 20
-408.12358677322743
 10
61.366778363930734
 20
-409.21437682656557
 10
63.77632472759834
 20
-408.8497011217007
 10
65.56073910669252
 20
-407.1831675508017
 10
66.2
 20
-404.82127178203496
  0
LWPOLYLINE
  5
AC
330
17
100
AcDbEntity
  8
XZ_SIDE
100
AcDbPolyline
 90
12
 70
0
 10
66.2
 20
-399.8832508250016
 10
66.2
 20
-400.4231657347691
 10
66.2
 20
-400.94548200930166
 10
66.2
 20
-401.44998398996785
 10
66.2
 20
-401.93646337346166
 10
66.2
 20
-402.4047192978088
 10
66.2
 20
-402.8545584253004
 10
66.2
 20
-403.28579502232
 10
66.2
 20
-403.6982510360307
 10
66.2
 20
-404.0917561678916
 10
66.2
 20
-404.466147943972
 10
66.2
 20
-404.82127178203496
  0
LWPOLYLINE
  5
AD
330
17
100
AcDbEntity
  8
XZ_SIDE
100
AcDbPolyline
 90
2
 70
0
 10
118.6
 20
-307.0
 10
118.6
 20
-297.0
  0
LWPOLYLINE
  5
AE
330
17
100
AcDbEntity
  8
XZ_SIDE
100
AcDbPolyline
 90
90
 70
0
 10
118.6
 20
-297.0
 10
118.45901082353323
 20
-297.0
 10
118.03674569511811
 20
-297.0
 10
117.33530831838384
 20
-297.0
 10
116.35819321905791
 20
-297.0
 10
115.11026833541479
 20
-297.0
 10
113.59775076645226
 20
-297.0
 10
111.82817579861697
 20
-297.0
 10
109.81035936538632
 20
-297.0
 10
107.55435412673143
 20
-297.0
 10
105.07139938727079
 20
-297.0
 10
102.37386510261992
 20
-297.0
 10
99.4751902528949
 20
-297.0
 10
96.38981589038929
 20
-297.0
 10
93.13311319497802
 20
-297.0
 10
89.72130689567253
 20
-297.0
 10
86.17139443983689
 20
-297.0
 10
82.50106131276003
 20
-297.0
 10
78.7285929294577
 20
-297.0
 10
74.87278353765461
 20
-297.0
 10
70.95284258578762
 20
-297.0
 10
66.98829902249986
 20
-297.0
 10
62.99890400440108
 20
-297.0
 10
59.00453249679875
 20
-297.0
 10
55.02508425762082
 20
-297.0
 10
51.08038469782248
 20
-297.0
 10
47.190086112186265
 20
-297.0
 10
43.37356977257783
 20
-297.0
 10
39.64984937142454
 20
-297.0
 10
36.03747629645606
 20
-297.0
 10
32.55444720862407
 20
-297.0
 10
29.218114383642394
 20
-297.0
 10
26.045099263822515
 20
-297.0
 10
23.051209650883827
 20
-297.0
 10
20.25136095228077
 20
-297.0
 10
17.659501873393133
 20
-297.0
 10
15.288544925777472
 20
-297.0
 10
13.15030209768404
 20
-297.0
 10
11.255426007325504
 20
-297.0
 10
9.613356832068888
 20
-297.0
 10
8.232275277946727
 20
-297.0
 10
7.119061823791128
 20
-297.0
 10
6.2792624430343835
 20
-297.0
 10
5.717060973948222
 20
-297.0
 10
5.435258275972032
 20
-297.0
 10
5.435258275972032
 20
-297.0
 10
5.717060973948222
 20
-297.0
 10
6.2792624430343835
 20
-297.0
 10
7.119061823791128
 20
-297.0
 10
8.23227527794672
 20
-297.0
 10
9.613356832068881
 20
-297.0
 10
11.255426007325497
 20
-297.0
 10
13.150302097684033
 20
-297.0
 10
15.28854492577748
 20
-297.0
 10
17.659501873393154
 20
-297.0
 10
20.251360952280777
 20
-297.0
 10
23.051209650883813
 20
-297.0
 10
26.04509926382253
 20
-297.0
 10
29.21811438364243
 20
-297.0
 10
32.554447208624055
 20
-297.0
 10
36.03747629645608
 20
-297.0
 10
39.64984937142454
 20
-297.0
 10
43.37356977257785
 20
-297.0
 10
47.190086112186236
 20
-297.0
 10
51.08038469782247
 20
-297.0
 10
55.02508425762081
 20
-297.0
 10
59.004532496798774
 20
-297.0
 10
62.99890400440105
 20
-297.0
 10
66.98829902249989
 20
-297.0
 10
70.95284258578765
 20
-297.0
 10
74.87278353765467
 20
-297.0
 10
78.72859292945772
 20
-297.0
 10
82.50106131276004
 20
-297.0
 10
86.1713944398369
 20
-297.0
 10
89.72130689567251
 20
-297.0
 10
93.13311319497802
 20
-297.0
 10
96.38981589038929
 20
-297.0
 10
99.47519025289488
 20
-297.0
 10
102.3738651026199
 20
-297.0
 10
105.07139938727073
 20
-297.0
 10
107.55435412673141
 20
-297.0
 10
109.81035936538633
 20
-297.0
 10
111.82817579861697
 20
-297.0
 10
113.59775076645226
 20
-297.0
 10
115.11026833541479
 20
-297.0
 10
116.35819321905791
 20
-297.0
 10
117.33530831838384
 20
-297.0
 10
118.03674569511811
 20
-297.0
 10
118.45901082353323
 20
-297.0
 10
118.6
 20
-297.0
  0
LWPOLYLINE
  5
AF
330
17
100
AcDbEntity
  8
XZ_SIDE
100
AcDbPolyline
 90
96
 70
0
 10
124.0
 20
-297.0
 10
123.86444488756402
 20
-297.0
 10
123.45837229827247
 20
-297.0
 10
122.78355788423818
 20
-297.0
 10
121.84295243719562
 20
-297.0
 10
120.64066898543936
 20
-297.0
 10
119.18196480859785
 20
-297.0
 10
117.47321844888734
 20
-297.0
 10
115.52190181936957
 20
-297.0
 10
113.33654753117725
 20
-297.0
 10
110.92671158257642
 20
-297.0
 10
108.30293157301755
 20
-297.0
 10
105.4766806248943
 20
-297.0
 10
102.46031721449845
 20
-297.0
 10
99.26703113154755
 20
-297.0
 10
95.91078580359047
 20
-297.0
 10
92.4062572374915
 20
-297.0
 10
88.76876984498658
 20
-297.0
 10
85.01422943292968
 20
-297.0
 10
81.15905365124675
 20
-297.0
 10
77.22010020272957
 20
-297.0
 10
73.21459312859082
 20
-297.0
 10
69.16004749211434
 20
-297.0
 10
65.07419278973978
 20
-297.0
 10
60.97489542448579
 20
-297.0
 10
56.880080580715415
 20
-297.0
 10
52.8076538418658
 20
-297.0
 10
48.77542289388771
 20
-297.0
 10
44.80101965676566
 20
-297.0
 10
40.90182318461813
 20
-297.0
 10
37.0948836715159
 20
-297.0
 10
33.39684789532136
 20
-297.0
 10
29.82388642556466
 20
-297.0
 10
26.3916229136575
 20
-297.0
 10
23.115065774640726
 20
-297.0
 10
20.00854255920406
 20
-297.0
 10
17.085637302952485
 20
-297.0
 10
14.359131126874757
 20
-297.0
 10
11.840946348753263
 20
-297.0
 10
9.542094349902008
 20
-297.0
 10
7.4726274251977
 20
-297.0
 10
5.641594826951923
 20
-297.0
 10
4.057003194833435
 20
-297.0
 10
2.7257815448698253
 20
-297.0
 10
1.6537509706236406
 20
-297.0
 10
0.8455991890312191
 20
-297.0
 10
0.30486004220929175
 20
-297.0
 10
0.033898044862581855
 20
-297.0
 10
0.033898044862581855
 20
-297.0
 10
0.30486004220929175
 20
-297.0
 10
0.845599189031212
 20
-297.0
 10
1.6537509706236335
 20
-297.0
 10
2.725781544869818
 20
-297.0
 10
4.05700319483342
 20
-297.0
 10
5.641594826951916
 20
-297.0
 10
7.472627425197679
 20
-297.0
 10
9.54209434990198
 20
-297.0
 10
11.840946348753235
 20
-297.0
 10
14.359131126874743
 20
-297.0
 10
17.085637302952478
 20
-297.0
 10
20.00854255920403
 20
-297.0
 10
23.11506577464069
 20
-297.0
 10
26.391622913657486
 20
-297.0
 10
29.823886425564616
 20
-297.0
 10
33.39684789532137
 20
-297.0
 10
37.09488367151587
 20
-297.0
 10
40.90182318461812
 20
-297.0
 10
44.801019656765575
 20
-297.0
 10
48.77542289388765
 20
-297.0
 10
52.807653841865815
 20
-297.0
 10
56.88008058071537
 20
-297.0
 10
60.97489542448576
 20
-297.0
 10
65.07419278973978
 20
-297.0
 10
69.16004749211429
 20
-297.0
 10
73.21459312859078
 20
-297.0
 10
77.22010020272953
 20
-297.0
 10
81.15905365124672
 20
-297.0
 10
85.01422943292968
 20
-297.0
 10
88.76876984498652
 20
-297.0
 10
92.40625723749153
 20
-297.0
 10
95.9107858035904
 20
-297.0
 10
99.26703113154755
 20
-297.0
 10
102.46031721449845
 20
-297.0
 10
105.47668062489427
 20
-297.0
 10
108.30293157301752
 20
-297.0
 10
110.92671158257639
 20
-297.0
 10
113.33654753117725
 20
-297.0
 10
115.52190181936956
 20
-297.0
 10
117.47321844888731
 20
-297.0
 10
119.18196480859784
 20
-297.0
 10
120.64066898543935
 20
-297.0
 10
121.8429524371956
 20
-297.0
 10
122.78355788423818
 20
-297.0
 10
123.45837229827248
 20
-297.0
 10
123.86444488756402
 20
-297.0
 10
124.0
 20
-297.0
  0
LWPOLYLINE
  5
B0
330
17
100
AcDbEntity
  8
XZ_SIDE
100
AcDbPolyline
 90
2
 70
0
 10
124.0
 20
-307.0
 10
124.0
 20
-297.0
  0
DIMENSION
  5
B1
330
17
100
AcDbEntity
  8
DIMENSIONS
100
AcDbDimension
280
0
  2
*D3
  3
Standard
 10
0.0
 20
-448.00000009999997
 30
0.0
 11
62.0
 21
-448.00000009999997
 31
0.0
 70
32
 71
5
  1
<>
100
AcDbAlignedDimension
 13
0.0
 23
-423.00000009999997
 33
0.0
 14
124.0
 24
-423.00000009999997
 34
0.0
 50
0.0
100
AcDbRotatedDimension
1001
ACAD
1000
DSTYLE
1002
{
1070
140
1040
3.0
1070
41
1040
3.0
1070
271
1070
3
1002
}
  0
DIMENSION
  5
C1
330
17
100
AcDbEntity
  8
DIMENSIONS
100
AcDbDimension
280
0
  2
*D4
  3
Standard
 10
-25.0
 20
-423.00000009999997
 30
0.0
 11
-25.0
 21
-360.00000005
 31
0.0
 70
32
 71
5
  1
<>
100
AcDbAlignedDimension
 13
0.0
 23
-423.00000009999997
 33
0.0
 14
0.0
 24
-297.0
 34
0.0
 50
90.0
100
AcDbRotatedDimension
1001
ACAD
1000
DSTYLE
1002
{
1070
140
1040
3.0
1070
41
1040
3.0
1070
271
1070
3
1002
}
  0
LWPOLYLINE
  5
D1
330
17
100
AcDbEntity
  8
YZ_SIDE
100
AcDbPolyline
 90
2
 70
0
 10
391.0
 20
6.200000099999997
 10
391.0
 20
24.200000099999997
  0
LWPOLYLINE
  5
D2
330
17
100
AcDbEntity
  8
YZ_SIDE
100
AcDbPolyline
 90
2
 70
0
 10
391.0
 20
24.200000099999997
 10
421.0
 20
24.200000099999997
  0
LWPOLYLINE
  5
D3
330
17
100
AcDbEntity
  8
YZ_SIDE
100
AcDbPolyline
 90
2
 70
0
 10
421.0
 20
6.200000099999997
 10
421.0
 20
24.200000099999997
  0
LWPOLYLINE
  5
D4
330
17
100
AcDbEntity
  8
YZ_SIDE
100
AcDbPolyline
 90
2
 70
0
 10
391.0
 20
6.200000099999997
 10
421.0
 20
6.200000099999997
  0
LWPOLYLINE
  5
D5
330
17
100
AcDbEntity
  8
YZ_SIDE
100
AcDbPolyline
 90
2
 70
0
 10
391.0
 20
10.000000099999994
 10
391.0
 20
6.200000099999997
  0
LWPOLYLINE
  5
D6
330
17
100
AcDbEntity
  8
YZ_SIDE
100
AcDbPolyline
 90
2
 70
0
 10
391.0
 20
6.200000099999997
 10
391.0
 20
24.200000099999997
  0
LWPOLYLINE
  5
D7
330
17
100
AcDbEntity
  8
YZ_SIDE
100
AcDbPolyline
 90
2
 70
0
 10
391.0
 20
10.000000099999994
 10
391.0
 20
6.200000099999997
  0
LWPOLYLINE
  5
D8
330
17
100
AcDbEntity
  8
YZ_SIDE
100
AcDbPolyline
 90
12
 70
0
 10
391.0
 20
15.200000099999997
 10
391.0
 20
12.929308666686481
 10
391.0
 20
11.379545719511015
 10
391.0
 20
11.042750044100075
 10
391.0
 20
12.025851887712108
 10
391.0
 20
14.016723361265989
 10
391.0
 20
16.383276838734005
 10
391.0
 20
18.374148312287886
 10
391.0
 20
19.35725015589992
 10
391.0
 20
19.02045448048898
 10
391.0
 20
17.470691533313513
 10
391.0
 20
15.200000099999997
  0
LWPOLYLINE
  5
D9
330
17
100
AcDbEntity
  8
YZ_SIDE
100
AcDbPolyline
 90
2
 70
0
 10
391.0
 20
24.200000099999997
 10
421.0
 20
24.200000099999997
  0
LWPOLYLINE
  5
DA
330
17
100
AcDbEntity
  8
YZ_SIDE
100
AcDbPolyline
 90
2
 70
0
 10
421.0
 20
6.200000099999997
 10
421.0
 20
24.200000099999997
  0
LWPOLYLINE
  5
DB
330
17
100
AcDbEntity
  8
YZ_SIDE
100
AcDbPolyline
 90
12
 70
0
 10
421.0
 20
15.200000099999997
 10
421.0
 20
12.929308666686481
 10
421.0
 20
11.379545719511015
 10
421.0
 20
11.042750044100075
 10
421.0
 20
12.025851887712108
 10
421.0
 20
14.016723361265989
 10
421.0
 20
16.383276838734005
 10
421.0
 20
18.374148312287886
 10
421.0
 20
19.35725015589992
 10
421.0
 20
19.02045448048898
 10
421.0
 20
17.470691533313513
 10
421.0
 20
15.200000099999997
  0
LWPOLYLINE
  5
DC
330
17
100
AcDbEntity
  8
YZ_SIDE
100
AcDbPolyline
 90
2
 70
0
 10
391.0
 20
6.200000099999997
 10
421.0
 20
6.200000099999997
  0
LWPOLYLINE
  5
DD
330
17
100
AcDbEntity
  8
YZ_SIDE
100
AcDbPolyline
 90
2
 70
0
 10
391.0
 20
6.200000099999997
 10
397.0
 20
6.200000099999997
  0
LWPOLYLINE
  5
DE
330
17
100
AcDbEntity
  8
YZ_SIDE
100
AcDbPolyline
 90
2
 70
0
 10
391.0
 20
6.200000099999997
 10
397.0
 20
6.200000099999997
  0
LWPOLYLINE
  5
DF
330
17
100
AcDbEntity
  8
YZ_SIDE
100
AcDbPolyline
 90
2
 70
0
 10
337.0
 20
9.999999406318238e-08
 10
337.0
 20
92.10000009999999
  0
LWPOLYLINE
  5
E0
330
17
100
AcDbEntity
  8
YZ_SIDE
100
AcDbPolyline
 90
2
 70
0
 10
343.43746599563735
 20
92.10000009999999
 10
337.0
 20
92.10000009999999
  0
LWPOLYLINE
  5
E1
330
17
100
AcDbEntity
  8
YZ_SIDE
100
AcDbPolyline
 90
2
 70
0
 10
343.43746599563735
 20
92.10000009999999
 10
343.43746599563735
 20
106.0000001
  0
LWPOLYLINE
  5
E2
330
17
100
AcDbEntity
  8
YZ_SIDE
100
AcDbPolyline
 90
2
 70
0
 10
343.43746599563735
 20
106.0000001
 10
342.2810803023538
 20
106.0000001
  0
LWPOLYLINE
  5
E3
330
17
100
AcDbEntity
  8
YZ_SIDE
100
AcDbPolyline
 90
2
 70
0
 10
342.2810803023538
 20
106.0000001
 10
342.2810803023538
 20
116.0000001
  0
LWPOLYLINE
  5
E4
330
17
100
AcDbEntity
  8
YZ_SIDE
100
AcDbPolyline
 90
2
 70
0
 10
347.0
 20
116.0000001
 10
342.2810803023538
 20
116.0000001
  0
LWPOLYLINE
  5
E5
330
17
100
AcDbEntity
  8
YZ_SIDE
100
AcDbPolyline
 90
2
 70
0
 10
347.0
 20
10.000000099999994
 10
347.0
 20
116.0000001
  0
LWPOLYLINE
  5
E6
330
17
100
AcDbEntity
  8
YZ_SIDE
100
AcDbPolyline
 90
2
 70
0
 10
347.0
 20
10.000000099999994
 10
391.0
 20
10.000000099999994
  0
LWPOLYLINE
  5
E7
330
17
100
AcDbEntity
  8
YZ_SIDE
100
AcDbPolyline
 90
2
 70
0
 10
397.0
 20
9.999999406318238e-08
 10
397.0
 20
6.200000099999997
  0
LWPOLYLINE
  5
E8
330
17
100
AcDbEntity
  8
YZ_SIDE
100
AcDbPolyline
 90
2
 70
0
 10
337.0
 20
9.999999406318238e-08
 10
397.0
 20
9.999999406318238e-08
  0
LWPOLYLINE
  5
E9
330
17
100
AcDbEntity
  8
YZ_SIDE
100
AcDbPolyline
 90
2
 70
0
 10
347.0
 20
10.000000099999994
 10
391.0
 20
10.000000099999994
  0
LWPOLYLINE
  5
EA
330
17
100
AcDbEntity
  8
YZ_SIDE
100
AcDbPolyline
 90
2
 70
0
 10
337.0
 20
9.999999406318238e-08
 10
397.0
 20
9.999999406318238e-08
  0
LWPOLYLINE
  5
EB
330
17
100
AcDbEntity
  8
YZ_SIDE
100
AcDbPolyline
 90
2
 70
0
 10
337.0
 20
92.10000009999999
 10
337.0
 20
9.999999406318238e-08
  0
LWPOLYLINE
  5
EC
330
17
100
AcDbEntity
  8
YZ_SIDE
100
AcDbPolyline
 90
2
 70
0
 10
343.43746599563735
 20
92.10000009999999
 10
337.0
 20
92.10000009999999
  0
LWPOLYLINE
  5
ED
330
17
100
AcDbEntity
  8
YZ_SIDE
100
AcDbPolyline
 90
2
 70
0
 10
343.43746599563735
 20
92.10000009999999
 10
343.43746599563735
 20
106.0000001
  0
LWPOLYLINE
  5
EE
330
17
100
AcDbEntity
  8
YZ_SIDE
100
AcDbPolyline
 90
2
 70
0
 10
343.43746599563735
 20
106.0000001
 10
342.2810803023538
 20
106.0000001
  0
LWPOLYLINE
  5
EF
330
17
100
AcDbEntity
  8
YZ_SIDE
100
AcDbPolyline
 90
2
 70
0
 10
342.2810803023538
 20
106.0000001
 10
342.2810803023538
 20
116.0000001
  0
LWPOLYLINE
  5
F0
330
17
100
AcDbEntity
  8
YZ_SIDE
100
AcDbPolyline
 90
2
 70
0
 10
347.0
 20
116.0000001
 10
342.2810803023538
 20
116.0000001
  0
LWPOLYLINE
  5
F1
330
17
100
AcDbEntity
  8
YZ_SIDE
100
AcDbPolyline
 90
2
 70
0
 10
347.0
 20
10.000000099999994
 10
347.0
 20
116.0000001
  0
LWPOLYLINE
  5
F2
330
17
100
AcDbEntity
  8
YZ_SIDE
100
AcDbPolyline
 90
2
 70
0
 10
397.0
 20
9.999999406318238e-08
 10
397.0
 20
6.200000099999997
  0
LWPOLYLINE
  5
F3
330
17
100
AcDbEntity
  8
YZ_SIDE
100
AcDbPolyline
 90
2
 70
0
 10
391.0
 20
15.200000099999997
 10
421.0
 20
15.200000099999997
  0
LWPOLYLINE
  5
F4
330
17
100
AcDbEntity
  8
YZ_SIDE
100
AcDbPolyline
 90
12
 70
0
 10
337.0
 20
23.116749274998384
 10
337.0
 20
25.6624533350611
 10
337.0
 20
27.62842180352773
 10
337.0
 20
28.15283444499447
 10
337.0
 20
26.857549635205956
 10
337.0
 20
24.54321628146144
 10
337.0
 20
21.933402516659555
 10
337.0
 20
19.59305000134688
 10
337.0
 20
18.27466431170359
 10
337.0
 20
18.687417990927216
 10
337.0
 20
20.577761146801137
 10
337.0
 20
23.116749274998398
  0
LWPOLYLINE
  5
F5
330
17
100
AcDbEntity
  8
YZ_SIDE
100
AcDbPolyline
 90
12
 70
0
 10
343.43746599563735
 20
92.10000009999999
 10
343.540720563887
 20
92.10000009999999
 10
343.6233686265581
 20
92.10000009999999
 10
343.6853805856939
 20
92.10000009999999
 10
343.72673423354706
 20
92.10000009999999
 10
343.74741476053293
 20
92.10000009999999
 10
343.74741476053293
 20
92.10000009999999
 10
343.72673423354706
 20
92.10000009999999
 10
343.6853805856939
 20
92.10000009999999
 10
343.6233686265581
 20
92.10000009999999
 10
343.540720563887
 20
92.10000009999999
 10
343.43746599563735
 20
92.10000009999999
  0
LWPOLYLINE
  5
F6
330
17
100
AcDbEntity
  8
YZ_SIDE
100
AcDbPolyline
 90
12
 70
0
 10
343.43746599563735
 20
106.0000001
 10
343.540720563887
 20
106.0000001
 10
343.6233686265581
 20
106.0000001
 10
343.6853805856939
 20
106.0000001
 10
343.72673423354706
 20
106.0000001
 10
343.74741476053293
 20
106.0000001
 10
343.74741476053293
 20
106.0000001
 10
343.72673423354706
 20
106.0000001
 10
343.6853805856939
 20
106.0000001
 10
343.6233686265581
 20
106.0000001
 10
343.540720563887
 20
106.0000001
 10
343.43746599563735
 20
106.0000001
  0
LWPOLYLINE
  5
F7
330
17
100
AcDbEntity
  8
YZ_SIDE
100
AcDbPolyline
 90
12
 70
0
 10
342.2810803023538
 20
106.0000001
 10
342.38644194053404
 20
106.0000001
 10
342.47077843396545
 20
106.0000001
 10
342.5340583356031
 20
106.0000001
 10
342.57625804989726
 20
106.0000001
 10
342.5973618415919
 20
106.0000001
 10
342.5973618415919
 20
106.0000001
 10
342.57625804989726
 20
106.0000001
 10
342.5340583356031
 20
106.0000001
 10
342.47077843396545
 20
106.0000001
 10
342.38644194053404
 20
106.0000001
 10
342.2810803023538
 20
106.0000001
  0
LWPOLYLINE
  5
F8
330
17
100
AcDbEntity
  8
YZ_SIDE
100
AcDbPolyline
 90
2
 70
0
 10
342.2810803023538
 20
116.0000001
 10
342.2810803023538
 20
121.0000001
  0
LWPOLYLINE
  5
F9
330
17
100
AcDbEntity
  8
YZ_SIDE
100
AcDbPolyline
 90
12
 70
0
 10
342.2810803023538
 20
121.0000001
 10
342.38644194053404
 20
121.0000001
 10
342.47077843396545
 20
121.0000001
 10
342.5340583356031
 20
121.0000001
 10
342.57625804989726
 20
121.0000001
 10
342.5973618415919
 20
121.0000001
 10
342.5973618415919
 20
121.0000001
 10
342.57625804989726
 20
121.0000001
 10
342.5340583356031
 20
121.0000001
 10
342.47077843396545
 20
121.0000001
 10
342.38644194053404
 20
121.0000001
 10
342.2810803023538
 20
121.0000001
  0
LWPOLYLINE
  5
FA
330
17
100
AcDbEntity
  8
YZ_SIDE
100
AcDbPolyline
 90
2
 70
0
 10
342.2810803023538
 20
116.0000001
 10
342.2810803023538
 20
121.0000001
  0
LWPOLYLINE
  5
FB
330
17
100
AcDbEntity
  8
YZ_SIDE
100
AcDbPolyline
 90
96
 70
0
 10
286.0
 20
116.0000001
 10
290.0976162281934
 20
116.0000001
 10
294.1773146232083
 20
116.0000001
 10
298.22125570199177
 20
116.0000001
 10
302.21175633913685
 20
116.0000001
 10
306.1313670906904
 20
116.0000001
 10
309.96294849613207
 20
116.0000001
 10
313.689746024874
 20
116.0000001
 10
317.29546333956034
 20
116.0000001
 10
320.7643335558037
 20
116.0000001
 10
324.0811881867594
 20
116.0000001
 10
327.2315234710586
 20
116.0000001
 10
330.2015637940666
 20
116.0000001
 10
332.97832192514073
 20
116.0000001
 10
335.54965580748535
 20
116.0000001
 10
337.90432165227674
 20
116.0000001
 10
340.0320231048912
 20
116.0000001
 10
341.92345626824346
 20
116.0000001
 10
343.57035038636184
 20
116.0000001
 10
344.9655040102995
 20
116.0000001
 10
346.1028164882385
 20
116.0000001
 10
346.9773146420877
 20
116.0000001
 10
347.58517451392555
 20
116.0000001
 10
347.9237380871949
 20
116.0000001
 10
347.99152490953304
 20
116.0000001
 10
347.7882385664135
 20
116.0000001
 10
347.314767977291
 20
116.0000001
 10
346.57318350858316
 20
116.0000001
 10
345.5667279204846
 20
116.0000001
 10
344.299802187202
 20
116.0000001
 10
342.77794625261356
 20
116.0000001
 10
341.0078148055039
 20
116.0000001
 10
338.9971481803034
 20
116.0000001
 10
336.75473851057495
 20
116.0000001
 10
334.290391283251
 20
116.0000001
 10
331.61488246173417
 20
116.0000001
 10
328.7399113653511
 20
116.0000001
 10
325.67804951120564
 20
116.0000001
 10
322.44268564213337
 20
116.0000001
 10
319.0479671811356
 20
116.0000001
 10
315.5087383682986
 20
116.0000001
 10
311.840475350708
 20
116.0000001
 10
308.05921850919606
 20
116.0000001
 10
304.1815023178368
 20
116.0000001
 10
300.2242830428986
 20
116.0000001
 10
296.2048645974055
 20
116.0000001
 10
292.14082287552867
 20
116.0000001
 10
288.0499288976731
 20
116.0000001
 10
283.95007110232694
 20
116.0000001
 10
279.85917712447133
 20
116.0000001
 10
275.79513540259455
 20
116.0000001
 10
271.7757169571014
 20
116.0000001
 10
267.8184976821632
 20
116.0000001
 10
263.940781490804
 20
116.0000001
 10
260.159524649292
 20
116.0000001
 10
256.49126163170143
 20
116.0000001
 10
252.95203281886444
 20
116.0000001
 10
249.5573143578667
 20
116.0000001
 10
246.32195048879439
 20
116.0000001
 10
243.26008863464892
 20
116.0000001
 10
240.38511753826586
 20
116.0000001
 10
237.70960871674905
 20
116.0000001
 10
235.24526148942508
 20
116.0000001
 10
233.00285181969662
 20
116.0000001
 10
230.99218519449607
 20
116.0000001
 10
229.22205374738644
 20
116.0000001
 10
227.70019781279802
 20
116.0000001
 10
226.43327207951543
 20
116.0000001
 10
225.42681649141684
 20
116.0000001
 10
224.68523202270896
 20
116.0000001
 10
224.21176143358647
 20
116.0000001
 10
224.00847509046693
 20
116.0000001
 10
224.0762619128051
 20
116.0000001
 10
224.41482548607442
 20
116.0000001
 10
225.02268535791228
 20
116.0000001
 10
225.8971835117615
 20
116.0000001
 10
227.03449598970047
 20
116.0000001
 10
228.42964961363816
 20
116.0000001
 10
230.07654373175654
 20
116.0000001
 10
231.96797689510882
 20
116.0000001
 10
234.09567834772318
 20
116.0000001
 10
236.45034419251465
 20
116.0000001
 10
239.02167807485927
 20
116.0000001
 10
241.79843620593334
 20
116.0000001
 10
244.7684765289414
 20
116.0000001
 10
247.91881181324058
 20
116.0000001
 10
251.23566644419628
 20
116.0000001
 10
254.70453666043966
 20
116.0000001
 10
258.310253975126
 20
116.0000001
 10
262.03705150386793
 20
116.0000001
 10
265.8686329093096
 20
116.0000001
 10
269.78824366086315
 20
116.0000001
 10
273.77874429800823
 20
116.0000001
 10
277.82268537679175
 20
116.0000001
 10
281.9023837718066
 20
116.0000001
 10
286.0
 20
116.0000001
  0
LWPOLYLINE
  5
FC
330
17
100
AcDbEntity
  8
YZ_SIDE
100
AcDbPolyline
 90
22
 70
0
 10
286.0
 20
116.0000001
 10
289.94421871035786
 20
116.0000001
 10
293.8692605246993
 20
116.0000001
 10
297.7560417855853
 20
116.0000001
 10
301.58566485940264
 20
116.0000001
 10
305.33951001716025
 20
116.0000001
 10
308.9993259641055
 20
116.0000001
 10
312.54731857800334
 20
116.0000001
 10
315.9662374246309
 20
116.0000001
 10
319.2394596298464
 20
116.0000001
 10
322.3510707004441
 20
116.0000001
 10
325.28594190084266
 20
116.0000001
 10
328.0298038093987
 20
116.0000001
 10
330.5693156967136
 20
116.0000001
 10
332.89213038861396
 20
116.0000001
 10
334.9869542984396
 20
116.0000001
 10
336.8436023367618
 20
116.0000001
 10
338.4530474315584
 20
116.0000001
 10
339.8074644180772
 20
116.0000001
 10
340.9002680849949
 20
116.0000001
 10
341.7261451918889
 20
116.0000001
 10
342.2810803023538
 20
116.0000001
  0
LWPOLYLINE
  5
FD
330
17
100
AcDbEntity
  8
YZ_SIDE
100
AcDbPolyline
 90
67
 70
0
 10
342.2810803023538
 20
116.0000001
 10
341.725666848369
 20
116.0000001
 10
340.89893866368715
 20
116.0000001
 10
339.8049208869469
 20
116.0000001
 10
338.4489400248596
 20
116.0000001
 10
336.8375980187432
 20
116.0000001
 10
334.9787401012737
 20
116.0000001
 10
332.88141659995364
 20
116.0000001
 10
330.5558388732671
 20
116.0000001
 10
328.013329594056
 20
116.0000001
 10
325.266267622178
 20
116.0000001
 10
322.3280277348455
 20
116.0000001
 10
319.2129155080854
 20
116.0000001
 10
315.93609766636587
 20
116.0000001
 10
312.5135282395004
 20
116.0000001
 10
308.96187088635304
 20
116.0000001
 10
305.2984177635332
 20
116.0000001
 10
301.54100533408655
 20
116.0000001
 10
297.70792752609077
 20
116.0000001
 10
293.8178466639656
 20
116.0000001
 10
289.88970260614934
 20
116.0000001
 10
285.94262053153096
 20
116.0000001
 10
281.9958178236016
 20
116.0000001
 10
278.06851050568355
 20
116.0000001
 10
274.17981968278264
 20
116.0000001
 10
270.34867844557414
 20
116.0000001
 10
266.5937396897849
 20
116.0000001
 10
262.93328529977686
 20
116.0000001
 10
259.3851371384943
 20
116.0000001
 10
255.9665702771441
 20
116.0000001
 10
252.69422888707146
 20
116.0000001
 10
249.58404520333457
 20
116.0000001
 10
246.65116195452322
 20
116.0000001
 10
243.90985863649306
 20
116.0000001
 10
241.3734819889702
 20
116.0000001
 10
239.0543810135188
 20
116.0000001
 10
236.96384684925292
 20
116.0000001
 10
235.11205779902417
 20
116.0000001
 10
233.50802977373843
 20
116.0000001
 10
232.1595723960762
 20
116.0000001
 10
231.0732509773378
 20
116.0000001
 10
230.2543545525379
 20
116.0000001
 10
229.70687012937924
 20
116.0000001
 10
229.4334632764809
 20
116.0000001
 10
229.43546514537252
 20
116.0000001
 10
229.71286598944087
 20
116.0000001
 10
230.26431521138392
 20
116.0000001
 10
231.08712793894065
 20
116.0000001
 10
232.17729809688188
 20
116.0000001
 10
233.52951791161706
 20
116.0000001
 10
235.13720375345403
 20
116.0000001
 10
236.9925281906922
 20
116.0000001
 10
239.08645809948558
 20
116.0000001
 10
241.40879864392753
 20
116.0000001
 10
243.9482429122298
 20
116.0000001
 10
246.69242696732812
 20
116.0000001
 10
249.62799004388756
 20
116.0000001
 10
252.74063959862232
 20
116.0000001
 10
256.01522089721595
 20
116.0000001
 10
259.43579079904003
 20
116.0000001
 10
262.985695380432
 20
116.0000001
 10
266.64765101860223
 20
116.0000001
 10
270.4038285413939
 20
116.0000001
 10
274.23594003318976
 20
116.0000001
 10
278.12532787432883
 20
116.0000001
 10
282.0530555805236
 20
116.0000001
 10
285.99999999999994
 20
116.0000001
  0
LWPOLYLINE
  5
FE
330
17
100
AcDbEntity
  8
YZ_SIDE
100
AcDbPolyline
 90
12
 70
0
 10
347.0
 20
18.178728317965025
 10
347.0
 20
20.543300004283424
 10
347.0
 20
22.233677311540433
 10
347.0
 20
22.62553827727905
 10
347.0
 20
21.53877858236646
 10
347.0
 20
19.435419516368
 10
347.0
 20
16.98742597040429
 10
347.0
 20
14.876413326772521
 10
347.0
 20
13.785623273434382
 10
347.0
 20
14.150298978299276
 10
347.0
 20
15.816832549198267
 10
347.0
 20
18.178728317965025
  0
LWPOLYLINE
  5
FF
330
17
100
AcDbEntity
  8
YZ_SIDE
100
AcDbPolyline
 90
12
 70
0
 10
337.0
 20
23.116749274998384
 10
337.86064762190153
 20
22.576834365230894
 10
338.73208789422796
 20
22.054518090698295
 10
339.613961008898
 20
21.550016110032118
 10
340.50590285022486
 20
21.063536726538302
 10
341.4075451452553
 20
20.595280802191155
 10
342.31851561582585
 20
20.145441674699555
 10
343.2384381322722
 20
19.714205077680006
 10
344.16693286872896
 20
19.301749063969282
 10
345.10361645995545
 20
18.90824393210835
 10
346.04810215962345
 20
18.533852156027976
 10
347.0
 20
18.178728317965025
  0
LWPOLYLINE
  5
100
330
17
100
AcDbEntity
  8
YZ_SIDE
100
AcDbPolyline
 90
2
 70
0
 10
286.0
 20
116.0000001
 10
286.0
 20
126.0000001
  0
LWPOLYLINE
  5
101
330
17
100
AcDbEntity
  8
YZ_SIDE
100
AcDbPolyline
 90
90
 70
0
 10
286.0
 20
126.0000001
 10
289.9925050817948
 20
126.0000001
 10
293.9651197041012
 20
126.0000001
 10
297.89805250069946
 20
126.0000001
 10
301.77170979822944
 20
126.0000001
 10
305.56679323088576
 20
126.0000001
 10
309.2643958839054
 20
126.0000001
 10
312.84609648686603
 20
126.0000001
 10
316.2940511875288
 20
126.0000001
 10
319.59108244901233
 20
126.0000001
 10
322.7207646274177
 20
126.0000001
 10
325.6675058035598
 20
126.0000001
 10
328.4166254611247
 20
126.0000001
 10
330.9544276242633
 20
126.0000001
 10
333.26826909025425
 20
126.0000001
 10
335.3466224173037
 20
126.0000001
 10
337.17913335368064
 20
126.0000001
 10
338.75667242207805
 20
126.0000001
 10
340.07138040220997
 20
126.0000001
 10
341.1167074850511
 20
126.0000001
 10
341.88744590365627
 20
126.0000001
 10
342.3797558779934
 20
126.0000001
 10
342.59118474453413
 20
126.0000001
 10
342.52067917530064
 20
126.0000001
 10
342.16859042549237
 20
126.0000001
 10
341.53667258355017
 20
126.0000001
 10
340.6280738323762
 20
126.0000001
 10
339.44732076524485
 20
126.0000001
 10
338.00029583454295
 20
126.0000001
 10
336.2942080456877
 20
126.0000001
 10
334.3375570422244
 20
126.0000001
 10
332.14009076102957
 20
126.0000001
 10
329.7127568685804
 20
126.0000001
 10
327.0676482202304
 20
126.0000001
 10
324.2179426142127
 20
126.0000001
 10
321.1778371405118
 20
126.0000001
 10
317.9624774516759
 20
126.0000001
 10
314.5878823079372
 20
126.0000001
 10
311.07086377255445
 20
126.0000001
 10
307.4289434549596
 20
126.0000001
 10
303.68026521898076
 20
126.0000001
 10
299.8435047910253
 20
126.0000001
 10
295.93777671855037
 20
126.0000001
 10
291.98253914234897
 20
126.0000001
 10
287.99749685707127
 20
126.0000001
 10
284.00250314292873
 20
126.0000001
 10
280.01746085765103
 20
126.0000001
 10
276.06222328144963
 20
126.0000001
 10
272.1564952089747
 20
126.0000001
 10
268.31973478101924
 20
126.0000001
 10
264.5710565450404
 20
126.0000001
 10
260.92913622744555
 20
126.0000001
 10
257.41211769206285
 20
126.0000001
 10
254.0375225483241
 20
126.0000001
 10
250.82216285948815
 20
126.0000001
 10
247.7820573857873
 20
126.0000001
 10
244.9323517797696
 20
126.0000001
 10
242.2872431314196
 20
126.0000001
 10
239.8599092389704
 20
126.0000001
 10
237.66244295777565
 20
126.0000001
 10
235.70579195431228
 20
126.0000001
 10
233.99970416545702
 20
126.0000001
 10
232.55267923475515
 20
126.0000001
 10
231.37192616762383
 20
126.0000001
 10
230.46332741644986
 20
126.0000001
 10
229.83140957450763
 20
126.0000001
 10
229.47932082469936
 20
126.0000001
 10
229.40881525546587
 20
126.0000001
 10
229.62024412200662
 20
126.0000001
 10
230.11255409634373
 20
126.0000001
 10
230.8832925149489
 20
126.0000001
 10
231.92861959779003
 20
126.0000001
 10
233.24332757792192
 20
126.0000001
 10
234.82086664631942
 20
126.0000001
 10
236.6533775826963
 20
126.0000001
 10
238.73173090974575
 20
126.0000001
 10
241.0455723757367
 20
126.0000001
 10
243.5833745388753
 20
126.0000001
 10
246.3324941964402
 20
126.0000001
 10
249.27923537258226
 20
126.0000001
 10
252.40891755098758
 20
126.0000001
 10
255.70594881247118
 20
126.0000001
 10
259.15390351313397
 20
126.0000001
 10
262.7356041160946
 20
126.0000001
 10
266.43320676911424
 20
126.0000001
 10
270.2282902017705
 20
126.0000001
 10
274.10194749930054
 20
126.0000001
 10
278.03488029589874
 20
126.0000001
 10
282.00749491820517
 20
126.0000001
 10
286.0
 20
126.0000001
  0
LWPOLYLINE
  5
102
330
17
100
AcDbEntity
  8
YZ_SIDE
100
AcDbPolyline
 90
96
 70
0
 10
286.0
 20
126.0000001
 10
290.0976162281934
 20
126.0000001
 10
294.1773146232083
 20
126.0000001
 10
298.22125570199177
 20
126.0000001
 10
302.21175633913685
 20
126.0000001
 10
306.1313670906904
 20
126.0000001
 10
309.96294849613207
 20
126.0000001
 10
313.689746024874
 20
126.0000001
 10
317.29546333956034
 20
126.0000001
 10
320.7643335558037
 20
126.0000001
 10
324.0811881867594
 20
126.0000001
 10
327.2315234710586
 20
126.0000001
 10
330.2015637940666
 20
126.0000001
 10
332.97832192514073
 20
126.0000001
 10
335.54965580748535
 20
126.0000001
 10
337.90432165227674
 20
126.0000001
 10
340.0320231048912
 20
126.0000001
 10
341.92345626824346
 20
126.0000001
 10
343.57035038636184
 20
126.0000001
 10
344.9655040102995
 20
126.0000001
 10
346.1028164882385
 20
126.0000001
 10
346.9773146420877
 20
126.0000001
 10
347.58517451392555
 20
126.0000001
 10
347.9237380871949
 20
126.0000001
 10
347.99152490953304
 20
126.0000001
 10
347.7882385664135
 20
126.0000001
 10
347.314767977291
 20
126.0000001
 10
346.57318350858316
 20
126.0000001
 10
345.5667279204846
 20
126.0000001
 10
344.299802187202
 20
126.0000001
 10
342.77794625261356
 20
126.0000001
 10
341.0078148055039
 20
126.0000001
 10
338.9971481803034
 20
126.0000001
 10
336.75473851057495
 20
126.0000001
 10
334.290391283251
 20
126.0000001
 10
331.61488246173417
 20
126.0000001
 10
328.7399113653511
 20
126.0000001
 10
325.67804951120564
 20
126.0000001
 10
322.44268564213337
 20
126.0000001
 10
319.0479671811356
 20
126.0000001
 10
315.5087383682986
 20
126.0000001
 10
311.840475350708
 20
126.0000001
 10
308.05921850919606
 20
126.0000001
 10
304.1815023178368
 20
126.0000001
 10
300.2242830428986
 20
126.0000001
 10
296.2048645974055
 20
126.0000001
 10
292.14082287552867
 20
126.0000001
 10
288.0499288976731
 20
126.0000001
 10
283.95007110232694
 20
126.0000001
 10
279.85917712447133
 20
126.0000001
 10
275.79513540259455
 20
126.0000001
 10
271.7757169571014
 20
126.0000001
 10
267.8184976821632
 20
126.0000001
 10
263.940781490804
 20
126.0000001
 10
260.159524649292
 20
126.0000001
 10
256.49126163170143
 20
126.0000001
 10
252.95203281886444
 20
126.0000001
 10
249.5573143578667
 20
126.0000001
 10
246.32195048879439
 20
126.0000001
 10
243.26008863464892
 20
126.0000001
 10
240.38511753826586
 20
126.0000001
 10
237.70960871674905
 20
126.0000001
 10
235.24526148942508
 20
126.0000001
 10
233.00285181969662
 20
126.0000001
 10
230.99218519449607
 20
126.0000001
 10
229.22205374738644
 20
126.0000001
 10
227.70019781279802
 20
126.0000001
 10
226.43327207951543
 20
126.0000001
 10
225.42681649141684
 20
126.0000001
 10
224.68523202270896
 20
126.0000001
 10
224.21176143358647
 20
126.0000001
 10
224.00847509046693
 20
126.0000001
 10
224.0762619128051
 20
126.0000001
 10
224.41482548607442
 20
126.0000001
 10
225.02268535791228
 20
126.0000001
 10
225.8971835117615
 20
126.0000001
 10
227.03449598970047
 20
126.0000001
 10
228.42964961363816
 20
126.0000001
 10
230.07654373175654
 20
126.0000001
 10
231.96797689510882
 20
126.0000001
 10
234.09567834772318
 20
126.0000001
 10
236.45034419251465
 20
126.0000001
 10
239.02167807485927
 20
126.0000001
 10
241.79843620593334
 20
126.0000001
 10
244.7684765289414
 20
126.0000001
 10
247.91881181324058
 20
126.0000001
 10
251.23566644419628
 20
126.0000001
 10
254.70453666043966
 20
126.0000001
 10
258.310253975126
 20
126.0000001
 10
262.03705150386793
 20
126.0000001
 10
265.8686329093096
 20
126.0000001
 10
269.78824366086315
 20
126.0000001
 10
273.77874429800823
 20
126.0000001
 10
277.82268537679175
 20
126.0000001
 10
281.9023837718066
 20
126.0000001
 10
286.0
 20
126.0000001
  0
LWPOLYLINE
  5
103
330
17
100
AcDbEntity
  8
YZ_SIDE
100
AcDbPolyline
 90
2
 70
0
 10
286.0
 20
116.0000001
 10
286.0
 20
126.0000001
  0
DIMENSION
  5
104
330
17
100
AcDbEntity
  8
DIMENSIONS
100
AcDbDimension
280
0
  2
*D5
  3
Standard
 10
224.0
 20
-25.0
 30
0.0
 11
322.5
 21
-25.0
 31
0.0
 70
32
 71
5
  1
<>
100
AcDbAlignedDimension
 13
224.0
 23
0.0
 33
0.0
 14
421.0
 24
0.0
 34
0.0
 50
0.0
100
AcDbRotatedDimension
1001
ACAD
1000
DSTYLE
1002
{
1070
140
1040
3.0
1070
41
1040
3.0
1070
271
1070
3
1002
}
  0
DIMENSION
  5
114
330
17
100
AcDbEntity
  8
DIMENSIONS
100
AcDbDimension
280
0
  2
*D6
  3
Standard
 10
199.0
 20
0.0
 30
0.0
 11
199.0
 21
63.00000005
 31
0.0
 70
32
 71
5
  1
<>
100
AcDbAlignedDimension
 13
224.0
 23
0.0
 33
0.0
 14
224.0
 24
126.0000001
 34
0.0
 50
90.0
100
AcDbRotatedDimension
1001
ACAD
1000
DSTYLE
1002
{
1070
140
1040
3.0
1070
41
1040
3.0
1070
271
1070
3
1002
}
  0
TEXT
  5
124
330
17
100
AcDbEntity
  8
NOTES
100
AcDbText
 10
0.0
 20
-493.00000009999997
 30
0.0
 40
3.0
  1
V3_TETHER_NONMETAL_STRAIN_RELIEF_CONCEPT / Poseidon Trident by Intrface / HW-CAND-3.0 / mm
100
AcDbText
  0
TEXT
  5
125
330
17
100
AcDbEntity
  8
NOTES
100
AcDbText
 10
0.0
 20
-500.00000009999997
 30
0.0
 40
3.0
  1
NON-ADOPTED DIGITAL CANDIDATE; NO BUILD OR PRESSURE RELEASE
100
AcDbText
  0
TEXT
  5
126
330
17
100
AcDbEntity
  8
NOTES
100
AcDbText
 10
0.0
 20
-507.00000009999997
 30
0.0
 40
3.0
  1
Three orthographic wireframe projections; sampled curves. STEP is exact. Do not scale a render.
100
AcDbText
  0
TEXT
  5
127
330
17
100
AcDbEntity
  8
NOTES
100
AcDbText
 10
0.0
 20
-514.0000001
 30
0.0
 40
3.0
  1
sources/design-inputs.json: allocations; all dimensions hash traced
100
AcDbText
  0
TEXT
  5
128
330
17
100
AcDbEntity
  8
NOTES
100
AcDbText
 10
0.0
 20
-521.0000001
 30
0.0
 40
3.0
  1
Dimension origins use modeled bounds; vendor BRep details keep source authority and revision conflicts.
100
AcDbText
  0
TEXT
  5
129
330
17
100
AcDbEntity
  8
NOTES
100
AcDbText
 10
0.0
 20
-528.0000001
 30
0.0
 40
3.0
  1
All physical gates unperformed. Dome material is POLYCARBONATE, not acrylic.
100
AcDbText
  0
ENDSEC
  0
SECTION
  2
OBJECTS
  0
DICTIONARY
  5
A
330
0
100
AcDbDictionary
281
1
  3
ACAD_COLOR
350
B
  3
ACAD_GROUP
350
C
  3
ACAD_LAYOUT
350
D
  3
ACAD_MATERIAL
350
E
  3
ACAD_MLEADERSTYLE
350
F
  3
ACAD_MLINESTYLE
350
10
  3
ACAD_PLOTSETTINGS
350
11
  3
ACAD_PLOTSTYLENAME
350
12
  3
ACAD_SCALELIST
350
14
  3
ACAD_TABLESTYLE
350
15
  3
ACAD_VISUALSTYLE
350
16
  3
EZDXF_META
350
2D
  0
DICTIONARY
  5
B
330
A
100
AcDbDictionary
281
1
  0
DICTIONARY
  5
C
330
A
100
AcDbDictionary
281
1
  0
DICTIONARY
  5
D
330
A
100
AcDbDictionary
281
1
  3
Model
350
1A
  3
Layout1
350
1E
  0
DICTIONARY
  5
E
330
A
100
AcDbDictionary
281
1
  3
ByBlock
350
1F
  3
ByLayer
350
20
  3
Global
350
21
  0
DICTIONARY
  5
F
330
A
100
AcDbDictionary
281
1
  3
Standard
350
2C
  0
DICTIONARY
  5
10
330
A
100
AcDbDictionary
281
1
  3
Standard
350
22
  0
DICTIONARY
  5
11
330
A
100
AcDbDictionary
281
1
  0
ACDBDICTIONARYWDFLT
  5
12
330
A
100
AcDbDictionary
281
1
  3
Normal
350
13
100
AcDbDictionaryWithDefault
340
13
  0
ACDBPLACEHOLDER
  5
13
330
12
  0
DICTIONARY
  5
14
330
A
100
AcDbDictionary
281
1
  0
DICTIONARY
  5
15
330
A
100
AcDbDictionary
281
1
  0
DICTIONARY
  5
16
330
A
100
AcDbDictionary
281
1
  0
LAYOUT
  5
1A
330
D
100
AcDbPlotSettings
  1

  4
A3
  6

 40
7.5
 41
20.0
 42
7.5
 43
20.0
 44
420.0
 45
297.0
 46
0.0
 47
0.0
 48
0.0
 49
0.0
140
0.0
141
0.0
142
1.0
143
1.0
 70
1024
 72
1
 73
0
 74
5
  7

 75
16
 76
0
 77
2
 78
300
147
1.0
148
0.0
149
0.0
100
AcDbLayout
  1
Model
 70
1
 71
0
 10
0.0
 20
0.0
 11
420.0
 21
297.0
 12
0.0
 22
0.0
 32
0.0
 14
1e+20
 24
1e+20
 34
1e+20
 15
-1e+20
 25
-1e+20
 35
-1e+20
146
0.0
 13
0.0
 23
0.0
 33
0.0
 16
1.0
 26
0.0
 36
0.0
 17
0.0
 27
1.0
 37
0.0
 76
1
330
17
  0
LAYOUT
  5
1E
330
D
100
AcDbPlotSettings
  1

  4
A3
  6

 40
7.5
 41
20.0
 42
7.5
 43
20.0
 44
420.0
 45
297.0
 46
0.0
 47
0.0
 48
0.0
 49
0.0
140
0.0
141
0.0
142
1.0
143
1.0
 70
0
 72
1
 73
0
 74
5
  7

 75
16
 76
0
 77
2
 78
300
147
1.0
148
0.0
149
0.0
100
AcDbLayout
  1
Layout1
 70
1
 71
1
 10
0.0
 20
0.0
 11
420.0
 21
297.0
 12
0.0
 22
0.0
 32
0.0
 14
1e+20
 24
1e+20
 34
1e+20
 15
-1e+20
 25
-1e+20
 35
-1e+20
146
0.0
 13
0.0
 23
0.0
 33
0.0
 16
1.0
 26
0.0
 36
0.0
 17
0.0
 27
1.0
 37
0.0
 76
1
330
1B
  0
MATERIAL
  5
1F
102
{ACAD_REACTORS
330
E
102
}
330
E
100
AcDbMaterial
  1
ByBlock
  2

 70
0
 40
1.0
 71
1
 41
1.0
 91
-1023410177
 42
1.0
 72
1
  3

 73
1
 74
1
 75
1
 44
0.5
 73
0
 45
1.0
 46
1.0
 77
1
  4

 78
1
 79
1
170
1
 48
1.0
171
1
  6

172
1
173
1
174
1
140
1.0
141
1.0
175
1
  7

176
1
177
1
178
1
143
1.0
179
1
  8

270
1
271
1
272
1
145
1.0
146
1.0
273
1
  9

274
1
275
1
276
1
 42
1.0
 72
1
  3

 73
1
 74
1
 75
1
 94
63
  0
MATERIAL
  5
20
102
{ACAD_REACTORS
330
E
102
}
330
E
100
AcDbMaterial
  1
ByLayer
  2

 70
0
 40
1.0
 71
1
 41
1.0
 91
-1023410177
 42
1.0
 72
1
  3

 73
1
 74
1
 75
1
 44
0.5
 73
0
 45
1.0
 46
1.0
 77
1
  4

 78
1
 79
1
170
1
 48
1.0
171
1
  6

172
1
173
1
174
1
140
1.0
141
1.0
175
1
  7

176
1
177
1
178
1
143
1.0
179
1
  8

270
1
271
1
272
1
145
1.0
146
1.0
273
1
  9

274
1
275
1
276
1
 42
1.0
 72
1
  3

 73
1
 74
1
 75
1
 94
63
  0
MATERIAL
  5
21
102
{ACAD_REACTORS
330
E
102
}
330
E
100
AcDbMaterial
  1
Global
  2

 70
0
 40
1.0
 71
1
 41
1.0
 91
-1023410177
 42
1.0
 72
1
  3

 73
1
 74
1
 75
1
 44
0.5
 73
0
 45
1.0
 46
1.0
 77
1
  4

 78
1
 79
1
170
1
 48
1.0
171
1
  6

172
1
173
1
174
1
140
1.0
141
1.0
175
1
  7

176
1
177
1
178
1
143
1.0
179
1
  8

270
1
271
1
272
1
145
1.0
146
1.0
273
1
  9

274
1
275
1
276
1
 42
1.0
 72
1
  3

 73
1
 74
1
 75
1
 94
63
  0
MLINESTYLE
  5
22
102
{ACAD_REACTORS
330
10
102
}
330
10
100
AcDbMlineStyle
  2
Standard
 70
0
  3

 62
256
 51
90.0
 52
90.0
 71
2
 49
0.5
 62
256
  6
BYLAYER
 49
-0.5
 62
256
  6
BYLAYER
  0
MLEADERSTYLE
  5
2C
102
{ACAD_REACTORS
330
F
102
}
330
F
100
AcDbMLeaderStyle
179
2
170
2
171
1
172
0
 90
2
 40
0.0
 41
0.0
173
1
 91
-1056964608
 92
-2
290
1
 42
2.0
291
1
 43
8.0
  3
Standard
 44
4.0
300

342
29
174
1
175
1
176
0
178
1
 93
-1056964608
 45
4.0
292
0
297
0
 46
4.0
 94
-1056964608
 47
1.0
 49
1.0
140
1.0
294
1
141
0.0
177
0
142
1.0
295
0
296
0
143
3.75
271
0
272
9
273
9
  0
DICTIONARY
  5
2D
330
A
100
AcDbDictionary
280
1
281
1
  3
CREATED_BY_EZDXF
350
2E
  3
WRITTEN_BY_EZDXF
350
12C
  0
DICTIONARYVAR
  5
2E
330
2D
100
DictionaryVariables
280
0
  1
1.4.3 @ 2026-09-27T12:27:14.946943+00:00
  0
DICTIONARYVAR
  5
12C
330
2D
100
DictionaryVariables
280
0
  1
1.4.3 @ 2026-09-27T12:27:14.974780+00:00
  0
ENDSEC
  0
EOF
